G04*
G04 #@! TF.GenerationSoftware,Altium Limited,Altium Designer,19.0.15 (446)*
G04*
G04 Layer_Color=32896*
%FSLAX24Y24*%
%MOIN*%
G70*
G01*
G75*
G36*
X12006Y4686D02*
X12019D01*
Y4682D01*
X12027D01*
Y4678D01*
X12031D01*
Y4674D01*
X12035D01*
Y4670D01*
X12040D01*
Y4665D01*
X12044D01*
Y4661D01*
X12048D01*
Y4657D01*
X12052D01*
Y4653D01*
Y4649D01*
X12056D01*
Y4644D01*
Y4640D01*
Y4636D01*
Y4632D01*
X12061D01*
Y4628D01*
Y4623D01*
Y4619D01*
Y4615D01*
Y4611D01*
Y4607D01*
Y4602D01*
Y4598D01*
Y4594D01*
Y4590D01*
Y4586D01*
Y4581D01*
Y4577D01*
Y4573D01*
Y4569D01*
Y4565D01*
Y4560D01*
Y4556D01*
Y4552D01*
Y4548D01*
Y4544D01*
Y4539D01*
Y4535D01*
Y4531D01*
Y4527D01*
Y4523D01*
Y4518D01*
Y4514D01*
Y4510D01*
Y4506D01*
Y4502D01*
Y4497D01*
Y4493D01*
Y4489D01*
Y4485D01*
Y4481D01*
Y4476D01*
Y4472D01*
Y4468D01*
Y4464D01*
Y4460D01*
Y4455D01*
Y4451D01*
Y4447D01*
Y4443D01*
Y4439D01*
Y4435D01*
Y4430D01*
Y4426D01*
Y4422D01*
Y4418D01*
Y4414D01*
Y4409D01*
Y4405D01*
Y4401D01*
Y4397D01*
Y4393D01*
Y4388D01*
Y4384D01*
Y4380D01*
Y4376D01*
Y4372D01*
Y4367D01*
Y4363D01*
Y4359D01*
Y4355D01*
Y4351D01*
Y4346D01*
Y4342D01*
Y4338D01*
Y4334D01*
Y4330D01*
Y4325D01*
X12056D01*
Y4321D01*
Y4317D01*
Y4313D01*
Y4309D01*
X12052D01*
Y4304D01*
Y4300D01*
X12048D01*
Y4296D01*
Y4292D01*
X12044D01*
Y4288D01*
X12040D01*
Y4283D01*
X12035D01*
Y4279D01*
X12027D01*
Y4275D01*
X12023D01*
Y4271D01*
X12010D01*
Y4267D01*
X11683D01*
Y4271D01*
X11674D01*
Y4275D01*
X11666D01*
Y4279D01*
X11658D01*
Y4283D01*
X11653D01*
Y4288D01*
X11649D01*
Y4292D01*
Y4296D01*
X11645D01*
Y4300D01*
X11641D01*
Y4304D01*
Y4309D01*
Y4313D01*
X11637D01*
Y4317D01*
Y4321D01*
Y4325D01*
Y4330D01*
X11632D01*
Y4334D01*
Y4338D01*
Y4342D01*
Y4346D01*
Y4351D01*
Y4355D01*
Y4359D01*
Y4363D01*
Y4367D01*
Y4372D01*
Y4376D01*
Y4380D01*
Y4384D01*
Y4388D01*
Y4393D01*
Y4397D01*
Y4401D01*
Y4405D01*
Y4409D01*
Y4414D01*
Y4418D01*
Y4422D01*
Y4426D01*
Y4430D01*
Y4435D01*
Y4439D01*
Y4443D01*
Y4447D01*
Y4451D01*
Y4455D01*
Y4460D01*
Y4464D01*
Y4468D01*
Y4472D01*
Y4476D01*
Y4481D01*
Y4485D01*
Y4489D01*
Y4493D01*
Y4497D01*
Y4502D01*
Y4506D01*
Y4510D01*
Y4514D01*
Y4518D01*
Y4523D01*
Y4527D01*
Y4531D01*
Y4535D01*
Y4539D01*
Y4544D01*
Y4548D01*
Y4552D01*
Y4556D01*
Y4560D01*
Y4565D01*
Y4569D01*
Y4573D01*
Y4577D01*
Y4581D01*
Y4586D01*
Y4590D01*
Y4594D01*
Y4598D01*
Y4602D01*
Y4607D01*
Y4611D01*
Y4615D01*
Y4619D01*
Y4623D01*
X11637D01*
Y4628D01*
Y4632D01*
Y4636D01*
Y4640D01*
Y4644D01*
X11641D01*
Y4649D01*
Y4653D01*
X11645D01*
Y4657D01*
Y4661D01*
X11649D01*
Y4665D01*
X11653D01*
Y4670D01*
X11658D01*
Y4674D01*
X11662D01*
Y4678D01*
X11666D01*
Y4682D01*
X11674D01*
Y4686D01*
X11687D01*
Y4691D01*
X12006D01*
Y4686D01*
D02*
G37*
G36*
X12783D02*
X12795D01*
Y4682D01*
X12800D01*
Y4678D01*
X12804D01*
Y4674D01*
Y4670D01*
X12808D01*
Y4665D01*
Y4661D01*
X12812D01*
Y4657D01*
Y4653D01*
Y4649D01*
Y4644D01*
Y4640D01*
Y4636D01*
X12808D01*
Y4632D01*
Y4628D01*
Y4623D01*
Y4619D01*
Y4615D01*
Y4611D01*
Y4607D01*
Y4602D01*
Y4598D01*
Y4594D01*
Y4590D01*
Y4586D01*
Y4581D01*
Y4577D01*
Y4573D01*
X12804D01*
Y4569D01*
Y4565D01*
Y4560D01*
Y4556D01*
Y4552D01*
Y4548D01*
Y4544D01*
Y4539D01*
Y4535D01*
Y4531D01*
Y4527D01*
Y4523D01*
Y4518D01*
Y4514D01*
Y4510D01*
X12800D01*
Y4506D01*
Y4502D01*
Y4497D01*
Y4493D01*
Y4489D01*
Y4485D01*
Y4481D01*
Y4476D01*
Y4472D01*
Y4468D01*
Y4464D01*
Y4460D01*
Y4455D01*
Y4451D01*
Y4447D01*
Y4443D01*
X12795D01*
Y4439D01*
Y4435D01*
Y4430D01*
Y4426D01*
Y4422D01*
Y4418D01*
Y4414D01*
Y4409D01*
Y4405D01*
Y4401D01*
Y4397D01*
Y4393D01*
Y4388D01*
Y4384D01*
Y4380D01*
X12791D01*
Y4376D01*
Y4372D01*
Y4367D01*
Y4363D01*
Y4359D01*
Y4355D01*
Y4351D01*
Y4346D01*
Y4342D01*
Y4338D01*
Y4334D01*
Y4330D01*
Y4325D01*
Y4321D01*
Y4317D01*
X12787D01*
Y4313D01*
Y4309D01*
Y4304D01*
Y4300D01*
Y4296D01*
Y4292D01*
Y4288D01*
Y4283D01*
Y4279D01*
Y4275D01*
Y4271D01*
Y4267D01*
Y4262D01*
Y4258D01*
Y4254D01*
X12783D01*
Y4250D01*
Y4246D01*
Y4241D01*
Y4237D01*
Y4233D01*
Y4229D01*
Y4225D01*
Y4220D01*
Y4216D01*
Y4212D01*
Y4208D01*
Y4204D01*
Y4199D01*
Y4195D01*
Y4191D01*
X12779D01*
Y4187D01*
Y4183D01*
Y4178D01*
Y4174D01*
Y4170D01*
Y4166D01*
Y4162D01*
Y4157D01*
Y4153D01*
Y4149D01*
Y4145D01*
Y4141D01*
Y4136D01*
Y4132D01*
Y4128D01*
X12774D01*
Y4124D01*
Y4120D01*
Y4115D01*
Y4111D01*
Y4107D01*
Y4103D01*
Y4099D01*
Y4094D01*
Y4090D01*
Y4086D01*
Y4082D01*
Y4078D01*
Y4073D01*
Y4069D01*
Y4065D01*
X12770D01*
Y4061D01*
Y4057D01*
Y4052D01*
Y4048D01*
Y4044D01*
Y4040D01*
Y4036D01*
Y4031D01*
Y4027D01*
Y4023D01*
Y4019D01*
Y4015D01*
Y4010D01*
Y4006D01*
Y4002D01*
X12766D01*
Y3998D01*
Y3994D01*
Y3989D01*
Y3985D01*
Y3981D01*
Y3977D01*
Y3973D01*
Y3968D01*
Y3964D01*
Y3960D01*
Y3956D01*
Y3952D01*
Y3947D01*
Y3943D01*
Y3939D01*
Y3935D01*
X12762D01*
Y3931D01*
Y3926D01*
Y3922D01*
Y3918D01*
Y3914D01*
Y3910D01*
Y3905D01*
Y3901D01*
Y3897D01*
Y3893D01*
Y3889D01*
Y3884D01*
Y3880D01*
Y3876D01*
Y3872D01*
X12758D01*
Y3868D01*
Y3864D01*
Y3859D01*
Y3855D01*
Y3851D01*
Y3847D01*
Y3842D01*
Y3838D01*
Y3834D01*
Y3830D01*
Y3826D01*
Y3822D01*
Y3817D01*
Y3813D01*
Y3809D01*
X12753D01*
Y3805D01*
Y3801D01*
Y3796D01*
Y3792D01*
Y3788D01*
Y3784D01*
Y3780D01*
Y3775D01*
Y3771D01*
Y3767D01*
Y3763D01*
Y3759D01*
Y3754D01*
Y3750D01*
Y3746D01*
X12749D01*
Y3742D01*
Y3738D01*
Y3733D01*
Y3729D01*
Y3725D01*
Y3721D01*
Y3717D01*
Y3712D01*
Y3708D01*
Y3704D01*
Y3700D01*
Y3696D01*
Y3691D01*
X12745D01*
Y3687D01*
Y3683D01*
X12741D01*
Y3679D01*
Y3675D01*
X12737D01*
Y3670D01*
X12732D01*
Y3666D01*
X12720D01*
Y3662D01*
X10973D01*
Y3666D01*
X10965D01*
Y3670D01*
X10961D01*
Y3675D01*
X10956D01*
Y3679D01*
X10952D01*
Y3683D01*
X10948D01*
Y3687D01*
Y3691D01*
Y3696D01*
Y3700D01*
Y3704D01*
Y3708D01*
X10944D01*
Y3712D01*
Y3717D01*
Y3721D01*
Y3725D01*
Y3729D01*
Y3733D01*
Y3738D01*
Y3742D01*
Y3746D01*
Y3750D01*
Y3754D01*
Y3759D01*
Y3763D01*
Y3767D01*
Y3771D01*
X10940D01*
Y3775D01*
Y3780D01*
Y3784D01*
Y3788D01*
Y3792D01*
Y3796D01*
Y3801D01*
Y3805D01*
Y3809D01*
Y3813D01*
Y3817D01*
Y3822D01*
Y3826D01*
Y3830D01*
Y3834D01*
X10935D01*
Y3838D01*
Y3842D01*
Y3847D01*
Y3851D01*
Y3855D01*
Y3859D01*
Y3864D01*
Y3868D01*
Y3872D01*
Y3876D01*
Y3880D01*
Y3884D01*
Y3889D01*
Y3893D01*
Y3897D01*
X10931D01*
Y3901D01*
Y3905D01*
Y3910D01*
Y3914D01*
Y3918D01*
Y3922D01*
Y3926D01*
Y3931D01*
Y3935D01*
Y3939D01*
Y3943D01*
Y3947D01*
Y3952D01*
Y3956D01*
Y3960D01*
X10927D01*
Y3964D01*
Y3968D01*
Y3973D01*
Y3977D01*
Y3981D01*
Y3985D01*
Y3989D01*
Y3994D01*
Y3998D01*
Y4002D01*
Y4006D01*
Y4010D01*
Y4015D01*
Y4019D01*
Y4023D01*
X10923D01*
Y4027D01*
Y4031D01*
Y4036D01*
Y4040D01*
Y4044D01*
Y4048D01*
Y4052D01*
Y4057D01*
Y4061D01*
Y4065D01*
Y4069D01*
Y4073D01*
Y4078D01*
Y4082D01*
Y4086D01*
X10919D01*
Y4090D01*
Y4094D01*
Y4099D01*
Y4103D01*
Y4107D01*
Y4111D01*
Y4115D01*
Y4120D01*
Y4124D01*
Y4128D01*
Y4132D01*
Y4136D01*
Y4141D01*
Y4145D01*
Y4149D01*
X10914D01*
Y4153D01*
Y4157D01*
Y4162D01*
Y4166D01*
Y4170D01*
Y4174D01*
Y4178D01*
Y4183D01*
Y4187D01*
Y4191D01*
Y4195D01*
Y4199D01*
Y4204D01*
Y4208D01*
Y4212D01*
Y4216D01*
X10910D01*
Y4220D01*
Y4225D01*
Y4229D01*
Y4233D01*
Y4237D01*
Y4241D01*
Y4246D01*
Y4250D01*
Y4254D01*
Y4258D01*
Y4262D01*
Y4267D01*
Y4271D01*
Y4275D01*
Y4279D01*
X10906D01*
Y4283D01*
Y4288D01*
Y4292D01*
Y4296D01*
Y4300D01*
Y4304D01*
Y4309D01*
Y4313D01*
Y4317D01*
Y4321D01*
Y4325D01*
Y4330D01*
Y4334D01*
Y4338D01*
Y4342D01*
X10902D01*
Y4346D01*
Y4351D01*
Y4355D01*
Y4359D01*
Y4363D01*
Y4367D01*
Y4372D01*
Y4376D01*
Y4380D01*
Y4384D01*
Y4388D01*
Y4393D01*
Y4397D01*
Y4401D01*
Y4405D01*
X10898D01*
Y4409D01*
Y4414D01*
Y4418D01*
Y4422D01*
Y4426D01*
Y4430D01*
Y4435D01*
Y4439D01*
Y4443D01*
Y4447D01*
Y4451D01*
Y4455D01*
Y4460D01*
Y4464D01*
Y4468D01*
X10893D01*
Y4472D01*
Y4476D01*
Y4481D01*
Y4485D01*
Y4489D01*
Y4493D01*
Y4497D01*
Y4502D01*
Y4506D01*
Y4510D01*
Y4514D01*
Y4518D01*
Y4523D01*
Y4527D01*
Y4531D01*
X10889D01*
Y4535D01*
Y4539D01*
Y4544D01*
Y4548D01*
Y4552D01*
Y4556D01*
Y4560D01*
Y4565D01*
Y4569D01*
Y4573D01*
Y4577D01*
Y4581D01*
Y4586D01*
Y4590D01*
Y4594D01*
X10885D01*
Y4598D01*
Y4602D01*
Y4607D01*
Y4611D01*
Y4615D01*
Y4619D01*
Y4623D01*
Y4628D01*
Y4632D01*
Y4636D01*
Y4640D01*
Y4644D01*
Y4649D01*
Y4653D01*
Y4657D01*
Y4661D01*
Y4665D01*
Y4670D01*
X10889D01*
Y4674D01*
X10893D01*
Y4678D01*
Y4682D01*
X10902D01*
Y4686D01*
X10910D01*
Y4691D01*
X11296D01*
Y4686D01*
X11305D01*
Y4682D01*
X11313D01*
Y4678D01*
Y4674D01*
X11317D01*
Y4670D01*
X11322D01*
Y4665D01*
Y4661D01*
Y4657D01*
Y4653D01*
Y4649D01*
X11326D01*
Y4644D01*
Y4640D01*
Y4636D01*
Y4632D01*
Y4628D01*
Y4623D01*
Y4619D01*
Y4615D01*
Y4611D01*
Y4607D01*
Y4602D01*
Y4598D01*
Y4594D01*
Y4590D01*
Y4586D01*
Y4581D01*
X11330D01*
Y4577D01*
Y4573D01*
Y4569D01*
Y4565D01*
Y4560D01*
Y4556D01*
Y4552D01*
Y4548D01*
Y4544D01*
Y4539D01*
Y4535D01*
Y4531D01*
Y4527D01*
Y4523D01*
Y4518D01*
X11334D01*
Y4514D01*
Y4510D01*
Y4506D01*
Y4502D01*
Y4497D01*
Y4493D01*
Y4489D01*
Y4485D01*
Y4481D01*
Y4476D01*
Y4472D01*
Y4468D01*
Y4464D01*
Y4460D01*
Y4455D01*
X11338D01*
Y4451D01*
Y4447D01*
Y4443D01*
Y4439D01*
Y4435D01*
Y4430D01*
Y4426D01*
Y4422D01*
Y4418D01*
Y4414D01*
Y4409D01*
Y4405D01*
Y4401D01*
Y4397D01*
Y4393D01*
X11343D01*
Y4388D01*
Y4384D01*
Y4380D01*
Y4376D01*
Y4372D01*
Y4367D01*
Y4363D01*
Y4359D01*
Y4355D01*
Y4351D01*
Y4346D01*
Y4342D01*
Y4338D01*
Y4334D01*
Y4330D01*
X11347D01*
Y4325D01*
Y4321D01*
Y4317D01*
Y4313D01*
Y4309D01*
Y4304D01*
Y4300D01*
Y4296D01*
Y4292D01*
Y4288D01*
Y4283D01*
Y4279D01*
Y4275D01*
Y4271D01*
Y4267D01*
X11351D01*
Y4262D01*
Y4258D01*
Y4254D01*
Y4250D01*
Y4246D01*
Y4241D01*
Y4237D01*
Y4233D01*
Y4229D01*
Y4225D01*
Y4220D01*
Y4216D01*
Y4212D01*
Y4208D01*
Y4204D01*
X11355D01*
Y4199D01*
Y4195D01*
Y4191D01*
Y4187D01*
Y4183D01*
Y4178D01*
Y4174D01*
Y4170D01*
Y4166D01*
Y4162D01*
Y4157D01*
Y4153D01*
Y4149D01*
Y4145D01*
Y4141D01*
X11359D01*
Y4136D01*
Y4132D01*
Y4128D01*
Y4124D01*
Y4120D01*
Y4115D01*
Y4111D01*
Y4107D01*
Y4103D01*
Y4099D01*
Y4094D01*
Y4090D01*
Y4086D01*
Y4082D01*
Y4078D01*
X11364D01*
Y4073D01*
Y4069D01*
X11368D01*
Y4065D01*
Y4061D01*
X11372D01*
Y4057D01*
X11376D01*
Y4052D01*
X11385D01*
Y4048D01*
X12308D01*
Y4052D01*
X12317D01*
Y4057D01*
X12321D01*
Y4061D01*
X12325D01*
Y4065D01*
X12329D01*
Y4069D01*
Y4073D01*
X12334D01*
Y4078D01*
Y4082D01*
Y4086D01*
Y4090D01*
Y4094D01*
Y4099D01*
Y4103D01*
Y4107D01*
Y4111D01*
Y4115D01*
X12338D01*
Y4120D01*
Y4124D01*
Y4128D01*
Y4132D01*
Y4136D01*
Y4141D01*
Y4145D01*
Y4149D01*
Y4153D01*
Y4157D01*
Y4162D01*
Y4166D01*
Y4170D01*
Y4174D01*
Y4178D01*
X12342D01*
Y4183D01*
Y4187D01*
Y4191D01*
Y4195D01*
Y4199D01*
Y4204D01*
Y4208D01*
Y4212D01*
Y4216D01*
Y4220D01*
Y4225D01*
Y4229D01*
Y4233D01*
Y4237D01*
Y4241D01*
X12346D01*
Y4246D01*
Y4250D01*
Y4254D01*
Y4258D01*
Y4262D01*
Y4267D01*
Y4271D01*
Y4275D01*
Y4279D01*
Y4283D01*
Y4288D01*
Y4292D01*
Y4296D01*
Y4300D01*
Y4304D01*
X12350D01*
Y4309D01*
Y4313D01*
Y4317D01*
Y4321D01*
Y4325D01*
Y4330D01*
Y4334D01*
Y4338D01*
Y4342D01*
Y4346D01*
Y4351D01*
Y4355D01*
Y4359D01*
Y4363D01*
Y4367D01*
X12355D01*
Y4372D01*
Y4376D01*
Y4380D01*
Y4384D01*
Y4388D01*
Y4393D01*
Y4397D01*
Y4401D01*
Y4405D01*
Y4409D01*
Y4414D01*
Y4418D01*
Y4422D01*
Y4426D01*
Y4430D01*
Y4435D01*
X12359D01*
Y4439D01*
Y4443D01*
Y4447D01*
Y4451D01*
Y4455D01*
Y4460D01*
Y4464D01*
Y4468D01*
Y4472D01*
Y4476D01*
Y4481D01*
Y4485D01*
Y4489D01*
Y4493D01*
Y4497D01*
X12363D01*
Y4502D01*
Y4506D01*
Y4510D01*
Y4514D01*
Y4518D01*
Y4523D01*
Y4527D01*
Y4531D01*
Y4535D01*
Y4539D01*
Y4544D01*
Y4548D01*
Y4552D01*
Y4556D01*
Y4560D01*
X12367D01*
Y4565D01*
Y4569D01*
Y4573D01*
Y4577D01*
Y4581D01*
Y4586D01*
Y4590D01*
Y4594D01*
Y4598D01*
Y4602D01*
Y4607D01*
Y4611D01*
Y4615D01*
Y4619D01*
Y4623D01*
X12371D01*
Y4628D01*
Y4632D01*
Y4636D01*
Y4640D01*
Y4644D01*
Y4649D01*
Y4653D01*
Y4657D01*
Y4661D01*
Y4665D01*
X12376D01*
Y4670D01*
Y4674D01*
X12380D01*
Y4678D01*
X12384D01*
Y4682D01*
X12388D01*
Y4686D01*
X12397D01*
Y4691D01*
X12783D01*
Y4686D01*
D02*
G37*
G36*
X7379Y4724D02*
X7442D01*
Y4720D01*
X7480D01*
Y4716D01*
X7509D01*
Y4712D01*
X7535D01*
Y4707D01*
X7556D01*
Y4703D01*
X7577D01*
Y4699D01*
X7593D01*
Y4695D01*
X7610D01*
Y4691D01*
X7627D01*
Y4686D01*
X7644D01*
Y4682D01*
X7656D01*
Y4678D01*
X7669D01*
Y4674D01*
X7681D01*
Y4670D01*
X7694D01*
Y4665D01*
X7707D01*
Y4661D01*
X7719D01*
Y4657D01*
X7732D01*
Y4653D01*
X7740D01*
Y4649D01*
X7753D01*
Y4644D01*
X7761D01*
Y4640D01*
X7774D01*
Y4636D01*
X7782D01*
Y4632D01*
X7791D01*
Y4628D01*
X7799D01*
Y4623D01*
X7812D01*
Y4619D01*
X7820D01*
Y4615D01*
X7828D01*
Y4611D01*
X7837D01*
Y4607D01*
X7845D01*
Y4602D01*
X7854D01*
Y4598D01*
X7858D01*
Y4594D01*
X7866D01*
Y4590D01*
X7875D01*
Y4586D01*
X7883D01*
Y4581D01*
X7891D01*
Y4577D01*
X7896D01*
Y4573D01*
X7904D01*
Y4569D01*
X7912D01*
Y4565D01*
X7917D01*
Y4560D01*
X7925D01*
Y4556D01*
X7933D01*
Y4552D01*
X7938D01*
Y4548D01*
X7946D01*
Y4544D01*
X7950D01*
Y4539D01*
X7959D01*
Y4535D01*
X7963D01*
Y4531D01*
X7971D01*
Y4527D01*
X7975D01*
Y4523D01*
X7980D01*
Y4518D01*
X7988D01*
Y4514D01*
X7992D01*
Y4510D01*
X8001D01*
Y4506D01*
X8005D01*
Y4502D01*
X8009D01*
Y4497D01*
X8017D01*
Y4493D01*
X8022D01*
Y4489D01*
X8026D01*
Y4485D01*
X8030D01*
Y4481D01*
X8038D01*
Y4476D01*
X8043D01*
Y4472D01*
X8047D01*
Y4468D01*
X8051D01*
Y4464D01*
X8055D01*
Y4460D01*
X8064D01*
Y4455D01*
X8068D01*
Y4451D01*
X8072D01*
Y4447D01*
X8076D01*
Y4443D01*
X8080D01*
Y4439D01*
X8085D01*
Y4435D01*
X8089D01*
Y4430D01*
X8093D01*
Y4426D01*
X8101D01*
Y4422D01*
X8106D01*
Y4418D01*
X8110D01*
Y4414D01*
X8114D01*
Y4409D01*
X8118D01*
Y4405D01*
X8122D01*
Y4401D01*
X8127D01*
Y4397D01*
X8131D01*
Y4393D01*
X8135D01*
Y4388D01*
X8139D01*
Y4384D01*
X8143D01*
Y4380D01*
X8148D01*
Y4376D01*
X8152D01*
Y4372D01*
X8156D01*
Y4367D01*
X8160D01*
Y4363D01*
Y4359D01*
X8164D01*
Y4355D01*
X8169D01*
Y4351D01*
X8173D01*
Y4346D01*
X8177D01*
Y4342D01*
X8181D01*
Y4338D01*
X8185D01*
Y4334D01*
X8190D01*
Y4330D01*
X8194D01*
Y4325D01*
Y4321D01*
X8198D01*
Y4317D01*
X8202D01*
Y4313D01*
X8206D01*
Y4309D01*
X8211D01*
Y4304D01*
X8215D01*
Y4300D01*
Y4296D01*
X8219D01*
Y4292D01*
X8223D01*
Y4288D01*
X8227D01*
Y4283D01*
X8231D01*
Y4279D01*
Y4275D01*
X8236D01*
Y4271D01*
X8240D01*
Y4267D01*
X8244D01*
Y4262D01*
Y4258D01*
X8248D01*
Y4254D01*
X8252D01*
Y4250D01*
Y4246D01*
X8257D01*
Y4241D01*
X8261D01*
Y4237D01*
X8265D01*
Y4233D01*
Y4229D01*
X8269D01*
Y4225D01*
X8273D01*
Y4220D01*
Y4216D01*
X8278D01*
Y4212D01*
X8282D01*
Y4208D01*
Y4204D01*
X8286D01*
Y4199D01*
X8290D01*
Y4195D01*
Y4191D01*
X8294D01*
Y4187D01*
X8299D01*
Y4183D01*
Y4178D01*
X8303D01*
Y4174D01*
Y4170D01*
X8307D01*
Y4166D01*
X8311D01*
Y4162D01*
Y4157D01*
X8315D01*
Y4153D01*
Y4149D01*
X8320D01*
Y4145D01*
X8324D01*
Y4141D01*
Y4136D01*
X8328D01*
Y4132D01*
Y4128D01*
X8332D01*
Y4124D01*
Y4120D01*
X8336D01*
Y4115D01*
Y4111D01*
X8341D01*
Y4107D01*
Y4103D01*
X8345D01*
Y4099D01*
Y4094D01*
X8349D01*
Y4090D01*
X8353D01*
Y4086D01*
Y4082D01*
X8357D01*
Y4078D01*
Y4073D01*
Y4069D01*
X8362D01*
Y4065D01*
Y4061D01*
X8366D01*
Y4057D01*
Y4052D01*
X8370D01*
Y4048D01*
Y4044D01*
X8374D01*
Y4040D01*
Y4036D01*
X8378D01*
Y4031D01*
Y4027D01*
X8383D01*
Y4023D01*
Y4019D01*
Y4015D01*
X8387D01*
Y4010D01*
Y4006D01*
X8391D01*
Y4002D01*
Y3998D01*
Y3994D01*
X8395D01*
Y3989D01*
Y3985D01*
X8399D01*
Y3981D01*
Y3977D01*
Y3973D01*
X8404D01*
Y3968D01*
Y3964D01*
X8408D01*
Y3960D01*
Y3956D01*
Y3952D01*
X8412D01*
Y3947D01*
Y3943D01*
Y3939D01*
X8416D01*
Y3935D01*
Y3931D01*
Y3926D01*
X8420D01*
Y3922D01*
Y3918D01*
Y3914D01*
X8425D01*
Y3910D01*
Y3905D01*
Y3901D01*
X8429D01*
Y3897D01*
Y3893D01*
Y3889D01*
X8433D01*
Y3884D01*
Y3880D01*
Y3876D01*
Y3872D01*
X8437D01*
Y3868D01*
Y3864D01*
Y3859D01*
X8441D01*
Y3855D01*
Y3851D01*
Y3847D01*
Y3842D01*
X8446D01*
Y3838D01*
Y3834D01*
Y3830D01*
Y3826D01*
X8450D01*
Y3822D01*
Y3817D01*
Y3813D01*
Y3809D01*
X8454D01*
Y3805D01*
Y3801D01*
Y3796D01*
Y3792D01*
Y3788D01*
X8458D01*
Y3784D01*
Y3780D01*
Y3775D01*
Y3771D01*
Y3767D01*
X8462D01*
Y3763D01*
Y3759D01*
Y3754D01*
Y3750D01*
Y3746D01*
X8467D01*
Y3742D01*
Y3738D01*
Y3733D01*
Y3729D01*
Y3725D01*
Y3721D01*
X8471D01*
Y3717D01*
Y3712D01*
Y3708D01*
Y3704D01*
Y3700D01*
Y3696D01*
Y3691D01*
X8475D01*
Y3687D01*
Y3683D01*
Y3679D01*
Y3675D01*
Y3670D01*
Y3666D01*
Y3662D01*
Y3658D01*
Y3654D01*
X8479D01*
Y3649D01*
Y3645D01*
Y3641D01*
Y3637D01*
Y3633D01*
Y3628D01*
Y3624D01*
Y3620D01*
Y3616D01*
Y3612D01*
Y3607D01*
Y3603D01*
Y3599D01*
Y3595D01*
X8483D01*
Y3591D01*
Y3586D01*
Y3582D01*
Y3578D01*
Y3574D01*
Y3570D01*
Y3565D01*
Y3561D01*
Y3557D01*
Y3553D01*
Y3549D01*
Y3544D01*
Y3540D01*
Y3536D01*
Y3532D01*
Y3528D01*
Y3523D01*
Y3519D01*
Y3515D01*
Y3511D01*
Y3507D01*
Y3502D01*
Y3498D01*
Y3494D01*
Y3490D01*
Y3486D01*
Y3481D01*
Y3477D01*
Y3473D01*
Y3469D01*
X8479D01*
Y3465D01*
Y3460D01*
Y3456D01*
Y3452D01*
Y3448D01*
Y3444D01*
Y3439D01*
Y3435D01*
Y3431D01*
Y3427D01*
Y3423D01*
Y3418D01*
Y3414D01*
X8475D01*
Y3410D01*
Y3406D01*
Y3402D01*
Y3397D01*
Y3393D01*
Y3389D01*
Y3385D01*
Y3381D01*
Y3376D01*
X8471D01*
Y3372D01*
Y3368D01*
Y3364D01*
Y3360D01*
Y3355D01*
Y3351D01*
Y3347D01*
X8467D01*
Y3343D01*
Y3339D01*
Y3334D01*
Y3330D01*
Y3326D01*
Y3322D01*
Y3318D01*
X8462D01*
Y3313D01*
Y3309D01*
Y3305D01*
Y3301D01*
Y3297D01*
X8458D01*
Y3292D01*
Y3288D01*
Y3284D01*
Y3280D01*
Y3276D01*
X8454D01*
Y3271D01*
Y3267D01*
Y3263D01*
Y3259D01*
Y3255D01*
X8450D01*
Y3251D01*
Y3246D01*
Y3242D01*
Y3238D01*
X8446D01*
Y3234D01*
Y3230D01*
Y3225D01*
Y3221D01*
X8441D01*
Y3217D01*
Y3213D01*
Y3209D01*
Y3204D01*
X8437D01*
Y3200D01*
Y3196D01*
Y3192D01*
X8433D01*
Y3188D01*
Y3183D01*
Y3179D01*
Y3175D01*
X8429D01*
Y3171D01*
Y3167D01*
Y3162D01*
X8425D01*
Y3158D01*
Y3154D01*
Y3150D01*
X8420D01*
Y3146D01*
Y3141D01*
Y3137D01*
X8416D01*
Y3133D01*
Y3129D01*
Y3125D01*
X8412D01*
Y3120D01*
Y3116D01*
Y3112D01*
X8408D01*
Y3108D01*
Y3104D01*
Y3099D01*
X8404D01*
Y3095D01*
Y3091D01*
X8399D01*
Y3087D01*
Y3083D01*
Y3078D01*
X8395D01*
Y3074D01*
Y3070D01*
Y3066D01*
X8391D01*
Y3062D01*
Y3057D01*
X8387D01*
Y3053D01*
Y3049D01*
X8383D01*
Y3045D01*
Y3041D01*
Y3036D01*
X8378D01*
Y3032D01*
Y3028D01*
X8374D01*
Y3024D01*
Y3020D01*
X8370D01*
Y3015D01*
Y3011D01*
Y3007D01*
X8366D01*
Y3003D01*
Y2999D01*
X8362D01*
Y2994D01*
Y2990D01*
X8357D01*
Y2986D01*
Y2982D01*
X8353D01*
Y2978D01*
Y2973D01*
X8349D01*
Y2969D01*
Y2965D01*
X8345D01*
Y2961D01*
Y2957D01*
X8341D01*
Y2952D01*
Y2948D01*
X8336D01*
Y2944D01*
Y2940D01*
X8332D01*
Y2936D01*
X8328D01*
Y2931D01*
Y2927D01*
X8324D01*
Y2923D01*
Y2919D01*
X8320D01*
Y2915D01*
Y2910D01*
X8315D01*
Y2906D01*
X8311D01*
Y2902D01*
Y2898D01*
X8307D01*
Y2894D01*
Y2889D01*
X8303D01*
Y2885D01*
X8299D01*
Y2881D01*
Y2877D01*
X8294D01*
Y2873D01*
Y2868D01*
X8290D01*
Y2864D01*
X8286D01*
Y2860D01*
Y2856D01*
X8282D01*
Y2852D01*
X8278D01*
Y2847D01*
Y2843D01*
X8273D01*
Y2839D01*
X8269D01*
Y2835D01*
Y2831D01*
X8265D01*
Y2826D01*
X8261D01*
Y2822D01*
Y2818D01*
X8257D01*
Y2814D01*
X8252D01*
Y2810D01*
X8248D01*
Y2805D01*
Y2801D01*
X8244D01*
Y2797D01*
X8240D01*
Y2793D01*
Y2789D01*
X8236D01*
Y2784D01*
X8231D01*
Y2780D01*
X8227D01*
Y2776D01*
X8223D01*
Y2772D01*
Y2768D01*
X8219D01*
Y2763D01*
X8215D01*
Y2759D01*
X8211D01*
Y2755D01*
X8206D01*
Y2751D01*
Y2747D01*
X8202D01*
Y2742D01*
X8198D01*
Y2738D01*
X8194D01*
Y2734D01*
X8190D01*
Y2730D01*
X8185D01*
Y2726D01*
Y2721D01*
X8181D01*
Y2717D01*
X8177D01*
Y2713D01*
X8173D01*
Y2709D01*
X8169D01*
Y2705D01*
X8164D01*
Y2700D01*
X8160D01*
Y2696D01*
X8156D01*
Y2692D01*
X8152D01*
Y2688D01*
X8148D01*
Y2684D01*
X8143D01*
Y2679D01*
Y2675D01*
X8139D01*
Y2671D01*
X8135D01*
Y2667D01*
X8131D01*
Y2663D01*
X8127D01*
Y2659D01*
X8122D01*
Y2654D01*
X8118D01*
Y2650D01*
X8114D01*
Y2646D01*
X8106D01*
Y2642D01*
X8101D01*
Y2638D01*
X8097D01*
Y2633D01*
X8093D01*
Y2629D01*
X8089D01*
Y2625D01*
X8085D01*
Y2621D01*
X8080D01*
Y2617D01*
X8076D01*
Y2612D01*
X8072D01*
Y2608D01*
X8068D01*
Y2604D01*
X8059D01*
Y2600D01*
X8055D01*
Y2596D01*
X8051D01*
Y2591D01*
X8047D01*
Y2587D01*
X8043D01*
Y2583D01*
X8034D01*
Y2579D01*
X8030D01*
Y2575D01*
X8026D01*
Y2570D01*
X8022D01*
Y2566D01*
X8013D01*
Y2562D01*
X8009D01*
Y2558D01*
X8005D01*
Y2554D01*
X7996D01*
Y2549D01*
X7992D01*
Y2545D01*
X7988D01*
Y2541D01*
X7980D01*
Y2537D01*
X7975D01*
Y2533D01*
X7967D01*
Y2528D01*
X7963D01*
Y2524D01*
X7959D01*
Y2520D01*
X7950D01*
Y2516D01*
X7942D01*
Y2512D01*
X7938D01*
Y2507D01*
X7929D01*
Y2503D01*
X7925D01*
Y2499D01*
X7917D01*
Y2495D01*
X7912D01*
Y2491D01*
X7904D01*
Y2486D01*
X7896D01*
Y2482D01*
X7887D01*
Y2478D01*
X7883D01*
Y2474D01*
X7875D01*
Y2470D01*
X7866D01*
Y2465D01*
X7858D01*
Y2461D01*
X7849D01*
Y2457D01*
X7841D01*
Y2453D01*
X7837D01*
Y2449D01*
X7828D01*
Y2444D01*
X7816D01*
Y2440D01*
X7807D01*
Y2436D01*
X7799D01*
Y2432D01*
X7791D01*
Y2428D01*
X7782D01*
Y2423D01*
X7770D01*
Y2419D01*
X7761D01*
Y2415D01*
X7753D01*
Y2411D01*
X7740D01*
Y2407D01*
X7728D01*
Y2402D01*
X7719D01*
Y2398D01*
X7707D01*
Y2394D01*
X7694D01*
Y2390D01*
X7681D01*
Y2386D01*
X7669D01*
Y2381D01*
X7656D01*
Y2377D01*
X7639D01*
Y2373D01*
X7627D01*
Y2369D01*
X7610D01*
Y2365D01*
X7593D01*
Y2360D01*
X7572D01*
Y2356D01*
X7551D01*
Y2352D01*
X7530D01*
Y2348D01*
X7505D01*
Y2344D01*
X7476D01*
Y2339D01*
X7438D01*
Y2335D01*
X7358D01*
Y2331D01*
X7316D01*
Y2335D01*
X7236D01*
Y2339D01*
X7194D01*
Y2344D01*
X7165D01*
Y2348D01*
X7140D01*
Y2352D01*
X7115D01*
Y2356D01*
X7098D01*
Y2360D01*
X7077D01*
Y2365D01*
X7060D01*
Y2369D01*
X7043D01*
Y2373D01*
X7027D01*
Y2377D01*
X7014D01*
Y2381D01*
X7001D01*
Y2386D01*
X6989D01*
Y2390D01*
X6976D01*
Y2394D01*
X6964D01*
Y2398D01*
X6951D01*
Y2402D01*
X6938D01*
Y2407D01*
X6930D01*
Y2411D01*
X6917D01*
Y2415D01*
X6909D01*
Y2419D01*
X6896D01*
Y2423D01*
X6888D01*
Y2428D01*
X6880D01*
Y2432D01*
X6871D01*
Y2436D01*
X6859D01*
Y2440D01*
X6850D01*
Y2444D01*
X6842D01*
Y2449D01*
X6833D01*
Y2453D01*
X6825D01*
Y2457D01*
X6821D01*
Y2461D01*
X6812D01*
Y2465D01*
X6804D01*
Y2470D01*
X6796D01*
Y2474D01*
X6787D01*
Y2478D01*
X6783D01*
Y2482D01*
X6775D01*
Y2486D01*
X6766D01*
Y2491D01*
X6762D01*
Y2495D01*
X6754D01*
Y2499D01*
X6745D01*
Y2503D01*
X6741D01*
Y2507D01*
X6733D01*
Y2512D01*
X6728D01*
Y2516D01*
X6720D01*
Y2520D01*
X6716D01*
Y2524D01*
X6707D01*
Y2528D01*
X6703D01*
Y2533D01*
X6695D01*
Y2537D01*
X6691D01*
Y2541D01*
X6686D01*
Y2545D01*
X6678D01*
Y2549D01*
X6674D01*
Y2554D01*
X6670D01*
Y2558D01*
X6661D01*
Y2562D01*
X6657D01*
Y2566D01*
X6653D01*
Y2570D01*
X6644D01*
Y2575D01*
X6640D01*
Y2579D01*
X6636D01*
Y2583D01*
X6632D01*
Y2587D01*
X6628D01*
Y2591D01*
X6619D01*
Y2596D01*
X6615D01*
Y2600D01*
X6611D01*
Y2604D01*
X6607D01*
Y2608D01*
X6602D01*
Y2612D01*
X6598D01*
Y2617D01*
X6590D01*
Y2621D01*
X6586D01*
Y2625D01*
X6581D01*
Y2629D01*
X6577D01*
Y2633D01*
X6573D01*
Y2638D01*
X6569D01*
Y2642D01*
X6565D01*
Y2646D01*
X6560D01*
Y2650D01*
X6556D01*
Y2654D01*
X6552D01*
Y2659D01*
X6548D01*
Y2663D01*
X6544D01*
Y2667D01*
X6539D01*
Y2671D01*
X6535D01*
Y2675D01*
X6531D01*
Y2679D01*
X6527D01*
Y2684D01*
X6523D01*
Y2688D01*
X6518D01*
Y2692D01*
X6514D01*
Y2696D01*
X6510D01*
Y2700D01*
X6506D01*
Y2705D01*
X6502D01*
Y2709D01*
X6497D01*
Y2713D01*
X6493D01*
Y2717D01*
X6489D01*
Y2721D01*
X6485D01*
Y2726D01*
Y2730D01*
X6481D01*
Y2734D01*
X6476D01*
Y2738D01*
X6472D01*
Y2742D01*
X6468D01*
Y2747D01*
X6464D01*
Y2751D01*
X6460D01*
Y2755D01*
Y2759D01*
X6455D01*
Y2763D01*
X6451D01*
Y2768D01*
X6447D01*
Y2772D01*
X6443D01*
Y2776D01*
Y2780D01*
X6439D01*
Y2784D01*
X6435D01*
Y2789D01*
X6430D01*
Y2793D01*
X6426D01*
Y2797D01*
Y2801D01*
X6422D01*
Y2805D01*
X6418D01*
Y2810D01*
X6414D01*
Y2814D01*
Y2818D01*
X6409D01*
Y2822D01*
X6405D01*
Y2826D01*
Y2831D01*
X6401D01*
Y2835D01*
X6397D01*
Y2839D01*
Y2843D01*
X6393D01*
Y2847D01*
X6388D01*
Y2852D01*
Y2856D01*
X6384D01*
Y2860D01*
X6380D01*
Y2864D01*
Y2868D01*
X6376D01*
Y2873D01*
X6372D01*
Y2877D01*
Y2881D01*
X6367D01*
Y2885D01*
X6363D01*
Y2889D01*
Y2894D01*
X6359D01*
Y2898D01*
Y2902D01*
X6355D01*
Y2906D01*
X6351D01*
Y2910D01*
Y2915D01*
X6346D01*
Y2919D01*
Y2923D01*
X6342D01*
Y2927D01*
Y2931D01*
X6338D01*
Y2936D01*
Y2940D01*
X6334D01*
Y2944D01*
X6330D01*
Y2948D01*
Y2952D01*
X6325D01*
Y2957D01*
Y2961D01*
X6321D01*
Y2965D01*
Y2969D01*
X6317D01*
Y2973D01*
Y2978D01*
X6313D01*
Y2982D01*
Y2986D01*
X6309D01*
Y2990D01*
Y2994D01*
X6304D01*
Y2999D01*
Y3003D01*
X6300D01*
Y3007D01*
Y3011D01*
Y3015D01*
X6296D01*
Y3020D01*
Y3024D01*
X6292D01*
Y3028D01*
Y3032D01*
X6288D01*
Y3036D01*
Y3041D01*
X6283D01*
Y3045D01*
Y3049D01*
Y3053D01*
X6279D01*
Y3057D01*
Y3062D01*
X6275D01*
Y3066D01*
Y3070D01*
Y3074D01*
X6271D01*
Y3078D01*
Y3083D01*
X6267D01*
Y3087D01*
Y3091D01*
Y3095D01*
X6262D01*
Y3099D01*
Y3104D01*
Y3108D01*
Y3112D01*
X6258D01*
Y3116D01*
Y3120D01*
Y3125D01*
X6262D01*
Y3129D01*
Y3133D01*
Y3137D01*
Y3141D01*
X6267D01*
Y3146D01*
X6271D01*
Y3150D01*
X6275D01*
Y3154D01*
X6283D01*
Y3158D01*
X6292D01*
Y3162D01*
X6762D01*
Y3158D01*
X6775D01*
Y3154D01*
X6783D01*
Y3150D01*
X6787D01*
Y3146D01*
X6796D01*
Y3141D01*
X6800D01*
Y3137D01*
Y3133D01*
X6804D01*
Y3129D01*
X6808D01*
Y3125D01*
X6812D01*
Y3120D01*
Y3116D01*
X6817D01*
Y3112D01*
X6821D01*
Y3108D01*
X6825D01*
Y3104D01*
Y3099D01*
X6829D01*
Y3095D01*
X6833D01*
Y3091D01*
X6838D01*
Y3087D01*
X6842D01*
Y3083D01*
Y3078D01*
X6846D01*
Y3074D01*
X6850D01*
Y3070D01*
X6854D01*
Y3066D01*
X6859D01*
Y3062D01*
X6863D01*
Y3057D01*
X6867D01*
Y3053D01*
X6871D01*
Y3049D01*
X6875D01*
Y3045D01*
Y3041D01*
X6880D01*
Y3036D01*
X6884D01*
Y3032D01*
X6888D01*
Y3028D01*
X6892D01*
Y3024D01*
X6896D01*
Y3020D01*
X6901D01*
Y3015D01*
X6905D01*
Y3011D01*
X6909D01*
Y3007D01*
X6917D01*
Y3003D01*
X6922D01*
Y2999D01*
X6926D01*
Y2994D01*
X6930D01*
Y2990D01*
X6934D01*
Y2986D01*
X6938D01*
Y2982D01*
X6943D01*
Y2978D01*
X6951D01*
Y2973D01*
X6955D01*
Y2969D01*
X6959D01*
Y2965D01*
X6968D01*
Y2961D01*
X6972D01*
Y2957D01*
X6976D01*
Y2952D01*
X6985D01*
Y2948D01*
X6989D01*
Y2944D01*
X6997D01*
Y2940D01*
X7001D01*
Y2936D01*
X7010D01*
Y2931D01*
X7014D01*
Y2927D01*
X7022D01*
Y2923D01*
X7031D01*
Y2919D01*
X7035D01*
Y2915D01*
X7043D01*
Y2910D01*
X7052D01*
Y2906D01*
X7060D01*
Y2902D01*
X7068D01*
Y2898D01*
X7077D01*
Y2894D01*
X7085D01*
Y2889D01*
X7098D01*
Y2885D01*
X7106D01*
Y2881D01*
X7119D01*
Y2877D01*
X7127D01*
Y2873D01*
X7140D01*
Y2868D01*
X7157D01*
Y2864D01*
X7169D01*
Y2860D01*
X7186D01*
Y2856D01*
X7207D01*
Y2852D01*
X7232D01*
Y2847D01*
X7270D01*
Y2843D01*
X7375D01*
Y2847D01*
X7417D01*
Y2852D01*
X7442D01*
Y2856D01*
X7467D01*
Y2860D01*
X7484D01*
Y2864D01*
X7501D01*
Y2868D01*
X7518D01*
Y2873D01*
X7530D01*
Y2877D01*
X7543D01*
Y2881D01*
X7556D01*
Y2885D01*
X7564D01*
Y2889D01*
X7577D01*
Y2894D01*
X7585D01*
Y2898D01*
X7593D01*
Y2902D01*
X7606D01*
Y2906D01*
X7614D01*
Y2910D01*
X7623D01*
Y2915D01*
X7631D01*
Y2919D01*
X7635D01*
Y2923D01*
X7644D01*
Y2927D01*
X7652D01*
Y2931D01*
X7660D01*
Y2936D01*
X7665D01*
Y2940D01*
X7673D01*
Y2944D01*
X7681D01*
Y2948D01*
X7686D01*
Y2952D01*
X7694D01*
Y2957D01*
X7698D01*
Y2961D01*
X7707D01*
Y2965D01*
X7711D01*
Y2969D01*
X7715D01*
Y2973D01*
X7723D01*
Y2978D01*
X7728D01*
Y2982D01*
X7732D01*
Y2986D01*
X7736D01*
Y2990D01*
X7744D01*
Y2994D01*
X7749D01*
Y2999D01*
X7753D01*
Y3003D01*
X7757D01*
Y3007D01*
X7761D01*
Y3011D01*
X7765D01*
Y3015D01*
X7770D01*
Y3020D01*
X7774D01*
Y3024D01*
X7778D01*
Y3028D01*
X7786D01*
Y3032D01*
X7791D01*
Y3036D01*
X7795D01*
Y3041D01*
Y3045D01*
X7799D01*
Y3049D01*
X7803D01*
Y3053D01*
X7807D01*
Y3057D01*
X7812D01*
Y3062D01*
X7816D01*
Y3066D01*
X7820D01*
Y3070D01*
X7824D01*
Y3074D01*
X7828D01*
Y3078D01*
Y3083D01*
X7833D01*
Y3087D01*
X7837D01*
Y3091D01*
X7841D01*
Y3095D01*
X7845D01*
Y3099D01*
Y3104D01*
X7849D01*
Y3108D01*
X7854D01*
Y3112D01*
X7858D01*
Y3116D01*
Y3120D01*
X7862D01*
Y3125D01*
X7866D01*
Y3129D01*
Y3133D01*
X7870D01*
Y3137D01*
X7875D01*
Y3141D01*
Y3146D01*
X7879D01*
Y3150D01*
X7883D01*
Y3154D01*
Y3158D01*
X7887D01*
Y3162D01*
X7891D01*
Y3167D01*
Y3171D01*
X7896D01*
Y3175D01*
Y3179D01*
X7900D01*
Y3183D01*
Y3188D01*
X7904D01*
Y3192D01*
X7908D01*
Y3196D01*
Y3200D01*
X7912D01*
Y3204D01*
Y3209D01*
X7917D01*
Y3213D01*
Y3217D01*
X7921D01*
Y3221D01*
Y3225D01*
X7925D01*
Y3230D01*
Y3234D01*
Y3238D01*
X7929D01*
Y3242D01*
Y3246D01*
X7933D01*
Y3251D01*
Y3255D01*
X7938D01*
Y3259D01*
Y3263D01*
Y3267D01*
X7942D01*
Y3271D01*
Y3276D01*
X7946D01*
Y3280D01*
Y3284D01*
Y3288D01*
X7950D01*
Y3292D01*
Y3297D01*
Y3301D01*
X7954D01*
Y3305D01*
Y3309D01*
Y3313D01*
X7959D01*
Y3318D01*
Y3322D01*
Y3326D01*
X7963D01*
Y3330D01*
Y3334D01*
Y3339D01*
X7967D01*
Y3343D01*
Y3347D01*
Y3351D01*
Y3355D01*
X7971D01*
Y3360D01*
Y3364D01*
Y3368D01*
Y3372D01*
Y3376D01*
X7975D01*
Y3381D01*
Y3385D01*
Y3389D01*
Y3393D01*
X7980D01*
Y3397D01*
Y3402D01*
Y3406D01*
Y3410D01*
Y3414D01*
Y3418D01*
X7984D01*
Y3423D01*
Y3427D01*
Y3431D01*
Y3435D01*
Y3439D01*
Y3444D01*
Y3448D01*
Y3452D01*
X7988D01*
Y3456D01*
Y3460D01*
Y3465D01*
Y3469D01*
Y3473D01*
Y3477D01*
Y3481D01*
Y3486D01*
Y3490D01*
Y3494D01*
Y3498D01*
Y3502D01*
Y3507D01*
Y3511D01*
X7992D01*
Y3515D01*
Y3519D01*
Y3523D01*
Y3528D01*
Y3532D01*
Y3536D01*
Y3540D01*
Y3544D01*
Y3549D01*
Y3553D01*
X7988D01*
Y3557D01*
Y3561D01*
Y3565D01*
Y3570D01*
Y3574D01*
Y3578D01*
Y3582D01*
Y3586D01*
Y3591D01*
Y3595D01*
Y3599D01*
Y3603D01*
Y3607D01*
Y3612D01*
Y3616D01*
X7984D01*
Y3620D01*
Y3624D01*
Y3628D01*
Y3633D01*
Y3637D01*
Y3641D01*
Y3645D01*
X7980D01*
Y3649D01*
Y3654D01*
Y3658D01*
Y3662D01*
Y3666D01*
Y3670D01*
X7975D01*
Y3675D01*
Y3679D01*
Y3683D01*
Y3687D01*
Y3691D01*
X7971D01*
Y3696D01*
Y3700D01*
Y3704D01*
Y3708D01*
X7967D01*
Y3712D01*
Y3717D01*
Y3721D01*
Y3725D01*
X7963D01*
Y3729D01*
Y3733D01*
Y3738D01*
Y3742D01*
X7959D01*
Y3746D01*
Y3750D01*
Y3754D01*
X7954D01*
Y3759D01*
Y3763D01*
Y3767D01*
X7950D01*
Y3771D01*
Y3775D01*
Y3780D01*
X7946D01*
Y3784D01*
Y3788D01*
X7942D01*
Y3792D01*
Y3796D01*
Y3801D01*
X7938D01*
Y3805D01*
Y3809D01*
X7933D01*
Y3813D01*
Y3817D01*
X7929D01*
Y3822D01*
Y3826D01*
Y3830D01*
X7925D01*
Y3834D01*
Y3838D01*
X7921D01*
Y3842D01*
Y3847D01*
X7917D01*
Y3851D01*
Y3855D01*
X7912D01*
Y3859D01*
Y3864D01*
X7908D01*
Y3868D01*
Y3872D01*
X7904D01*
Y3876D01*
X7900D01*
Y3880D01*
Y3884D01*
X7896D01*
Y3889D01*
Y3893D01*
X7891D01*
Y3897D01*
X7887D01*
Y3901D01*
Y3905D01*
X7883D01*
Y3910D01*
Y3914D01*
X7879D01*
Y3918D01*
X7875D01*
Y3922D01*
Y3926D01*
X7870D01*
Y3931D01*
X7866D01*
Y3935D01*
Y3939D01*
X7862D01*
Y3943D01*
X7858D01*
Y3947D01*
X7854D01*
Y3952D01*
Y3956D01*
X7849D01*
Y3960D01*
X7845D01*
Y3964D01*
X7841D01*
Y3968D01*
Y3973D01*
X7837D01*
Y3977D01*
X7833D01*
Y3981D01*
X7828D01*
Y3985D01*
X7824D01*
Y3989D01*
X7820D01*
Y3994D01*
X7816D01*
Y3998D01*
Y4002D01*
X7812D01*
Y4006D01*
X7807D01*
Y4010D01*
X7803D01*
Y4015D01*
X7799D01*
Y4019D01*
X7795D01*
Y4023D01*
X7791D01*
Y4027D01*
X7786D01*
Y4031D01*
X7782D01*
Y4036D01*
X7778D01*
Y4040D01*
X7774D01*
Y4044D01*
X7770D01*
Y4048D01*
X7765D01*
Y4052D01*
X7761D01*
Y4057D01*
X7753D01*
Y4061D01*
X7749D01*
Y4065D01*
X7744D01*
Y4069D01*
X7740D01*
Y4073D01*
X7736D01*
Y4078D01*
X7728D01*
Y4082D01*
X7723D01*
Y4086D01*
X7719D01*
Y4090D01*
X7711D01*
Y4094D01*
X7707D01*
Y4099D01*
X7702D01*
Y4103D01*
X7694D01*
Y4107D01*
X7690D01*
Y4111D01*
X7681D01*
Y4115D01*
X7677D01*
Y4120D01*
X7669D01*
Y4124D01*
X7665D01*
Y4128D01*
X7656D01*
Y4132D01*
X7648D01*
Y4136D01*
X7639D01*
Y4141D01*
X7635D01*
Y4145D01*
X7627D01*
Y4149D01*
X7618D01*
Y4153D01*
X7610D01*
Y4157D01*
X7602D01*
Y4162D01*
X7589D01*
Y4166D01*
X7581D01*
Y4170D01*
X7572D01*
Y4174D01*
X7560D01*
Y4178D01*
X7551D01*
Y4183D01*
X7539D01*
Y4187D01*
X7526D01*
Y4191D01*
X7514D01*
Y4195D01*
X7497D01*
Y4199D01*
X7480D01*
Y4204D01*
X7463D01*
Y4208D01*
X7438D01*
Y4212D01*
X7409D01*
Y4216D01*
X7266D01*
Y4212D01*
X7236D01*
Y4208D01*
X7211D01*
Y4204D01*
X7194D01*
Y4199D01*
X7173D01*
Y4195D01*
X7161D01*
Y4191D01*
X7144D01*
Y4187D01*
X7131D01*
Y4183D01*
X7119D01*
Y4178D01*
X7110D01*
Y4174D01*
X7098D01*
Y4170D01*
X7085D01*
Y4166D01*
X7077D01*
Y4162D01*
X7068D01*
Y4157D01*
X7060D01*
Y4153D01*
X7052D01*
Y4149D01*
X7043D01*
Y4145D01*
X7035D01*
Y4141D01*
X7027D01*
Y4136D01*
X7018D01*
Y4132D01*
X7010D01*
Y4128D01*
X7006D01*
Y4124D01*
X6997D01*
Y4120D01*
X6993D01*
Y4115D01*
X6985D01*
Y4111D01*
X6980D01*
Y4107D01*
X6972D01*
Y4103D01*
X6968D01*
Y4099D01*
X6959D01*
Y4094D01*
X6955D01*
Y4090D01*
X6951D01*
Y4086D01*
X6943D01*
Y4082D01*
X6938D01*
Y4078D01*
X6934D01*
Y4073D01*
X6930D01*
Y4069D01*
X6922D01*
Y4065D01*
X6917D01*
Y4061D01*
X6913D01*
Y4057D01*
X6909D01*
Y4052D01*
X6905D01*
Y4048D01*
X6901D01*
Y4044D01*
X6896D01*
Y4040D01*
X6892D01*
Y4036D01*
X6888D01*
Y4031D01*
X6884D01*
Y4027D01*
X6880D01*
Y4023D01*
X6875D01*
Y4019D01*
X6871D01*
Y4015D01*
X6867D01*
Y4010D01*
X6863D01*
Y4006D01*
X6859D01*
Y4002D01*
X6854D01*
Y3998D01*
X6850D01*
Y3994D01*
X6846D01*
Y3989D01*
X6842D01*
Y3985D01*
Y3981D01*
X6838D01*
Y3977D01*
X6833D01*
Y3973D01*
X6829D01*
Y3968D01*
X6825D01*
Y3964D01*
Y3960D01*
X6821D01*
Y3956D01*
X6817D01*
Y3952D01*
X6812D01*
Y3947D01*
Y3943D01*
X6808D01*
Y3939D01*
X6804D01*
Y3935D01*
X6800D01*
Y3931D01*
Y3926D01*
X6796D01*
Y3922D01*
X6791D01*
Y3918D01*
X6787D01*
Y3914D01*
X6783D01*
Y3910D01*
X6775D01*
Y3905D01*
X6770D01*
Y3901D01*
X6766D01*
Y3897D01*
X6758D01*
Y3893D01*
X6749D01*
Y3889D01*
X6737D01*
Y3884D01*
X6720D01*
Y3880D01*
X6292D01*
Y3884D01*
X6279D01*
Y3889D01*
X6271D01*
Y3893D01*
X6267D01*
Y3897D01*
X6262D01*
Y3901D01*
Y3905D01*
X6258D01*
Y3910D01*
Y3914D01*
Y3918D01*
X6254D01*
Y3922D01*
Y3926D01*
Y3931D01*
Y3935D01*
X6258D01*
Y3939D01*
Y3943D01*
Y3947D01*
Y3952D01*
Y3956D01*
X6262D01*
Y3960D01*
Y3964D01*
Y3968D01*
Y3973D01*
X6267D01*
Y3977D01*
Y3981D01*
Y3985D01*
Y3989D01*
X6271D01*
Y3994D01*
Y3998D01*
Y4002D01*
Y4006D01*
X6275D01*
Y4010D01*
Y4015D01*
Y4019D01*
X6279D01*
Y4023D01*
Y4027D01*
Y4031D01*
X6283D01*
Y4036D01*
Y4040D01*
Y4044D01*
X6288D01*
Y4048D01*
Y4052D01*
Y4057D01*
X6292D01*
Y4061D01*
Y4065D01*
Y4069D01*
X6296D01*
Y4073D01*
Y4078D01*
X6300D01*
Y4082D01*
Y4086D01*
Y4090D01*
X6304D01*
Y4094D01*
Y4099D01*
X6309D01*
Y4103D01*
Y4107D01*
X6313D01*
Y4111D01*
Y4115D01*
Y4120D01*
X6317D01*
Y4124D01*
Y4128D01*
X6321D01*
Y4132D01*
Y4136D01*
X6325D01*
Y4141D01*
Y4145D01*
X6330D01*
Y4149D01*
Y4153D01*
X6334D01*
Y4157D01*
Y4162D01*
X6338D01*
Y4166D01*
X6342D01*
Y4170D01*
Y4174D01*
X6346D01*
Y4178D01*
Y4183D01*
X6351D01*
Y4187D01*
Y4191D01*
X6355D01*
Y4195D01*
X6359D01*
Y4199D01*
Y4204D01*
X6363D01*
Y4208D01*
Y4212D01*
X6367D01*
Y4216D01*
X6372D01*
Y4220D01*
Y4225D01*
X6376D01*
Y4229D01*
X6380D01*
Y4233D01*
Y4237D01*
X6384D01*
Y4241D01*
X6388D01*
Y4246D01*
Y4250D01*
X6393D01*
Y4254D01*
X6397D01*
Y4258D01*
Y4262D01*
X6401D01*
Y4267D01*
X6405D01*
Y4271D01*
X6409D01*
Y4275D01*
Y4279D01*
X6414D01*
Y4283D01*
X6418D01*
Y4288D01*
X6422D01*
Y4292D01*
Y4296D01*
X6426D01*
Y4300D01*
X6430D01*
Y4304D01*
X6435D01*
Y4309D01*
X6439D01*
Y4313D01*
Y4317D01*
X6443D01*
Y4321D01*
X6447D01*
Y4325D01*
X6451D01*
Y4330D01*
X6455D01*
Y4334D01*
X6460D01*
Y4338D01*
X6464D01*
Y4342D01*
Y4346D01*
X6468D01*
Y4351D01*
X6472D01*
Y4355D01*
X6476D01*
Y4359D01*
X6481D01*
Y4363D01*
X6485D01*
Y4367D01*
X6489D01*
Y4372D01*
X6493D01*
Y4376D01*
X6497D01*
Y4380D01*
X6502D01*
Y4384D01*
X6506D01*
Y4388D01*
X6510D01*
Y4393D01*
X6514D01*
Y4397D01*
X6518D01*
Y4401D01*
X6523D01*
Y4405D01*
X6527D01*
Y4409D01*
X6531D01*
Y4414D01*
X6535D01*
Y4418D01*
X6539D01*
Y4422D01*
X6544D01*
Y4426D01*
X6548D01*
Y4430D01*
X6556D01*
Y4435D01*
X6560D01*
Y4439D01*
X6565D01*
Y4443D01*
X6569D01*
Y4447D01*
X6573D01*
Y4451D01*
X6577D01*
Y4455D01*
X6586D01*
Y4460D01*
X6590D01*
Y4464D01*
X6594D01*
Y4468D01*
X6598D01*
Y4472D01*
X6602D01*
Y4476D01*
X6611D01*
Y4481D01*
X6615D01*
Y4485D01*
X6619D01*
Y4489D01*
X6628D01*
Y4493D01*
X6632D01*
Y4497D01*
X6636D01*
Y4502D01*
X6644D01*
Y4506D01*
X6649D01*
Y4510D01*
X6657D01*
Y4514D01*
X6661D01*
Y4518D01*
X6665D01*
Y4523D01*
X6674D01*
Y4527D01*
X6678D01*
Y4531D01*
X6686D01*
Y4535D01*
X6691D01*
Y4539D01*
X6699D01*
Y4544D01*
X6707D01*
Y4548D01*
X6712D01*
Y4552D01*
X6720D01*
Y4556D01*
X6724D01*
Y4560D01*
X6733D01*
Y4565D01*
X6741D01*
Y4569D01*
X6749D01*
Y4573D01*
X6754D01*
Y4577D01*
X6762D01*
Y4581D01*
X6770D01*
Y4586D01*
X6779D01*
Y4590D01*
X6787D01*
Y4594D01*
X6796D01*
Y4598D01*
X6800D01*
Y4602D01*
X6808D01*
Y4607D01*
X6821D01*
Y4611D01*
X6829D01*
Y4615D01*
X6838D01*
Y4619D01*
X6846D01*
Y4623D01*
X6854D01*
Y4628D01*
X6863D01*
Y4632D01*
X6875D01*
Y4636D01*
X6884D01*
Y4640D01*
X6896D01*
Y4644D01*
X6905D01*
Y4649D01*
X6917D01*
Y4653D01*
X6926D01*
Y4657D01*
X6938D01*
Y4661D01*
X6951D01*
Y4665D01*
X6964D01*
Y4670D01*
X6976D01*
Y4674D01*
X6989D01*
Y4678D01*
X7006D01*
Y4682D01*
X7018D01*
Y4686D01*
X7035D01*
Y4691D01*
X7052D01*
Y4695D01*
X7068D01*
Y4699D01*
X7085D01*
Y4703D01*
X7106D01*
Y4707D01*
X7131D01*
Y4712D01*
X7157D01*
Y4716D01*
X7186D01*
Y4720D01*
X7224D01*
Y4724D01*
X7283D01*
Y4728D01*
X7379D01*
Y4724D01*
D02*
G37*
G36*
X13555Y4686D02*
X13572D01*
Y4682D01*
X13576D01*
Y4678D01*
X13581D01*
Y4674D01*
X13585D01*
Y4670D01*
X13589D01*
Y4665D01*
Y4661D01*
X13593D01*
Y4657D01*
X13597D01*
Y4653D01*
X13601D01*
Y4649D01*
Y4644D01*
X13606D01*
Y4640D01*
X13610D01*
Y4636D01*
Y4632D01*
X13614D01*
Y4628D01*
X13618D01*
Y4623D01*
X13622D01*
Y4619D01*
Y4615D01*
X13627D01*
Y4611D01*
X13631D01*
Y4607D01*
Y4602D01*
X13635D01*
Y4598D01*
X13639D01*
Y4594D01*
X13643D01*
Y4590D01*
Y4586D01*
X13648D01*
Y4581D01*
X13652D01*
Y4577D01*
Y4573D01*
X13656D01*
Y4569D01*
X13660D01*
Y4565D01*
X13664D01*
Y4560D01*
Y4556D01*
X13669D01*
Y4552D01*
X13673D01*
Y4548D01*
Y4544D01*
X13677D01*
Y4539D01*
X13681D01*
Y4535D01*
X13685D01*
Y4531D01*
Y4527D01*
X13690D01*
Y4523D01*
X13694D01*
Y4518D01*
Y4514D01*
X13698D01*
Y4510D01*
X13702D01*
Y4506D01*
X13706D01*
Y4502D01*
Y4497D01*
X13711D01*
Y4493D01*
X13715D01*
Y4489D01*
Y4485D01*
X13719D01*
Y4481D01*
X13723D01*
Y4476D01*
X13727D01*
Y4472D01*
Y4468D01*
X13732D01*
Y4464D01*
X13736D01*
Y4460D01*
Y4455D01*
X13740D01*
Y4451D01*
X13744D01*
Y4447D01*
X13748D01*
Y4443D01*
Y4439D01*
X13753D01*
Y4435D01*
X13757D01*
Y4430D01*
Y4426D01*
X13761D01*
Y4422D01*
X13765D01*
Y4418D01*
X13769D01*
Y4414D01*
Y4409D01*
X13774D01*
Y4405D01*
X13778D01*
Y4401D01*
Y4397D01*
X13782D01*
Y4393D01*
X13786D01*
Y4388D01*
X13790D01*
Y4384D01*
Y4380D01*
X13795D01*
Y4376D01*
X13799D01*
Y4372D01*
Y4367D01*
X13803D01*
Y4363D01*
X13807D01*
Y4359D01*
X13811D01*
Y4355D01*
Y4351D01*
X13816D01*
Y4346D01*
X13820D01*
Y4342D01*
Y4338D01*
X13824D01*
Y4334D01*
X13828D01*
Y4330D01*
X13832D01*
Y4325D01*
Y4321D01*
X13837D01*
Y4317D01*
X13841D01*
Y4313D01*
Y4309D01*
X13845D01*
Y4304D01*
X13849D01*
Y4300D01*
Y4296D01*
X13853D01*
Y4292D01*
X13858D01*
Y4288D01*
X13862D01*
Y4283D01*
Y4279D01*
X13866D01*
Y4275D01*
X13870D01*
Y4271D01*
Y4267D01*
X13874D01*
Y4262D01*
X13879D01*
Y4258D01*
X13883D01*
Y4254D01*
Y4250D01*
X13887D01*
Y4246D01*
X13891D01*
Y4241D01*
Y4237D01*
X13895D01*
Y4233D01*
X13900D01*
Y4229D01*
X13904D01*
Y4225D01*
Y4220D01*
X13908D01*
Y4216D01*
X13912D01*
Y4212D01*
Y4208D01*
X13916D01*
Y4204D01*
X13921D01*
Y4199D01*
X13925D01*
Y4195D01*
Y4191D01*
X13929D01*
Y4187D01*
X13933D01*
Y4183D01*
Y4178D01*
X13937D01*
Y4174D01*
X13942D01*
Y4170D01*
X13946D01*
Y4166D01*
Y4162D01*
X13950D01*
Y4157D01*
X13954D01*
Y4153D01*
Y4149D01*
X13958D01*
Y4145D01*
X13963D01*
Y4141D01*
X13967D01*
Y4136D01*
Y4132D01*
X13971D01*
Y4128D01*
X13975D01*
Y4124D01*
Y4120D01*
X13979D01*
Y4115D01*
X13984D01*
Y4111D01*
X13988D01*
Y4107D01*
Y4103D01*
X13992D01*
Y4099D01*
X13996D01*
Y4094D01*
Y4090D01*
X14000D01*
Y4086D01*
X14005D01*
Y4082D01*
X14009D01*
Y4078D01*
Y4073D01*
X14013D01*
Y4069D01*
X14017D01*
Y4065D01*
Y4061D01*
X14021D01*
Y4057D01*
X14026D01*
Y4052D01*
X14030D01*
Y4048D01*
Y4044D01*
X14034D01*
Y4040D01*
X14038D01*
Y4036D01*
Y4031D01*
X14042D01*
Y4027D01*
X14047D01*
Y4023D01*
X14051D01*
Y4019D01*
Y4015D01*
X14055D01*
Y4010D01*
X14059D01*
Y4006D01*
Y4002D01*
X14063D01*
Y3998D01*
X14068D01*
Y3994D01*
X14072D01*
Y3989D01*
Y3985D01*
X14076D01*
Y3981D01*
X14080D01*
Y3977D01*
Y3973D01*
X14084D01*
Y3968D01*
X14093D01*
Y3964D01*
X14097D01*
Y3960D01*
X14131D01*
Y3964D01*
X14135D01*
Y3968D01*
X14143D01*
Y3973D01*
X14147D01*
Y3977D01*
Y3981D01*
X14152D01*
Y3985D01*
X14156D01*
Y3989D01*
Y3994D01*
X14160D01*
Y3998D01*
X14164D01*
Y4002D01*
X14168D01*
Y4006D01*
Y4010D01*
X14173D01*
Y4015D01*
X14177D01*
Y4019D01*
Y4023D01*
X14181D01*
Y4027D01*
X14185D01*
Y4031D01*
X14189D01*
Y4036D01*
Y4040D01*
X14194D01*
Y4044D01*
X14198D01*
Y4048D01*
Y4052D01*
X14202D01*
Y4057D01*
X14206D01*
Y4061D01*
Y4065D01*
X14210D01*
Y4069D01*
X14214D01*
Y4073D01*
X14219D01*
Y4078D01*
Y4082D01*
X14223D01*
Y4086D01*
X14227D01*
Y4090D01*
Y4094D01*
X14231D01*
Y4099D01*
X14235D01*
Y4103D01*
X14240D01*
Y4107D01*
Y4111D01*
X14244D01*
Y4115D01*
X14248D01*
Y4120D01*
Y4124D01*
X14252D01*
Y4128D01*
X14256D01*
Y4132D01*
X14261D01*
Y4136D01*
Y4141D01*
X14265D01*
Y4145D01*
X14269D01*
Y4149D01*
Y4153D01*
X14273D01*
Y4157D01*
X14277D01*
Y4162D01*
Y4166D01*
X14282D01*
Y4170D01*
X14286D01*
Y4174D01*
X14290D01*
Y4178D01*
Y4183D01*
X14294D01*
Y4187D01*
X14298D01*
Y4191D01*
Y4195D01*
X14303D01*
Y4199D01*
X14307D01*
Y4204D01*
X14311D01*
Y4208D01*
Y4212D01*
X14315D01*
Y4216D01*
X14319D01*
Y4220D01*
Y4225D01*
X14324D01*
Y4229D01*
X14328D01*
Y4233D01*
X14332D01*
Y4237D01*
Y4241D01*
X14336D01*
Y4246D01*
X14340D01*
Y4250D01*
Y4254D01*
X14345D01*
Y4258D01*
X14349D01*
Y4262D01*
Y4267D01*
X14353D01*
Y4271D01*
X14357D01*
Y4275D01*
X14361D01*
Y4279D01*
Y4283D01*
X14366D01*
Y4288D01*
X14370D01*
Y4292D01*
Y4296D01*
X14374D01*
Y4300D01*
X14378D01*
Y4304D01*
X14382D01*
Y4309D01*
Y4313D01*
X14387D01*
Y4317D01*
X14391D01*
Y4321D01*
Y4325D01*
X14395D01*
Y4330D01*
X14399D01*
Y4334D01*
X14403D01*
Y4338D01*
Y4342D01*
X14408D01*
Y4346D01*
X14412D01*
Y4351D01*
Y4355D01*
X14416D01*
Y4359D01*
X14420D01*
Y4363D01*
Y4367D01*
X14424D01*
Y4372D01*
X14429D01*
Y4376D01*
X14433D01*
Y4380D01*
Y4384D01*
X14437D01*
Y4388D01*
X14441D01*
Y4393D01*
Y4397D01*
X14445D01*
Y4401D01*
X14450D01*
Y4405D01*
X14454D01*
Y4409D01*
Y4414D01*
X14458D01*
Y4418D01*
X14462D01*
Y4422D01*
Y4426D01*
X14466D01*
Y4430D01*
X14471D01*
Y4435D01*
X14475D01*
Y4439D01*
Y4443D01*
X14479D01*
Y4447D01*
X14483D01*
Y4451D01*
Y4455D01*
X14487D01*
Y4460D01*
X14492D01*
Y4464D01*
Y4468D01*
X14496D01*
Y4472D01*
X14500D01*
Y4476D01*
X14504D01*
Y4481D01*
Y4485D01*
X14508D01*
Y4489D01*
X14513D01*
Y4493D01*
Y4497D01*
X14517D01*
Y4502D01*
X14521D01*
Y4506D01*
X14525D01*
Y4510D01*
Y4514D01*
X14529D01*
Y4518D01*
X14534D01*
Y4523D01*
Y4527D01*
X14538D01*
Y4531D01*
X14542D01*
Y4535D01*
X14546D01*
Y4539D01*
Y4544D01*
X14550D01*
Y4548D01*
X14555D01*
Y4552D01*
Y4556D01*
X14559D01*
Y4560D01*
X14563D01*
Y4565D01*
X14567D01*
Y4569D01*
Y4573D01*
X14571D01*
Y4577D01*
X14576D01*
Y4581D01*
Y4586D01*
X14580D01*
Y4590D01*
X14584D01*
Y4594D01*
Y4598D01*
X14588D01*
Y4602D01*
X14592D01*
Y4607D01*
X14597D01*
Y4611D01*
Y4615D01*
X14601D01*
Y4619D01*
X14605D01*
Y4623D01*
Y4628D01*
X14609D01*
Y4632D01*
X14613D01*
Y4636D01*
X14618D01*
Y4640D01*
Y4644D01*
X14622D01*
Y4649D01*
X14626D01*
Y4653D01*
Y4657D01*
X14630D01*
Y4661D01*
X14634D01*
Y4665D01*
X14639D01*
Y4670D01*
Y4674D01*
X14643D01*
Y4678D01*
X14647D01*
Y4682D01*
X14655D01*
Y4686D01*
X15155D01*
Y4682D01*
X15163D01*
Y4678D01*
X15172D01*
Y4674D01*
X15176D01*
Y4670D01*
Y4665D01*
X15180D01*
Y4661D01*
Y4657D01*
Y4653D01*
Y4649D01*
Y4644D01*
Y4640D01*
Y4636D01*
Y4632D01*
X15176D01*
Y4628D01*
Y4623D01*
X15172D01*
Y4619D01*
X15168D01*
Y4615D01*
X15163D01*
Y4611D01*
Y4607D01*
X15159D01*
Y4602D01*
X15155D01*
Y4598D01*
X15151D01*
Y4594D01*
Y4590D01*
X15147D01*
Y4586D01*
X15142D01*
Y4581D01*
Y4577D01*
X15138D01*
Y4573D01*
X15134D01*
Y4569D01*
X15130D01*
Y4565D01*
Y4560D01*
X15126D01*
Y4556D01*
X15121D01*
Y4552D01*
X15117D01*
Y4548D01*
Y4544D01*
X15113D01*
Y4539D01*
X15109D01*
Y4535D01*
Y4531D01*
X15105D01*
Y4527D01*
X15100D01*
Y4523D01*
X15096D01*
Y4518D01*
Y4514D01*
X15092D01*
Y4510D01*
X15088D01*
Y4506D01*
X15084D01*
Y4502D01*
Y4497D01*
X15079D01*
Y4493D01*
X15075D01*
Y4489D01*
Y4485D01*
X15071D01*
Y4481D01*
X15067D01*
Y4476D01*
X15063D01*
Y4472D01*
Y4468D01*
X15058D01*
Y4464D01*
X15054D01*
Y4460D01*
X15050D01*
Y4455D01*
Y4451D01*
X15046D01*
Y4447D01*
X15042D01*
Y4443D01*
Y4439D01*
X15037D01*
Y4435D01*
X15033D01*
Y4430D01*
X15029D01*
Y4426D01*
Y4422D01*
X15025D01*
Y4418D01*
X15021D01*
Y4414D01*
X15016D01*
Y4409D01*
Y4405D01*
X15012D01*
Y4401D01*
X15008D01*
Y4397D01*
Y4393D01*
X15004D01*
Y4388D01*
X15000D01*
Y4384D01*
X14995D01*
Y4380D01*
Y4376D01*
X14991D01*
Y4372D01*
X14987D01*
Y4367D01*
X14983D01*
Y4363D01*
Y4359D01*
X14979D01*
Y4355D01*
X14974D01*
Y4351D01*
Y4346D01*
X14970D01*
Y4342D01*
X14966D01*
Y4338D01*
X14962D01*
Y4334D01*
Y4330D01*
X14958D01*
Y4325D01*
X14953D01*
Y4321D01*
X14949D01*
Y4317D01*
Y4313D01*
X14945D01*
Y4309D01*
X14941D01*
Y4304D01*
X14937D01*
Y4300D01*
Y4296D01*
X14932D01*
Y4292D01*
X14928D01*
Y4288D01*
Y4283D01*
X14924D01*
Y4279D01*
X14920D01*
Y4275D01*
X14916D01*
Y4271D01*
Y4267D01*
X14911D01*
Y4262D01*
X14907D01*
Y4258D01*
X14903D01*
Y4254D01*
Y4250D01*
X14899D01*
Y4246D01*
X14895D01*
Y4241D01*
Y4237D01*
X14890D01*
Y4233D01*
X14886D01*
Y4229D01*
X14882D01*
Y4225D01*
Y4220D01*
X14878D01*
Y4216D01*
X14874D01*
Y4212D01*
X14869D01*
Y4208D01*
Y4204D01*
X14865D01*
Y4199D01*
X14861D01*
Y4195D01*
Y4191D01*
X14857D01*
Y4187D01*
X14853D01*
Y4183D01*
X14848D01*
Y4178D01*
Y4174D01*
X14844D01*
Y4170D01*
X14840D01*
Y4166D01*
X14836D01*
Y4162D01*
Y4157D01*
X14832D01*
Y4153D01*
X14827D01*
Y4149D01*
Y4145D01*
X14823D01*
Y4141D01*
X14819D01*
Y4136D01*
X14815D01*
Y4132D01*
Y4128D01*
X14811D01*
Y4124D01*
X14806D01*
Y4120D01*
X14802D01*
Y4115D01*
Y4111D01*
X14798D01*
Y4107D01*
X14794D01*
Y4103D01*
Y4099D01*
X14790D01*
Y4094D01*
X14785D01*
Y4090D01*
X14781D01*
Y4086D01*
Y4082D01*
X14777D01*
Y4078D01*
X14773D01*
Y4073D01*
X14769D01*
Y4069D01*
Y4065D01*
X14765D01*
Y4061D01*
X14760D01*
Y4057D01*
Y4052D01*
X14756D01*
Y4048D01*
X14752D01*
Y4044D01*
X14748D01*
Y4040D01*
Y4036D01*
X14744D01*
Y4031D01*
X14739D01*
Y4027D01*
X14735D01*
Y4023D01*
Y4019D01*
X14731D01*
Y4015D01*
X14727D01*
Y4010D01*
Y4006D01*
X14723D01*
Y4002D01*
X14718D01*
Y3998D01*
X14714D01*
Y3994D01*
Y3989D01*
X14710D01*
Y3985D01*
X14706D01*
Y3981D01*
X14702D01*
Y3977D01*
Y3973D01*
X14697D01*
Y3968D01*
X14693D01*
Y3964D01*
Y3960D01*
X14689D01*
Y3956D01*
X14685D01*
Y3952D01*
X14681D01*
Y3947D01*
Y3943D01*
X14676D01*
Y3939D01*
X14672D01*
Y3935D01*
X14668D01*
Y3931D01*
Y3926D01*
X14664D01*
Y3922D01*
X14660D01*
Y3918D01*
Y3914D01*
X14655D01*
Y3910D01*
X14651D01*
Y3905D01*
X14647D01*
Y3901D01*
Y3897D01*
X14643D01*
Y3893D01*
X14639D01*
Y3889D01*
X14634D01*
Y3884D01*
Y3880D01*
X14630D01*
Y3876D01*
X14626D01*
Y3872D01*
Y3868D01*
X14622D01*
Y3864D01*
X14618D01*
Y3859D01*
X14613D01*
Y3855D01*
Y3851D01*
X14609D01*
Y3847D01*
X14605D01*
Y3842D01*
X14601D01*
Y3838D01*
Y3834D01*
X14597D01*
Y3830D01*
X14592D01*
Y3826D01*
Y3822D01*
X14588D01*
Y3817D01*
X14584D01*
Y3813D01*
X14580D01*
Y3809D01*
Y3805D01*
X14576D01*
Y3801D01*
X14571D01*
Y3796D01*
X14567D01*
Y3792D01*
Y3788D01*
X14563D01*
Y3784D01*
X14559D01*
Y3780D01*
Y3775D01*
X14555D01*
Y3771D01*
X14550D01*
Y3767D01*
X14546D01*
Y3763D01*
Y3759D01*
X14542D01*
Y3754D01*
X14538D01*
Y3750D01*
X14534D01*
Y3746D01*
Y3742D01*
X14529D01*
Y3738D01*
X14525D01*
Y3733D01*
Y3729D01*
X14521D01*
Y3725D01*
X14517D01*
Y3721D01*
X14513D01*
Y3717D01*
Y3712D01*
X14508D01*
Y3708D01*
X14504D01*
Y3704D01*
X14500D01*
Y3700D01*
Y3696D01*
X14496D01*
Y3691D01*
X14492D01*
Y3687D01*
Y3683D01*
X14487D01*
Y3679D01*
X14483D01*
Y3675D01*
X14479D01*
Y3670D01*
Y3666D01*
X14475D01*
Y3662D01*
X14471D01*
Y3658D01*
X14466D01*
Y3654D01*
Y3649D01*
X14462D01*
Y3645D01*
X14458D01*
Y3641D01*
Y3637D01*
X14454D01*
Y3633D01*
X14450D01*
Y3628D01*
X14445D01*
Y3624D01*
Y3620D01*
X14441D01*
Y3616D01*
X14437D01*
Y3612D01*
X14433D01*
Y3607D01*
Y3603D01*
X14429D01*
Y3599D01*
X14424D01*
Y3595D01*
Y3591D01*
X14420D01*
Y3586D01*
X14416D01*
Y3582D01*
X14412D01*
Y3578D01*
Y3574D01*
X14408D01*
Y3570D01*
X14403D01*
Y3565D01*
Y3561D01*
X14399D01*
Y3557D01*
Y3553D01*
X14395D01*
Y3549D01*
Y3544D01*
Y3540D01*
X14399D01*
Y3536D01*
Y3532D01*
Y3528D01*
X14403D01*
Y3523D01*
Y3519D01*
X14408D01*
Y3515D01*
X14412D01*
Y3511D01*
X14416D01*
Y3507D01*
Y3502D01*
X14420D01*
Y3498D01*
X14424D01*
Y3494D01*
Y3490D01*
X14429D01*
Y3486D01*
X14433D01*
Y3481D01*
X14437D01*
Y3477D01*
Y3473D01*
X14441D01*
Y3469D01*
X14445D01*
Y3465D01*
Y3460D01*
X14450D01*
Y3456D01*
X14454D01*
Y3452D01*
X14458D01*
Y3448D01*
Y3444D01*
X14462D01*
Y3439D01*
X14466D01*
Y3435D01*
Y3431D01*
X14471D01*
Y3427D01*
X14475D01*
Y3423D01*
X14479D01*
Y3418D01*
Y3414D01*
X14483D01*
Y3410D01*
X14487D01*
Y3406D01*
Y3402D01*
X14492D01*
Y3397D01*
X14496D01*
Y3393D01*
X14500D01*
Y3389D01*
Y3385D01*
X14504D01*
Y3381D01*
X14508D01*
Y3376D01*
Y3372D01*
X14513D01*
Y3368D01*
X14517D01*
Y3364D01*
Y3360D01*
X14521D01*
Y3355D01*
X14525D01*
Y3351D01*
X14529D01*
Y3347D01*
Y3343D01*
X14534D01*
Y3339D01*
X14538D01*
Y3334D01*
Y3330D01*
X14542D01*
Y3326D01*
X14546D01*
Y3322D01*
X14550D01*
Y3318D01*
Y3313D01*
X14555D01*
Y3309D01*
X14559D01*
Y3305D01*
Y3301D01*
X14563D01*
Y3297D01*
X14567D01*
Y3292D01*
X14571D01*
Y3288D01*
Y3284D01*
X14576D01*
Y3280D01*
X14580D01*
Y3276D01*
Y3271D01*
X14584D01*
Y3267D01*
X14588D01*
Y3263D01*
X14592D01*
Y3259D01*
Y3255D01*
X14597D01*
Y3251D01*
X14601D01*
Y3246D01*
Y3242D01*
X14605D01*
Y3238D01*
X14609D01*
Y3234D01*
X14613D01*
Y3230D01*
Y3225D01*
X14618D01*
Y3221D01*
X14622D01*
Y3217D01*
Y3213D01*
X14626D01*
Y3209D01*
X14630D01*
Y3204D01*
X14634D01*
Y3200D01*
Y3196D01*
X14639D01*
Y3192D01*
X14643D01*
Y3188D01*
Y3183D01*
X14647D01*
Y3179D01*
X14651D01*
Y3175D01*
X14655D01*
Y3171D01*
Y3167D01*
X14660D01*
Y3162D01*
X14664D01*
Y3158D01*
Y3154D01*
X14668D01*
Y3150D01*
X14672D01*
Y3146D01*
X14676D01*
Y3141D01*
Y3137D01*
X14681D01*
Y3133D01*
X14685D01*
Y3129D01*
Y3125D01*
X14689D01*
Y3120D01*
X14693D01*
Y3116D01*
X14697D01*
Y3112D01*
Y3108D01*
X14702D01*
Y3104D01*
X14706D01*
Y3099D01*
Y3095D01*
X14710D01*
Y3091D01*
X14714D01*
Y3087D01*
X14718D01*
Y3083D01*
Y3078D01*
X14723D01*
Y3074D01*
X14727D01*
Y3070D01*
Y3066D01*
X14731D01*
Y3062D01*
X14735D01*
Y3057D01*
X14739D01*
Y3053D01*
Y3049D01*
X14744D01*
Y3045D01*
X14748D01*
Y3041D01*
Y3036D01*
X14752D01*
Y3032D01*
X14756D01*
Y3028D01*
X14760D01*
Y3024D01*
Y3020D01*
X14765D01*
Y3015D01*
X14769D01*
Y3011D01*
Y3007D01*
X14773D01*
Y3003D01*
X14777D01*
Y2999D01*
X14781D01*
Y2994D01*
Y2990D01*
X14785D01*
Y2986D01*
X14790D01*
Y2982D01*
Y2978D01*
X14794D01*
Y2973D01*
X14798D01*
Y2969D01*
X14802D01*
Y2965D01*
Y2961D01*
X14806D01*
Y2957D01*
X14811D01*
Y2952D01*
Y2948D01*
X14815D01*
Y2944D01*
X14819D01*
Y2940D01*
X14823D01*
Y2936D01*
Y2931D01*
X14827D01*
Y2927D01*
X14832D01*
Y2923D01*
Y2919D01*
X14836D01*
Y2915D01*
X14840D01*
Y2910D01*
X14844D01*
Y2906D01*
Y2902D01*
X14848D01*
Y2898D01*
X14853D01*
Y2894D01*
Y2889D01*
X14857D01*
Y2885D01*
X14861D01*
Y2881D01*
Y2877D01*
X14865D01*
Y2873D01*
X14869D01*
Y2868D01*
X14874D01*
Y2864D01*
Y2860D01*
X14878D01*
Y2856D01*
X14882D01*
Y2852D01*
Y2847D01*
X14886D01*
Y2843D01*
X14890D01*
Y2839D01*
X14895D01*
Y2835D01*
Y2831D01*
X14899D01*
Y2826D01*
X14903D01*
Y2822D01*
Y2818D01*
X14907D01*
Y2814D01*
X14911D01*
Y2810D01*
X14916D01*
Y2805D01*
Y2801D01*
X14920D01*
Y2797D01*
X14924D01*
Y2793D01*
Y2789D01*
X14928D01*
Y2784D01*
X14932D01*
Y2780D01*
X14937D01*
Y2776D01*
Y2772D01*
X14941D01*
Y2768D01*
X14945D01*
Y2763D01*
Y2759D01*
X14949D01*
Y2755D01*
X14953D01*
Y2751D01*
X14958D01*
Y2747D01*
Y2742D01*
X14962D01*
Y2738D01*
X14966D01*
Y2734D01*
Y2730D01*
X14970D01*
Y2726D01*
X14974D01*
Y2721D01*
X14979D01*
Y2717D01*
Y2713D01*
X14983D01*
Y2709D01*
X14987D01*
Y2705D01*
Y2700D01*
X14991D01*
Y2696D01*
X14995D01*
Y2692D01*
X15000D01*
Y2688D01*
Y2684D01*
X15004D01*
Y2679D01*
X15008D01*
Y2675D01*
Y2671D01*
X15012D01*
Y2667D01*
X15016D01*
Y2663D01*
X15021D01*
Y2659D01*
Y2654D01*
X15025D01*
Y2650D01*
X15029D01*
Y2646D01*
Y2642D01*
X15033D01*
Y2638D01*
X15037D01*
Y2633D01*
X15042D01*
Y2629D01*
Y2625D01*
X15046D01*
Y2621D01*
X15050D01*
Y2617D01*
Y2612D01*
X15054D01*
Y2608D01*
X15058D01*
Y2604D01*
X15063D01*
Y2600D01*
Y2596D01*
X15067D01*
Y2591D01*
X15071D01*
Y2587D01*
Y2583D01*
X15075D01*
Y2579D01*
X15079D01*
Y2575D01*
X15084D01*
Y2570D01*
Y2566D01*
X15088D01*
Y2562D01*
X15092D01*
Y2558D01*
Y2554D01*
X15096D01*
Y2549D01*
X15100D01*
Y2545D01*
X15105D01*
Y2541D01*
Y2537D01*
X15109D01*
Y2533D01*
X15113D01*
Y2528D01*
Y2524D01*
X15117D01*
Y2520D01*
X15121D01*
Y2516D01*
X15126D01*
Y2512D01*
Y2507D01*
X15130D01*
Y2503D01*
X15134D01*
Y2499D01*
Y2495D01*
X15138D01*
Y2491D01*
X15142D01*
Y2486D01*
X15147D01*
Y2482D01*
Y2478D01*
X15151D01*
Y2474D01*
X15155D01*
Y2470D01*
Y2465D01*
X15159D01*
Y2461D01*
X15163D01*
Y2457D01*
X15168D01*
Y2453D01*
Y2449D01*
X15172D01*
Y2444D01*
Y2440D01*
Y2436D01*
Y2432D01*
Y2428D01*
Y2423D01*
Y2419D01*
Y2415D01*
X15168D01*
Y2411D01*
X15163D01*
Y2407D01*
Y2402D01*
X15155D01*
Y2398D01*
X15147D01*
Y2394D01*
X14660D01*
Y2398D01*
X14651D01*
Y2402D01*
X14647D01*
Y2407D01*
X14643D01*
Y2411D01*
X14639D01*
Y2415D01*
Y2419D01*
X14634D01*
Y2423D01*
X14630D01*
Y2428D01*
X14626D01*
Y2432D01*
Y2436D01*
X14622D01*
Y2440D01*
X14618D01*
Y2444D01*
Y2449D01*
X14613D01*
Y2453D01*
X14609D01*
Y2457D01*
X14605D01*
Y2461D01*
Y2465D01*
X14601D01*
Y2470D01*
X14597D01*
Y2474D01*
Y2478D01*
X14592D01*
Y2482D01*
X14588D01*
Y2486D01*
X14584D01*
Y2491D01*
Y2495D01*
X14580D01*
Y2499D01*
X14576D01*
Y2503D01*
Y2507D01*
X14571D01*
Y2512D01*
X14567D01*
Y2516D01*
X14563D01*
Y2520D01*
Y2524D01*
X14559D01*
Y2528D01*
X14555D01*
Y2533D01*
X14550D01*
Y2537D01*
Y2541D01*
X14546D01*
Y2545D01*
X14542D01*
Y2549D01*
Y2554D01*
X14538D01*
Y2558D01*
X14534D01*
Y2562D01*
X14529D01*
Y2566D01*
Y2570D01*
X14525D01*
Y2575D01*
X14521D01*
Y2579D01*
Y2583D01*
X14517D01*
Y2587D01*
X14513D01*
Y2591D01*
X14508D01*
Y2596D01*
Y2600D01*
X14504D01*
Y2604D01*
X14500D01*
Y2608D01*
Y2612D01*
X14496D01*
Y2617D01*
X14492D01*
Y2621D01*
X14487D01*
Y2625D01*
Y2629D01*
X14483D01*
Y2633D01*
X14479D01*
Y2638D01*
Y2642D01*
X14475D01*
Y2646D01*
X14471D01*
Y2650D01*
X14466D01*
Y2654D01*
Y2659D01*
X14462D01*
Y2663D01*
X14458D01*
Y2667D01*
X14454D01*
Y2671D01*
Y2675D01*
X14450D01*
Y2679D01*
X14445D01*
Y2684D01*
Y2688D01*
X14441D01*
Y2692D01*
X14437D01*
Y2696D01*
X14433D01*
Y2700D01*
Y2705D01*
X14429D01*
Y2709D01*
X14424D01*
Y2713D01*
Y2717D01*
X14420D01*
Y2721D01*
X14416D01*
Y2726D01*
X14412D01*
Y2730D01*
Y2734D01*
X14408D01*
Y2738D01*
X14403D01*
Y2742D01*
Y2747D01*
X14399D01*
Y2751D01*
X14395D01*
Y2755D01*
X14391D01*
Y2759D01*
Y2763D01*
X14387D01*
Y2768D01*
X14382D01*
Y2772D01*
Y2776D01*
X14378D01*
Y2780D01*
X14374D01*
Y2784D01*
X14370D01*
Y2789D01*
Y2793D01*
X14366D01*
Y2797D01*
X14361D01*
Y2801D01*
X14357D01*
Y2805D01*
Y2810D01*
X14353D01*
Y2814D01*
X14349D01*
Y2818D01*
Y2822D01*
X14345D01*
Y2826D01*
X14340D01*
Y2831D01*
X14336D01*
Y2835D01*
Y2839D01*
X14332D01*
Y2843D01*
X14328D01*
Y2847D01*
Y2852D01*
X14324D01*
Y2856D01*
X14319D01*
Y2860D01*
X14315D01*
Y2864D01*
Y2868D01*
X14311D01*
Y2873D01*
X14307D01*
Y2877D01*
Y2881D01*
X14303D01*
Y2885D01*
X14298D01*
Y2889D01*
X14294D01*
Y2894D01*
Y2898D01*
X14290D01*
Y2902D01*
X14286D01*
Y2906D01*
Y2910D01*
X14282D01*
Y2915D01*
X14277D01*
Y2919D01*
X14273D01*
Y2923D01*
Y2927D01*
X14269D01*
Y2931D01*
X14265D01*
Y2936D01*
X14261D01*
Y2940D01*
Y2944D01*
X14256D01*
Y2948D01*
X14252D01*
Y2952D01*
Y2957D01*
X14248D01*
Y2961D01*
X14244D01*
Y2965D01*
X14240D01*
Y2969D01*
Y2973D01*
X14235D01*
Y2978D01*
X14231D01*
Y2982D01*
Y2986D01*
X14227D01*
Y2990D01*
X14223D01*
Y2994D01*
X14219D01*
Y2999D01*
Y3003D01*
X14214D01*
Y3007D01*
X14210D01*
Y3011D01*
Y3015D01*
X14206D01*
Y3020D01*
X14202D01*
Y3024D01*
X14198D01*
Y3028D01*
Y3032D01*
X14194D01*
Y3036D01*
X14189D01*
Y3041D01*
Y3045D01*
X14185D01*
Y3049D01*
X14181D01*
Y3053D01*
X14177D01*
Y3057D01*
Y3062D01*
X14173D01*
Y3066D01*
X14168D01*
Y3070D01*
X14164D01*
Y3074D01*
Y3078D01*
X14160D01*
Y3083D01*
X14156D01*
Y3087D01*
Y3091D01*
X14152D01*
Y3095D01*
X14147D01*
Y3099D01*
X14143D01*
Y3104D01*
Y3108D01*
X14139D01*
Y3112D01*
X14135D01*
Y3116D01*
Y3120D01*
X14131D01*
Y3125D01*
X14126D01*
Y3129D01*
X14122D01*
Y3133D01*
Y3137D01*
X14118D01*
Y3141D01*
X14114D01*
Y3146D01*
Y3150D01*
X14110D01*
Y3154D01*
X14105D01*
Y3158D01*
X14101D01*
Y3162D01*
Y3167D01*
X14097D01*
Y3171D01*
X14093D01*
Y3175D01*
Y3179D01*
X14089D01*
Y3183D01*
X14084D01*
Y3188D01*
X14080D01*
Y3192D01*
Y3196D01*
X14076D01*
Y3200D01*
X14072D01*
Y3204D01*
X14068D01*
Y3209D01*
Y3213D01*
X14063D01*
Y3217D01*
X14059D01*
Y3221D01*
Y3225D01*
X14055D01*
Y3230D01*
X14051D01*
Y3234D01*
X14047D01*
Y3238D01*
Y3242D01*
X14042D01*
Y3246D01*
X14038D01*
Y3251D01*
Y3255D01*
X14034D01*
Y3259D01*
X14030D01*
Y3263D01*
X14026D01*
Y3267D01*
Y3271D01*
X14021D01*
Y3276D01*
X14017D01*
Y3280D01*
Y3284D01*
X14013D01*
Y3288D01*
X14009D01*
Y3292D01*
X14005D01*
Y3297D01*
Y3301D01*
X14000D01*
Y3305D01*
X13996D01*
Y3309D01*
Y3313D01*
X13992D01*
Y3318D01*
X13988D01*
Y3322D01*
X13984D01*
Y3326D01*
Y3330D01*
X13979D01*
Y3334D01*
X13975D01*
Y3339D01*
X13971D01*
Y3343D01*
Y3347D01*
X13967D01*
Y3351D01*
X13963D01*
Y3355D01*
Y3360D01*
X13958D01*
Y3364D01*
X13954D01*
Y3368D01*
X13950D01*
Y3372D01*
Y3376D01*
X13946D01*
Y3381D01*
X13942D01*
Y3385D01*
Y3389D01*
X13937D01*
Y3393D01*
X13933D01*
Y3397D01*
X13929D01*
Y3402D01*
Y3406D01*
X13925D01*
Y3410D01*
X13921D01*
Y3414D01*
Y3418D01*
X13916D01*
Y3423D01*
X13912D01*
Y3427D01*
X13908D01*
Y3431D01*
Y3435D01*
X13904D01*
Y3439D01*
X13900D01*
Y3444D01*
Y3448D01*
X13895D01*
Y3452D01*
X13891D01*
Y3456D01*
X13887D01*
Y3460D01*
Y3465D01*
X13883D01*
Y3469D01*
X13879D01*
Y3473D01*
Y3477D01*
X13874D01*
Y3481D01*
X13870D01*
Y3486D01*
X13866D01*
Y3490D01*
Y3494D01*
X13862D01*
Y3498D01*
X13858D01*
Y3502D01*
X13853D01*
Y3507D01*
Y3511D01*
X13849D01*
Y3515D01*
X13845D01*
Y3519D01*
Y3523D01*
X13841D01*
Y3528D01*
X13837D01*
Y3532D01*
X13832D01*
Y3536D01*
Y3540D01*
X13828D01*
Y3544D01*
X13824D01*
Y3549D01*
Y3553D01*
X13820D01*
Y3557D01*
X13816D01*
Y3561D01*
X13811D01*
Y3565D01*
Y3570D01*
X13807D01*
Y3574D01*
X13803D01*
Y3578D01*
Y3582D01*
X13799D01*
Y3586D01*
X13795D01*
Y3591D01*
X13790D01*
Y3595D01*
Y3599D01*
X13786D01*
Y3603D01*
X13782D01*
Y3607D01*
Y3612D01*
X13778D01*
Y3616D01*
X13774D01*
Y3620D01*
X13769D01*
Y3624D01*
Y3628D01*
X13765D01*
Y3633D01*
X13761D01*
Y3637D01*
X13757D01*
Y3641D01*
Y3645D01*
X13753D01*
Y3649D01*
X13748D01*
Y3654D01*
Y3658D01*
X13744D01*
Y3662D01*
X13740D01*
Y3666D01*
X13736D01*
Y3670D01*
Y3675D01*
X13732D01*
Y3679D01*
X13727D01*
Y3683D01*
Y3687D01*
X13723D01*
Y3691D01*
X13719D01*
Y3696D01*
X13715D01*
Y3700D01*
Y3704D01*
X13711D01*
Y3708D01*
X13706D01*
Y3712D01*
Y3717D01*
X13702D01*
Y3721D01*
X13698D01*
Y3725D01*
X13694D01*
Y3729D01*
Y3733D01*
X13690D01*
Y3738D01*
X13685D01*
Y3742D01*
Y3746D01*
X13681D01*
Y3750D01*
X13677D01*
Y3754D01*
X13673D01*
Y3759D01*
Y3763D01*
X13669D01*
Y3767D01*
X13664D01*
Y3771D01*
X13660D01*
Y3775D01*
Y3780D01*
X13656D01*
Y3784D01*
X13652D01*
Y3788D01*
Y3792D01*
X13648D01*
Y3796D01*
X13643D01*
Y3801D01*
X13639D01*
Y3805D01*
Y3809D01*
X13635D01*
Y3813D01*
X13631D01*
Y3817D01*
Y3822D01*
X13627D01*
Y3826D01*
X13622D01*
Y3830D01*
X13618D01*
Y3834D01*
Y3838D01*
X13614D01*
Y3842D01*
X13610D01*
Y3847D01*
Y3851D01*
X13606D01*
Y3855D01*
X13601D01*
Y3859D01*
X13597D01*
Y3864D01*
Y3868D01*
X13593D01*
Y3872D01*
X13589D01*
Y3876D01*
Y3880D01*
X13585D01*
Y3884D01*
X13581D01*
Y3889D01*
X13576D01*
Y3893D01*
Y3897D01*
X13572D01*
Y3901D01*
X13568D01*
Y3905D01*
X13564D01*
Y3910D01*
Y3914D01*
X13560D01*
Y3918D01*
X13555D01*
Y3922D01*
Y3926D01*
X13551D01*
Y3931D01*
X13547D01*
Y3935D01*
X13543D01*
Y3939D01*
Y3943D01*
X13539D01*
Y3947D01*
X13534D01*
Y3952D01*
Y3956D01*
X13530D01*
Y3960D01*
X13526D01*
Y3964D01*
X13522D01*
Y3968D01*
Y3973D01*
X13518D01*
Y3977D01*
X13513D01*
Y3981D01*
Y3985D01*
X13509D01*
Y3989D01*
X13505D01*
Y3994D01*
X13501D01*
Y3998D01*
Y4002D01*
X13497D01*
Y4006D01*
X13492D01*
Y4010D01*
Y4015D01*
X13488D01*
Y4019D01*
X13484D01*
Y4023D01*
X13480D01*
Y4027D01*
Y4031D01*
X13476D01*
Y4036D01*
X13471D01*
Y4040D01*
X13467D01*
Y4044D01*
Y4048D01*
X13463D01*
Y4052D01*
X13459D01*
Y4057D01*
Y4061D01*
X13455D01*
Y4065D01*
X13450D01*
Y4069D01*
X13446D01*
Y4073D01*
Y4078D01*
X13442D01*
Y4082D01*
X13438D01*
Y4086D01*
Y4090D01*
X13434D01*
Y4094D01*
X13429D01*
Y4099D01*
X13425D01*
Y4103D01*
Y4107D01*
X13421D01*
Y4111D01*
X13417D01*
Y4115D01*
Y4120D01*
X13413D01*
Y4124D01*
X13408D01*
Y4128D01*
X13404D01*
Y4132D01*
Y4136D01*
X13400D01*
Y4141D01*
X13396D01*
Y4145D01*
Y4149D01*
X13392D01*
Y4153D01*
X13387D01*
Y4157D01*
X13383D01*
Y4162D01*
Y4166D01*
X13379D01*
Y4170D01*
X13375D01*
Y4174D01*
X13371D01*
Y4178D01*
Y4183D01*
X13366D01*
Y4187D01*
X13362D01*
Y4191D01*
Y4195D01*
X13358D01*
Y4199D01*
X13354D01*
Y4204D01*
X13350D01*
Y4208D01*
Y4212D01*
X13345D01*
Y4216D01*
X13341D01*
Y4220D01*
Y4225D01*
X13337D01*
Y4229D01*
X13333D01*
Y4233D01*
X13329D01*
Y4237D01*
Y4241D01*
X13324D01*
Y4246D01*
X13320D01*
Y4250D01*
Y4254D01*
X13316D01*
Y4258D01*
X13312D01*
Y4262D01*
X13308D01*
Y4267D01*
Y4271D01*
X13303D01*
Y4275D01*
X13299D01*
Y4279D01*
Y4283D01*
X13295D01*
Y4288D01*
X13291D01*
Y4292D01*
X13287D01*
Y4296D01*
Y4300D01*
X13282D01*
Y4304D01*
X13278D01*
Y4309D01*
X13274D01*
Y4313D01*
Y4317D01*
X13270D01*
Y4321D01*
X13266D01*
Y4325D01*
Y4330D01*
X13261D01*
Y4334D01*
X13257D01*
Y4338D01*
X13253D01*
Y4342D01*
Y4346D01*
X13249D01*
Y4351D01*
X13245D01*
Y4355D01*
Y4359D01*
X13240D01*
Y4363D01*
X13236D01*
Y4367D01*
X13232D01*
Y4372D01*
Y4376D01*
X13228D01*
Y4380D01*
X13224D01*
Y4384D01*
Y4388D01*
X13219D01*
Y4393D01*
X13215D01*
Y4397D01*
X13211D01*
Y4401D01*
Y4405D01*
X13207D01*
Y4409D01*
X13203D01*
Y4414D01*
Y4418D01*
X13198D01*
Y4422D01*
X13194D01*
Y4426D01*
X13190D01*
Y4430D01*
Y4435D01*
X13186D01*
Y4439D01*
X13182D01*
Y4443D01*
X13177D01*
Y4447D01*
Y4451D01*
X13173D01*
Y4455D01*
X13169D01*
Y4460D01*
Y4464D01*
X13165D01*
Y4468D01*
X13161D01*
Y4472D01*
X13156D01*
Y4476D01*
Y4481D01*
X13152D01*
Y4485D01*
X13148D01*
Y4489D01*
Y4493D01*
X13144D01*
Y4497D01*
X13140D01*
Y4502D01*
X13135D01*
Y4506D01*
Y4510D01*
X13131D01*
Y4514D01*
X13127D01*
Y4518D01*
Y4523D01*
X13123D01*
Y4527D01*
X13119D01*
Y4531D01*
X13114D01*
Y4535D01*
Y4539D01*
X13110D01*
Y4544D01*
X13106D01*
Y4548D01*
Y4552D01*
X13102D01*
Y4556D01*
X13098D01*
Y4560D01*
X13093D01*
Y4565D01*
Y4569D01*
X13089D01*
Y4573D01*
X13085D01*
Y4577D01*
X13081D01*
Y4581D01*
Y4586D01*
X13077D01*
Y4590D01*
X13072D01*
Y4594D01*
Y4598D01*
X13068D01*
Y4602D01*
X13064D01*
Y4607D01*
X13060D01*
Y4611D01*
Y4615D01*
X13056D01*
Y4619D01*
X13051D01*
Y4623D01*
Y4628D01*
X13047D01*
Y4632D01*
X13043D01*
Y4636D01*
Y4640D01*
Y4644D01*
Y4649D01*
X13039D01*
Y4653D01*
X13043D01*
Y4657D01*
Y4661D01*
Y4665D01*
X13047D01*
Y4670D01*
Y4674D01*
X13051D01*
Y4678D01*
X13056D01*
Y4682D01*
X13064D01*
Y4686D01*
X13077D01*
Y4691D01*
X13555D01*
Y4686D01*
D02*
G37*
G36*
X12720Y3418D02*
X12732D01*
Y3414D01*
X12737D01*
Y3410D01*
X12741D01*
Y3406D01*
Y3402D01*
X12745D01*
Y3397D01*
Y3393D01*
X12749D01*
Y3389D01*
Y3385D01*
Y3381D01*
Y3376D01*
Y3372D01*
Y3368D01*
Y3364D01*
Y3360D01*
Y3355D01*
Y3351D01*
Y3347D01*
Y3343D01*
Y3339D01*
X12753D01*
Y3334D01*
Y3330D01*
Y3326D01*
Y3322D01*
Y3318D01*
Y3313D01*
Y3309D01*
Y3305D01*
Y3301D01*
Y3297D01*
Y3292D01*
Y3288D01*
Y3284D01*
Y3280D01*
Y3276D01*
X12758D01*
Y3271D01*
Y3267D01*
Y3263D01*
Y3259D01*
Y3255D01*
Y3251D01*
Y3246D01*
Y3242D01*
Y3238D01*
Y3234D01*
Y3230D01*
Y3225D01*
Y3221D01*
Y3217D01*
Y3213D01*
Y3209D01*
X12762D01*
Y3204D01*
Y3200D01*
Y3196D01*
Y3192D01*
Y3188D01*
Y3183D01*
Y3179D01*
Y3175D01*
Y3171D01*
Y3167D01*
Y3162D01*
Y3158D01*
Y3154D01*
Y3150D01*
Y3146D01*
X12766D01*
Y3141D01*
Y3137D01*
Y3133D01*
Y3129D01*
Y3125D01*
Y3120D01*
Y3116D01*
Y3112D01*
Y3108D01*
Y3104D01*
Y3099D01*
Y3095D01*
Y3091D01*
Y3087D01*
Y3083D01*
X12770D01*
Y3078D01*
Y3074D01*
Y3070D01*
Y3066D01*
Y3062D01*
Y3057D01*
Y3053D01*
Y3049D01*
Y3045D01*
Y3041D01*
Y3036D01*
Y3032D01*
Y3028D01*
Y3024D01*
Y3020D01*
X12774D01*
Y3015D01*
Y3011D01*
Y3007D01*
Y3003D01*
Y2999D01*
Y2994D01*
Y2990D01*
Y2986D01*
Y2982D01*
Y2978D01*
Y2973D01*
Y2969D01*
Y2965D01*
Y2961D01*
Y2957D01*
X12779D01*
Y2952D01*
Y2948D01*
Y2944D01*
Y2940D01*
Y2936D01*
Y2931D01*
Y2927D01*
Y2923D01*
Y2919D01*
Y2915D01*
Y2910D01*
Y2906D01*
Y2902D01*
Y2898D01*
Y2894D01*
X12783D01*
Y2889D01*
Y2885D01*
Y2881D01*
Y2877D01*
Y2873D01*
Y2868D01*
Y2864D01*
Y2860D01*
Y2856D01*
Y2852D01*
Y2847D01*
Y2843D01*
Y2839D01*
Y2835D01*
Y2831D01*
X12787D01*
Y2826D01*
Y2822D01*
Y2818D01*
Y2814D01*
Y2810D01*
Y2805D01*
Y2801D01*
Y2797D01*
Y2793D01*
Y2789D01*
Y2784D01*
Y2780D01*
Y2776D01*
Y2772D01*
Y2768D01*
X12791D01*
Y2763D01*
Y2759D01*
Y2755D01*
Y2751D01*
Y2747D01*
Y2742D01*
Y2738D01*
Y2734D01*
Y2730D01*
Y2726D01*
Y2721D01*
Y2717D01*
Y2713D01*
Y2709D01*
Y2705D01*
X12795D01*
Y2700D01*
Y2696D01*
Y2692D01*
Y2688D01*
Y2684D01*
Y2679D01*
Y2675D01*
Y2671D01*
Y2667D01*
Y2663D01*
Y2659D01*
Y2654D01*
Y2650D01*
Y2646D01*
Y2642D01*
X12800D01*
Y2638D01*
Y2633D01*
Y2629D01*
Y2625D01*
Y2621D01*
Y2617D01*
Y2612D01*
Y2608D01*
Y2604D01*
Y2600D01*
Y2596D01*
Y2591D01*
Y2587D01*
Y2583D01*
Y2579D01*
Y2575D01*
X12804D01*
Y2570D01*
Y2566D01*
Y2562D01*
Y2558D01*
Y2554D01*
Y2549D01*
Y2545D01*
Y2541D01*
Y2537D01*
Y2533D01*
Y2528D01*
Y2524D01*
Y2520D01*
Y2516D01*
Y2512D01*
X12808D01*
Y2507D01*
Y2503D01*
Y2499D01*
Y2495D01*
Y2491D01*
Y2486D01*
Y2482D01*
Y2478D01*
Y2474D01*
Y2470D01*
Y2465D01*
Y2461D01*
Y2457D01*
Y2453D01*
Y2449D01*
X12812D01*
Y2444D01*
Y2440D01*
Y2436D01*
Y2432D01*
Y2428D01*
Y2423D01*
X12808D01*
Y2419D01*
Y2415D01*
X12804D01*
Y2411D01*
Y2407D01*
X12800D01*
Y2402D01*
X12795D01*
Y2398D01*
X12783D01*
Y2394D01*
X12397D01*
Y2398D01*
X12388D01*
Y2402D01*
X12384D01*
Y2407D01*
X12380D01*
Y2411D01*
X12376D01*
Y2415D01*
Y2419D01*
X12371D01*
Y2423D01*
Y2428D01*
Y2432D01*
Y2436D01*
Y2440D01*
Y2444D01*
Y2449D01*
Y2453D01*
Y2457D01*
Y2461D01*
X12367D01*
Y2465D01*
Y2470D01*
Y2474D01*
Y2478D01*
Y2482D01*
Y2486D01*
Y2491D01*
Y2495D01*
Y2499D01*
Y2503D01*
Y2507D01*
Y2512D01*
Y2516D01*
Y2520D01*
Y2524D01*
X12363D01*
Y2528D01*
Y2533D01*
Y2537D01*
Y2541D01*
Y2545D01*
Y2549D01*
Y2554D01*
Y2558D01*
Y2562D01*
Y2566D01*
Y2570D01*
Y2575D01*
Y2579D01*
Y2583D01*
Y2587D01*
X12359D01*
Y2591D01*
Y2596D01*
Y2600D01*
Y2604D01*
Y2608D01*
Y2612D01*
Y2617D01*
Y2621D01*
Y2625D01*
Y2629D01*
Y2633D01*
Y2638D01*
Y2642D01*
Y2646D01*
Y2650D01*
X12355D01*
Y2654D01*
Y2659D01*
Y2663D01*
Y2667D01*
Y2671D01*
Y2675D01*
Y2679D01*
Y2684D01*
Y2688D01*
Y2692D01*
Y2696D01*
Y2700D01*
Y2705D01*
Y2709D01*
Y2713D01*
X12350D01*
Y2717D01*
Y2721D01*
Y2726D01*
Y2730D01*
Y2734D01*
Y2738D01*
Y2742D01*
Y2747D01*
Y2751D01*
Y2755D01*
Y2759D01*
Y2763D01*
Y2768D01*
Y2772D01*
Y2776D01*
X12346D01*
Y2780D01*
Y2784D01*
Y2789D01*
Y2793D01*
Y2797D01*
Y2801D01*
Y2805D01*
Y2810D01*
Y2814D01*
Y2818D01*
Y2822D01*
Y2826D01*
Y2831D01*
Y2835D01*
Y2839D01*
Y2843D01*
X12342D01*
Y2847D01*
Y2852D01*
Y2856D01*
Y2860D01*
Y2864D01*
Y2868D01*
Y2873D01*
Y2877D01*
Y2881D01*
Y2885D01*
Y2889D01*
Y2894D01*
Y2898D01*
Y2902D01*
Y2906D01*
X12338D01*
Y2910D01*
Y2915D01*
Y2919D01*
Y2923D01*
Y2927D01*
Y2931D01*
Y2936D01*
Y2940D01*
Y2944D01*
Y2948D01*
Y2952D01*
Y2957D01*
Y2961D01*
Y2965D01*
Y2969D01*
X12334D01*
Y2973D01*
Y2978D01*
Y2982D01*
Y2986D01*
Y2990D01*
Y2994D01*
Y2999D01*
Y3003D01*
Y3007D01*
Y3011D01*
X12329D01*
Y3015D01*
Y3020D01*
X12325D01*
Y3024D01*
X12321D01*
Y3028D01*
X12317D01*
Y3032D01*
X12308D01*
Y3036D01*
X11385D01*
Y3032D01*
X11376D01*
Y3028D01*
X11372D01*
Y3024D01*
X11368D01*
Y3020D01*
Y3015D01*
X11364D01*
Y3011D01*
Y3007D01*
X11359D01*
Y3003D01*
Y2999D01*
Y2994D01*
Y2990D01*
Y2986D01*
Y2982D01*
Y2978D01*
Y2973D01*
Y2969D01*
Y2965D01*
Y2961D01*
Y2957D01*
Y2952D01*
Y2948D01*
X11355D01*
Y2944D01*
Y2940D01*
Y2936D01*
Y2931D01*
Y2927D01*
Y2923D01*
Y2919D01*
Y2915D01*
Y2910D01*
Y2906D01*
Y2902D01*
Y2898D01*
Y2894D01*
Y2889D01*
Y2885D01*
Y2881D01*
X11351D01*
Y2877D01*
Y2873D01*
Y2868D01*
Y2864D01*
Y2860D01*
Y2856D01*
Y2852D01*
Y2847D01*
Y2843D01*
Y2839D01*
Y2835D01*
Y2831D01*
Y2826D01*
Y2822D01*
Y2818D01*
X11347D01*
Y2814D01*
Y2810D01*
Y2805D01*
Y2801D01*
Y2797D01*
Y2793D01*
Y2789D01*
Y2784D01*
Y2780D01*
Y2776D01*
Y2772D01*
Y2768D01*
Y2763D01*
Y2759D01*
Y2755D01*
X11343D01*
Y2751D01*
Y2747D01*
Y2742D01*
Y2738D01*
Y2734D01*
Y2730D01*
Y2726D01*
Y2721D01*
Y2717D01*
Y2713D01*
Y2709D01*
Y2705D01*
Y2700D01*
Y2696D01*
Y2692D01*
X11338D01*
Y2688D01*
Y2684D01*
Y2679D01*
Y2675D01*
Y2671D01*
Y2667D01*
Y2663D01*
Y2659D01*
Y2654D01*
Y2650D01*
Y2646D01*
Y2642D01*
Y2638D01*
Y2633D01*
Y2629D01*
X11334D01*
Y2625D01*
Y2621D01*
Y2617D01*
Y2612D01*
Y2608D01*
Y2604D01*
Y2600D01*
Y2596D01*
Y2591D01*
Y2587D01*
Y2583D01*
Y2579D01*
Y2575D01*
Y2570D01*
Y2566D01*
X11330D01*
Y2562D01*
Y2558D01*
Y2554D01*
Y2549D01*
Y2545D01*
Y2541D01*
Y2537D01*
Y2533D01*
Y2528D01*
Y2524D01*
Y2520D01*
Y2516D01*
Y2512D01*
Y2507D01*
Y2503D01*
X11326D01*
Y2499D01*
Y2495D01*
Y2491D01*
Y2486D01*
Y2482D01*
Y2478D01*
Y2474D01*
Y2470D01*
Y2465D01*
Y2461D01*
Y2457D01*
Y2453D01*
Y2449D01*
Y2444D01*
Y2440D01*
X11322D01*
Y2436D01*
Y2432D01*
Y2428D01*
Y2423D01*
Y2419D01*
Y2415D01*
X11317D01*
Y2411D01*
X11313D01*
Y2407D01*
Y2402D01*
X11305D01*
Y2398D01*
X11296D01*
Y2394D01*
X10910D01*
Y2398D01*
X10902D01*
Y2402D01*
X10893D01*
Y2407D01*
Y2411D01*
X10889D01*
Y2415D01*
X10885D01*
Y2419D01*
Y2423D01*
Y2428D01*
Y2432D01*
Y2436D01*
Y2440D01*
Y2444D01*
Y2449D01*
Y2453D01*
Y2457D01*
Y2461D01*
Y2465D01*
Y2470D01*
Y2474D01*
Y2478D01*
Y2482D01*
Y2486D01*
Y2491D01*
X10889D01*
Y2495D01*
Y2499D01*
Y2503D01*
Y2507D01*
Y2512D01*
Y2516D01*
Y2520D01*
Y2524D01*
Y2528D01*
Y2533D01*
Y2537D01*
Y2541D01*
Y2545D01*
Y2549D01*
Y2554D01*
X10893D01*
Y2558D01*
Y2562D01*
Y2566D01*
Y2570D01*
Y2575D01*
Y2579D01*
Y2583D01*
Y2587D01*
Y2591D01*
Y2596D01*
Y2600D01*
Y2604D01*
Y2608D01*
Y2612D01*
Y2617D01*
X10898D01*
Y2621D01*
Y2625D01*
Y2629D01*
Y2633D01*
Y2638D01*
Y2642D01*
Y2646D01*
Y2650D01*
Y2654D01*
Y2659D01*
Y2663D01*
Y2667D01*
Y2671D01*
Y2675D01*
Y2679D01*
X10902D01*
Y2684D01*
Y2688D01*
Y2692D01*
Y2696D01*
Y2700D01*
Y2705D01*
Y2709D01*
Y2713D01*
Y2717D01*
Y2721D01*
Y2726D01*
Y2730D01*
Y2734D01*
Y2738D01*
Y2742D01*
X10906D01*
Y2747D01*
Y2751D01*
Y2755D01*
Y2759D01*
Y2763D01*
Y2768D01*
Y2772D01*
Y2776D01*
Y2780D01*
Y2784D01*
Y2789D01*
Y2793D01*
Y2797D01*
Y2801D01*
Y2805D01*
X10910D01*
Y2810D01*
Y2814D01*
Y2818D01*
Y2822D01*
Y2826D01*
Y2831D01*
Y2835D01*
Y2839D01*
Y2843D01*
Y2847D01*
Y2852D01*
Y2856D01*
Y2860D01*
Y2864D01*
Y2868D01*
Y2873D01*
X10914D01*
Y2877D01*
Y2881D01*
Y2885D01*
Y2889D01*
Y2894D01*
Y2898D01*
Y2902D01*
Y2906D01*
Y2910D01*
Y2915D01*
Y2919D01*
Y2923D01*
Y2927D01*
Y2931D01*
Y2936D01*
X10919D01*
Y2940D01*
Y2944D01*
Y2948D01*
Y2952D01*
Y2957D01*
Y2961D01*
Y2965D01*
Y2969D01*
Y2973D01*
Y2978D01*
Y2982D01*
Y2986D01*
Y2990D01*
Y2994D01*
Y2999D01*
X10923D01*
Y3003D01*
Y3007D01*
Y3011D01*
Y3015D01*
Y3020D01*
Y3024D01*
Y3028D01*
Y3032D01*
Y3036D01*
Y3041D01*
Y3045D01*
Y3049D01*
Y3053D01*
Y3057D01*
Y3062D01*
X10927D01*
Y3066D01*
Y3070D01*
Y3074D01*
Y3078D01*
Y3083D01*
Y3087D01*
Y3091D01*
Y3095D01*
Y3099D01*
Y3104D01*
Y3108D01*
Y3112D01*
Y3116D01*
Y3120D01*
Y3125D01*
X10931D01*
Y3129D01*
Y3133D01*
Y3137D01*
Y3141D01*
Y3146D01*
Y3150D01*
Y3154D01*
Y3158D01*
Y3162D01*
Y3167D01*
Y3171D01*
Y3175D01*
Y3179D01*
Y3183D01*
Y3188D01*
X10935D01*
Y3192D01*
Y3196D01*
Y3200D01*
Y3204D01*
Y3209D01*
Y3213D01*
Y3217D01*
Y3221D01*
Y3225D01*
Y3230D01*
Y3234D01*
Y3238D01*
Y3242D01*
Y3246D01*
Y3251D01*
X10940D01*
Y3255D01*
Y3259D01*
Y3263D01*
Y3267D01*
Y3271D01*
Y3276D01*
Y3280D01*
Y3284D01*
Y3288D01*
Y3292D01*
Y3297D01*
Y3301D01*
Y3305D01*
Y3309D01*
Y3313D01*
X10944D01*
Y3318D01*
Y3322D01*
Y3326D01*
Y3330D01*
Y3334D01*
Y3339D01*
Y3343D01*
Y3347D01*
Y3351D01*
Y3355D01*
Y3360D01*
Y3364D01*
Y3368D01*
Y3372D01*
Y3376D01*
Y3381D01*
X10948D01*
Y3385D01*
Y3389D01*
Y3393D01*
Y3397D01*
Y3402D01*
X10952D01*
Y3406D01*
X10956D01*
Y3410D01*
X10961D01*
Y3414D01*
X10965D01*
Y3418D01*
X10973D01*
Y3423D01*
X12720D01*
Y3418D01*
D02*
G37*
G36*
X13723Y3364D02*
X13736D01*
Y3360D01*
X13740D01*
Y3355D01*
X13744D01*
Y3351D01*
X13748D01*
Y3347D01*
Y3343D01*
X13753D01*
Y3339D01*
X13757D01*
Y3334D01*
X13761D01*
Y3330D01*
Y3326D01*
X13765D01*
Y3322D01*
X13769D01*
Y3318D01*
Y3313D01*
X13774D01*
Y3309D01*
X13778D01*
Y3305D01*
X13782D01*
Y3301D01*
Y3297D01*
X13786D01*
Y3292D01*
X13790D01*
Y3288D01*
X13795D01*
Y3284D01*
Y3280D01*
X13799D01*
Y3276D01*
X13803D01*
Y3271D01*
Y3267D01*
X13807D01*
Y3263D01*
X13811D01*
Y3259D01*
X13816D01*
Y3255D01*
Y3251D01*
X13820D01*
Y3246D01*
X13824D01*
Y3242D01*
X13828D01*
Y3238D01*
Y3234D01*
X13832D01*
Y3230D01*
X13837D01*
Y3225D01*
Y3221D01*
X13841D01*
Y3217D01*
X13845D01*
Y3213D01*
X13849D01*
Y3209D01*
Y3204D01*
X13853D01*
Y3200D01*
X13858D01*
Y3196D01*
X13862D01*
Y3192D01*
Y3188D01*
X13866D01*
Y3183D01*
X13870D01*
Y3179D01*
Y3175D01*
X13874D01*
Y3171D01*
X13879D01*
Y3167D01*
X13883D01*
Y3162D01*
Y3158D01*
X13887D01*
Y3154D01*
X13891D01*
Y3150D01*
X13895D01*
Y3146D01*
Y3141D01*
X13900D01*
Y3137D01*
X13904D01*
Y3133D01*
Y3129D01*
X13908D01*
Y3125D01*
X13912D01*
Y3120D01*
X13916D01*
Y3116D01*
Y3112D01*
X13921D01*
Y3108D01*
X13925D01*
Y3104D01*
X13929D01*
Y3099D01*
Y3095D01*
X13933D01*
Y3091D01*
X13937D01*
Y3087D01*
Y3083D01*
X13942D01*
Y3078D01*
X13946D01*
Y3074D01*
X13950D01*
Y3070D01*
Y3066D01*
X13954D01*
Y3062D01*
X13958D01*
Y3057D01*
X13963D01*
Y3053D01*
Y3049D01*
X13967D01*
Y3045D01*
X13971D01*
Y3041D01*
Y3036D01*
X13975D01*
Y3032D01*
X13979D01*
Y3028D01*
X13984D01*
Y3024D01*
Y3020D01*
X13988D01*
Y3015D01*
Y3011D01*
X13992D01*
Y3007D01*
Y3003D01*
Y2999D01*
Y2994D01*
Y2990D01*
X13988D01*
Y2986D01*
Y2982D01*
Y2978D01*
X13984D01*
Y2973D01*
X13979D01*
Y2969D01*
X13975D01*
Y2965D01*
Y2961D01*
X13971D01*
Y2957D01*
X13967D01*
Y2952D01*
Y2948D01*
X13963D01*
Y2944D01*
X13958D01*
Y2940D01*
Y2936D01*
X13954D01*
Y2931D01*
X13950D01*
Y2927D01*
X13946D01*
Y2923D01*
Y2919D01*
X13942D01*
Y2915D01*
X13937D01*
Y2910D01*
Y2906D01*
X13933D01*
Y2902D01*
X13929D01*
Y2898D01*
X13925D01*
Y2894D01*
Y2889D01*
X13921D01*
Y2885D01*
X13916D01*
Y2881D01*
Y2877D01*
X13912D01*
Y2873D01*
X13908D01*
Y2868D01*
X13904D01*
Y2864D01*
Y2860D01*
X13900D01*
Y2856D01*
X13895D01*
Y2852D01*
Y2847D01*
X13891D01*
Y2843D01*
X13887D01*
Y2839D01*
Y2835D01*
X13883D01*
Y2831D01*
X13879D01*
Y2826D01*
X13874D01*
Y2822D01*
Y2818D01*
X13870D01*
Y2814D01*
X13866D01*
Y2810D01*
Y2805D01*
X13862D01*
Y2801D01*
X13858D01*
Y2797D01*
X13853D01*
Y2793D01*
Y2789D01*
X13849D01*
Y2784D01*
X13845D01*
Y2780D01*
Y2776D01*
X13841D01*
Y2772D01*
X13837D01*
Y2768D01*
X13832D01*
Y2763D01*
Y2759D01*
X13828D01*
Y2755D01*
X13824D01*
Y2751D01*
Y2747D01*
X13820D01*
Y2742D01*
X13816D01*
Y2738D01*
X13811D01*
Y2734D01*
Y2730D01*
X13807D01*
Y2726D01*
X13803D01*
Y2721D01*
Y2717D01*
X13799D01*
Y2713D01*
X13795D01*
Y2709D01*
Y2705D01*
X13790D01*
Y2700D01*
X13786D01*
Y2696D01*
X13782D01*
Y2692D01*
Y2688D01*
X13778D01*
Y2684D01*
X13774D01*
Y2679D01*
Y2675D01*
X13769D01*
Y2671D01*
X13765D01*
Y2667D01*
X13761D01*
Y2663D01*
Y2659D01*
X13757D01*
Y2654D01*
X13753D01*
Y2650D01*
Y2646D01*
X13748D01*
Y2642D01*
X13744D01*
Y2638D01*
X13740D01*
Y2633D01*
Y2629D01*
X13736D01*
Y2625D01*
X13732D01*
Y2621D01*
Y2617D01*
X13727D01*
Y2612D01*
X13723D01*
Y2608D01*
X13719D01*
Y2604D01*
Y2600D01*
X13715D01*
Y2596D01*
X13711D01*
Y2591D01*
Y2587D01*
X13706D01*
Y2583D01*
X13702D01*
Y2579D01*
Y2575D01*
X13698D01*
Y2570D01*
X13694D01*
Y2566D01*
X13690D01*
Y2562D01*
Y2558D01*
X13685D01*
Y2554D01*
X13681D01*
Y2549D01*
Y2545D01*
X13677D01*
Y2541D01*
X13673D01*
Y2537D01*
X13669D01*
Y2533D01*
Y2528D01*
X13664D01*
Y2524D01*
X13660D01*
Y2520D01*
Y2516D01*
X13656D01*
Y2512D01*
X13652D01*
Y2507D01*
X13648D01*
Y2503D01*
Y2499D01*
X13643D01*
Y2495D01*
X13639D01*
Y2491D01*
Y2486D01*
X13635D01*
Y2482D01*
X13631D01*
Y2478D01*
X13627D01*
Y2474D01*
Y2470D01*
X13622D01*
Y2465D01*
X13618D01*
Y2461D01*
Y2457D01*
X13614D01*
Y2453D01*
X13610D01*
Y2449D01*
Y2444D01*
X13606D01*
Y2440D01*
X13601D01*
Y2436D01*
X13597D01*
Y2432D01*
Y2428D01*
X13593D01*
Y2423D01*
X13589D01*
Y2419D01*
Y2415D01*
X13585D01*
Y2411D01*
X13581D01*
Y2407D01*
X13576D01*
Y2402D01*
X13572D01*
Y2398D01*
X13568D01*
Y2394D01*
X13547D01*
Y2390D01*
X13064D01*
Y2394D01*
X13051D01*
Y2398D01*
X13047D01*
Y2402D01*
X13043D01*
Y2407D01*
X13039D01*
Y2411D01*
Y2415D01*
Y2419D01*
X13035D01*
Y2423D01*
Y2428D01*
Y2432D01*
Y2436D01*
Y2440D01*
X13039D01*
Y2444D01*
Y2449D01*
X13043D01*
Y2453D01*
Y2457D01*
X13047D01*
Y2461D01*
X13051D01*
Y2465D01*
Y2470D01*
X13056D01*
Y2474D01*
X13060D01*
Y2478D01*
X13064D01*
Y2482D01*
Y2486D01*
X13068D01*
Y2491D01*
X13072D01*
Y2495D01*
Y2499D01*
X13077D01*
Y2503D01*
X13081D01*
Y2507D01*
X13085D01*
Y2512D01*
Y2516D01*
X13089D01*
Y2520D01*
X13093D01*
Y2524D01*
Y2528D01*
X13098D01*
Y2533D01*
X13102D01*
Y2537D01*
X13106D01*
Y2541D01*
Y2545D01*
X13110D01*
Y2549D01*
X13114D01*
Y2554D01*
Y2558D01*
X13119D01*
Y2562D01*
X13123D01*
Y2566D01*
Y2570D01*
X13127D01*
Y2575D01*
X13131D01*
Y2579D01*
X13135D01*
Y2583D01*
Y2587D01*
X13140D01*
Y2591D01*
X13144D01*
Y2596D01*
Y2600D01*
X13148D01*
Y2604D01*
X13152D01*
Y2608D01*
X13156D01*
Y2612D01*
Y2617D01*
X13161D01*
Y2621D01*
X13165D01*
Y2625D01*
Y2629D01*
X13169D01*
Y2633D01*
X13173D01*
Y2638D01*
X13177D01*
Y2642D01*
Y2646D01*
X13182D01*
Y2650D01*
X13186D01*
Y2654D01*
Y2659D01*
X13190D01*
Y2663D01*
X13194D01*
Y2667D01*
Y2671D01*
X13198D01*
Y2675D01*
X13203D01*
Y2679D01*
X13207D01*
Y2684D01*
Y2688D01*
X13211D01*
Y2692D01*
X13215D01*
Y2696D01*
Y2700D01*
X13219D01*
Y2705D01*
X13224D01*
Y2709D01*
X13228D01*
Y2713D01*
Y2717D01*
X13232D01*
Y2721D01*
X13236D01*
Y2726D01*
Y2730D01*
X13240D01*
Y2734D01*
X13245D01*
Y2738D01*
X13249D01*
Y2742D01*
Y2747D01*
X13253D01*
Y2751D01*
X13257D01*
Y2755D01*
Y2759D01*
X13261D01*
Y2763D01*
X13266D01*
Y2768D01*
X13270D01*
Y2772D01*
Y2776D01*
X13274D01*
Y2780D01*
X13278D01*
Y2784D01*
Y2789D01*
X13282D01*
Y2793D01*
X13287D01*
Y2797D01*
Y2801D01*
X13291D01*
Y2805D01*
X13295D01*
Y2810D01*
X13299D01*
Y2814D01*
Y2818D01*
X13303D01*
Y2822D01*
X13308D01*
Y2826D01*
Y2831D01*
X13312D01*
Y2835D01*
X13316D01*
Y2839D01*
X13320D01*
Y2843D01*
Y2847D01*
X13324D01*
Y2852D01*
X13329D01*
Y2856D01*
Y2860D01*
X13333D01*
Y2864D01*
X13337D01*
Y2868D01*
X13341D01*
Y2873D01*
Y2877D01*
X13345D01*
Y2881D01*
X13350D01*
Y2885D01*
Y2889D01*
X13354D01*
Y2894D01*
X13358D01*
Y2898D01*
Y2902D01*
X13362D01*
Y2906D01*
X13366D01*
Y2910D01*
X13371D01*
Y2915D01*
Y2919D01*
X13375D01*
Y2923D01*
X13379D01*
Y2927D01*
Y2931D01*
X13383D01*
Y2936D01*
X13387D01*
Y2940D01*
X13392D01*
Y2944D01*
Y2948D01*
X13396D01*
Y2952D01*
X13400D01*
Y2957D01*
Y2961D01*
X13404D01*
Y2965D01*
X13408D01*
Y2969D01*
X13413D01*
Y2973D01*
Y2978D01*
X13417D01*
Y2982D01*
X13421D01*
Y2986D01*
Y2990D01*
X13425D01*
Y2994D01*
X13429D01*
Y2999D01*
Y3003D01*
X13434D01*
Y3007D01*
X13438D01*
Y3011D01*
X13442D01*
Y3015D01*
Y3020D01*
X13446D01*
Y3024D01*
X13450D01*
Y3028D01*
Y3032D01*
X13455D01*
Y3036D01*
X13459D01*
Y3041D01*
X13463D01*
Y3045D01*
Y3049D01*
X13467D01*
Y3053D01*
X13471D01*
Y3057D01*
Y3062D01*
X13476D01*
Y3066D01*
X13480D01*
Y3070D01*
X13484D01*
Y3074D01*
Y3078D01*
X13488D01*
Y3083D01*
X13492D01*
Y3087D01*
Y3091D01*
X13497D01*
Y3095D01*
X13501D01*
Y3099D01*
Y3104D01*
X13505D01*
Y3108D01*
X13509D01*
Y3112D01*
X13513D01*
Y3116D01*
Y3120D01*
X13518D01*
Y3125D01*
X13522D01*
Y3129D01*
Y3133D01*
X13526D01*
Y3137D01*
X13530D01*
Y3141D01*
X13534D01*
Y3146D01*
Y3150D01*
X13539D01*
Y3154D01*
X13543D01*
Y3158D01*
Y3162D01*
X13547D01*
Y3167D01*
X13551D01*
Y3171D01*
X13555D01*
Y3175D01*
Y3179D01*
X13560D01*
Y3183D01*
X13564D01*
Y3188D01*
Y3192D01*
X13568D01*
Y3196D01*
X13572D01*
Y3200D01*
X13576D01*
Y3204D01*
Y3209D01*
X13581D01*
Y3213D01*
X13585D01*
Y3217D01*
Y3221D01*
X13589D01*
Y3225D01*
X13593D01*
Y3230D01*
Y3234D01*
X13597D01*
Y3238D01*
X13601D01*
Y3242D01*
X13606D01*
Y3246D01*
Y3251D01*
X13610D01*
Y3255D01*
X13614D01*
Y3259D01*
Y3263D01*
X13618D01*
Y3267D01*
X13622D01*
Y3271D01*
X13627D01*
Y3276D01*
Y3280D01*
X13631D01*
Y3284D01*
X13635D01*
Y3288D01*
Y3292D01*
X13639D01*
Y3297D01*
X13643D01*
Y3301D01*
X13648D01*
Y3305D01*
Y3309D01*
X13652D01*
Y3313D01*
X13656D01*
Y3318D01*
Y3322D01*
X13660D01*
Y3326D01*
X13664D01*
Y3330D01*
Y3334D01*
X13669D01*
Y3339D01*
X13673D01*
Y3343D01*
X13677D01*
Y3347D01*
Y3351D01*
X13681D01*
Y3355D01*
X13685D01*
Y3360D01*
X13690D01*
Y3364D01*
X13702D01*
Y3368D01*
X13723D01*
Y3364D01*
D02*
G37*
G36*
X9756Y4724D02*
X9819D01*
Y4720D01*
X9856D01*
Y4716D01*
X9886D01*
Y4712D01*
X9911D01*
Y4707D01*
X9936D01*
Y4703D01*
X9953D01*
Y4699D01*
X9974D01*
Y4695D01*
X9991D01*
Y4691D01*
X10007D01*
Y4686D01*
X10024D01*
Y4682D01*
X10037D01*
Y4678D01*
X10054D01*
Y4674D01*
X10066D01*
Y4670D01*
X10079D01*
Y4665D01*
X10091D01*
Y4661D01*
X10104D01*
Y4657D01*
X10117D01*
Y4653D01*
X10129D01*
Y4649D01*
X10138D01*
Y4644D01*
X10150D01*
Y4640D01*
X10159D01*
Y4636D01*
X10171D01*
Y4632D01*
X10180D01*
Y4628D01*
X10188D01*
Y4623D01*
X10201D01*
Y4619D01*
X10209D01*
Y4615D01*
X10217D01*
Y4611D01*
X10226D01*
Y4607D01*
X10234D01*
Y4602D01*
X10243D01*
Y4598D01*
X10251D01*
Y4594D01*
X10259D01*
Y4590D01*
X10268D01*
Y4586D01*
X10276D01*
Y4581D01*
X10280D01*
Y4577D01*
X10289D01*
Y4573D01*
X10297D01*
Y4569D01*
X10301D01*
Y4565D01*
X10310D01*
Y4560D01*
X10314D01*
Y4556D01*
X10322D01*
Y4552D01*
X10327D01*
Y4548D01*
X10335D01*
Y4544D01*
X10339D01*
Y4539D01*
X10343D01*
Y4535D01*
X10352D01*
Y4531D01*
X10356D01*
Y4527D01*
X10360D01*
Y4523D01*
X10369D01*
Y4518D01*
X10373D01*
Y4514D01*
X10377D01*
Y4510D01*
X10381D01*
Y4506D01*
X10390D01*
Y4502D01*
X10394D01*
Y4497D01*
X10398D01*
Y4493D01*
X10402D01*
Y4489D01*
X10406D01*
Y4485D01*
X10411D01*
Y4481D01*
X10415D01*
Y4476D01*
X10419D01*
Y4472D01*
X10423D01*
Y4468D01*
X10427D01*
Y4464D01*
X10432D01*
Y4460D01*
X10436D01*
Y4455D01*
X10440D01*
Y4451D01*
X10444D01*
Y4447D01*
X10448D01*
Y4443D01*
X10453D01*
Y4439D01*
X10457D01*
Y4435D01*
X10461D01*
Y4430D01*
X10465D01*
Y4426D01*
X10469D01*
Y4422D01*
X10474D01*
Y4418D01*
Y4414D01*
X10478D01*
Y4409D01*
X10482D01*
Y4405D01*
X10486D01*
Y4401D01*
X10490D01*
Y4397D01*
Y4393D01*
X10495D01*
Y4388D01*
X10499D01*
Y4384D01*
X10503D01*
Y4380D01*
Y4376D01*
X10507D01*
Y4372D01*
X10511D01*
Y4367D01*
X10516D01*
Y4363D01*
Y4359D01*
X10520D01*
Y4355D01*
X10524D01*
Y4351D01*
Y4346D01*
X10528D01*
Y4342D01*
Y4338D01*
X10532D01*
Y4334D01*
X10537D01*
Y4330D01*
Y4325D01*
X10541D01*
Y4321D01*
Y4317D01*
X10545D01*
Y4313D01*
X10549D01*
Y4309D01*
Y4304D01*
X10553D01*
Y4300D01*
Y4296D01*
X10558D01*
Y4292D01*
Y4288D01*
X10562D01*
Y4283D01*
Y4279D01*
Y4275D01*
X10566D01*
Y4271D01*
Y4267D01*
X10570D01*
Y4262D01*
Y4258D01*
X10574D01*
Y4254D01*
Y4250D01*
Y4246D01*
X10579D01*
Y4241D01*
Y4237D01*
X10583D01*
Y4233D01*
Y4229D01*
Y4225D01*
X10587D01*
Y4220D01*
Y4216D01*
Y4212D01*
X10591D01*
Y4208D01*
Y4204D01*
Y4199D01*
Y4195D01*
X10595D01*
Y4191D01*
Y4187D01*
Y4183D01*
X10599D01*
Y4178D01*
Y4174D01*
Y4170D01*
Y4166D01*
Y4162D01*
X10604D01*
Y4157D01*
Y4153D01*
Y4149D01*
Y4145D01*
Y4141D01*
X10608D01*
Y4136D01*
Y4132D01*
Y4128D01*
Y4124D01*
Y4120D01*
Y4115D01*
Y4111D01*
X10612D01*
Y4107D01*
Y4103D01*
Y4099D01*
Y4094D01*
Y4090D01*
Y4086D01*
Y4082D01*
Y4078D01*
Y4073D01*
Y4069D01*
Y4065D01*
Y4061D01*
Y4057D01*
Y4052D01*
Y4048D01*
X10616D01*
Y4044D01*
Y4040D01*
Y4036D01*
Y4031D01*
Y4027D01*
Y4023D01*
X10612D01*
Y4019D01*
Y4015D01*
Y4010D01*
Y4006D01*
Y4002D01*
Y3998D01*
Y3994D01*
Y3989D01*
Y3985D01*
Y3981D01*
X10608D01*
Y3977D01*
Y3973D01*
Y3968D01*
Y3964D01*
Y3960D01*
Y3956D01*
X10604D01*
Y3952D01*
Y3947D01*
Y3943D01*
Y3939D01*
X10599D01*
Y3935D01*
Y3931D01*
Y3926D01*
Y3922D01*
X10595D01*
Y3918D01*
Y3914D01*
Y3910D01*
Y3905D01*
X10591D01*
Y3901D01*
Y3897D01*
Y3893D01*
X10587D01*
Y3889D01*
Y3884D01*
Y3880D01*
X10583D01*
Y3876D01*
Y3872D01*
X10579D01*
Y3868D01*
Y3864D01*
Y3859D01*
X10574D01*
Y3855D01*
Y3851D01*
X10570D01*
Y3847D01*
Y3842D01*
X10566D01*
Y3838D01*
Y3834D01*
Y3830D01*
X10562D01*
Y3826D01*
Y3822D01*
X10558D01*
Y3817D01*
X10553D01*
Y3813D01*
Y3809D01*
X10549D01*
Y3805D01*
Y3801D01*
X10545D01*
Y3796D01*
Y3792D01*
X10541D01*
Y3788D01*
X10537D01*
Y3784D01*
Y3780D01*
X10532D01*
Y3775D01*
Y3771D01*
X10528D01*
Y3767D01*
X10524D01*
Y3763D01*
X10520D01*
Y3759D01*
Y3754D01*
X10516D01*
Y3750D01*
X10511D01*
Y3746D01*
Y3742D01*
X10507D01*
Y3738D01*
X10503D01*
Y3733D01*
X10499D01*
Y3729D01*
X10495D01*
Y3725D01*
Y3721D01*
X10490D01*
Y3717D01*
X10486D01*
Y3712D01*
X10482D01*
Y3708D01*
X10478D01*
Y3704D01*
X10474D01*
Y3700D01*
X10469D01*
Y3696D01*
X10465D01*
Y3691D01*
Y3687D01*
X10461D01*
Y3683D01*
X10457D01*
Y3679D01*
X10453D01*
Y3675D01*
X10448D01*
Y3670D01*
X10440D01*
Y3666D01*
X10436D01*
Y3662D01*
X10432D01*
Y3658D01*
X10427D01*
Y3654D01*
X10423D01*
Y3649D01*
X10419D01*
Y3645D01*
X10415D01*
Y3641D01*
X10411D01*
Y3637D01*
X10402D01*
Y3633D01*
X10398D01*
Y3628D01*
X10394D01*
Y3624D01*
X10390D01*
Y3620D01*
X10381D01*
Y3616D01*
X10377D01*
Y3612D01*
X10373D01*
Y3607D01*
X10364D01*
Y3603D01*
X10360D01*
Y3599D01*
X10352D01*
Y3595D01*
X10348D01*
Y3591D01*
X10339D01*
Y3586D01*
X10335D01*
Y3582D01*
X10327D01*
Y3578D01*
X10322D01*
Y3574D01*
X10314D01*
Y3570D01*
X10306D01*
Y3565D01*
X10301D01*
Y3561D01*
X10293D01*
Y3557D01*
X10285D01*
Y3553D01*
X10276D01*
Y3549D01*
X10268D01*
Y3544D01*
X10259D01*
Y3540D01*
X10251D01*
Y3536D01*
X10243D01*
Y3532D01*
X10234D01*
Y3528D01*
X10226D01*
Y3523D01*
X10217D01*
Y3519D01*
X10209D01*
Y3515D01*
X10196D01*
Y3511D01*
X10188D01*
Y3507D01*
X10180D01*
Y3502D01*
X10167D01*
Y3498D01*
X10154D01*
Y3494D01*
X10146D01*
Y3490D01*
X10133D01*
Y3486D01*
X10121D01*
Y3481D01*
X10108D01*
Y3477D01*
X10096D01*
Y3473D01*
X10083D01*
Y3469D01*
X10070D01*
Y3465D01*
X10054D01*
Y3460D01*
X10041D01*
Y3456D01*
X10024D01*
Y3452D01*
X10012D01*
Y3448D01*
X9995D01*
Y3444D01*
X9974D01*
Y3439D01*
X9957D01*
Y3435D01*
X9936D01*
Y3431D01*
X9915D01*
Y3427D01*
X9894D01*
Y3423D01*
X9865D01*
Y3418D01*
X9840D01*
Y3414D01*
X9814D01*
Y3410D01*
X9789D01*
Y3406D01*
X9768D01*
Y3402D01*
X9747D01*
Y3397D01*
X9730D01*
Y3393D01*
X9709D01*
Y3389D01*
X9693D01*
Y3385D01*
X9676D01*
Y3381D01*
X9659D01*
Y3376D01*
X9642D01*
Y3372D01*
X9630D01*
Y3368D01*
X9613D01*
Y3364D01*
X9600D01*
Y3360D01*
X9583D01*
Y3355D01*
X9571D01*
Y3351D01*
X9558D01*
Y3347D01*
X9546D01*
Y3343D01*
X9533D01*
Y3339D01*
X9520D01*
Y3334D01*
X9508D01*
Y3330D01*
X9499D01*
Y3326D01*
X9487D01*
Y3322D01*
X9474D01*
Y3318D01*
X9466D01*
Y3313D01*
X9453D01*
Y3309D01*
X9445D01*
Y3305D01*
X9436D01*
Y3301D01*
X9428D01*
Y3297D01*
X9416D01*
Y3292D01*
X9407D01*
Y3288D01*
X9399D01*
Y3284D01*
X9390D01*
Y3280D01*
X9382D01*
Y3276D01*
X9378D01*
Y3271D01*
X9369D01*
Y3267D01*
X9361D01*
Y3263D01*
X9353D01*
Y3259D01*
X9348D01*
Y3255D01*
X9340D01*
Y3251D01*
X9332D01*
Y3246D01*
X9327D01*
Y3242D01*
X9319D01*
Y3238D01*
X9315D01*
Y3234D01*
X9306D01*
Y3230D01*
X9302D01*
Y3225D01*
X9298D01*
Y3221D01*
X9290D01*
Y3217D01*
X9285D01*
Y3213D01*
X9281D01*
Y3209D01*
X9277D01*
Y3204D01*
X9273D01*
Y3200D01*
X9264D01*
Y3196D01*
X9260D01*
Y3192D01*
X9256D01*
Y3188D01*
X9252D01*
Y3183D01*
X9248D01*
Y3179D01*
X9243D01*
Y3175D01*
X9239D01*
Y3171D01*
Y3167D01*
X9235D01*
Y3162D01*
X9231D01*
Y3158D01*
X9227D01*
Y3154D01*
X9222D01*
Y3150D01*
Y3146D01*
X9218D01*
Y3141D01*
X9214D01*
Y3137D01*
Y3133D01*
X9210D01*
Y3129D01*
Y3125D01*
X9206D01*
Y3120D01*
Y3116D01*
X9201D01*
Y3112D01*
Y3108D01*
X9197D01*
Y3104D01*
Y3099D01*
X9193D01*
Y3095D01*
Y3091D01*
Y3087D01*
X9189D01*
Y3083D01*
Y3078D01*
Y3074D01*
X9185D01*
Y3070D01*
Y3066D01*
Y3062D01*
Y3057D01*
Y3053D01*
Y3049D01*
Y3045D01*
X9180D01*
Y3041D01*
Y3036D01*
Y3032D01*
Y3028D01*
Y3024D01*
Y3020D01*
Y3015D01*
X9185D01*
Y3011D01*
Y3007D01*
Y3003D01*
Y2999D01*
Y2994D01*
Y2990D01*
Y2986D01*
X9189D01*
Y2982D01*
Y2978D01*
Y2973D01*
Y2969D01*
X9193D01*
Y2965D01*
Y2961D01*
Y2957D01*
X9197D01*
Y2952D01*
Y2948D01*
X9201D01*
Y2944D01*
Y2940D01*
X9206D01*
Y2936D01*
Y2931D01*
X9210D01*
Y2927D01*
Y2923D01*
X9214D01*
Y2919D01*
Y2915D01*
X9218D01*
Y2910D01*
Y2906D01*
X9222D01*
Y2902D01*
X9227D01*
Y2898D01*
Y2894D01*
X9231D01*
Y2889D01*
X9235D01*
Y2885D01*
X9239D01*
Y2881D01*
Y2877D01*
X9243D01*
Y2873D01*
X9248D01*
Y2868D01*
X9252D01*
Y2864D01*
X9256D01*
Y2860D01*
X9260D01*
Y2856D01*
X9264D01*
Y2852D01*
X9269D01*
Y2847D01*
X9277D01*
Y2843D01*
X9281D01*
Y2839D01*
X9285D01*
Y2835D01*
X9290D01*
Y2831D01*
X9298D01*
Y2826D01*
X9302D01*
Y2822D01*
X9311D01*
Y2818D01*
X9319D01*
Y2814D01*
X9323D01*
Y2810D01*
X9332D01*
Y2805D01*
X9340D01*
Y2801D01*
X9348D01*
Y2797D01*
X9361D01*
Y2793D01*
X9369D01*
Y2789D01*
X9382D01*
Y2784D01*
X9395D01*
Y2780D01*
X9407D01*
Y2776D01*
X9420D01*
Y2772D01*
X9441D01*
Y2768D01*
X9457D01*
Y2763D01*
X9483D01*
Y2759D01*
X9516D01*
Y2755D01*
X9709D01*
Y2759D01*
X9743D01*
Y2763D01*
X9764D01*
Y2768D01*
X9785D01*
Y2772D01*
X9802D01*
Y2776D01*
X9814D01*
Y2780D01*
X9827D01*
Y2784D01*
X9840D01*
Y2789D01*
X9852D01*
Y2793D01*
X9861D01*
Y2797D01*
X9873D01*
Y2801D01*
X9882D01*
Y2805D01*
X9890D01*
Y2810D01*
X9898D01*
Y2814D01*
X9907D01*
Y2818D01*
X9915D01*
Y2822D01*
X9924D01*
Y2826D01*
X9932D01*
Y2831D01*
X9936D01*
Y2835D01*
X9945D01*
Y2839D01*
X9953D01*
Y2843D01*
X9957D01*
Y2847D01*
X9966D01*
Y2852D01*
X9970D01*
Y2856D01*
X9978D01*
Y2860D01*
X9982D01*
Y2864D01*
X9987D01*
Y2868D01*
X9995D01*
Y2873D01*
X9999D01*
Y2877D01*
X10003D01*
Y2881D01*
X10012D01*
Y2885D01*
X10016D01*
Y2889D01*
X10020D01*
Y2894D01*
X10024D01*
Y2898D01*
X10029D01*
Y2902D01*
X10033D01*
Y2906D01*
X10037D01*
Y2910D01*
X10041D01*
Y2915D01*
X10045D01*
Y2919D01*
X10049D01*
Y2923D01*
X10054D01*
Y2927D01*
X10058D01*
Y2931D01*
X10062D01*
Y2936D01*
X10066D01*
Y2940D01*
X10070D01*
Y2944D01*
X10075D01*
Y2948D01*
X10079D01*
Y2952D01*
X10083D01*
Y2957D01*
X10087D01*
Y2961D01*
Y2965D01*
X10091D01*
Y2969D01*
X10096D01*
Y2973D01*
X10100D01*
Y2978D01*
X10104D01*
Y2982D01*
Y2986D01*
X10108D01*
Y2990D01*
X10112D01*
Y2994D01*
Y2999D01*
X10117D01*
Y3003D01*
X10121D01*
Y3007D01*
X10125D01*
Y3011D01*
Y3015D01*
X10129D01*
Y3020D01*
Y3024D01*
X10133D01*
Y3028D01*
X10138D01*
Y3032D01*
Y3036D01*
X10142D01*
Y3041D01*
X10146D01*
Y3045D01*
Y3049D01*
X10150D01*
Y3053D01*
Y3057D01*
X10154D01*
Y3062D01*
Y3066D01*
X10159D01*
Y3070D01*
Y3074D01*
X10163D01*
Y3078D01*
Y3083D01*
X10167D01*
Y3087D01*
Y3091D01*
X10171D01*
Y3095D01*
Y3099D01*
X10175D01*
Y3104D01*
Y3108D01*
X10180D01*
Y3112D01*
Y3116D01*
X10184D01*
Y3120D01*
Y3125D01*
X10188D01*
Y3129D01*
Y3133D01*
Y3137D01*
X10192D01*
Y3141D01*
Y3146D01*
X10196D01*
Y3150D01*
Y3154D01*
Y3158D01*
X10201D01*
Y3162D01*
Y3167D01*
Y3171D01*
X10205D01*
Y3175D01*
Y3179D01*
Y3183D01*
X10209D01*
Y3188D01*
Y3192D01*
Y3196D01*
X10213D01*
Y3200D01*
X10217D01*
Y3204D01*
X10222D01*
Y3209D01*
X10234D01*
Y3213D01*
X10268D01*
Y3209D01*
X10289D01*
Y3204D01*
X10310D01*
Y3200D01*
X10331D01*
Y3196D01*
X10352D01*
Y3192D01*
X10373D01*
Y3188D01*
X10394D01*
Y3183D01*
X10419D01*
Y3179D01*
X10440D01*
Y3175D01*
X10461D01*
Y3171D01*
X10482D01*
Y3167D01*
X10503D01*
Y3162D01*
X10524D01*
Y3158D01*
X10549D01*
Y3154D01*
X10570D01*
Y3150D01*
X10591D01*
Y3146D01*
X10616D01*
Y3141D01*
X10629D01*
Y3137D01*
X10637D01*
Y3133D01*
X10646D01*
Y3129D01*
X10650D01*
Y3125D01*
X10654D01*
Y3120D01*
X10658D01*
Y3116D01*
Y3112D01*
X10662D01*
Y3108D01*
Y3104D01*
Y3099D01*
Y3095D01*
Y3091D01*
Y3087D01*
Y3083D01*
Y3078D01*
Y3074D01*
X10658D01*
Y3070D01*
Y3066D01*
Y3062D01*
Y3057D01*
X10654D01*
Y3053D01*
Y3049D01*
Y3045D01*
X10650D01*
Y3041D01*
Y3036D01*
Y3032D01*
Y3028D01*
X10646D01*
Y3024D01*
Y3020D01*
Y3015D01*
X10641D01*
Y3011D01*
Y3007D01*
Y3003D01*
X10637D01*
Y2999D01*
Y2994D01*
Y2990D01*
X10633D01*
Y2986D01*
Y2982D01*
X10629D01*
Y2978D01*
Y2973D01*
Y2969D01*
X10625D01*
Y2965D01*
Y2961D01*
Y2957D01*
X10620D01*
Y2952D01*
Y2948D01*
X10616D01*
Y2944D01*
Y2940D01*
Y2936D01*
X10612D01*
Y2931D01*
Y2927D01*
X10608D01*
Y2923D01*
Y2919D01*
Y2915D01*
X10604D01*
Y2910D01*
Y2906D01*
X10599D01*
Y2902D01*
Y2898D01*
X10595D01*
Y2894D01*
Y2889D01*
X10591D01*
Y2885D01*
Y2881D01*
X10587D01*
Y2877D01*
Y2873D01*
X10583D01*
Y2868D01*
Y2864D01*
X10579D01*
Y2860D01*
Y2856D01*
X10574D01*
Y2852D01*
Y2847D01*
X10570D01*
Y2843D01*
Y2839D01*
X10566D01*
Y2835D01*
Y2831D01*
X10562D01*
Y2826D01*
Y2822D01*
X10558D01*
Y2818D01*
Y2814D01*
X10553D01*
Y2810D01*
Y2805D01*
X10549D01*
Y2801D01*
X10545D01*
Y2797D01*
Y2793D01*
X10541D01*
Y2789D01*
Y2784D01*
X10537D01*
Y2780D01*
X10532D01*
Y2776D01*
Y2772D01*
X10528D01*
Y2768D01*
X10524D01*
Y2763D01*
Y2759D01*
X10520D01*
Y2755D01*
X10516D01*
Y2751D01*
Y2747D01*
X10511D01*
Y2742D01*
X10507D01*
Y2738D01*
Y2734D01*
X10503D01*
Y2730D01*
X10499D01*
Y2726D01*
Y2721D01*
X10495D01*
Y2717D01*
X10490D01*
Y2713D01*
X10486D01*
Y2709D01*
Y2705D01*
X10482D01*
Y2700D01*
X10478D01*
Y2696D01*
X10474D01*
Y2692D01*
Y2688D01*
X10469D01*
Y2684D01*
X10465D01*
Y2679D01*
X10461D01*
Y2675D01*
X10457D01*
Y2671D01*
Y2667D01*
X10453D01*
Y2663D01*
X10448D01*
Y2659D01*
X10444D01*
Y2654D01*
X10440D01*
Y2650D01*
X10436D01*
Y2646D01*
X10432D01*
Y2642D01*
X10427D01*
Y2638D01*
X10423D01*
Y2633D01*
Y2629D01*
X10419D01*
Y2625D01*
X10415D01*
Y2621D01*
X10411D01*
Y2617D01*
X10406D01*
Y2612D01*
X10402D01*
Y2608D01*
X10398D01*
Y2604D01*
X10394D01*
Y2600D01*
X10385D01*
Y2596D01*
X10381D01*
Y2591D01*
X10377D01*
Y2587D01*
X10373D01*
Y2583D01*
X10369D01*
Y2579D01*
X10364D01*
Y2575D01*
X10360D01*
Y2570D01*
X10356D01*
Y2566D01*
X10348D01*
Y2562D01*
X10343D01*
Y2558D01*
X10339D01*
Y2554D01*
X10335D01*
Y2549D01*
X10327D01*
Y2545D01*
X10322D01*
Y2541D01*
X10318D01*
Y2537D01*
X10310D01*
Y2533D01*
X10306D01*
Y2528D01*
X10301D01*
Y2524D01*
X10293D01*
Y2520D01*
X10289D01*
Y2516D01*
X10280D01*
Y2512D01*
X10276D01*
Y2507D01*
X10268D01*
Y2503D01*
X10264D01*
Y2499D01*
X10255D01*
Y2495D01*
X10247D01*
Y2491D01*
X10243D01*
Y2486D01*
X10234D01*
Y2482D01*
X10226D01*
Y2478D01*
X10217D01*
Y2474D01*
X10209D01*
Y2470D01*
X10201D01*
Y2465D01*
X10192D01*
Y2461D01*
X10184D01*
Y2457D01*
X10175D01*
Y2453D01*
X10167D01*
Y2449D01*
X10154D01*
Y2444D01*
X10146D01*
Y2440D01*
X10138D01*
Y2436D01*
X10125D01*
Y2432D01*
X10112D01*
Y2428D01*
X10104D01*
Y2423D01*
X10091D01*
Y2419D01*
X10079D01*
Y2415D01*
X10066D01*
Y2411D01*
X10054D01*
Y2407D01*
X10041D01*
Y2402D01*
X10029D01*
Y2398D01*
X10012D01*
Y2394D01*
X9999D01*
Y2390D01*
X9982D01*
Y2386D01*
X9966D01*
Y2381D01*
X9953D01*
Y2377D01*
X9932D01*
Y2373D01*
X9915D01*
Y2369D01*
X9898D01*
Y2365D01*
X9877D01*
Y2360D01*
X9856D01*
Y2356D01*
X9831D01*
Y2352D01*
X9806D01*
Y2348D01*
X9777D01*
Y2344D01*
X9739D01*
Y2339D01*
X9693D01*
Y2335D01*
X9504D01*
Y2339D01*
X9457D01*
Y2344D01*
X9424D01*
Y2348D01*
X9399D01*
Y2352D01*
X9374D01*
Y2356D01*
X9353D01*
Y2360D01*
X9336D01*
Y2365D01*
X9315D01*
Y2369D01*
X9302D01*
Y2373D01*
X9285D01*
Y2377D01*
X9269D01*
Y2381D01*
X9256D01*
Y2386D01*
X9243D01*
Y2390D01*
X9231D01*
Y2394D01*
X9218D01*
Y2398D01*
X9206D01*
Y2402D01*
X9197D01*
Y2407D01*
X9185D01*
Y2411D01*
X9176D01*
Y2415D01*
X9164D01*
Y2419D01*
X9155D01*
Y2423D01*
X9143D01*
Y2428D01*
X9134D01*
Y2432D01*
X9126D01*
Y2436D01*
X9117D01*
Y2440D01*
X9109D01*
Y2444D01*
X9101D01*
Y2449D01*
X9092D01*
Y2453D01*
X9084D01*
Y2457D01*
X9075D01*
Y2461D01*
X9067D01*
Y2465D01*
X9063D01*
Y2470D01*
X9054D01*
Y2474D01*
X9046D01*
Y2478D01*
X9038D01*
Y2482D01*
X9033D01*
Y2486D01*
X9025D01*
Y2491D01*
X9021D01*
Y2495D01*
X9012D01*
Y2499D01*
X9008D01*
Y2503D01*
X9000D01*
Y2507D01*
X8991D01*
Y2512D01*
X8987D01*
Y2516D01*
X8983D01*
Y2520D01*
X8975D01*
Y2524D01*
X8970D01*
Y2528D01*
X8966D01*
Y2533D01*
X8958D01*
Y2537D01*
X8954D01*
Y2541D01*
X8949D01*
Y2545D01*
X8945D01*
Y2549D01*
X8937D01*
Y2554D01*
X8933D01*
Y2558D01*
X8928D01*
Y2562D01*
X8924D01*
Y2566D01*
X8920D01*
Y2570D01*
X8916D01*
Y2575D01*
X8912D01*
Y2579D01*
X8907D01*
Y2583D01*
X8903D01*
Y2587D01*
X8899D01*
Y2591D01*
X8895D01*
Y2596D01*
X8891D01*
Y2600D01*
X8886D01*
Y2604D01*
X8882D01*
Y2608D01*
X8878D01*
Y2612D01*
X8874D01*
Y2617D01*
X8870D01*
Y2621D01*
X8865D01*
Y2625D01*
X8861D01*
Y2629D01*
X8857D01*
Y2633D01*
X8853D01*
Y2638D01*
X8849D01*
Y2642D01*
X8844D01*
Y2646D01*
Y2650D01*
X8840D01*
Y2654D01*
X8836D01*
Y2659D01*
X8832D01*
Y2663D01*
X8828D01*
Y2667D01*
Y2671D01*
X8824D01*
Y2675D01*
X8819D01*
Y2679D01*
X8815D01*
Y2684D01*
Y2688D01*
X8811D01*
Y2692D01*
X8807D01*
Y2696D01*
X8803D01*
Y2700D01*
Y2705D01*
X8798D01*
Y2709D01*
X8794D01*
Y2713D01*
Y2717D01*
X8790D01*
Y2721D01*
X8786D01*
Y2726D01*
Y2730D01*
X8782D01*
Y2734D01*
Y2738D01*
X8777D01*
Y2742D01*
X8773D01*
Y2747D01*
Y2751D01*
X8769D01*
Y2755D01*
Y2759D01*
X8765D01*
Y2763D01*
Y2768D01*
X8761D01*
Y2772D01*
Y2776D01*
X8756D01*
Y2780D01*
Y2784D01*
X8752D01*
Y2789D01*
Y2793D01*
X8748D01*
Y2797D01*
Y2801D01*
X8744D01*
Y2805D01*
Y2810D01*
X8740D01*
Y2814D01*
Y2818D01*
X8735D01*
Y2822D01*
Y2826D01*
Y2831D01*
X8731D01*
Y2835D01*
Y2839D01*
X8727D01*
Y2843D01*
Y2847D01*
Y2852D01*
X8723D01*
Y2856D01*
Y2860D01*
Y2864D01*
X8719D01*
Y2868D01*
Y2873D01*
Y2877D01*
X8714D01*
Y2881D01*
Y2885D01*
Y2889D01*
Y2894D01*
X8710D01*
Y2898D01*
Y2902D01*
Y2906D01*
X8706D01*
Y2910D01*
Y2915D01*
Y2919D01*
Y2923D01*
Y2927D01*
X8702D01*
Y2931D01*
Y2936D01*
Y2940D01*
Y2944D01*
Y2948D01*
X8698D01*
Y2952D01*
Y2957D01*
Y2961D01*
Y2965D01*
Y2969D01*
Y2973D01*
X8693D01*
Y2978D01*
Y2982D01*
Y2986D01*
Y2990D01*
Y2994D01*
Y2999D01*
Y3003D01*
Y3007D01*
Y3011D01*
Y3015D01*
Y3020D01*
Y3024D01*
X8689D01*
Y3028D01*
Y3032D01*
Y3036D01*
Y3041D01*
Y3045D01*
Y3049D01*
Y3053D01*
Y3057D01*
Y3062D01*
Y3066D01*
Y3070D01*
X8693D01*
Y3074D01*
Y3078D01*
Y3083D01*
Y3087D01*
Y3091D01*
Y3095D01*
Y3099D01*
Y3104D01*
Y3108D01*
Y3112D01*
Y3116D01*
X8698D01*
Y3120D01*
Y3125D01*
Y3129D01*
Y3133D01*
Y3137D01*
Y3141D01*
X8702D01*
Y3146D01*
Y3150D01*
Y3154D01*
Y3158D01*
Y3162D01*
X8706D01*
Y3167D01*
Y3171D01*
Y3175D01*
Y3179D01*
X8710D01*
Y3183D01*
Y3188D01*
Y3192D01*
Y3196D01*
X8714D01*
Y3200D01*
Y3204D01*
Y3209D01*
Y3213D01*
X8719D01*
Y3217D01*
Y3221D01*
Y3225D01*
X8723D01*
Y3230D01*
Y3234D01*
Y3238D01*
X8727D01*
Y3242D01*
Y3246D01*
Y3251D01*
X8731D01*
Y3255D01*
Y3259D01*
X8735D01*
Y3263D01*
Y3267D01*
Y3271D01*
X8740D01*
Y3276D01*
Y3280D01*
X8744D01*
Y3284D01*
Y3288D01*
Y3292D01*
X8748D01*
Y3297D01*
Y3301D01*
X8752D01*
Y3305D01*
Y3309D01*
X8756D01*
Y3313D01*
Y3318D01*
X8761D01*
Y3322D01*
Y3326D01*
X8765D01*
Y3330D01*
Y3334D01*
X8769D01*
Y3339D01*
Y3343D01*
X8773D01*
Y3347D01*
X8777D01*
Y3351D01*
Y3355D01*
X8782D01*
Y3360D01*
Y3364D01*
X8786D01*
Y3368D01*
X8790D01*
Y3372D01*
Y3376D01*
X8794D01*
Y3381D01*
X8798D01*
Y3385D01*
Y3389D01*
X8803D01*
Y3393D01*
X8807D01*
Y3397D01*
Y3402D01*
X8811D01*
Y3406D01*
X8815D01*
Y3410D01*
Y3414D01*
X8819D01*
Y3418D01*
X8824D01*
Y3423D01*
X8828D01*
Y3427D01*
X8832D01*
Y3431D01*
Y3435D01*
X8836D01*
Y3439D01*
X8840D01*
Y3444D01*
X8844D01*
Y3448D01*
X8849D01*
Y3452D01*
X8853D01*
Y3456D01*
Y3460D01*
X8857D01*
Y3465D01*
X8861D01*
Y3469D01*
X8865D01*
Y3473D01*
X8870D01*
Y3477D01*
X8874D01*
Y3481D01*
X8878D01*
Y3486D01*
X8882D01*
Y3490D01*
X8886D01*
Y3494D01*
X8891D01*
Y3498D01*
X8895D01*
Y3502D01*
X8899D01*
Y3507D01*
X8903D01*
Y3511D01*
X8912D01*
Y3515D01*
X8916D01*
Y3519D01*
X8920D01*
Y3523D01*
X8924D01*
Y3528D01*
X8928D01*
Y3532D01*
X8933D01*
Y3536D01*
X8941D01*
Y3540D01*
X8945D01*
Y3544D01*
X8949D01*
Y3549D01*
X8958D01*
Y3553D01*
X8962D01*
Y3557D01*
X8966D01*
Y3561D01*
X8975D01*
Y3565D01*
X8979D01*
Y3570D01*
X8987D01*
Y3574D01*
X8991D01*
Y3578D01*
X9000D01*
Y3582D01*
X9004D01*
Y3586D01*
X9012D01*
Y3591D01*
X9017D01*
Y3595D01*
X9025D01*
Y3599D01*
X9033D01*
Y3603D01*
X9042D01*
Y3607D01*
X9046D01*
Y3612D01*
X9054D01*
Y3616D01*
X9063D01*
Y3620D01*
X9071D01*
Y3624D01*
X9080D01*
Y3628D01*
X9088D01*
Y3633D01*
X9096D01*
Y3637D01*
X9105D01*
Y3641D01*
X9113D01*
Y3645D01*
X9126D01*
Y3649D01*
X9134D01*
Y3654D01*
X9147D01*
Y3658D01*
X9155D01*
Y3662D01*
X9164D01*
Y3666D01*
X9172D01*
Y3670D01*
X9185D01*
Y3675D01*
X9193D01*
Y3679D01*
X9206D01*
Y3683D01*
X9218D01*
Y3687D01*
X9227D01*
Y3691D01*
X9239D01*
Y3696D01*
X9252D01*
Y3700D01*
X9264D01*
Y3704D01*
X9277D01*
Y3708D01*
X9294D01*
Y3712D01*
X9306D01*
Y3717D01*
X9319D01*
Y3721D01*
X9332D01*
Y3725D01*
X9348D01*
Y3729D01*
X9361D01*
Y3733D01*
X9378D01*
Y3738D01*
X9395D01*
Y3742D01*
X9407D01*
Y3746D01*
X9424D01*
Y3750D01*
X9441D01*
Y3754D01*
X9457D01*
Y3759D01*
X9474D01*
Y3763D01*
X9491D01*
Y3767D01*
X9508D01*
Y3771D01*
X9525D01*
Y3775D01*
X9546D01*
Y3780D01*
X9562D01*
Y3784D01*
X9583D01*
Y3788D01*
X9600D01*
Y3792D01*
X9621D01*
Y3796D01*
X9638D01*
Y3801D01*
X9663D01*
Y3805D01*
X9684D01*
Y3809D01*
X9705D01*
Y3813D01*
X9726D01*
Y3817D01*
X9743D01*
Y3822D01*
X9760D01*
Y3826D01*
X9777D01*
Y3830D01*
X9793D01*
Y3834D01*
X9806D01*
Y3838D01*
X9823D01*
Y3842D01*
X9835D01*
Y3847D01*
X9848D01*
Y3851D01*
X9861D01*
Y3855D01*
X9873D01*
Y3859D01*
X9886D01*
Y3864D01*
X9894D01*
Y3868D01*
X9907D01*
Y3872D01*
X9915D01*
Y3876D01*
X9928D01*
Y3880D01*
X9936D01*
Y3884D01*
X9945D01*
Y3889D01*
X9953D01*
Y3893D01*
X9961D01*
Y3897D01*
X9970D01*
Y3901D01*
X9978D01*
Y3905D01*
X9987D01*
Y3910D01*
X9995D01*
Y3914D01*
X9999D01*
Y3918D01*
X10007D01*
Y3922D01*
X10012D01*
Y3926D01*
X10020D01*
Y3931D01*
X10024D01*
Y3935D01*
X10033D01*
Y3939D01*
X10037D01*
Y3943D01*
X10041D01*
Y3947D01*
X10045D01*
Y3952D01*
X10049D01*
Y3956D01*
X10054D01*
Y3960D01*
X10058D01*
Y3964D01*
X10062D01*
Y3968D01*
X10066D01*
Y3973D01*
X10070D01*
Y3977D01*
X10075D01*
Y3981D01*
X10079D01*
Y3985D01*
Y3989D01*
X10083D01*
Y3994D01*
Y3998D01*
X10087D01*
Y4002D01*
Y4006D01*
X10091D01*
Y4010D01*
Y4015D01*
X10096D01*
Y4019D01*
Y4023D01*
Y4027D01*
X10100D01*
Y4031D01*
Y4036D01*
Y4040D01*
Y4044D01*
Y4048D01*
Y4052D01*
Y4057D01*
Y4061D01*
Y4065D01*
Y4069D01*
Y4073D01*
Y4078D01*
Y4082D01*
Y4086D01*
Y4090D01*
Y4094D01*
Y4099D01*
Y4103D01*
Y4107D01*
Y4111D01*
X10096D01*
Y4115D01*
Y4120D01*
Y4124D01*
Y4128D01*
X10091D01*
Y4132D01*
Y4136D01*
X10087D01*
Y4141D01*
Y4145D01*
Y4149D01*
X10083D01*
Y4153D01*
Y4157D01*
X10079D01*
Y4162D01*
X10075D01*
Y4166D01*
Y4170D01*
X10070D01*
Y4174D01*
Y4178D01*
X10066D01*
Y4183D01*
X10062D01*
Y4187D01*
X10058D01*
Y4191D01*
Y4195D01*
X10054D01*
Y4199D01*
X10049D01*
Y4204D01*
X10045D01*
Y4208D01*
X10041D01*
Y4212D01*
X10037D01*
Y4216D01*
X10029D01*
Y4220D01*
X10024D01*
Y4225D01*
X10020D01*
Y4229D01*
X10016D01*
Y4233D01*
X10007D01*
Y4237D01*
X10003D01*
Y4241D01*
X9995D01*
Y4246D01*
X9987D01*
Y4250D01*
X9978D01*
Y4254D01*
X9974D01*
Y4258D01*
X9961D01*
Y4262D01*
X9953D01*
Y4267D01*
X9945D01*
Y4271D01*
X9932D01*
Y4275D01*
X9924D01*
Y4279D01*
X9911D01*
Y4283D01*
X9894D01*
Y4288D01*
X9877D01*
Y4292D01*
X9861D01*
Y4296D01*
X9840D01*
Y4300D01*
X9814D01*
Y4304D01*
X9781D01*
Y4309D01*
X9735D01*
Y4313D01*
X9609D01*
Y4309D01*
X9567D01*
Y4304D01*
X9537D01*
Y4300D01*
X9516D01*
Y4296D01*
X9499D01*
Y4292D01*
X9483D01*
Y4288D01*
X9466D01*
Y4283D01*
X9453D01*
Y4279D01*
X9441D01*
Y4275D01*
X9428D01*
Y4271D01*
X9420D01*
Y4267D01*
X9407D01*
Y4262D01*
X9399D01*
Y4258D01*
X9390D01*
Y4254D01*
X9382D01*
Y4250D01*
X9374D01*
Y4246D01*
X9365D01*
Y4241D01*
X9357D01*
Y4237D01*
X9348D01*
Y4233D01*
X9344D01*
Y4229D01*
X9336D01*
Y4225D01*
X9327D01*
Y4220D01*
X9323D01*
Y4216D01*
X9315D01*
Y4212D01*
X9311D01*
Y4208D01*
X9306D01*
Y4204D01*
X9298D01*
Y4199D01*
X9294D01*
Y4195D01*
X9290D01*
Y4191D01*
X9281D01*
Y4187D01*
X9277D01*
Y4183D01*
X9273D01*
Y4178D01*
X9269D01*
Y4174D01*
X9264D01*
Y4170D01*
X9260D01*
Y4166D01*
X9256D01*
Y4162D01*
X9252D01*
Y4157D01*
X9248D01*
Y4153D01*
X9243D01*
Y4149D01*
X9239D01*
Y4145D01*
X9235D01*
Y4141D01*
X9231D01*
Y4136D01*
X9227D01*
Y4132D01*
X9222D01*
Y4128D01*
X9218D01*
Y4124D01*
Y4120D01*
X9214D01*
Y4115D01*
X9210D01*
Y4111D01*
X9206D01*
Y4107D01*
X9201D01*
Y4103D01*
Y4099D01*
X9197D01*
Y4094D01*
X9193D01*
Y4090D01*
Y4086D01*
X9189D01*
Y4082D01*
X9185D01*
Y4078D01*
Y4073D01*
X9180D01*
Y4069D01*
X9176D01*
Y4065D01*
Y4061D01*
X9172D01*
Y4057D01*
Y4052D01*
X9168D01*
Y4048D01*
Y4044D01*
X9164D01*
Y4040D01*
X9159D01*
Y4036D01*
Y4031D01*
X9155D01*
Y4027D01*
Y4023D01*
X9151D01*
Y4019D01*
X9147D01*
Y4015D01*
Y4010D01*
X9143D01*
Y4006D01*
X9138D01*
Y4002D01*
X9134D01*
Y3998D01*
X9126D01*
Y3994D01*
X9122D01*
Y3989D01*
X9113D01*
Y3985D01*
X9096D01*
Y3981D01*
X9075D01*
Y3985D01*
X9054D01*
Y3989D01*
X9029D01*
Y3994D01*
X9008D01*
Y3998D01*
X8987D01*
Y4002D01*
X8962D01*
Y4006D01*
X8941D01*
Y4010D01*
X8916D01*
Y4015D01*
X8895D01*
Y4019D01*
X8870D01*
Y4023D01*
X8849D01*
Y4027D01*
X8824D01*
Y4031D01*
X8803D01*
Y4036D01*
X8782D01*
Y4040D01*
X8761D01*
Y4044D01*
X8752D01*
Y4048D01*
X8748D01*
Y4052D01*
X8744D01*
Y4057D01*
X8740D01*
Y4061D01*
Y4065D01*
Y4069D01*
X8735D01*
Y4073D01*
Y4078D01*
Y4082D01*
Y4086D01*
Y4090D01*
Y4094D01*
Y4099D01*
Y4103D01*
Y4107D01*
Y4111D01*
Y4115D01*
Y4120D01*
X8740D01*
Y4124D01*
Y4128D01*
Y4132D01*
Y4136D01*
X8744D01*
Y4141D01*
Y4145D01*
Y4149D01*
X8748D01*
Y4153D01*
Y4157D01*
Y4162D01*
Y4166D01*
X8752D01*
Y4170D01*
Y4174D01*
Y4178D01*
X8756D01*
Y4183D01*
Y4187D01*
Y4191D01*
X8761D01*
Y4195D01*
Y4199D01*
Y4204D01*
X8765D01*
Y4208D01*
Y4212D01*
X8769D01*
Y4216D01*
Y4220D01*
Y4225D01*
X8773D01*
Y4229D01*
Y4233D01*
X8777D01*
Y4237D01*
Y4241D01*
Y4246D01*
X8782D01*
Y4250D01*
Y4254D01*
X8786D01*
Y4258D01*
Y4262D01*
X8790D01*
Y4267D01*
Y4271D01*
X8794D01*
Y4275D01*
Y4279D01*
X8798D01*
Y4283D01*
Y4288D01*
X8803D01*
Y4292D01*
Y4296D01*
X8807D01*
Y4300D01*
Y4304D01*
X8811D01*
Y4309D01*
X8815D01*
Y4313D01*
Y4317D01*
X8819D01*
Y4321D01*
Y4325D01*
X8824D01*
Y4330D01*
X8828D01*
Y4334D01*
Y4338D01*
X8832D01*
Y4342D01*
Y4346D01*
X8836D01*
Y4351D01*
X8840D01*
Y4355D01*
Y4359D01*
X8844D01*
Y4363D01*
X8849D01*
Y4367D01*
X8853D01*
Y4372D01*
Y4376D01*
X8857D01*
Y4380D01*
X8861D01*
Y4384D01*
Y4388D01*
X8865D01*
Y4393D01*
X8870D01*
Y4397D01*
X8874D01*
Y4401D01*
X8878D01*
Y4405D01*
Y4409D01*
X8882D01*
Y4414D01*
X8886D01*
Y4418D01*
X8891D01*
Y4422D01*
X8895D01*
Y4426D01*
X8899D01*
Y4430D01*
X8903D01*
Y4435D01*
X8907D01*
Y4439D01*
Y4443D01*
X8912D01*
Y4447D01*
X8916D01*
Y4451D01*
X8920D01*
Y4455D01*
X8924D01*
Y4460D01*
X8928D01*
Y4464D01*
X8933D01*
Y4468D01*
X8937D01*
Y4472D01*
X8941D01*
Y4476D01*
X8945D01*
Y4481D01*
X8954D01*
Y4485D01*
X8958D01*
Y4489D01*
X8962D01*
Y4493D01*
X8966D01*
Y4497D01*
X8970D01*
Y4502D01*
X8975D01*
Y4506D01*
X8979D01*
Y4510D01*
X8987D01*
Y4514D01*
X8991D01*
Y4518D01*
X8996D01*
Y4523D01*
X9000D01*
Y4527D01*
X9008D01*
Y4531D01*
X9012D01*
Y4535D01*
X9017D01*
Y4539D01*
X9025D01*
Y4544D01*
X9029D01*
Y4548D01*
X9033D01*
Y4552D01*
X9042D01*
Y4556D01*
X9046D01*
Y4560D01*
X9054D01*
Y4565D01*
X9059D01*
Y4569D01*
X9067D01*
Y4573D01*
X9075D01*
Y4577D01*
X9080D01*
Y4581D01*
X9088D01*
Y4586D01*
X9092D01*
Y4590D01*
X9101D01*
Y4594D01*
X9109D01*
Y4598D01*
X9117D01*
Y4602D01*
X9126D01*
Y4607D01*
X9134D01*
Y4611D01*
X9147D01*
Y4615D01*
X9155D01*
Y4619D01*
X9164D01*
Y4623D01*
X9176D01*
Y4628D01*
X9185D01*
Y4632D01*
X9197D01*
Y4636D01*
X9210D01*
Y4640D01*
X9218D01*
Y4644D01*
X9231D01*
Y4649D01*
X9243D01*
Y4653D01*
X9256D01*
Y4657D01*
X9269D01*
Y4661D01*
X9281D01*
Y4665D01*
X9298D01*
Y4670D01*
X9311D01*
Y4674D01*
X9327D01*
Y4678D01*
X9340D01*
Y4682D01*
X9357D01*
Y4686D01*
X9374D01*
Y4691D01*
X9395D01*
Y4695D01*
X9411D01*
Y4699D01*
X9432D01*
Y4703D01*
X9453D01*
Y4707D01*
X9478D01*
Y4712D01*
X9508D01*
Y4716D01*
X9537D01*
Y4720D01*
X9579D01*
Y4724D01*
X9642D01*
Y4728D01*
X9756D01*
Y4724D01*
D02*
G37*
M02*
