G04*
G04 #@! TF.GenerationSoftware,Altium Limited,Altium Designer,19.0.15 (446)*
G04*
G04 Layer_Color=255*
%FSLAX24Y24*%
%MOIN*%
G70*
G01*
G75*
%ADD25R,0.0591X0.0591*%
%ADD50C,0.0512*%
%ADD51C,0.0591*%
%ADD52R,0.0591X0.0591*%
%ADD53C,0.0600*%
%ADD54O,0.0591X0.0669*%
%ADD55O,0.0512X0.0787*%
D25*
X16913Y11004D02*
D03*
X8857Y884D02*
D03*
D50*
X1050Y750D02*
D03*
X1075Y4073D02*
D03*
X989Y11250D02*
D03*
X5206Y10000D02*
D03*
X3939Y7050D02*
D03*
X989Y6035D02*
D03*
X3935Y932D02*
D03*
X5892Y8563D02*
D03*
X5189Y9100D02*
D03*
D51*
X11900Y11004D02*
D03*
X13913D02*
D03*
X14913D02*
D03*
X15913D02*
D03*
X12913D02*
D03*
X18681Y7517D02*
D03*
Y6517D02*
D03*
Y8517D02*
D03*
Y9517D02*
D03*
X19681Y6517D02*
D03*
X19677Y10530D02*
D03*
X19681Y9517D02*
D03*
Y8517D02*
D03*
Y7517D02*
D03*
X18681Y5517D02*
D03*
X19681Y2517D02*
D03*
Y3517D02*
D03*
Y4517D02*
D03*
X19677Y5530D02*
D03*
X19681Y1517D02*
D03*
X18681Y4517D02*
D03*
Y3517D02*
D03*
Y1517D02*
D03*
Y2517D02*
D03*
X1972Y7517D02*
D03*
Y6517D02*
D03*
Y8517D02*
D03*
Y9517D02*
D03*
X2972Y6517D02*
D03*
X2968Y10530D02*
D03*
X2972Y9517D02*
D03*
Y8517D02*
D03*
Y7517D02*
D03*
X1972Y5517D02*
D03*
X2972Y2517D02*
D03*
Y3517D02*
D03*
Y4517D02*
D03*
X2968Y5530D02*
D03*
X2972Y1517D02*
D03*
X1972Y4517D02*
D03*
Y3517D02*
D03*
Y1517D02*
D03*
Y2517D02*
D03*
X15114Y5632D02*
D03*
Y7554D02*
D03*
X11857Y884D02*
D03*
X10857D02*
D03*
X9857Y884D02*
D03*
X12857Y884D02*
D03*
D52*
X18681Y10517D02*
D03*
X1972D02*
D03*
D53*
X15950Y1950D02*
D03*
Y950D02*
D03*
X16950Y1950D02*
D03*
X14950D02*
D03*
D54*
X7427Y497D02*
D03*
X4573D02*
D03*
D55*
X6955Y1518D02*
D03*
X5045D02*
D03*
M02*
