G04*
G04 #@! TF.GenerationSoftware,Altium Limited,Altium Designer,19.0.15 (446)*
G04*
G04 Layer_Physical_Order=1*
G04 Layer_Color=255*
%FSLAX24Y24*%
%MOIN*%
G70*
G01*
G75*
%ADD11C,0.0100*%
%ADD13C,0.0118*%
%ADD15C,0.0394*%
%ADD16R,0.0394X0.0354*%
%ADD17R,0.0098X0.0472*%
%ADD18R,0.0472X0.0098*%
%ADD19R,0.0472X0.0098*%
%ADD20R,0.0098X0.0472*%
%ADD21R,0.0512X0.0354*%
%ADD22R,0.0354X0.0394*%
%ADD23R,0.0472X0.0709*%
%ADD24R,0.0709X0.0472*%
%ADD25R,0.0591X0.0591*%
%ADD26R,0.0157X0.0630*%
%ADD27R,0.0276X0.0394*%
%ADD47C,0.0080*%
%ADD48C,0.0157*%
%ADD49C,0.0197*%
%ADD50C,0.0512*%
%ADD51C,0.0591*%
%ADD52R,0.0591X0.0591*%
%ADD53C,0.0600*%
%ADD54O,0.0591X0.0669*%
%ADD55O,0.0512X0.0787*%
%ADD56C,0.0236*%
G36*
X1245Y11210D02*
X1249Y11143D01*
X1254Y11113D01*
X1259Y11086D01*
X1265Y11062D01*
X1273Y11040D01*
X1282Y11021D01*
X1293Y11005D01*
X1305Y10991D01*
X1248Y10934D01*
X1234Y10946D01*
X1218Y10957D01*
X1199Y10966D01*
X1177Y10974D01*
X1153Y10980D01*
X1126Y10985D01*
X1096Y10990D01*
X1029Y10994D01*
X992Y10994D01*
X1245Y11247D01*
X1245Y11210D01*
D02*
G37*
G36*
X16732Y10710D02*
X16725Y10714D01*
X16718Y10717D01*
X16710D01*
X16700Y10714D01*
X16689Y10710D01*
X16677Y10703D01*
X16664Y10694D01*
X16650Y10683D01*
X16619Y10653D01*
X16562Y10710D01*
X16578Y10726D01*
X16603Y10756D01*
X16612Y10769D01*
X16619Y10781D01*
X16623Y10791D01*
X16625Y10801D01*
Y10809D01*
X16623Y10817D01*
X16619Y10823D01*
X16732Y10710D01*
D02*
G37*
G36*
X1680Y10448D02*
X1679Y10459D01*
X1677Y10470D01*
X1674Y10481D01*
X1670Y10492D01*
X1665Y10503D01*
X1659Y10515D01*
X1651Y10526D01*
X1643Y10538D01*
X1633Y10549D01*
X1622Y10561D01*
Y10674D01*
X1633Y10663D01*
X1643Y10655D01*
X1651Y10650D01*
X1659Y10646D01*
X1665Y10645D01*
X1670Y10646D01*
X1674Y10650D01*
X1677Y10655D01*
X1679Y10663D01*
X1680Y10674D01*
Y10448D01*
D02*
G37*
G36*
X15910Y10709D02*
X15865Y10708D01*
X15785Y10704D01*
X15749Y10699D01*
X15718Y10694D01*
X15689Y10686D01*
X15664Y10678D01*
X15642Y10668D01*
X15624Y10656D01*
X15609Y10644D01*
X15552Y10700D01*
X15565Y10715D01*
X15576Y10734D01*
X15586Y10756D01*
X15595Y10781D01*
X15602Y10809D01*
X15608Y10841D01*
X15612Y10876D01*
X15617Y10956D01*
X15617Y11001D01*
X15910Y10709D01*
D02*
G37*
G36*
X14910D02*
X14865Y10708D01*
X14785Y10704D01*
X14749Y10699D01*
X14718Y10694D01*
X14689Y10686D01*
X14664Y10678D01*
X14642Y10668D01*
X14624Y10656D01*
X14609Y10644D01*
X14552Y10700D01*
X14565Y10715D01*
X14576Y10734D01*
X14586Y10756D01*
X14595Y10781D01*
X14602Y10809D01*
X14608Y10841D01*
X14612Y10876D01*
X14617Y10956D01*
X14617Y11001D01*
X14910Y10709D01*
D02*
G37*
G36*
X13910D02*
X13865Y10708D01*
X13785Y10704D01*
X13749Y10699D01*
X13718Y10694D01*
X13689Y10686D01*
X13664Y10678D01*
X13642Y10668D01*
X13624Y10656D01*
X13609Y10644D01*
X13552Y10700D01*
X13565Y10715D01*
X13576Y10734D01*
X13586Y10756D01*
X13595Y10781D01*
X13602Y10809D01*
X13608Y10841D01*
X13612Y10876D01*
X13617Y10956D01*
X13617Y11001D01*
X13910Y10709D01*
D02*
G37*
G36*
X5024Y9821D02*
X4997Y9847D01*
X4946Y9892D01*
X4922Y9910D01*
X4900Y9925D01*
X4878Y9938D01*
X4857Y9947D01*
X4837Y9954D01*
X4818Y9959D01*
X4800Y9960D01*
Y10040D01*
X4818Y10041D01*
X4837Y10046D01*
X4857Y10053D01*
X4878Y10062D01*
X4900Y10075D01*
X4922Y10090D01*
X4946Y10108D01*
X4997Y10153D01*
X5024Y10179D01*
Y9821D01*
D02*
G37*
G36*
X2333Y9821D02*
X2320Y9806D01*
X2309Y9788D01*
X2299Y9766D01*
X2290Y9741D01*
X2283Y9712D01*
X2277Y9680D01*
X2273Y9645D01*
X2268Y9565D01*
X2268Y9520D01*
X1975Y9813D01*
X2020Y9813D01*
X2101Y9817D01*
X2136Y9822D01*
X2167Y9828D01*
X2196Y9835D01*
X2221Y9844D01*
X2243Y9854D01*
X2261Y9865D01*
X2276Y9878D01*
X2333Y9821D01*
D02*
G37*
G36*
X9056Y9182D02*
X9054Y9193D01*
X9051Y9203D01*
X9045Y9212D01*
X9036Y9220D01*
X9026Y9226D01*
X9013Y9232D01*
X8997Y9236D01*
X8979Y9239D01*
X8959Y9240D01*
X8936Y9241D01*
Y9359D01*
X8959Y9360D01*
X8979Y9361D01*
X8997Y9364D01*
X9013Y9369D01*
X9026Y9374D01*
X9036Y9380D01*
X9045Y9388D01*
X9051Y9397D01*
X9054Y9407D01*
X9056Y9418D01*
Y9182D01*
D02*
G37*
G36*
X8696Y9407D02*
X8699Y9397D01*
X8705Y9388D01*
X8713Y9380D01*
X8724Y9374D01*
X8737Y9369D01*
X8752Y9364D01*
X8770Y9361D01*
X8790Y9360D01*
X8813Y9359D01*
Y9241D01*
X8790Y9240D01*
X8770Y9239D01*
X8752Y9236D01*
X8737Y9232D01*
X8724Y9226D01*
X8713Y9220D01*
X8705Y9212D01*
X8699Y9203D01*
X8696Y9193D01*
X8694Y9182D01*
Y9418D01*
X8696Y9407D01*
D02*
G37*
G36*
X13052Y9156D02*
X13053Y9155D01*
X13056Y9154D01*
X13059Y9154D01*
X13068Y9153D01*
X13096Y9153D01*
Y9073D01*
X13053Y9074D01*
X13052Y9156D01*
X13052Y9156D01*
D02*
G37*
G36*
X9439Y9282D02*
X9436Y9271D01*
Y9258D01*
X9439Y9244D01*
X9446Y9228D01*
X9456Y9211D01*
X9469Y9192D01*
X9486Y9171D01*
X9529Y9124D01*
X9446Y9041D01*
X9421Y9064D01*
X9378Y9101D01*
X9359Y9114D01*
X9347Y9121D01*
X9347Y9120D01*
X9338Y9115D01*
X9330Y9106D01*
X9324Y9095D01*
X9319Y9082D01*
X9314Y9067D01*
X9311Y9049D01*
X9310Y9029D01*
X9309Y9006D01*
X9191D01*
X9190Y9029D01*
X9189Y9049D01*
X9186Y9067D01*
X9182Y9082D01*
X9176Y9095D01*
X9170Y9106D01*
X9162Y9115D01*
X9153Y9120D01*
X9143Y9124D01*
X9132Y9125D01*
X9280D01*
X9446Y9291D01*
X9439Y9282D01*
D02*
G37*
G36*
X7822Y9119D02*
X7816Y9117D01*
X7810Y9113D01*
X7804Y9107D01*
X7800Y9100D01*
X7796Y9091D01*
X7794Y9080D01*
X7792Y9068D01*
X7790Y9054D01*
X7790Y9039D01*
X7710D01*
X7710Y9054D01*
X7708Y9068D01*
X7706Y9080D01*
X7704Y9091D01*
X7700Y9100D01*
X7696Y9107D01*
X7690Y9113D01*
X7684Y9117D01*
X7678Y9119D01*
X7670Y9120D01*
X7830D01*
X7822Y9119D01*
D02*
G37*
G36*
X5423Y9211D02*
X5442Y9186D01*
X5462Y9163D01*
X5481Y9144D01*
X5501Y9127D01*
X5520Y9114D01*
X5540Y9104D01*
X5559Y9096D01*
X5579Y9092D01*
X5598Y9090D01*
X5582Y9010D01*
X5567Y9009D01*
X5549Y9005D01*
X5530Y8999D01*
X5508Y8991D01*
X5484Y8980D01*
X5430Y8951D01*
X5368Y8912D01*
X5333Y8889D01*
X5189Y9030D01*
X5045Y8889D01*
X5010Y8912D01*
X4948Y8951D01*
X4894Y8980D01*
X4870Y8991D01*
X4848Y8999D01*
X4829Y9005D01*
X4811Y9009D01*
X4796Y9010D01*
X4780Y9090D01*
X4799Y9092D01*
X4819Y9096D01*
X4838Y9104D01*
X4858Y9114D01*
X4877Y9127D01*
X4897Y9144D01*
X4916Y9163D01*
X4936Y9186D01*
X4955Y9211D01*
X4975Y9240D01*
X5189Y9030D01*
X5403Y9240D01*
X5423Y9211D01*
D02*
G37*
G36*
X10041Y9124D02*
X10032Y9121D01*
X10024Y9116D01*
X10018Y9109D01*
X10013Y9100D01*
X10008Y9089D01*
X10005Y9076D01*
X10002Y9060D01*
X10000Y9043D01*
X10000Y9024D01*
X9900D01*
X9900Y9043D01*
X9898Y9060D01*
X9895Y9076D01*
X9892Y9089D01*
X9887Y9100D01*
X9882Y9109D01*
X9876Y9116D01*
X9868Y9121D01*
X9859Y9124D01*
X9850Y9125D01*
X10050D01*
X10041Y9124D01*
D02*
G37*
G36*
X9645Y9008D02*
X9671Y8987D01*
X9678Y8982D01*
X9686Y8977D01*
X9693Y8973D01*
X9700Y8970D01*
X9707Y8969D01*
X9713Y8967D01*
X9583Y8865D01*
X9583Y8872D01*
X9583Y8879D01*
X9581Y8887D01*
X9578Y8894D01*
X9575Y8902D01*
X9570Y8910D01*
X9564Y8919D01*
X9557Y8927D01*
X9550Y8936D01*
X9541Y8945D01*
X9636Y9017D01*
X9645Y9008D01*
D02*
G37*
G36*
X13399Y8867D02*
X13429Y8841D01*
X13442Y8832D01*
X13454Y8825D01*
X13465Y8821D01*
X13474Y8818D01*
X13483Y8818D01*
X13490Y8820D01*
X13496Y8825D01*
X13384Y8713D01*
X13389Y8719D01*
X13391Y8726D01*
X13391Y8735D01*
X13388Y8744D01*
X13384Y8755D01*
X13377Y8767D01*
X13367Y8780D01*
X13356Y8794D01*
X13326Y8826D01*
X13383Y8883D01*
X13399Y8867D01*
D02*
G37*
G36*
X9791Y8773D02*
X9788Y8767D01*
X9785Y8761D01*
X9783Y8753D01*
X9781Y8744D01*
X9779Y8735D01*
X9777Y8714D01*
X9776Y8702D01*
X9776Y8689D01*
X9658Y8669D01*
X9658Y8681D01*
X9656Y8704D01*
X9654Y8714D01*
X9651Y8723D01*
X9648Y8731D01*
X9644Y8738D01*
X9640Y8745D01*
X9636Y8750D01*
X9630Y8755D01*
X9794Y8778D01*
X9791Y8773D01*
D02*
G37*
G36*
X11966Y8435D02*
X11957Y8443D01*
X11948Y8450D01*
X11939Y8456D01*
X11930Y8462D01*
X11920Y8467D01*
X11910Y8470D01*
X11900Y8473D01*
X11890Y8476D01*
X11879Y8477D01*
X11868Y8477D01*
Y8557D01*
X11879Y8558D01*
X11890Y8559D01*
X11900Y8561D01*
X11910Y8564D01*
X11920Y8568D01*
X11930Y8573D01*
X11939Y8578D01*
X11948Y8585D01*
X11957Y8592D01*
X11966Y8600D01*
Y8435D01*
D02*
G37*
G36*
X13770Y8581D02*
X13767Y8574D01*
Y8565D01*
X13770Y8555D01*
X13774Y8545D01*
X13781Y8533D01*
X13790Y8520D01*
X13801Y8506D01*
X13831Y8474D01*
X13774Y8417D01*
X13758Y8433D01*
X13728Y8458D01*
X13715Y8467D01*
X13704Y8474D01*
X13693Y8479D01*
X13683Y8481D01*
X13675D01*
X13667Y8479D01*
X13661Y8474D01*
X13774Y8587D01*
X13770Y8581D01*
D02*
G37*
G36*
X13045Y8632D02*
X13042Y8621D01*
X13042Y8609D01*
X13045Y8595D01*
X13052Y8579D01*
X13062Y8561D01*
X13076Y8542D01*
X13093Y8521D01*
X13136Y8474D01*
X13053Y8391D01*
X13028Y8414D01*
X12985Y8451D01*
X12966Y8464D01*
X12948Y8475D01*
X12932Y8481D01*
X12918Y8485D01*
X12906Y8485D01*
X12895Y8482D01*
X12886Y8475D01*
X13052Y8641D01*
X13045Y8632D01*
D02*
G37*
G36*
X6111Y8702D02*
X6157Y8656D01*
X6180Y8638D01*
X6201Y8622D01*
X6223Y8609D01*
X6243Y8599D01*
X6263Y8592D01*
X6282Y8588D01*
X6301Y8586D01*
X6295Y8506D01*
X6278Y8505D01*
X6259Y8501D01*
X6240Y8494D01*
X6218Y8485D01*
X6196Y8473D01*
X6172Y8458D01*
X6120Y8420D01*
X6092Y8398D01*
X6063Y8372D01*
X5892Y8539D01*
X6086Y8730D01*
X6111Y8702D01*
D02*
G37*
G36*
X5892Y8539D02*
X5721Y8372D01*
X5692Y8398D01*
X5664Y8420D01*
X5612Y8458D01*
X5589Y8473D01*
X5566Y8485D01*
X5545Y8494D01*
X5525Y8501D01*
X5506Y8505D01*
X5489Y8506D01*
X5484Y8586D01*
X5502Y8588D01*
X5521Y8592D01*
X5541Y8599D01*
X5562Y8609D01*
X5583Y8622D01*
X5605Y8638D01*
X5627Y8656D01*
X5674Y8702D01*
X5698Y8730D01*
X5892Y8539D01*
D02*
G37*
G36*
X4708Y10619D02*
X13290D01*
X13309Y10573D01*
X12968Y10232D01*
X11810D01*
X11763Y10223D01*
X11723Y10196D01*
X10418Y8891D01*
X10392Y8852D01*
X10383Y8805D01*
Y8338D01*
X10244D01*
Y8639D01*
X10234Y8689D01*
X10205Y8732D01*
X10205Y8732D01*
X10082Y8855D01*
Y9043D01*
X10277D01*
Y9557D01*
X9723D01*
Y9118D01*
X9673Y9097D01*
X9567Y9204D01*
X9547Y9224D01*
X9534Y9240D01*
X9527Y9251D01*
Y9289D01*
X9527Y9291D01*
X9527Y9293D01*
Y9557D01*
X8973D01*
Y9443D01*
X8969Y9442D01*
X8962Y9442D01*
X8787D01*
X8780Y9442D01*
X8776Y9443D01*
Y9557D01*
X8222D01*
Y9043D01*
X8776D01*
Y9157D01*
X8780Y9158D01*
X8787Y9158D01*
X8962D01*
X8969Y9158D01*
X8973Y9157D01*
Y9043D01*
X9107D01*
X9108Y9039D01*
X9108Y9032D01*
Y7893D01*
X9119Y7839D01*
X9150Y7793D01*
X9219Y7724D01*
X9199Y7678D01*
X8794D01*
X7872Y8600D01*
Y9038D01*
X8027D01*
Y9552D01*
X7473D01*
Y9038D01*
X7628D01*
Y8549D01*
X7637Y8502D01*
X7664Y8463D01*
X8272Y7855D01*
X8249Y7806D01*
X8186Y7794D01*
X8120Y7750D01*
X8076Y7684D01*
X8072Y7661D01*
X8018Y7644D01*
X5575Y10086D01*
X5536Y10113D01*
X5522Y10116D01*
X5500Y10169D01*
X5446Y10240D01*
X5376Y10293D01*
X5294Y10327D01*
X5206Y10339D01*
X5119Y10327D01*
X5037Y10293D01*
X4967Y10240D01*
X4961Y10232D01*
X4941Y10212D01*
X4895Y10171D01*
X4875Y10156D01*
X4857Y10144D01*
X4840Y10135D01*
X4826Y10128D01*
X4815Y10124D01*
X4806Y10122D01*
X4474D01*
Y10453D01*
X4674Y10653D01*
X4708Y10619D01*
D02*
G37*
G36*
X11537Y8257D02*
X11441D01*
X11444Y8257D01*
X11447Y8260D01*
X11450Y8264D01*
X11452Y8269D01*
X11454Y8277D01*
X11455Y8285D01*
X11456Y8296D01*
X11458Y8321D01*
X11458Y8337D01*
X11538D01*
X11537Y8257D01*
D02*
G37*
G36*
X10742Y8321D02*
X10745Y8264D01*
X10747Y8260D01*
X10748Y8257D01*
X10749Y8257D01*
X10653D01*
X10655Y8257D01*
X10656Y8260D01*
X10658Y8264D01*
X10659Y8269D01*
X10659Y8277D01*
X10661Y8296D01*
X10661Y8337D01*
X10741D01*
X10742Y8321D01*
D02*
G37*
G36*
X11135Y8321D02*
X11139Y8264D01*
X11140Y8260D01*
X11142Y8257D01*
X11143Y8257D01*
X11047D01*
X11049Y8257D01*
X11050Y8260D01*
X11051Y8264D01*
X11052Y8269D01*
X11053Y8277D01*
X11054Y8296D01*
X11055Y8337D01*
X11135D01*
X11135Y8321D01*
D02*
G37*
G36*
X10939D02*
X10942Y8264D01*
X10944Y8260D01*
X10945Y8257D01*
X10947Y8257D01*
X10851D01*
X10852Y8257D01*
X10853Y8260D01*
X10855Y8264D01*
X10856Y8269D01*
X10857Y8277D01*
X10858Y8296D01*
X10859Y8337D01*
X10939D01*
X10939Y8321D01*
D02*
G37*
G36*
X10545D02*
X10549Y8264D01*
X10550Y8260D01*
X10551Y8257D01*
X10553Y8257D01*
X10457D01*
X10458Y8257D01*
X10460Y8260D01*
X10461Y8264D01*
X10462Y8269D01*
X10463Y8277D01*
X10464Y8296D01*
X10465Y8337D01*
X10545D01*
X10545Y8321D01*
D02*
G37*
G36*
X12229Y8201D02*
X12224Y8209D01*
X12218Y8215D01*
X12211Y8221D01*
X12203Y8226D01*
X12194Y8230D01*
X12184Y8233D01*
X12172Y8236D01*
X12160Y8238D01*
X12147Y8239D01*
X12132Y8239D01*
X12124Y8319D01*
X12139Y8320D01*
X12152Y8321D01*
X12164Y8323D01*
X12175Y8326D01*
X12184Y8330D01*
X12192Y8334D01*
X12199Y8340D01*
X12205Y8346D01*
X12210Y8353D01*
X12213Y8361D01*
X12229Y8201D01*
D02*
G37*
G36*
X4070Y7850D02*
X4063Y7842D01*
X4056Y7834D01*
X4050Y7825D01*
X4045Y7816D01*
X4041Y7806D01*
X4037Y7796D01*
X4035Y7785D01*
X4033Y7774D01*
X4032Y7763D01*
X4031Y7751D01*
X3915Y7868D01*
X3926Y7868D01*
X3938Y7869D01*
X3949Y7871D01*
X3959Y7874D01*
X3969Y7878D01*
X3979Y7882D01*
X3988Y7887D01*
X3997Y7893D01*
X4006Y7899D01*
X4014Y7907D01*
X4070Y7850D01*
D02*
G37*
G36*
X13410Y8105D02*
X13414Y8085D01*
X13420Y8067D01*
X13428Y8052D01*
X13439Y8039D01*
X13452Y8028D01*
X13467Y8020D01*
X13485Y8014D01*
X13505Y8010D01*
X13527Y8009D01*
X13376Y7908D01*
X13488Y7741D01*
X13481Y7749D01*
X13471Y7754D01*
X13459Y7754D01*
X13446Y7752D01*
X13430Y7745D01*
X13412Y7735D01*
X13392Y7721D01*
X13371Y7704D01*
X13321Y7657D01*
X13271Y7774D01*
X13293Y7797D01*
X13327Y7838D01*
X13340Y7857D01*
X13350Y7874D01*
X13357Y7890D01*
X13359Y7897D01*
X13350Y7891D01*
X13173Y8009D01*
X13195Y8010D01*
X13215Y8014D01*
X13233Y8020D01*
X13248Y8028D01*
X13261Y8039D01*
X13272Y8052D01*
X13280Y8067D01*
X13286Y8085D01*
X13290Y8105D01*
X13291Y8127D01*
X13409D01*
X13410Y8105D01*
D02*
G37*
G36*
X11928Y7786D02*
X11925Y7783D01*
X11922Y7779D01*
X11920Y7774D01*
X11918Y7767D01*
X11916Y7758D01*
X11915Y7747D01*
X11914Y7722D01*
X11914Y7707D01*
X11834D01*
X11835Y7787D01*
X11931D01*
X11928Y7786D01*
D02*
G37*
G36*
X13827Y7660D02*
X13828Y7610D01*
Y6806D01*
X13605Y6583D01*
X13587Y6595D01*
X13510Y6610D01*
X13433Y6595D01*
X13367Y6551D01*
X13323Y6486D01*
X13320Y6471D01*
X12888D01*
Y6478D01*
X12809D01*
X12807Y6478D01*
X12805Y6478D01*
X12800D01*
X12799Y6478D01*
X12799Y6478D01*
X12256D01*
Y6219D01*
X12256D01*
Y6022D01*
X12256D01*
Y5887D01*
X12256D01*
Y5690D01*
X12256D01*
Y5296D01*
X12256D01*
Y5266D01*
X12209Y5247D01*
X12172Y5284D01*
Y6477D01*
X12173Y6481D01*
X12174Y6484D01*
X12175Y6488D01*
X12177Y6491D01*
X12179Y6495D01*
X12182Y6499D01*
X12184Y6502D01*
X12193Y6507D01*
X12237Y6573D01*
X12256Y6613D01*
X12280Y6613D01*
X12515D01*
X12517Y6611D01*
X12572Y6600D01*
X12611Y6608D01*
X12900D01*
X12954Y6619D01*
X13000Y6650D01*
X13200Y6850D01*
X13231Y6896D01*
X13242Y6950D01*
Y7461D01*
X13402Y7621D01*
X13424Y7642D01*
X13442Y7656D01*
X13447Y7660D01*
X13485D01*
X13486Y7660D01*
X13488Y7660D01*
X13827D01*
D02*
G37*
G36*
X1684Y7865D02*
X1702Y7854D01*
X1724Y7844D01*
X1749Y7835D01*
X1778Y7828D01*
X1809Y7822D01*
X1844Y7817D01*
X1924Y7813D01*
X1969Y7813D01*
X1677Y7520D01*
X1677Y7565D01*
X1672Y7645D01*
X1668Y7680D01*
X1662Y7712D01*
X1655Y7741D01*
X1646Y7766D01*
X1636Y7788D01*
X1625Y7806D01*
X1612Y7821D01*
X1669Y7878D01*
X1684Y7865D01*
D02*
G37*
G36*
X10045Y7666D02*
X10066Y7656D01*
X10077Y7652D01*
X10087Y7648D01*
X10098Y7645D01*
X10108Y7643D01*
X10119Y7641D01*
X10129Y7640D01*
X10140Y7640D01*
X10161Y7560D01*
X10149Y7560D01*
X10139Y7558D01*
X10128Y7556D01*
X10119Y7552D01*
X10110Y7548D01*
X10101Y7543D01*
X10094Y7536D01*
X10086Y7529D01*
X10080Y7521D01*
X10074Y7512D01*
X10035Y7672D01*
X10045Y7666D01*
D02*
G37*
G36*
X16271Y7481D02*
X16270Y7488D01*
X16268Y7495D01*
X16264Y7501D01*
X16258Y7506D01*
X16251Y7511D01*
X16242Y7514D01*
X16232Y7517D01*
X16220Y7519D01*
X16206Y7520D01*
X16191Y7521D01*
Y7601D01*
X16206Y7601D01*
X16220Y7602D01*
X16232Y7604D01*
X16242Y7607D01*
X16251Y7611D01*
X16258Y7615D01*
X16264Y7620D01*
X16268Y7626D01*
X16270Y7633D01*
X16271Y7641D01*
Y7481D01*
D02*
G37*
G36*
X8380Y7584D02*
X8380Y7572D01*
X8381Y7562D01*
X8383Y7551D01*
X8386Y7541D01*
X8390Y7532D01*
X8395Y7522D01*
X8400Y7513D01*
X8407Y7505D01*
X8415Y7497D01*
X8352Y7446D01*
X8344Y7453D01*
X8336Y7460D01*
X8327Y7466D01*
X8318Y7471D01*
X8308Y7476D01*
X8298Y7480D01*
X8287Y7483D01*
X8276Y7486D01*
X8265Y7488D01*
X8253Y7490D01*
X8380Y7595D01*
X8380Y7584D01*
D02*
G37*
G36*
X3719Y7525D02*
X3728Y7517D01*
X3737Y7511D01*
X3746Y7505D01*
X3756Y7501D01*
X3766Y7497D01*
X3776Y7494D01*
X3786Y7492D01*
X3797Y7490D01*
X3808Y7490D01*
Y7410D01*
X3797Y7410D01*
X3786Y7408D01*
X3776Y7406D01*
X3766Y7403D01*
X3756Y7399D01*
X3746Y7395D01*
X3737Y7389D01*
X3728Y7383D01*
X3719Y7375D01*
X3711Y7367D01*
Y7533D01*
X3719Y7525D01*
D02*
G37*
G36*
X15353Y7734D02*
X15444Y7660D01*
X15471Y7642D01*
X15496Y7627D01*
X15520Y7615D01*
X15543Y7607D01*
X15564Y7602D01*
X15583Y7601D01*
X15585Y7521D01*
X15565Y7519D01*
X15544Y7514D01*
X15521Y7505D01*
X15498Y7494D01*
X15473Y7478D01*
X15447Y7460D01*
X15419Y7438D01*
X15361Y7384D01*
X15330Y7352D01*
X15320Y7765D01*
X15353Y7734D01*
D02*
G37*
G36*
X16874Y9999D02*
Y3318D01*
X16341Y2785D01*
X14006D01*
Y2857D01*
X13851D01*
Y3029D01*
X14006D01*
Y3543D01*
X13669D01*
X13664Y3546D01*
X13646Y3562D01*
X13472Y3735D01*
Y3934D01*
X13463Y3980D01*
X13436Y4020D01*
X12465Y4992D01*
X12484Y5038D01*
X12888D01*
Y5235D01*
X12888D01*
Y5629D01*
X12888D01*
Y5826D01*
X12888D01*
Y5830D01*
X14731D01*
X14734Y5822D01*
X14738Y5804D01*
X14742Y5784D01*
X14744Y5762D01*
X14744Y5736D01*
X14743Y5707D01*
X14740Y5675D01*
X14740Y5671D01*
X14740Y5667D01*
X14740Y5664D01*
X14736Y5632D01*
X14749Y5534D01*
X14787Y5443D01*
X14847Y5365D01*
X14925Y5305D01*
X15016Y5267D01*
X15114Y5254D01*
X15212Y5267D01*
X15304Y5305D01*
X15312Y5311D01*
X15344Y5329D01*
X15458Y5388D01*
X15514Y5413D01*
X15534Y5421D01*
X15550Y5426D01*
X15558Y5428D01*
X16192D01*
Y5293D01*
X16746D01*
Y5807D01*
X16192D01*
Y5672D01*
X15578D01*
X15575Y5672D01*
X15566Y5675D01*
X15555Y5679D01*
X15543Y5687D01*
X15529Y5697D01*
X15514Y5712D01*
X15498Y5730D01*
X15481Y5753D01*
X15464Y5780D01*
X15448Y5809D01*
X15442Y5822D01*
X15382Y5900D01*
X15304Y5960D01*
X15212Y5998D01*
X15114Y6011D01*
X15082Y6007D01*
X15080Y6007D01*
X15076Y6006D01*
X15072Y6007D01*
X15039Y6004D01*
X15011Y6003D01*
X14985Y6003D01*
X14962Y6005D01*
X14942Y6008D01*
X14925Y6013D01*
X14911Y6018D01*
X14899Y6024D01*
X14889Y6031D01*
X14888Y6032D01*
X14881Y6039D01*
X14877Y6041D01*
X14877Y6042D01*
X14875Y6042D01*
X14842Y6065D01*
X14795Y6074D01*
X13866D01*
X13847Y6121D01*
X14869Y7142D01*
X14870Y7143D01*
X14879Y7149D01*
X14892Y7155D01*
X14910Y7161D01*
X14933Y7166D01*
X14959Y7171D01*
X14989Y7174D01*
X15063Y7177D01*
X15100Y7177D01*
X15114Y7175D01*
X15212Y7188D01*
X15304Y7226D01*
X15382Y7286D01*
X15391Y7298D01*
X15418Y7326D01*
X15473Y7376D01*
X15496Y7395D01*
X15518Y7410D01*
X15537Y7422D01*
X15554Y7431D01*
X15568Y7436D01*
X15578Y7438D01*
X15579Y7438D01*
X16190D01*
Y7343D01*
X16743D01*
Y7857D01*
X16190D01*
Y7683D01*
X15577D01*
X15576Y7683D01*
X15566Y7685D01*
X15552Y7691D01*
X15534Y7699D01*
X15514Y7711D01*
X15492Y7725D01*
X15407Y7795D01*
X15388Y7813D01*
X15382Y7821D01*
X15304Y7881D01*
X15212Y7919D01*
X15114Y7932D01*
X15016Y7919D01*
X14925Y7881D01*
X14847Y7821D01*
X14787Y7743D01*
X14749Y7652D01*
X14736Y7554D01*
X14737Y7543D01*
X14737Y7514D01*
X14731Y7438D01*
X14727Y7408D01*
X14722Y7381D01*
X14716Y7358D01*
X14710Y7340D01*
X14703Y7326D01*
X14698Y7317D01*
X14697Y7316D01*
X14120Y6739D01*
X14089Y6749D01*
X14072Y6762D01*
Y8298D01*
X14063Y8345D01*
X14036Y8385D01*
X13875Y8546D01*
X13863Y8559D01*
X13855Y8569D01*
X13855Y8569D01*
Y8585D01*
X13856Y8587D01*
X13855Y8589D01*
Y8907D01*
X13478D01*
X13458Y8923D01*
X13183Y9199D01*
X13143Y9226D01*
X13134Y9228D01*
Y9478D01*
X15509D01*
X15555Y9487D01*
X15595Y9514D01*
X16477Y10396D01*
X16874Y9999D01*
D02*
G37*
G36*
X8793Y7285D02*
X8793Y7286D01*
X8790Y7288D01*
X8786Y7289D01*
X8781Y7290D01*
X8773Y7291D01*
X8754Y7292D01*
X8713Y7293D01*
Y7373D01*
X8729Y7373D01*
X8786Y7377D01*
X8790Y7378D01*
X8793Y7379D01*
X8793Y7381D01*
Y7285D01*
D02*
G37*
G36*
X5197Y7272D02*
X5189Y7280D01*
X5180Y7287D01*
X5171Y7294D01*
X5161Y7299D01*
X5152Y7304D01*
X5142Y7308D01*
X5132Y7311D01*
X5121Y7313D01*
X5110Y7314D01*
X5099Y7315D01*
Y7395D01*
X5110Y7395D01*
X5121Y7396D01*
X5132Y7398D01*
X5142Y7401D01*
X5152Y7405D01*
X5161Y7410D01*
X5171Y7415D01*
X5180Y7422D01*
X5189Y7429D01*
X5197Y7437D01*
Y7272D01*
D02*
G37*
G36*
X15107Y7258D02*
X15062Y7259D01*
X14982Y7255D01*
X14947Y7251D01*
X14916Y7246D01*
X14887Y7239D01*
X14862Y7231D01*
X14841Y7221D01*
X14822Y7209D01*
X14807Y7196D01*
X14751Y7254D01*
X14764Y7269D01*
X14775Y7287D01*
X14785Y7309D01*
X14794Y7334D01*
X14801Y7363D01*
X14808Y7394D01*
X14812Y7430D01*
X14818Y7510D01*
X14819Y7556D01*
X15107Y7258D01*
D02*
G37*
G36*
X9793Y7350D02*
X9835Y7392D01*
X9851Y7376D01*
X9868Y7362D01*
X9886Y7350D01*
X9903Y7339D01*
X9921Y7330D01*
X9939Y7322D01*
X9953Y7318D01*
X9968Y7322D01*
X9986Y7330D01*
X10004Y7339D01*
X10021Y7350D01*
X10039Y7362D01*
X10056Y7377D01*
X10073Y7393D01*
X10139Y7292D01*
X10055Y7208D01*
X10014Y7250D01*
Y7191D01*
X9994Y7190D01*
X9976Y7188D01*
X9957Y7183D01*
X9939Y7178D01*
X9921Y7170D01*
X9903Y7161D01*
X9890Y7153D01*
X9882Y7140D01*
X9873Y7122D01*
X9865Y7104D01*
X9859Y7086D01*
X9855Y7067D01*
X9854Y7054D01*
X9935Y7088D01*
X9920Y7071D01*
X9905Y7054D01*
X9893Y7035D01*
X9882Y7016D01*
X9873Y6996D01*
X9865Y6976D01*
X9859Y6955D01*
X9855Y6933D01*
X9853Y6910D01*
X9852Y6887D01*
X9734Y7029D01*
X9793D01*
X9835Y7047D01*
X9734Y7150D01*
X9793D01*
X9751Y7192D01*
X9762Y7203D01*
X9770Y7215D01*
X9776Y7227D01*
X9779Y7238D01*
X9780Y7250D01*
X9779Y7262D01*
X9776Y7273D01*
X9770Y7285D01*
X9767Y7288D01*
X9734Y7207D01*
X9733Y7231D01*
X9731Y7253D01*
X9726Y7275D01*
X9721Y7296D01*
X9713Y7317D01*
X9704Y7337D01*
X9693Y7356D01*
X9680Y7374D01*
X9666Y7392D01*
X9650Y7409D01*
X9793Y7350D01*
D02*
G37*
G36*
X8793Y7088D02*
X8793Y7089D01*
X8790Y7091D01*
X8786Y7092D01*
X8781Y7093D01*
X8773Y7094D01*
X8754Y7095D01*
X8713Y7096D01*
Y7176D01*
X8729Y7176D01*
X8786Y7180D01*
X8790Y7181D01*
X8793Y7182D01*
X8793Y7184D01*
Y7088D01*
D02*
G37*
G36*
X12337Y7088D02*
X12336Y7089D01*
X12333Y7091D01*
X12329Y7092D01*
X12324Y7093D01*
X12317Y7094D01*
X12297Y7095D01*
X12257Y7096D01*
Y7176D01*
X12272Y7176D01*
X12329Y7180D01*
X12333Y7181D01*
X12336Y7182D01*
X12337Y7184D01*
Y7088D01*
D02*
G37*
G36*
X6421Y7068D02*
X6417Y7069D01*
X6411Y7068D01*
X6406Y7067D01*
X6400Y7065D01*
X6394Y7062D01*
X6387Y7058D01*
X6380Y7054D01*
X6373Y7048D01*
X6358Y7034D01*
X6301Y7090D01*
X6309Y7098D01*
X6321Y7113D01*
X6326Y7120D01*
X6330Y7126D01*
X6333Y7132D01*
X6335Y7138D01*
X6336Y7144D01*
X6336Y7149D01*
X6335Y7154D01*
X6421Y7068D01*
D02*
G37*
G36*
X6870Y6936D02*
X6859Y6938D01*
X6849Y6939D01*
X6839Y6939D01*
X6829Y6938D01*
X6819Y6936D01*
X6810Y6933D01*
X6800Y6929D01*
X6792Y6923D01*
X6783Y6917D01*
X6775Y6909D01*
X6733Y6981D01*
X6741Y6989D01*
X6747Y6997D01*
X6754Y7005D01*
X6760Y7014D01*
X6765Y7024D01*
X6770Y7034D01*
X6774Y7044D01*
X6782Y7066D01*
X6785Y7078D01*
X6870Y6936D01*
D02*
G37*
G36*
X8793Y6891D02*
X8793Y6892D01*
X8790Y6894D01*
X8786Y6895D01*
X8781Y6896D01*
X8773Y6897D01*
X8754Y6898D01*
X8713Y6899D01*
Y6979D01*
X8729Y6979D01*
X8786Y6983D01*
X8790Y6984D01*
X8793Y6985D01*
X8793Y6987D01*
Y6891D01*
D02*
G37*
G36*
X12337Y6891D02*
X12336Y6893D01*
X12333Y6896D01*
X12329Y6898D01*
X12324Y6899D01*
X12317Y6901D01*
X12308Y6902D01*
X12285Y6904D01*
X12257Y6904D01*
Y6984D01*
X12337Y6987D01*
Y6891D01*
D02*
G37*
G36*
X3756Y6871D02*
X3729Y6897D01*
X3679Y6942D01*
X3655Y6960D01*
X3632Y6975D01*
X3610Y6988D01*
X3589Y6997D01*
X3570Y7004D01*
X3551Y7009D01*
X3533Y7010D01*
Y7090D01*
X3551Y7091D01*
X3570Y7096D01*
X3589Y7103D01*
X3610Y7112D01*
X3632Y7125D01*
X3655Y7140D01*
X3679Y7158D01*
X3729Y7203D01*
X3756Y7229D01*
Y6871D01*
D02*
G37*
G36*
X10561Y7015D02*
X10571Y7008D01*
X10581Y7003D01*
X10591Y6998D01*
X10601Y6994D01*
X10612Y6990D01*
X10622Y6988D01*
X10633Y6986D01*
X10643Y6985D01*
X10654Y6984D01*
X10665Y6904D01*
X10654Y6904D01*
X10643Y6903D01*
X10633Y6900D01*
X10623Y6897D01*
X10614Y6893D01*
X10605Y6888D01*
X10596Y6882D01*
X10588Y6875D01*
X10581Y6867D01*
X10573Y6858D01*
X10552Y7022D01*
X10561Y7015D01*
D02*
G37*
G36*
X2354Y6789D02*
X2342Y6776D01*
X2331Y6758D01*
X2321Y6737D01*
X2311Y6712D01*
X2302Y6683D01*
X2286Y6614D01*
X2279Y6574D01*
X2266Y6483D01*
X2013Y6810D01*
X2055Y6805D01*
X2131Y6801D01*
X2164Y6802D01*
X2195Y6806D01*
X2223Y6811D01*
X2247Y6819D01*
X2269Y6828D01*
X2288Y6840D01*
X2305Y6853D01*
X2354Y6789D01*
D02*
G37*
G36*
X8793Y6694D02*
X8793Y6696D01*
X8790Y6697D01*
X8786Y6698D01*
X8781Y6699D01*
X8773Y6700D01*
X8754Y6701D01*
X8713Y6702D01*
Y6782D01*
X8729Y6782D01*
X8786Y6786D01*
X8790Y6787D01*
X8793Y6789D01*
X8793Y6790D01*
Y6694D01*
D02*
G37*
G36*
X10090Y6771D02*
X10092Y6760D01*
X10094Y6750D01*
X10097Y6740D01*
X10101Y6730D01*
X10105Y6720D01*
X10111Y6711D01*
X10117Y6702D01*
X10125Y6693D01*
X10133Y6684D01*
X9967D01*
X9975Y6693D01*
X9983Y6702D01*
X9989Y6711D01*
X9995Y6720D01*
X9999Y6730D01*
X10003Y6740D01*
X10006Y6750D01*
X10008Y6760D01*
X10010Y6771D01*
X10010Y6782D01*
X10090D01*
X10090Y6771D01*
D02*
G37*
G36*
X5925Y6525D02*
X5924Y6533D01*
X5922Y6539D01*
X5918Y6545D01*
X5912Y6551D01*
X5905Y6555D01*
X5896Y6559D01*
X5885Y6561D01*
X5873Y6563D01*
X5859Y6565D01*
X5844Y6565D01*
Y6645D01*
X5859Y6645D01*
X5873Y6647D01*
X5885Y6649D01*
X5896Y6651D01*
X5905Y6655D01*
X5912Y6659D01*
X5918Y6665D01*
X5922Y6671D01*
X5924Y6677D01*
X5925Y6685D01*
Y6525D01*
D02*
G37*
G36*
X5519Y6677D02*
X5521Y6671D01*
X5525Y6665D01*
X5531Y6659D01*
X5538Y6655D01*
X5547Y6651D01*
X5557Y6649D01*
X5569Y6647D01*
X5583Y6645D01*
X5598Y6645D01*
Y6565D01*
X5583Y6565D01*
X5569Y6563D01*
X5557Y6561D01*
X5547Y6559D01*
X5538Y6555D01*
X5531Y6551D01*
X5525Y6545D01*
X5521Y6539D01*
X5519Y6533D01*
X5518Y6525D01*
Y6685D01*
X5519Y6677D01*
D02*
G37*
G36*
X8793Y6497D02*
X8793Y6499D01*
X8790Y6500D01*
X8786Y6501D01*
X8781Y6502D01*
X8773Y6503D01*
X8754Y6504D01*
X8713Y6505D01*
Y6585D01*
X8729Y6585D01*
X8786Y6589D01*
X8790Y6590D01*
X8793Y6592D01*
X8793Y6593D01*
Y6497D01*
D02*
G37*
G36*
X13672Y6420D02*
X13663Y6411D01*
X13624Y6367D01*
X13620Y6361D01*
X13613Y6350D01*
X13577Y6506D01*
X13585Y6501D01*
X13593Y6497D01*
X13601Y6496D01*
X13609Y6495D01*
X13618Y6496D01*
X13626Y6498D01*
X13634Y6502D01*
X13643Y6507D01*
X13651Y6514D01*
X13660Y6521D01*
X13672Y6420D01*
D02*
G37*
G36*
X10286Y6886D02*
X10292Y6852D01*
X10336Y6786D01*
X10402Y6742D01*
X10479Y6727D01*
X10556Y6742D01*
X10622Y6786D01*
X10634Y6804D01*
X10636Y6806D01*
X10641Y6813D01*
X10644Y6815D01*
X10647Y6817D01*
X10649Y6819D01*
X10651Y6820D01*
X10653Y6821D01*
X10655Y6822D01*
X10657Y6822D01*
X11868D01*
X11893Y6772D01*
X11863Y6727D01*
X11848Y6650D01*
X11863Y6573D01*
X11901Y6516D01*
X11899Y6500D01*
X11851Y6476D01*
X11845Y6477D01*
X11823Y6491D01*
X11746Y6507D01*
X11668Y6491D01*
X11603Y6448D01*
X11559Y6382D01*
X11544Y6305D01*
X11559Y6227D01*
X11603Y6162D01*
X11611Y6156D01*
X11614Y6154D01*
X11616Y6150D01*
X11619Y6146D01*
X11620Y6142D01*
X11622Y6139D01*
X11623Y6135D01*
X11623Y6132D01*
Y5312D01*
X11633Y5265D01*
X11659Y5225D01*
X11697Y5188D01*
X11677Y5142D01*
X9951D01*
X9948Y5142D01*
X9943Y5143D01*
X9942Y5143D01*
X9936Y5147D01*
X9936Y5148D01*
X9935Y5152D01*
X9935Y5158D01*
Y6383D01*
X9985Y6411D01*
X10050Y6398D01*
X10127Y6413D01*
X10193Y6457D01*
X10237Y6523D01*
X10252Y6600D01*
X10237Y6677D01*
X10193Y6743D01*
X10184Y6748D01*
X10182Y6751D01*
X10179Y6755D01*
X10177Y6759D01*
X10175Y6762D01*
X10174Y6766D01*
X10173Y6769D01*
X10172Y6773D01*
Y6843D01*
X10231Y6902D01*
X10286Y6886D01*
D02*
G37*
G36*
X12125Y6557D02*
X12117Y6548D01*
X12111Y6539D01*
X12105Y6530D01*
X12101Y6520D01*
X12097Y6510D01*
X12094Y6500D01*
X12092Y6490D01*
X12090Y6479D01*
X12090Y6468D01*
X12010D01*
X12010Y6479D01*
X12008Y6490D01*
X12006Y6500D01*
X12003Y6510D01*
X11999Y6520D01*
X11995Y6530D01*
X11989Y6539D01*
X11983Y6548D01*
X11975Y6557D01*
X11967Y6566D01*
X12133D01*
X12125Y6557D01*
D02*
G37*
G36*
X4799Y6382D02*
X4787Y6382D01*
X4776Y6381D01*
X4765Y6379D01*
X4754Y6376D01*
X4744Y6372D01*
X4734Y6368D01*
X4725Y6363D01*
X4716Y6357D01*
X4708Y6351D01*
X4700Y6343D01*
X4643Y6400D01*
X4651Y6408D01*
X4657Y6416D01*
X4663Y6425D01*
X4668Y6434D01*
X4672Y6444D01*
X4676Y6454D01*
X4679Y6465D01*
X4681Y6476D01*
X4682Y6487D01*
X4682Y6499D01*
X4799Y6382D01*
D02*
G37*
G36*
X8793Y6301D02*
X8793Y6302D01*
X8790Y6303D01*
X8786Y6305D01*
X8781Y6306D01*
X8773Y6307D01*
X8754Y6308D01*
X8713Y6309D01*
Y6389D01*
X8729Y6389D01*
X8786Y6392D01*
X8790Y6394D01*
X8793Y6395D01*
X8793Y6397D01*
Y6301D01*
D02*
G37*
G36*
X12807Y6395D02*
X12810Y6394D01*
X12814Y6392D01*
X12819Y6391D01*
X12827Y6390D01*
X12846Y6389D01*
X12887Y6388D01*
Y6308D01*
X12871Y6308D01*
X12814Y6304D01*
X12810Y6303D01*
X12807Y6302D01*
X12807Y6300D01*
Y6396D01*
X12807Y6395D01*
D02*
G37*
G36*
X13474Y6296D02*
X13466Y6298D01*
X13449Y6302D01*
X13439Y6304D01*
X13410Y6307D01*
X13399Y6308D01*
X13376Y6308D01*
X13323Y6388D01*
X13334Y6389D01*
X13345Y6390D01*
X13355Y6393D01*
X13363Y6396D01*
X13371Y6401D01*
X13378Y6406D01*
X13384Y6412D01*
X13389Y6419D01*
X13392Y6428D01*
X13395Y6437D01*
X13474Y6296D01*
D02*
G37*
G36*
X6443Y6356D02*
X6443Y6354D01*
X6443Y6353D01*
Y6273D01*
X6510D01*
X6514Y6261D01*
X6518Y6245D01*
X6522Y6201D01*
Y6179D01*
X6521Y6163D01*
X6517Y6141D01*
X6513Y6124D01*
X6508Y6113D01*
X6506Y6109D01*
X6500Y6108D01*
X6424D01*
Y5778D01*
X6397Y5738D01*
X6384Y5668D01*
Y5447D01*
X6382Y5431D01*
X6378Y5409D01*
X6374Y5392D01*
X6369Y5380D01*
X6367Y5377D01*
X6225D01*
Y4591D01*
X6225Y4589D01*
X6225Y4587D01*
Y4583D01*
X6225Y4582D01*
X6225Y4582D01*
Y4508D01*
X6232D01*
X6235Y4456D01*
Y4214D01*
X6234Y4202D01*
X6231Y4178D01*
X6227Y4160D01*
X6224Y4149D01*
X6160D01*
Y4070D01*
X6159Y4068D01*
X6160Y4066D01*
Y3873D01*
X6155Y3865D01*
X6137Y3839D01*
X6088Y3781D01*
X5839Y3532D01*
X4956D01*
X4582Y3906D01*
Y5555D01*
X4587Y5562D01*
X4602Y5639D01*
X4587Y5717D01*
X4543Y5782D01*
X4477Y5826D01*
X4474Y5827D01*
Y6001D01*
X4764Y6291D01*
X4767Y6293D01*
X4770Y6295D01*
X4774Y6297D01*
X4778Y6298D01*
X4782Y6299D01*
X4787Y6300D01*
X4790Y6300D01*
X4800Y6298D01*
X4877Y6313D01*
X4943Y6357D01*
X4987Y6423D01*
X4996Y6469D01*
X5046Y6464D01*
Y6348D01*
X5599D01*
Y6483D01*
X5843D01*
Y6273D01*
X6357D01*
Y6780D01*
X6443D01*
Y6356D01*
D02*
G37*
G36*
X11820Y6212D02*
X11813Y6203D01*
X11807Y6194D01*
X11801Y6185D01*
X11796Y6175D01*
X11793Y6165D01*
X11790Y6155D01*
X11787Y6145D01*
X11786Y6134D01*
X11786Y6123D01*
X11706D01*
X11705Y6134D01*
X11704Y6145D01*
X11702Y6155D01*
X11699Y6165D01*
X11695Y6175D01*
X11690Y6185D01*
X11685Y6194D01*
X11678Y6203D01*
X11671Y6212D01*
X11663Y6220D01*
X11828D01*
X11820Y6212D01*
D02*
G37*
G36*
X12807Y6198D02*
X12810Y6197D01*
X12814Y6195D01*
X12819Y6194D01*
X12827Y6193D01*
X12846Y6192D01*
X12887Y6191D01*
Y6111D01*
X12871Y6111D01*
X12814Y6108D01*
X12810Y6106D01*
X12807Y6105D01*
X12807Y6103D01*
Y6199D01*
X12807Y6198D01*
D02*
G37*
G36*
X8793Y6103D02*
X8793Y6105D01*
X8790Y6106D01*
X8786Y6108D01*
X8781Y6109D01*
X8773Y6109D01*
X8754Y6111D01*
X8713Y6111D01*
Y6191D01*
X8729Y6192D01*
X8786Y6195D01*
X8790Y6197D01*
X8793Y6198D01*
X8793Y6199D01*
Y6103D01*
D02*
G37*
G36*
X6862Y6352D02*
X6850Y6346D01*
X6839Y6337D01*
X6829Y6323D01*
X6821Y6305D01*
X6814Y6283D01*
X6809Y6258D01*
X6806Y6228D01*
X6803Y6195D01*
X6803Y6186D01*
X6808Y6123D01*
X6811Y6098D01*
X6816Y6076D01*
X6822Y6058D01*
X6829Y6045D01*
X6837Y6035D01*
X6847Y6029D01*
X6857Y6027D01*
X6507D01*
X6526Y6029D01*
X6543Y6035D01*
X6558Y6045D01*
X6570Y6058D01*
X6581Y6076D01*
X6590Y6098D01*
X6597Y6123D01*
X6602Y6153D01*
X6605Y6186D01*
X6605Y6194D01*
X6605Y6195D01*
X6598Y6258D01*
X6593Y6283D01*
X6585Y6305D01*
X6576Y6323D01*
X6566Y6337D01*
X6553Y6346D01*
X6540Y6352D01*
X6524Y6354D01*
X6876D01*
X6862Y6352D01*
D02*
G37*
G36*
X1541Y6071D02*
X1542Y6055D01*
X1545Y6040D01*
X1549Y6026D01*
X1554Y6012D01*
X1560Y5999D01*
X1568Y5986D01*
X1576Y5973D01*
X1586Y5961D01*
X1597Y5950D01*
X1472Y5961D01*
X1500Y5990D01*
X1540Y6086D01*
X1541Y6071D01*
D02*
G37*
G36*
X12807Y6001D02*
X12810Y5999D01*
X12814Y5997D01*
X12819Y5996D01*
X12827Y5995D01*
X12835Y5994D01*
X12858Y5992D01*
X12887Y5992D01*
Y5912D01*
X12871Y5912D01*
X12807Y5908D01*
X12807Y5907D01*
Y6003D01*
X12807Y6001D01*
D02*
G37*
G36*
X1197Y6190D02*
X1248Y6146D01*
X1272Y6128D01*
X1295Y6113D01*
X1317Y6101D01*
X1338Y6091D01*
X1358Y6084D01*
X1377Y6080D01*
X1395Y6078D01*
X1396Y5998D01*
X1378Y5997D01*
X1359Y5993D01*
X1339Y5986D01*
X1318Y5976D01*
X1296Y5963D01*
X1274Y5948D01*
X1250Y5930D01*
X1200Y5885D01*
X1174Y5858D01*
X1169Y6217D01*
X1197Y6190D01*
D02*
G37*
G36*
X9343Y5727D02*
X9328Y5727D01*
X9292Y5724D01*
X9283Y5723D01*
X9276Y5721D01*
X9271Y5719D01*
X9267Y5716D01*
X9264Y5713D01*
X9263Y5710D01*
Y5806D01*
X9264Y5806D01*
X9267Y5806D01*
X9283Y5807D01*
X9343Y5807D01*
Y5727D01*
D02*
G37*
G36*
X14839Y5966D02*
X14858Y5954D01*
X14878Y5943D01*
X14901Y5935D01*
X14925Y5929D01*
X14952Y5924D01*
X14981Y5922D01*
X15012Y5921D01*
X15045Y5922D01*
X15080Y5926D01*
X14821Y5667D01*
X14824Y5702D01*
X14826Y5735D01*
X14825Y5766D01*
X14823Y5795D01*
X14818Y5822D01*
X14812Y5846D01*
X14803Y5869D01*
X14793Y5889D01*
X14781Y5908D01*
X14766Y5924D01*
X14823Y5980D01*
X14839Y5966D01*
D02*
G37*
G36*
X1684Y5865D02*
X1702Y5854D01*
X1724Y5844D01*
X1749Y5835D01*
X1778Y5828D01*
X1809Y5822D01*
X1844Y5817D01*
X1924Y5813D01*
X1969Y5813D01*
X1677Y5520D01*
X1677Y5565D01*
X1672Y5645D01*
X1668Y5680D01*
X1662Y5712D01*
X1655Y5741D01*
X1646Y5766D01*
X1636Y5788D01*
X1625Y5806D01*
X1612Y5821D01*
X1669Y5878D01*
X1684Y5865D01*
D02*
G37*
G36*
X16275Y5470D02*
X16274Y5478D01*
X16272Y5484D01*
X16267Y5490D01*
X16262Y5496D01*
X16254Y5500D01*
X16246Y5504D01*
X16235Y5506D01*
X16223Y5508D01*
X16209Y5510D01*
X16194Y5510D01*
Y5590D01*
X16209Y5590D01*
X16223Y5592D01*
X16235Y5594D01*
X16246Y5596D01*
X16254Y5600D01*
X16262Y5604D01*
X16267Y5610D01*
X16272Y5616D01*
X16274Y5622D01*
X16275Y5630D01*
Y5470D01*
D02*
G37*
G36*
X15394Y5737D02*
X15414Y5706D01*
X15434Y5679D01*
X15455Y5656D01*
X15476Y5636D01*
X15497Y5619D01*
X15518Y5606D01*
X15540Y5597D01*
X15562Y5592D01*
X15584Y5590D01*
X15560Y5510D01*
X15546Y5509D01*
X15529Y5505D01*
X15507Y5498D01*
X15483Y5488D01*
X15423Y5461D01*
X15305Y5401D01*
X15259Y5375D01*
X15375Y5772D01*
X15394Y5737D01*
D02*
G37*
G36*
X8049Y6065D02*
X8088Y6038D01*
X8135Y6029D01*
X8712D01*
Y5629D01*
X8712D01*
Y5432D01*
X9245D01*
X9328Y5349D01*
Y5296D01*
X9032D01*
X9019Y5299D01*
X8657D01*
X8603Y5288D01*
X8557Y5257D01*
X8457Y5157D01*
X7973D01*
Y4993D01*
X7969Y4992D01*
X7962Y4992D01*
X7815D01*
X7808Y4992D01*
X7803Y4993D01*
Y5107D01*
X7132D01*
Y4993D01*
X7128Y4992D01*
X7120Y4992D01*
X6869D01*
X6862Y4992D01*
X6857Y4993D01*
Y5377D01*
X6764D01*
X6761Y5380D01*
X6757Y5392D01*
X6752Y5409D01*
X6749Y5431D01*
X6747Y5447D01*
Y5483D01*
X6749Y5500D01*
X6752Y5522D01*
X6757Y5539D01*
X6761Y5550D01*
X6764Y5554D01*
X6938D01*
Y6025D01*
X6938Y6027D01*
X6938Y6029D01*
Y6108D01*
X6893D01*
X6892Y6113D01*
X6889Y6132D01*
X6886Y6169D01*
Y6210D01*
X6887Y6221D01*
X6890Y6245D01*
X6894Y6264D01*
X6896Y6273D01*
X6957D01*
Y6353D01*
X6957Y6354D01*
X6957Y6356D01*
Y6827D01*
X6982Y6867D01*
X7043Y6907D01*
X7080Y6963D01*
X7135Y6979D01*
X8049Y6065D01*
D02*
G37*
G36*
X6744Y5635D02*
X6727Y5629D01*
X6712Y5619D01*
X6699Y5605D01*
X6688Y5587D01*
X6680Y5565D01*
X6673Y5539D01*
X6668Y5510D01*
X6665Y5476D01*
X6665Y5465D01*
X6665Y5455D01*
X6668Y5421D01*
X6673Y5391D01*
X6680Y5366D01*
X6688Y5344D01*
X6699Y5326D01*
X6712Y5312D01*
X6727Y5302D01*
X6744Y5296D01*
X6762Y5294D01*
X6369D01*
X6387Y5296D01*
X6404Y5302D01*
X6419Y5312D01*
X6432Y5326D01*
X6442Y5344D01*
X6451Y5366D01*
X6458Y5391D01*
X6463Y5421D01*
X6466Y5455D01*
X6467Y5492D01*
X6477D01*
X6505Y5636D01*
X6762Y5637D01*
X6744Y5635D01*
D02*
G37*
G36*
X9852Y5164D02*
X9854Y5141D01*
X9856Y5131D01*
X9858Y5122D01*
X9861Y5114D01*
X9864Y5106D01*
X9868Y5100D01*
X9873Y5094D01*
X9877Y5089D01*
X9712Y5079D01*
X9716Y5084D01*
X9720Y5090D01*
X9723Y5097D01*
X9726Y5105D01*
X9729Y5113D01*
X9730Y5123D01*
X9732Y5133D01*
X9734Y5156D01*
X9734Y5169D01*
X9852Y5177D01*
X9852Y5164D01*
D02*
G37*
G36*
X9889Y5078D02*
X9895Y5074D01*
X9902Y5071D01*
X9910Y5068D01*
X9918Y5065D01*
X9927Y5063D01*
X9938Y5061D01*
X9949Y5060D01*
X9973Y5059D01*
Y4941D01*
X9960Y4941D01*
X9938Y4939D01*
X9927Y4937D01*
X9918Y4935D01*
X9910Y4932D01*
X9902Y4929D01*
X9895Y4926D01*
X9889Y4922D01*
X9884Y4917D01*
Y5083D01*
X9889Y5078D01*
D02*
G37*
G36*
X6776Y4957D02*
X6780Y4947D01*
X6786Y4938D01*
X6794Y4930D01*
X6805Y4924D01*
X6818Y4918D01*
X6834Y4914D01*
X6851Y4911D01*
X6871Y4910D01*
X6909Y4909D01*
Y4791D01*
X6846Y4788D01*
X6834Y4786D01*
X6818Y4782D01*
X6805Y4776D01*
X6794Y4770D01*
X6786Y4762D01*
X6780Y4753D01*
X6776Y4743D01*
X6775Y4732D01*
Y4784D01*
X6703Y4780D01*
Y4920D01*
X6707Y4918D01*
X6715Y4916D01*
X6726Y4914D01*
X6760Y4912D01*
X6775Y4911D01*
Y4968D01*
X6776Y4957D01*
D02*
G37*
G36*
X2336Y4816D02*
X2324Y4801D01*
X2312Y4783D01*
X2302Y4761D01*
X2294Y4736D01*
X2286Y4708D01*
X2280Y4676D01*
X2275Y4641D01*
X2269Y4560D01*
X2268Y4514D01*
X1981Y4812D01*
X2026Y4812D01*
X2105Y4815D01*
X2140Y4819D01*
X2172Y4824D01*
X2200Y4831D01*
X2225Y4840D01*
X2247Y4850D01*
X2266Y4861D01*
X2281Y4874D01*
X2336Y4816D01*
D02*
G37*
G36*
X8766Y4767D02*
X8761Y4772D01*
X8755Y4776D01*
X8748Y4779D01*
X8740Y4782D01*
X8732Y4785D01*
X8723Y4787D01*
X8712Y4789D01*
X8701Y4790D01*
X8677Y4791D01*
Y4909D01*
X8690Y4909D01*
X8712Y4911D01*
X8723Y4913D01*
X8732Y4915D01*
X8740Y4918D01*
X8748Y4921D01*
X8755Y4924D01*
X8761Y4928D01*
X8766Y4933D01*
Y4767D01*
D02*
G37*
G36*
X8446Y5056D02*
X8446Y5051D01*
X8447Y5047D01*
X8448Y5043D01*
X8450Y5041D01*
X8451Y5040D01*
X8454Y5040D01*
X8456Y5041D01*
X8459Y5043D01*
X8462Y5045D01*
X8529Y4946D01*
X8513Y4929D01*
X8499Y4913D01*
X8512Y4911D01*
X8530Y4910D01*
X8550Y4909D01*
Y4791D01*
X8530Y4790D01*
X8512Y4789D01*
X8497Y4787D01*
X8483Y4784D01*
X8472Y4780D01*
X8462Y4775D01*
X8455Y4769D01*
X8450Y4762D01*
X8447Y4754D01*
X8446Y4746D01*
Y4830D01*
Y5062D01*
X8446Y5056D01*
D02*
G37*
G36*
X8056Y4732D02*
X8054Y4743D01*
X8051Y4753D01*
X8045Y4762D01*
X8036Y4770D01*
X8026Y4776D01*
X8013Y4782D01*
X7997Y4786D01*
X7979Y4789D01*
X7959Y4790D01*
X7936Y4791D01*
Y4909D01*
X7959Y4910D01*
X7979Y4911D01*
X7997Y4914D01*
X8013Y4918D01*
X8026Y4924D01*
X8036Y4930D01*
X8045Y4938D01*
X8051Y4947D01*
X8054Y4957D01*
X8056Y4968D01*
Y4732D01*
D02*
G37*
G36*
X7723Y4957D02*
X7727Y4947D01*
X7733Y4938D01*
X7741Y4930D01*
X7752Y4924D01*
X7765Y4918D01*
X7780Y4914D01*
X7798Y4911D01*
X7818Y4910D01*
X7840Y4909D01*
Y4791D01*
X7818Y4790D01*
X7798Y4789D01*
X7780Y4786D01*
X7765Y4782D01*
X7752Y4776D01*
X7741Y4770D01*
X7733Y4762D01*
X7727Y4753D01*
X7723Y4743D01*
X7722Y4732D01*
Y4968D01*
X7723Y4957D01*
D02*
G37*
G36*
X7214Y4732D02*
X7213Y4743D01*
X7209Y4753D01*
X7203Y4762D01*
X7195Y4770D01*
X7184Y4776D01*
X7171Y4782D01*
X7156Y4786D01*
X7138Y4789D01*
X7117Y4790D01*
X7095Y4791D01*
Y4909D01*
X7117Y4910D01*
X7138Y4911D01*
X7156Y4914D01*
X7171Y4918D01*
X7184Y4924D01*
X7195Y4930D01*
X7203Y4938D01*
X7209Y4947D01*
X7213Y4957D01*
X7214Y4968D01*
Y4732D01*
D02*
G37*
G36*
X7657Y4674D02*
X7647Y4670D01*
X7638Y4665D01*
X7630Y4656D01*
X7624Y4645D01*
X7618Y4632D01*
X7614Y4617D01*
X7611Y4599D01*
X7610Y4579D01*
X7609Y4556D01*
X7491D01*
X7490Y4579D01*
X7489Y4599D01*
X7486Y4617D01*
X7481Y4632D01*
X7476Y4645D01*
X7470Y4656D01*
X7462Y4665D01*
X7453Y4670D01*
X7443Y4674D01*
X7432Y4675D01*
X7668D01*
X7657Y4674D01*
D02*
G37*
G36*
X3193Y4716D02*
X3210Y4703D01*
X3227Y4692D01*
X3245Y4682D01*
X3263Y4674D01*
X3282Y4667D01*
X3302Y4662D01*
X3322Y4658D01*
X3343Y4656D01*
X3365Y4655D01*
Y4575D01*
X3348Y4574D01*
X3333Y4571D01*
X3319Y4566D01*
X3307Y4560D01*
X3296Y4551D01*
X3287Y4540D01*
X3279Y4528D01*
X3273Y4514D01*
X3268Y4497D01*
X3265Y4479D01*
X3177Y4730D01*
X3193Y4716D01*
D02*
G37*
G36*
X6595Y4587D02*
X6578Y4581D01*
X6564Y4571D01*
X6551Y4558D01*
X6540Y4540D01*
X6531Y4518D01*
X6524Y4493D01*
X6519Y4463D01*
X6516Y4430D01*
X6515Y4392D01*
X6318D01*
X6318Y4430D01*
X6309Y4587D01*
X6306Y4589D01*
X6614D01*
X6595Y4587D01*
D02*
G37*
G36*
X10156Y4243D02*
X10153Y4241D01*
X10151Y4238D01*
X10148Y4234D01*
X10146Y4229D01*
X10145Y4222D01*
X10144Y4215D01*
X10143Y4206D01*
X10142Y4185D01*
X10062D01*
X10063Y4243D01*
X10159D01*
X10156Y4243D01*
D02*
G37*
G36*
X11142Y4243D02*
X11140Y4240D01*
X11139Y4236D01*
X11138Y4231D01*
X11137Y4223D01*
X11136Y4204D01*
X11135Y4163D01*
X11055D01*
X11055Y4179D01*
X11051Y4236D01*
X11050Y4240D01*
X11049Y4243D01*
X11047Y4243D01*
X11143D01*
X11142Y4243D01*
D02*
G37*
G36*
X10551D02*
X10550Y4240D01*
X10549Y4236D01*
X10548Y4231D01*
X10547Y4223D01*
X10546Y4204D01*
X10545Y4163D01*
X10465D01*
X10465Y4179D01*
X10461Y4236D01*
X10460Y4240D01*
X10458Y4243D01*
X10457Y4243D01*
X10553D01*
X10551Y4243D01*
D02*
G37*
G36*
X10354D02*
X10352Y4240D01*
X10350Y4236D01*
X10348Y4231D01*
X10347Y4223D01*
X10346Y4215D01*
X10344Y4192D01*
X10344Y4163D01*
X10264D01*
X10260Y4243D01*
X10356D01*
X10354Y4243D01*
D02*
G37*
G36*
X9763D02*
X9760Y4240D01*
X9758Y4236D01*
X9757Y4231D01*
X9755Y4223D01*
X9754Y4215D01*
X9752Y4192D01*
X9752Y4163D01*
X9672D01*
X9669Y4243D01*
X9765D01*
X9763Y4243D01*
D02*
G37*
G36*
X11926Y4431D02*
X11926Y4417D01*
X11930Y4401D01*
X11937Y4383D01*
X11948Y4363D01*
X11963Y4341D01*
X11981Y4318D01*
X12027Y4264D01*
X12056Y4235D01*
X11964Y4160D01*
X11948Y4176D01*
X11903Y4213D01*
X11890Y4222D01*
X11877Y4230D01*
X11866Y4236D01*
X11855Y4240D01*
X11844Y4242D01*
X11835Y4243D01*
X11930Y4443D01*
X11926Y4431D01*
D02*
G37*
G36*
X1969Y4222D02*
X1924Y4222D01*
X1844Y4217D01*
X1809Y4213D01*
X1778Y4207D01*
X1749Y4200D01*
X1724Y4191D01*
X1702Y4181D01*
X1684Y4170D01*
X1669Y4157D01*
X1612Y4213D01*
X1625Y4229D01*
X1636Y4247D01*
X1646Y4269D01*
X1655Y4294D01*
X1662Y4322D01*
X1668Y4354D01*
X1672Y4389D01*
X1677Y4469D01*
X1677Y4514D01*
X1969Y4222D01*
D02*
G37*
G36*
X6514Y4068D02*
X6241D01*
X6256Y4070D01*
X6269Y4076D01*
X6280Y4086D01*
X6291Y4099D01*
X6299Y4117D01*
X6306Y4139D01*
X6312Y4164D01*
X6315Y4194D01*
X6318Y4227D01*
X6318Y4265D01*
X6515D01*
X6514Y4068D01*
D02*
G37*
G36*
X10095Y4121D02*
X10087Y4112D01*
X10081Y4104D01*
X10075Y4095D01*
X10070Y4086D01*
X10067Y4076D01*
X10065Y4066D01*
X10063Y4056D01*
X10063Y4046D01*
X10064Y4035D01*
X10066Y4024D01*
X9928Y4116D01*
X9940Y4119D01*
X9962Y4125D01*
X9973Y4129D01*
X9983Y4134D01*
X9992Y4139D01*
X10001Y4145D01*
X10010Y4151D01*
X10018Y4158D01*
X10026Y4165D01*
X10095Y4121D01*
D02*
G37*
G36*
X10344Y4081D02*
X10344Y4070D01*
X10346Y4059D01*
X10348Y4048D01*
X10351Y4038D01*
X10354Y4028D01*
X10359Y4018D01*
X10364Y4009D01*
X10370Y3999D01*
X10378Y3990D01*
X10385Y3982D01*
X10220Y3987D01*
X10228Y3995D01*
X10236Y4004D01*
X10242Y4013D01*
X10248Y4022D01*
X10253Y4031D01*
X10257Y4041D01*
X10260Y4051D01*
X10262Y4062D01*
X10263Y4072D01*
X10264Y4083D01*
X10344Y4081D01*
D02*
G37*
G36*
X10609Y4046D02*
X10618Y4039D01*
X10627Y4033D01*
X10636Y4028D01*
X10646Y4024D01*
X10656Y4020D01*
X10666Y4018D01*
X10677Y4016D01*
X10689Y4015D01*
X10700Y4014D01*
X10583Y3898D01*
X10583Y3909D01*
X10582Y3921D01*
X10580Y3932D01*
X10577Y3942D01*
X10574Y3952D01*
X10570Y3962D01*
X10565Y3971D01*
X10559Y3980D01*
X10552Y3989D01*
X10544Y3997D01*
X10601Y4053D01*
X10609Y4046D01*
D02*
G37*
G36*
X1307Y4190D02*
X1347Y4142D01*
X1367Y4123D01*
X1387Y4107D01*
X1407Y4093D01*
X1426Y4083D01*
X1446Y4075D01*
X1465Y4071D01*
X1484Y4069D01*
X1471Y3989D01*
X1455Y3988D01*
X1437Y3984D01*
X1418Y3978D01*
X1396Y3970D01*
X1372Y3958D01*
X1319Y3929D01*
X1258Y3889D01*
X1225Y3865D01*
X1286Y4218D01*
X1307Y4190D01*
D02*
G37*
G36*
X12240Y4052D02*
X12255Y4039D01*
X12270Y4028D01*
X12284Y4020D01*
X12297Y4015D01*
X12309Y4012D01*
X12320Y4011D01*
X12330Y4013D01*
X12340Y4018D01*
X12348Y4025D01*
X12432Y3941D01*
X12425Y3933D01*
X12419Y3924D01*
X12415Y3916D01*
X12413Y3907D01*
X12413Y3898D01*
X12415Y3889D01*
X12418Y3880D01*
X12424Y3871D01*
X12431Y3861D01*
X12439Y3851D01*
X12307Y3900D01*
X12248Y3757D01*
X12247Y3781D01*
X12245Y3803D01*
X12241Y3825D01*
X12235Y3846D01*
X12227Y3867D01*
X12218Y3887D01*
X12207Y3906D01*
X12195Y3924D01*
X12181Y3942D01*
X12165Y3959D01*
X12224Y4067D01*
X12240Y4052D01*
D02*
G37*
G36*
X12561Y3700D02*
X12621Y3557D01*
X12603Y3573D01*
X12586Y3587D01*
X12567Y3600D01*
X12548Y3611D01*
X12528Y3620D01*
X12508Y3628D01*
X12487Y3633D01*
X12465Y3638D01*
X12442Y3640D01*
X12419Y3641D01*
X12380Y3759D01*
X12387Y3760D01*
X12392Y3762D01*
X12394Y3765D01*
X12395Y3769D01*
X12393Y3775D01*
X12390Y3782D01*
X12385Y3790D01*
X12367Y3810D01*
X12356Y3822D01*
X12561Y3700D01*
D02*
G37*
G36*
X6514Y3677D02*
X6487Y3675D01*
X6460Y3671D01*
X6433Y3664D01*
X6406Y3654D01*
X6379Y3642D01*
X6351Y3627D01*
X6324Y3608D01*
X6296Y3588D01*
X6269Y3564D01*
X6241Y3537D01*
X6102Y3677D01*
X6141Y3717D01*
X6202Y3789D01*
X6224Y3821D01*
X6241Y3850D01*
X6252Y3877D01*
X6258Y3901D01*
X6258Y3922D01*
X6253Y3940D01*
X6242Y3955D01*
X6514Y3677D01*
D02*
G37*
G36*
X13587Y3504D02*
X13615Y3481D01*
X13627Y3473D01*
X13639Y3466D01*
X13650Y3461D01*
X13660Y3458D01*
X13669Y3457D01*
X13678Y3458D01*
X13686Y3461D01*
X13534Y3388D01*
X13541Y3392D01*
X13544Y3398D01*
X13545Y3406D01*
X13543Y3415D01*
X13539Y3425D01*
X13532Y3437D01*
X13522Y3451D01*
X13509Y3466D01*
X13477Y3501D01*
X13573Y3518D01*
X13587Y3504D01*
D02*
G37*
G36*
X11136Y3339D02*
X11137Y3325D01*
X11139Y3313D01*
X11142Y3303D01*
X11145Y3294D01*
X11150Y3287D01*
X11155Y3281D01*
X11161Y3277D01*
X11168Y3275D01*
X11175Y3274D01*
X11024D01*
X11030Y3275D01*
X11035Y3277D01*
X11040Y3281D01*
X11044Y3287D01*
X11047Y3294D01*
X11050Y3303D01*
X11052Y3313D01*
X11054Y3325D01*
X11055Y3339D01*
X11055Y3354D01*
X11135D01*
X11136Y3339D01*
D02*
G37*
G36*
X12059Y3296D02*
X12035Y3270D01*
X11997Y3226D01*
X11983Y3206D01*
X11973Y3189D01*
X11967Y3173D01*
X11964Y3159D01*
X11964Y3147D01*
X11968Y3137D01*
X11976Y3129D01*
X11787Y3274D01*
X11798Y3268D01*
X11809Y3266D01*
X11822Y3266D01*
X11837Y3270D01*
X11853Y3277D01*
X11870Y3287D01*
X11889Y3300D01*
X11909Y3316D01*
X11931Y3335D01*
X11954Y3358D01*
X12059Y3296D01*
D02*
G37*
G36*
X9752Y3291D02*
X9754Y3277D01*
X9756Y3265D01*
X9758Y3254D01*
X9762Y3245D01*
X9766Y3238D01*
X9772Y3232D01*
X9778Y3228D01*
X9784Y3226D01*
X9792Y3225D01*
X9632D01*
X9640Y3226D01*
X9646Y3228D01*
X9652Y3232D01*
X9658Y3238D01*
X9662Y3245D01*
X9666Y3254D01*
X9668Y3265D01*
X9670Y3277D01*
X9672Y3291D01*
X9672Y3306D01*
X9752D01*
X9752Y3291D01*
D02*
G37*
G36*
X9348Y3242D02*
X9328Y3221D01*
X9282Y3166D01*
X9272Y3152D01*
X9265Y3138D01*
X9261Y3126D01*
X9259Y3116D01*
X9260Y3108D01*
X9264Y3100D01*
X9163Y3226D01*
X9169Y3221D01*
X9176Y3219D01*
X9185Y3219D01*
X9196Y3223D01*
X9208Y3228D01*
X9221Y3237D01*
X9237Y3248D01*
X9253Y3262D01*
X9292Y3298D01*
X9348Y3242D01*
D02*
G37*
G36*
X6566Y3147D02*
X6545Y3123D01*
X6537Y3111D01*
X6530Y3100D01*
X6524Y3089D01*
X6520Y3078D01*
X6517Y3068D01*
X6515Y3058D01*
X6514Y3048D01*
X6241D01*
X6243Y3049D01*
X6246Y3053D01*
X6298Y3103D01*
X6355Y3160D01*
X6578D01*
X6566Y3147D01*
D02*
G37*
G36*
X7145Y3117D02*
X7149Y3050D01*
X7151Y3048D01*
X7152Y3047D01*
X6989Y3048D01*
X6989Y3049D01*
X6989Y3052D01*
X6988Y3070D01*
X6988Y3133D01*
X7145D01*
X7145Y3117D01*
D02*
G37*
G36*
X13801Y3110D02*
X13794Y3108D01*
X13788Y3104D01*
X13783Y3098D01*
X13779Y3091D01*
X13775Y3082D01*
X13772Y3071D01*
X13770Y3059D01*
X13769Y3045D01*
X13769Y3030D01*
X13689D01*
X13688Y3045D01*
X13687Y3059D01*
X13685Y3071D01*
X13682Y3082D01*
X13679Y3091D01*
X13674Y3098D01*
X13669Y3104D01*
X13663Y3108D01*
X13656Y3110D01*
X13649Y3111D01*
X13809D01*
X13801Y3110D01*
D02*
G37*
G36*
X10327Y2970D02*
X10326Y2978D01*
X10323Y2984D01*
X10319Y2990D01*
X10314Y2996D01*
X10306Y3000D01*
X10297Y3004D01*
X10287Y3006D01*
X10275Y3008D01*
X10261Y3010D01*
X10246Y3010D01*
Y3090D01*
X10261Y3090D01*
X10275Y3092D01*
X10287Y3094D01*
X10297Y3096D01*
X10306Y3100D01*
X10314Y3104D01*
X10319Y3110D01*
X10323Y3116D01*
X10326Y3122D01*
X10327Y3130D01*
Y2970D01*
D02*
G37*
G36*
X9983Y3122D02*
X9986Y3116D01*
X9990Y3110D01*
X9995Y3104D01*
X10002Y3100D01*
X10011Y3096D01*
X10022Y3094D01*
X10034Y3092D01*
X10047Y3090D01*
X10062Y3090D01*
Y3010D01*
X10047Y3010D01*
X10034Y3008D01*
X10022Y3006D01*
X10011Y3004D01*
X10002Y3000D01*
X9995Y2996D01*
X9990Y2990D01*
X9986Y2984D01*
X9983Y2978D01*
X9982Y2970D01*
Y3130D01*
X9983Y3122D01*
D02*
G37*
G36*
X8874Y2970D02*
X8873Y2978D01*
X8870Y2984D01*
X8866Y2990D01*
X8861Y2996D01*
X8853Y3000D01*
X8844Y3004D01*
X8834Y3006D01*
X8822Y3008D01*
X8808Y3010D01*
X8792Y3010D01*
Y3090D01*
X8808Y3090D01*
X8822Y3092D01*
X8834Y3094D01*
X8844Y3096D01*
X8853Y3100D01*
X8861Y3104D01*
X8866Y3110D01*
X8870Y3116D01*
X8873Y3122D01*
X8874Y3130D01*
Y2970D01*
D02*
G37*
G36*
X8546Y3122D02*
X8548Y3116D01*
X8552Y3110D01*
X8558Y3104D01*
X8565Y3100D01*
X8574Y3096D01*
X8584Y3094D01*
X8596Y3092D01*
X8610Y3090D01*
X8625Y3090D01*
Y3010D01*
X8610Y3010D01*
X8596Y3008D01*
X8584Y3006D01*
X8574Y3004D01*
X8565Y3000D01*
X8558Y2996D01*
X8552Y2990D01*
X8548Y2984D01*
X8546Y2978D01*
X8545Y2970D01*
Y3130D01*
X8546Y3122D01*
D02*
G37*
G36*
X11762Y4815D02*
X11754Y4794D01*
X11754D01*
Y4535D01*
X11752Y4533D01*
X11741Y4478D01*
Y4311D01*
X11752Y4257D01*
X11754Y4254D01*
Y4251D01*
X11754Y4250D01*
X11754Y4250D01*
Y4248D01*
X11754Y4247D01*
X11754Y4246D01*
Y4162D01*
X11828D01*
X11828Y4162D01*
X11831Y4162D01*
X11833Y4161D01*
X11838Y4158D01*
X11846Y4154D01*
X11854Y4148D01*
X11885Y4122D01*
X12122Y3885D01*
X12129Y3876D01*
X12138Y3863D01*
X12146Y3849D01*
X12152Y3836D01*
X12157Y3821D01*
X12161Y3807D01*
X12164Y3791D01*
X12166Y3779D01*
Y3686D01*
X11868Y3388D01*
X11857Y3378D01*
X11840Y3365D01*
X11830Y3358D01*
X11818D01*
X11804Y3355D01*
X11543D01*
Y2807D01*
X11500Y2785D01*
X11457Y2807D01*
Y3355D01*
X11218D01*
Y4162D01*
X11618D01*
Y4794D01*
X10966D01*
Y4794D01*
X10634D01*
Y4794D01*
X9980D01*
X9959Y4844D01*
X9972Y4858D01*
X11729D01*
X11762Y4815D01*
D02*
G37*
G36*
X12453Y3557D02*
X12468Y3554D01*
X12483Y3550D01*
X12497Y3545D01*
X12511Y3538D01*
X12524Y3531D01*
X12537Y3522D01*
X12547Y3514D01*
X12852Y3209D01*
Y2785D01*
X12100D01*
X12057Y2802D01*
Y3124D01*
X12057Y3126D01*
X12057Y3128D01*
Y3169D01*
X12062Y3176D01*
X12091Y3210D01*
X12439Y3558D01*
X12441D01*
X12453Y3557D01*
D02*
G37*
G36*
X13769Y2841D02*
X13770Y2827D01*
X13772Y2815D01*
X13775Y2804D01*
X13779Y2795D01*
X13783Y2788D01*
X13788Y2782D01*
X13794Y2778D01*
X13801Y2776D01*
X13809Y2775D01*
X13649D01*
X13656Y2776D01*
X13663Y2778D01*
X13669Y2782D01*
X13674Y2788D01*
X13679Y2795D01*
X13682Y2804D01*
X13685Y2815D01*
X13687Y2827D01*
X13688Y2841D01*
X13689Y2856D01*
X13769D01*
X13769Y2841D01*
D02*
G37*
G36*
X6241Y3013D02*
X6431D01*
X6392Y2973D01*
X6365Y2942D01*
X6355Y2929D01*
X6348Y2919D01*
X6344Y2912D01*
X6342Y2906D01*
X6344Y2903D01*
X6348Y2902D01*
X6242Y2825D01*
Y2712D01*
X6241Y2718D01*
X6238Y2723D01*
X6232Y2728D01*
X6224Y2732D01*
X6214Y2736D01*
X6202Y2739D01*
X6187Y2741D01*
X6170Y2743D01*
X6130Y2744D01*
X5940Y2902D01*
X5971Y2903D01*
X6001Y2906D01*
X6030Y2912D01*
X6058Y2919D01*
X6086Y2929D01*
X6112Y2942D01*
X6138Y2956D01*
X6162Y2973D01*
X6186Y2992D01*
X6186Y2992D01*
X6241Y3048D01*
X6241Y3013D01*
D02*
G37*
G36*
X5861Y2744D02*
X5831Y2743D01*
X5804Y2741D01*
X5780Y2737D01*
X5759Y2731D01*
X5742Y2724D01*
X5728Y2716D01*
X5716Y2705D01*
X5708Y2694D01*
X5704Y2680D01*
X5702Y2665D01*
X5703Y2900D01*
X5705Y2901D01*
X5709Y2901D01*
X5861Y2902D01*
Y2744D01*
D02*
G37*
G36*
X6851Y2656D02*
X6838Y2652D01*
X6826Y2644D01*
X6816Y2633D01*
X6807Y2618D01*
X6800Y2601D01*
X6794Y2580D01*
X6790Y2556D01*
X6788Y2530D01*
X6787Y2499D01*
X6630D01*
X6630Y2529D01*
X6623Y2643D01*
X6620Y2651D01*
X6618Y2655D01*
X6615Y2657D01*
X6866Y2658D01*
X6851Y2656D01*
D02*
G37*
G36*
X8214Y2688D02*
X8255Y2653D01*
X8274Y2640D01*
X8291Y2630D01*
X8307Y2623D01*
X8322Y2619D01*
X8335Y2618D01*
X8347Y2620D01*
X8358Y2625D01*
X8155Y2497D01*
X8163Y2504D01*
X8167Y2513D01*
X8168Y2525D01*
X8165Y2539D01*
X8159Y2554D01*
X8148Y2572D01*
X8134Y2592D01*
X8117Y2614D01*
X8070Y2664D01*
X8191Y2709D01*
X8214Y2688D01*
D02*
G37*
G36*
X13207Y2449D02*
X13224Y2435D01*
X13228Y2432D01*
X13232Y2429D01*
X13236Y2428D01*
X13239Y2427D01*
X13241Y2426D01*
X13243Y2427D01*
X13178Y2353D01*
X13178Y2356D01*
X13178Y2358D01*
X13176Y2361D01*
X13174Y2365D01*
X13171Y2369D01*
X13167Y2374D01*
X13158Y2385D01*
X13145Y2399D01*
X13201Y2455D01*
X13207Y2449D01*
D02*
G37*
G36*
X5626Y2430D02*
X5613Y2425D01*
X5601Y2417D01*
X5591Y2406D01*
X5582Y2392D01*
X5575Y2374D01*
X5569Y2354D01*
X5565Y2330D01*
X5563Y2303D01*
X5562Y2273D01*
X5405D01*
X5404Y2303D01*
X5402Y2330D01*
X5398Y2354D01*
X5392Y2374D01*
X5385Y2392D01*
X5376Y2406D01*
X5366Y2417D01*
X5354Y2425D01*
X5341Y2430D01*
X5326Y2431D01*
X5641D01*
X5626Y2430D01*
D02*
G37*
G36*
X10572Y2275D02*
X10570Y2273D01*
X10568Y2270D01*
X10566Y2266D01*
X10565Y2261D01*
X10563Y2255D01*
X10562Y2248D01*
X10561Y2231D01*
X10561Y2220D01*
X10481D01*
X10481Y2231D01*
X10479Y2255D01*
X10478Y2261D01*
X10476Y2266D01*
X10474Y2270D01*
X10472Y2273D01*
X10470Y2275D01*
X10467Y2275D01*
X10575D01*
X10572Y2275D01*
D02*
G37*
G36*
X9261Y2412D02*
X9259Y2403D01*
X9260Y2394D01*
X9263Y2384D01*
X9268Y2373D01*
X9274Y2361D01*
X9283Y2349D01*
X9293Y2335D01*
X9306Y2321D01*
X9320Y2306D01*
X9296Y2217D01*
X9278Y2235D01*
X9246Y2262D01*
X9233Y2271D01*
X9221Y2278D01*
X9210Y2282D01*
X9201Y2284D01*
X9194Y2283D01*
X9187Y2280D01*
X9183Y2274D01*
X9264Y2419D01*
X9261Y2412D01*
D02*
G37*
G36*
X9976Y2432D02*
X9972Y2421D01*
Y2409D01*
X9976Y2394D01*
X9982Y2378D01*
X9992Y2361D01*
X10006Y2342D01*
X10023Y2321D01*
X10066Y2274D01*
X9982Y2191D01*
X9958Y2214D01*
X9915Y2251D01*
X9896Y2264D01*
X9878Y2274D01*
X9862Y2281D01*
X9848Y2284D01*
X9835D01*
X9825Y2281D01*
X9815Y2274D01*
X9982Y2441D01*
X9976Y2432D01*
D02*
G37*
G36*
X8537Y2430D02*
X8534Y2420D01*
X8534Y2407D01*
X8537Y2393D01*
X8544Y2377D01*
X8554Y2360D01*
X8568Y2340D01*
X8584Y2319D01*
X8628Y2272D01*
X8543Y2191D01*
X8519Y2214D01*
X8475Y2251D01*
X8456Y2264D01*
X8439Y2274D01*
X8423Y2281D01*
X8408Y2285D01*
X8396Y2285D01*
X8385Y2282D01*
X8376Y2275D01*
X8544Y2439D01*
X8537Y2430D01*
D02*
G37*
G36*
X10151Y2189D02*
X10169Y2174D01*
X10177Y2168D01*
X10185Y2163D01*
X10193Y2159D01*
X10201Y2156D01*
X10208Y2154D01*
X10215Y2152D01*
X10222Y2152D01*
X10105Y2035D01*
X10104Y2042D01*
X10103Y2049D01*
X10101Y2056D01*
X10097Y2064D01*
X10093Y2071D01*
X10088Y2079D01*
X10082Y2088D01*
X10075Y2096D01*
X10059Y2114D01*
X10142Y2198D01*
X10151Y2189D01*
D02*
G37*
G36*
X13919Y1931D02*
X13917Y1924D01*
X13917Y1915D01*
X13919Y1906D01*
X13924Y1895D01*
X13931Y1883D01*
X13940Y1870D01*
X13951Y1856D01*
X13981Y1824D01*
X13924Y1767D01*
X13908Y1783D01*
X13878Y1809D01*
X13865Y1818D01*
X13853Y1825D01*
X13843Y1829D01*
X13833Y1832D01*
X13825Y1832D01*
X13817Y1830D01*
X13811Y1825D01*
X13923Y1937D01*
X13919Y1931D01*
D02*
G37*
G36*
X3333Y1821D02*
X3320Y1806D01*
X3309Y1788D01*
X3299Y1766D01*
X3290Y1741D01*
X3283Y1712D01*
X3277Y1680D01*
X3273Y1645D01*
X3268Y1565D01*
X3268Y1520D01*
X2975Y1813D01*
X3020Y1813D01*
X3101Y1817D01*
X3136Y1822D01*
X3167Y1828D01*
X3196Y1835D01*
X3221Y1844D01*
X3243Y1854D01*
X3261Y1865D01*
X3276Y1878D01*
X3333Y1821D01*
D02*
G37*
G36*
X17131Y1707D02*
X17083Y1650D01*
X17063Y1623D01*
X17047Y1597D01*
X17033Y1571D01*
X17023Y1546D01*
X17015Y1522D01*
X17011Y1499D01*
X17009Y1476D01*
X16891D01*
X16889Y1499D01*
X16885Y1522D01*
X16877Y1546D01*
X16867Y1571D01*
X16853Y1597D01*
X16837Y1623D01*
X16817Y1650D01*
X16794Y1678D01*
X16740Y1736D01*
X17160D01*
X17131Y1707D01*
D02*
G37*
G36*
X16128Y1703D02*
X16073Y1642D01*
X16051Y1614D01*
X16033Y1587D01*
X16017Y1561D01*
X16005Y1537D01*
X15997Y1514D01*
X15992Y1493D01*
X15990Y1473D01*
X15910D01*
X15908Y1493D01*
X15903Y1514D01*
X15895Y1537D01*
X15883Y1561D01*
X15868Y1587D01*
X15849Y1614D01*
X15827Y1642D01*
X15772Y1703D01*
X15740Y1736D01*
X16160D01*
X16128Y1703D01*
D02*
G37*
G36*
X7803Y122D02*
X4300D01*
Y2100D01*
X5322D01*
Y1715D01*
X5325Y1700D01*
Y1320D01*
X6410D01*
Y2100D01*
X7803D01*
Y122D01*
D02*
G37*
G36*
X15992Y1407D02*
X15997Y1386D01*
X16005Y1363D01*
X16017Y1339D01*
X16033Y1313D01*
X16051Y1286D01*
X16073Y1258D01*
X16128Y1197D01*
X16160Y1164D01*
X15861D01*
X15650Y953D01*
X15650Y999D01*
X15645Y1081D01*
X15641Y1116D01*
X15635Y1149D01*
X15627Y1177D01*
X15619Y1203D01*
X15609Y1225D01*
X15597Y1244D01*
X15584Y1259D01*
X15641Y1316D01*
X15656Y1303D01*
X15675Y1291D01*
X15697Y1281D01*
X15723Y1273D01*
X15751Y1265D01*
X15784Y1259D01*
X15819Y1255D01*
X15824Y1255D01*
X15827Y1258D01*
X15849Y1286D01*
X15868Y1313D01*
X15883Y1339D01*
X15895Y1363D01*
X15903Y1386D01*
X15908Y1407D01*
X15910Y1427D01*
X15990D01*
X15992Y1407D01*
D02*
G37*
G36*
X8972Y1274D02*
X8974Y1253D01*
X8977Y1236D01*
X8981Y1220D01*
X8987Y1207D01*
X8993Y1196D01*
X9001Y1188D01*
X9010Y1182D01*
X9020Y1178D01*
X9031Y1177D01*
X8795D01*
X8806Y1178D01*
X8816Y1182D01*
X8825Y1188D01*
X8832Y1196D01*
X8839Y1207D01*
X8844Y1220D01*
X8848Y1236D01*
X8851Y1253D01*
X8853Y1274D01*
X8854Y1296D01*
X8972D01*
X8972Y1274D01*
D02*
G37*
G36*
X1918Y1273D02*
X2234Y1381D01*
X2218Y1348D01*
X2206Y1316D01*
X2197Y1287D01*
X2191Y1259D01*
X2189Y1233D01*
X2190Y1208D01*
X2195Y1185D01*
X2203Y1164D01*
X2214Y1145D01*
X2229Y1128D01*
X2143Y1100D01*
X2136Y1106D01*
X2124Y1113D01*
X2085Y1135D01*
X1907Y1221D01*
X1844Y1217D01*
X1809Y1213D01*
X1778Y1207D01*
X1749Y1200D01*
X1724Y1191D01*
X1702Y1181D01*
X1684Y1170D01*
X1669Y1157D01*
X1612Y1213D01*
X1625Y1229D01*
X1636Y1247D01*
X1646Y1269D01*
X1655Y1294D01*
X1662Y1322D01*
X1668Y1354D01*
X1672Y1389D01*
X1677Y1469D01*
X1677Y1514D01*
X1918Y1273D01*
D02*
G37*
G36*
X1411Y900D02*
X1405Y892D01*
X1398Y881D01*
X1389Y866D01*
X1353Y796D01*
X1284Y646D01*
X1162Y980D01*
X1190Y967D01*
X1217Y958D01*
X1243Y951D01*
X1267Y947D01*
X1290Y945D01*
X1311Y947D01*
X1331Y952D01*
X1349Y960D01*
X1366Y970D01*
X1382Y983D01*
X1411Y900D01*
D02*
G37*
G36*
X11568Y1232D02*
X11587Y1220D01*
X11609Y1210D01*
X11634Y1202D01*
X11662Y1195D01*
X11694Y1189D01*
X11729Y1184D01*
X11809Y1180D01*
X11854Y1180D01*
X11562Y887D01*
X11562Y932D01*
X11557Y1012D01*
X11553Y1047D01*
X11547Y1079D01*
X11539Y1108D01*
X11531Y1133D01*
X11521Y1154D01*
X11509Y1173D01*
X11497Y1188D01*
X11553Y1245D01*
X11568Y1232D01*
D02*
G37*
G36*
X10491Y1138D02*
X10510Y1126D01*
X10532Y1118D01*
X10555Y1113D01*
X10580Y1111D01*
X10607Y1113D01*
X10635Y1118D01*
X10666Y1126D01*
X10699Y1137D01*
X10733Y1152D01*
X10586Y768D01*
X10563Y821D01*
X10436Y1076D01*
X10427Y1086D01*
X10474Y1153D01*
X10491Y1138D01*
D02*
G37*
%LPC*%
G36*
X9311Y9134D02*
X9299D01*
X9288Y9131D01*
X9280Y9125D01*
X9338D01*
X9325Y9131D01*
X9311Y9134D01*
D02*
G37*
G36*
X8027Y10162D02*
X7473D01*
Y9648D01*
X8027D01*
Y9778D01*
X8222D01*
Y9643D01*
X8776D01*
Y10157D01*
X8222D01*
Y10022D01*
X8027D01*
Y10162D01*
D02*
G37*
%LPD*%
G36*
X8304Y9820D02*
X8304Y9828D01*
X8301Y9834D01*
X8297Y9840D01*
X8291Y9846D01*
X8284Y9850D01*
X8275Y9854D01*
X8265Y9856D01*
X8252Y9858D01*
X8239Y9860D01*
X8223Y9860D01*
Y9940D01*
X8239Y9940D01*
X8252Y9942D01*
X8265Y9944D01*
X8275Y9946D01*
X8284Y9950D01*
X8291Y9954D01*
X8297Y9960D01*
X8301Y9966D01*
X8304Y9972D01*
X8304Y9980D01*
Y9820D01*
D02*
G37*
G36*
X7946Y9972D02*
X7949Y9966D01*
X7953Y9960D01*
X7958Y9954D01*
X7966Y9950D01*
X7974Y9946D01*
X7985Y9944D01*
X7997Y9942D01*
X8010Y9940D01*
X8026Y9940D01*
Y9860D01*
X8010Y9860D01*
X7997Y9858D01*
X7985Y9856D01*
X7974Y9854D01*
X7966Y9850D01*
X7958Y9846D01*
X7953Y9840D01*
X7949Y9834D01*
X7946Y9828D01*
X7946Y9820D01*
Y9980D01*
X7946Y9972D01*
D02*
G37*
D11*
X13140Y6545D02*
X13200Y6605D01*
X12572Y6545D02*
X13140D01*
X11650Y3872D02*
X11686Y3908D01*
Y4478D01*
X8250Y5500D02*
X8270D01*
X8406Y5364D01*
X9028D01*
X9950Y8800D02*
Y9400D01*
Y8800D02*
X10111Y8639D01*
Y8022D02*
Y8639D01*
D13*
X11804Y5000D02*
X12398Y4407D01*
X9800Y5000D02*
X11804D01*
X12398Y3983D02*
Y4407D01*
X7550Y3267D02*
Y4768D01*
X8913Y940D02*
Y1904D01*
X7550Y3267D02*
X8913Y1904D01*
X10223Y2000D02*
Y2034D01*
X9806Y2450D02*
X10223Y2034D01*
X9787Y2450D02*
X9806D01*
X12398Y3864D02*
Y3983D01*
X12390D02*
X12398D01*
X12307Y3900D02*
X12390Y3983D01*
X12307Y3627D02*
X12380Y3700D01*
X11897Y3216D02*
X12307Y3627D01*
Y3900D02*
X12398Y3810D01*
X11906Y4301D02*
X12307Y3900D01*
Y3627D02*
Y3900D01*
X12398Y3810D02*
Y3864D01*
X12561Y3700D01*
X12994Y1973D02*
Y3268D01*
X12561Y3700D02*
X12994Y3268D01*
X12380Y3700D02*
X12561D01*
X14117Y850D02*
X15150D01*
X9270Y9300D02*
X9717Y8853D01*
X8499Y9300D02*
X9250D01*
X9717Y8022D02*
Y8853D01*
X7468Y4850D02*
X7550Y4768D01*
X7468Y4850D02*
X8300D01*
X8857Y884D02*
X8913Y940D01*
X13100Y7520D02*
X13530Y7950D01*
X13350D02*
X13530D01*
X12700D02*
X13350D01*
Y8177D01*
X12877Y8650D02*
X13350Y8177D01*
X12857Y8650D02*
X12877D01*
X16400Y450D02*
X16950Y1000D01*
Y1950D01*
X15550Y450D02*
X16400D01*
X15150Y850D02*
X15550Y450D01*
X12994Y1973D02*
X14117Y850D01*
X11700Y3098D02*
X11818Y3216D01*
X11897D01*
X6634Y4850D02*
X7468D01*
X9793Y7150D02*
Y7350D01*
Y7029D02*
Y7150D01*
X9893Y7250D01*
X10014D02*
X10133Y7369D01*
X9793Y7029D02*
X10014Y7250D01*
X9893D02*
X10014D01*
X9793Y7350D02*
X9893Y7250D01*
X9793Y5007D02*
Y7029D01*
X9250Y7893D02*
X9793Y7350D01*
X9250Y7893D02*
Y9300D01*
X10133Y7369D02*
X12119D01*
X12700Y7950D01*
X9793Y5007D02*
X9800Y5000D01*
X9250Y9300D02*
X9270D01*
X8504Y5004D02*
X8657Y5157D01*
X8350Y4850D02*
X8504Y5004D01*
X8550Y4850D02*
X8850D01*
X8350D02*
X8550D01*
X8504Y4896D02*
Y5004D01*
Y4896D02*
X8550Y4850D01*
X8300D02*
X8350D01*
X8250Y4900D02*
X8300Y4850D01*
X11883Y4311D02*
Y4478D01*
Y4311D02*
X11893Y4301D01*
X11906D01*
X12579Y6750D02*
X12900D01*
X12572Y6742D02*
X12579Y6750D01*
X12900D02*
X13100Y6950D01*
Y7520D01*
X8657Y5157D02*
X9019D01*
D15*
X12400Y8298D02*
D03*
D16*
X10000Y9900D02*
D03*
Y9300D02*
D03*
X9250Y9900D02*
D03*
Y9300D02*
D03*
X8499Y9900D02*
D03*
Y9300D02*
D03*
X7750Y9905D02*
D03*
Y9295D02*
D03*
X12857Y8650D02*
D03*
Y9250D02*
D03*
X13579D02*
D03*
Y8650D02*
D03*
X13550Y7317D02*
D03*
Y7917D02*
D03*
X16467Y7000D02*
D03*
Y7600D02*
D03*
X16469Y6150D02*
D03*
Y5550D02*
D03*
X13729Y3886D02*
D03*
Y3286D02*
D03*
Y2000D02*
D03*
Y2600D02*
D03*
X8250Y5500D02*
D03*
Y4900D02*
D03*
X5322Y6605D02*
D03*
Y5995D02*
D03*
X9787Y3050D02*
D03*
Y2450D02*
D03*
X8349Y3050D02*
D03*
Y2450D02*
D03*
X9068Y3050D02*
D03*
Y2450D02*
D03*
X10521Y3050D02*
D03*
Y2450D02*
D03*
D17*
X10899Y4478D02*
D03*
X11095Y4478D02*
D03*
X10701Y4478D02*
D03*
X10505Y4478D02*
D03*
X11292D02*
D03*
X11489D02*
D03*
X11686D02*
D03*
X11883D02*
D03*
X10308D02*
D03*
X10111D02*
D03*
X9717D02*
D03*
X9914D02*
D03*
D18*
X9028Y5364D02*
D03*
Y7333D02*
D03*
X9028Y7136D02*
D03*
Y6939D02*
D03*
X9028Y6742D02*
D03*
X9028Y6545D02*
D03*
X9028Y6349D02*
D03*
X9028Y6151D02*
D03*
X9028Y5955D02*
D03*
Y5758D02*
D03*
X9028Y5561D02*
D03*
Y5167D02*
D03*
D19*
X12572Y5955D02*
D03*
X12572Y6151D02*
D03*
Y5758D02*
D03*
X12572Y5561D02*
D03*
Y5364D02*
D03*
X12572Y5167D02*
D03*
X12572Y6348D02*
D03*
X12572Y6545D02*
D03*
Y6742D02*
D03*
X12572Y6939D02*
D03*
Y7136D02*
D03*
X12572Y7333D02*
D03*
D20*
X11292Y8022D02*
D03*
X11883D02*
D03*
X11686Y8022D02*
D03*
X11489D02*
D03*
X11095Y8022D02*
D03*
X10899D02*
D03*
X10701Y8022D02*
D03*
X10505Y8022D02*
D03*
X10308D02*
D03*
X10111D02*
D03*
X9914Y8022D02*
D03*
X9717Y8022D02*
D03*
D21*
X7468Y4850D02*
D03*
Y5677D02*
D03*
D22*
X6081Y5831D02*
D03*
X6681D02*
D03*
X6700Y6550D02*
D03*
X6100D02*
D03*
X11200Y3078D02*
D03*
X11800D02*
D03*
D23*
X5281Y4942D02*
D03*
X6541D02*
D03*
D24*
X5350Y2665D02*
D03*
Y3925D02*
D03*
D25*
X6468Y497D02*
D03*
X5523D02*
D03*
X16913Y11004D02*
D03*
X8857Y884D02*
D03*
D26*
X5483Y1715D02*
D03*
X5739D02*
D03*
X5995D02*
D03*
X6251D02*
D03*
X6507D02*
D03*
D27*
X7126Y3872D02*
D03*
Y2853D02*
D03*
X6378D02*
D03*
X6752D02*
D03*
X6378Y3872D02*
D03*
D47*
X1205Y750D02*
X1972Y1517D01*
X1050Y750D02*
X1205D01*
X4035Y1767D02*
Y5735D01*
X1972Y1328D02*
Y1517D01*
Y1328D02*
X2318Y982D01*
X3250D01*
X4035Y1767D01*
X3875Y2420D02*
Y5912D01*
X2972Y1517D02*
X3875Y2420D01*
X1847Y10392D02*
X1972Y10517D01*
X989Y11250D02*
X1847Y10392D01*
X7750Y8549D02*
Y9295D01*
Y8549D02*
X8744Y7556D01*
X9038Y5767D02*
X9343D01*
X9028Y5758D02*
X9038Y5767D01*
X9343D02*
X9504Y5928D01*
Y7346D01*
X9294Y7556D02*
X9504Y7346D01*
X8744Y7556D02*
X9294D01*
X1229Y4029D02*
X1484D01*
X1972Y4517D01*
X3440Y5986D02*
X4808Y7355D01*
X5281D01*
X3440Y5188D02*
Y5986D01*
X4865Y6902D02*
X6711D01*
X6859Y7050D01*
X6900D01*
X6592Y7695D02*
X8135Y6151D01*
X4827Y7695D02*
X6592D01*
X4217Y7085D02*
X4827Y7695D01*
X4418Y7900D02*
X6613D01*
X3968Y7450D02*
X4418Y7900D01*
X3626Y7450D02*
X3968D01*
X6613Y7900D02*
X8164Y6349D01*
X6672Y8067D02*
X8194Y6545D01*
X4231Y8067D02*
X6672D01*
X3913Y7750D02*
X4231Y8067D01*
X6330Y7062D02*
X6450Y7182D01*
X4799Y7062D02*
X6330D01*
X3715Y5978D02*
X4799Y7062D01*
X3875Y5912D02*
X4865Y6902D01*
X3715Y4965D02*
Y5978D01*
X4035Y5735D02*
X4800Y6500D01*
X3365Y4615D02*
X3715Y4965D01*
X3304Y5052D02*
X3440Y5188D01*
X2515Y5052D02*
X3304D01*
X1981Y4517D02*
X2515Y5052D01*
X1972Y4517D02*
X1981D01*
X8255Y7600D02*
X8522Y7333D01*
X3859Y8546D02*
X6419D01*
X3313Y8000D02*
X3859Y8546D01*
X2760Y8000D02*
X3313D01*
X2455Y7695D02*
X2760Y8000D01*
X6419Y8546D02*
X8223Y6742D01*
X8522Y7333D02*
X9028D01*
X11874Y8012D02*
Y8199D01*
X11954Y8279D01*
X12381D01*
X12400Y8298D01*
X1451Y6038D02*
X1500Y5990D01*
X3935Y7085D02*
X4217D01*
X3900Y7050D02*
X3935Y7085D01*
X2558Y7050D02*
X3900D01*
X1000Y6038D02*
X1451D01*
X13173Y2427D02*
Y3885D01*
X11746Y5312D02*
X13173Y3885D01*
Y2427D02*
X13250Y2350D01*
X13350Y3684D02*
Y3934D01*
X12050Y5234D02*
Y6650D01*
Y5234D02*
X13350Y3934D01*
X11746Y5312D02*
Y6305D01*
X12572Y6348D02*
X13543D01*
X13950Y6755D01*
X8353Y7136D02*
X9028D01*
X5489Y10000D02*
X8353Y7136D01*
X2455Y10000D02*
X5489D01*
X10521Y2220D02*
X11857Y884D01*
X10521Y2220D02*
Y2450D01*
X9787Y3050D02*
X10521D01*
X9712Y4473D02*
X9717Y4478D01*
X9701Y4463D02*
X9712Y4473D01*
Y3125D02*
X9787Y3050D01*
X9712Y3125D02*
Y4473D01*
X10809Y872D02*
X10907Y774D01*
X10809Y932D02*
X10857Y884D01*
X10759Y982D02*
X10809Y932D01*
Y1091D01*
Y872D02*
Y932D01*
X10588Y982D02*
X10759D01*
X9120Y2450D02*
X10588Y982D01*
X9100Y2450D02*
X9120D01*
X8350Y3050D02*
X9100D01*
X9450Y3400D02*
Y5400D01*
X9257Y3207D02*
X9450Y3400D01*
X9257Y3187D02*
Y3207D01*
X9120Y3050D02*
X9257Y3187D01*
X9100Y3050D02*
X9120D01*
X9950Y4000D02*
Y4033D01*
X10102Y4185D01*
Y4469D01*
X15197Y5550D02*
X16469D01*
X14795Y5952D02*
X15197Y5550D01*
X12575Y5952D02*
X14795D01*
X10300Y3900D02*
X10304Y3904D01*
X9289Y5561D02*
X9450Y5400D01*
X10304Y3904D02*
Y4474D01*
X10102Y4469D02*
X10111Y4478D01*
X10505Y4093D02*
X10701Y3896D01*
X10505Y4093D02*
Y4478D01*
X10304Y4474D02*
X10308Y4478D01*
X7750Y9905D02*
X7755Y9900D01*
X8499D01*
X10505Y8022D02*
Y8805D01*
X11810Y10110D01*
X13019D01*
X13913Y11004D01*
X13859Y9950D02*
X14913Y11004D01*
X11942Y9950D02*
X13859D01*
X10701Y8709D02*
X11942Y9950D01*
X10701Y8022D02*
Y8709D01*
X10899Y8668D02*
X11991Y9760D01*
X10899Y8022D02*
Y8668D01*
X11991Y9760D02*
X14669D01*
X15913Y11004D01*
X15509Y9600D02*
X16913Y11004D01*
X12057Y9600D02*
X15509D01*
X11095Y8638D02*
X12057Y9600D01*
X11095Y8022D02*
Y8638D01*
X13579Y8650D02*
X13598D01*
X13950Y8298D01*
X12857Y9250D02*
X12994Y9113D01*
X13096D01*
X13559Y8650D01*
X13579D01*
X13950Y6755D02*
Y8298D01*
X13705Y6151D02*
X15114Y7561D01*
X12572Y6151D02*
X13705D01*
X12572Y5955D02*
X12575Y5952D01*
X15114Y7561D02*
X16427D01*
X11095Y3266D02*
X11112Y3250D01*
X11095Y3266D02*
Y4478D01*
X14449Y1300D02*
X15600D01*
X13749Y2000D02*
X14449Y1300D01*
X13729Y2000D02*
X13749D01*
X15600Y1300D02*
X15950Y950D01*
Y1950D01*
X11567Y8517D02*
X12050D01*
X11498Y8448D02*
X11567Y8517D01*
X11498Y8031D02*
Y8448D01*
X13350Y3684D02*
X13749Y3286D01*
X11489Y8022D02*
X11498Y8031D01*
X13729Y3286D02*
X13749D01*
X13729Y2600D02*
Y3286D01*
X10000Y7600D02*
X11800D01*
X9972Y7572D02*
X10000Y7600D01*
X11800D02*
X11874Y7674D01*
Y8012D01*
X11883Y8022D01*
X10494Y6944D02*
X12566D01*
X10479Y6929D02*
X10494Y6944D01*
X10339Y7182D02*
X11320D01*
X10050Y6893D02*
X10339Y7182D01*
X10050Y6600D02*
Y6893D01*
X3070Y4615D02*
X3365D01*
X2972Y4517D02*
X3070Y4615D01*
X2455Y7305D02*
Y7695D01*
X11320Y7182D02*
X11366Y7136D01*
X12572D01*
X6150Y9050D02*
X8261Y6939D01*
X8164Y6349D02*
X9028D01*
X8261Y6939D02*
X9028D01*
X8223Y6742D02*
X9028D01*
X8194Y6545D02*
X9028D01*
X8135Y6151D02*
X9028D01*
X2150Y7000D02*
X2455Y7305D01*
X1750Y9050D02*
X6150D01*
X12566Y6944D02*
X12572Y6939D01*
X16427Y7561D02*
X16467Y7600D01*
X2025Y6517D02*
X2558Y7050D01*
X1972Y6517D02*
X2025D01*
X1500Y5990D02*
X1972Y5517D01*
X1500Y5990D02*
Y6800D01*
X1700Y7000D01*
X2150D01*
X1550Y7940D02*
X1972Y7517D01*
X1550Y7940D02*
Y8850D01*
X1750Y9050D01*
X1972Y9517D02*
X2455Y10000D01*
X6045Y6605D02*
X6100Y6550D01*
X5350Y6605D02*
X6045D01*
X11845Y774D02*
X11907D01*
X9028Y5561D02*
X9289D01*
D48*
X7067Y2912D02*
Y3133D01*
X6950Y3250D02*
X7067Y3133D01*
X6557Y3250D02*
X6950D01*
X6130Y2823D02*
X6557Y3250D01*
X6507Y2184D02*
X6709Y2385D01*
X6507Y1715D02*
Y2184D01*
X6709Y2385D02*
Y2810D01*
X6752Y2853D01*
X6130Y2823D02*
X6348D01*
X7067Y2912D02*
X7126Y2853D01*
X5507Y2823D02*
X6130D01*
X6348D02*
X6378Y2853D01*
X5350Y2665D02*
X5507Y2823D01*
X5350Y2665D02*
X5483Y2532D01*
Y1715D02*
Y2532D01*
D49*
X4881Y3350D02*
X5914D01*
X6378Y3813D01*
Y3872D01*
X4400Y3831D02*
X4881Y3350D01*
X4400Y3831D02*
Y5639D01*
X6565Y4942D02*
Y5668D01*
X6553Y4930D02*
X6565Y4942D01*
X6417Y4794D02*
X6553Y4930D01*
X6634Y4850D01*
X6541Y4942D02*
X6553Y4930D01*
X6417Y3912D02*
Y4794D01*
X6378Y3872D02*
X6417Y3912D01*
X6565Y5668D02*
X6709Y5811D01*
Y5831D01*
X6700Y6550D02*
X6704Y6546D01*
Y5835D02*
Y6546D01*
Y5835D02*
X6709Y5831D01*
D50*
X1050Y750D02*
D03*
X1075Y4073D02*
D03*
X989Y11250D02*
D03*
X5206Y10000D02*
D03*
X3939Y7050D02*
D03*
X989Y6035D02*
D03*
X3935Y932D02*
D03*
X5892Y8563D02*
D03*
X5189Y9100D02*
D03*
D51*
X11900Y11004D02*
D03*
X13913D02*
D03*
X14913D02*
D03*
X15913D02*
D03*
X12913D02*
D03*
X18681Y7517D02*
D03*
Y6517D02*
D03*
Y8517D02*
D03*
Y9517D02*
D03*
X19681Y6517D02*
D03*
X19677Y10530D02*
D03*
X19681Y9517D02*
D03*
Y8517D02*
D03*
Y7517D02*
D03*
X18681Y5517D02*
D03*
X19681Y2517D02*
D03*
Y3517D02*
D03*
Y4517D02*
D03*
X19677Y5530D02*
D03*
X19681Y1517D02*
D03*
X18681Y4517D02*
D03*
Y3517D02*
D03*
Y1517D02*
D03*
Y2517D02*
D03*
X1972Y7517D02*
D03*
Y6517D02*
D03*
Y8517D02*
D03*
Y9517D02*
D03*
X2972Y6517D02*
D03*
X2968Y10530D02*
D03*
X2972Y9517D02*
D03*
Y8517D02*
D03*
Y7517D02*
D03*
X1972Y5517D02*
D03*
X2972Y2517D02*
D03*
Y3517D02*
D03*
Y4517D02*
D03*
X2968Y5530D02*
D03*
X2972Y1517D02*
D03*
X1972Y4517D02*
D03*
Y3517D02*
D03*
Y1517D02*
D03*
Y2517D02*
D03*
X15114Y5632D02*
D03*
Y7554D02*
D03*
X11857Y884D02*
D03*
X10857D02*
D03*
X9857Y884D02*
D03*
X12857Y884D02*
D03*
D52*
X18681Y10517D02*
D03*
X1972D02*
D03*
D53*
X15950Y1950D02*
D03*
Y950D02*
D03*
X16950Y1950D02*
D03*
X14950D02*
D03*
D54*
X7427Y497D02*
D03*
X4573D02*
D03*
D55*
X6955Y1518D02*
D03*
X5045D02*
D03*
D56*
X5281Y7355D02*
D03*
X4800Y6500D02*
D03*
X8263Y7607D02*
D03*
X6924Y9478D02*
D03*
X6292Y9950D02*
D03*
X7100Y10050D02*
D03*
X7120Y8927D02*
D03*
X8878Y8600D02*
D03*
X8714Y8022D02*
D03*
X8366Y8689D02*
D03*
X13291Y2319D02*
D03*
X11746Y6305D02*
D03*
X13510Y6408D02*
D03*
X10223Y2034D02*
D03*
X5995Y314D02*
D03*
X6515Y764D02*
D03*
X5995D02*
D03*
X5417D02*
D03*
X10807Y5413D02*
D03*
X11500Y5885D02*
D03*
X10400Y5914D02*
D03*
X10807Y6314D02*
D03*
X10509Y9864D02*
D03*
X10759Y10114D02*
D03*
X4793Y6138D02*
D03*
X14050Y9114D02*
D03*
X4793Y5055D02*
D03*
X4850Y4428D02*
D03*
X5850Y4364D02*
D03*
X5864Y4831D02*
D03*
X5850Y5293D02*
D03*
X12175Y2950D02*
D03*
X11550Y3600D02*
D03*
X15100Y4864D02*
D03*
X16250Y4514D02*
D03*
X15505Y3742D02*
D03*
X14619Y3264D02*
D03*
X13413Y4364D02*
D03*
X14300Y4157D02*
D03*
X13529Y6864D02*
D03*
X14039Y5171D02*
D03*
X13413Y5274D02*
D03*
X15600Y6557D02*
D03*
X15064Y6609D02*
D03*
X16650Y6557D02*
D03*
X16250D02*
D03*
X14600Y8085D02*
D03*
X15392Y8364D02*
D03*
X15600Y9114D02*
D03*
X14831D02*
D03*
X9950Y4000D02*
D03*
X7950Y5939D02*
D03*
X7600Y6164D02*
D03*
X7250D02*
D03*
X13200Y6605D02*
D03*
X11686Y3908D02*
D03*
X10300Y3900D02*
D03*
X10701Y3896D02*
D03*
X9700Y8850D02*
D03*
X4400Y5639D02*
D03*
X3626Y7450D02*
D03*
X3913Y7750D02*
D03*
X12050Y8517D02*
D03*
Y6650D02*
D03*
X10479Y6929D02*
D03*
X9972Y7572D02*
D03*
X6450Y7182D02*
D03*
X10050Y6600D02*
D03*
X6900Y7050D02*
D03*
X9800Y5000D02*
D03*
X8850Y4850D02*
D03*
M02*
