G04*
G04 #@! TF.GenerationSoftware,Altium Limited,Altium Designer,19.0.15 (446)*
G04*
G04 Layer_Color=255*
%FSLAX24Y24*%
%MOIN*%
G70*
G01*
G75*
%ADD15C,0.0394*%
%ADD16R,0.0394X0.0354*%
%ADD17R,0.0098X0.0472*%
%ADD18R,0.0472X0.0098*%
%ADD19R,0.0472X0.0098*%
%ADD20R,0.0098X0.0472*%
%ADD21R,0.0512X0.0354*%
%ADD22R,0.0354X0.0394*%
%ADD23R,0.0472X0.0709*%
%ADD24R,0.0709X0.0472*%
%ADD25R,0.0591X0.0591*%
%ADD26R,0.0157X0.0630*%
%ADD27R,0.0276X0.0394*%
%ADD50C,0.0512*%
%ADD51C,0.0591*%
%ADD52R,0.0591X0.0591*%
%ADD53C,0.0600*%
%ADD54O,0.0591X0.0669*%
%ADD55O,0.0512X0.0787*%
D15*
X12400Y8298D02*
D03*
D16*
X10000Y9900D02*
D03*
Y9300D02*
D03*
X9250Y9900D02*
D03*
Y9300D02*
D03*
X8499Y9900D02*
D03*
Y9300D02*
D03*
X7750Y9905D02*
D03*
Y9295D02*
D03*
X12857Y8650D02*
D03*
Y9250D02*
D03*
X13579D02*
D03*
Y8650D02*
D03*
X13550Y7317D02*
D03*
Y7917D02*
D03*
X16467Y7000D02*
D03*
Y7600D02*
D03*
X16469Y6150D02*
D03*
Y5550D02*
D03*
X13729Y3886D02*
D03*
Y3286D02*
D03*
Y2000D02*
D03*
Y2600D02*
D03*
X8250Y5500D02*
D03*
Y4900D02*
D03*
X5322Y6605D02*
D03*
Y5995D02*
D03*
X9787Y3050D02*
D03*
Y2450D02*
D03*
X8349Y3050D02*
D03*
Y2450D02*
D03*
X9068Y3050D02*
D03*
Y2450D02*
D03*
X10521Y3050D02*
D03*
Y2450D02*
D03*
D17*
X10899Y4478D02*
D03*
X11095Y4478D02*
D03*
X10701Y4478D02*
D03*
X10505Y4478D02*
D03*
X11292D02*
D03*
X11489D02*
D03*
X11686D02*
D03*
X11883D02*
D03*
X10308D02*
D03*
X10111D02*
D03*
X9717D02*
D03*
X9914D02*
D03*
D18*
X9028Y5364D02*
D03*
Y7333D02*
D03*
X9028Y7136D02*
D03*
Y6939D02*
D03*
X9028Y6742D02*
D03*
X9028Y6545D02*
D03*
X9028Y6349D02*
D03*
X9028Y6151D02*
D03*
X9028Y5955D02*
D03*
Y5758D02*
D03*
X9028Y5561D02*
D03*
Y5167D02*
D03*
D19*
X12572Y5955D02*
D03*
X12572Y6151D02*
D03*
Y5758D02*
D03*
X12572Y5561D02*
D03*
Y5364D02*
D03*
X12572Y5167D02*
D03*
X12572Y6348D02*
D03*
X12572Y6545D02*
D03*
Y6742D02*
D03*
X12572Y6939D02*
D03*
Y7136D02*
D03*
X12572Y7333D02*
D03*
D20*
X11292Y8022D02*
D03*
X11883D02*
D03*
X11686Y8022D02*
D03*
X11489D02*
D03*
X11095Y8022D02*
D03*
X10899D02*
D03*
X10701Y8022D02*
D03*
X10505Y8022D02*
D03*
X10308D02*
D03*
X10111D02*
D03*
X9914Y8022D02*
D03*
X9717Y8022D02*
D03*
D21*
X7468Y4850D02*
D03*
Y5677D02*
D03*
D22*
X6081Y5831D02*
D03*
X6681D02*
D03*
X6700Y6550D02*
D03*
X6100D02*
D03*
X11200Y3078D02*
D03*
X11800D02*
D03*
D23*
X5281Y4942D02*
D03*
X6541D02*
D03*
D24*
X5350Y2665D02*
D03*
Y3925D02*
D03*
D25*
X6468Y497D02*
D03*
X5523D02*
D03*
X16913Y11004D02*
D03*
X8857Y884D02*
D03*
D26*
X5483Y1715D02*
D03*
X5739D02*
D03*
X5995D02*
D03*
X6251D02*
D03*
X6507D02*
D03*
D27*
X7126Y3872D02*
D03*
Y2853D02*
D03*
X6378D02*
D03*
X6752D02*
D03*
X6378Y3872D02*
D03*
D50*
X1050Y750D02*
D03*
X1075Y4073D02*
D03*
X989Y11250D02*
D03*
X5206Y10000D02*
D03*
X3939Y7050D02*
D03*
X989Y6035D02*
D03*
X3935Y932D02*
D03*
X5892Y8563D02*
D03*
X5189Y9100D02*
D03*
D51*
X11900Y11004D02*
D03*
X13913D02*
D03*
X14913D02*
D03*
X15913D02*
D03*
X12913D02*
D03*
X18681Y7517D02*
D03*
Y6517D02*
D03*
Y8517D02*
D03*
Y9517D02*
D03*
X19681Y6517D02*
D03*
X19677Y10530D02*
D03*
X19681Y9517D02*
D03*
Y8517D02*
D03*
Y7517D02*
D03*
X18681Y5517D02*
D03*
X19681Y2517D02*
D03*
Y3517D02*
D03*
Y4517D02*
D03*
X19677Y5530D02*
D03*
X19681Y1517D02*
D03*
X18681Y4517D02*
D03*
Y3517D02*
D03*
Y1517D02*
D03*
Y2517D02*
D03*
X1972Y7517D02*
D03*
Y6517D02*
D03*
Y8517D02*
D03*
Y9517D02*
D03*
X2972Y6517D02*
D03*
X2968Y10530D02*
D03*
X2972Y9517D02*
D03*
Y8517D02*
D03*
Y7517D02*
D03*
X1972Y5517D02*
D03*
X2972Y2517D02*
D03*
Y3517D02*
D03*
Y4517D02*
D03*
X2968Y5530D02*
D03*
X2972Y1517D02*
D03*
X1972Y4517D02*
D03*
Y3517D02*
D03*
Y1517D02*
D03*
Y2517D02*
D03*
X15114Y5632D02*
D03*
Y7554D02*
D03*
X11857Y884D02*
D03*
X10857D02*
D03*
X9857Y884D02*
D03*
X12857Y884D02*
D03*
D52*
X18681Y10517D02*
D03*
X1972D02*
D03*
D53*
X15950Y1950D02*
D03*
Y950D02*
D03*
X16950Y1950D02*
D03*
X14950D02*
D03*
D54*
X7427Y497D02*
D03*
X4573D02*
D03*
D55*
X6955Y1518D02*
D03*
X5045D02*
D03*
M02*
