G04*
G04 #@! TF.GenerationSoftware,Altium Limited,Altium Designer,19.0.15 (446)*
G04*
G04 Layer_Color=2752767*
%FSLAX24Y24*%
%MOIN*%
G70*
G01*
G75*
%ADD57C,0.0020*%
%ADD58C,0.0027*%
D57*
X970Y670D02*
Y830D01*
X1130D01*
Y670D01*
X970D01*
X995Y3993D02*
Y4153D01*
X1155D01*
Y3993D01*
X995D01*
X909Y11170D02*
Y11330D01*
X1069D01*
Y11170D01*
X909D01*
X5126Y9920D02*
Y10080D01*
X5286D01*
Y9920D01*
X5126D01*
X3859Y6970D02*
Y7130D01*
X4019D01*
Y6970D01*
X3859D01*
X909Y5955D02*
Y6115D01*
X1069D01*
Y5955D01*
X909D01*
X3855Y852D02*
Y1012D01*
X4015D01*
Y852D01*
X3855D01*
X5812Y8483D02*
Y8643D01*
X5972D01*
Y8483D01*
X5812D01*
X5109Y9020D02*
Y9180D01*
X5269D01*
Y9020D01*
X5109D01*
X15114Y5552D02*
X15034Y5712D01*
X15194D01*
X15114Y5552D01*
Y7474D02*
X15034Y7634D01*
X15194D01*
X15114Y7474D01*
X15950Y1870D02*
X15990Y1910D01*
X16030D01*
X15990Y1950D01*
X16030Y1990D01*
X15990D01*
X15950Y2030D01*
X15910Y1990D01*
X15870D01*
X15910Y1950D01*
X15870Y1910D01*
X15910D01*
X15950Y1870D01*
Y870D02*
X15990Y910D01*
X16030D01*
X15990Y950D01*
X16030Y990D01*
X15990D01*
X15950Y1030D01*
X15910Y990D01*
X15870D01*
X15910Y950D01*
X15870Y910D01*
X15910D01*
X15950Y870D01*
X16950Y1870D02*
X16990Y1910D01*
X17030D01*
X16990Y1950D01*
X17030Y1990D01*
X16990D01*
X16950Y2030D01*
X16910Y1990D01*
X16870D01*
X16910Y1950D01*
X16870Y1910D01*
X16910D01*
X16950Y1870D01*
X14950D02*
X14990Y1910D01*
X15030D01*
X14990Y1950D01*
X15030Y1990D01*
X14990D01*
X14950Y2030D01*
X14910Y1990D01*
X14870D01*
X14910Y1950D01*
X14870Y1910D01*
X14910D01*
X14950Y1870D01*
X7347Y417D02*
X7387Y497D01*
X7347Y577D01*
X7427Y537D01*
X7507Y577D01*
X7467Y497D01*
X7507Y417D01*
X7427Y457D01*
X7347Y417D01*
X4493D02*
X4533Y497D01*
X4493Y577D01*
X4573Y537D01*
X4653Y577D01*
X4613Y497D01*
X4653Y417D01*
X4573Y457D01*
X4493Y417D01*
X6875Y1438D02*
Y1598D01*
X7035D01*
Y1438D01*
X6875D01*
X4965D02*
Y1598D01*
X5125D01*
Y1438D01*
X4965D01*
X5241Y7315D02*
Y7275D01*
X5321D01*
Y7315D01*
X5361D01*
Y7395D01*
X5321D01*
Y7435D01*
X5241D01*
Y7395D01*
X5201D01*
Y7315D01*
X5241D01*
X4760Y6460D02*
Y6420D01*
X4840D01*
Y6460D01*
X4880D01*
Y6540D01*
X4840D01*
Y6580D01*
X4760D01*
Y6540D01*
X4720D01*
Y6460D01*
X4760D01*
X8223Y7567D02*
Y7527D01*
X8303D01*
Y7567D01*
X8343D01*
Y7647D01*
X8303D01*
Y7687D01*
X8223D01*
Y7647D01*
X8183D01*
Y7567D01*
X8223D01*
X6884Y9438D02*
Y9398D01*
X6964D01*
Y9438D01*
X7004D01*
Y9518D01*
X6964D01*
Y9558D01*
X6884D01*
Y9518D01*
X6844D01*
Y9438D01*
X6884D01*
X6252Y9910D02*
Y9870D01*
X6332D01*
Y9910D01*
X6372D01*
Y9990D01*
X6332D01*
Y10030D01*
X6252D01*
Y9990D01*
X6212D01*
Y9910D01*
X6252D01*
X7060Y10010D02*
Y9970D01*
X7140D01*
Y10010D01*
X7180D01*
Y10090D01*
X7140D01*
Y10130D01*
X7060D01*
Y10090D01*
X7020D01*
Y10010D01*
X7060D01*
X7080Y8887D02*
Y8847D01*
X7160D01*
Y8887D01*
X7200D01*
Y8967D01*
X7160D01*
Y9007D01*
X7080D01*
Y8967D01*
X7040D01*
Y8887D01*
X7080D01*
X8838Y8560D02*
Y8520D01*
X8918D01*
Y8560D01*
X8958D01*
Y8640D01*
X8918D01*
Y8680D01*
X8838D01*
Y8640D01*
X8798D01*
Y8560D01*
X8838D01*
X8674Y7982D02*
Y7942D01*
X8754D01*
Y7982D01*
X8794D01*
Y8062D01*
X8754D01*
Y8102D01*
X8674D01*
Y8062D01*
X8634D01*
Y7982D01*
X8674D01*
X8326Y8649D02*
Y8609D01*
X8406D01*
Y8649D01*
X8446D01*
Y8729D01*
X8406D01*
Y8769D01*
X8326D01*
Y8729D01*
X8286D01*
Y8649D01*
X8326D01*
X13251Y2279D02*
Y2239D01*
X13331D01*
Y2279D01*
X13371D01*
Y2359D01*
X13331D01*
Y2399D01*
X13251D01*
Y2359D01*
X13211D01*
Y2279D01*
X13251D01*
X11706Y6265D02*
Y6225D01*
X11786D01*
Y6265D01*
X11826D01*
Y6345D01*
X11786D01*
Y6385D01*
X11706D01*
Y6345D01*
X11666D01*
Y6265D01*
X11706D01*
X13470Y6368D02*
Y6328D01*
X13550D01*
Y6368D01*
X13590D01*
Y6448D01*
X13550D01*
Y6488D01*
X13470D01*
Y6448D01*
X13430D01*
Y6368D01*
X13470D01*
X10183Y1994D02*
Y1954D01*
X10263D01*
Y1994D01*
X10303D01*
Y2074D01*
X10263D01*
Y2114D01*
X10183D01*
Y2074D01*
X10143D01*
Y1994D01*
X10183D01*
X5955Y274D02*
Y234D01*
X6035D01*
Y274D01*
X6075D01*
Y354D01*
X6035D01*
Y394D01*
X5955D01*
Y354D01*
X5915D01*
Y274D01*
X5955D01*
X6475Y724D02*
Y684D01*
X6555D01*
Y724D01*
X6595D01*
Y804D01*
X6555D01*
Y844D01*
X6475D01*
Y804D01*
X6435D01*
Y724D01*
X6475D01*
X5955D02*
Y684D01*
X6035D01*
Y724D01*
X6075D01*
Y804D01*
X6035D01*
Y844D01*
X5955D01*
Y804D01*
X5915D01*
Y724D01*
X5955D01*
X5377D02*
Y684D01*
X5457D01*
Y724D01*
X5497D01*
Y804D01*
X5457D01*
Y844D01*
X5377D01*
Y804D01*
X5337D01*
Y724D01*
X5377D01*
X10767Y5373D02*
Y5333D01*
X10847D01*
Y5373D01*
X10887D01*
Y5453D01*
X10847D01*
Y5493D01*
X10767D01*
Y5453D01*
X10727D01*
Y5373D01*
X10767D01*
X11460Y5845D02*
Y5805D01*
X11540D01*
Y5845D01*
X11580D01*
Y5925D01*
X11540D01*
Y5965D01*
X11460D01*
Y5925D01*
X11420D01*
Y5845D01*
X11460D01*
X10360Y5874D02*
Y5834D01*
X10440D01*
Y5874D01*
X10480D01*
Y5954D01*
X10440D01*
Y5994D01*
X10360D01*
Y5954D01*
X10320D01*
Y5874D01*
X10360D01*
X10767Y6274D02*
Y6234D01*
X10847D01*
Y6274D01*
X10887D01*
Y6354D01*
X10847D01*
Y6394D01*
X10767D01*
Y6354D01*
X10727D01*
Y6274D01*
X10767D01*
X10469Y9824D02*
Y9784D01*
X10549D01*
Y9824D01*
X10589D01*
Y9904D01*
X10549D01*
Y9944D01*
X10469D01*
Y9904D01*
X10429D01*
Y9824D01*
X10469D01*
X10719Y10074D02*
Y10034D01*
X10799D01*
Y10074D01*
X10839D01*
Y10154D01*
X10799D01*
Y10194D01*
X10719D01*
Y10154D01*
X10679D01*
Y10074D01*
X10719D01*
X4753Y6098D02*
Y6058D01*
X4833D01*
Y6098D01*
X4873D01*
Y6178D01*
X4833D01*
Y6218D01*
X4753D01*
Y6178D01*
X4713D01*
Y6098D01*
X4753D01*
X14010Y9074D02*
Y9034D01*
X14090D01*
Y9074D01*
X14130D01*
Y9154D01*
X14090D01*
Y9194D01*
X14010D01*
Y9154D01*
X13970D01*
Y9074D01*
X14010D01*
X4753Y5015D02*
Y4975D01*
X4833D01*
Y5015D01*
X4873D01*
Y5095D01*
X4833D01*
Y5135D01*
X4753D01*
Y5095D01*
X4713D01*
Y5015D01*
X4753D01*
X4810Y4388D02*
Y4348D01*
X4890D01*
Y4388D01*
X4930D01*
Y4468D01*
X4890D01*
Y4508D01*
X4810D01*
Y4468D01*
X4770D01*
Y4388D01*
X4810D01*
X5810Y4324D02*
Y4284D01*
X5890D01*
Y4324D01*
X5930D01*
Y4404D01*
X5890D01*
Y4444D01*
X5810D01*
Y4404D01*
X5770D01*
Y4324D01*
X5810D01*
X5824Y4791D02*
Y4751D01*
X5904D01*
Y4791D01*
X5944D01*
Y4871D01*
X5904D01*
Y4911D01*
X5824D01*
Y4871D01*
X5784D01*
Y4791D01*
X5824D01*
X5810Y5253D02*
Y5213D01*
X5890D01*
Y5253D01*
X5930D01*
Y5333D01*
X5890D01*
Y5373D01*
X5810D01*
Y5333D01*
X5770D01*
Y5253D01*
X5810D01*
X12135Y2910D02*
Y2870D01*
X12215D01*
Y2910D01*
X12255D01*
Y2990D01*
X12215D01*
Y3030D01*
X12135D01*
Y2990D01*
X12095D01*
Y2910D01*
X12135D01*
X11510Y3560D02*
Y3520D01*
X11590D01*
Y3560D01*
X11630D01*
Y3640D01*
X11590D01*
Y3680D01*
X11510D01*
Y3640D01*
X11470D01*
Y3560D01*
X11510D01*
X15060Y4824D02*
Y4784D01*
X15140D01*
Y4824D01*
X15180D01*
Y4904D01*
X15140D01*
Y4944D01*
X15060D01*
Y4904D01*
X15020D01*
Y4824D01*
X15060D01*
X16210Y4474D02*
Y4434D01*
X16290D01*
Y4474D01*
X16330D01*
Y4554D01*
X16290D01*
Y4594D01*
X16210D01*
Y4554D01*
X16170D01*
Y4474D01*
X16210D01*
X15465Y3702D02*
Y3662D01*
X15545D01*
Y3702D01*
X15585D01*
Y3782D01*
X15545D01*
Y3822D01*
X15465D01*
Y3782D01*
X15425D01*
Y3702D01*
X15465D01*
X14579Y3224D02*
Y3184D01*
X14659D01*
Y3224D01*
X14699D01*
Y3304D01*
X14659D01*
Y3344D01*
X14579D01*
Y3304D01*
X14539D01*
Y3224D01*
X14579D01*
X13373Y4324D02*
Y4284D01*
X13453D01*
Y4324D01*
X13493D01*
Y4404D01*
X13453D01*
Y4444D01*
X13373D01*
Y4404D01*
X13333D01*
Y4324D01*
X13373D01*
X14260Y4117D02*
Y4077D01*
X14340D01*
Y4117D01*
X14380D01*
Y4197D01*
X14340D01*
Y4237D01*
X14260D01*
Y4197D01*
X14220D01*
Y4117D01*
X14260D01*
X13489Y6824D02*
Y6784D01*
X13569D01*
Y6824D01*
X13609D01*
Y6904D01*
X13569D01*
Y6944D01*
X13489D01*
Y6904D01*
X13449D01*
Y6824D01*
X13489D01*
X13999Y5131D02*
Y5091D01*
X14079D01*
Y5131D01*
X14119D01*
Y5211D01*
X14079D01*
Y5251D01*
X13999D01*
Y5211D01*
X13959D01*
Y5131D01*
X13999D01*
X13373Y5234D02*
Y5194D01*
X13453D01*
Y5234D01*
X13493D01*
Y5314D01*
X13453D01*
Y5354D01*
X13373D01*
Y5314D01*
X13333D01*
Y5234D01*
X13373D01*
X15560Y6517D02*
Y6477D01*
X15640D01*
Y6517D01*
X15680D01*
Y6597D01*
X15640D01*
Y6637D01*
X15560D01*
Y6597D01*
X15520D01*
Y6517D01*
X15560D01*
X15024Y6569D02*
Y6529D01*
X15104D01*
Y6569D01*
X15144D01*
Y6649D01*
X15104D01*
Y6689D01*
X15024D01*
Y6649D01*
X14984D01*
Y6569D01*
X15024D01*
X16610Y6517D02*
Y6477D01*
X16690D01*
Y6517D01*
X16730D01*
Y6597D01*
X16690D01*
Y6637D01*
X16610D01*
Y6597D01*
X16570D01*
Y6517D01*
X16610D01*
X16210D02*
Y6477D01*
X16290D01*
Y6517D01*
X16330D01*
Y6597D01*
X16290D01*
Y6637D01*
X16210D01*
Y6597D01*
X16170D01*
Y6517D01*
X16210D01*
X14560Y8045D02*
Y8005D01*
X14640D01*
Y8045D01*
X14680D01*
Y8125D01*
X14640D01*
Y8165D01*
X14560D01*
Y8125D01*
X14520D01*
Y8045D01*
X14560D01*
X15352Y8324D02*
Y8284D01*
X15432D01*
Y8324D01*
X15472D01*
Y8404D01*
X15432D01*
Y8444D01*
X15352D01*
Y8404D01*
X15312D01*
Y8324D01*
X15352D01*
X15560Y9074D02*
Y9034D01*
X15640D01*
Y9074D01*
X15680D01*
Y9154D01*
X15640D01*
Y9194D01*
X15560D01*
Y9154D01*
X15520D01*
Y9074D01*
X15560D01*
X14791D02*
Y9034D01*
X14871D01*
Y9074D01*
X14911D01*
Y9154D01*
X14871D01*
Y9194D01*
X14791D01*
Y9154D01*
X14751D01*
Y9074D01*
X14791D01*
X9910Y3960D02*
Y3920D01*
X9990D01*
Y3960D01*
X10030D01*
Y4040D01*
X9990D01*
Y4080D01*
X9910D01*
Y4040D01*
X9870D01*
Y3960D01*
X9910D01*
X7910Y5899D02*
Y5859D01*
X7990D01*
Y5899D01*
X8030D01*
Y5979D01*
X7990D01*
Y6019D01*
X7910D01*
Y5979D01*
X7870D01*
Y5899D01*
X7910D01*
X7560Y6124D02*
Y6084D01*
X7640D01*
Y6124D01*
X7680D01*
Y6204D01*
X7640D01*
Y6244D01*
X7560D01*
Y6204D01*
X7520D01*
Y6124D01*
X7560D01*
X7210D02*
Y6084D01*
X7290D01*
Y6124D01*
X7330D01*
Y6204D01*
X7290D01*
Y6244D01*
X7210D01*
Y6204D01*
X7170D01*
Y6124D01*
X7210D01*
X13160Y6565D02*
Y6525D01*
X13240D01*
Y6565D01*
X13280D01*
Y6645D01*
X13240D01*
Y6685D01*
X13160D01*
Y6645D01*
X13120D01*
Y6565D01*
X13160D01*
X11646Y3868D02*
Y3828D01*
X11726D01*
Y3868D01*
X11766D01*
Y3948D01*
X11726D01*
Y3988D01*
X11646D01*
Y3948D01*
X11606D01*
Y3868D01*
X11646D01*
X10260Y3860D02*
Y3820D01*
X10340D01*
Y3860D01*
X10380D01*
Y3940D01*
X10340D01*
Y3980D01*
X10260D01*
Y3940D01*
X10220D01*
Y3860D01*
X10260D01*
X10661Y3856D02*
Y3816D01*
X10741D01*
Y3856D01*
X10781D01*
Y3936D01*
X10741D01*
Y3976D01*
X10661D01*
Y3936D01*
X10621D01*
Y3856D01*
X10661D01*
X9660Y8810D02*
Y8770D01*
X9740D01*
Y8810D01*
X9780D01*
Y8890D01*
X9740D01*
Y8930D01*
X9660D01*
Y8890D01*
X9620D01*
Y8810D01*
X9660D01*
X4360Y5599D02*
Y5559D01*
X4440D01*
Y5599D01*
X4480D01*
Y5679D01*
X4440D01*
Y5719D01*
X4360D01*
Y5679D01*
X4320D01*
Y5599D01*
X4360D01*
X3586Y7410D02*
Y7370D01*
X3666D01*
Y7410D01*
X3706D01*
Y7490D01*
X3666D01*
Y7530D01*
X3586D01*
Y7490D01*
X3546D01*
Y7410D01*
X3586D01*
X3873Y7710D02*
Y7670D01*
X3953D01*
Y7710D01*
X3993D01*
Y7790D01*
X3953D01*
Y7830D01*
X3873D01*
Y7790D01*
X3833D01*
Y7710D01*
X3873D01*
X12010Y8477D02*
Y8437D01*
X12090D01*
Y8477D01*
X12130D01*
Y8557D01*
X12090D01*
Y8597D01*
X12010D01*
Y8557D01*
X11970D01*
Y8477D01*
X12010D01*
Y6610D02*
Y6570D01*
X12090D01*
Y6610D01*
X12130D01*
Y6690D01*
X12090D01*
Y6730D01*
X12010D01*
Y6690D01*
X11970D01*
Y6610D01*
X12010D01*
X10439Y6889D02*
Y6849D01*
X10519D01*
Y6889D01*
X10559D01*
Y6969D01*
X10519D01*
Y7009D01*
X10439D01*
Y6969D01*
X10399D01*
Y6889D01*
X10439D01*
X9932Y7532D02*
Y7492D01*
X10012D01*
Y7532D01*
X10052D01*
Y7612D01*
X10012D01*
Y7652D01*
X9932D01*
Y7612D01*
X9892D01*
Y7532D01*
X9932D01*
X6410Y7142D02*
Y7102D01*
X6490D01*
Y7142D01*
X6530D01*
Y7222D01*
X6490D01*
Y7262D01*
X6410D01*
Y7222D01*
X6370D01*
Y7142D01*
X6410D01*
X10010Y6560D02*
Y6520D01*
X10090D01*
Y6560D01*
X10130D01*
Y6640D01*
X10090D01*
Y6680D01*
X10010D01*
Y6640D01*
X9970D01*
Y6560D01*
X10010D01*
X6860Y7010D02*
Y6970D01*
X6940D01*
Y7010D01*
X6980D01*
Y7090D01*
X6940D01*
Y7130D01*
X6860D01*
Y7090D01*
X6820D01*
Y7010D01*
X6860D01*
X9760Y4960D02*
Y4920D01*
X9840D01*
Y4960D01*
X9880D01*
Y5040D01*
X9840D01*
Y5080D01*
X9760D01*
Y5040D01*
X9720D01*
Y4960D01*
X9760D01*
X8810Y4810D02*
Y4770D01*
X8890D01*
Y4810D01*
X8930D01*
Y4890D01*
X8890D01*
Y4930D01*
X8810D01*
Y4890D01*
X8770D01*
Y4810D01*
X8810D01*
D58*
X11980Y11004D02*
G03*
X11980Y11004I-80J0D01*
G01*
X13993D02*
G03*
X13993Y11004I-80J0D01*
G01*
X14993D02*
G03*
X14993Y11004I-80J0D01*
G01*
X15993D02*
G03*
X15993Y11004I-80J0D01*
G01*
X16993D02*
G03*
X16993Y11004I-80J0D01*
G01*
X12993D02*
G03*
X12993Y11004I-80J0D01*
G01*
X18761Y7517D02*
G03*
X18761Y7517I-80J0D01*
G01*
Y6517D02*
G03*
X18761Y6517I-80J0D01*
G01*
Y8517D02*
G03*
X18761Y8517I-80J0D01*
G01*
Y9517D02*
G03*
X18761Y9517I-80J0D01*
G01*
X19761Y6517D02*
G03*
X19761Y6517I-80J0D01*
G01*
X19757Y10530D02*
G03*
X19757Y10530I-80J0D01*
G01*
X19761Y9517D02*
G03*
X19761Y9517I-80J0D01*
G01*
Y8517D02*
G03*
X19761Y8517I-80J0D01*
G01*
Y7517D02*
G03*
X19761Y7517I-80J0D01*
G01*
X18761Y10517D02*
G03*
X18761Y10517I-80J0D01*
G01*
Y5517D02*
G03*
X18761Y5517I-80J0D01*
G01*
X19761Y2517D02*
G03*
X19761Y2517I-80J0D01*
G01*
Y3517D02*
G03*
X19761Y3517I-80J0D01*
G01*
Y4517D02*
G03*
X19761Y4517I-80J0D01*
G01*
X19757Y5530D02*
G03*
X19757Y5530I-80J0D01*
G01*
X19761Y1517D02*
G03*
X19761Y1517I-80J0D01*
G01*
X18761Y4517D02*
G03*
X18761Y4517I-80J0D01*
G01*
Y3517D02*
G03*
X18761Y3517I-80J0D01*
G01*
Y1517D02*
G03*
X18761Y1517I-80J0D01*
G01*
Y2517D02*
G03*
X18761Y2517I-80J0D01*
G01*
X2052Y7517D02*
G03*
X2052Y7517I-80J0D01*
G01*
Y6517D02*
G03*
X2052Y6517I-80J0D01*
G01*
Y8517D02*
G03*
X2052Y8517I-80J0D01*
G01*
Y9517D02*
G03*
X2052Y9517I-80J0D01*
G01*
X3052Y6517D02*
G03*
X3052Y6517I-80J0D01*
G01*
X3049Y10530D02*
G03*
X3049Y10530I-80J0D01*
G01*
X3052Y9517D02*
G03*
X3052Y9517I-80J0D01*
G01*
Y8517D02*
G03*
X3052Y8517I-80J0D01*
G01*
Y7517D02*
G03*
X3052Y7517I-80J0D01*
G01*
X2052Y10517D02*
G03*
X2052Y10517I-80J0D01*
G01*
Y5517D02*
G03*
X2052Y5517I-80J0D01*
G01*
X3052Y2517D02*
G03*
X3052Y2517I-80J0D01*
G01*
Y3517D02*
G03*
X3052Y3517I-80J0D01*
G01*
Y4517D02*
G03*
X3052Y4517I-80J0D01*
G01*
X3049Y5530D02*
G03*
X3049Y5530I-80J0D01*
G01*
X3052Y1517D02*
G03*
X3052Y1517I-80J0D01*
G01*
X2052Y4517D02*
G03*
X2052Y4517I-80J0D01*
G01*
Y3517D02*
G03*
X2052Y3517I-80J0D01*
G01*
Y1517D02*
G03*
X2052Y1517I-80J0D01*
G01*
Y2517D02*
G03*
X2052Y2517I-80J0D01*
G01*
X11937Y884D02*
G03*
X11937Y884I-80J0D01*
G01*
X10937D02*
G03*
X10937Y884I-80J0D01*
G01*
X9937Y884D02*
G03*
X9937Y884I-80J0D01*
G01*
X8937Y884D02*
G03*
X8937Y884I-80J0D01*
G01*
X12937D02*
G03*
X12937Y884I-80J0D01*
G01*
M02*
