M48
;Layer_Color=9474304
;FILE_FORMAT=2:4
INCH,TZ
;TYPE=PLATED
T1F00S00C0.0118
T2F00S00C0.0300
T3F00S00C0.0315
T4F00S00C0.0320
T5F00S00C0.0394
%
T01
X5995Y314
Y764
X6515
X5850Y4364
X5864Y4831
X5850Y5293
X7250Y6164
X7600
X7950Y5939
X8263Y7607
X9972Y7572
X10050Y6600
X10479Y6929
X10807Y6314
X10400Y5914
X10807Y5413
X11500Y5885
X11746Y6305
X12050Y6650
X13200Y6605
X13510Y6408
X13529Y6864
X13413Y5274
X14039Y5171
X14300Y4157
X13413Y4364
X13291Y2319
X12175Y2950
X11550Y3600
X11686Y3908
X10701Y3896
X10300Y3900
X9950Y4000
X9800Y5000
X8850Y4850
X6900Y7050
X6450Y7182
X10223Y2034
X14619Y3264
X15505Y3742
X16250Y4514
X15100Y4864
X15064Y6609
X15600Y6557
X16250
X16650
X4800Y6500
X4793Y6138
X4400Y5639
X4793Y5055
X4850Y4428
X5281Y7355
X3626Y7450
X5417Y764
X3913Y7750
X7120Y8927
X6924Y9478
X7100Y10050
X6292Y9950
X8366Y8689
X8878Y8600
X8714Y8022
X9700Y8850
X10509Y9864
X10759Y10114
X12050Y8517
X14050Y9114
X14831
X15600
X15392Y8364
X14600Y8085
T02
X15950Y950
Y1950
X16950
X14950
T03
X6955Y1518
X5045
X3935Y932
X1050Y750
X1075Y4073
X989Y6035
X3939Y7050
X5189Y9100
X5206Y10000
X989Y11250
X5892Y8563
T04
X15114Y5632
Y7554
T05
X8857Y884
X9857Y884
X10857Y884
X11857
X12857
X18681Y1517
X19681
Y2517
Y3517
Y4517
X18681
Y5517
Y6517
Y7517
X19681
Y6517
X19677Y5530
X18681Y3517
Y2517
X2972
Y3517
Y4517
X1972
Y5517
Y6517
Y7517
X2972
Y6517
X2968Y5530
X1972Y3517
Y2517
Y1517
X2972
Y8517
X1972
Y9517
X2972
X2968Y10530
X1972Y10517
X11900Y11004
X12913
X13913
X14913
X15913
X16913
X18681Y10517
Y9517
Y8517
X19681
Y9517
X19677Y10530
M30
