G04*
G04 #@! TF.GenerationSoftware,Altium Limited,Altium Designer,19.0.15 (446)*
G04*
G04 Layer_Color=8421504*
%FSLAX24Y24*%
%MOIN*%
G70*
G01*
G75*
%ADD15R,0.0354X0.0394*%
%ADD16R,0.0472X0.0098*%
%ADD17R,0.0098X0.0472*%
%ADD18R,0.0472X0.0098*%
%ADD19R,0.0098X0.0472*%
%ADD20R,0.0394X0.0354*%
%ADD21R,0.0512X0.0354*%
%ADD22R,0.0472X0.0709*%
%ADD23R,0.0591X0.0591*%
%ADD24R,0.0157X0.0630*%
D15*
X12062Y8880D02*
D03*
X11452D02*
D03*
X13531Y8188D02*
D03*
X12931D02*
D03*
X13531Y8909D02*
D03*
X12931D02*
D03*
X6081Y5831D02*
D03*
X6681D02*
D03*
X6700Y6550D02*
D03*
X6100D02*
D03*
D16*
X12322Y5289D02*
D03*
Y5092D02*
D03*
Y5486D02*
D03*
Y5683D02*
D03*
Y7258D02*
D03*
Y7061D02*
D03*
Y6864D02*
D03*
Y6667D02*
D03*
Y5880D02*
D03*
X12322Y6076D02*
D03*
X12322Y6470D02*
D03*
X12322Y6273D02*
D03*
D17*
X11633Y4403D02*
D03*
X11239D02*
D03*
X11042Y4403D02*
D03*
X10845D02*
D03*
X10649Y4403D02*
D03*
X10451Y4403D02*
D03*
X10255Y4403D02*
D03*
X10058Y4403D02*
D03*
X9861Y4403D02*
D03*
X9664D02*
D03*
X9467Y4403D02*
D03*
X11436D02*
D03*
D18*
X8778Y5092D02*
D03*
X8778Y5289D02*
D03*
X8778Y5486D02*
D03*
Y5683D02*
D03*
Y5880D02*
D03*
X8778Y6076D02*
D03*
X8778Y6273D02*
D03*
Y6470D02*
D03*
X8778Y6864D02*
D03*
Y7061D02*
D03*
X8778Y7258D02*
D03*
Y6667D02*
D03*
D19*
X9467Y7946D02*
D03*
X9664Y7946D02*
D03*
X9861D02*
D03*
X10058Y7946D02*
D03*
X10255D02*
D03*
X10452Y7946D02*
D03*
X11633Y7946D02*
D03*
X11436Y7946D02*
D03*
X11239D02*
D03*
X11042Y7946D02*
D03*
X10649D02*
D03*
X10845Y7946D02*
D03*
D20*
X13546Y7459D02*
D03*
Y6859D02*
D03*
X13007Y4052D02*
D03*
Y4652D02*
D03*
X13729Y5132D02*
D03*
Y4532D02*
D03*
X16473Y7000D02*
D03*
Y7600D02*
D03*
X16476Y6150D02*
D03*
Y5550D02*
D03*
X13771Y3796D02*
D03*
Y3196D02*
D03*
X13800Y1910D02*
D03*
Y2510D02*
D03*
X5322Y6605D02*
D03*
Y5995D02*
D03*
X9787Y3050D02*
D03*
Y2450D02*
D03*
X8349Y3050D02*
D03*
Y2450D02*
D03*
X9068Y3050D02*
D03*
Y2450D02*
D03*
X10521Y3050D02*
D03*
Y2450D02*
D03*
X12381Y3400D02*
D03*
Y2800D02*
D03*
D21*
X7468Y4850D02*
D03*
Y5677D02*
D03*
D22*
X5281Y4942D02*
D03*
X6541D02*
D03*
D23*
X6468Y491D02*
D03*
X5523D02*
D03*
D24*
X5483Y1709D02*
D03*
X5739D02*
D03*
X5995D02*
D03*
X6251D02*
D03*
X6507D02*
D03*
M02*
