G04*
G04 #@! TF.GenerationSoftware,Altium Limited,Altium Designer,19.0.15 (446)*
G04*
G04 Layer_Color=8388736*
%FSLAX24Y24*%
%MOIN*%
G70*
G01*
G75*
%ADD25R,0.0434X0.0474*%
%ADD26R,0.0552X0.0178*%
%ADD27R,0.0178X0.0552*%
%ADD28R,0.0552X0.0178*%
%ADD29R,0.0178X0.0552*%
%ADD30R,0.0474X0.0434*%
%ADD31R,0.0592X0.0434*%
%ADD32R,0.0552X0.0789*%
%ADD33R,0.0671X0.0671*%
%ADD34R,0.0237X0.0710*%
%ADD35C,0.0592*%
%ADD36C,0.0946*%
%ADD37C,0.0680*%
%ADD38C,0.0671*%
%ADD39R,0.0671X0.0671*%
%ADD40O,0.0671X0.0749*%
%ADD41O,0.0592X0.0867*%
D25*
X12062Y8880D02*
D03*
X11452D02*
D03*
X13531Y8188D02*
D03*
X12931D02*
D03*
X13531Y8909D02*
D03*
X12931D02*
D03*
X6081Y5831D02*
D03*
X6681D02*
D03*
X6700Y6550D02*
D03*
X6100D02*
D03*
D26*
X12322Y5289D02*
D03*
Y5092D02*
D03*
Y5486D02*
D03*
Y5683D02*
D03*
Y7258D02*
D03*
Y7061D02*
D03*
Y6864D02*
D03*
Y6667D02*
D03*
Y5880D02*
D03*
X12322Y6076D02*
D03*
X12322Y6470D02*
D03*
X12322Y6273D02*
D03*
D27*
X11633Y4403D02*
D03*
X11239D02*
D03*
X11042Y4403D02*
D03*
X10845D02*
D03*
X10649Y4403D02*
D03*
X10451Y4403D02*
D03*
X10255Y4403D02*
D03*
X10058Y4403D02*
D03*
X9861Y4403D02*
D03*
X9664D02*
D03*
X9467Y4403D02*
D03*
X11436D02*
D03*
D28*
X8778Y5092D02*
D03*
X8778Y5289D02*
D03*
X8778Y5486D02*
D03*
Y5683D02*
D03*
Y5880D02*
D03*
X8778Y6076D02*
D03*
X8778Y6273D02*
D03*
Y6470D02*
D03*
X8778Y6864D02*
D03*
Y7061D02*
D03*
X8778Y7258D02*
D03*
Y6667D02*
D03*
D29*
X9467Y7946D02*
D03*
X9664Y7946D02*
D03*
X9861D02*
D03*
X10058Y7946D02*
D03*
X10255D02*
D03*
X10452Y7946D02*
D03*
X11633Y7946D02*
D03*
X11436Y7946D02*
D03*
X11239D02*
D03*
X11042Y7946D02*
D03*
X10649D02*
D03*
X10845Y7946D02*
D03*
D30*
X13546Y7459D02*
D03*
Y6859D02*
D03*
X13007Y4052D02*
D03*
Y4652D02*
D03*
X13729Y5132D02*
D03*
Y4532D02*
D03*
X16473Y7000D02*
D03*
Y7600D02*
D03*
X16476Y6150D02*
D03*
Y5550D02*
D03*
X13771Y3796D02*
D03*
Y3196D02*
D03*
X13800Y1910D02*
D03*
Y2510D02*
D03*
X5322Y6605D02*
D03*
Y5995D02*
D03*
X9787Y3050D02*
D03*
Y2450D02*
D03*
X8349Y3050D02*
D03*
Y2450D02*
D03*
X9068Y3050D02*
D03*
Y2450D02*
D03*
X10521Y3050D02*
D03*
Y2450D02*
D03*
X12381Y3400D02*
D03*
Y2800D02*
D03*
D31*
X7468Y4850D02*
D03*
Y5677D02*
D03*
D32*
X5281Y4942D02*
D03*
X6541D02*
D03*
D33*
X6468Y491D02*
D03*
X5523D02*
D03*
X8857Y884D02*
D03*
D34*
X5483Y1709D02*
D03*
X5739D02*
D03*
X5995D02*
D03*
X6251D02*
D03*
X6507D02*
D03*
D35*
X3937Y871D02*
D03*
X1163Y850D02*
D03*
X1075Y4073D02*
D03*
X989Y11250D02*
D03*
X5206Y10000D02*
D03*
X3939Y7050D02*
D03*
X989Y6035D02*
D03*
X5800Y8520D02*
D03*
X5189Y9100D02*
D03*
D36*
X16571Y10571D02*
D03*
D37*
X8500Y8824D02*
D03*
X15950Y1950D02*
D03*
Y950D02*
D03*
X16950Y1950D02*
D03*
X14950D02*
D03*
D38*
X18681Y7517D02*
D03*
Y6517D02*
D03*
Y8517D02*
D03*
Y9517D02*
D03*
X19681Y6517D02*
D03*
X19677Y10530D02*
D03*
X19681Y9517D02*
D03*
Y8517D02*
D03*
Y7517D02*
D03*
X18681Y5517D02*
D03*
X19681Y2517D02*
D03*
Y3517D02*
D03*
Y4517D02*
D03*
X19677Y5530D02*
D03*
X19681Y1517D02*
D03*
X18681Y4517D02*
D03*
Y3517D02*
D03*
Y1517D02*
D03*
Y2517D02*
D03*
X1972Y7517D02*
D03*
Y6517D02*
D03*
Y8517D02*
D03*
Y9517D02*
D03*
X2972Y6517D02*
D03*
X2968Y10530D02*
D03*
X2972Y9517D02*
D03*
Y8517D02*
D03*
Y7517D02*
D03*
X1972Y5517D02*
D03*
X2972Y2517D02*
D03*
Y3517D02*
D03*
Y4517D02*
D03*
X2968Y5530D02*
D03*
X2972Y1517D02*
D03*
X1972Y4517D02*
D03*
Y3517D02*
D03*
Y1517D02*
D03*
Y2517D02*
D03*
X15078Y5592D02*
D03*
Y7514D02*
D03*
X11857Y884D02*
D03*
X10857D02*
D03*
X9857Y884D02*
D03*
X12857Y884D02*
D03*
D39*
X18681Y10517D02*
D03*
X1972D02*
D03*
D40*
X7427Y491D02*
D03*
X4573D02*
D03*
D41*
X6955Y1512D02*
D03*
X5045D02*
D03*
M02*
