G04*
G04 #@! TF.GenerationSoftware,Altium Limited,Altium Designer,19.0.15 (446)*
G04*
G04 Layer_Physical_Order=1*
G04 Layer_Color=255*
%FSLAX24Y24*%
%MOIN*%
G70*
G01*
G75*
%ADD10C,0.0100*%
%ADD13C,0.0118*%
%ADD15R,0.0354X0.0394*%
%ADD16R,0.0472X0.0098*%
%ADD17R,0.0098X0.0472*%
%ADD18R,0.0472X0.0098*%
%ADD19R,0.0098X0.0472*%
%ADD20R,0.0394X0.0354*%
%ADD21R,0.0512X0.0354*%
%ADD22R,0.0472X0.0709*%
%ADD23R,0.0591X0.0591*%
%ADD24R,0.0157X0.0630*%
%ADD42C,0.0080*%
%ADD43C,0.0197*%
%ADD44C,0.0091*%
%ADD45C,0.0157*%
%ADD46C,0.0512*%
%ADD47C,0.0866*%
%ADD48C,0.0600*%
%ADD49C,0.0591*%
%ADD50R,0.0591X0.0591*%
%ADD51O,0.0591X0.0669*%
%ADD52O,0.0512X0.0787*%
%ADD53C,0.0236*%
G36*
X1245Y11210D02*
X1249Y11143D01*
X1254Y11113D01*
X1259Y11086D01*
X1265Y11062D01*
X1273Y11040D01*
X1282Y11021D01*
X1293Y11005D01*
X1305Y10991D01*
X1248Y10934D01*
X1234Y10946D01*
X1218Y10957D01*
X1199Y10966D01*
X1177Y10974D01*
X1153Y10980D01*
X1126Y10985D01*
X1096Y10990D01*
X1029Y10994D01*
X992Y10994D01*
X1245Y11247D01*
X1245Y11210D01*
D02*
G37*
G36*
X1680Y10448D02*
X1679Y10459D01*
X1677Y10470D01*
X1674Y10481D01*
X1670Y10492D01*
X1665Y10503D01*
X1659Y10515D01*
X1651Y10526D01*
X1643Y10538D01*
X1633Y10549D01*
X1622Y10561D01*
Y10674D01*
X1633Y10663D01*
X1643Y10655D01*
X1651Y10650D01*
X1659Y10646D01*
X1665Y10645D01*
X1670Y10646D01*
X1674Y10650D01*
X1677Y10655D01*
X1679Y10663D01*
X1680Y10674D01*
Y10448D01*
D02*
G37*
G36*
X5024Y9821D02*
X4997Y9847D01*
X4946Y9892D01*
X4922Y9910D01*
X4900Y9925D01*
X4878Y9938D01*
X4857Y9947D01*
X4837Y9954D01*
X4818Y9959D01*
X4800Y9960D01*
Y10040D01*
X4818Y10041D01*
X4837Y10046D01*
X4857Y10053D01*
X4878Y10062D01*
X4900Y10075D01*
X4922Y10090D01*
X4946Y10108D01*
X4997Y10153D01*
X5024Y10179D01*
Y9821D01*
D02*
G37*
G36*
X5464Y10032D02*
X5532Y9853D01*
X5541Y9836D01*
X5550Y9823D01*
X5558Y9813D01*
X5520Y9738D01*
X5505Y9751D01*
X5488Y9762D01*
X5469Y9770D01*
X5448Y9776D01*
X5426Y9779D01*
X5401Y9779D01*
X5375Y9777D01*
X5347Y9773D01*
X5317Y9766D01*
X5286Y9757D01*
X5451Y10074D01*
X5464Y10032D01*
D02*
G37*
G36*
X2333Y9821D02*
X2320Y9806D01*
X2309Y9788D01*
X2299Y9766D01*
X2290Y9741D01*
X2283Y9712D01*
X2277Y9680D01*
X2273Y9645D01*
X2268Y9565D01*
X2268Y9520D01*
X1975Y9813D01*
X2020Y9813D01*
X2101Y9817D01*
X2136Y9822D01*
X2167Y9828D01*
X2196Y9835D01*
X2221Y9844D01*
X2243Y9854D01*
X2261Y9865D01*
X2276Y9878D01*
X2333Y9821D01*
D02*
G37*
G36*
X11685Y9096D02*
X11668Y9078D01*
X11642Y9048D01*
X11633Y9034D01*
X11626Y9022D01*
X11621Y9012D01*
X11619Y9002D01*
X11620Y8994D01*
X11623Y8988D01*
X11628Y8983D01*
X11495Y9076D01*
X11502Y9072D01*
X11510Y9070D01*
X11519Y9071D01*
X11529Y9073D01*
X11540Y9078D01*
X11552Y9085D01*
X11565Y9094D01*
X11578Y9104D01*
X11593Y9117D01*
X11608Y9132D01*
X11685Y9096D01*
D02*
G37*
G36*
X13372Y9145D02*
X13401Y9120D01*
X13414Y9111D01*
X13426Y9104D01*
X13437Y9100D01*
X13447Y9097D01*
X13455Y9097D01*
X13462Y9099D01*
X13469Y9104D01*
X13357Y8992D01*
X13361Y8998D01*
X13363Y9005D01*
X13363Y9013D01*
X13361Y9023D01*
X13356Y9034D01*
X13349Y9046D01*
X13340Y9059D01*
X13328Y9073D01*
X13299Y9105D01*
X13355Y9161D01*
X13372Y9145D01*
D02*
G37*
G36*
X5423Y9211D02*
X5442Y9186D01*
X5462Y9163D01*
X5481Y9144D01*
X5501Y9127D01*
X5520Y9114D01*
X5540Y9104D01*
X5559Y9096D01*
X5579Y9092D01*
X5598Y9090D01*
X5582Y9010D01*
X5567Y9009D01*
X5549Y9005D01*
X5530Y8999D01*
X5508Y8991D01*
X5484Y8980D01*
X5430Y8951D01*
X5368Y8912D01*
X5333Y8889D01*
X5189Y9030D01*
X5403Y9240D01*
X5423Y9211D01*
D02*
G37*
G36*
X5189Y9030D02*
X5045Y8889D01*
X5010Y8912D01*
X4948Y8951D01*
X4894Y8980D01*
X4870Y8991D01*
X4848Y8999D01*
X4829Y9005D01*
X4811Y9009D01*
X4796Y9010D01*
X4780Y9090D01*
X4799Y9092D01*
X4819Y9096D01*
X4838Y9104D01*
X4858Y9114D01*
X4877Y9127D01*
X4897Y9144D01*
X4916Y9163D01*
X4936Y9186D01*
X4955Y9211D01*
X4975Y9240D01*
X5189Y9030D01*
D02*
G37*
G36*
X17250Y8850D02*
Y2262D01*
X17200Y2237D01*
X17142Y2282D01*
X17049Y2320D01*
X16950Y2333D01*
X16851Y2320D01*
X16758Y2282D01*
X16679Y2221D01*
X16618Y2142D01*
X16580Y2049D01*
X16567Y1950D01*
X16580Y1851D01*
X16618Y1758D01*
X16679Y1679D01*
X16688Y1672D01*
X16733Y1624D01*
X16752Y1601D01*
X16769Y1577D01*
X16783Y1556D01*
X16793Y1536D01*
X16801Y1518D01*
X16803Y1510D01*
X16792Y1485D01*
X16772Y1460D01*
X16115D01*
X16105Y1468D01*
X16090Y1491D01*
X16083Y1510D01*
X16089Y1522D01*
X16101Y1543D01*
X16117Y1565D01*
X16136Y1590D01*
X16187Y1647D01*
X16211Y1671D01*
X16221Y1679D01*
X16282Y1758D01*
X16320Y1851D01*
X16333Y1950D01*
X16320Y2049D01*
X16282Y2142D01*
X16221Y2221D01*
X16142Y2282D01*
X16049Y2320D01*
X15950Y2333D01*
X15851Y2320D01*
X15758Y2282D01*
X15679Y2221D01*
X15618Y2142D01*
X15580Y2049D01*
X15567Y1950D01*
X15580Y1851D01*
X15618Y1758D01*
X15679Y1679D01*
X15689Y1671D01*
X15713Y1647D01*
X15764Y1590D01*
X15783Y1565D01*
X15799Y1543D01*
X15811Y1522D01*
X15817Y1510D01*
X15811Y1491D01*
X15795Y1468D01*
X15785Y1460D01*
X14461D01*
X14097Y1825D01*
X14086Y1836D01*
X14078Y1846D01*
X14077Y1848D01*
Y2167D01*
X13523D01*
Y1715D01*
X13473Y1694D01*
X13136Y2032D01*
Y2124D01*
X13186Y2151D01*
X13214Y2132D01*
X13291Y2117D01*
X13368Y2132D01*
X13434Y2176D01*
X13477Y2241D01*
X13478Y2242D01*
X13523Y2253D01*
Y2253D01*
X14077D01*
Y2767D01*
X13851D01*
Y2939D01*
X14048D01*
X14048Y2939D01*
X14050Y2934D01*
X14051Y2930D01*
X14072Y2899D01*
X14072Y2899D01*
X14073Y2897D01*
X14095Y2864D01*
X14160Y2821D01*
X14237Y2805D01*
X14315Y2821D01*
X14380Y2864D01*
X14424Y2930D01*
X14439Y3007D01*
X14424Y3085D01*
X14380Y3150D01*
X14315Y3194D01*
X14237Y3209D01*
X14225Y3207D01*
X14223Y3207D01*
X14218Y3207D01*
X14214Y3208D01*
X14210Y3209D01*
X14207Y3210D01*
X14203Y3211D01*
X14200Y3213D01*
X14198Y3214D01*
X14130Y3282D01*
X14090Y3309D01*
X14048Y3317D01*
Y3453D01*
X13564D01*
X13522Y3500D01*
Y4152D01*
X13606Y4236D01*
X13635Y4261D01*
X13647Y4270D01*
X13653Y4275D01*
X14006D01*
Y4789D01*
X13534D01*
X13532Y4789D01*
X13531Y4789D01*
X13452D01*
Y4774D01*
X13284D01*
Y4909D01*
X13130D01*
Y5293D01*
X13120Y5339D01*
X13094Y5379D01*
X12713Y5760D01*
X12673Y5786D01*
X12638Y5793D01*
Y5947D01*
X12638D01*
Y6348D01*
X12915D01*
X13397Y5866D01*
X13437Y5839D01*
X13484Y5830D01*
X14695D01*
X14730Y5781D01*
X14730Y5773D01*
X14727Y5748D01*
X14722Y5720D01*
X14717Y5700D01*
X14713Y5690D01*
X14700Y5592D01*
X14713Y5494D01*
X14751Y5403D01*
X14811Y5325D01*
X14889Y5265D01*
X14981Y5227D01*
X15078Y5214D01*
X15176Y5227D01*
X15268Y5265D01*
X15300Y5289D01*
X15306Y5292D01*
X15344Y5320D01*
X15411Y5367D01*
X15467Y5401D01*
X15490Y5412D01*
X15509Y5420D01*
X15524Y5425D01*
X15534Y5428D01*
X16199D01*
Y5293D01*
X16753D01*
Y5807D01*
X16199D01*
Y5672D01*
X15545D01*
X15543Y5672D01*
X15533Y5675D01*
X15520Y5680D01*
X15506Y5688D01*
X15489Y5699D01*
X15470Y5715D01*
X15451Y5733D01*
X15405Y5785D01*
X15382Y5816D01*
X15376Y5821D01*
X15346Y5860D01*
X15268Y5920D01*
X15176Y5958D01*
X15130Y5964D01*
X15124Y5966D01*
X15122Y5966D01*
X15119Y5967D01*
X15079Y5972D01*
X15044Y5977D01*
X14981Y5991D01*
X14956Y5998D01*
X14934Y6006D01*
X14915Y6015D01*
X14900Y6023D01*
X14889Y6031D01*
X14888Y6032D01*
X14881Y6039D01*
X14877Y6041D01*
X14877Y6042D01*
X14876Y6042D01*
X14842Y6065D01*
X14795Y6074D01*
X13578D01*
X13576Y6078D01*
X13603Y6128D01*
X14200D01*
X14247Y6137D01*
X14286Y6164D01*
X15139Y7016D01*
X15166Y7056D01*
X15175Y7103D01*
Y7114D01*
X15176Y7121D01*
X15178Y7128D01*
X15181Y7133D01*
X15184Y7138D01*
X15188Y7143D01*
X15193Y7149D01*
X15201Y7154D01*
X15210Y7160D01*
X15226Y7167D01*
X15231Y7171D01*
X15268Y7186D01*
X15346Y7246D01*
X15380Y7290D01*
X15385Y7295D01*
X15409Y7327D01*
X15431Y7354D01*
X15452Y7377D01*
X15471Y7396D01*
X15490Y7411D01*
X15506Y7423D01*
X15521Y7431D01*
X15533Y7436D01*
X15543Y7438D01*
X15545Y7438D01*
X16196D01*
Y7343D01*
X16750D01*
Y7857D01*
X16196D01*
Y7683D01*
X15533D01*
X15523Y7685D01*
X15508Y7690D01*
X15488Y7699D01*
X15467Y7709D01*
X15339Y7790D01*
X15301Y7817D01*
X15301Y7817D01*
X15301Y7817D01*
X15295Y7820D01*
X15268Y7841D01*
X15176Y7879D01*
X15078Y7892D01*
X14981Y7879D01*
X14889Y7841D01*
X14811Y7781D01*
X14751Y7703D01*
X14713Y7612D01*
X14700Y7514D01*
X14713Y7416D01*
X14751Y7324D01*
X14811Y7246D01*
X14872Y7199D01*
X14873Y7198D01*
X14879Y7193D01*
X14889Y7186D01*
X14891Y7185D01*
X14893Y7183D01*
X14910Y7133D01*
X14149Y6372D01*
X13518D01*
X13334Y6556D01*
X13354Y6602D01*
X13823D01*
Y7116D01*
X13269D01*
Y6996D01*
X12322D01*
X12305Y6993D01*
X12006D01*
Y6734D01*
Y6474D01*
X11956Y6448D01*
X11927Y6467D01*
X11850Y6482D01*
X11785Y6469D01*
X11735Y6497D01*
Y7026D01*
X11959Y7251D01*
X12006Y7232D01*
Y7129D01*
X12265D01*
X12267Y7127D01*
X12322Y7116D01*
X12371Y7126D01*
X12577D01*
X12591Y7129D01*
X12638D01*
Y7141D01*
X12678Y7167D01*
X13032Y7521D01*
X13062Y7567D01*
X13073Y7622D01*
Y7899D01*
X13074Y7906D01*
X13074Y7911D01*
X13188D01*
Y8464D01*
X13074D01*
X13074Y8469D01*
X13073Y8476D01*
Y8621D01*
X13074Y8628D01*
X13074Y8632D01*
X13188D01*
Y9033D01*
X13235Y9053D01*
X13255Y9032D01*
X13267Y9020D01*
X13274Y9010D01*
Y8632D01*
X13788D01*
Y9186D01*
X13450D01*
X13431Y9202D01*
X13316Y9317D01*
X13335Y9364D01*
X16736D01*
X17250Y8850D01*
D02*
G37*
G36*
X12234Y8810D02*
X12232Y8803D01*
X12233Y8794D01*
X12235Y8784D01*
X12240Y8773D01*
X12247Y8761D01*
X12256Y8748D01*
X12267Y8735D01*
X12295Y8704D01*
X12258Y8628D01*
X12241Y8645D01*
X12210Y8671D01*
X12197Y8680D01*
X12185Y8687D01*
X12174Y8692D01*
X12165Y8694D01*
X12157Y8694D01*
X12150Y8691D01*
X12145Y8686D01*
X12237Y8817D01*
X12234Y8810D01*
D02*
G37*
G36*
X8783Y8723D02*
X8784Y8721D01*
X8786Y8718D01*
X8788Y8714D01*
X8792Y8710D01*
X8801Y8699D01*
X8821Y8678D01*
X8765Y8622D01*
X8760Y8626D01*
X8749Y8636D01*
X8746Y8638D01*
X8743Y8639D01*
X8741Y8640D01*
X8739Y8640D01*
X8737Y8640D01*
X8736Y8639D01*
X8783Y8725D01*
X8783Y8723D01*
D02*
G37*
G36*
X13038Y8712D02*
X13028Y8709D01*
X13019Y8703D01*
X13012Y8695D01*
X13005Y8684D01*
X13000Y8671D01*
X12996Y8656D01*
X12993Y8638D01*
X12991Y8618D01*
X12990Y8595D01*
X12872D01*
X12872Y8618D01*
X12870Y8638D01*
X12867Y8656D01*
X12863Y8671D01*
X12858Y8684D01*
X12851Y8695D01*
X12843Y8703D01*
X12835Y8709D01*
X12824Y8712D01*
X12813Y8713D01*
X13049D01*
X13038Y8712D01*
D02*
G37*
G36*
X12991Y8479D02*
X12993Y8458D01*
X12996Y8441D01*
X13000Y8425D01*
X13005Y8412D01*
X13012Y8401D01*
X13019Y8393D01*
X13028Y8387D01*
X13038Y8383D01*
X13049Y8382D01*
X12813D01*
X12824Y8383D01*
X12835Y8387D01*
X12843Y8393D01*
X12851Y8401D01*
X12858Y8412D01*
X12863Y8425D01*
X12867Y8441D01*
X12870Y8458D01*
X12872Y8479D01*
X12872Y8501D01*
X12990D01*
X12991Y8479D01*
D02*
G37*
G36*
X5600Y8360D02*
X5577Y8388D01*
X5532Y8435D01*
X5511Y8454D01*
X5490Y8470D01*
X5469Y8483D01*
X5449Y8493D01*
X5429Y8500D01*
X5410Y8505D01*
X5391Y8506D01*
X5399Y8586D01*
X5416Y8587D01*
X5434Y8591D01*
X5454Y8598D01*
X5476Y8607D01*
X5498Y8619D01*
X5523Y8633D01*
X5577Y8670D01*
X5606Y8692D01*
X5636Y8717D01*
X5600Y8360D01*
D02*
G37*
G36*
X10885Y8246D02*
X10889Y8189D01*
X10890Y8185D01*
X10892Y8182D01*
X10893Y8181D01*
X10797D01*
X10799Y8182D01*
X10800Y8185D01*
X10801Y8189D01*
X10802Y8194D01*
X10803Y8201D01*
X10804Y8221D01*
X10805Y8261D01*
X10885D01*
X10885Y8246D01*
D02*
G37*
G36*
X12757Y8052D02*
X12756Y8060D01*
X12753Y8066D01*
X12748Y8072D01*
X12741Y8077D01*
X12732Y8081D01*
X12721Y8085D01*
X12708Y8087D01*
X12693Y8089D01*
X12677Y8091D01*
X12658Y8091D01*
Y8209D01*
X12677Y8209D01*
X12708Y8213D01*
X12721Y8215D01*
X12732Y8219D01*
X12741Y8223D01*
X12748Y8228D01*
X12753Y8234D01*
X12756Y8240D01*
X12757Y8248D01*
Y8052D01*
D02*
G37*
G36*
X13038Y7991D02*
X13028Y7987D01*
X13019Y7981D01*
X13012Y7973D01*
X13005Y7962D01*
X13000Y7949D01*
X12996Y7934D01*
X12993Y7916D01*
X12991Y7896D01*
X12990Y7874D01*
X12872D01*
X12872Y7896D01*
X12870Y7916D01*
X12867Y7934D01*
X12863Y7949D01*
X12858Y7962D01*
X12851Y7973D01*
X12843Y7981D01*
X12835Y7987D01*
X12824Y7991D01*
X12813Y7992D01*
X13049D01*
X13038Y7991D01*
D02*
G37*
G36*
X4070Y7850D02*
X4063Y7842D01*
X4056Y7834D01*
X4050Y7825D01*
X4045Y7816D01*
X4041Y7806D01*
X4037Y7796D01*
X4035Y7785D01*
X4033Y7774D01*
X4032Y7763D01*
X4031Y7751D01*
X3915Y7868D01*
X3926Y7868D01*
X3938Y7869D01*
X3949Y7871D01*
X3959Y7874D01*
X3969Y7878D01*
X3979Y7882D01*
X3988Y7887D01*
X3997Y7893D01*
X4006Y7899D01*
X4014Y7907D01*
X4070Y7850D01*
D02*
G37*
G36*
X11667Y7712D02*
X11667Y7711D01*
X11666Y7709D01*
X11665Y7705D01*
X11665Y7701D01*
X11664Y7690D01*
X11664Y7667D01*
X11584D01*
X11585Y7711D01*
X11668Y7713D01*
X11667Y7712D01*
D02*
G37*
G36*
X9709Y7711D02*
X9706Y7708D01*
X9703Y7704D01*
X9701Y7699D01*
X9699Y7691D01*
X9698Y7683D01*
X9697Y7672D01*
X9695Y7647D01*
X9695Y7631D01*
X9615D01*
X9616Y7711D01*
X9712D01*
X9709Y7711D01*
D02*
G37*
G36*
X10913Y7630D02*
X11110D01*
Y7630D01*
X11349D01*
X11368Y7584D01*
X10746Y6962D01*
X9915D01*
X9911Y6963D01*
X9908Y6964D01*
X9904Y6965D01*
X9901Y6967D01*
X9897Y6969D01*
X9893Y6972D01*
X9890Y6974D01*
X9885Y6983D01*
X9819Y7027D01*
X9817Y7078D01*
X9831Y7150D01*
X9816Y7227D01*
X9800Y7251D01*
X9798Y7257D01*
X9792Y7266D01*
X9789Y7272D01*
X9786Y7279D01*
X9783Y7285D01*
X9781Y7291D01*
X9779Y7297D01*
X9778Y7302D01*
X9777Y7308D01*
Y7630D01*
X9990D01*
Y7630D01*
X10322D01*
Y7630D01*
X10581D01*
Y7630D01*
X10778D01*
Y7630D01*
X10913D01*
Y7630D01*
D02*
G37*
G36*
X16278Y7481D02*
X16277Y7488D01*
X16274Y7495D01*
X16271Y7500D01*
Y7481D01*
X16270Y7488D01*
X16268Y7495D01*
X16264Y7501D01*
X16258Y7506D01*
X16251Y7511D01*
X16242Y7514D01*
X16232Y7517D01*
X16220Y7519D01*
X16206Y7520D01*
X16191Y7521D01*
Y7601D01*
X16206Y7601D01*
X16220Y7602D01*
X16232Y7604D01*
X16242Y7607D01*
X16251Y7611D01*
X16258Y7615D01*
X16264Y7620D01*
X16268Y7626D01*
X16270Y7633D01*
X16271Y7641D01*
Y7621D01*
X16274Y7626D01*
X16277Y7633D01*
X16278Y7641D01*
Y7481D01*
D02*
G37*
G36*
X1684Y7865D02*
X1702Y7854D01*
X1724Y7844D01*
X1749Y7835D01*
X1778Y7828D01*
X1809Y7822D01*
X1844Y7817D01*
X1924Y7813D01*
X1969Y7813D01*
X1677Y7520D01*
X1677Y7565D01*
X1672Y7645D01*
X1668Y7680D01*
X1662Y7712D01*
X1655Y7741D01*
X1646Y7766D01*
X1636Y7788D01*
X1625Y7806D01*
X1612Y7821D01*
X1669Y7878D01*
X1684Y7865D01*
D02*
G37*
G36*
X5898Y7517D02*
X5889Y7525D01*
X5881Y7533D01*
X5871Y7539D01*
X5862Y7545D01*
X5853Y7549D01*
X5843Y7553D01*
X5832Y7556D01*
X5822Y7558D01*
X5811Y7560D01*
X5800Y7560D01*
Y7640D01*
X5811Y7640D01*
X5822Y7642D01*
X5832Y7644D01*
X5843Y7647D01*
X5853Y7651D01*
X5862Y7655D01*
X5871Y7661D01*
X5881Y7667D01*
X5889Y7675D01*
X5898Y7683D01*
Y7517D01*
D02*
G37*
G36*
X9514Y7711D02*
X9512Y7708D01*
X9511Y7704D01*
X9510Y7699D01*
X9509Y7691D01*
X9508Y7672D01*
X9507Y7631D01*
X9464D01*
X9507Y7624D01*
X9507Y7606D01*
X9512Y7531D01*
X9514Y7519D01*
X9519Y7497D01*
X9522Y7488D01*
X9378Y7564D01*
X9388Y7567D01*
X9396Y7571D01*
X9403Y7576D01*
X9410Y7582D01*
X9415Y7589D01*
X9419Y7597D01*
X9423Y7606D01*
X9425Y7615D01*
X9427Y7626D01*
X9427Y7637D01*
X9427Y7647D01*
X9423Y7704D01*
X9422Y7708D01*
X9421Y7711D01*
X9419Y7711D01*
X9515D01*
X9514Y7711D01*
D02*
G37*
G36*
X6967Y6873D02*
X6942Y6827D01*
X6443D01*
Y6356D01*
X6443Y6354D01*
X6443Y6353D01*
Y6273D01*
X6510D01*
X6514Y6261D01*
X6518Y6245D01*
X6522Y6201D01*
Y6179D01*
X6521Y6163D01*
X6517Y6141D01*
X6513Y6124D01*
X6508Y6113D01*
X6506Y6109D01*
X6500Y6108D01*
X6424D01*
Y5778D01*
X6397Y5738D01*
X6384Y5668D01*
Y5447D01*
X6382Y5431D01*
X6378Y5409D01*
X6374Y5392D01*
X6369Y5380D01*
X6367Y5377D01*
X6225D01*
Y4856D01*
X6216Y4854D01*
X6157Y4815D01*
X5574Y4232D01*
X4721D01*
X4582Y4371D01*
Y5555D01*
X4587Y5562D01*
X4602Y5639D01*
X4587Y5717D01*
X4543Y5782D01*
X4477Y5826D01*
X4400Y5841D01*
Y6773D01*
X4859Y7232D01*
X5108D01*
X5112Y7232D01*
X5116Y7231D01*
X5119Y7229D01*
X5123Y7227D01*
X5126Y7225D01*
X5130Y7222D01*
X5133Y7220D01*
X5139Y7212D01*
X5204Y7168D01*
X5281Y7153D01*
X5359Y7168D01*
X5424Y7212D01*
X5468Y7277D01*
X5483Y7355D01*
X5469Y7428D01*
X5470Y7440D01*
X5490Y7478D01*
X5809D01*
X5813Y7477D01*
X5816Y7476D01*
X5820Y7475D01*
X5823Y7473D01*
X5827Y7471D01*
X5831Y7468D01*
X5834Y7466D01*
X5839Y7457D01*
X5905Y7413D01*
X5982Y7398D01*
X6059Y7413D01*
X6125Y7457D01*
X6169Y7523D01*
X6182Y7587D01*
X6229Y7610D01*
X6967Y6873D01*
D02*
G37*
G36*
X3719Y7525D02*
X3728Y7517D01*
X3737Y7511D01*
X3746Y7505D01*
X3756Y7501D01*
X3766Y7497D01*
X3776Y7494D01*
X3786Y7492D01*
X3797Y7490D01*
X3808Y7490D01*
Y7410D01*
X3797Y7410D01*
X3786Y7408D01*
X3776Y7406D01*
X3766Y7403D01*
X3756Y7399D01*
X3746Y7395D01*
X3737Y7389D01*
X3728Y7383D01*
X3719Y7375D01*
X3711Y7367D01*
Y7533D01*
X3719Y7525D01*
D02*
G37*
G36*
X15293Y7723D02*
X15427Y7638D01*
X15454Y7625D01*
X15479Y7614D01*
X15501Y7607D01*
X15521Y7602D01*
X15538Y7601D01*
X15551Y7521D01*
X15529Y7519D01*
X15508Y7514D01*
X15486Y7505D01*
X15463Y7492D01*
X15440Y7476D01*
X15417Y7457D01*
X15393Y7434D01*
X15369Y7407D01*
X15344Y7377D01*
X15320Y7343D01*
X15254Y7751D01*
X15293Y7723D01*
D02*
G37*
G36*
X7189Y7469D02*
X7197Y7463D01*
X7206Y7457D01*
X7215Y7452D01*
X7225Y7449D01*
X7235Y7446D01*
X7245Y7444D01*
X7256Y7443D01*
X7267Y7443D01*
X7278Y7445D01*
X7177Y7314D01*
X7175Y7326D01*
X7173Y7337D01*
X7170Y7348D01*
X7166Y7359D01*
X7162Y7369D01*
X7157Y7378D01*
X7152Y7388D01*
X7146Y7397D01*
X7139Y7405D01*
X7131Y7413D01*
X7180Y7477D01*
X7189Y7469D01*
D02*
G37*
G36*
X5197Y7272D02*
X5189Y7280D01*
X5180Y7287D01*
X5171Y7294D01*
X5161Y7299D01*
X5152Y7304D01*
X5142Y7308D01*
X5132Y7311D01*
X5121Y7313D01*
X5110Y7314D01*
X5099Y7315D01*
Y7395D01*
X5110Y7395D01*
X5121Y7396D01*
X5132Y7398D01*
X5142Y7401D01*
X5152Y7405D01*
X5161Y7410D01*
X5171Y7415D01*
X5180Y7422D01*
X5189Y7429D01*
X5197Y7437D01*
Y7272D01*
D02*
G37*
G36*
X9695Y7319D02*
X9695Y7308D01*
X9696Y7298D01*
X9698Y7287D01*
X9700Y7277D01*
X9703Y7266D01*
X9707Y7256D01*
X9711Y7245D01*
X9716Y7235D01*
X9722Y7225D01*
X9728Y7214D01*
X9567Y7250D01*
X9576Y7257D01*
X9584Y7263D01*
X9591Y7271D01*
X9598Y7279D01*
X9603Y7287D01*
X9607Y7296D01*
X9611Y7306D01*
X9613Y7316D01*
X9614Y7327D01*
X9615Y7338D01*
X9695Y7319D01*
D02*
G37*
G36*
X9014Y7302D02*
X9017Y7300D01*
X9021Y7297D01*
X9026Y7295D01*
X9033Y7293D01*
X9042Y7291D01*
X9053Y7290D01*
X9078Y7289D01*
X9093Y7289D01*
Y7209D01*
X9013Y7210D01*
Y7306D01*
X9014Y7302D01*
D02*
G37*
G36*
X15191Y7241D02*
X15173Y7232D01*
X15156Y7222D01*
X15141Y7211D01*
X15128Y7199D01*
X15117Y7186D01*
X15108Y7171D01*
X15102Y7156D01*
X15097Y7139D01*
X15094Y7122D01*
X15093Y7103D01*
X15013D01*
X15012Y7123D01*
X15009Y7142D01*
X15004Y7160D01*
X14998Y7178D01*
X14989Y7195D01*
X14979Y7210D01*
X14967Y7225D01*
X14953Y7239D01*
X14937Y7252D01*
X14920Y7265D01*
X15191Y7241D01*
D02*
G37*
G36*
X7890Y7160D02*
X7899Y7153D01*
X7907Y7147D01*
X7916Y7141D01*
X7926Y7135D01*
X7935Y7130D01*
X7946Y7126D01*
X7968Y7118D01*
X7979Y7114D01*
X7836Y7032D01*
X7839Y7042D01*
X7840Y7053D01*
X7840Y7063D01*
X7839Y7073D01*
X7837Y7082D01*
X7834Y7092D01*
X7830Y7101D01*
X7824Y7110D01*
X7818Y7118D01*
X7810Y7127D01*
X7883Y7167D01*
X7890Y7160D01*
D02*
G37*
G36*
X9013Y7102D02*
X9014Y7100D01*
X9017Y7098D01*
X9021Y7096D01*
X9026Y7095D01*
X9032Y7094D01*
X9039Y7093D01*
X9056Y7092D01*
X9067Y7091D01*
Y7011D01*
X9013Y7013D01*
X9012Y7105D01*
X9013Y7102D01*
D02*
G37*
G36*
X8290Y6971D02*
X8292Y6960D01*
X8294Y6950D01*
X8297Y6940D01*
X8301Y6930D01*
X8305Y6920D01*
X8311Y6911D01*
X8317Y6902D01*
X8325Y6893D01*
X8333Y6884D01*
X8167D01*
X8175Y6893D01*
X8183Y6902D01*
X8189Y6911D01*
X8195Y6920D01*
X8199Y6930D01*
X8203Y6940D01*
X8206Y6950D01*
X8208Y6960D01*
X8210Y6971D01*
X8210Y6982D01*
X8290D01*
X8290Y6971D01*
D02*
G37*
G36*
X3756Y6871D02*
X3729Y6897D01*
X3679Y6942D01*
X3655Y6960D01*
X3632Y6975D01*
X3610Y6988D01*
X3589Y6997D01*
X3570Y7004D01*
X3551Y7009D01*
X3533Y7010D01*
Y7090D01*
X3551Y7091D01*
X3570Y7096D01*
X3589Y7103D01*
X3610Y7112D01*
X3632Y7125D01*
X3655Y7140D01*
X3679Y7158D01*
X3729Y7203D01*
X3756Y7229D01*
Y6871D01*
D02*
G37*
G36*
X2354Y6789D02*
X2342Y6776D01*
X2331Y6758D01*
X2321Y6737D01*
X2311Y6712D01*
X2302Y6683D01*
X2286Y6614D01*
X2279Y6574D01*
X2266Y6483D01*
X2013Y6810D01*
X2055Y6805D01*
X2131Y6801D01*
X2164Y6802D01*
X2195Y6806D01*
X2223Y6811D01*
X2247Y6819D01*
X2269Y6828D01*
X2288Y6840D01*
X2305Y6853D01*
X2354Y6789D01*
D02*
G37*
G36*
X13351Y6764D02*
X13350Y6773D01*
X13347Y6782D01*
X13342Y6789D01*
X13335Y6796D01*
X13326Y6801D01*
X13315Y6806D01*
X13302Y6809D01*
X13287Y6812D01*
X13270Y6813D01*
X13250Y6814D01*
Y6914D01*
X13270Y6914D01*
X13287Y6916D01*
X13302Y6918D01*
X13315Y6922D01*
X13326Y6926D01*
X13335Y6932D01*
X13342Y6938D01*
X13347Y6946D01*
X13350Y6954D01*
X13351Y6964D01*
Y6764D01*
D02*
G37*
G36*
X9835Y6915D02*
X9844Y6907D01*
X9853Y6901D01*
X9862Y6895D01*
X9872Y6891D01*
X9882Y6887D01*
X9892Y6884D01*
X9902Y6882D01*
X9913Y6880D01*
X9924Y6880D01*
Y6800D01*
X9913Y6800D01*
X9902Y6798D01*
X9892Y6796D01*
X9882Y6793D01*
X9872Y6789D01*
X9862Y6785D01*
X9853Y6779D01*
X9844Y6773D01*
X9835Y6765D01*
X9826Y6757D01*
Y6923D01*
X9835Y6915D01*
D02*
G37*
G36*
X11178Y6983D02*
Y6446D01*
X11177Y6443D01*
X11176Y6439D01*
X11175Y6436D01*
X11173Y6432D01*
X11171Y6428D01*
X11168Y6425D01*
X11166Y6422D01*
X11157Y6416D01*
X11113Y6351D01*
X11098Y6273D01*
X11113Y6196D01*
X11157Y6131D01*
X11223Y6087D01*
X11287Y6074D01*
X11301Y6069D01*
X11324Y6025D01*
X11320Y6005D01*
Y5115D01*
X11240Y5035D01*
X11240Y5035D01*
X11229Y5023D01*
X11224Y5019D01*
X11214Y5013D01*
X11203Y5007D01*
X11191Y5002D01*
X11178Y4998D01*
X11164Y4995D01*
X11149Y4993D01*
X11138Y4992D01*
X9094D01*
Y5197D01*
X9144Y5220D01*
X9192Y5188D01*
X9270Y5173D01*
X9347Y5188D01*
X9412Y5232D01*
X9456Y5297D01*
X9468Y5355D01*
X9509Y5398D01*
X9586Y5413D01*
X9652Y5457D01*
X9696Y5523D01*
X9711Y5600D01*
X9696Y5677D01*
X9652Y5743D01*
X9586Y5787D01*
X9552Y5793D01*
Y6678D01*
X9587Y6692D01*
X9602Y6696D01*
X9665Y6654D01*
X9742Y6638D01*
X9819Y6654D01*
X9885Y6697D01*
X9890Y6706D01*
X9893Y6708D01*
X9897Y6711D01*
X9901Y6713D01*
X9904Y6715D01*
X9908Y6716D01*
X9911Y6717D01*
X9915Y6718D01*
X10797D01*
X10844Y6727D01*
X10883Y6754D01*
X11132Y7002D01*
X11178Y6983D01*
D02*
G37*
G36*
X12557Y6713D02*
X12560Y6712D01*
X12564Y6711D01*
X12569Y6710D01*
X12577Y6709D01*
X12596Y6708D01*
X12637Y6707D01*
Y6627D01*
X12621Y6627D01*
X12564Y6623D01*
X12560Y6622D01*
X12557Y6621D01*
X12557Y6619D01*
Y6715D01*
X12557Y6713D01*
D02*
G37*
G36*
Y6517D02*
X12560Y6515D01*
X12564Y6514D01*
X12569Y6513D01*
X12577Y6512D01*
X12596Y6511D01*
X12637Y6510D01*
Y6430D01*
X12621Y6430D01*
X12564Y6426D01*
X12560Y6425D01*
X12557Y6424D01*
X12557Y6422D01*
Y6518D01*
X12557Y6517D01*
D02*
G37*
G36*
X8543Y6422D02*
X8543Y6423D01*
X8540Y6425D01*
X8536Y6426D01*
X8531Y6427D01*
X8523Y6428D01*
X8504Y6429D01*
X8463Y6430D01*
Y6510D01*
X8479Y6510D01*
X8536Y6514D01*
X8540Y6515D01*
X8543Y6516D01*
X8543Y6518D01*
Y6422D01*
D02*
G37*
G36*
X11340Y6444D02*
X11342Y6434D01*
X11344Y6423D01*
X11347Y6413D01*
X11351Y6403D01*
X11355Y6393D01*
X11361Y6384D01*
X11367Y6375D01*
X11375Y6366D01*
X11383Y6358D01*
X11217D01*
X11225Y6366D01*
X11233Y6375D01*
X11239Y6384D01*
X11245Y6393D01*
X11249Y6403D01*
X11253Y6413D01*
X11256Y6423D01*
X11258Y6434D01*
X11260Y6444D01*
X11260Y6455D01*
X11340D01*
X11340Y6444D01*
D02*
G37*
G36*
X8543Y6225D02*
X8543Y6227D01*
X8540Y6229D01*
X8536Y6231D01*
X8531Y6233D01*
X8523Y6234D01*
X8515Y6235D01*
X8492Y6236D01*
X8463Y6237D01*
Y6317D01*
X8479Y6317D01*
X8543Y6320D01*
X8543Y6321D01*
Y6225D01*
D02*
G37*
G36*
X11947Y6349D02*
X11955Y6342D01*
X11964Y6335D01*
X11973Y6329D01*
X11982Y6324D01*
X11992Y6320D01*
X12002Y6317D01*
X12012Y6315D01*
X12023Y6314D01*
X12026Y6314D01*
X12079Y6317D01*
X12083Y6318D01*
X12086Y6320D01*
X12087Y6321D01*
Y6225D01*
X12086Y6227D01*
X12083Y6228D01*
X12079Y6229D01*
X12074Y6230D01*
X12067Y6231D01*
X12047Y6233D01*
X12022Y6233D01*
X12018Y6233D01*
X12008Y6232D01*
X11997Y6230D01*
X11987Y6227D01*
X11977Y6223D01*
X11967Y6219D01*
X11957Y6213D01*
X11948Y6207D01*
X11939Y6200D01*
X11930Y6193D01*
X11939Y6358D01*
X11947Y6349D01*
D02*
G37*
G36*
X8315Y6352D02*
X8323Y6345D01*
X8332Y6338D01*
X8342Y6332D01*
X8351Y6328D01*
X8361Y6324D01*
X8371Y6321D01*
X8381Y6318D01*
X8392Y6317D01*
X8403Y6317D01*
X8401Y6237D01*
X8390Y6236D01*
X8379Y6235D01*
X8369Y6233D01*
X8358Y6230D01*
X8348Y6226D01*
X8339Y6222D01*
X8329Y6216D01*
X8320Y6210D01*
X8311Y6203D01*
X8302Y6195D01*
X8307Y6360D01*
X8315Y6352D01*
D02*
G37*
G36*
X8543Y6028D02*
X8543Y6030D01*
X8540Y6031D01*
X8536Y6032D01*
X8531Y6033D01*
X8523Y6034D01*
X8504Y6036D01*
X8463Y6036D01*
Y6116D01*
X8479Y6116D01*
X8536Y6120D01*
X8540Y6121D01*
X8543Y6123D01*
X8543Y6124D01*
Y6028D01*
D02*
G37*
G36*
X6862Y6352D02*
X6850Y6346D01*
X6839Y6337D01*
X6829Y6323D01*
X6821Y6305D01*
X6814Y6283D01*
X6809Y6258D01*
X6806Y6228D01*
X6803Y6195D01*
X6803Y6186D01*
X6808Y6123D01*
X6811Y6098D01*
X6816Y6076D01*
X6822Y6058D01*
X6829Y6045D01*
X6837Y6035D01*
X6847Y6029D01*
X6857Y6027D01*
X6507D01*
X6526Y6029D01*
X6543Y6035D01*
X6558Y6045D01*
X6570Y6058D01*
X6581Y6076D01*
X6590Y6098D01*
X6597Y6123D01*
X6602Y6153D01*
X6605Y6186D01*
X6605Y6194D01*
X6605Y6195D01*
X6598Y6258D01*
X6593Y6283D01*
X6585Y6305D01*
X6576Y6323D01*
X6566Y6337D01*
X6553Y6346D01*
X6540Y6352D01*
X6524Y6354D01*
X6876D01*
X6862Y6352D01*
D02*
G37*
G36*
X1541Y6071D02*
X1542Y6055D01*
X1545Y6040D01*
X1549Y6026D01*
X1554Y6012D01*
X1560Y5999D01*
X1568Y5986D01*
X1576Y5973D01*
X1586Y5961D01*
X1597Y5950D01*
X1472Y5961D01*
X1500Y5990D01*
X1540Y6086D01*
X1541Y6071D01*
D02*
G37*
G36*
X1197Y6190D02*
X1248Y6146D01*
X1272Y6128D01*
X1295Y6113D01*
X1317Y6101D01*
X1338Y6091D01*
X1358Y6084D01*
X1377Y6080D01*
X1395Y6078D01*
X1396Y5998D01*
X1378Y5997D01*
X1359Y5993D01*
X1339Y5986D01*
X1318Y5976D01*
X1296Y5963D01*
X1274Y5948D01*
X1250Y5930D01*
X1200Y5885D01*
X1174Y5858D01*
X1169Y6217D01*
X1197Y6190D01*
D02*
G37*
G36*
X14839Y5967D02*
X14857Y5954D01*
X14879Y5942D01*
X14903Y5931D01*
X14930Y5921D01*
X14961Y5912D01*
X15029Y5897D01*
X15068Y5891D01*
X15110Y5886D01*
X14793Y5668D01*
X14802Y5703D01*
X14807Y5736D01*
X14811Y5767D01*
X14812Y5796D01*
X14811Y5823D01*
X14807Y5847D01*
X14800Y5869D01*
X14791Y5890D01*
X14780Y5908D01*
X14766Y5924D01*
X14823Y5980D01*
X14839Y5967D01*
D02*
G37*
G36*
X8543Y5635D02*
X8543Y5636D01*
X8540Y5637D01*
X8536Y5639D01*
X8531Y5640D01*
X8523Y5641D01*
X8504Y5642D01*
X8463Y5643D01*
Y5723D01*
X8479Y5723D01*
X8536Y5727D01*
X8540Y5728D01*
X8543Y5729D01*
X8543Y5731D01*
Y5635D01*
D02*
G37*
G36*
X12557Y5727D02*
X12559Y5724D01*
X12563Y5722D01*
X12568Y5720D01*
X12574Y5718D01*
X12582Y5716D01*
X12591Y5715D01*
X12613Y5714D01*
X12627Y5713D01*
Y5633D01*
X12557Y5635D01*
Y5731D01*
X12557Y5727D01*
D02*
G37*
G36*
X8140Y5762D02*
X8144Y5754D01*
X8149Y5746D01*
X8155Y5740D01*
X8162Y5735D01*
X8170Y5730D01*
X8178Y5727D01*
X8188Y5725D01*
X8199Y5723D01*
X8210Y5723D01*
X8197Y5643D01*
X8179Y5642D01*
X8103Y5637D01*
X8091Y5636D01*
X8070Y5631D01*
X8061Y5628D01*
X8137Y5771D01*
X8140Y5762D01*
D02*
G37*
G36*
X9470Y5770D02*
X9471Y5760D01*
X9474Y5750D01*
X9477Y5742D01*
X9481Y5735D01*
X9485Y5729D01*
X9491Y5724D01*
X9498Y5721D01*
X9505Y5719D01*
X9513Y5718D01*
X9393Y5621D01*
X9390Y5758D01*
X9470Y5782D01*
X9470Y5770D01*
D02*
G37*
G36*
X16281Y5470D02*
X16281Y5478D01*
X16278Y5484D01*
X16275Y5489D01*
Y5470D01*
X16274Y5478D01*
X16272Y5484D01*
X16267Y5490D01*
X16262Y5496D01*
X16254Y5500D01*
X16246Y5504D01*
X16235Y5506D01*
X16223Y5508D01*
X16209Y5510D01*
X16194Y5510D01*
Y5590D01*
X16209Y5590D01*
X16223Y5592D01*
X16235Y5594D01*
X16246Y5596D01*
X16254Y5600D01*
X16262Y5604D01*
X16267Y5610D01*
X16272Y5616D01*
X16274Y5622D01*
X16275Y5630D01*
Y5611D01*
X16278Y5616D01*
X16281Y5622D01*
X16281Y5630D01*
Y5470D01*
D02*
G37*
G36*
X1684Y5865D02*
X1702Y5854D01*
X1724Y5844D01*
X1749Y5835D01*
X1778Y5828D01*
X1809Y5822D01*
X1844Y5817D01*
X1924Y5813D01*
X1969Y5813D01*
X1677Y5520D01*
X1677Y5565D01*
X1672Y5645D01*
X1668Y5680D01*
X1662Y5712D01*
X1655Y5741D01*
X1646Y5766D01*
X1636Y5788D01*
X1625Y5806D01*
X1612Y5821D01*
X1669Y5878D01*
X1684Y5865D01*
D02*
G37*
G36*
X9310Y5546D02*
X9311Y5535D01*
X9314Y5525D01*
X9317Y5514D01*
X9320Y5504D01*
X9325Y5495D01*
X9331Y5485D01*
X9337Y5476D01*
X9344Y5468D01*
X9352Y5459D01*
X9187D01*
X9195Y5468D01*
X9202Y5476D01*
X9209Y5485D01*
X9214Y5495D01*
X9219Y5504D01*
X9223Y5514D01*
X9226Y5525D01*
X9228Y5535D01*
X9229Y5546D01*
X9230Y5557D01*
X9310D01*
X9310Y5546D01*
D02*
G37*
G36*
X12087Y5438D02*
X12086Y5438D01*
X12083Y5438D01*
X12067Y5437D01*
X12007Y5437D01*
Y5517D01*
X12022Y5517D01*
X12058Y5520D01*
X12067Y5521D01*
X12074Y5523D01*
X12079Y5525D01*
X12083Y5528D01*
X12086Y5531D01*
X12087Y5534D01*
Y5438D01*
D02*
G37*
G36*
X15342Y5733D02*
X15392Y5677D01*
X15416Y5654D01*
X15440Y5634D01*
X15463Y5618D01*
X15486Y5606D01*
X15508Y5597D01*
X15530Y5592D01*
X15551Y5590D01*
X15539Y5510D01*
X15522Y5508D01*
X15502Y5504D01*
X15480Y5496D01*
X15455Y5486D01*
X15428Y5472D01*
X15367Y5435D01*
X15296Y5387D01*
X15258Y5358D01*
X15317Y5767D01*
X15342Y5733D01*
D02*
G37*
G36*
X6744Y5635D02*
X6727Y5629D01*
X6712Y5619D01*
X6699Y5605D01*
X6688Y5587D01*
X6680Y5565D01*
X6673Y5539D01*
X6668Y5510D01*
X6665Y5476D01*
X6665Y5465D01*
X6665Y5455D01*
X6668Y5421D01*
X6673Y5391D01*
X6680Y5366D01*
X6688Y5344D01*
X6699Y5326D01*
X6712Y5312D01*
X6727Y5302D01*
X6744Y5296D01*
X6762Y5294D01*
X6369D01*
X6387Y5296D01*
X6404Y5302D01*
X6419Y5312D01*
X6432Y5326D01*
X6442Y5344D01*
X6451Y5366D01*
X6458Y5391D01*
X6463Y5421D01*
X6466Y5455D01*
X6467Y5492D01*
X6477D01*
X6505Y5636D01*
X6762Y5637D01*
X6744Y5635D01*
D02*
G37*
G36*
X7884Y5956D02*
X7891Y5951D01*
Y5890D01*
X7880Y5883D01*
X7836Y5817D01*
X7821Y5740D01*
X7836Y5663D01*
X7880Y5597D01*
X7945Y5554D01*
X8023Y5538D01*
X8083Y5550D01*
X8084Y5550D01*
X8086Y5551D01*
X8100Y5554D01*
X8101Y5554D01*
X8106Y5555D01*
X8112Y5556D01*
X8172Y5560D01*
X8462D01*
Y5357D01*
X8462D01*
Y5160D01*
X8462D01*
Y4992D01*
X7815D01*
X7808Y4992D01*
X7803Y4993D01*
Y5107D01*
X7132D01*
Y4993D01*
X7128Y4992D01*
X7120Y4992D01*
X6869D01*
X6862Y4992D01*
X6857Y4993D01*
Y5377D01*
X6764D01*
X6761Y5380D01*
X6757Y5392D01*
X6752Y5409D01*
X6749Y5431D01*
X6747Y5447D01*
Y5483D01*
X6749Y5500D01*
X6752Y5522D01*
X6757Y5539D01*
X6761Y5550D01*
X6764Y5554D01*
X6938D01*
Y6025D01*
X6938Y6027D01*
X6938Y6029D01*
Y6108D01*
X6893D01*
X6892Y6113D01*
X6889Y6132D01*
X6886Y6169D01*
Y6210D01*
X6887Y6221D01*
X6890Y6245D01*
X6894Y6264D01*
X6896Y6273D01*
X6957D01*
Y6353D01*
X6957Y6354D01*
X6957Y6356D01*
Y6812D01*
X7003Y6836D01*
X7884Y5956D01*
D02*
G37*
G36*
X13048Y4892D02*
X13049Y4878D01*
X13051Y4866D01*
X13054Y4856D01*
X13057Y4847D01*
X13062Y4839D01*
X13067Y4834D01*
X13073Y4830D01*
X13080Y4827D01*
X13087Y4826D01*
X12927D01*
X12935Y4827D01*
X12942Y4830D01*
X12948Y4834D01*
X12953Y4839D01*
X12957Y4847D01*
X12961Y4856D01*
X12964Y4866D01*
X12966Y4878D01*
X12967Y4892D01*
X12967Y4908D01*
X13047D01*
X13048Y4892D01*
D02*
G37*
G36*
X2336Y4816D02*
X2324Y4801D01*
X2312Y4783D01*
X2302Y4761D01*
X2294Y4736D01*
X2286Y4708D01*
X2280Y4676D01*
X2275Y4641D01*
X2269Y4560D01*
X2268Y4514D01*
X1981Y4812D01*
X2026Y4812D01*
X2105Y4815D01*
X2140Y4819D01*
X2172Y4824D01*
X2200Y4831D01*
X2225Y4840D01*
X2247Y4850D01*
X2266Y4861D01*
X2281Y4874D01*
X2336Y4816D01*
D02*
G37*
G36*
X11467Y4875D02*
X11447Y4875D01*
X11428Y4873D01*
X11409Y4869D01*
X11391Y4865D01*
X11374Y4859D01*
X11357Y4851D01*
X11341Y4842D01*
X11326Y4832D01*
X11312Y4821D01*
X11298Y4808D01*
X11341Y4934D01*
X11467Y4875D01*
D02*
G37*
G36*
X11523Y4963D02*
X11537Y4952D01*
X11551Y4942D01*
X11566Y4933D01*
X11581Y4926D01*
X11597Y4920D01*
X11613Y4915D01*
X11629Y4912D01*
X11646Y4910D01*
X11663Y4909D01*
X11552Y4791D01*
Y4850D01*
X11509Y4976D01*
X11523Y4963D01*
D02*
G37*
G36*
X11256Y4850D02*
Y4791D01*
X11114Y4909D01*
X11137Y4910D01*
X11159Y4912D01*
X11180Y4915D01*
X11200Y4920D01*
X11219Y4926D01*
X11237Y4933D01*
X11254Y4942D01*
X11270Y4952D01*
X11285Y4963D01*
X11299Y4976D01*
X11256Y4850D01*
D02*
G37*
G36*
X7723Y4957D02*
X7727Y4947D01*
X7733Y4938D01*
X7741Y4930D01*
X7752Y4924D01*
X7765Y4918D01*
X7780Y4914D01*
X7798Y4911D01*
X7818Y4910D01*
X7840Y4909D01*
Y4791D01*
X7818Y4790D01*
X7798Y4789D01*
X7780Y4786D01*
X7765Y4782D01*
X7752Y4776D01*
X7741Y4770D01*
X7733Y4762D01*
X7727Y4753D01*
X7723Y4743D01*
X7722Y4732D01*
Y4968D01*
X7723Y4957D01*
D02*
G37*
G36*
X7214Y4732D02*
X7213Y4743D01*
X7209Y4753D01*
X7203Y4762D01*
X7195Y4770D01*
X7184Y4776D01*
X7171Y4782D01*
X7156Y4786D01*
X7138Y4789D01*
X7117Y4790D01*
X7095Y4791D01*
Y4909D01*
X7117Y4910D01*
X7138Y4911D01*
X7156Y4914D01*
X7171Y4918D01*
X7184Y4924D01*
X7195Y4930D01*
X7203Y4938D01*
X7209Y4947D01*
X7213Y4957D01*
X7214Y4968D01*
Y4732D01*
D02*
G37*
G36*
X6776Y4957D02*
X6780Y4947D01*
X6786Y4938D01*
X6794Y4930D01*
X6805Y4924D01*
X6818Y4918D01*
X6834Y4914D01*
X6851Y4911D01*
X6872Y4910D01*
X6894Y4909D01*
Y4791D01*
X6872Y4790D01*
X6851Y4789D01*
X6834Y4786D01*
X6818Y4782D01*
X6805Y4776D01*
X6794Y4770D01*
X6786Y4762D01*
X6780Y4753D01*
X6776Y4743D01*
X6775Y4732D01*
Y4968D01*
X6776Y4957D01*
D02*
G37*
G36*
X13534Y4572D02*
X13534Y4579D01*
X13531Y4586D01*
X13527Y4592D01*
X13521Y4597D01*
X13514Y4602D01*
X13505Y4605D01*
X13494Y4608D01*
X13482Y4610D01*
X13469Y4611D01*
X13453Y4612D01*
Y4692D01*
X13468Y4692D01*
X13504Y4694D01*
X13513Y4696D01*
X13520Y4697D01*
X13526Y4699D01*
X13530Y4702D01*
X13532Y4705D01*
X13533Y4708D01*
X13534Y4572D01*
D02*
G37*
G36*
X13203Y4724D02*
X13205Y4717D01*
X13209Y4711D01*
X13215Y4706D01*
X13222Y4702D01*
X13231Y4698D01*
X13242Y4695D01*
X13254Y4693D01*
X13268Y4692D01*
X13283Y4692D01*
Y4612D01*
X13268Y4611D01*
X13254Y4610D01*
X13242Y4608D01*
X13231Y4605D01*
X13222Y4602D01*
X13215Y4597D01*
X13209Y4592D01*
X13205Y4586D01*
X13203Y4579D01*
X13202Y4572D01*
Y4732D01*
X13203Y4724D01*
D02*
G37*
G36*
X7657Y4674D02*
X7647Y4670D01*
X7638Y4665D01*
X7630Y4656D01*
X7624Y4645D01*
X7618Y4632D01*
X7614Y4617D01*
X7611Y4599D01*
X7610Y4579D01*
X7609Y4556D01*
X7491D01*
X7490Y4579D01*
X7489Y4599D01*
X7486Y4617D01*
X7481Y4632D01*
X7476Y4645D01*
X7470Y4656D01*
X7462Y4665D01*
X7453Y4670D01*
X7443Y4674D01*
X7432Y4675D01*
X7668D01*
X7657Y4674D01*
D02*
G37*
G36*
X12292Y4625D02*
X12301Y4619D01*
X12309Y4614D01*
X12318Y4610D01*
X12327Y4607D01*
X12336Y4606D01*
X12345Y4606D01*
X12354Y4607D01*
X12363Y4610D01*
X12372Y4614D01*
X12318Y4460D01*
X12314Y4469D01*
X12304Y4487D01*
X12298Y4496D01*
X12286Y4513D01*
X12280Y4522D01*
X12265Y4538D01*
X12258Y4545D01*
X12283Y4633D01*
X12292Y4625D01*
D02*
G37*
G36*
X9067Y4432D02*
X9055Y4432D01*
X9044Y4431D01*
X9033Y4429D01*
X9022Y4426D01*
X9012Y4422D01*
X9002Y4418D01*
X8993Y4413D01*
X8984Y4407D01*
X8976Y4401D01*
X8968Y4393D01*
X8911Y4450D01*
X8918Y4458D01*
X8925Y4466D01*
X8931Y4475D01*
X8936Y4484D01*
X8940Y4494D01*
X8944Y4504D01*
X8947Y4515D01*
X8948Y4526D01*
X8950Y4537D01*
X8950Y4549D01*
X9067Y4432D01*
D02*
G37*
G36*
X6719Y4587D02*
X6703Y4581D01*
X6688Y4571D01*
X6675Y4558D01*
X6664Y4540D01*
X6655Y4518D01*
X6649Y4493D01*
X6644Y4463D01*
X6641Y4430D01*
X6640Y4392D01*
X6443D01*
X6442Y4430D01*
X6439Y4463D01*
X6434Y4493D01*
X6427Y4518D01*
X6418Y4540D01*
X6407Y4558D01*
X6395Y4571D01*
X6380Y4581D01*
X6363Y4587D01*
X6344Y4589D01*
X6738D01*
X6719Y4587D01*
D02*
G37*
G36*
X13666Y4357D02*
X13659Y4360D01*
X13650Y4361D01*
X13640Y4359D01*
X13628Y4354D01*
X13614Y4347D01*
X13599Y4337D01*
X13583Y4324D01*
X13546Y4291D01*
X13525Y4271D01*
X13477Y4336D01*
X13493Y4353D01*
X13520Y4384D01*
X13529Y4397D01*
X13536Y4409D01*
X13541Y4420D01*
X13543Y4429D01*
X13543Y4437D01*
X13540Y4444D01*
X13534Y4449D01*
X13666Y4357D01*
D02*
G37*
G36*
X8739Y4424D02*
X8730Y4419D01*
X8722Y4413D01*
X8714Y4407D01*
X8708Y4400D01*
X8702Y4392D01*
X8698Y4384D01*
X8694Y4375D01*
X8692Y4365D01*
X8690Y4354D01*
X8690Y4343D01*
X8610Y4375D01*
X8610Y4386D01*
X8608Y4407D01*
X8606Y4417D01*
X8601Y4438D01*
X8598Y4449D01*
X8589Y4471D01*
X8585Y4482D01*
X8739Y4424D01*
D02*
G37*
G36*
X9420Y4288D02*
X9419Y4296D01*
X9417Y4303D01*
X9413Y4309D01*
X9407Y4314D01*
X9400Y4318D01*
X9391Y4322D01*
X9380Y4325D01*
X9368Y4327D01*
X9354Y4328D01*
X9339Y4328D01*
Y4408D01*
X9354Y4409D01*
X9368Y4410D01*
X9380Y4412D01*
X9391Y4415D01*
X9400Y4418D01*
X9407Y4423D01*
X9413Y4428D01*
X9417Y4434D01*
X9419Y4441D01*
X9420Y4448D01*
Y4288D01*
D02*
G37*
G36*
X9257Y4300D02*
X9249Y4292D01*
X9243Y4284D01*
X9237Y4275D01*
X9232Y4266D01*
X9228Y4256D01*
X9224Y4246D01*
X9221Y4235D01*
X9219Y4224D01*
X9218Y4213D01*
X9218Y4201D01*
X9101Y4318D01*
X9113Y4318D01*
X9124Y4319D01*
X9135Y4321D01*
X9146Y4324D01*
X9156Y4328D01*
X9166Y4332D01*
X9175Y4337D01*
X9184Y4343D01*
X9192Y4349D01*
X9200Y4357D01*
X9257Y4300D01*
D02*
G37*
G36*
X2969Y4222D02*
X2924Y4222D01*
X2844Y4217D01*
X2809Y4213D01*
X2778Y4207D01*
X2749Y4200D01*
X2724Y4191D01*
X2702Y4181D01*
X2684Y4170D01*
X2669Y4157D01*
X2612Y4213D01*
X2625Y4229D01*
X2636Y4247D01*
X2646Y4269D01*
X2655Y4294D01*
X2662Y4322D01*
X2668Y4354D01*
X2672Y4389D01*
X2677Y4469D01*
X2677Y4514D01*
X2969Y4222D01*
D02*
G37*
G36*
X1969D02*
X1924Y4222D01*
X1844Y4217D01*
X1809Y4213D01*
X1778Y4207D01*
X1749Y4200D01*
X1724Y4191D01*
X1702Y4181D01*
X1684Y4170D01*
X1669Y4157D01*
X1612Y4213D01*
X1625Y4229D01*
X1636Y4247D01*
X1646Y4269D01*
X1655Y4294D01*
X1662Y4322D01*
X1668Y4354D01*
X1672Y4389D01*
X1677Y4469D01*
X1677Y4514D01*
X1969Y4222D01*
D02*
G37*
G36*
X9709Y4167D02*
X9706Y4165D01*
X9703Y4161D01*
X9701Y4156D01*
X9699Y4149D01*
X9698Y4141D01*
X9696Y4131D01*
X9695Y4107D01*
X9695Y4093D01*
X9615D01*
X9616Y4168D01*
X9712D01*
X9709Y4167D01*
D02*
G37*
G36*
X11481Y4167D02*
X11478Y4165D01*
X11475Y4161D01*
X11473Y4155D01*
X11471Y4148D01*
X11469Y4139D01*
X11468Y4129D01*
X11467Y4103D01*
X11467Y4088D01*
X11387D01*
X11388Y4168D01*
X11484D01*
X11481Y4167D01*
D02*
G37*
G36*
X9908Y4167D02*
X9906Y4165D01*
X9905Y4161D01*
X9904Y4155D01*
X9903Y4148D01*
X9902Y4129D01*
X9901Y4088D01*
X9821D01*
X9821Y4103D01*
X9817Y4161D01*
X9816Y4165D01*
X9815Y4167D01*
X9813Y4168D01*
X9909D01*
X9908Y4167D01*
D02*
G37*
G36*
X12812Y3934D02*
X12811Y3945D01*
X12807Y3955D01*
X12801Y3964D01*
X12793Y3971D01*
X12782Y3978D01*
X12769Y3983D01*
X12754Y3987D01*
X12736Y3990D01*
X12716Y3992D01*
X12694Y3993D01*
Y4111D01*
X12716Y4111D01*
X12736Y4113D01*
X12754Y4116D01*
X12769Y4120D01*
X12782Y4125D01*
X12793Y4132D01*
X12801Y4140D01*
X12807Y4148D01*
X12811Y4159D01*
X12812Y4170D01*
Y3934D01*
D02*
G37*
G36*
X9647Y4028D02*
X9640Y4020D01*
X9633Y4011D01*
X9627Y4002D01*
X9623Y3993D01*
X9619Y3984D01*
X9617Y3974D01*
X9615Y3963D01*
X9614Y3953D01*
X9615Y3942D01*
X9616Y3931D01*
X9482Y4027D01*
X9494Y4030D01*
X9505Y4032D01*
X9516Y4036D01*
X9527Y4040D01*
X9537Y4044D01*
X9547Y4049D01*
X9556Y4055D01*
X9565Y4061D01*
X9573Y4068D01*
X9581Y4075D01*
X9647Y4028D01*
D02*
G37*
G36*
X11467Y4028D02*
X11467Y4017D01*
X11468Y4007D01*
X11470Y3996D01*
X11472Y3986D01*
X11475Y3975D01*
X11479Y3965D01*
X11483Y3954D01*
X11488Y3944D01*
X11494Y3934D01*
X11500Y3923D01*
X11339Y3959D01*
X11348Y3965D01*
X11356Y3972D01*
X11363Y3980D01*
X11369Y3988D01*
X11375Y3996D01*
X11379Y4005D01*
X11382Y4015D01*
X11385Y4025D01*
X11386Y4036D01*
X11387Y4047D01*
X11467Y4028D01*
D02*
G37*
G36*
X1307Y4190D02*
X1347Y4142D01*
X1367Y4123D01*
X1387Y4107D01*
X1407Y4093D01*
X1426Y4083D01*
X1446Y4075D01*
X1465Y4071D01*
X1484Y4069D01*
X1471Y3989D01*
X1455Y3988D01*
X1437Y3984D01*
X1418Y3978D01*
X1396Y3970D01*
X1372Y3958D01*
X1319Y3929D01*
X1258Y3889D01*
X1225Y3865D01*
X1286Y4218D01*
X1307Y4190D01*
D02*
G37*
G36*
X13101Y3876D02*
X13091Y3872D01*
X13082Y3866D01*
X13074Y3858D01*
X13068Y3847D01*
X13062Y3834D01*
X13058Y3818D01*
X13055Y3800D01*
X13054Y3780D01*
X13053Y3758D01*
X12935D01*
X12934Y3780D01*
X12932Y3800D01*
X12930Y3818D01*
X12925Y3834D01*
X12920Y3847D01*
X12914Y3858D01*
X12906Y3866D01*
X12897Y3872D01*
X12887Y3876D01*
X12876Y3877D01*
X13112D01*
X13101Y3876D01*
D02*
G37*
G36*
X12465Y3705D02*
X12456Y3696D01*
X12449Y3688D01*
X12442Y3679D01*
X12437Y3670D01*
X12432Y3660D01*
X12428Y3651D01*
X12425Y3641D01*
X12423Y3630D01*
X12422Y3628D01*
X12422Y3627D01*
X12424Y3615D01*
X12427Y3604D01*
X12431Y3595D01*
X12435Y3588D01*
X12440Y3582D01*
X12446Y3578D01*
X12453Y3576D01*
X12461Y3575D01*
X12301D01*
X12308Y3576D01*
X12315Y3578D01*
X12321Y3582D01*
X12326Y3588D01*
X12331Y3595D01*
X12334Y3604D01*
X12337Y3615D01*
X12339Y3627D01*
X12340Y3630D01*
X12339Y3633D01*
X12337Y3644D01*
X12334Y3654D01*
X12330Y3664D01*
X12326Y3674D01*
X12321Y3683D01*
X12314Y3692D01*
X12307Y3702D01*
X12299Y3710D01*
X12465Y3705D01*
D02*
G37*
G36*
X5125Y3614D02*
X5117Y3605D01*
X5111Y3596D01*
X5105Y3586D01*
X5101Y3577D01*
X5097Y3567D01*
X5094Y3557D01*
X5092Y3546D01*
X5090Y3536D01*
X5090Y3525D01*
X5010D01*
X5010Y3536D01*
X5008Y3546D01*
X5006Y3557D01*
X5003Y3567D01*
X4999Y3577D01*
X4995Y3586D01*
X4989Y3596D01*
X4983Y3605D01*
X4975Y3614D01*
X4967Y3622D01*
X5133D01*
X5125Y3614D01*
D02*
G37*
G36*
X5554Y3473D02*
X5542Y3473D01*
X5530Y3472D01*
X5520Y3470D01*
X5509Y3467D01*
X5499Y3464D01*
X5489Y3459D01*
X5480Y3454D01*
X5471Y3448D01*
X5462Y3442D01*
X5454Y3434D01*
X5398Y3491D01*
X5405Y3499D01*
X5412Y3507D01*
X5418Y3516D01*
X5423Y3526D01*
X5427Y3535D01*
X5431Y3545D01*
X5433Y3556D01*
X5435Y3567D01*
X5436Y3578D01*
X5437Y3590D01*
X5554Y3473D01*
D02*
G37*
G36*
X9687Y3272D02*
X9699Y3262D01*
X9710Y3253D01*
X9721Y3246D01*
X9733Y3239D01*
X9744Y3234D01*
X9755Y3230D01*
X9767Y3227D01*
X9778Y3225D01*
X9789Y3225D01*
X9591Y3226D01*
X9596Y3227D01*
X9599Y3228D01*
X9600Y3231D01*
X9600Y3235D01*
X9598Y3240D01*
X9594Y3246D01*
X9589Y3254D01*
X9582Y3262D01*
X9563Y3283D01*
X9676D01*
X9687Y3272D01*
D02*
G37*
G36*
X9026Y3291D02*
X9028Y3277D01*
X9030Y3265D01*
X9032Y3254D01*
X9036Y3245D01*
X9040Y3238D01*
X9046Y3232D01*
X9052Y3228D01*
X9058Y3226D01*
X9066Y3225D01*
X8906D01*
X8914Y3226D01*
X8920Y3228D01*
X8926Y3232D01*
X8932Y3238D01*
X8936Y3245D01*
X8940Y3254D01*
X8942Y3265D01*
X8944Y3277D01*
X8946Y3291D01*
X8946Y3306D01*
X9026D01*
X9026Y3291D01*
D02*
G37*
G36*
X13968Y3265D02*
X13970Y3259D01*
X13974Y3254D01*
X13979Y3249D01*
X13986Y3245D01*
X13995Y3242D01*
X14004Y3239D01*
X14016Y3237D01*
X14029Y3236D01*
X14043Y3236D01*
Y3156D01*
X14029Y3156D01*
X14016Y3155D01*
X14004Y3153D01*
X13995Y3150D01*
X13986Y3147D01*
X13979Y3143D01*
X13974Y3138D01*
X13970Y3133D01*
X13968Y3127D01*
X13967Y3120D01*
Y3272D01*
X13968Y3265D01*
D02*
G37*
G36*
X4437Y3134D02*
X4425Y3134D01*
X4414Y3133D01*
X4403Y3131D01*
X4392Y3128D01*
X4382Y3125D01*
X4373Y3120D01*
X4363Y3115D01*
X4354Y3109D01*
X4346Y3103D01*
X4338Y3095D01*
X4281Y3152D01*
X4289Y3160D01*
X4295Y3168D01*
X4301Y3177D01*
X4306Y3186D01*
X4311Y3196D01*
X4314Y3206D01*
X4317Y3217D01*
X4319Y3228D01*
X4320Y3239D01*
X4320Y3251D01*
X4437Y3134D01*
D02*
G37*
G36*
X14141Y3155D02*
X14150Y3148D01*
X14159Y3142D01*
X14168Y3137D01*
X14178Y3133D01*
X14188Y3130D01*
X14198Y3128D01*
X14209Y3126D01*
X14221Y3125D01*
X14232Y3125D01*
X14119Y3005D01*
X14119Y3016D01*
X14117Y3028D01*
X14115Y3039D01*
X14112Y3049D01*
X14108Y3060D01*
X14104Y3069D01*
X14099Y3079D01*
X14093Y3087D01*
X14086Y3096D01*
X14079Y3104D01*
X14133Y3162D01*
X14141Y3155D01*
D02*
G37*
G36*
X10327Y2970D02*
X10326Y2978D01*
X10323Y2984D01*
X10319Y2990D01*
X10314Y2996D01*
X10306Y3000D01*
X10297Y3004D01*
X10287Y3006D01*
X10275Y3008D01*
X10261Y3010D01*
X10246Y3010D01*
Y3090D01*
X10261Y3090D01*
X10275Y3092D01*
X10287Y3094D01*
X10297Y3096D01*
X10306Y3100D01*
X10314Y3104D01*
X10319Y3110D01*
X10323Y3116D01*
X10326Y3122D01*
X10327Y3130D01*
Y2970D01*
D02*
G37*
G36*
X9983Y3122D02*
X9986Y3116D01*
X9990Y3110D01*
X9995Y3104D01*
X10002Y3100D01*
X10011Y3096D01*
X10022Y3094D01*
X10034Y3092D01*
X10047Y3090D01*
X10062Y3090D01*
Y3010D01*
X10047Y3010D01*
X10034Y3008D01*
X10022Y3006D01*
X10011Y3004D01*
X10002Y3000D01*
X9995Y2996D01*
X9990Y2990D01*
X9986Y2984D01*
X9983Y2978D01*
X9982Y2970D01*
Y3130D01*
X9983Y3122D01*
D02*
G37*
G36*
X8874Y2970D02*
X8873Y2978D01*
X8870Y2984D01*
X8866Y2990D01*
X8861Y2996D01*
X8853Y3000D01*
X8844Y3004D01*
X8834Y3006D01*
X8822Y3008D01*
X8808Y3010D01*
X8792Y3010D01*
Y3090D01*
X8808Y3090D01*
X8822Y3092D01*
X8834Y3094D01*
X8844Y3096D01*
X8853Y3100D01*
X8861Y3104D01*
X8866Y3110D01*
X8870Y3116D01*
X8873Y3122D01*
X8874Y3130D01*
Y2970D01*
D02*
G37*
G36*
X8546Y3122D02*
X8548Y3116D01*
X8552Y3110D01*
X8558Y3104D01*
X8565Y3100D01*
X8574Y3096D01*
X8584Y3094D01*
X8596Y3092D01*
X8610Y3090D01*
X8625Y3090D01*
Y3010D01*
X8610Y3010D01*
X8596Y3008D01*
X8584Y3006D01*
X8574Y3004D01*
X8565Y3000D01*
X8558Y2996D01*
X8552Y2990D01*
X8548Y2984D01*
X8546Y2978D01*
X8545Y2970D01*
Y3130D01*
X8546Y3122D01*
D02*
G37*
G36*
X13801Y3020D02*
X13794Y3018D01*
X13788Y3014D01*
X13783Y3008D01*
X13779Y3001D01*
X13775Y2992D01*
X13772Y2981D01*
X13770Y2969D01*
X13769Y2955D01*
X13769Y2940D01*
X13689D01*
X13688Y2955D01*
X13687Y2969D01*
X13685Y2981D01*
X13682Y2992D01*
X13679Y3001D01*
X13674Y3008D01*
X13669Y3014D01*
X13663Y3018D01*
X13656Y3020D01*
X13649Y3021D01*
X13809D01*
X13801Y3020D01*
D02*
G37*
G36*
X11727Y2864D02*
X11727Y2853D01*
X11728Y2842D01*
X11730Y2832D01*
X11733Y2821D01*
X11737Y2811D01*
X11741Y2801D01*
X11746Y2792D01*
X11752Y2782D01*
X11759Y2773D01*
X11767Y2764D01*
X11602Y2776D01*
X11610Y2783D01*
X11618Y2792D01*
X11625Y2800D01*
X11631Y2809D01*
X11636Y2818D01*
X11640Y2828D01*
X11643Y2838D01*
X11645Y2848D01*
X11646Y2859D01*
X11647Y2870D01*
X11727Y2864D01*
D02*
G37*
G36*
X13769Y2751D02*
X13770Y2737D01*
X13772Y2725D01*
X13775Y2714D01*
X13779Y2705D01*
X13783Y2698D01*
X13788Y2692D01*
X13794Y2688D01*
X13801Y2686D01*
X13809Y2685D01*
X13649D01*
X13656Y2686D01*
X13663Y2688D01*
X13669Y2692D01*
X13674Y2698D01*
X13679Y2705D01*
X13682Y2714D01*
X13685Y2725D01*
X13687Y2737D01*
X13688Y2751D01*
X13689Y2766D01*
X13769D01*
X13769Y2751D01*
D02*
G37*
G36*
X8214Y2688D02*
X8255Y2653D01*
X8274Y2640D01*
X8291Y2630D01*
X8307Y2623D01*
X8322Y2619D01*
X8335Y2618D01*
X8347Y2620D01*
X8358Y2625D01*
X8155Y2497D01*
X8163Y2504D01*
X8167Y2513D01*
X8168Y2525D01*
X8165Y2539D01*
X8159Y2554D01*
X8148Y2572D01*
X8134Y2592D01*
X8117Y2614D01*
X8070Y2664D01*
X8191Y2709D01*
X8214Y2688D01*
D02*
G37*
G36*
X12295Y4023D02*
X12284Y3963D01*
X12242Y3935D01*
X12198Y3869D01*
X12183Y3792D01*
X12198Y3714D01*
X12207Y3701D01*
X12184Y3657D01*
X12104D01*
Y3143D01*
X12658D01*
Y3657D01*
X12586D01*
X12563Y3701D01*
X12572Y3714D01*
X12587Y3792D01*
X12573Y3860D01*
X12600Y3910D01*
X12719D01*
X12726Y3909D01*
X12731Y3909D01*
Y3795D01*
X12851D01*
X12852Y3790D01*
X12852Y3783D01*
Y1973D01*
X12863Y1919D01*
X12894Y1873D01*
X13261Y1506D01*
X13241Y1460D01*
X11454D01*
X10768Y2147D01*
X10787Y2193D01*
X10798D01*
Y2707D01*
X10244D01*
Y2283D01*
X10194Y2262D01*
X10103Y2353D01*
X10084Y2374D01*
X10071Y2390D01*
X10064Y2401D01*
Y2439D01*
X10064Y2441D01*
X10064Y2443D01*
Y2707D01*
X9510D01*
Y2298D01*
X9464Y2279D01*
X9361Y2381D01*
X9356Y2387D01*
X9349Y2397D01*
X9345Y2402D01*
Y2418D01*
X9345Y2420D01*
X9345Y2422D01*
Y2707D01*
X8791D01*
Y2292D01*
X8745Y2272D01*
X8665Y2352D01*
X8646Y2373D01*
X8633Y2389D01*
X8626Y2399D01*
Y2707D01*
X8321D01*
X8317Y2709D01*
X8305Y2718D01*
X8275Y2743D01*
X8274Y2749D01*
X8304Y2793D01*
X8626D01*
Y2928D01*
X8791D01*
Y2793D01*
X9345D01*
Y3307D01*
X9108D01*
Y3550D01*
X9158Y3571D01*
X9510Y3219D01*
Y2793D01*
X10064D01*
Y2928D01*
X10244D01*
Y2793D01*
X10798D01*
Y3307D01*
X10244D01*
Y3172D01*
X10064D01*
Y3307D01*
X9783D01*
X9780Y3308D01*
X9775Y3310D01*
X9770Y3312D01*
X9764Y3315D01*
X9757Y3320D01*
X9750Y3325D01*
X9746Y3328D01*
X9386Y3688D01*
X9418Y3727D01*
X9423Y3724D01*
X9500Y3709D01*
X9577Y3724D01*
X9643Y3768D01*
X9687Y3833D01*
X9689Y3846D01*
X9739Y3841D01*
Y3799D01*
X9748Y3752D01*
X9775Y3712D01*
X10068Y3419D01*
X10107Y3393D01*
X10154Y3384D01*
X11432D01*
X11565Y3251D01*
Y2862D01*
X11564Y2859D01*
X11563Y2856D01*
X11562Y2853D01*
X11560Y2851D01*
X11559Y2848D01*
X11556Y2845D01*
X11553Y2841D01*
X11548Y2836D01*
X11535Y2828D01*
X11492Y2763D01*
X11476Y2685D01*
X11492Y2608D01*
X11535Y2543D01*
X11601Y2499D01*
X11678Y2484D01*
X11755Y2499D01*
X11821Y2543D01*
X11865Y2608D01*
X11880Y2685D01*
X11865Y2763D01*
X11830Y2815D01*
X11830Y2816D01*
X11829Y2816D01*
X11821Y2828D01*
X11819Y2830D01*
X11817Y2833D01*
X11814Y2837D01*
X11813Y2842D01*
X11811Y2846D01*
X11810Y2850D01*
X11809Y2854D01*
Y3302D01*
X11800Y3349D01*
X11773Y3388D01*
X11569Y3592D01*
X11530Y3619D01*
X11492Y3626D01*
X11485Y3650D01*
X11484Y3658D01*
X11485Y3677D01*
X11544Y3716D01*
X11588Y3782D01*
X11603Y3859D01*
X11588Y3936D01*
X11572Y3960D01*
X11569Y3966D01*
X11564Y3975D01*
X11560Y3981D01*
X11557Y3988D01*
X11555Y3994D01*
X11553Y4000D01*
X11551Y4006D01*
X11550Y4011D01*
X11549Y4017D01*
Y4087D01*
X11762D01*
Y4490D01*
X11808Y4509D01*
X12295Y4023D01*
D02*
G37*
G36*
X13331Y2490D02*
X13333Y2479D01*
X13335Y2468D01*
X13338Y2458D01*
X13341Y2448D01*
X13346Y2439D01*
X13352Y2429D01*
X13358Y2420D01*
X13365Y2412D01*
X13373Y2403D01*
X13208D01*
X13216Y2412D01*
X13224Y2420D01*
X13230Y2429D01*
X13235Y2439D01*
X13240Y2448D01*
X13244Y2458D01*
X13247Y2468D01*
X13249Y2479D01*
X13250Y2490D01*
X13251Y2501D01*
X13331D01*
X13331Y2490D01*
D02*
G37*
G36*
X10572Y2275D02*
X10570Y2273D01*
X10568Y2270D01*
X10566Y2266D01*
X10565Y2261D01*
X10563Y2255D01*
X10562Y2248D01*
X10561Y2231D01*
X10561Y2220D01*
X10481D01*
X10481Y2231D01*
X10479Y2255D01*
X10478Y2261D01*
X10476Y2266D01*
X10474Y2270D01*
X10472Y2273D01*
X10470Y2275D01*
X10467Y2275D01*
X10575D01*
X10572Y2275D01*
D02*
G37*
G36*
X9261Y2412D02*
X9259Y2403D01*
X9260Y2394D01*
X9263Y2384D01*
X9268Y2373D01*
X9274Y2361D01*
X9283Y2349D01*
X9293Y2335D01*
X9306Y2321D01*
X9320Y2306D01*
X9296Y2217D01*
X9278Y2235D01*
X9246Y2262D01*
X9233Y2271D01*
X9221Y2278D01*
X9210Y2282D01*
X9201Y2284D01*
X9194Y2283D01*
X9187Y2280D01*
X9183Y2274D01*
X9264Y2419D01*
X9261Y2412D01*
D02*
G37*
G36*
X9976Y2432D02*
X9972Y2421D01*
Y2409D01*
X9976Y2394D01*
X9982Y2378D01*
X9992Y2361D01*
X10006Y2342D01*
X10023Y2321D01*
X10066Y2274D01*
X9982Y2191D01*
X9958Y2214D01*
X9915Y2251D01*
X9896Y2264D01*
X9878Y2274D01*
X9862Y2281D01*
X9848Y2284D01*
X9835D01*
X9825Y2281D01*
X9815Y2274D01*
X9982Y2441D01*
X9976Y2432D01*
D02*
G37*
G36*
X8537Y2430D02*
X8534Y2420D01*
X8534Y2407D01*
X8537Y2393D01*
X8544Y2377D01*
X8554Y2360D01*
X8568Y2340D01*
X8584Y2319D01*
X8628Y2272D01*
X8543Y2191D01*
X8519Y2214D01*
X8475Y2251D01*
X8456Y2264D01*
X8439Y2274D01*
X8423Y2281D01*
X8408Y2285D01*
X8396Y2285D01*
X8385Y2282D01*
X8376Y2275D01*
X8544Y2439D01*
X8537Y2430D01*
D02*
G37*
G36*
X10151Y2189D02*
X10169Y2174D01*
X10177Y2168D01*
X10185Y2163D01*
X10193Y2159D01*
X10201Y2156D01*
X10208Y2154D01*
X10215Y2152D01*
X10222Y2152D01*
X10105Y2035D01*
X10104Y2042D01*
X10103Y2049D01*
X10101Y2056D01*
X10097Y2064D01*
X10093Y2071D01*
X10088Y2079D01*
X10082Y2088D01*
X10075Y2096D01*
X10059Y2114D01*
X10142Y2198D01*
X10151Y2189D01*
D02*
G37*
G36*
X13991Y1859D02*
X13989Y1851D01*
X13990Y1842D01*
X13993Y1832D01*
X13997Y1822D01*
X14004Y1810D01*
X14013Y1797D01*
X14024Y1783D01*
X14052Y1753D01*
X14014Y1677D01*
X13997Y1694D01*
X13966Y1721D01*
X13953Y1730D01*
X13941Y1737D01*
X13930Y1742D01*
X13921Y1744D01*
X13913Y1743D01*
X13907Y1741D01*
X13901Y1735D01*
X13994Y1866D01*
X13991Y1859D01*
D02*
G37*
G36*
X2333Y1821D02*
X2320Y1806D01*
X2309Y1788D01*
X2299Y1766D01*
X2290Y1741D01*
X2283Y1712D01*
X2277Y1680D01*
X2273Y1645D01*
X2268Y1565D01*
X2268Y1520D01*
X1975Y1813D01*
X2020Y1813D01*
X2101Y1817D01*
X2136Y1822D01*
X2167Y1828D01*
X2196Y1835D01*
X2221Y1844D01*
X2243Y1854D01*
X2261Y1865D01*
X2276Y1878D01*
X2333Y1821D01*
D02*
G37*
G36*
X17131Y1707D02*
X17083Y1650D01*
X17063Y1623D01*
X17047Y1597D01*
X17033Y1571D01*
X17023Y1546D01*
X17015Y1522D01*
X17011Y1499D01*
X17009Y1476D01*
X16891D01*
X16889Y1499D01*
X16885Y1522D01*
X16877Y1546D01*
X16867Y1571D01*
X16853Y1597D01*
X16837Y1623D01*
X16817Y1650D01*
X16794Y1678D01*
X16740Y1736D01*
X17160D01*
X17131Y1707D01*
D02*
G37*
G36*
X16128Y1703D02*
X16073Y1642D01*
X16051Y1614D01*
X16033Y1587D01*
X16017Y1561D01*
X16005Y1537D01*
X15997Y1514D01*
X15992Y1493D01*
X15990Y1473D01*
X15910D01*
X15908Y1493D01*
X15903Y1514D01*
X15895Y1537D01*
X15883Y1561D01*
X15868Y1587D01*
X15849Y1614D01*
X15827Y1642D01*
X15772Y1703D01*
X15740Y1736D01*
X16160D01*
X16128Y1703D01*
D02*
G37*
G36*
X7803Y122D02*
X4300D01*
Y2100D01*
X5322D01*
Y1715D01*
X5325Y1700D01*
Y1314D01*
X6410D01*
Y2100D01*
X7803D01*
Y122D01*
D02*
G37*
G36*
X15992Y1407D02*
X15997Y1386D01*
X16005Y1363D01*
X16017Y1339D01*
X16033Y1313D01*
X16051Y1286D01*
X16073Y1258D01*
X16128Y1197D01*
X16160Y1164D01*
X15861D01*
X15650Y953D01*
X15650Y999D01*
X15645Y1081D01*
X15641Y1116D01*
X15635Y1149D01*
X15627Y1177D01*
X15619Y1203D01*
X15609Y1225D01*
X15597Y1244D01*
X15584Y1259D01*
X15641Y1316D01*
X15656Y1303D01*
X15675Y1291D01*
X15697Y1281D01*
X15723Y1273D01*
X15751Y1265D01*
X15784Y1259D01*
X15819Y1255D01*
X15824Y1255D01*
X15827Y1258D01*
X15849Y1286D01*
X15868Y1313D01*
X15883Y1339D01*
X15895Y1363D01*
X15903Y1386D01*
X15908Y1407D01*
X15910Y1427D01*
X15990D01*
X15992Y1407D01*
D02*
G37*
G36*
X1869Y1241D02*
X1833Y1253D01*
X1798Y1263D01*
X1766Y1269D01*
X1736Y1273D01*
X1708Y1273D01*
X1682Y1271D01*
X1658Y1265D01*
X1637Y1257D01*
X1617Y1245D01*
X1600Y1230D01*
X1564Y1308D01*
X1572Y1317D01*
X1580Y1331D01*
X1590Y1350D01*
X1613Y1401D01*
X1675Y1563D01*
X1694Y1615D01*
X1869Y1241D01*
D02*
G37*
G36*
X8972Y1274D02*
X8974Y1253D01*
X8977Y1236D01*
X8981Y1220D01*
X8987Y1207D01*
X8993Y1196D01*
X9001Y1188D01*
X9010Y1182D01*
X9020Y1178D01*
X9031Y1177D01*
X8795D01*
X8806Y1178D01*
X8816Y1182D01*
X8825Y1188D01*
X8832Y1196D01*
X8839Y1207D01*
X8844Y1220D01*
X8848Y1236D01*
X8851Y1253D01*
X8853Y1274D01*
X8854Y1296D01*
X8972D01*
X8972Y1274D01*
D02*
G37*
G36*
X3215Y1692D02*
X3275Y1639D01*
X3303Y1617D01*
X3330Y1599D01*
X3355Y1584D01*
X3379Y1572D01*
X3401Y1564D01*
X3422Y1559D01*
X3442Y1557D01*
Y1477D01*
X3422Y1476D01*
X3401Y1471D01*
X3379Y1462D01*
X3355Y1451D01*
X3330Y1436D01*
X3303Y1417D01*
X3275Y1396D01*
X3272Y1393D01*
X3273Y1389D01*
X3277Y1354D01*
X3283Y1322D01*
X3290Y1294D01*
X3299Y1269D01*
X3309Y1247D01*
X3320Y1229D01*
X3333Y1213D01*
X3276Y1157D01*
X3261Y1170D01*
X3243Y1181D01*
X3221Y1191D01*
X3196Y1200D01*
X3167Y1207D01*
X3136Y1213D01*
X3101Y1217D01*
X3020Y1222D01*
X2975Y1222D01*
X3183Y1430D01*
Y1724D01*
X3215Y1692D01*
D02*
G37*
G36*
X11568Y1232D02*
X11587Y1220D01*
X11609Y1210D01*
X11634Y1202D01*
X11662Y1195D01*
X11694Y1189D01*
X11729Y1184D01*
X11809Y1180D01*
X11854Y1180D01*
X11562Y887D01*
X11562Y932D01*
X11557Y1012D01*
X11553Y1047D01*
X11547Y1079D01*
X11539Y1108D01*
X11531Y1133D01*
X11521Y1154D01*
X11509Y1173D01*
X11497Y1188D01*
X11553Y1245D01*
X11568Y1232D01*
D02*
G37*
G36*
X1479Y1109D02*
X1467Y1095D01*
X1457Y1079D01*
X1447Y1060D01*
X1440Y1038D01*
X1433Y1014D01*
X1428Y987D01*
X1424Y957D01*
X1419Y890D01*
X1419Y853D01*
X1166Y1106D01*
X1203Y1106D01*
X1271Y1110D01*
X1300Y1115D01*
X1327Y1120D01*
X1351Y1126D01*
X1373Y1134D01*
X1392Y1143D01*
X1408Y1154D01*
X1422Y1166D01*
X1479Y1109D01*
D02*
G37*
G36*
X3692Y798D02*
X3690Y804D01*
X3686Y810D01*
X3681Y815D01*
X3676Y819D01*
X3669Y823D01*
X3661Y826D01*
X3652Y828D01*
X3642Y830D01*
X3631Y831D01*
X3618Y831D01*
Y911D01*
X3631Y912D01*
X3642Y913D01*
X3652Y914D01*
X3661Y917D01*
X3669Y920D01*
X3676Y924D01*
X3681Y928D01*
X3686Y933D01*
X3690Y939D01*
X3692Y945D01*
Y798D01*
D02*
G37*
G36*
X10491Y1138D02*
X10510Y1126D01*
X10532Y1118D01*
X10555Y1113D01*
X10580Y1111D01*
X10607Y1113D01*
X10635Y1118D01*
X10666Y1126D01*
X10699Y1137D01*
X10733Y1152D01*
X10586Y768D01*
X10563Y821D01*
X10436Y1076D01*
X10427Y1086D01*
X10474Y1153D01*
X10491Y1138D01*
D02*
G37*
%LPC*%
G36*
X5599Y6862D02*
X5046D01*
Y6348D01*
X5599D01*
Y6483D01*
X5843D01*
Y6273D01*
X6357D01*
Y6827D01*
X5843D01*
Y6727D01*
X5599D01*
Y6862D01*
D02*
G37*
%LPD*%
G36*
X5925Y6525D02*
X5924Y6533D01*
X5922Y6539D01*
X5918Y6545D01*
X5912Y6551D01*
X5905Y6555D01*
X5896Y6559D01*
X5885Y6561D01*
X5873Y6563D01*
X5859Y6565D01*
X5844Y6565D01*
Y6645D01*
X5859Y6645D01*
X5873Y6647D01*
X5885Y6649D01*
X5896Y6651D01*
X5905Y6655D01*
X5912Y6659D01*
X5918Y6665D01*
X5922Y6671D01*
X5924Y6677D01*
X5925Y6685D01*
Y6525D01*
D02*
G37*
G36*
X5519Y6677D02*
X5521Y6671D01*
X5525Y6665D01*
X5531Y6659D01*
X5538Y6655D01*
X5547Y6651D01*
X5557Y6649D01*
X5569Y6647D01*
X5583Y6645D01*
X5598Y6645D01*
Y6565D01*
X5583Y6565D01*
X5569Y6563D01*
X5557Y6561D01*
X5547Y6559D01*
X5538Y6555D01*
X5531Y6551D01*
X5525Y6545D01*
X5521Y6539D01*
X5519Y6533D01*
X5518Y6525D01*
Y6685D01*
X5519Y6677D01*
D02*
G37*
D10*
X12322Y6864D02*
X13457D01*
X13499Y6821D01*
X13462Y6864D02*
X13499Y6900D01*
D13*
X7468Y4850D02*
X11256D01*
X12658Y8150D02*
X12931D01*
X11593Y7085D02*
X12658Y8150D01*
X11462Y5056D02*
Y6005D01*
Y5056D02*
X11499Y5019D01*
X11666Y4852D01*
X11425Y5019D02*
X11499D01*
X11425D02*
X11462Y5056D01*
X11341Y4934D02*
X11425Y5019D01*
X11552Y4850D02*
X11663D01*
X11256D02*
X11552D01*
X11256D02*
X11341Y4934D01*
X11467D02*
X11552Y4850D01*
X11341Y4934D02*
X11467D01*
X11666Y4852D02*
X12466Y4052D01*
X11663Y4850D02*
X11666Y4852D01*
X11593Y6136D02*
Y7085D01*
X11462Y6005D02*
X11593Y6136D01*
X12931Y8150D02*
Y8900D01*
X7550Y3267D02*
X8913Y1904D01*
X12931Y7622D02*
Y8130D01*
X12332Y7268D02*
X12577D01*
X12322Y7258D02*
X12332Y7268D01*
X12577D02*
X12931Y7622D01*
X12994Y1973D02*
Y4038D01*
X13007Y4052D01*
X12466D02*
X13007D01*
X7550Y3267D02*
Y4768D01*
X8913Y940D02*
Y1904D01*
X10223Y2000D02*
Y2034D01*
X9806Y2450D02*
X10223Y2034D01*
X9787Y2450D02*
X9806D01*
X14117Y850D02*
X15150D01*
X7468Y4850D02*
X7550Y4768D01*
X8857Y884D02*
X8913Y940D01*
X16400Y450D02*
X16950Y1000D01*
Y1950D01*
X15550Y450D02*
X16400D01*
X15150Y850D02*
X15550Y450D01*
X12994Y1973D02*
X14117Y850D01*
X6634Y4850D02*
X7468D01*
D15*
X12062Y8880D02*
D03*
X11452D02*
D03*
X13531Y8188D02*
D03*
X12931D02*
D03*
X13531Y8909D02*
D03*
X12931D02*
D03*
X6081Y5831D02*
D03*
X6681D02*
D03*
X6700Y6550D02*
D03*
X6100D02*
D03*
D16*
X12322Y5289D02*
D03*
Y5092D02*
D03*
Y5486D02*
D03*
Y5683D02*
D03*
Y7258D02*
D03*
Y7061D02*
D03*
Y6864D02*
D03*
Y6667D02*
D03*
Y5880D02*
D03*
X12322Y6076D02*
D03*
X12322Y6470D02*
D03*
X12322Y6273D02*
D03*
D17*
X11633Y4403D02*
D03*
X11239D02*
D03*
X11042Y4403D02*
D03*
X10845D02*
D03*
X10649Y4403D02*
D03*
X10451Y4403D02*
D03*
X10255Y4403D02*
D03*
X10058Y4403D02*
D03*
X9861Y4403D02*
D03*
X9664D02*
D03*
X9467Y4403D02*
D03*
X11436D02*
D03*
D18*
X8778Y5092D02*
D03*
X8778Y5289D02*
D03*
X8778Y5486D02*
D03*
Y5683D02*
D03*
Y5880D02*
D03*
X8778Y6076D02*
D03*
X8778Y6273D02*
D03*
Y6470D02*
D03*
X8778Y6864D02*
D03*
Y7061D02*
D03*
X8778Y7258D02*
D03*
Y6667D02*
D03*
D19*
X9467Y7946D02*
D03*
X9664Y7946D02*
D03*
X9861D02*
D03*
X10058Y7946D02*
D03*
X10255D02*
D03*
X10452Y7946D02*
D03*
X11633Y7946D02*
D03*
X11436Y7946D02*
D03*
X11239D02*
D03*
X11042Y7946D02*
D03*
X10649D02*
D03*
X10845Y7946D02*
D03*
D20*
X13546Y7459D02*
D03*
Y6859D02*
D03*
X13007Y4052D02*
D03*
Y4652D02*
D03*
X13729Y5132D02*
D03*
Y4532D02*
D03*
X16473Y7000D02*
D03*
Y7600D02*
D03*
X16476Y6150D02*
D03*
Y5550D02*
D03*
X13771Y3796D02*
D03*
Y3196D02*
D03*
X13800Y1910D02*
D03*
Y2510D02*
D03*
X5322Y6605D02*
D03*
Y5995D02*
D03*
X9787Y3050D02*
D03*
Y2450D02*
D03*
X8349Y3050D02*
D03*
Y2450D02*
D03*
X9068Y3050D02*
D03*
Y2450D02*
D03*
X10521Y3050D02*
D03*
Y2450D02*
D03*
X12381Y3400D02*
D03*
Y2800D02*
D03*
D21*
X7468Y4850D02*
D03*
Y5677D02*
D03*
D22*
X5281Y4942D02*
D03*
X6541D02*
D03*
D23*
X6468Y491D02*
D03*
X5523D02*
D03*
X8857Y884D02*
D03*
D24*
X5483Y1709D02*
D03*
X5739D02*
D03*
X5995D02*
D03*
X6251D02*
D03*
X6507D02*
D03*
D42*
X2972Y1517D02*
X3618Y871D01*
X3937D01*
X13729Y2600D02*
Y3196D01*
X14043D02*
X14233Y3006D01*
X13771Y3196D02*
X14043D01*
X11687Y2700D02*
Y3302D01*
X11483Y3506D02*
X11687Y3302D01*
X10154Y3506D02*
X11483D01*
X9861Y3799D02*
X10154Y3506D01*
X9861Y3799D02*
Y4403D01*
X1163Y850D02*
X1830Y1517D01*
X1972D01*
X2972D02*
X3481D01*
X5555Y3591D01*
X1972Y1517D02*
X2455Y2000D01*
X3654D01*
X5050Y3396D01*
Y3707D01*
X12450Y8235D02*
Y8493D01*
X11300Y7085D02*
X12450Y8235D01*
X8619Y8824D02*
X8793Y8650D01*
X10539D01*
X10845Y8344D01*
Y7946D02*
Y8344D01*
X9742Y6840D02*
X10797D01*
X9696D02*
X9742D01*
X10797D02*
X11624Y7667D01*
Y7937D01*
X11633Y7946D01*
X13484Y5952D02*
X14795D01*
X12966Y6470D02*
X13484Y5952D01*
X12322Y6470D02*
X12966D01*
X13050Y6667D02*
X13467Y6250D01*
X11401Y3859D02*
X11427Y3885D01*
Y4394D01*
X11436Y4403D01*
X4176Y2990D02*
X4489Y3303D01*
X2872Y5590D02*
Y5688D01*
X2625Y2990D02*
X4176D01*
X2490Y3126D02*
X2625Y2990D01*
X2490Y3126D02*
Y4035D01*
X2972Y4517D01*
X12360Y4500D02*
X12431D01*
X12381Y3400D02*
Y3792D01*
X12385Y3796D01*
X11841Y5019D02*
X12360Y4500D01*
X11841Y5019D02*
Y5350D01*
X11968Y5477D01*
X12312D01*
X12322Y5486D01*
X11883Y9350D02*
X13110D01*
X13531Y8929D01*
Y8909D02*
Y8929D01*
X11452Y8920D02*
X11883Y9350D01*
X11452Y8900D02*
Y8920D01*
X12062Y8880D02*
X12450Y8493D01*
X12062Y8880D02*
Y8900D01*
X14200Y6250D02*
X15053Y7103D01*
Y7492D01*
X15078Y7518D01*
X13467Y6250D02*
X14200D01*
X12322Y6667D02*
X13050D01*
X14795Y5952D02*
X15197Y5550D01*
X11300Y6273D02*
Y7085D01*
Y6250D02*
Y6273D01*
X11897Y6280D02*
X11903Y6273D01*
X12322D01*
X13400Y8949D02*
X13449Y8900D01*
X13291Y3391D02*
X13400Y3500D01*
X13291Y2319D02*
Y3391D01*
X13400Y3500D02*
Y4203D01*
X13572Y4375D01*
Y4394D01*
X13709Y4532D01*
X13729D01*
X12627Y5673D02*
X13007Y5293D01*
X12331Y5673D02*
X12627D01*
X12322Y5683D02*
X12331Y5673D01*
X13007Y4652D02*
Y5293D01*
X13609Y4652D02*
X13729Y4532D01*
X13007Y4652D02*
X13609D01*
X9787Y3050D02*
Y3115D01*
X8857Y4045D02*
X9787Y3115D01*
X8857Y4045D02*
Y4339D01*
X9068Y4550D01*
X9430Y5670D02*
X9467Y5632D01*
X9430Y5670D02*
Y6915D01*
X9096Y7249D02*
X9430Y6915D01*
X8788Y7249D02*
X9096D01*
X8778Y7258D02*
X8788Y7249D01*
X8788Y7051D02*
X9067D01*
X8778Y7061D02*
X8788Y7051D01*
X9067D02*
X9270Y6848D01*
Y5375D02*
Y6848D01*
X9068Y3050D02*
X9120D01*
X8350D02*
X9068D01*
X8650Y3937D02*
Y4532D01*
Y3937D02*
X8986Y3601D01*
Y3132D02*
Y3601D01*
Y3132D02*
X9068Y3050D01*
X9500Y3911D02*
Y3938D01*
X9655Y4093D01*
Y4394D01*
X9664Y4403D01*
X9268Y4368D02*
X9458D01*
X9467Y4378D01*
Y4403D01*
X9100Y4200D02*
X9268Y4368D01*
X5206Y10000D02*
X5315D01*
X2455D02*
X5206D01*
X4732Y7600D02*
X5982D01*
X4217Y7085D02*
X4732Y7600D01*
X6081Y8519D02*
X7273Y7328D01*
X7294D01*
Y7398D01*
X7292Y7400D02*
X7294Y7398D01*
X9410Y7450D02*
Y7492D01*
X9467Y7549D01*
Y7946D01*
X8250Y6800D02*
Y7065D01*
X5315Y10000D02*
X8250Y7065D01*
X8220Y6280D02*
X8223Y6277D01*
X8775D01*
X8778Y6273D01*
X7950Y7000D02*
Y7043D01*
X5943Y9050D02*
X7950Y7043D01*
X1750Y9050D02*
X5943D01*
X7699Y6562D02*
X8275D01*
X6194Y8067D02*
X7699Y6562D01*
X8275D02*
X8367Y6470D01*
X9629Y7150D02*
X9655Y7176D01*
Y7937D01*
X9664Y7946D01*
X5801Y8519D02*
X6081D01*
X4231Y8067D02*
X6194D01*
X6112Y7900D02*
X7970Y6042D01*
X4418Y7900D02*
X6112D01*
X5800Y8520D02*
X5801Y8519D01*
X3859Y8546D02*
X5774D01*
X5800Y8520D01*
X8353Y6076D02*
X8778D01*
X8319Y6042D02*
X8353Y6076D01*
X7970Y6042D02*
X8319D01*
X8367Y6470D02*
X8778D01*
X8023Y5740D02*
X8065D01*
X8122Y5683D01*
X8778D01*
X1847Y10392D02*
X1972Y10517D01*
X989Y11250D02*
X1847Y10392D01*
X1229Y4029D02*
X1484D01*
X1972Y4517D01*
X3440Y5986D02*
X4808Y7355D01*
X5281D01*
X3440Y5188D02*
Y5986D01*
X3968Y7450D02*
X4418Y7900D01*
X3626Y7450D02*
X3968D01*
X3913Y7750D02*
X4231Y8067D01*
X3304Y5052D02*
X3440Y5188D01*
X2515Y5052D02*
X3304D01*
X1981Y4517D02*
X2515Y5052D01*
X1972Y4517D02*
X1981D01*
X3313Y8000D02*
X3859Y8546D01*
X2760Y8000D02*
X3313D01*
X2455Y7695D02*
X2760Y8000D01*
X1451Y6038D02*
X1500Y5990D01*
X3935Y7085D02*
X4217D01*
X3900Y7050D02*
X3935Y7085D01*
X2558Y7050D02*
X3900D01*
X1000Y6038D02*
X1451D01*
X10521Y2220D02*
X11857Y884D01*
X10521Y2220D02*
Y2450D01*
X9787Y3050D02*
X10521D01*
X9712Y3125D02*
X9787Y3050D01*
X10809Y872D02*
X10907Y774D01*
X10809Y932D02*
X10857Y884D01*
X10759Y982D02*
X10809Y932D01*
Y1091D01*
Y872D02*
Y932D01*
X10588Y982D02*
X10759D01*
X9120Y2450D02*
X10588Y982D01*
X9100Y2450D02*
X9120D01*
X15197Y5550D02*
X16469D01*
X15114Y7561D02*
X16427D01*
X14449Y1300D02*
X15600D01*
X13749Y2000D02*
X14449Y1300D01*
X13729Y2000D02*
X13749D01*
X15600Y1300D02*
X15950Y950D01*
Y1950D01*
X2972Y4517D02*
X3070Y4615D01*
X2455Y7305D02*
Y7695D01*
X2150Y7000D02*
X2455Y7305D01*
X16427Y7561D02*
X16467Y7600D01*
X2025Y6517D02*
X2558Y7050D01*
X1972Y6517D02*
X2025D01*
X1500Y5990D02*
X1972Y5517D01*
X1500Y5990D02*
Y6800D01*
X1700Y7000D01*
X2150D01*
X1550Y7940D02*
X1972Y7517D01*
X1550Y7940D02*
Y8850D01*
X1750Y9050D01*
X1972Y9517D02*
X2455Y10000D01*
X6045Y6605D02*
X6100Y6550D01*
X5350Y6605D02*
X6045D01*
X11845Y774D02*
X11907D01*
D43*
X6541Y4087D02*
Y4942D01*
X6403Y4686D02*
X6541Y4824D01*
X6565Y4942D02*
Y5668D01*
X4400Y4295D02*
Y5639D01*
Y4295D02*
X4645Y4050D01*
X5649D01*
X6285Y4686D01*
X6403D01*
X5483Y2532D02*
Y3029D01*
X6541Y4087D01*
X6565Y5668D02*
X6709Y5811D01*
Y5831D01*
X6700Y6550D02*
X6704Y6546D01*
Y5835D02*
Y6546D01*
Y5835D02*
X6709Y5831D01*
D44*
X12803Y7061D02*
X13110Y7368D01*
X13367D01*
X13499Y7500D01*
X12322Y7061D02*
X12803D01*
D45*
X5483Y1715D02*
Y2532D01*
D46*
X3937Y871D02*
D03*
X1163Y850D02*
D03*
X1075Y4073D02*
D03*
X989Y11250D02*
D03*
X5206Y10000D02*
D03*
X3939Y7050D02*
D03*
X989Y6035D02*
D03*
X5800Y8520D02*
D03*
X5189Y9100D02*
D03*
D47*
X16571Y10571D02*
D03*
D48*
X8500Y8824D02*
D03*
X15950Y1950D02*
D03*
Y950D02*
D03*
X16950Y1950D02*
D03*
X14950D02*
D03*
D49*
X18681Y7517D02*
D03*
Y6517D02*
D03*
Y8517D02*
D03*
Y9517D02*
D03*
X19681Y6517D02*
D03*
X19677Y10530D02*
D03*
X19681Y9517D02*
D03*
Y8517D02*
D03*
Y7517D02*
D03*
X18681Y5517D02*
D03*
X19681Y2517D02*
D03*
Y3517D02*
D03*
Y4517D02*
D03*
X19677Y5530D02*
D03*
X19681Y1517D02*
D03*
X18681Y4517D02*
D03*
Y3517D02*
D03*
Y1517D02*
D03*
Y2517D02*
D03*
X1972Y7517D02*
D03*
Y6517D02*
D03*
Y8517D02*
D03*
Y9517D02*
D03*
X2972Y6517D02*
D03*
X2968Y10530D02*
D03*
X2972Y9517D02*
D03*
Y8517D02*
D03*
Y7517D02*
D03*
X1972Y5517D02*
D03*
X2972Y2517D02*
D03*
Y3517D02*
D03*
Y4517D02*
D03*
X2968Y5530D02*
D03*
X2972Y1517D02*
D03*
X1972Y4517D02*
D03*
Y3517D02*
D03*
Y1517D02*
D03*
Y2517D02*
D03*
X15078Y5592D02*
D03*
Y7514D02*
D03*
X11857Y884D02*
D03*
X10857D02*
D03*
X9857Y884D02*
D03*
X12857Y884D02*
D03*
D50*
X18681Y10517D02*
D03*
X1972D02*
D03*
D51*
X7427Y491D02*
D03*
X4573D02*
D03*
D52*
X6955Y1512D02*
D03*
X5045D02*
D03*
D53*
X14237Y3007D02*
D03*
X11678Y2685D02*
D03*
X5555Y3591D02*
D03*
X5050Y3707D02*
D03*
X8692Y4532D02*
D03*
X5846Y4786D02*
D03*
X5880Y5158D02*
D03*
X11865Y6597D02*
D03*
X11857Y6941D02*
D03*
X14288Y5471D02*
D03*
X13487Y5619D02*
D03*
X12875Y6076D02*
D03*
X10895Y7407D02*
D03*
X10278Y7247D02*
D03*
X10041Y5354D02*
D03*
X10721Y5742D02*
D03*
X10154Y6374D02*
D03*
X4880Y7046D02*
D03*
X13943Y7878D02*
D03*
X14080Y7179D02*
D03*
X16530Y8879D02*
D03*
X15496Y2819D02*
D03*
X16580Y3079D02*
D03*
X11872Y3850D02*
D03*
X11969Y2086D02*
D03*
X11214Y2381D02*
D03*
X11239Y3145D02*
D03*
X7930Y5404D02*
D03*
X8221Y5186D02*
D03*
X7523Y6150D02*
D03*
X9742Y6840D02*
D03*
X4438Y3252D02*
D03*
X11401Y3859D02*
D03*
X12385Y3792D02*
D03*
X12425Y4509D02*
D03*
X15064Y6609D02*
D03*
X11850Y6280D02*
D03*
X11300Y6273D02*
D03*
X9068Y4550D02*
D03*
X9509Y5600D02*
D03*
X9270Y5375D02*
D03*
X9500Y3911D02*
D03*
X9100Y4200D02*
D03*
X7294Y7328D02*
D03*
X9410Y7450D02*
D03*
X5982Y7600D02*
D03*
X7950Y7000D02*
D03*
X8250Y6800D02*
D03*
X9629Y7150D02*
D03*
X8220Y6280D02*
D03*
X8023Y5740D02*
D03*
X5281Y7355D02*
D03*
X13291Y2319D02*
D03*
X10223Y2034D02*
D03*
X5995Y314D02*
D03*
X6515Y764D02*
D03*
X5995D02*
D03*
X5417D02*
D03*
X4793Y6138D02*
D03*
Y5055D02*
D03*
X4850Y4428D02*
D03*
X15100Y4864D02*
D03*
X16250Y4514D02*
D03*
X15505Y3742D02*
D03*
X14619Y3264D02*
D03*
X14300Y4157D02*
D03*
X15600Y6557D02*
D03*
X16650D02*
D03*
X16250D02*
D03*
X14600Y8085D02*
D03*
X15392Y8364D02*
D03*
X7160Y6141D02*
D03*
X4400Y5639D02*
D03*
X3626Y7450D02*
D03*
X3913Y7750D02*
D03*
M02*
