M48
;Layer_Color=9474304
;FILE_FORMAT=2:4
INCH,TZ
;TYPE=PLATED
T1F00S00C0.0118
T2F00S00C0.0300
T3F00S00C0.0315
T4F00S00C0.0320
T5F00S00C0.0394
T7F00S00C0.0551
%
T01
X5995Y314
Y764
X6515
X5555Y3591
X5846Y4786
X5880Y5158
X7160Y6141
X7523Y6150
X8220Y6280
X8250Y6800
X7950Y7000
X7294Y7328
X5982Y7600
X9410Y7450
X9629Y7150
X9742Y6840
X10154Y6374
X10278Y7247
X10895Y7407
X11857Y6941
X11865Y6597
X11850Y6280
X11300Y6273
X10721Y5742
X10041Y5354
X9509Y5600
X9270Y5375
X9068Y4550
X9100Y4200
X9500Y3911
X8692Y4532
X8221Y5186
X7930Y5404
X8023Y5740
X12875Y6076
X13487Y5619
X14288Y5471
X14300Y4157
X14619Y3264
X14237Y3007
X15496Y2819
X15505Y3742
X16250Y4514
X15100Y4864
X15064Y6609
X15600Y6557
X16250
X16650
X14080Y7179
X12425Y4509
X12385Y3792
X11872Y3850
X11401Y3859
X11239Y3145
X11214Y2381
X11678Y2685
X11969Y2086
X13291Y2319
X10223Y2034
X16580Y3079
X5050Y3707
X4850Y4428
X4793Y5055
X4400Y5639
X4793Y6138
X4880Y7046
X5281Y7355
X3626Y7450
X4438Y3252
X5417Y764
X3913Y7750
X13943Y7878
X14600Y8085
X15392Y8364
X16530Y8879
T02
X15950Y950
Y1950
X16950
X14950
X8500Y8824
T03
X6955Y1512
X5045
X3937Y871
X1163Y850
X1075Y4073
X989Y6035
X3939Y7050
X5189Y9100
X5206Y10000
X989Y11250
X5800Y8520
T04
X15078Y5592
Y7514
T05
X8857Y884
X9857Y884
X10857Y884
X11857
X12857
X18681Y1517
X19681
Y2517
Y3517
Y4517
X18681
Y5517
Y6517
Y7517
X19681
Y6517
X19677Y5530
X18681Y3517
Y2517
X2972
Y3517
Y4517
X1972
Y5517
Y6517
Y7517
X2972
Y6517
X2968Y5530
X1972Y3517
Y2517
Y1517
X2972
Y8517
X1972
Y9517
X2972
X2968Y10530
X1972Y10517
X18681
Y9517
Y8517
X19681
Y9517
X19677Y10530
T07
X16571Y10571
M30
