G04*
G04 #@! TF.GenerationSoftware,Altium Limited,Altium Designer,19.0.15 (446)*
G04*
G04 Layer_Color=2752767*
%FSLAX24Y24*%
%MOIN*%
G70*
G01*
G75*
%ADD54C,0.0020*%
%ADD55C,0.0027*%
D54*
X3857Y791D02*
Y951D01*
X4017D01*
Y791D01*
X3857D01*
X1083Y770D02*
Y930D01*
X1243D01*
Y770D01*
X1083D01*
X8500Y8744D02*
X8420Y8904D01*
X8580D01*
X8500Y8744D01*
X995Y3993D02*
Y4153D01*
X1155D01*
Y3993D01*
X995D01*
X909Y11170D02*
Y11330D01*
X1069D01*
Y11170D01*
X909D01*
X5126Y9920D02*
Y10080D01*
X5286D01*
Y9920D01*
X5126D01*
X3859Y6970D02*
Y7130D01*
X4019D01*
Y6970D01*
X3859D01*
X909Y5955D02*
Y6115D01*
X1069D01*
Y5955D01*
X909D01*
X5720Y8440D02*
Y8600D01*
X5880D01*
Y8440D01*
X5720D01*
X5109Y9020D02*
Y9180D01*
X5269D01*
Y9020D01*
X5109D01*
X18681Y7437D02*
X18721Y7477D01*
X18761D01*
X18721Y7517D01*
X18761Y7557D01*
X18721D01*
X18681Y7597D01*
X18641Y7557D01*
X18601D01*
X18641Y7517D01*
X18601Y7477D01*
X18641D01*
X18681Y7437D01*
Y6437D02*
X18721Y6477D01*
X18761D01*
X18721Y6517D01*
X18761Y6557D01*
X18721D01*
X18681Y6597D01*
X18641Y6557D01*
X18601D01*
X18641Y6517D01*
X18601Y6477D01*
X18641D01*
X18681Y6437D01*
Y8437D02*
X18721Y8477D01*
X18761D01*
X18721Y8517D01*
X18761Y8557D01*
X18721D01*
X18681Y8597D01*
X18641Y8557D01*
X18601D01*
X18641Y8517D01*
X18601Y8477D01*
X18641D01*
X18681Y8437D01*
Y9437D02*
X18721Y9477D01*
X18761D01*
X18721Y9517D01*
X18761Y9557D01*
X18721D01*
X18681Y9597D01*
X18641Y9557D01*
X18601D01*
X18641Y9517D01*
X18601Y9477D01*
X18641D01*
X18681Y9437D01*
X19681Y6437D02*
X19721Y6477D01*
X19761D01*
X19721Y6517D01*
X19761Y6557D01*
X19721D01*
X19681Y6597D01*
X19641Y6557D01*
X19601D01*
X19641Y6517D01*
X19601Y6477D01*
X19641D01*
X19681Y6437D01*
X19677Y10450D02*
X19717Y10490D01*
X19757D01*
X19717Y10530D01*
X19757Y10570D01*
X19717D01*
X19677Y10610D01*
X19637Y10570D01*
X19597D01*
X19637Y10530D01*
X19597Y10490D01*
X19637D01*
X19677Y10450D01*
X19681Y9437D02*
X19721Y9477D01*
X19761D01*
X19721Y9517D01*
X19761Y9557D01*
X19721D01*
X19681Y9597D01*
X19641Y9557D01*
X19601D01*
X19641Y9517D01*
X19601Y9477D01*
X19641D01*
X19681Y9437D01*
Y8437D02*
X19721Y8477D01*
X19761D01*
X19721Y8517D01*
X19761Y8557D01*
X19721D01*
X19681Y8597D01*
X19641Y8557D01*
X19601D01*
X19641Y8517D01*
X19601Y8477D01*
X19641D01*
X19681Y8437D01*
Y7437D02*
X19721Y7477D01*
X19761D01*
X19721Y7517D01*
X19761Y7557D01*
X19721D01*
X19681Y7597D01*
X19641Y7557D01*
X19601D01*
X19641Y7517D01*
X19601Y7477D01*
X19641D01*
X19681Y7437D01*
X18681Y10437D02*
X18721Y10477D01*
X18761D01*
X18721Y10517D01*
X18761Y10557D01*
X18721D01*
X18681Y10597D01*
X18641Y10557D01*
X18601D01*
X18641Y10517D01*
X18601Y10477D01*
X18641D01*
X18681Y10437D01*
Y5437D02*
X18721Y5477D01*
X18761D01*
X18721Y5517D01*
X18761Y5557D01*
X18721D01*
X18681Y5597D01*
X18641Y5557D01*
X18601D01*
X18641Y5517D01*
X18601Y5477D01*
X18641D01*
X18681Y5437D01*
X19681Y2437D02*
X19721Y2477D01*
X19761D01*
X19721Y2517D01*
X19761Y2557D01*
X19721D01*
X19681Y2597D01*
X19641Y2557D01*
X19601D01*
X19641Y2517D01*
X19601Y2477D01*
X19641D01*
X19681Y2437D01*
Y3437D02*
X19721Y3477D01*
X19761D01*
X19721Y3517D01*
X19761Y3557D01*
X19721D01*
X19681Y3597D01*
X19641Y3557D01*
X19601D01*
X19641Y3517D01*
X19601Y3477D01*
X19641D01*
X19681Y3437D01*
Y4437D02*
X19721Y4477D01*
X19761D01*
X19721Y4517D01*
X19761Y4557D01*
X19721D01*
X19681Y4597D01*
X19641Y4557D01*
X19601D01*
X19641Y4517D01*
X19601Y4477D01*
X19641D01*
X19681Y4437D01*
X19677Y5450D02*
X19717Y5490D01*
X19757D01*
X19717Y5530D01*
X19757Y5570D01*
X19717D01*
X19677Y5610D01*
X19637Y5570D01*
X19597D01*
X19637Y5530D01*
X19597Y5490D01*
X19637D01*
X19677Y5450D01*
X19681Y1437D02*
X19721Y1477D01*
X19761D01*
X19721Y1517D01*
X19761Y1557D01*
X19721D01*
X19681Y1597D01*
X19641Y1557D01*
X19601D01*
X19641Y1517D01*
X19601Y1477D01*
X19641D01*
X19681Y1437D01*
X18681Y4437D02*
X18721Y4477D01*
X18761D01*
X18721Y4517D01*
X18761Y4557D01*
X18721D01*
X18681Y4597D01*
X18641Y4557D01*
X18601D01*
X18641Y4517D01*
X18601Y4477D01*
X18641D01*
X18681Y4437D01*
Y3437D02*
X18721Y3477D01*
X18761D01*
X18721Y3517D01*
X18761Y3557D01*
X18721D01*
X18681Y3597D01*
X18641Y3557D01*
X18601D01*
X18641Y3517D01*
X18601Y3477D01*
X18641D01*
X18681Y3437D01*
Y1437D02*
X18721Y1477D01*
X18761D01*
X18721Y1517D01*
X18761Y1557D01*
X18721D01*
X18681Y1597D01*
X18641Y1557D01*
X18601D01*
X18641Y1517D01*
X18601Y1477D01*
X18641D01*
X18681Y1437D01*
Y2437D02*
X18721Y2477D01*
X18761D01*
X18721Y2517D01*
X18761Y2557D01*
X18721D01*
X18681Y2597D01*
X18641Y2557D01*
X18601D01*
X18641Y2517D01*
X18601Y2477D01*
X18641D01*
X18681Y2437D01*
X1972Y7437D02*
X2012Y7477D01*
X2052D01*
X2012Y7517D01*
X2052Y7557D01*
X2012D01*
X1972Y7597D01*
X1932Y7557D01*
X1892D01*
X1932Y7517D01*
X1892Y7477D01*
X1932D01*
X1972Y7437D01*
Y6437D02*
X2012Y6477D01*
X2052D01*
X2012Y6517D01*
X2052Y6557D01*
X2012D01*
X1972Y6597D01*
X1932Y6557D01*
X1892D01*
X1932Y6517D01*
X1892Y6477D01*
X1932D01*
X1972Y6437D01*
Y8437D02*
X2012Y8477D01*
X2052D01*
X2012Y8517D01*
X2052Y8557D01*
X2012D01*
X1972Y8597D01*
X1932Y8557D01*
X1892D01*
X1932Y8517D01*
X1892Y8477D01*
X1932D01*
X1972Y8437D01*
Y9437D02*
X2012Y9477D01*
X2052D01*
X2012Y9517D01*
X2052Y9557D01*
X2012D01*
X1972Y9597D01*
X1932Y9557D01*
X1892D01*
X1932Y9517D01*
X1892Y9477D01*
X1932D01*
X1972Y9437D01*
X2972Y6437D02*
X3012Y6477D01*
X3052D01*
X3012Y6517D01*
X3052Y6557D01*
X3012D01*
X2972Y6597D01*
X2932Y6557D01*
X2892D01*
X2932Y6517D01*
X2892Y6477D01*
X2932D01*
X2972Y6437D01*
X2968Y10450D02*
X3009Y10490D01*
X3049D01*
X3009Y10530D01*
X3049Y10570D01*
X3009D01*
X2968Y10610D01*
X2928Y10570D01*
X2889D01*
X2928Y10530D01*
X2889Y10490D01*
X2928D01*
X2968Y10450D01*
X2972Y9437D02*
X3012Y9477D01*
X3052D01*
X3012Y9517D01*
X3052Y9557D01*
X3012D01*
X2972Y9597D01*
X2932Y9557D01*
X2892D01*
X2932Y9517D01*
X2892Y9477D01*
X2932D01*
X2972Y9437D01*
Y8437D02*
X3012Y8477D01*
X3052D01*
X3012Y8517D01*
X3052Y8557D01*
X3012D01*
X2972Y8597D01*
X2932Y8557D01*
X2892D01*
X2932Y8517D01*
X2892Y8477D01*
X2932D01*
X2972Y8437D01*
Y7437D02*
X3012Y7477D01*
X3052D01*
X3012Y7517D01*
X3052Y7557D01*
X3012D01*
X2972Y7597D01*
X2932Y7557D01*
X2892D01*
X2932Y7517D01*
X2892Y7477D01*
X2932D01*
X2972Y7437D01*
X1972Y10437D02*
X2012Y10477D01*
X2052D01*
X2012Y10517D01*
X2052Y10557D01*
X2012D01*
X1972Y10597D01*
X1932Y10557D01*
X1892D01*
X1932Y10517D01*
X1892Y10477D01*
X1932D01*
X1972Y10437D01*
Y5437D02*
X2012Y5477D01*
X2052D01*
X2012Y5517D01*
X2052Y5557D01*
X2012D01*
X1972Y5597D01*
X1932Y5557D01*
X1892D01*
X1932Y5517D01*
X1892Y5477D01*
X1932D01*
X1972Y5437D01*
X2972Y2437D02*
X3012Y2477D01*
X3052D01*
X3012Y2517D01*
X3052Y2557D01*
X3012D01*
X2972Y2597D01*
X2932Y2557D01*
X2892D01*
X2932Y2517D01*
X2892Y2477D01*
X2932D01*
X2972Y2437D01*
Y3437D02*
X3012Y3477D01*
X3052D01*
X3012Y3517D01*
X3052Y3557D01*
X3012D01*
X2972Y3597D01*
X2932Y3557D01*
X2892D01*
X2932Y3517D01*
X2892Y3477D01*
X2932D01*
X2972Y3437D01*
Y4437D02*
X3012Y4477D01*
X3052D01*
X3012Y4517D01*
X3052Y4557D01*
X3012D01*
X2972Y4597D01*
X2932Y4557D01*
X2892D01*
X2932Y4517D01*
X2892Y4477D01*
X2932D01*
X2972Y4437D01*
X2968Y5450D02*
X3009Y5490D01*
X3049D01*
X3009Y5530D01*
X3049Y5570D01*
X3009D01*
X2968Y5610D01*
X2928Y5570D01*
X2889D01*
X2928Y5530D01*
X2889Y5490D01*
X2928D01*
X2968Y5450D01*
X2972Y1437D02*
X3012Y1477D01*
X3052D01*
X3012Y1517D01*
X3052Y1557D01*
X3012D01*
X2972Y1597D01*
X2932Y1557D01*
X2892D01*
X2932Y1517D01*
X2892Y1477D01*
X2932D01*
X2972Y1437D01*
X1972Y4437D02*
X2012Y4477D01*
X2052D01*
X2012Y4517D01*
X2052Y4557D01*
X2012D01*
X1972Y4597D01*
X1932Y4557D01*
X1892D01*
X1932Y4517D01*
X1892Y4477D01*
X1932D01*
X1972Y4437D01*
Y3437D02*
X2012Y3477D01*
X2052D01*
X2012Y3517D01*
X2052Y3557D01*
X2012D01*
X1972Y3597D01*
X1932Y3557D01*
X1892D01*
X1932Y3517D01*
X1892Y3477D01*
X1932D01*
X1972Y3437D01*
Y1437D02*
X2012Y1477D01*
X2052D01*
X2012Y1517D01*
X2052Y1557D01*
X2012D01*
X1972Y1597D01*
X1932Y1557D01*
X1892D01*
X1932Y1517D01*
X1892Y1477D01*
X1932D01*
X1972Y1437D01*
Y2437D02*
X2012Y2477D01*
X2052D01*
X2012Y2517D01*
X2052Y2557D01*
X2012D01*
X1972Y2597D01*
X1932Y2557D01*
X1892D01*
X1932Y2517D01*
X1892Y2477D01*
X1932D01*
X1972Y2437D01*
X14998Y5512D02*
X15038Y5592D01*
X14998Y5672D01*
X15078Y5632D01*
X15158Y5672D01*
X15118Y5592D01*
X15158Y5512D01*
X15078Y5552D01*
X14998Y5512D01*
Y7434D02*
X15038Y7514D01*
X14998Y7594D01*
X15078Y7554D01*
X15158Y7594D01*
X15118Y7514D01*
X15158Y7434D01*
X15078Y7474D01*
X14998Y7434D01*
X11857Y804D02*
X11897Y844D01*
X11937D01*
X11897Y884D01*
X11937Y924D01*
X11897D01*
X11857Y964D01*
X11817Y924D01*
X11777D01*
X11817Y884D01*
X11777Y844D01*
X11817D01*
X11857Y804D01*
X10857D02*
X10897Y844D01*
X10937D01*
X10897Y884D01*
X10937Y924D01*
X10897D01*
X10857Y964D01*
X10817Y924D01*
X10777D01*
X10817Y884D01*
X10777Y844D01*
X10817D01*
X10857Y804D01*
X9857Y804D02*
X9897Y844D01*
X9937D01*
X9897Y884D01*
X9937Y924D01*
X9897D01*
X9857Y964D01*
X9817Y924D01*
X9777D01*
X9817Y884D01*
X9777Y844D01*
X9817D01*
X9857Y804D01*
X8857Y804D02*
X8897Y844D01*
X8937D01*
X8897Y884D01*
X8937Y924D01*
X8897D01*
X8857Y964D01*
X8817Y924D01*
X8777D01*
X8817Y884D01*
X8777Y844D01*
X8817D01*
X8857Y804D01*
X12857D02*
X12897Y844D01*
X12937D01*
X12897Y884D01*
X12937Y924D01*
X12897D01*
X12857Y964D01*
X12817Y924D01*
X12777D01*
X12817Y884D01*
X12777Y844D01*
X12817D01*
X12857Y804D01*
X15950Y1870D02*
X15870Y2030D01*
X16030D01*
X15950Y1870D01*
Y870D02*
X15870Y1030D01*
X16030D01*
X15950Y870D01*
X16950Y1870D02*
X16870Y2030D01*
X17030D01*
X16950Y1870D01*
X14950D02*
X14870Y2030D01*
X15030D01*
X14950Y1870D01*
X7387Y451D02*
Y411D01*
X7467D01*
Y451D01*
X7507D01*
Y531D01*
X7467D01*
Y571D01*
X7387D01*
Y531D01*
X7347D01*
Y451D01*
X7387D01*
X4533D02*
Y411D01*
X4613D01*
Y451D01*
X4653D01*
Y531D01*
X4613D01*
Y571D01*
X4533D01*
Y531D01*
X4493D01*
Y451D01*
X4533D01*
X6875Y1432D02*
Y1592D01*
X7035D01*
Y1432D01*
X6875D01*
X4965D02*
Y1592D01*
X5125D01*
Y1432D01*
X4965D01*
X14157Y2927D02*
X14197D01*
X14237Y2967D01*
X14277Y2927D01*
X14317D01*
Y2967D01*
X14277Y3007D01*
X14317Y3047D01*
Y3087D01*
X14277D01*
X14237Y3047D01*
X14197Y3087D01*
X14157D01*
Y3047D01*
X14197Y3007D01*
X14157Y2967D01*
Y2927D01*
X11598Y2605D02*
X11638D01*
X11678Y2645D01*
X11718Y2605D01*
X11758D01*
Y2645D01*
X11718Y2685D01*
X11758Y2725D01*
Y2765D01*
X11718D01*
X11678Y2725D01*
X11638Y2765D01*
X11598D01*
Y2725D01*
X11638Y2685D01*
X11598Y2645D01*
Y2605D01*
X5475Y3511D02*
X5515D01*
X5555Y3551D01*
X5595Y3511D01*
X5635D01*
Y3551D01*
X5595Y3591D01*
X5635Y3631D01*
Y3671D01*
X5595D01*
X5555Y3631D01*
X5515Y3671D01*
X5475D01*
Y3631D01*
X5515Y3591D01*
X5475Y3551D01*
Y3511D01*
X4970Y3627D02*
X5010D01*
X5050Y3667D01*
X5090Y3627D01*
X5130D01*
Y3667D01*
X5090Y3707D01*
X5130Y3747D01*
Y3787D01*
X5090D01*
X5050Y3747D01*
X5010Y3787D01*
X4970D01*
Y3747D01*
X5010Y3707D01*
X4970Y3667D01*
Y3627D01*
X8612Y4452D02*
X8652D01*
X8692Y4492D01*
X8732Y4452D01*
X8772D01*
Y4492D01*
X8732Y4532D01*
X8772Y4572D01*
Y4612D01*
X8732D01*
X8692Y4572D01*
X8652Y4612D01*
X8612D01*
Y4572D01*
X8652Y4532D01*
X8612Y4492D01*
Y4452D01*
X5766Y4706D02*
X5806D01*
X5846Y4746D01*
X5886Y4706D01*
X5926D01*
Y4746D01*
X5886Y4786D01*
X5926Y4826D01*
Y4866D01*
X5886D01*
X5846Y4826D01*
X5806Y4866D01*
X5766D01*
Y4826D01*
X5806Y4786D01*
X5766Y4746D01*
Y4706D01*
X5800Y5078D02*
X5840D01*
X5880Y5118D01*
X5920Y5078D01*
X5960D01*
Y5118D01*
X5920Y5158D01*
X5960Y5198D01*
Y5238D01*
X5920D01*
X5880Y5198D01*
X5840Y5238D01*
X5800D01*
Y5198D01*
X5840Y5158D01*
X5800Y5118D01*
Y5078D01*
X11785Y6517D02*
X11825D01*
X11865Y6557D01*
X11905Y6517D01*
X11945D01*
Y6557D01*
X11905Y6597D01*
X11945Y6637D01*
Y6677D01*
X11905D01*
X11865Y6637D01*
X11825Y6677D01*
X11785D01*
Y6637D01*
X11825Y6597D01*
X11785Y6557D01*
Y6517D01*
X11777Y6861D02*
X11817D01*
X11857Y6901D01*
X11897Y6861D01*
X11937D01*
Y6901D01*
X11897Y6941D01*
X11937Y6981D01*
Y7021D01*
X11897D01*
X11857Y6981D01*
X11817Y7021D01*
X11777D01*
Y6981D01*
X11817Y6941D01*
X11777Y6901D01*
Y6861D01*
X14208Y5391D02*
X14248D01*
X14288Y5431D01*
X14328Y5391D01*
X14368D01*
Y5431D01*
X14328Y5471D01*
X14368Y5511D01*
Y5551D01*
X14328D01*
X14288Y5511D01*
X14248Y5551D01*
X14208D01*
Y5511D01*
X14248Y5471D01*
X14208Y5431D01*
Y5391D01*
X13407Y5539D02*
X13447D01*
X13487Y5579D01*
X13527Y5539D01*
X13567D01*
Y5579D01*
X13527Y5619D01*
X13567Y5659D01*
Y5699D01*
X13527D01*
X13487Y5659D01*
X13447Y5699D01*
X13407D01*
Y5659D01*
X13447Y5619D01*
X13407Y5579D01*
Y5539D01*
X12795Y5996D02*
X12835D01*
X12875Y6036D01*
X12915Y5996D01*
X12955D01*
Y6036D01*
X12915Y6076D01*
X12955Y6116D01*
Y6156D01*
X12915D01*
X12875Y6116D01*
X12835Y6156D01*
X12795D01*
Y6116D01*
X12835Y6076D01*
X12795Y6036D01*
Y5996D01*
X10815Y7327D02*
X10855D01*
X10895Y7367D01*
X10935Y7327D01*
X10975D01*
Y7367D01*
X10935Y7407D01*
X10975Y7447D01*
Y7487D01*
X10935D01*
X10895Y7447D01*
X10855Y7487D01*
X10815D01*
Y7447D01*
X10855Y7407D01*
X10815Y7367D01*
Y7327D01*
X10198Y7167D02*
X10238D01*
X10278Y7207D01*
X10318Y7167D01*
X10358D01*
Y7207D01*
X10318Y7247D01*
X10358Y7287D01*
Y7327D01*
X10318D01*
X10278Y7287D01*
X10238Y7327D01*
X10198D01*
Y7287D01*
X10238Y7247D01*
X10198Y7207D01*
Y7167D01*
X9961Y5274D02*
X10001D01*
X10041Y5314D01*
X10081Y5274D01*
X10121D01*
Y5314D01*
X10081Y5354D01*
X10121Y5394D01*
Y5434D01*
X10081D01*
X10041Y5394D01*
X10001Y5434D01*
X9961D01*
Y5394D01*
X10001Y5354D01*
X9961Y5314D01*
Y5274D01*
X10641Y5662D02*
X10681D01*
X10721Y5702D01*
X10761Y5662D01*
X10801D01*
Y5702D01*
X10761Y5742D01*
X10801Y5782D01*
Y5822D01*
X10761D01*
X10721Y5782D01*
X10681Y5822D01*
X10641D01*
Y5782D01*
X10681Y5742D01*
X10641Y5702D01*
Y5662D01*
X10074Y6294D02*
X10114D01*
X10154Y6334D01*
X10194Y6294D01*
X10234D01*
Y6334D01*
X10194Y6374D01*
X10234Y6414D01*
Y6454D01*
X10194D01*
X10154Y6414D01*
X10114Y6454D01*
X10074D01*
Y6414D01*
X10114Y6374D01*
X10074Y6334D01*
Y6294D01*
X4800Y6966D02*
X4840D01*
X4880Y7006D01*
X4920Y6966D01*
X4960D01*
Y7006D01*
X4920Y7046D01*
X4960Y7086D01*
Y7126D01*
X4920D01*
X4880Y7086D01*
X4840Y7126D01*
X4800D01*
Y7086D01*
X4840Y7046D01*
X4800Y7006D01*
Y6966D01*
X13863Y7798D02*
X13903D01*
X13943Y7838D01*
X13983Y7798D01*
X14023D01*
Y7838D01*
X13983Y7878D01*
X14023Y7918D01*
Y7958D01*
X13983D01*
X13943Y7918D01*
X13903Y7958D01*
X13863D01*
Y7918D01*
X13903Y7878D01*
X13863Y7838D01*
Y7798D01*
X14000Y7099D02*
X14040D01*
X14080Y7139D01*
X14120Y7099D01*
X14160D01*
Y7139D01*
X14120Y7179D01*
X14160Y7219D01*
Y7259D01*
X14120D01*
X14080Y7219D01*
X14040Y7259D01*
X14000D01*
Y7219D01*
X14040Y7179D01*
X14000Y7139D01*
Y7099D01*
X16450Y8799D02*
X16490D01*
X16530Y8839D01*
X16570Y8799D01*
X16610D01*
Y8839D01*
X16570Y8879D01*
X16610Y8919D01*
Y8959D01*
X16570D01*
X16530Y8919D01*
X16490Y8959D01*
X16450D01*
Y8919D01*
X16490Y8879D01*
X16450Y8839D01*
Y8799D01*
X15416Y2739D02*
X15456D01*
X15496Y2779D01*
X15536Y2739D01*
X15576D01*
Y2779D01*
X15536Y2819D01*
X15576Y2859D01*
Y2899D01*
X15536D01*
X15496Y2859D01*
X15456Y2899D01*
X15416D01*
Y2859D01*
X15456Y2819D01*
X15416Y2779D01*
Y2739D01*
X16500Y2999D02*
X16540D01*
X16580Y3039D01*
X16620Y2999D01*
X16660D01*
Y3039D01*
X16620Y3079D01*
X16660Y3119D01*
Y3159D01*
X16620D01*
X16580Y3119D01*
X16540Y3159D01*
X16500D01*
Y3119D01*
X16540Y3079D01*
X16500Y3039D01*
Y2999D01*
X11792Y3770D02*
X11832D01*
X11872Y3810D01*
X11912Y3770D01*
X11952D01*
Y3810D01*
X11912Y3850D01*
X11952Y3890D01*
Y3930D01*
X11912D01*
X11872Y3890D01*
X11832Y3930D01*
X11792D01*
Y3890D01*
X11832Y3850D01*
X11792Y3810D01*
Y3770D01*
X11889Y2006D02*
X11929D01*
X11969Y2046D01*
X12009Y2006D01*
X12049D01*
Y2046D01*
X12009Y2086D01*
X12049Y2126D01*
Y2166D01*
X12009D01*
X11969Y2126D01*
X11929Y2166D01*
X11889D01*
Y2126D01*
X11929Y2086D01*
X11889Y2046D01*
Y2006D01*
X11134Y2301D02*
X11174D01*
X11214Y2341D01*
X11254Y2301D01*
X11294D01*
Y2341D01*
X11254Y2381D01*
X11294Y2421D01*
Y2461D01*
X11254D01*
X11214Y2421D01*
X11174Y2461D01*
X11134D01*
Y2421D01*
X11174Y2381D01*
X11134Y2341D01*
Y2301D01*
X11159Y3065D02*
X11199D01*
X11239Y3105D01*
X11279Y3065D01*
X11319D01*
Y3105D01*
X11279Y3145D01*
X11319Y3185D01*
Y3225D01*
X11279D01*
X11239Y3185D01*
X11199Y3225D01*
X11159D01*
Y3185D01*
X11199Y3145D01*
X11159Y3105D01*
Y3065D01*
X7850Y5324D02*
X7890D01*
X7930Y5364D01*
X7970Y5324D01*
X8010D01*
Y5364D01*
X7970Y5404D01*
X8010Y5444D01*
Y5484D01*
X7970D01*
X7930Y5444D01*
X7890Y5484D01*
X7850D01*
Y5444D01*
X7890Y5404D01*
X7850Y5364D01*
Y5324D01*
X8141Y5106D02*
X8181D01*
X8221Y5146D01*
X8261Y5106D01*
X8301D01*
Y5146D01*
X8261Y5186D01*
X8301Y5226D01*
Y5266D01*
X8261D01*
X8221Y5226D01*
X8181Y5266D01*
X8141D01*
Y5226D01*
X8181Y5186D01*
X8141Y5146D01*
Y5106D01*
X7443Y6070D02*
X7483D01*
X7523Y6110D01*
X7563Y6070D01*
X7603D01*
Y6110D01*
X7563Y6150D01*
X7603Y6190D01*
Y6230D01*
X7563D01*
X7523Y6190D01*
X7483Y6230D01*
X7443D01*
Y6190D01*
X7483Y6150D01*
X7443Y6110D01*
Y6070D01*
X9662Y6760D02*
X9702D01*
X9742Y6800D01*
X9782Y6760D01*
X9822D01*
Y6800D01*
X9782Y6840D01*
X9822Y6880D01*
Y6920D01*
X9782D01*
X9742Y6880D01*
X9702Y6920D01*
X9662D01*
Y6880D01*
X9702Y6840D01*
X9662Y6800D01*
Y6760D01*
X4358Y3172D02*
X4398D01*
X4438Y3212D01*
X4478Y3172D01*
X4518D01*
Y3212D01*
X4478Y3252D01*
X4518Y3292D01*
Y3332D01*
X4478D01*
X4438Y3292D01*
X4398Y3332D01*
X4358D01*
Y3292D01*
X4398Y3252D01*
X4358Y3212D01*
Y3172D01*
X11321Y3779D02*
X11361D01*
X11401Y3819D01*
X11441Y3779D01*
X11481D01*
Y3819D01*
X11441Y3859D01*
X11481Y3899D01*
Y3939D01*
X11441D01*
X11401Y3899D01*
X11361Y3939D01*
X11321D01*
Y3899D01*
X11361Y3859D01*
X11321Y3819D01*
Y3779D01*
X12305Y3712D02*
X12345D01*
X12385Y3752D01*
X12425Y3712D01*
X12465D01*
Y3752D01*
X12425Y3792D01*
X12465Y3832D01*
Y3872D01*
X12425D01*
X12385Y3832D01*
X12345Y3872D01*
X12305D01*
Y3832D01*
X12345Y3792D01*
X12305Y3752D01*
Y3712D01*
X12345Y4429D02*
X12385D01*
X12425Y4469D01*
X12465Y4429D01*
X12505D01*
Y4469D01*
X12465Y4509D01*
X12505Y4549D01*
Y4589D01*
X12465D01*
X12425Y4549D01*
X12385Y4589D01*
X12345D01*
Y4549D01*
X12385Y4509D01*
X12345Y4469D01*
Y4429D01*
X14984Y6529D02*
X15024D01*
X15064Y6569D01*
X15104Y6529D01*
X15144D01*
Y6569D01*
X15104Y6609D01*
X15144Y6649D01*
Y6689D01*
X15104D01*
X15064Y6649D01*
X15024Y6689D01*
X14984D01*
Y6649D01*
X15024Y6609D01*
X14984Y6569D01*
Y6529D01*
X11770Y6200D02*
X11810D01*
X11850Y6240D01*
X11890Y6200D01*
X11930D01*
Y6240D01*
X11890Y6280D01*
X11930Y6320D01*
Y6360D01*
X11890D01*
X11850Y6320D01*
X11810Y6360D01*
X11770D01*
Y6320D01*
X11810Y6280D01*
X11770Y6240D01*
Y6200D01*
X11220Y6193D02*
X11260D01*
X11300Y6233D01*
X11340Y6193D01*
X11380D01*
Y6233D01*
X11340Y6273D01*
X11380Y6313D01*
Y6353D01*
X11340D01*
X11300Y6313D01*
X11260Y6353D01*
X11220D01*
Y6313D01*
X11260Y6273D01*
X11220Y6233D01*
Y6193D01*
X8988Y4470D02*
X9028D01*
X9068Y4510D01*
X9108Y4470D01*
X9148D01*
Y4510D01*
X9108Y4550D01*
X9148Y4590D01*
Y4630D01*
X9108D01*
X9068Y4590D01*
X9028Y4630D01*
X8988D01*
Y4590D01*
X9028Y4550D01*
X8988Y4510D01*
Y4470D01*
X9429Y5520D02*
X9469D01*
X9509Y5560D01*
X9549Y5520D01*
X9589D01*
Y5560D01*
X9549Y5600D01*
X9589Y5640D01*
Y5680D01*
X9549D01*
X9509Y5640D01*
X9469Y5680D01*
X9429D01*
Y5640D01*
X9469Y5600D01*
X9429Y5560D01*
Y5520D01*
X9190Y5295D02*
X9230D01*
X9270Y5335D01*
X9310Y5295D01*
X9350D01*
Y5335D01*
X9310Y5375D01*
X9350Y5415D01*
Y5455D01*
X9310D01*
X9270Y5415D01*
X9230Y5455D01*
X9190D01*
Y5415D01*
X9230Y5375D01*
X9190Y5335D01*
Y5295D01*
X9420Y3831D02*
X9460D01*
X9500Y3871D01*
X9540Y3831D01*
X9580D01*
Y3871D01*
X9540Y3911D01*
X9580Y3951D01*
Y3991D01*
X9540D01*
X9500Y3951D01*
X9460Y3991D01*
X9420D01*
Y3951D01*
X9460Y3911D01*
X9420Y3871D01*
Y3831D01*
X9020Y4120D02*
X9060D01*
X9100Y4160D01*
X9140Y4120D01*
X9180D01*
Y4160D01*
X9140Y4200D01*
X9180Y4240D01*
Y4280D01*
X9140D01*
X9100Y4240D01*
X9060Y4280D01*
X9020D01*
Y4240D01*
X9060Y4200D01*
X9020Y4160D01*
Y4120D01*
X7214Y7248D02*
X7254D01*
X7294Y7288D01*
X7334Y7248D01*
X7374D01*
Y7288D01*
X7334Y7328D01*
X7374Y7368D01*
Y7408D01*
X7334D01*
X7294Y7368D01*
X7254Y7408D01*
X7214D01*
Y7368D01*
X7254Y7328D01*
X7214Y7288D01*
Y7248D01*
X9330Y7370D02*
X9370D01*
X9410Y7410D01*
X9450Y7370D01*
X9490D01*
Y7410D01*
X9450Y7450D01*
X9490Y7490D01*
Y7530D01*
X9450D01*
X9410Y7490D01*
X9370Y7530D01*
X9330D01*
Y7490D01*
X9370Y7450D01*
X9330Y7410D01*
Y7370D01*
X5902Y7520D02*
X5942D01*
X5982Y7560D01*
X6022Y7520D01*
X6062D01*
Y7560D01*
X6022Y7600D01*
X6062Y7640D01*
Y7680D01*
X6022D01*
X5982Y7640D01*
X5942Y7680D01*
X5902D01*
Y7640D01*
X5942Y7600D01*
X5902Y7560D01*
Y7520D01*
X7870Y6920D02*
X7910D01*
X7950Y6960D01*
X7990Y6920D01*
X8030D01*
Y6960D01*
X7990Y7000D01*
X8030Y7040D01*
Y7080D01*
X7990D01*
X7950Y7040D01*
X7910Y7080D01*
X7870D01*
Y7040D01*
X7910Y7000D01*
X7870Y6960D01*
Y6920D01*
X8170Y6720D02*
X8210D01*
X8250Y6760D01*
X8290Y6720D01*
X8330D01*
Y6760D01*
X8290Y6800D01*
X8330Y6840D01*
Y6880D01*
X8290D01*
X8250Y6840D01*
X8210Y6880D01*
X8170D01*
Y6840D01*
X8210Y6800D01*
X8170Y6760D01*
Y6720D01*
X9549Y7070D02*
X9589D01*
X9629Y7110D01*
X9669Y7070D01*
X9709D01*
Y7110D01*
X9669Y7150D01*
X9709Y7190D01*
Y7230D01*
X9669D01*
X9629Y7190D01*
X9589Y7230D01*
X9549D01*
Y7190D01*
X9589Y7150D01*
X9549Y7110D01*
Y7070D01*
X8140Y6200D02*
X8180D01*
X8220Y6240D01*
X8260Y6200D01*
X8300D01*
Y6240D01*
X8260Y6280D01*
X8300Y6320D01*
Y6360D01*
X8260D01*
X8220Y6320D01*
X8180Y6360D01*
X8140D01*
Y6320D01*
X8180Y6280D01*
X8140Y6240D01*
Y6200D01*
X7943Y5660D02*
X7983D01*
X8023Y5700D01*
X8063Y5660D01*
X8103D01*
Y5700D01*
X8063Y5740D01*
X8103Y5780D01*
Y5820D01*
X8063D01*
X8023Y5780D01*
X7983Y5820D01*
X7943D01*
Y5780D01*
X7983Y5740D01*
X7943Y5700D01*
Y5660D01*
X5201Y7275D02*
X5241D01*
X5281Y7315D01*
X5321Y7275D01*
X5361D01*
Y7315D01*
X5321Y7355D01*
X5361Y7395D01*
Y7435D01*
X5321D01*
X5281Y7395D01*
X5241Y7435D01*
X5201D01*
Y7395D01*
X5241Y7355D01*
X5201Y7315D01*
Y7275D01*
X13211Y2239D02*
X13251D01*
X13291Y2279D01*
X13331Y2239D01*
X13371D01*
Y2279D01*
X13331Y2319D01*
X13371Y2359D01*
Y2399D01*
X13331D01*
X13291Y2359D01*
X13251Y2399D01*
X13211D01*
Y2359D01*
X13251Y2319D01*
X13211Y2279D01*
Y2239D01*
X10143Y1954D02*
X10183D01*
X10223Y1994D01*
X10263Y1954D01*
X10303D01*
Y1994D01*
X10263Y2034D01*
X10303Y2074D01*
Y2114D01*
X10263D01*
X10223Y2074D01*
X10183Y2114D01*
X10143D01*
Y2074D01*
X10183Y2034D01*
X10143Y1994D01*
Y1954D01*
X5915Y234D02*
X5955D01*
X5995Y274D01*
X6035Y234D01*
X6075D01*
Y274D01*
X6035Y314D01*
X6075Y354D01*
Y394D01*
X6035D01*
X5995Y354D01*
X5955Y394D01*
X5915D01*
Y354D01*
X5955Y314D01*
X5915Y274D01*
Y234D01*
X6435Y684D02*
X6475D01*
X6515Y724D01*
X6555Y684D01*
X6595D01*
Y724D01*
X6555Y764D01*
X6595Y804D01*
Y844D01*
X6555D01*
X6515Y804D01*
X6475Y844D01*
X6435D01*
Y804D01*
X6475Y764D01*
X6435Y724D01*
Y684D01*
X5915D02*
X5955D01*
X5995Y724D01*
X6035Y684D01*
X6075D01*
Y724D01*
X6035Y764D01*
X6075Y804D01*
Y844D01*
X6035D01*
X5995Y804D01*
X5955Y844D01*
X5915D01*
Y804D01*
X5955Y764D01*
X5915Y724D01*
Y684D01*
X5337D02*
X5377D01*
X5417Y724D01*
X5457Y684D01*
X5497D01*
Y724D01*
X5457Y764D01*
X5497Y804D01*
Y844D01*
X5457D01*
X5417Y804D01*
X5377Y844D01*
X5337D01*
Y804D01*
X5377Y764D01*
X5337Y724D01*
Y684D01*
X4713Y6058D02*
X4753D01*
X4793Y6098D01*
X4833Y6058D01*
X4873D01*
Y6098D01*
X4833Y6138D01*
X4873Y6178D01*
Y6218D01*
X4833D01*
X4793Y6178D01*
X4753Y6218D01*
X4713D01*
Y6178D01*
X4753Y6138D01*
X4713Y6098D01*
Y6058D01*
Y4975D02*
X4753D01*
X4793Y5015D01*
X4833Y4975D01*
X4873D01*
Y5015D01*
X4833Y5055D01*
X4873Y5095D01*
Y5135D01*
X4833D01*
X4793Y5095D01*
X4753Y5135D01*
X4713D01*
Y5095D01*
X4753Y5055D01*
X4713Y5015D01*
Y4975D01*
X4770Y4348D02*
X4810D01*
X4850Y4388D01*
X4890Y4348D01*
X4930D01*
Y4388D01*
X4890Y4428D01*
X4930Y4468D01*
Y4508D01*
X4890D01*
X4850Y4468D01*
X4810Y4508D01*
X4770D01*
Y4468D01*
X4810Y4428D01*
X4770Y4388D01*
Y4348D01*
X15020Y4784D02*
X15060D01*
X15100Y4824D01*
X15140Y4784D01*
X15180D01*
Y4824D01*
X15140Y4864D01*
X15180Y4904D01*
Y4944D01*
X15140D01*
X15100Y4904D01*
X15060Y4944D01*
X15020D01*
Y4904D01*
X15060Y4864D01*
X15020Y4824D01*
Y4784D01*
X16170Y4434D02*
X16210D01*
X16250Y4474D01*
X16290Y4434D01*
X16330D01*
Y4474D01*
X16290Y4514D01*
X16330Y4554D01*
Y4594D01*
X16290D01*
X16250Y4554D01*
X16210Y4594D01*
X16170D01*
Y4554D01*
X16210Y4514D01*
X16170Y4474D01*
Y4434D01*
X15425Y3662D02*
X15465D01*
X15505Y3702D01*
X15545Y3662D01*
X15585D01*
Y3702D01*
X15545Y3742D01*
X15585Y3782D01*
Y3822D01*
X15545D01*
X15505Y3782D01*
X15465Y3822D01*
X15425D01*
Y3782D01*
X15465Y3742D01*
X15425Y3702D01*
Y3662D01*
X14539Y3184D02*
X14579D01*
X14619Y3224D01*
X14659Y3184D01*
X14699D01*
Y3224D01*
X14659Y3264D01*
X14699Y3304D01*
Y3344D01*
X14659D01*
X14619Y3304D01*
X14579Y3344D01*
X14539D01*
Y3304D01*
X14579Y3264D01*
X14539Y3224D01*
Y3184D01*
X14220Y4077D02*
X14260D01*
X14300Y4117D01*
X14340Y4077D01*
X14380D01*
Y4117D01*
X14340Y4157D01*
X14380Y4197D01*
Y4237D01*
X14340D01*
X14300Y4197D01*
X14260Y4237D01*
X14220D01*
Y4197D01*
X14260Y4157D01*
X14220Y4117D01*
Y4077D01*
X15520Y6477D02*
X15560D01*
X15600Y6517D01*
X15640Y6477D01*
X15680D01*
Y6517D01*
X15640Y6557D01*
X15680Y6597D01*
Y6637D01*
X15640D01*
X15600Y6597D01*
X15560Y6637D01*
X15520D01*
Y6597D01*
X15560Y6557D01*
X15520Y6517D01*
Y6477D01*
X16570D02*
X16610D01*
X16650Y6517D01*
X16690Y6477D01*
X16730D01*
Y6517D01*
X16690Y6557D01*
X16730Y6597D01*
Y6637D01*
X16690D01*
X16650Y6597D01*
X16610Y6637D01*
X16570D01*
Y6597D01*
X16610Y6557D01*
X16570Y6517D01*
Y6477D01*
X16170D02*
X16210D01*
X16250Y6517D01*
X16290Y6477D01*
X16330D01*
Y6517D01*
X16290Y6557D01*
X16330Y6597D01*
Y6637D01*
X16290D01*
X16250Y6597D01*
X16210Y6637D01*
X16170D01*
Y6597D01*
X16210Y6557D01*
X16170Y6517D01*
Y6477D01*
X14520Y8005D02*
X14560D01*
X14600Y8045D01*
X14640Y8005D01*
X14680D01*
Y8045D01*
X14640Y8085D01*
X14680Y8125D01*
Y8165D01*
X14640D01*
X14600Y8125D01*
X14560Y8165D01*
X14520D01*
Y8125D01*
X14560Y8085D01*
X14520Y8045D01*
Y8005D01*
X15312Y8284D02*
X15352D01*
X15392Y8324D01*
X15432Y8284D01*
X15472D01*
Y8324D01*
X15432Y8364D01*
X15472Y8404D01*
Y8444D01*
X15432D01*
X15392Y8404D01*
X15352Y8444D01*
X15312D01*
Y8404D01*
X15352Y8364D01*
X15312Y8324D01*
Y8284D01*
X7080Y6061D02*
X7120D01*
X7160Y6101D01*
X7200Y6061D01*
X7240D01*
Y6101D01*
X7200Y6141D01*
X7240Y6181D01*
Y6221D01*
X7200D01*
X7160Y6181D01*
X7120Y6221D01*
X7080D01*
Y6181D01*
X7120Y6141D01*
X7080Y6101D01*
Y6061D01*
X4320Y5559D02*
X4360D01*
X4400Y5599D01*
X4440Y5559D01*
X4480D01*
Y5599D01*
X4440Y5639D01*
X4480Y5679D01*
Y5719D01*
X4440D01*
X4400Y5679D01*
X4360Y5719D01*
X4320D01*
Y5679D01*
X4360Y5639D01*
X4320Y5599D01*
Y5559D01*
X3546Y7370D02*
X3586D01*
X3626Y7410D01*
X3666Y7370D01*
X3706D01*
Y7410D01*
X3666Y7450D01*
X3706Y7490D01*
Y7530D01*
X3666D01*
X3626Y7490D01*
X3586Y7530D01*
X3546D01*
Y7490D01*
X3586Y7450D01*
X3546Y7410D01*
Y7370D01*
X3833Y7670D02*
X3873D01*
X3913Y7710D01*
X3953Y7670D01*
X3993D01*
Y7710D01*
X3953Y7750D01*
X3993Y7790D01*
Y7830D01*
X3953D01*
X3913Y7790D01*
X3873Y7830D01*
X3833D01*
Y7790D01*
X3873Y7750D01*
X3833Y7710D01*
Y7670D01*
D55*
X16651Y10571D02*
G03*
X16651Y10571I-80J0D01*
G01*
M02*
