G04*
G04 #@! TF.GenerationSoftware,Altium Limited,Altium Designer,19.0.15 (446)*
G04*
G04 Layer_Color=16711935*
%FSLAX24Y24*%
%MOIN*%
G70*
G01*
G75*
%ADD59C,0.0671*%
%ADD60R,0.0671X0.0671*%
%ADD61R,0.0680X0.0680*%
%ADD62C,0.0680*%
%ADD63R,0.0671X0.0671*%
%ADD64C,0.0946*%
%ADD65R,0.0946X0.0946*%
D59*
X3580Y2972D02*
D03*
X2580D02*
D03*
X4580D02*
D03*
X5580D02*
D03*
X2580Y1972D02*
D03*
X6593Y1976D02*
D03*
X5580Y1972D02*
D03*
X4580D02*
D03*
X3580D02*
D03*
X6580Y2972D02*
D03*
X8580Y1972D02*
D03*
X9580D02*
D03*
X10580D02*
D03*
X11593Y1976D02*
D03*
X7580Y1972D02*
D03*
X10580Y2972D02*
D03*
X9580D02*
D03*
X7580D02*
D03*
X8580D02*
D03*
Y19650D02*
D03*
X7580D02*
D03*
X9580D02*
D03*
X10580D02*
D03*
X7580Y18650D02*
D03*
X11593Y18654D02*
D03*
X10580Y18650D02*
D03*
X9580D02*
D03*
X8580D02*
D03*
X6580Y19650D02*
D03*
X3580Y18650D02*
D03*
X4580D02*
D03*
X5580D02*
D03*
X6593Y18654D02*
D03*
X2580Y18650D02*
D03*
X5580Y19650D02*
D03*
X4580D02*
D03*
X2580D02*
D03*
X3580D02*
D03*
X2800Y16200D02*
D03*
Y13200D02*
D03*
Y14200D02*
D03*
Y15200D02*
D03*
D60*
X11580Y2972D02*
D03*
Y19650D02*
D03*
D61*
X22050Y17118D02*
D03*
D62*
X23050D02*
D03*
D63*
X2800Y12200D02*
D03*
D64*
X13249Y15300D02*
D03*
X14990Y19743D02*
D03*
X14690Y4850D02*
D03*
X43950Y11475D02*
D03*
X44130Y2950D02*
D03*
X44150Y4450D02*
D03*
D65*
X43950Y12975D02*
D03*
X44150Y5950D02*
D03*
M02*
