G04*
G04 #@! TF.GenerationSoftware,Altium Limited,Altium Designer,19.0.15 (446)*
G04*
G04 Layer_Physical_Order=4*
G04 Layer_Color=16711680*
%FSLAX24Y24*%
%MOIN*%
G70*
G01*
G75*
%ADD11C,0.0100*%
%ADD13C,0.0197*%
%ADD14C,0.0118*%
%ADD66C,0.0394*%
%ADD68C,0.0787*%
%ADD69C,0.0591*%
%ADD70R,0.0591X0.0591*%
%ADD71R,0.0600X0.0600*%
%ADD72C,0.0600*%
%ADD73R,0.0591X0.0591*%
%ADD74C,0.0866*%
%ADD75R,0.0866X0.0866*%
%ADD76C,0.0236*%
%ADD77C,0.0315*%
G36*
X35100Y20564D02*
Y18932D01*
X33318Y17150D01*
X32003Y17150D01*
X31053Y18100D01*
X24101D01*
X23829Y17828D01*
X23747Y17883D01*
X23650Y17902D01*
X23553Y17883D01*
X23471Y17828D01*
X23460Y17812D01*
X23459Y17811D01*
X23416Y17755D01*
X23389Y17690D01*
X23380Y17620D01*
X23389Y17550D01*
X23397Y17531D01*
Y17396D01*
X23380Y17378D01*
Y15944D01*
X21137Y13701D01*
X21044D01*
X21020Y13711D01*
X20950Y13720D01*
X20880Y13711D01*
X20815Y13684D01*
X20759Y13641D01*
X20716Y13585D01*
X20689Y13520D01*
X20680Y13450D01*
X20689Y13380D01*
X20716Y13315D01*
X20759Y13259D01*
X20815Y13216D01*
X20880Y13189D01*
X20908Y13185D01*
X20926Y13132D01*
X18057Y10263D01*
Y9254D01*
X16025D01*
X16018Y9260D01*
X16011Y9315D01*
X15984Y9380D01*
X15941Y9436D01*
X15885Y9479D01*
X15820Y9506D01*
X15750Y9516D01*
X15680Y9506D01*
X15615Y9479D01*
X15559Y9436D01*
X15516Y9380D01*
X15489Y9315D01*
X15480Y9245D01*
X15489Y9175D01*
X15516Y9110D01*
X15559Y9054D01*
X15615Y9011D01*
X15680Y8984D01*
X15724Y8978D01*
X15796Y8906D01*
X15862Y8862D01*
X15940Y8846D01*
X18057D01*
Y557D01*
X17750Y250D01*
X13050D01*
X12820Y480D01*
Y7194D01*
X12515Y7500D01*
X2371D01*
X1950Y7921D01*
Y20500D01*
X2200Y20750D01*
X34914D01*
X35100Y20564D01*
D02*
G37*
G36*
X46100Y20700D02*
X46600Y20200D01*
Y11100D01*
X46200Y10700D01*
X43500D01*
X43250Y10950D01*
Y11900D01*
X43262D01*
X43462Y12100D01*
X44750D01*
X45000Y12350D01*
Y18300D01*
X44700Y18600D01*
X38600D01*
X34550Y14550D01*
X26368D01*
X23500Y11682D01*
Y1050D01*
X23400Y950D01*
X21926D01*
X21600Y1276D01*
Y12208D01*
X21080Y12404D01*
X21070Y12970D01*
X21118Y12926D01*
X21169Y12887D01*
X21223Y12853D01*
X21281Y12823D01*
X21342Y12797D01*
X21406Y12777D01*
X21473Y12761D01*
X21543Y12749D01*
X21617Y12742D01*
X21694Y12740D01*
X21726Y12662D01*
X22600Y13536D01*
Y13555D01*
X23055D01*
X25800Y16300D01*
X33500D01*
X37950Y20750D01*
X37956Y20751D01*
X46100Y20700D01*
D02*
G37*
G36*
X25750Y12600D02*
Y11922D01*
X25822Y11850D01*
X27386D01*
X27436Y11900D01*
X27436Y12136D01*
X27530Y12230D01*
X28270Y12230D01*
X28350Y12150D01*
Y10900D01*
X28150Y10700D01*
X24526D01*
Y12326D01*
X24850Y12650D01*
X24940Y12750D01*
X25600D01*
X25750Y12600D01*
D02*
G37*
G36*
X25082Y10456D02*
X25076Y10449D01*
X25070Y10443D01*
X25064Y10435D01*
X25060Y10427D01*
X25056Y10418D01*
X25053Y10409D01*
X25050Y10399D01*
X25049Y10388D01*
X25047Y10376D01*
X25047Y10364D01*
X24947Y10374D01*
X24947Y10386D01*
X24946Y10397D01*
X24944Y10408D01*
X24942Y10418D01*
X24940Y10428D01*
X24936Y10437D01*
X24933Y10446D01*
X24928Y10454D01*
X24923Y10462D01*
X24917Y10469D01*
X25082Y10456D01*
D02*
G37*
G36*
X25047Y9460D02*
X25047Y9448D01*
X25048Y9437D01*
X25050Y9426D01*
X25052Y9416D01*
X25055Y9406D01*
X25058Y9397D01*
X25062Y9388D01*
X25066Y9380D01*
X25071Y9372D01*
X25077Y9365D01*
X24912Y9378D01*
X24919Y9384D01*
X24925Y9391D01*
X24930Y9399D01*
X24934Y9407D01*
X24938Y9416D01*
X24942Y9425D01*
X24944Y9435D01*
X24946Y9446D01*
X24947Y9457D01*
X24947Y9469D01*
X25047Y9460D01*
D02*
G37*
G36*
X15868Y9231D02*
X15869Y9222D01*
X15871Y9213D01*
X15874Y9204D01*
X15878Y9195D01*
X15882Y9186D01*
X15888Y9178D01*
X15894Y9169D01*
X15902Y9160D01*
X15910Y9151D01*
X15837Y9083D01*
X15828Y9091D01*
X15819Y9098D01*
X15811Y9105D01*
X15802Y9111D01*
X15793Y9116D01*
X15784Y9120D01*
X15775Y9123D01*
X15766Y9125D01*
X15757Y9126D01*
X15748Y9127D01*
X15868Y9240D01*
X15868Y9231D01*
D02*
G37*
G36*
X18499Y9122D02*
X18490Y9122D01*
X18481Y9121D01*
X18472Y9118D01*
X18463Y9115D01*
X18454Y9112D01*
X18445Y9107D01*
X18436Y9101D01*
X18427Y9095D01*
X18418Y9087D01*
X18410Y9079D01*
X18339Y9150D01*
X18347Y9159D01*
X18355Y9167D01*
X18361Y9176D01*
X18367Y9185D01*
X18371Y9194D01*
X18375Y9203D01*
X18378Y9212D01*
X18380Y9221D01*
X18382Y9230D01*
X18382Y9239D01*
X18499Y9122D01*
D02*
G37*
G36*
X20935Y9157D02*
X20930Y9150D01*
X20925Y9142D01*
X20921Y9133D01*
X20918Y9124D01*
X20915Y9114D01*
X20913Y9104D01*
X20911Y9093D01*
X20910Y9082D01*
X20910Y9070D01*
X20810Y9065D01*
X20809Y9077D01*
X20808Y9089D01*
X20807Y9099D01*
X20804Y9109D01*
X20801Y9119D01*
X20798Y9128D01*
X20793Y9136D01*
X20788Y9144D01*
X20782Y9151D01*
X20776Y9157D01*
X20941Y9164D01*
X20935Y9157D01*
D02*
G37*
G36*
X25750Y7920D02*
Y7150D01*
X25822Y7078D01*
X27213D01*
X27250Y7115D01*
Y7415D01*
X27300Y7465D01*
X27985D01*
X28250Y7200D01*
Y6200D01*
X27950Y5900D01*
X24704D01*
X24526Y6077D01*
Y7920D01*
X24546D01*
X24688Y8062D01*
X25608D01*
X25750Y7920D01*
D02*
G37*
G36*
X32425Y14050D02*
X32600Y13875D01*
X32600Y12300D01*
X35899D01*
X37199Y11000D01*
X42000Y11000D01*
X44850Y8150D01*
X44850Y5600D01*
X44650Y5400D01*
X43700Y5400D01*
X43550Y5550D01*
X43550Y8000D01*
X41600Y9950D01*
X36700Y9950D01*
X35500Y11150D01*
X29150D01*
X29000Y11300D01*
Y14000D01*
X29050Y14050D01*
X32425Y14050D01*
D02*
G37*
G36*
X20910Y5475D02*
X20911Y5464D01*
X20913Y5453D01*
X20915Y5443D01*
X20918Y5433D01*
X20922Y5424D01*
X20926Y5416D01*
X20931Y5408D01*
X20936Y5401D01*
X20942Y5394D01*
X20777D01*
X20783Y5401D01*
X20789Y5408D01*
X20794Y5416D01*
X20798Y5424D01*
X20802Y5433D01*
X20805Y5443D01*
X20807Y5453D01*
X20808Y5464D01*
X20809Y5475D01*
X20810Y5487D01*
X20910D01*
X20910Y5475D01*
D02*
G37*
G36*
X32600Y9150D02*
Y7500D01*
X32750Y7350D01*
X34600D01*
X34750Y7500D01*
X35600D01*
X37023Y6077D01*
X41923D01*
X43000Y5000D01*
X44550D01*
X44800Y4750D01*
Y4150D01*
X44550Y3900D01*
X42600Y3900D01*
X41500Y5000D01*
X36600Y5000D01*
X35150Y6450D01*
X29050D01*
X28950Y6550D01*
Y9190D01*
X29000Y9240D01*
Y9250D01*
X32500D01*
X32600Y9150D01*
D02*
G37*
G36*
X11828Y2159D02*
X11850Y2141D01*
X11872Y2124D01*
X11896Y2110D01*
X11920Y2098D01*
X11944Y2088D01*
X11970Y2081D01*
X11996Y2075D01*
X12022Y2072D01*
X12050Y2071D01*
X12047Y1874D01*
X12020Y1873D01*
X11993Y1870D01*
X11967Y1864D01*
X11941Y1857D01*
X11916Y1847D01*
X11892Y1835D01*
X11868Y1822D01*
X11845Y1805D01*
X11823Y1787D01*
X11801Y1767D01*
X11593Y1971D01*
X11385Y1767D01*
X11363Y1787D01*
X11340Y1805D01*
X11317Y1822D01*
X11294Y1835D01*
X11269Y1847D01*
X11244Y1857D01*
X11219Y1864D01*
X11193Y1870D01*
X11166Y1873D01*
X11139Y1874D01*
X11136Y2071D01*
X11163Y2072D01*
X11190Y2075D01*
X11216Y2081D01*
X11242Y2088D01*
X11266Y2098D01*
X11290Y2110D01*
X11314Y2124D01*
X11336Y2141D01*
X11358Y2159D01*
X11379Y2180D01*
X11593Y1971D01*
X11807Y2180D01*
X11828Y2159D01*
D02*
G37*
G36*
X10813Y2159D02*
X10835Y2140D01*
X10858Y2124D01*
X10881Y2110D01*
X10905Y2098D01*
X10930Y2088D01*
X10956Y2081D01*
X10982Y2075D01*
X11008Y2072D01*
X11036Y2071D01*
Y1874D01*
X11008Y1873D01*
X10982Y1870D01*
X10956Y1864D01*
X10930Y1857D01*
X10905Y1847D01*
X10881Y1835D01*
X10858Y1821D01*
X10835Y1805D01*
X10813Y1786D01*
X10791Y1766D01*
Y2179D01*
X10813Y2159D01*
D02*
G37*
G36*
X25679Y3029D02*
X25679Y2214D01*
X25837Y2056D01*
X27298Y2056D01*
X27386Y2143D01*
Y2350D01*
X27426Y2390D01*
X28160Y2390D01*
X28287Y2262D01*
X28287Y1350D01*
X28038Y1100D01*
X24691D01*
X24564Y1227D01*
Y3070D01*
X24644Y3150D01*
X25558D01*
X25679Y3029D01*
D02*
G37*
G36*
X32600Y4150D02*
Y2384D01*
X32734Y2250D01*
X34600D01*
X34800Y2450D01*
X35550D01*
X36550Y1450D01*
X42054D01*
X43300Y2696D01*
X43300Y3300D01*
X43550Y3550D01*
X44700D01*
X44850Y3400D01*
X44850Y2650D01*
X42700Y500D01*
X36100Y500D01*
X35050Y1550D01*
X29190Y1550D01*
X29075Y1665D01*
Y4225D01*
X29150Y4300D01*
X32450D01*
X32600Y4150D01*
D02*
G37*
%LPC*%
G36*
X12026Y20095D02*
X11135D01*
Y19205D01*
X12026D01*
Y20095D01*
D02*
G37*
G36*
X10580Y20099D02*
X10464Y20084D01*
X10356Y20039D01*
X10263Y19968D01*
X10191Y19875D01*
X10146Y19766D01*
X10131Y19650D01*
X10146Y19534D01*
X10191Y19425D01*
X10263Y19332D01*
X10356Y19261D01*
X10464Y19216D01*
X10580Y19201D01*
X10697Y19216D01*
X10805Y19261D01*
X10898Y19332D01*
X10969Y19425D01*
X11014Y19534D01*
X11029Y19650D01*
X11014Y19766D01*
X10969Y19875D01*
X10898Y19968D01*
X10805Y20039D01*
X10697Y20084D01*
X10580Y20099D01*
D02*
G37*
G36*
X9580D02*
X9464Y20084D01*
X9356Y20039D01*
X9263Y19968D01*
X9191Y19875D01*
X9147Y19766D01*
X9131Y19650D01*
X9147Y19534D01*
X9191Y19425D01*
X9263Y19332D01*
X9356Y19261D01*
X9464Y19216D01*
X9580Y19201D01*
X9697Y19216D01*
X9805Y19261D01*
X9898Y19332D01*
X9969Y19425D01*
X10014Y19534D01*
X10029Y19650D01*
X10014Y19766D01*
X9969Y19875D01*
X9898Y19968D01*
X9805Y20039D01*
X9697Y20084D01*
X9580Y20099D01*
D02*
G37*
G36*
X8580D02*
X8464Y20084D01*
X8356Y20039D01*
X8263Y19968D01*
X8191Y19875D01*
X8146Y19766D01*
X8131Y19650D01*
X8146Y19534D01*
X8191Y19425D01*
X8263Y19332D01*
X8356Y19261D01*
X8464Y19216D01*
X8580Y19201D01*
X8697Y19216D01*
X8805Y19261D01*
X8898Y19332D01*
X8969Y19425D01*
X9014Y19534D01*
X9029Y19650D01*
X9014Y19766D01*
X8969Y19875D01*
X8898Y19968D01*
X8805Y20039D01*
X8697Y20084D01*
X8580Y20099D01*
D02*
G37*
G36*
X7580D02*
X7464Y20084D01*
X7356Y20039D01*
X7263Y19968D01*
X7191Y19875D01*
X7146Y19766D01*
X7131Y19650D01*
X7146Y19534D01*
X7191Y19425D01*
X7263Y19332D01*
X7356Y19261D01*
X7464Y19216D01*
X7580Y19201D01*
X7697Y19216D01*
X7805Y19261D01*
X7898Y19332D01*
X7969Y19425D01*
X8014Y19534D01*
X8029Y19650D01*
X8014Y19766D01*
X7969Y19875D01*
X7898Y19968D01*
X7805Y20039D01*
X7697Y20084D01*
X7580Y20099D01*
D02*
G37*
G36*
X6580D02*
X6464Y20084D01*
X6356Y20039D01*
X6263Y19968D01*
X6191Y19875D01*
X6147Y19766D01*
X6131Y19650D01*
X6147Y19534D01*
X6191Y19425D01*
X6263Y19332D01*
X6356Y19261D01*
X6464Y19216D01*
X6580Y19201D01*
X6697Y19216D01*
X6805Y19261D01*
X6898Y19332D01*
X6969Y19425D01*
X7014Y19534D01*
X7029Y19650D01*
X7014Y19766D01*
X6969Y19875D01*
X6898Y19968D01*
X6805Y20039D01*
X6697Y20084D01*
X6580Y20099D01*
D02*
G37*
G36*
X5580D02*
X5464Y20084D01*
X5356Y20039D01*
X5263Y19968D01*
X5191Y19875D01*
X5146Y19766D01*
X5131Y19650D01*
X5146Y19534D01*
X5191Y19425D01*
X5263Y19332D01*
X5356Y19261D01*
X5464Y19216D01*
X5580Y19201D01*
X5697Y19216D01*
X5805Y19261D01*
X5898Y19332D01*
X5969Y19425D01*
X6014Y19534D01*
X6029Y19650D01*
X6014Y19766D01*
X5969Y19875D01*
X5898Y19968D01*
X5805Y20039D01*
X5697Y20084D01*
X5580Y20099D01*
D02*
G37*
G36*
X2580D02*
X2464Y20084D01*
X2356Y20039D01*
X2263Y19968D01*
X2191Y19875D01*
X2147Y19766D01*
X2131Y19650D01*
X2147Y19534D01*
X2191Y19425D01*
X2263Y19332D01*
X2356Y19261D01*
X2464Y19216D01*
X2580Y19201D01*
X2697Y19216D01*
X2805Y19261D01*
X2898Y19332D01*
X2969Y19425D01*
X3014Y19534D01*
X3029Y19650D01*
X3014Y19766D01*
X2969Y19875D01*
X2898Y19968D01*
X2805Y20039D01*
X2697Y20084D01*
X2580Y20099D01*
D02*
G37*
G36*
X4580D02*
X4464Y20084D01*
X4356Y20039D01*
X4263Y19968D01*
X4191Y19875D01*
X4146Y19766D01*
X4131Y19650D01*
X4146Y19534D01*
X4191Y19425D01*
X4263Y19332D01*
X4356Y19261D01*
X4464Y19216D01*
X4580Y19201D01*
X4587Y19202D01*
X4620Y19202D01*
X4686Y19197D01*
X4709Y19194D01*
X4730Y19189D01*
X4746Y19185D01*
X4758Y19180D01*
X4765Y19177D01*
X4765Y19177D01*
X4833Y19109D01*
X4828Y19076D01*
X4779Y19050D01*
X4697Y19084D01*
X4580Y19099D01*
X4464Y19084D01*
X4356Y19039D01*
X4348Y19033D01*
X4293Y19054D01*
X4288Y19078D01*
X4244Y19144D01*
X3990Y19399D01*
X3989Y19399D01*
X3988Y19403D01*
X3987Y19410D01*
X3987Y19422D01*
X3988Y19437D01*
X3991Y19456D01*
X3997Y19479D01*
X4006Y19510D01*
X4007Y19516D01*
X4014Y19534D01*
X4029Y19650D01*
X4014Y19766D01*
X3969Y19875D01*
X3898Y19968D01*
X3805Y20039D01*
X3697Y20084D01*
X3580Y20099D01*
X3464Y20084D01*
X3356Y20039D01*
X3263Y19968D01*
X3191Y19875D01*
X3146Y19766D01*
X3131Y19650D01*
X3146Y19534D01*
X3191Y19425D01*
X3263Y19332D01*
X3356Y19261D01*
X3433Y19229D01*
X3443Y19223D01*
X3444Y19223D01*
X3444Y19223D01*
X3461Y19218D01*
X3464Y19216D01*
X3466Y19216D01*
X3489Y19208D01*
X3602Y19168D01*
X3653Y19146D01*
X3662Y19142D01*
X3653Y19093D01*
X3651Y19090D01*
X3580Y19099D01*
X3464Y19084D01*
X3356Y19039D01*
X3263Y18968D01*
X3191Y18875D01*
X3146Y18766D01*
X3131Y18650D01*
X3146Y18534D01*
X3191Y18425D01*
X3263Y18332D01*
X3356Y18261D01*
X3464Y18216D01*
X3580Y18201D01*
X3697Y18216D01*
X3805Y18261D01*
X3851Y18297D01*
X3896Y18275D01*
Y17344D01*
X3912Y17265D01*
X3930Y17237D01*
X3939Y17174D01*
X3966Y17108D01*
X4009Y17052D01*
X4065Y17009D01*
X4130Y16982D01*
X4200Y16973D01*
X4270Y16982D01*
X4335Y17009D01*
X4391Y17052D01*
X4434Y17108D01*
X4461Y17174D01*
X4470Y17244D01*
X4461Y17313D01*
X4434Y17379D01*
X4417Y17401D01*
X4455Y17434D01*
X4679Y17210D01*
X4686Y17160D01*
X4713Y17095D01*
X4756Y17039D01*
X4812Y16996D01*
X4877Y16969D01*
X4947Y16960D01*
X5017Y16969D01*
X5082Y16996D01*
X5138Y17039D01*
X5153Y17059D01*
X5203D01*
X5209Y17052D01*
X5265Y17009D01*
X5330Y16982D01*
X5400Y16973D01*
X5470Y16982D01*
X5535Y17009D01*
X5591Y17052D01*
X5634Y17108D01*
X5661Y17174D01*
X5670Y17244D01*
X5661Y17313D01*
X5634Y17379D01*
X5591Y17435D01*
X5535Y17478D01*
X5470Y17505D01*
X5421Y17511D01*
X5254Y17678D01*
Y18276D01*
X5304Y18301D01*
X5356Y18261D01*
X5464Y18216D01*
X5580Y18201D01*
X5697Y18216D01*
X5805Y18261D01*
X5898Y18332D01*
X5969Y18425D01*
X6014Y18534D01*
X6029Y18650D01*
X6014Y18766D01*
X5969Y18875D01*
X5898Y18968D01*
X5805Y19039D01*
X5697Y19084D01*
X5580Y19099D01*
X5464Y19084D01*
X5356Y19039D01*
X5304Y18999D01*
X5254Y19024D01*
Y19180D01*
X5238Y19258D01*
X5194Y19325D01*
X5054Y19465D01*
X5053Y19465D01*
X5050Y19473D01*
X5046Y19484D01*
X5041Y19501D01*
X5037Y19521D01*
X5033Y19545D01*
X5029Y19610D01*
X5029Y19643D01*
X5029Y19650D01*
X5014Y19766D01*
X4969Y19875D01*
X4898Y19968D01*
X4805Y20039D01*
X4697Y20084D01*
X4580Y20099D01*
D02*
G37*
G36*
X16700Y18820D02*
X16630Y18811D01*
X16565Y18784D01*
X16550Y18773D01*
X16535Y18784D01*
X16470Y18811D01*
X16400Y18820D01*
X16330Y18811D01*
X16265Y18784D01*
X16209Y18741D01*
X16166Y18685D01*
X16139Y18620D01*
X16130Y18550D01*
X16139Y18480D01*
X16166Y18415D01*
X16209Y18359D01*
X16265Y18316D01*
X16330Y18289D01*
X16400Y18280D01*
X16470Y18289D01*
X16535Y18316D01*
X16550Y18327D01*
X16565Y18316D01*
X16630Y18289D01*
X16700Y18280D01*
X16741Y18285D01*
X16768Y18238D01*
X16766Y18235D01*
X16739Y18170D01*
X16730Y18100D01*
X16739Y18030D01*
X16766Y17965D01*
X16809Y17909D01*
X16865Y17866D01*
X16930Y17839D01*
X17000Y17830D01*
X17070Y17839D01*
X17135Y17866D01*
X17191Y17909D01*
X17234Y17965D01*
X17261Y18030D01*
X17265Y18057D01*
X18105D01*
X18382Y17779D01*
X18389Y17730D01*
X18416Y17665D01*
X18459Y17609D01*
X18515Y17566D01*
X18580Y17539D01*
X18650Y17530D01*
X18720Y17539D01*
X18785Y17566D01*
X18841Y17609D01*
X18884Y17665D01*
X18911Y17730D01*
X18920Y17800D01*
X18911Y17870D01*
X18884Y17935D01*
X18841Y17991D01*
X18785Y18034D01*
X18720Y18061D01*
X18671Y18068D01*
X18334Y18405D01*
X18267Y18449D01*
X18189Y18465D01*
X17161D01*
X17083Y18449D01*
X17016Y18405D01*
X17002Y18390D01*
X16977Y18393D01*
X16947Y18446D01*
X16961Y18480D01*
X16970Y18550D01*
X16961Y18620D01*
X16934Y18685D01*
X16891Y18741D01*
X16835Y18784D01*
X16770Y18811D01*
X16700Y18820D01*
D02*
G37*
G36*
X6593Y19103D02*
X6477Y19088D01*
X6368Y19043D01*
X6275Y18972D01*
X6204Y18878D01*
X6159Y18770D01*
X6144Y18654D01*
X6159Y18538D01*
X6204Y18429D01*
X6275Y18336D01*
X6368Y18265D01*
X6477Y18220D01*
X6593Y18205D01*
X6709Y18220D01*
X6817Y18265D01*
X6910Y18336D01*
X6982Y18429D01*
X7027Y18538D01*
X7042Y18654D01*
X7027Y18770D01*
X6982Y18878D01*
X6910Y18972D01*
X6817Y19043D01*
X6709Y19088D01*
X6593Y19103D01*
D02*
G37*
G36*
X9580Y19099D02*
X9464Y19084D01*
X9356Y19039D01*
X9263Y18968D01*
X9191Y18875D01*
X9147Y18766D01*
X9131Y18650D01*
X9147Y18534D01*
X9191Y18425D01*
X9263Y18332D01*
X9356Y18261D01*
X9464Y18216D01*
X9580Y18201D01*
X9697Y18216D01*
X9805Y18261D01*
X9898Y18332D01*
X9969Y18425D01*
X10014Y18534D01*
X10029Y18650D01*
X10014Y18766D01*
X9969Y18875D01*
X9898Y18968D01*
X9805Y19039D01*
X9697Y19084D01*
X9580Y19099D01*
D02*
G37*
G36*
X7580D02*
X7464Y19084D01*
X7356Y19039D01*
X7263Y18968D01*
X7191Y18875D01*
X7146Y18766D01*
X7131Y18650D01*
X7146Y18534D01*
X7191Y18425D01*
X7263Y18332D01*
X7356Y18261D01*
X7464Y18216D01*
X7580Y18201D01*
X7697Y18216D01*
X7805Y18261D01*
X7898Y18332D01*
X7969Y18425D01*
X8014Y18534D01*
X8029Y18650D01*
X8014Y18766D01*
X7969Y18875D01*
X7898Y18968D01*
X7805Y19039D01*
X7697Y19084D01*
X7580Y19099D01*
D02*
G37*
G36*
X2580D02*
X2464Y19084D01*
X2356Y19039D01*
X2263Y18968D01*
X2191Y18875D01*
X2147Y18766D01*
X2131Y18650D01*
X2147Y18534D01*
X2191Y18425D01*
X2263Y18332D01*
X2356Y18261D01*
X2464Y18216D01*
X2580Y18201D01*
X2697Y18216D01*
X2805Y18261D01*
X2898Y18332D01*
X2969Y18425D01*
X3014Y18534D01*
X3029Y18650D01*
X3014Y18766D01*
X2969Y18875D01*
X2898Y18968D01*
X2805Y19039D01*
X2697Y19084D01*
X2580Y19099D01*
D02*
G37*
G36*
X17800Y17870D02*
X17730Y17861D01*
X17665Y17834D01*
X17609Y17791D01*
X17566Y17735D01*
X17539Y17670D01*
X17530Y17600D01*
X17539Y17530D01*
X17566Y17465D01*
X17609Y17409D01*
X17665Y17366D01*
X17730Y17339D01*
X17779Y17332D01*
X18112Y17000D01*
X18100Y16941D01*
X18084Y16934D01*
X18045Y16904D01*
X16034D01*
X16018Y16921D01*
X16011Y16970D01*
X15984Y17035D01*
X15941Y17091D01*
X15885Y17134D01*
X15820Y17161D01*
X15750Y17170D01*
X15680Y17161D01*
X15615Y17134D01*
X15559Y17091D01*
X15516Y17035D01*
X15489Y16970D01*
X15480Y16900D01*
X15489Y16830D01*
X15516Y16765D01*
X15559Y16709D01*
X15615Y16666D01*
X15680Y16639D01*
X15729Y16632D01*
X15806Y16556D01*
X15872Y16512D01*
X15950Y16496D01*
X18045D01*
X18084Y16466D01*
X18149Y16439D01*
X18219Y16430D01*
X18246Y16433D01*
X18284Y16400D01*
Y14903D01*
X18199Y14818D01*
X18149Y14811D01*
X18084Y14784D01*
X18057Y14763D01*
X15488D01*
X15166Y15086D01*
X15161Y15120D01*
X15134Y15185D01*
X15091Y15241D01*
X15035Y15284D01*
X14970Y15311D01*
X14936Y15316D01*
X14801Y15451D01*
X14732Y15497D01*
X14650Y15513D01*
X14650Y15513D01*
X13932D01*
X13922Y15516D01*
X13905Y15522D01*
X13883Y15533D01*
X13855Y15549D01*
X13824Y15570D01*
X13791Y15596D01*
X13710Y15668D01*
X13682Y15696D01*
X13702Y15746D01*
X14025D01*
X14065Y15716D01*
X14130Y15689D01*
X14200Y15680D01*
X14270Y15689D01*
X14335Y15716D01*
X14391Y15759D01*
X14434Y15815D01*
X14461Y15880D01*
X14470Y15950D01*
X14461Y16020D01*
X14434Y16085D01*
X14404Y16125D01*
X14434Y16165D01*
X14461Y16230D01*
X14470Y16300D01*
X14461Y16370D01*
X14434Y16435D01*
X14391Y16491D01*
X14335Y16534D01*
X14270Y16561D01*
X14200Y16570D01*
X14130Y16561D01*
X14065Y16534D01*
X14025Y16504D01*
X7325D01*
X7285Y16534D01*
X7220Y16561D01*
X7150Y16570D01*
X7080Y16561D01*
X7015Y16534D01*
X6959Y16491D01*
X6916Y16435D01*
X6889Y16370D01*
X6880Y16300D01*
X6889Y16230D01*
X6916Y16165D01*
X6946Y16125D01*
X6916Y16085D01*
X6889Y16020D01*
X6880Y15950D01*
X6889Y15880D01*
X6916Y15815D01*
X6959Y15759D01*
X7015Y15716D01*
X7080Y15689D01*
X7150Y15680D01*
X7220Y15689D01*
X7285Y15716D01*
X7325Y15746D01*
X12796D01*
X12820Y15696D01*
X12762Y15625D01*
X12708Y15524D01*
X12674Y15414D01*
X12663Y15300D01*
X12674Y15186D01*
X12708Y15076D01*
X12762Y14974D01*
X12835Y14886D01*
X12924Y14813D01*
X13025Y14759D01*
X13135Y14725D01*
X13249Y14714D01*
X13363Y14725D01*
X13473Y14759D01*
X13575Y14813D01*
X13663Y14886D01*
X13665Y14887D01*
X13666Y14888D01*
X13710Y14932D01*
X13791Y15004D01*
X13824Y15030D01*
X13855Y15051D01*
X13883Y15067D01*
X13905Y15078D01*
X13922Y15084D01*
X13932Y15087D01*
X14562D01*
X14634Y15014D01*
X14639Y14980D01*
X14666Y14915D01*
X14709Y14859D01*
X14765Y14816D01*
X14830Y14789D01*
X14864Y14784D01*
X15249Y14399D01*
X15249Y14399D01*
X15318Y14353D01*
X15400Y14337D01*
X15400Y14337D01*
X18057D01*
X18084Y14316D01*
X18149Y14289D01*
X18219Y14280D01*
X18289Y14289D01*
X18355Y14316D01*
X18411Y14359D01*
X18454Y14415D01*
X18481Y14480D01*
X18487Y14529D01*
X18632Y14674D01*
X18676Y14740D01*
X18691Y14818D01*
Y16912D01*
X18676Y16991D01*
X18632Y17057D01*
X18068Y17621D01*
X18061Y17670D01*
X18034Y17735D01*
X17991Y17791D01*
X17935Y17834D01*
X17870Y17861D01*
X17800Y17870D01*
D02*
G37*
G36*
X8580Y19099D02*
X8464Y19084D01*
X8356Y19039D01*
X8263Y18968D01*
X8191Y18875D01*
X8146Y18766D01*
X8131Y18650D01*
X8146Y18534D01*
X8191Y18425D01*
X8263Y18332D01*
X8267Y18329D01*
X8312Y18282D01*
X8327Y18262D01*
X8341Y18243D01*
X8352Y18226D01*
X8359Y18212D01*
X8364Y18201D01*
X8367Y18192D01*
X8367Y18190D01*
Y17531D01*
X8351Y17515D01*
X8351Y17515D01*
X8349Y17514D01*
X8346Y17513D01*
X8345Y17512D01*
X8343Y17511D01*
X8341Y17511D01*
X8338Y17510D01*
X8330Y17510D01*
X8316Y17506D01*
X8270Y17500D01*
X8195Y17469D01*
X8131Y17419D01*
X8081Y17355D01*
X8050Y17280D01*
X8040Y17200D01*
X8050Y17120D01*
X8081Y17045D01*
X8131Y16981D01*
X8195Y16931D01*
X8270Y16900D01*
X8350Y16890D01*
X8430Y16900D01*
X8505Y16931D01*
X8569Y16981D01*
X8619Y17045D01*
X8650Y17120D01*
X8660Y17200D01*
X8659Y17208D01*
X8660Y17214D01*
X8660Y17221D01*
X8731Y17292D01*
X8731Y17292D01*
X8777Y17361D01*
X8793Y17443D01*
X8793Y17443D01*
Y18190D01*
X8794Y18192D01*
X8797Y18201D01*
X8801Y18212D01*
X8809Y18226D01*
X8819Y18243D01*
X8832Y18261D01*
X8872Y18307D01*
X8893Y18328D01*
X8898Y18332D01*
X8969Y18425D01*
X9014Y18534D01*
X9029Y18650D01*
X9014Y18766D01*
X8969Y18875D01*
X8898Y18968D01*
X8805Y19039D01*
X8697Y19084D01*
X8580Y19099D01*
D02*
G37*
G36*
X22500Y17568D02*
X21600D01*
Y16668D01*
X22500D01*
Y17568D01*
D02*
G37*
G36*
X2800Y16649D02*
X2684Y16634D01*
X2575Y16589D01*
X2482Y16518D01*
X2411Y16425D01*
X2366Y16316D01*
X2351Y16200D01*
X2366Y16084D01*
X2411Y15975D01*
X2482Y15882D01*
X2575Y15811D01*
X2684Y15766D01*
X2800Y15751D01*
X2916Y15766D01*
X3025Y15811D01*
X3118Y15882D01*
X3189Y15975D01*
X3234Y16084D01*
X3249Y16200D01*
X3234Y16316D01*
X3189Y16425D01*
X3118Y16518D01*
X3025Y16589D01*
X2916Y16634D01*
X2800Y16649D01*
D02*
G37*
G36*
X5950Y15170D02*
X5880Y15161D01*
X5815Y15134D01*
X5759Y15091D01*
X5730Y15054D01*
X5722Y15051D01*
X5678D01*
X5670Y15054D01*
X5641Y15091D01*
X5585Y15134D01*
X5520Y15161D01*
X5450Y15170D01*
X5380Y15161D01*
X5315Y15134D01*
X5259Y15091D01*
X5216Y15035D01*
X5189Y14970D01*
X5180Y14900D01*
X5189Y14830D01*
X5216Y14765D01*
X5227Y14751D01*
X5229Y14746D01*
X5229Y14746D01*
X5229Y14745D01*
X5230Y14743D01*
X5230Y14743D01*
Y13730D01*
X5199Y13690D01*
X5172Y13625D01*
X5163Y13555D01*
X5172Y13485D01*
X5199Y13420D01*
X5242Y13364D01*
X5298Y13321D01*
X5364Y13294D01*
X5434Y13284D01*
X5504Y13294D01*
X5569Y13321D01*
X5625Y13364D01*
X5668Y13420D01*
X5695Y13485D01*
X5696Y13494D01*
X5746Y13491D01*
Y13109D01*
X5405Y12768D01*
X5356Y12761D01*
X5291Y12734D01*
X5235Y12691D01*
X5192Y12635D01*
X5165Y12570D01*
X5155Y12500D01*
X5165Y12430D01*
X5192Y12365D01*
X5235Y12309D01*
X5291Y12266D01*
X5356Y12239D01*
X5426Y12230D01*
X5496Y12239D01*
X5561Y12266D01*
X5617Y12309D01*
X5660Y12365D01*
X5687Y12430D01*
X5693Y12479D01*
X6094Y12880D01*
X6138Y12946D01*
X6154Y13024D01*
Y14725D01*
X6184Y14765D01*
X6211Y14830D01*
X6220Y14900D01*
X6211Y14970D01*
X6184Y15035D01*
X6141Y15091D01*
X6085Y15134D01*
X6020Y15161D01*
X5950Y15170D01*
D02*
G37*
G36*
X8280Y15005D02*
X8210Y14996D01*
X8145Y14969D01*
X8118Y14948D01*
X6688D01*
X6661Y14969D01*
X6596Y14996D01*
X6526Y15005D01*
X6456Y14996D01*
X6390Y14969D01*
X6334Y14926D01*
X6291Y14870D01*
X6264Y14805D01*
X6255Y14735D01*
X6264Y14665D01*
X6291Y14600D01*
X6334Y14544D01*
X6390Y14501D01*
X6456Y14474D01*
X6526Y14465D01*
X6596Y14474D01*
X6661Y14501D01*
X6688Y14522D01*
X8118D01*
X8145Y14501D01*
X8210Y14474D01*
X8280Y14465D01*
X8350Y14474D01*
X8416Y14501D01*
X8472Y14544D01*
X8515Y14600D01*
X8542Y14665D01*
X8551Y14735D01*
X8542Y14805D01*
X8515Y14870D01*
X8472Y14926D01*
X8416Y14969D01*
X8350Y14996D01*
X8280Y15005D01*
D02*
G37*
G36*
X2800Y14649D02*
X2684Y14634D01*
X2575Y14589D01*
X2482Y14518D01*
X2411Y14425D01*
X2366Y14316D01*
X2351Y14200D01*
X2366Y14084D01*
X2411Y13975D01*
X2482Y13882D01*
X2575Y13811D01*
X2684Y13766D01*
X2800Y13751D01*
X2916Y13766D01*
X3025Y13811D01*
X3118Y13882D01*
X3189Y13975D01*
X3234Y14084D01*
X3249Y14200D01*
X3234Y14316D01*
X3189Y14425D01*
X3118Y14518D01*
X3025Y14589D01*
X2916Y14634D01*
X2800Y14649D01*
D02*
G37*
G36*
Y13649D02*
X2684Y13634D01*
X2575Y13589D01*
X2482Y13518D01*
X2411Y13425D01*
X2366Y13316D01*
X2351Y13200D01*
X2366Y13084D01*
X2411Y12975D01*
X2482Y12882D01*
X2575Y12811D01*
X2684Y12766D01*
X2800Y12751D01*
X2916Y12766D01*
X3025Y12811D01*
X3118Y12882D01*
X3189Y12975D01*
X3234Y13084D01*
X3249Y13200D01*
X3234Y13316D01*
X3189Y13425D01*
X3118Y13518D01*
X3025Y13589D01*
X2916Y13634D01*
X2800Y13649D01*
D02*
G37*
G36*
X3245Y12645D02*
X2355D01*
Y11755D01*
X3245D01*
Y12645D01*
D02*
G37*
G36*
X12550Y9541D02*
X12480Y9531D01*
X12415Y9504D01*
X12375Y9474D01*
X11105D01*
X11065Y9504D01*
X11000Y9531D01*
X10930Y9541D01*
X10860Y9531D01*
X10795Y9504D01*
X10739Y9461D01*
X10696Y9405D01*
X10669Y9340D01*
X10659Y9270D01*
X10669Y9200D01*
X10696Y9135D01*
X10739Y9079D01*
X10795Y9036D01*
X10860Y9009D01*
X10930Y9000D01*
X11000Y9009D01*
X11065Y9036D01*
X11105Y9066D01*
X12375D01*
X12415Y9036D01*
X12480Y9009D01*
X12550Y9000D01*
X12620Y9009D01*
X12685Y9036D01*
X12741Y9079D01*
X12784Y9135D01*
X12811Y9200D01*
X12820Y9270D01*
X12811Y9340D01*
X12784Y9405D01*
X12741Y9461D01*
X12685Y9504D01*
X12620Y9531D01*
X12550Y9541D01*
D02*
G37*
%LPD*%
G36*
X4876Y19605D02*
X4881Y19529D01*
X4886Y19495D01*
X4892Y19464D01*
X4900Y19436D01*
X4910Y19411D01*
X4920Y19389D01*
X4933Y19370D01*
X4947Y19354D01*
X4876Y19284D01*
X4860Y19298D01*
X4841Y19310D01*
X4819Y19321D01*
X4794Y19330D01*
X4766Y19338D01*
X4735Y19344D01*
X4702Y19349D01*
X4626Y19354D01*
X4583Y19355D01*
X4876Y19647D01*
X4876Y19605D01*
D02*
G37*
G36*
X3849Y19520D02*
X3841Y19486D01*
X3836Y19454D01*
X3834Y19425D01*
X3835Y19397D01*
X3838Y19371D01*
X3845Y19348D01*
X3855Y19326D01*
X3867Y19306D01*
X3882Y19288D01*
X3788Y19241D01*
X3776Y19251D01*
X3761Y19262D01*
X3741Y19273D01*
X3717Y19285D01*
X3658Y19310D01*
X3539Y19353D01*
X3491Y19369D01*
X3860Y19555D01*
X3849Y19520D01*
D02*
G37*
G36*
X4757Y18409D02*
X4707Y18351D01*
X4687Y18324D01*
X4669Y18298D01*
X4655Y18273D01*
X4644Y18249D01*
X4637Y18225D01*
X4632Y18203D01*
X4630Y18182D01*
X4530D01*
X4529Y18203D01*
X4524Y18225D01*
X4516Y18249D01*
X4505Y18273D01*
X4491Y18298D01*
X4474Y18324D01*
X4454Y18351D01*
X4403Y18409D01*
X4374Y18439D01*
X4787D01*
X4757Y18409D01*
D02*
G37*
G36*
X5318Y17396D02*
X5327Y17389D01*
X5336Y17383D01*
X5345Y17377D01*
X5354Y17372D01*
X5363Y17368D01*
X5372Y17365D01*
X5381Y17363D01*
X5390Y17362D01*
X5399Y17362D01*
X5282Y17245D01*
X5282Y17254D01*
X5280Y17263D01*
X5278Y17272D01*
X5275Y17281D01*
X5271Y17290D01*
X5267Y17299D01*
X5261Y17308D01*
X5255Y17316D01*
X5247Y17325D01*
X5239Y17334D01*
X5310Y17405D01*
X5318Y17396D01*
D02*
G37*
G36*
X4865Y17383D02*
X4874Y17376D01*
X4883Y17369D01*
X4892Y17364D01*
X4900Y17359D01*
X4909Y17355D01*
X4918Y17352D01*
X4927Y17350D01*
X4937Y17349D01*
X4946Y17348D01*
X4829Y17231D01*
X4828Y17241D01*
X4827Y17250D01*
X4825Y17259D01*
X4822Y17268D01*
X4818Y17277D01*
X4813Y17286D01*
X4808Y17294D01*
X4801Y17303D01*
X4794Y17312D01*
X4786Y17321D01*
X4856Y17391D01*
X4865Y17383D01*
D02*
G37*
G36*
X17161Y18190D02*
X17153Y18182D01*
X17145Y18173D01*
X17139Y18164D01*
X17133Y18155D01*
X17129Y18146D01*
X17125Y18137D01*
X17122Y18128D01*
X17120Y18119D01*
X17118Y18110D01*
X17118Y18101D01*
X17001Y18218D01*
X17010Y18218D01*
X17019Y18220D01*
X17028Y18222D01*
X17037Y18225D01*
X17046Y18229D01*
X17055Y18233D01*
X17064Y18239D01*
X17073Y18245D01*
X17082Y18253D01*
X17090Y18261D01*
X17161Y18190D01*
D02*
G37*
G36*
X18568Y17953D02*
X18577Y17945D01*
X18586Y17939D01*
X18595Y17933D01*
X18604Y17929D01*
X18613Y17925D01*
X18622Y17922D01*
X18631Y17920D01*
X18640Y17918D01*
X18649Y17918D01*
X18532Y17801D01*
X18532Y17810D01*
X18530Y17819D01*
X18528Y17828D01*
X18525Y17837D01*
X18521Y17846D01*
X18517Y17855D01*
X18511Y17864D01*
X18505Y17873D01*
X18497Y17882D01*
X18489Y17890D01*
X18560Y17961D01*
X18568Y17953D01*
D02*
G37*
G36*
X17918Y17590D02*
X17920Y17581D01*
X17922Y17572D01*
X17925Y17563D01*
X17929Y17554D01*
X17933Y17545D01*
X17939Y17536D01*
X17945Y17527D01*
X17953Y17518D01*
X17961Y17510D01*
X17890Y17439D01*
X17882Y17447D01*
X17873Y17455D01*
X17864Y17461D01*
X17855Y17467D01*
X17846Y17471D01*
X17837Y17475D01*
X17828Y17478D01*
X17819Y17480D01*
X17810Y17482D01*
X17801Y17482D01*
X17918Y17599D01*
X17918Y17590D01*
D02*
G37*
G36*
X15868Y16890D02*
X15870Y16881D01*
X15872Y16872D01*
X15875Y16863D01*
X15879Y16854D01*
X15883Y16845D01*
X15889Y16836D01*
X15895Y16827D01*
X15903Y16818D01*
X15911Y16810D01*
X15840Y16739D01*
X15832Y16747D01*
X15823Y16755D01*
X15814Y16761D01*
X15805Y16767D01*
X15796Y16771D01*
X15787Y16775D01*
X15778Y16778D01*
X15769Y16780D01*
X15760Y16782D01*
X15751Y16782D01*
X15868Y16899D01*
X15868Y16890D01*
D02*
G37*
G36*
X18135Y16617D02*
X18128Y16624D01*
X18121Y16629D01*
X18113Y16634D01*
X18105Y16638D01*
X18096Y16642D01*
X18086Y16645D01*
X18076Y16647D01*
X18065Y16649D01*
X18054Y16650D01*
X18042Y16650D01*
Y16750D01*
X18054Y16750D01*
X18065Y16751D01*
X18076Y16753D01*
X18086Y16755D01*
X18096Y16758D01*
X18105Y16762D01*
X18113Y16766D01*
X18121Y16771D01*
X18128Y16776D01*
X18135Y16783D01*
Y16617D01*
D02*
G37*
G36*
X14116Y16217D02*
X14109Y16224D01*
X14102Y16229D01*
X14094Y16234D01*
X14085Y16238D01*
X14076Y16242D01*
X14067Y16245D01*
X14056Y16247D01*
X14046Y16249D01*
X14034Y16250D01*
X14022Y16250D01*
Y16350D01*
X14034Y16350D01*
X14046Y16351D01*
X14056Y16353D01*
X14067Y16355D01*
X14076Y16358D01*
X14085Y16362D01*
X14094Y16366D01*
X14102Y16371D01*
X14109Y16376D01*
X14116Y16383D01*
Y16217D01*
D02*
G37*
G36*
X7241Y16376D02*
X7248Y16371D01*
X7256Y16366D01*
X7265Y16362D01*
X7274Y16358D01*
X7283Y16355D01*
X7294Y16353D01*
X7304Y16351D01*
X7316Y16350D01*
X7328Y16350D01*
Y16250D01*
X7316Y16250D01*
X7304Y16249D01*
X7294Y16247D01*
X7283Y16245D01*
X7274Y16242D01*
X7265Y16238D01*
X7256Y16234D01*
X7248Y16229D01*
X7241Y16224D01*
X7234Y16217D01*
Y16383D01*
X7241Y16376D01*
D02*
G37*
G36*
X14116Y15867D02*
X14109Y15874D01*
X14102Y15879D01*
X14094Y15884D01*
X14085Y15888D01*
X14076Y15892D01*
X14067Y15895D01*
X14056Y15897D01*
X14046Y15899D01*
X14034Y15900D01*
X14022Y15900D01*
Y16000D01*
X14034Y16000D01*
X14046Y16001D01*
X14056Y16003D01*
X14067Y16005D01*
X14076Y16008D01*
X14085Y16012D01*
X14094Y16016D01*
X14102Y16021D01*
X14109Y16026D01*
X14116Y16033D01*
Y15867D01*
D02*
G37*
G36*
X7241Y16026D02*
X7248Y16021D01*
X7256Y16016D01*
X7265Y16012D01*
X7274Y16008D01*
X7283Y16005D01*
X7294Y16003D01*
X7304Y16001D01*
X7316Y16000D01*
X7328Y16000D01*
Y15900D01*
X7316Y15900D01*
X7304Y15899D01*
X7294Y15897D01*
X7283Y15895D01*
X7274Y15892D01*
X7265Y15888D01*
X7256Y15884D01*
X7248Y15879D01*
X7241Y15874D01*
X7234Y15867D01*
Y16033D01*
X7241Y16026D01*
D02*
G37*
G36*
X14828Y15205D02*
X14846Y15191D01*
X14854Y15185D01*
X14862Y15179D01*
X14870Y15175D01*
X14878Y15172D01*
X14885Y15170D01*
X14892Y15169D01*
X14899Y15168D01*
X14782Y15051D01*
X14781Y15058D01*
X14780Y15065D01*
X14778Y15072D01*
X14775Y15080D01*
X14771Y15088D01*
X14765Y15096D01*
X14759Y15104D01*
X14753Y15113D01*
X14736Y15131D01*
X14819Y15214D01*
X14828Y15205D01*
D02*
G37*
G36*
X13605Y15557D02*
X13693Y15479D01*
X13734Y15447D01*
X13773Y15420D01*
X13810Y15398D01*
X13845Y15381D01*
X13878Y15369D01*
X13909Y15361D01*
X13938Y15359D01*
Y15241D01*
X13909Y15238D01*
X13878Y15231D01*
X13845Y15219D01*
X13810Y15202D01*
X13773Y15180D01*
X13734Y15153D01*
X13693Y15121D01*
X13605Y15043D01*
X13558Y14997D01*
Y15603D01*
X13605Y15557D01*
D02*
G37*
G36*
X15019Y15042D02*
X15020Y15035D01*
X15022Y15028D01*
X15025Y15020D01*
X15029Y15012D01*
X15035Y15004D01*
X15041Y14996D01*
X15048Y14987D01*
X15064Y14969D01*
X14981Y14886D01*
X14972Y14895D01*
X14954Y14909D01*
X14946Y14915D01*
X14938Y14921D01*
X14930Y14925D01*
X14922Y14928D01*
X14915Y14930D01*
X14908Y14931D01*
X14901Y14932D01*
X15018Y15049D01*
X15019Y15042D01*
D02*
G37*
G36*
X18381Y14640D02*
X18372Y14632D01*
X18365Y14623D01*
X18358Y14614D01*
X18353Y14605D01*
X18348Y14596D01*
X18344Y14587D01*
X18341Y14578D01*
X18339Y14569D01*
X18338Y14560D01*
X18338Y14551D01*
X18221Y14668D01*
X18230Y14668D01*
X18239Y14670D01*
X18248Y14672D01*
X18257Y14675D01*
X18266Y14679D01*
X18275Y14683D01*
X18284Y14689D01*
X18292Y14695D01*
X18301Y14703D01*
X18310Y14711D01*
X18381Y14640D01*
D02*
G37*
G36*
X18135Y14467D02*
X18130Y14472D01*
X18124Y14476D01*
X18117Y14479D01*
X18110Y14482D01*
X18101Y14485D01*
X18092Y14487D01*
X18082Y14489D01*
X18071Y14490D01*
X18046Y14491D01*
Y14609D01*
X18059Y14609D01*
X18082Y14611D01*
X18092Y14613D01*
X18101Y14615D01*
X18110Y14618D01*
X18117Y14621D01*
X18124Y14624D01*
X18130Y14628D01*
X18135Y14633D01*
Y14467D01*
D02*
G37*
G36*
X8759Y18411D02*
X8712Y18355D01*
X8693Y18329D01*
X8676Y18303D01*
X8663Y18278D01*
X8653Y18253D01*
X8645Y18229D01*
X8641Y18206D01*
X8639Y18184D01*
X8521D01*
X8520Y18206D01*
X8515Y18229D01*
X8508Y18253D01*
X8498Y18278D01*
X8484Y18303D01*
X8468Y18329D01*
X8449Y18355D01*
X8427Y18383D01*
X8374Y18439D01*
X8787D01*
X8759Y18411D01*
D02*
G37*
G36*
X8558Y17337D02*
X8547Y17326D01*
X8538Y17314D01*
X8530Y17302D01*
X8523Y17290D01*
X8517Y17278D01*
X8513Y17265D01*
X8510Y17252D01*
X8508Y17238D01*
X8507Y17225D01*
X8507Y17211D01*
X8343Y17357D01*
X8357Y17358D01*
X8371Y17361D01*
X8384Y17364D01*
X8397Y17368D01*
X8410Y17373D01*
X8423Y17380D01*
X8435Y17387D01*
X8447Y17396D01*
X8458Y17405D01*
X8469Y17415D01*
X8558Y17337D01*
D02*
G37*
G36*
X6026Y14809D02*
X6021Y14802D01*
X6016Y14794D01*
X6012Y14785D01*
X6008Y14776D01*
X6005Y14767D01*
X6003Y14756D01*
X6001Y14746D01*
X6000Y14734D01*
X6000Y14722D01*
X5900D01*
X5900Y14734D01*
X5899Y14746D01*
X5897Y14756D01*
X5895Y14767D01*
X5892Y14776D01*
X5888Y14785D01*
X5884Y14794D01*
X5879Y14802D01*
X5874Y14809D01*
X5867Y14816D01*
X6033D01*
X6026Y14809D01*
D02*
G37*
G36*
X5520Y14805D02*
X5513Y14799D01*
X5507Y14793D01*
X5502Y14786D01*
X5497Y14778D01*
X5493Y14769D01*
X5489Y14760D01*
X5487Y14750D01*
X5485Y14739D01*
X5484Y14728D01*
X5484Y14716D01*
X5384Y14731D01*
X5383Y14743D01*
X5381Y14766D01*
X5379Y14776D01*
X5377Y14786D01*
X5374Y14796D01*
X5370Y14804D01*
X5366Y14813D01*
X5362Y14821D01*
X5356Y14828D01*
X5520Y14805D01*
D02*
G37*
G36*
X5484Y13721D02*
X5485Y13709D01*
X5487Y13698D01*
X5489Y13688D01*
X5492Y13679D01*
X5495Y13670D01*
X5500Y13661D01*
X5505Y13653D01*
X5510Y13646D01*
X5516Y13639D01*
X5351D01*
X5357Y13646D01*
X5363Y13653D01*
X5368Y13661D01*
X5372Y13670D01*
X5375Y13679D01*
X5378Y13688D01*
X5381Y13698D01*
X5382Y13709D01*
X5383Y13721D01*
X5384Y13733D01*
X5484D01*
X5484Y13721D01*
D02*
G37*
G36*
X5587Y12590D02*
X5579Y12582D01*
X5571Y12573D01*
X5565Y12564D01*
X5559Y12555D01*
X5554Y12546D01*
X5551Y12537D01*
X5548Y12528D01*
X5545Y12519D01*
X5544Y12510D01*
X5544Y12501D01*
X5427Y12618D01*
X5436Y12618D01*
X5445Y12620D01*
X5454Y12622D01*
X5463Y12625D01*
X5472Y12629D01*
X5481Y12633D01*
X5490Y12639D01*
X5499Y12645D01*
X5507Y12653D01*
X5516Y12661D01*
X5587Y12590D01*
D02*
G37*
G36*
X8196Y14652D02*
X8191Y14657D01*
X8185Y14661D01*
X8178Y14664D01*
X8171Y14667D01*
X8162Y14670D01*
X8153Y14672D01*
X8143Y14674D01*
X8132Y14675D01*
X8107Y14676D01*
Y14794D01*
X8120Y14794D01*
X8143Y14796D01*
X8153Y14798D01*
X8162Y14800D01*
X8171Y14803D01*
X8178Y14806D01*
X8185Y14809D01*
X8191Y14813D01*
X8196Y14818D01*
Y14652D01*
D02*
G37*
G36*
X6615Y14813D02*
X6621Y14809D01*
X6628Y14806D01*
X6635Y14803D01*
X6644Y14800D01*
X6653Y14798D01*
X6663Y14796D01*
X6674Y14795D01*
X6699Y14794D01*
Y14676D01*
X6686Y14676D01*
X6663Y14674D01*
X6653Y14672D01*
X6644Y14670D01*
X6635Y14667D01*
X6628Y14664D01*
X6621Y14661D01*
X6615Y14657D01*
X6610Y14652D01*
Y14818D01*
X6615Y14813D01*
D02*
G37*
G36*
X12466Y9187D02*
X12459Y9194D01*
X12452Y9199D01*
X12444Y9204D01*
X12435Y9208D01*
X12426Y9212D01*
X12417Y9215D01*
X12406Y9217D01*
X12396Y9219D01*
X12384Y9220D01*
X12372Y9220D01*
Y9320D01*
X12384Y9320D01*
X12396Y9321D01*
X12406Y9323D01*
X12417Y9325D01*
X12426Y9328D01*
X12435Y9332D01*
X12444Y9336D01*
X12452Y9341D01*
X12459Y9347D01*
X12466Y9353D01*
Y9187D01*
D02*
G37*
G36*
X11021Y9347D02*
X11028Y9341D01*
X11036Y9336D01*
X11045Y9332D01*
X11054Y9328D01*
X11063Y9325D01*
X11073Y9323D01*
X11084Y9321D01*
X11096Y9320D01*
X11108Y9320D01*
Y9220D01*
X11096Y9220D01*
X11084Y9219D01*
X11073Y9217D01*
X11063Y9215D01*
X11054Y9212D01*
X11045Y9208D01*
X11036Y9204D01*
X11028Y9199D01*
X11021Y9194D01*
X11014Y9187D01*
Y9353D01*
X11021Y9347D01*
D02*
G37*
D11*
X18189Y18261D02*
X18650Y17800D01*
X17161Y18261D02*
X18189D01*
X17000Y18100D02*
X17161Y18261D01*
X18488Y14818D02*
Y16912D01*
X17800Y17600D02*
X18488Y16912D01*
X15750Y16900D02*
X15950Y16700D01*
X18219D01*
X4580Y19650D02*
X5050Y19180D01*
Y17594D02*
Y19180D01*
Y17594D02*
X5400Y17244D01*
X4100Y17344D02*
Y19000D01*
Y17344D02*
X4200Y17244D01*
X4580Y17597D02*
X4947Y17230D01*
X4580Y17597D02*
Y18650D01*
X3580Y19520D02*
X4100Y19000D01*
X3580Y19520D02*
Y19650D01*
X5426Y14900D02*
X5434Y14892D01*
Y13555D02*
Y14892D01*
X5950Y13024D02*
Y14900D01*
X5426Y12500D02*
X5950Y13024D01*
X14990Y19665D02*
Y19743D01*
X18219Y14550D02*
X18488Y14818D01*
X20855Y9245D02*
X20860Y9240D01*
X20850Y9250D02*
X20855Y9245D01*
X10930Y9270D02*
X12550D01*
X7150Y15950D02*
X14200D01*
X7150Y16300D02*
X14200D01*
X10930Y9270D02*
X10960Y9240D01*
X10900Y9300D02*
X10930Y9270D01*
X18310Y9050D02*
X18500Y9240D01*
X15940Y9050D02*
X18310D01*
X15750Y9240D02*
X15940Y9050D01*
X20860Y5310D02*
Y9240D01*
X24987Y9287D02*
X24997Y9297D01*
Y10537D01*
X25007Y10546D01*
D13*
X10580Y1972D02*
X13022D01*
X13050Y2000D02*
X13100D01*
X13022Y1972D02*
X13050Y2000D01*
X21238Y13448D02*
X21240Y13446D01*
X23650Y15856D01*
Y17620D02*
Y17649D01*
Y17302D02*
Y17620D01*
Y15856D02*
Y17302D01*
X20952Y13448D02*
X21238D01*
X20950Y13450D02*
X20952Y13448D01*
D14*
X8245Y14735D02*
X8280Y14700D01*
X6526Y14735D02*
X8245D01*
X13249Y15300D02*
X14650D01*
X14900Y15050D01*
X15400Y14550D02*
X18219D01*
X14900Y15050D02*
X15400Y14550D01*
X8350Y17200D02*
Y17213D01*
X8580Y17443D01*
Y18650D01*
D66*
X21219Y12543D02*
X21853D01*
X21219D02*
X21853Y11909D01*
Y11880D02*
Y11909D01*
X20931Y12831D02*
X21219Y12543D01*
X20700Y13062D02*
X20931Y12831D01*
X19870Y12700D02*
X20117D01*
X20249Y12831D01*
X20931D01*
D68*
X34800Y19850D02*
X35300Y20350D01*
X36375Y19725D02*
X36650Y19450D01*
X35325Y19725D02*
X36375D01*
X34800Y19200D02*
X35325Y19725D01*
X35300Y20350D02*
X36800D01*
X34950D02*
X35300D01*
X34800Y19200D02*
Y19850D01*
X36800Y20350D02*
X37986D01*
X37050Y19576D02*
Y19945D01*
X36800Y20195D02*
X37050Y19945D01*
X36800Y20195D02*
Y20350D01*
D69*
X3580Y2972D02*
D03*
X2580D02*
D03*
X4580D02*
D03*
X5580D02*
D03*
X2580Y1972D02*
D03*
X6593Y1976D02*
D03*
X5580Y1972D02*
D03*
X4580D02*
D03*
X3580D02*
D03*
X6580Y2972D02*
D03*
X8580Y1972D02*
D03*
X9580D02*
D03*
X10580D02*
D03*
X11593Y1976D02*
D03*
X7580Y1972D02*
D03*
X10580Y2972D02*
D03*
X9580D02*
D03*
X7580D02*
D03*
X8580D02*
D03*
Y19650D02*
D03*
X7580D02*
D03*
X9580D02*
D03*
X10580D02*
D03*
X7580Y18650D02*
D03*
X11593Y18654D02*
D03*
X10580Y18650D02*
D03*
X9580D02*
D03*
X8580D02*
D03*
X6580Y19650D02*
D03*
X3580Y18650D02*
D03*
X4580D02*
D03*
X5580D02*
D03*
X6593Y18654D02*
D03*
X2580Y18650D02*
D03*
X5580Y19650D02*
D03*
X4580D02*
D03*
X2580D02*
D03*
X3580D02*
D03*
X2800Y16200D02*
D03*
Y13200D02*
D03*
Y14200D02*
D03*
Y15200D02*
D03*
D70*
X11580Y2972D02*
D03*
Y19650D02*
D03*
D71*
X22050Y17118D02*
D03*
D72*
X23050D02*
D03*
D73*
X2800Y12200D02*
D03*
D74*
X13249Y15300D02*
D03*
X14990Y19743D02*
D03*
X14690Y4850D02*
D03*
X43950Y11475D02*
D03*
X44130Y2950D02*
D03*
X44150Y4450D02*
D03*
D75*
X43950Y12975D02*
D03*
X44150Y5950D02*
D03*
D76*
X18284Y19636D02*
D03*
X18300Y20056D02*
D03*
X18284Y20450D02*
D03*
X18650Y17800D02*
D03*
X17800Y17600D02*
D03*
X26050Y300D02*
D03*
X16700Y18550D02*
D03*
X16400D02*
D03*
X15482Y20489D02*
D03*
X15072D02*
D03*
X14670D02*
D03*
X15976Y19673D02*
D03*
Y20083D02*
D03*
Y20485D02*
D03*
X13388Y19174D02*
D03*
X13798D02*
D03*
X14200D02*
D03*
X13403Y19861D02*
D03*
X13813D02*
D03*
X14215D02*
D03*
X13403Y20500D02*
D03*
X13813D02*
D03*
X14215D02*
D03*
X3301Y16850D02*
D03*
X3850Y16869D02*
D03*
X8350Y9287D02*
D03*
X9350Y9325D02*
D03*
X33000Y18500D02*
D03*
X21240Y13446D02*
D03*
X34500Y14800D02*
D03*
Y15150D02*
D03*
X34850D02*
D03*
X15332Y17547D02*
D03*
X22877Y17789D02*
D03*
X22875Y18275D02*
D03*
X21050Y19450D02*
D03*
X23650Y17302D02*
D03*
Y17620D02*
D03*
X4009Y12300D02*
D03*
Y13270D02*
D03*
X3976Y14265D02*
D03*
X8280Y14735D02*
D03*
X6526D02*
D03*
X5400Y17244D02*
D03*
X4947Y17230D02*
D03*
X4200Y17244D02*
D03*
X5450Y14900D02*
D03*
X5434Y13555D02*
D03*
X5950Y14900D02*
D03*
X5426Y12500D02*
D03*
X24526Y18984D02*
D03*
X17338Y19636D02*
D03*
X32600Y17335D02*
D03*
Y17781D02*
D03*
X33000Y18050D02*
D03*
X14900Y15050D02*
D03*
X9607Y10700D02*
D03*
X9977D02*
D03*
X8280Y9003D02*
D03*
X9850Y8761D02*
D03*
Y8391D02*
D03*
Y7981D02*
D03*
X25500Y20264D02*
D03*
Y19894D02*
D03*
Y19484D02*
D03*
X27088Y20315D02*
D03*
Y19945D02*
D03*
Y19535D02*
D03*
X24896Y18984D02*
D03*
Y19636D02*
D03*
X24526D02*
D03*
X24590Y20500D02*
D03*
X24220D02*
D03*
X23810D02*
D03*
X22616Y19393D02*
D03*
X22842Y19965D02*
D03*
X22432D02*
D03*
X23072Y20500D02*
D03*
X22702D02*
D03*
X22292D02*
D03*
X20474Y20019D02*
D03*
X20103D02*
D03*
X19694D02*
D03*
X20240Y20500D02*
D03*
X19870D02*
D03*
X19460D02*
D03*
X16919Y19636D02*
D03*
X17708Y20019D02*
D03*
X17338D02*
D03*
X16928D02*
D03*
X17740Y20500D02*
D03*
X17338D02*
D03*
X16928D02*
D03*
X18847Y14497D02*
D03*
X19397Y13950D02*
D03*
X15159Y15407D02*
D03*
X15568D02*
D03*
X15938D02*
D03*
X13163Y14483D02*
D03*
Y14073D02*
D03*
Y13703D02*
D03*
X13930Y17553D02*
D03*
Y17144D02*
D03*
Y16773D02*
D03*
X13163Y17446D02*
D03*
Y17036D02*
D03*
Y16666D02*
D03*
X13700Y14635D02*
D03*
Y14265D02*
D03*
Y13779D02*
D03*
Y13369D02*
D03*
Y12999D02*
D03*
X15750Y9245D02*
D03*
X12550Y9270D02*
D03*
X14200Y15950D02*
D03*
X7150D02*
D03*
X14200Y16300D02*
D03*
X7150D02*
D03*
X17000Y18100D02*
D03*
X18219Y14550D02*
D03*
X10930Y9270D02*
D03*
X18500Y9240D02*
D03*
X20855Y9245D02*
D03*
X20860Y5310D02*
D03*
X24987Y9287D02*
D03*
X25007Y10546D02*
D03*
X20950Y13450D02*
D03*
X16700Y9400D02*
D03*
X16550Y9720D02*
D03*
Y10090D02*
D03*
Y10500D02*
D03*
X16919Y4750D02*
D03*
X16550Y4850D02*
D03*
Y5204D02*
D03*
Y5550D02*
D03*
Y5903D02*
D03*
X16400Y500D02*
D03*
Y850D02*
D03*
X16800Y1310D02*
D03*
X16400Y1261D02*
D03*
Y1630D02*
D03*
X21853Y12543D02*
D03*
Y12230D02*
D03*
X22250Y12400D02*
D03*
X34250Y19600D02*
D03*
X33878Y19613D02*
D03*
X33310Y20426D02*
D03*
Y20073D02*
D03*
X34562Y19864D02*
D03*
Y20250D02*
D03*
Y20614D02*
D03*
X22276Y3052D02*
D03*
Y2740D02*
D03*
X22273Y2034D02*
D03*
X22276Y2390D02*
D03*
Y1352D02*
D03*
X21879Y1808D02*
D03*
Y2533D02*
D03*
X21876Y2177D02*
D03*
X21879Y2883D02*
D03*
Y3195D02*
D03*
X22276Y1665D02*
D03*
X22247Y6390D02*
D03*
X21850Y7920D02*
D03*
Y7608D02*
D03*
X21847Y6902D02*
D03*
X21850Y7258D02*
D03*
Y6220D02*
D03*
Y6533D02*
D03*
X22247Y6077D02*
D03*
Y7115D02*
D03*
X22243Y6759D02*
D03*
X22247Y7465D02*
D03*
Y7777D02*
D03*
X22250Y12088D02*
D03*
X22247Y11382D02*
D03*
X22250Y11738D02*
D03*
Y10700D02*
D03*
Y11013D02*
D03*
X21853Y11155D02*
D03*
Y10843D02*
D03*
Y11880D02*
D03*
X21850Y11525D02*
D03*
X15750Y16900D02*
D03*
X18219Y16700D02*
D03*
X23766Y8065D02*
D03*
X23400Y14299D02*
D03*
X24050Y8349D02*
D03*
X26100Y13599D02*
D03*
X23400Y14649D02*
D03*
X26100Y5100D02*
D03*
Y9700D02*
D03*
X26050Y3700D02*
D03*
X33200Y1200D02*
D03*
Y3950D02*
D03*
X26100Y8750D02*
D03*
X33350Y9050D02*
D03*
Y6150D02*
D03*
Y10800D02*
D03*
Y13850D02*
D03*
D77*
X34800Y11800D02*
D03*
X34443Y2100D02*
D03*
X35168Y1725D02*
D03*
X34650D02*
D03*
X34200D02*
D03*
X42506Y16773D02*
D03*
X37950Y16550D02*
D03*
X43850Y14200D02*
D03*
X44325Y15550D02*
D03*
X42300Y15750D02*
D03*
X44350Y16350D02*
D03*
X41250Y15750D02*
D03*
X37150Y15611D02*
D03*
Y16300D02*
D03*
X37850Y14572D02*
D03*
Y15056D02*
D03*
Y15600D02*
D03*
X44325Y13972D02*
D03*
Y14456D02*
D03*
Y15000D02*
D03*
X43800Y14672D02*
D03*
Y15156D02*
D03*
Y15700D02*
D03*
X42022Y16228D02*
D03*
X42506D02*
D03*
X43050D02*
D03*
X39800Y16773D02*
D03*
X40700Y15750D02*
D03*
X40422Y16250D02*
D03*
X40906D02*
D03*
X41450D02*
D03*
X40422Y16773D02*
D03*
X40906D02*
D03*
X41450D02*
D03*
X38622Y15850D02*
D03*
X39106D02*
D03*
X39650D02*
D03*
X46050Y11525D02*
D03*
X45566D02*
D03*
X45022D02*
D03*
X46250Y12350D02*
D03*
Y12834D02*
D03*
Y13378D02*
D03*
X45600Y12850D02*
D03*
Y13334D02*
D03*
Y13878D02*
D03*
X46250Y14350D02*
D03*
Y14834D02*
D03*
Y15378D02*
D03*
X45550Y15200D02*
D03*
Y15684D02*
D03*
Y16228D02*
D03*
X46250Y16600D02*
D03*
Y17084D02*
D03*
Y17628D02*
D03*
X45500Y17118D02*
D03*
Y17601D02*
D03*
Y18145D02*
D03*
X45850Y19022D02*
D03*
Y19506D02*
D03*
Y20050D02*
D03*
X42850D02*
D03*
Y19506D02*
D03*
Y19022D02*
D03*
X38100Y20056D02*
D03*
Y19512D02*
D03*
Y19028D02*
D03*
X44700Y20120D02*
D03*
Y19576D02*
D03*
Y19093D02*
D03*
X42150Y20564D02*
D03*
Y20056D02*
D03*
Y19572D02*
D03*
X41450Y20050D02*
D03*
Y19506D02*
D03*
Y19022D02*
D03*
X40900Y20564D02*
D03*
Y20056D02*
D03*
Y19572D02*
D03*
X40250Y20050D02*
D03*
Y19506D02*
D03*
Y19022D02*
D03*
X39700Y20564D02*
D03*
Y20069D02*
D03*
Y19585D02*
D03*
X40050Y4096D02*
D03*
Y3612D02*
D03*
Y3068D02*
D03*
Y2584D02*
D03*
X39500Y3846D02*
D03*
Y3362D02*
D03*
Y2821D02*
D03*
Y2338D02*
D03*
X40050Y2050D02*
D03*
Y9096D02*
D03*
Y8612D02*
D03*
Y8068D02*
D03*
Y7584D02*
D03*
X39500Y8846D02*
D03*
Y8362D02*
D03*
Y7821D02*
D03*
Y7338D02*
D03*
X40050Y7050D02*
D03*
Y11750D02*
D03*
X39500Y12038D02*
D03*
Y12521D02*
D03*
Y13062D02*
D03*
Y13546D02*
D03*
X40050Y12284D02*
D03*
Y12768D02*
D03*
Y13312D02*
D03*
Y13796D02*
D03*
X25716Y1362D02*
D03*
Y1846D02*
D03*
X25530Y2468D02*
D03*
Y2951D02*
D03*
X27000Y1320D02*
D03*
X26516D02*
D03*
X27962D02*
D03*
X27443D02*
D03*
X25716Y6721D02*
D03*
Y6202D02*
D03*
X25530Y7796D02*
D03*
Y7277D02*
D03*
X27343Y6220D02*
D03*
X27862D02*
D03*
X26416D02*
D03*
X26900D02*
D03*
X25786Y11428D02*
D03*
Y10928D02*
D03*
X25600Y12449D02*
D03*
Y11949D02*
D03*
X27088Y11013D02*
D03*
X26604D02*
D03*
X28050D02*
D03*
X27530D02*
D03*
X35193Y6628D02*
D03*
X35518Y6878D02*
D03*
Y7286D02*
D03*
X34300Y11800D02*
D03*
X35668Y11900D02*
D03*
X33668Y6678D02*
D03*
X34161D02*
D03*
X34668D02*
D03*
X34318Y7078D02*
D03*
X34674Y11428D02*
D03*
X34144D02*
D03*
X33668D02*
D03*
X32450Y2056D02*
D03*
X32432Y2556D02*
D03*
Y3006D02*
D03*
Y3456D02*
D03*
Y3956D02*
D03*
X32050Y1809D02*
D03*
X32032Y2309D02*
D03*
Y2759D02*
D03*
Y3209D02*
D03*
Y3709D02*
D03*
X32450Y7112D02*
D03*
X32432Y7612D02*
D03*
Y8062D02*
D03*
Y8512D02*
D03*
Y9012D02*
D03*
X32050Y6866D02*
D03*
X32032Y7366D02*
D03*
Y7816D02*
D03*
Y8266D02*
D03*
Y8766D02*
D03*
Y13525D02*
D03*
Y13025D02*
D03*
Y12575D02*
D03*
Y12125D02*
D03*
X32050Y11625D02*
D03*
X32432Y13772D02*
D03*
Y13272D02*
D03*
Y12822D02*
D03*
Y12372D02*
D03*
X32450Y11872D02*
D03*
X8350Y17200D02*
D03*
X32800Y1800D02*
D03*
M02*
