M48
;Layer_Color=9474304
;FILE_FORMAT=2:4
INCH,TZ
;TYPE=PLATED
T1F00S00C0.0118
T2F00S00C0.0197
T3F00S00C0.0394
T4F00S00C0.0551
T5F00S00C0.0591
%
T01
X33200Y1200
Y3950
X33350Y6150
X26100Y5100
X26050Y3700
Y300
X22276Y1352
Y1665
X22273Y2034
X22276Y2390
Y2740
Y3052
X21879Y3195
Y2883
Y2533
X21876Y2177
X21879Y1808
X21850Y6220
Y6533
X21847Y6902
X21850Y7258
Y7608
X22247Y7465
Y7777
Y7115
X22243Y6759
X22247Y6390
Y6077
X20860Y5310
X16550Y5204
Y5550
Y5903
Y4850
X16919Y4750
X16800Y1310
X16400Y1261
Y1630
Y850
Y500
X9850Y7981
Y8391
Y8761
X9350Y9325
X8350Y9287
X8280Y9003
X10930Y9270
X9977Y10700
X9607
X8280Y14735
X6526
X5950Y14900
X5450
X5434Y13555
X5426Y12500
X4009Y12300
Y13270
X3976Y14265
X3850Y16869
X3301Y16850
X4200Y17244
X4947Y17230
X5400Y17244
X7150Y16300
Y15950
X13163Y16666
Y17036
Y17446
X13930Y17553
Y17144
Y16773
X14200Y16300
Y15950
X15159Y15407
X15568
X15938
X14900Y15050
X13700Y14635
Y14265
Y13779
Y13369
Y12999
X13163Y13703
Y14073
Y14483
X13388Y19174
X13798
X14200
X14215Y19861
X13813
X13403
Y20500
X13813
X14215
X14670Y20489
X15072
X15482
X15976Y20485
Y20083
Y19673
X16919Y19636
X16928Y20019
X17338
X17708
X17740Y20500
X17338
X16928
X17338Y19636
X18284
X18300Y20056
X18284Y20450
X19460Y20500
X19870
X20240
X20103Y20019
X20474
X19694
X21050Y19450
X22616Y19393
X22432Y19965
X22842
X22702Y20500
X23072
X23810
X24220
X24590
X24526Y19636
X24896
Y18984
X24526
X25500Y19484
Y19894
Y20264
X27088Y20315
Y19945
Y19535
X23650Y17620
Y17302
X22877Y17789
X22875Y18275
X22292Y20500
X18650Y17800
X17800Y17600
X17000Y18100
X16700Y18550
X16400
X15332Y17547
X15750Y16900
X18219Y16700
Y14550
X18847Y14497
X19397Y13950
X20950Y13450
X21240Y13446
X21853Y12543
Y12230
Y11880
X21850Y11525
X21853Y11155
Y10843
X22250Y10700
Y11013
X22247Y11382
X22250Y11738
Y12088
Y12400
X23400Y14299
Y14649
X26100Y13599
Y9700
Y8750
X24987Y9287
X25007Y10546
X24050Y8349
X23766Y8065
X21850Y7920
X20855Y9245
X18500Y9240
X16700Y9400
X16550Y9720
Y10090
Y10500
X15750Y9245
X12550Y9270
X33350Y9050
Y10800
Y13850
X34500Y14800
Y15150
X34850
X32600Y17335
Y17781
X33000Y18050
Y18500
X33310Y20073
Y20426
X33878Y19613
X34250Y19600
X34562Y19864
Y20250
Y20614
T02
X27962Y1320
X32050Y1809
X32032Y2309
Y2759
Y3209
Y3709
X32432Y3956
Y3456
Y3006
Y2556
X32450Y2056
X32800Y1800
X34200Y1725
X34650
X35168
X34443Y2100
X34668Y6678
X34161
X33668
X34318Y7078
X35193Y6628
X35518Y6878
Y7286
X32450Y7112
X32432Y7612
X32032Y7816
Y7366
X32050Y6866
X27862Y6220
X39500Y7338
Y7821
X40050Y7584
Y7050
Y4096
Y3612
Y3068
Y2584
Y2050
X39500Y2338
Y2821
Y3362
Y3846
X27343Y6220
X26900
X26416
X25716Y6202
Y6721
X25530Y7277
Y7796
Y2951
Y2468
X25716Y1846
Y1362
X26516Y1320
X27000
X27443
X8350Y17200
X25600Y12449
Y11949
X25786Y11428
Y10928
X26604Y11013
X27088
X27530
X28050
X32050Y11625
X32032Y12125
Y12575
Y13025
Y13525
X32432Y13772
Y13272
Y12822
Y12372
X32450Y11872
X33668Y11428
X34144
X34300Y11800
X34800
X34674Y11428
X35668Y11900
X39500Y12038
Y12521
Y13062
Y13546
X40050Y13312
Y13796
Y12768
Y12284
Y11750
Y9096
Y8612
Y8068
X39500Y8362
Y8846
X39650Y15850
X39106
X38622
X37850Y15600
Y15056
Y14572
X37150Y15611
Y16300
X37950Y16550
X39800Y16773
X40422
X40906
Y16250
X40422
X40700Y15750
X41250
X41450Y16250
Y16773
X42506
Y16228
X42022
X42300Y15750
X43050Y16228
X42850Y19022
Y19506
Y20050
X42150Y20056
Y19572
X41450Y19506
Y19022
Y20050
X40900Y20056
Y19572
X40250Y19506
Y19022
Y20050
X39700Y20069
Y19585
Y20564
X40900
X42150
X38100Y20056
Y19512
Y19028
X32432Y9012
Y8512
Y8062
X32032Y8266
Y8766
X45022Y11525
X45566
X46050
X46250Y12350
Y12834
Y13378
X45600Y13334
Y12850
Y13878
X46250Y14350
Y14834
Y15378
X45550Y15200
Y15684
Y16228
X45500Y17118
Y17601
Y18145
X45850Y19022
Y19506
Y20050
X44700Y20120
Y19576
Y19093
X46250Y17628
Y17084
Y16600
X44350Y16350
X44325Y15550
Y15000
Y14456
Y13972
X43850Y14200
X43800Y14672
Y15156
Y15700
T03
X2580Y1972
Y2972
X3580
X4580
X5580
Y1972
X4580
X3580
X6593Y1976
X7580Y1972
X8580
X9580
X10580
Y2972
X11580
X11593Y1976
X9580Y2972
X8580
X7580
X6580
X2800Y12200
Y13200
Y14200
Y15200
Y16200
X2580Y18650
X3580
X4580
X5580
Y19650
X6580
X7580
X8580
X9580
X10580
Y18650
X9580
X8580
X7580
X6593Y18654
X4580Y19650
X3580
X2580
X11580
X11593Y18654
X22050Y17118
X23050
T04
X14690Y4850
X13249Y15300
X14990Y19743
T05
X44130Y2950
X44150Y4450
Y5950
X43950Y11475
Y12975
M30
