G04*
G04 #@! TF.GenerationSoftware,Altium Limited,Altium Designer,19.0.15 (446)*
G04*
G04 Layer_Physical_Order=1*
G04 Layer_Color=255*
%FSLAX24Y24*%
%MOIN*%
G70*
G01*
G75*
%ADD11C,0.0100*%
%ADD13C,0.0197*%
%ADD14C,0.0118*%
%ADD17R,0.0413X0.0866*%
%ADD18C,0.0394*%
%ADD19R,0.0354X0.0394*%
%ADD20R,0.0394X0.0354*%
%ADD21R,0.2756X0.2559*%
%ADD22R,0.0591X0.0496*%
%ADD23R,0.0394X0.0217*%
%ADD24R,0.0354X0.0512*%
%ADD25R,0.0736X0.0236*%
%ADD26R,0.0413X0.0197*%
%ADD27R,0.0512X0.0354*%
%ADD28R,0.0787X0.1772*%
%ADD29R,0.0697X0.0827*%
%ADD30R,0.0472X0.0709*%
%ADD31R,0.0787X0.2244*%
%ADD32R,0.0709X0.0472*%
%ADD33R,0.0413X0.1024*%
%ADD34R,0.0394X0.0276*%
%ADD35R,0.0197X0.0413*%
%ADD36R,0.0630X0.1378*%
%ADD37R,0.0236X0.0736*%
%ADD66C,0.0394*%
%ADD67C,0.0080*%
%ADD68C,0.0787*%
%ADD69C,0.0591*%
%ADD70R,0.0591X0.0591*%
%ADD71R,0.0600X0.0600*%
%ADD72C,0.0600*%
%ADD73R,0.0591X0.0591*%
%ADD74C,0.0866*%
%ADD75R,0.0866X0.0866*%
%ADD76C,0.0236*%
%ADD77C,0.0315*%
G36*
X27850Y21128D02*
X27854Y21103D01*
X27860Y21079D01*
X27868Y21054D01*
X27878Y21030D01*
X27890Y21007D01*
X27905Y20983D01*
X27922Y20960D01*
X27941Y20937D01*
X27963Y20915D01*
X27825Y20774D01*
X27792Y20807D01*
X27644Y20937D01*
X27628Y20948D01*
X27615Y20955D01*
X27604Y20959D01*
X27848Y21153D01*
X27850Y21128D01*
D02*
G37*
G36*
X21407Y20103D02*
X21397Y20100D01*
X21388Y20094D01*
X21380Y20085D01*
X21374Y20075D01*
X21369Y20062D01*
X21364Y20046D01*
X21361Y20029D01*
X21360Y20009D01*
X21359Y19986D01*
X21241D01*
X21240Y20009D01*
X21239Y20029D01*
X21236Y20046D01*
X21232Y20062D01*
X21226Y20075D01*
X21220Y20085D01*
X21212Y20094D01*
X21203Y20100D01*
X21193Y20103D01*
X21182Y20104D01*
X21418D01*
X21407Y20103D01*
D02*
G37*
G36*
X10650Y19988D02*
X10652Y19959D01*
X10654Y19952D01*
X10655Y19946D01*
X10657Y19941D01*
X10659Y19937D01*
X10661Y19935D01*
X10664Y19933D01*
X10535Y19942D01*
X10538Y19943D01*
X10540Y19945D01*
X10543Y19948D01*
X10545Y19952D01*
X10546Y19957D01*
X10548Y19964D01*
X10549Y19971D01*
X10550Y19989D01*
X10550Y20000D01*
X10650D01*
X10650Y19988D01*
D02*
G37*
G36*
X8632Y20077D02*
X8636Y20054D01*
X8642Y20032D01*
X8651Y20010D01*
X8663Y19988D01*
X8677Y19967D01*
X8694Y19945D01*
X8714Y19925D01*
X8736Y19904D01*
X8761Y19884D01*
X8400D01*
X8425Y19904D01*
X8447Y19925D01*
X8466Y19945D01*
X8483Y19967D01*
X8498Y19988D01*
X8509Y20010D01*
X8519Y20032D01*
X8525Y20054D01*
X8529Y20077D01*
X8530Y20100D01*
X8630D01*
X8632Y20077D01*
D02*
G37*
G36*
X6881Y20013D02*
X6866Y19995D01*
X6853Y19975D01*
X6844Y19953D01*
X6837Y19930D01*
X6833Y19904D01*
X6833Y19876D01*
X6835Y19847D01*
X6840Y19815D01*
X6848Y19782D01*
X6859Y19747D01*
X6489Y19931D01*
X6537Y19947D01*
X6739Y20028D01*
X6759Y20039D01*
X6775Y20049D01*
X6786Y20059D01*
X6881Y20013D01*
D02*
G37*
G36*
X11874Y19726D02*
X11877Y19718D01*
X11882Y19710D01*
X11889Y19704D01*
X11898Y19698D01*
X11910Y19694D01*
X11923Y19690D01*
X11938Y19688D01*
X11955Y19686D01*
X11974Y19686D01*
Y19586D01*
X11955Y19585D01*
X11938Y19584D01*
X11923Y19581D01*
X11910Y19578D01*
X11898Y19573D01*
X11889Y19568D01*
X11882Y19561D01*
X11877Y19554D01*
X11874Y19545D01*
X11873Y19536D01*
Y19736D01*
X11874Y19726D01*
D02*
G37*
G36*
X21740Y19605D02*
X21744Y19595D01*
X21750Y19586D01*
X21758Y19578D01*
X21769Y19572D01*
X21782Y19567D01*
X21797Y19562D01*
X21815Y19559D01*
X21836Y19558D01*
X21858Y19557D01*
Y19439D01*
X21836Y19438D01*
X21815Y19437D01*
X21797Y19434D01*
X21782Y19430D01*
X21769Y19424D01*
X21758Y19418D01*
X21750Y19410D01*
X21744Y19401D01*
X21740Y19391D01*
X21739Y19380D01*
Y19616D01*
X21740Y19605D01*
D02*
G37*
G36*
X23521Y19297D02*
X23505Y19308D01*
X23487Y19313D01*
X23466D01*
X23443Y19308D01*
X23416Y19297D01*
X23387Y19280D01*
X23355Y19258D01*
X23320Y19230D01*
X23242Y19157D01*
X23103Y19297D01*
X23142Y19337D01*
X23203Y19409D01*
X23226Y19441D01*
X23242Y19471D01*
X23253Y19497D01*
X23259Y19521D01*
Y19542D01*
X23253Y19560D01*
X23242Y19575D01*
X23521Y19297D01*
D02*
G37*
G36*
X7577Y19355D02*
X7535Y19354D01*
X7459Y19349D01*
X7425Y19344D01*
X7394Y19338D01*
X7367Y19330D01*
X7342Y19321D01*
X7320Y19310D01*
X7301Y19298D01*
X7285Y19284D01*
X7214Y19354D01*
X7228Y19370D01*
X7240Y19389D01*
X7251Y19411D01*
X7260Y19436D01*
X7268Y19464D01*
X7275Y19495D01*
X7280Y19529D01*
X7285Y19605D01*
X7285Y19647D01*
X7577Y19355D01*
D02*
G37*
G36*
X5876Y19605D02*
X5881Y19529D01*
X5886Y19495D01*
X5892Y19464D01*
X5900Y19436D01*
X5910Y19411D01*
X5920Y19389D01*
X5933Y19370D01*
X5947Y19354D01*
X5876Y19284D01*
X5860Y19298D01*
X5841Y19310D01*
X5819Y19321D01*
X5794Y19330D01*
X5766Y19338D01*
X5735Y19344D01*
X5702Y19349D01*
X5626Y19354D01*
X5583Y19355D01*
X5876Y19647D01*
X5876Y19605D01*
D02*
G37*
G36*
X2577Y19355D02*
X2535Y19354D01*
X2459Y19349D01*
X2425Y19344D01*
X2394Y19338D01*
X2367Y19330D01*
X2342Y19321D01*
X2320Y19310D01*
X2301Y19298D01*
X2285Y19284D01*
X2214Y19354D01*
X2228Y19370D01*
X2240Y19389D01*
X2251Y19411D01*
X2260Y19436D01*
X2268Y19464D01*
X2275Y19495D01*
X2280Y19529D01*
X2285Y19605D01*
X2285Y19647D01*
X2577Y19355D01*
D02*
G37*
G36*
X9854Y19531D02*
X9847Y19496D01*
X9843Y19464D01*
X9842Y19433D01*
X9843Y19405D01*
X9848Y19379D01*
X9855Y19355D01*
X9864Y19333D01*
X9877Y19313D01*
X9892Y19296D01*
X9801Y19245D01*
X9789Y19256D01*
X9772Y19267D01*
X9752Y19279D01*
X9728Y19290D01*
X9668Y19314D01*
X9593Y19339D01*
X9503Y19365D01*
X9864Y19567D01*
X9854Y19531D01*
D02*
G37*
G36*
X32850Y20675D02*
Y20073D01*
X33770Y19153D01*
Y18975D01*
X33250D01*
Y19150D01*
X33000Y19400D01*
X32050D01*
X31850Y19200D01*
X31250D01*
X31150Y19100D01*
Y18150D01*
X31053Y18053D01*
X30050D01*
X29900Y18203D01*
Y20750D01*
X30000Y20850D01*
X32675D01*
X32850Y20675D01*
D02*
G37*
G36*
X34750Y20663D02*
Y18800D01*
X34700Y18750D01*
X34189D01*
X34084Y18854D01*
X34050Y18877D01*
Y19076D01*
X33904Y19223D01*
X33878Y19261D01*
X33860Y19279D01*
Y19317D01*
X33822D01*
X33125Y20014D01*
Y20850D01*
X34562D01*
X34750Y20663D01*
D02*
G37*
G36*
X31966Y18676D02*
X31947Y18655D01*
X31915Y18619D01*
X31904Y18602D01*
X31896Y18588D01*
X31890Y18574D01*
X31887Y18562D01*
Y18552D01*
X31890Y18542D01*
X31896Y18535D01*
X31754Y18676D01*
X31762Y18670D01*
X31771Y18667D01*
X31782D01*
X31794Y18670D01*
X31807Y18676D01*
X31822Y18684D01*
X31838Y18696D01*
X31856Y18710D01*
X31896Y18747D01*
X31966Y18676D01*
D02*
G37*
G36*
X5301Y19002D02*
X5320Y18990D01*
X5342Y18979D01*
X5367Y18970D01*
X5394Y18962D01*
X5425Y18956D01*
X5459Y18951D01*
X5535Y18946D01*
X5577Y18945D01*
X5285Y18653D01*
X5285Y18695D01*
X5280Y18771D01*
X5275Y18805D01*
X5268Y18836D01*
X5260Y18864D01*
X5251Y18889D01*
X5240Y18911D01*
X5228Y18930D01*
X5214Y18946D01*
X5285Y19016D01*
X5301Y19002D01*
D02*
G37*
G36*
X22181Y18935D02*
X22184Y18924D01*
X22194Y18906D01*
X22208Y18891D01*
X22225Y18878D01*
X22247Y18867D01*
X22273Y18859D01*
X22302Y18853D01*
X22336Y18850D01*
X22373Y18848D01*
X22117Y18652D01*
X21861Y18848D01*
X21899Y18850D01*
X21932Y18853D01*
X21962Y18859D01*
X21987Y18867D01*
X22009Y18878D01*
X22027Y18891D01*
X22040Y18906D01*
X22050Y18924D01*
X22056Y18944D01*
X22057Y18952D01*
X22058Y19026D01*
X22176D01*
X22181Y18935D01*
D02*
G37*
G36*
X20329Y18613D02*
X20327Y18621D01*
X20321Y18627D01*
X20311Y18633D01*
X20298Y18638D01*
X20280Y18642D01*
X20258Y18645D01*
X20233Y18648D01*
X20170Y18651D01*
X20132Y18652D01*
Y18848D01*
X20170Y18849D01*
X20258Y18855D01*
X20280Y18858D01*
X20298Y18862D01*
X20311Y18867D01*
X20321Y18873D01*
X20327Y18879D01*
X20329Y18887D01*
Y18613D01*
D02*
G37*
G36*
X33711Y18788D02*
X33717Y18785D01*
X33726Y18782D01*
X33740Y18780D01*
X33758Y18778D01*
X33835Y18774D01*
X33905Y18773D01*
Y18577D01*
X33709Y18578D01*
Y18792D01*
X33711Y18788D01*
D02*
G37*
G36*
X17220Y18701D02*
X17242Y18682D01*
X17253Y18674D01*
X17264Y18667D01*
X17274Y18661D01*
X17284Y18656D01*
X17294Y18652D01*
X17304Y18649D01*
X17314Y18647D01*
X17203Y18536D01*
X17201Y18546D01*
X17198Y18556D01*
X17194Y18566D01*
X17189Y18576D01*
X17183Y18586D01*
X17176Y18597D01*
X17168Y18608D01*
X17149Y18630D01*
X17137Y18642D01*
X17208Y18713D01*
X17220Y18701D01*
D02*
G37*
G36*
X16298Y18808D02*
X16304Y18789D01*
X16312Y18770D01*
X16323Y18751D01*
X16335Y18731D01*
X16350Y18710D01*
X16385Y18666D01*
X16405Y18643D01*
X16428Y18620D01*
X16289Y18480D01*
X16268Y18501D01*
X16225Y18536D01*
X16205Y18550D01*
X16184Y18563D01*
X16164Y18573D01*
X16144Y18582D01*
X16124Y18588D01*
X16104Y18593D01*
X16085Y18595D01*
X16294Y18825D01*
X16298Y18808D01*
D02*
G37*
G36*
X20591Y18675D02*
X20587Y18666D01*
X20584Y18653D01*
X20582Y18637D01*
X20580Y18615D01*
X20625D01*
X20615Y18614D01*
X20607Y18611D01*
X20599Y18606D01*
X20593Y18598D01*
X20587Y18589D01*
X20583Y18578D01*
X20579Y18565D01*
X20577Y18550D01*
X20576Y18544D01*
X20575Y18505D01*
X20575Y18468D01*
X20475D01*
X20475Y18505D01*
X20471Y18560D01*
X20470Y18565D01*
X20467Y18578D01*
X20462Y18589D01*
X20457Y18598D01*
X20450Y18606D01*
X20443Y18611D01*
X20434Y18614D01*
X20425Y18615D01*
X20468D01*
X20465Y18653D01*
X20462Y18666D01*
X20459Y18675D01*
X20455Y18680D01*
X20594D01*
X20591Y18675D01*
D02*
G37*
G36*
X9369Y18443D02*
X9341Y18471D01*
X9286Y18519D01*
X9259Y18538D01*
X9233Y18554D01*
X9208Y18567D01*
X9183Y18578D01*
X9160Y18585D01*
X9136Y18589D01*
X9114Y18591D01*
Y18709D01*
X9136Y18711D01*
X9160Y18715D01*
X9183Y18722D01*
X9208Y18733D01*
X9233Y18746D01*
X9259Y18762D01*
X9286Y18781D01*
X9313Y18804D01*
X9369Y18857D01*
Y18443D01*
D02*
G37*
G36*
X8820Y18829D02*
X8875Y18781D01*
X8902Y18762D01*
X8927Y18746D01*
X8953Y18733D01*
X8977Y18722D01*
X9001Y18715D01*
X9024Y18711D01*
X9047Y18709D01*
Y18591D01*
X9024Y18589D01*
X9001Y18585D01*
X8977Y18578D01*
X8953Y18567D01*
X8927Y18554D01*
X8902Y18538D01*
X8875Y18519D01*
X8848Y18496D01*
X8791Y18443D01*
Y18857D01*
X8820Y18829D01*
D02*
G37*
G36*
X17399Y18554D02*
X17402Y18544D01*
X17406Y18534D01*
X17411Y18524D01*
X17417Y18514D01*
X17424Y18503D01*
X17432Y18492D01*
X17451Y18470D01*
X17463Y18458D01*
X17392Y18387D01*
X17380Y18399D01*
X17358Y18418D01*
X17347Y18426D01*
X17336Y18433D01*
X17326Y18439D01*
X17316Y18444D01*
X17306Y18448D01*
X17296Y18451D01*
X17286Y18453D01*
X17397Y18564D01*
X17399Y18554D01*
D02*
G37*
G36*
X17498Y18711D02*
X17504Y18698D01*
X17513Y18686D01*
X17527Y18676D01*
X17545Y18668D01*
X17567Y18661D01*
X17592Y18655D01*
X17622Y18652D01*
X17655Y18649D01*
X17693Y18648D01*
Y18452D01*
X17655Y18451D01*
X17592Y18445D01*
X17567Y18439D01*
X17545Y18432D01*
X17527Y18424D01*
X17513Y18414D01*
X17504Y18402D01*
X17498Y18389D01*
X17496Y18374D01*
Y18726D01*
X17498Y18711D01*
D02*
G37*
G36*
X17104Y18374D02*
X17102Y18389D01*
X17096Y18402D01*
X17087Y18414D01*
X17073Y18424D01*
X17055Y18432D01*
X17033Y18439D01*
X17008Y18445D01*
X16978Y18448D01*
X16945Y18451D01*
X16908Y18452D01*
Y18648D01*
X16945Y18649D01*
X17008Y18655D01*
X17033Y18661D01*
X17055Y18668D01*
X17073Y18676D01*
X17087Y18686D01*
X17096Y18698D01*
X17102Y18711D01*
X17104Y18726D01*
Y18374D01*
D02*
G37*
G36*
X18646Y18353D02*
X18644Y18372D01*
X18638Y18389D01*
X18628Y18403D01*
X18614Y18416D01*
X18596Y18427D01*
X18574Y18436D01*
X18549Y18443D01*
X18519Y18448D01*
X18485Y18451D01*
X18448Y18452D01*
Y18648D01*
X18485Y18649D01*
X18519Y18652D01*
X18549Y18657D01*
X18574Y18664D01*
X18596Y18673D01*
X18614Y18684D01*
X18628Y18697D01*
X18638Y18711D01*
X18644Y18728D01*
X18646Y18747D01*
Y18353D01*
D02*
G37*
G36*
X2876Y18605D02*
X2881Y18529D01*
X2886Y18495D01*
X2892Y18464D01*
X2900Y18436D01*
X2910Y18411D01*
X2920Y18389D01*
X2933Y18370D01*
X2947Y18354D01*
X2876Y18284D01*
X2860Y18298D01*
X2841Y18310D01*
X2819Y18321D01*
X2794Y18330D01*
X2766Y18338D01*
X2735Y18344D01*
X2702Y18349D01*
X2626Y18354D01*
X2583Y18355D01*
X2876Y18647D01*
X2876Y18605D01*
D02*
G37*
G36*
X27343Y20632D02*
Y19393D01*
X27103Y19153D01*
X25489D01*
X25150Y18814D01*
Y18393D01*
X25032Y18275D01*
X24244D01*
X24150Y18370D01*
Y19895D01*
X24095Y19950D01*
X23260D01*
X23245Y19964D01*
X23199Y19918D01*
X23091D01*
Y19627D01*
X22523Y19059D01*
X22330D01*
Y19333D01*
X22330Y19333D01*
X22314Y19414D01*
X22268Y19484D01*
X22268Y19484D01*
X22103Y19649D01*
X22034Y19695D01*
X21952Y19711D01*
X21952Y19711D01*
X21891D01*
Y19786D01*
X21558D01*
X21557Y19787D01*
X21557Y19787D01*
X21513Y19831D01*
Y19953D01*
X21627D01*
Y20647D01*
X20973D01*
Y19953D01*
X21087D01*
Y19743D01*
X21087Y19743D01*
X21103Y19661D01*
X21149Y19592D01*
X21198Y19543D01*
Y19210D01*
X21891D01*
X21904Y19165D01*
Y19059D01*
X21154D01*
Y19073D01*
X21138Y19151D01*
X21094Y19217D01*
X20872Y19440D01*
Y19786D01*
X20178D01*
Y19210D01*
X20525D01*
X20527Y19207D01*
X20650Y19084D01*
X20631Y19038D01*
X20338D01*
X20329Y19040D01*
X20320Y19038D01*
X20317D01*
X20310Y19038D01*
X20308Y19038D01*
X20178D01*
Y19003D01*
X19207D01*
Y19129D01*
X18493D01*
Y18804D01*
X18489Y18803D01*
X17647D01*
Y18877D01*
X17504D01*
X17496Y18879D01*
X17487Y18877D01*
X17482D01*
X17475Y18878D01*
X17474Y18877D01*
X17193D01*
X17173Y18881D01*
X17153Y18877D01*
X17126D01*
X17125Y18878D01*
X17118Y18877D01*
X17113D01*
X17104Y18879D01*
X17096Y18877D01*
X16953D01*
Y18804D01*
X16949Y18803D01*
X16789D01*
X16770Y18811D01*
X16700Y18820D01*
X16630Y18811D01*
X16611Y18803D01*
X16489D01*
X16470Y18811D01*
X16465Y18812D01*
X16463Y18814D01*
X16456Y18826D01*
X16450Y18836D01*
X16447Y18844D01*
X16445Y18849D01*
X16443Y18860D01*
X16440Y18866D01*
X16438Y18882D01*
X16403Y18966D01*
X16347Y19039D01*
X16275Y19094D01*
X16191Y19129D01*
X16100Y19141D01*
X16009Y19129D01*
X15925Y19094D01*
X15853Y19039D01*
X15797Y18966D01*
X15762Y18882D01*
X15750Y18791D01*
X15762Y18701D01*
X15797Y18617D01*
X15853Y18544D01*
X15925Y18488D01*
X16009Y18454D01*
X16052Y18448D01*
X16066Y18443D01*
X16078Y18442D01*
X16083Y18441D01*
X16090Y18438D01*
X16099Y18435D01*
X16109Y18429D01*
X16121Y18422D01*
X16133Y18414D01*
X16154Y18397D01*
X16179Y18371D01*
X16205Y18354D01*
X16190Y18304D01*
X15147D01*
Y18427D01*
X14453D01*
Y18304D01*
X13603D01*
X13602Y18306D01*
X13600Y18308D01*
X13600Y18308D01*
X13570Y18347D01*
X13497Y18403D01*
X13413Y18438D01*
X13322Y18450D01*
X13232Y18438D01*
X13202Y18426D01*
X13004Y18623D01*
Y20000D01*
X12988Y20078D01*
X12944Y20144D01*
X12800Y20288D01*
Y20600D01*
X13000Y20800D01*
X27175D01*
X27343Y20632D01*
D02*
G37*
G36*
X17496Y18374D02*
X17492Y18373D01*
X17489Y18370D01*
X17486Y18365D01*
X17484Y18358D01*
X17482Y18349D01*
X17480Y18338D01*
X17478Y18310D01*
X17477Y18274D01*
X17377D01*
X17377Y18293D01*
X17375Y18310D01*
X17373Y18326D01*
X17369Y18339D01*
X17365Y18350D01*
X17359Y18359D01*
X17353Y18366D01*
X17345Y18371D01*
X17337Y18374D01*
X17327Y18375D01*
X17496Y18374D01*
D02*
G37*
G36*
X34073Y18648D02*
X34150Y18582D01*
X34183Y18559D01*
X34213Y18542D01*
X34239Y18531D01*
X34261Y18526D01*
X34280Y18528D01*
X34296Y18536D01*
X34308Y18551D01*
X34193Y18352D01*
X34458Y18200D01*
X34439Y18208D01*
X34419Y18211D01*
X34396Y18209D01*
X34371Y18202D01*
X34344Y18190D01*
X34315Y18174D01*
X34284Y18153D01*
X34251Y18126D01*
X34216Y18096D01*
X34179Y18060D01*
X33965Y18124D01*
X34008Y18168D01*
X34074Y18245D01*
X34094Y18274D01*
X34092Y18282D01*
X34082Y18309D01*
X34070Y18337D01*
X34054Y18365D01*
X34036Y18393D01*
X34015Y18420D01*
X33992Y18448D01*
X33965Y18476D01*
X34029Y18690D01*
X34073Y18648D01*
D02*
G37*
G36*
X34498Y18536D02*
X34504Y18523D01*
X34513Y18511D01*
X34527Y18501D01*
X34545Y18493D01*
X34567Y18486D01*
X34592Y18480D01*
X34622Y18477D01*
X34655Y18474D01*
X34692Y18473D01*
Y18277D01*
X34655Y18276D01*
X34592Y18270D01*
X34567Y18264D01*
X34545Y18257D01*
X34527Y18249D01*
X34513Y18239D01*
X34504Y18227D01*
X34498Y18214D01*
X34496Y18199D01*
Y18551D01*
X34498Y18536D01*
D02*
G37*
G36*
X21000Y18192D02*
X21002Y18175D01*
X21005Y18160D01*
X21008Y18147D01*
X21012Y18136D01*
X21018Y18127D01*
X21024Y18120D01*
X21032Y18115D01*
X21040Y18112D01*
X21050Y18111D01*
X20850D01*
X20859Y18112D01*
X20868Y18115D01*
X20875Y18120D01*
X20882Y18127D01*
X20887Y18136D01*
X20892Y18147D01*
X20896Y18160D01*
X20898Y18175D01*
X20900Y18192D01*
X20900Y18211D01*
X21000D01*
X21000Y18192D01*
D02*
G37*
G36*
X20401D02*
X20402Y18175D01*
X20405Y18160D01*
X20408Y18147D01*
X20412Y18136D01*
X20418Y18127D01*
X20424Y18120D01*
X20432Y18115D01*
X20440Y18112D01*
X20450Y18111D01*
X20250D01*
X20259Y18112D01*
X20268Y18115D01*
X20275Y18120D01*
X20282Y18127D01*
X20287Y18136D01*
X20292Y18147D01*
X20296Y18160D01*
X20298Y18175D01*
X20299Y18192D01*
X20300Y18211D01*
X20400D01*
X20401Y18192D01*
D02*
G37*
G36*
X33603Y18204D02*
X33595Y18201D01*
X33587Y18196D01*
X33581Y18189D01*
X33575Y18180D01*
X33571Y18169D01*
X33567Y18155D01*
X33565Y18140D01*
X33563Y18123D01*
X33563Y18104D01*
X33463D01*
X33462Y18123D01*
X33461Y18140D01*
X33458Y18155D01*
X33455Y18169D01*
X33450Y18180D01*
X33445Y18189D01*
X33438Y18196D01*
X33431Y18201D01*
X33422Y18204D01*
X33413Y18205D01*
X33613D01*
X33603Y18204D01*
D02*
G37*
G36*
X13119Y18291D02*
X13132Y18281D01*
X13144Y18273D01*
X13156Y18266D01*
X13167Y18262D01*
X13178Y18259D01*
X13189Y18258D01*
X13199Y18259D01*
X13209Y18262D01*
X13218Y18267D01*
X13126Y18090D01*
X13125Y18101D01*
X13122Y18112D01*
X13119Y18124D01*
X13114Y18136D01*
X13108Y18148D01*
X13100Y18160D01*
X13092Y18172D01*
X13082Y18184D01*
X13059Y18210D01*
X13106Y18303D01*
X13119Y18291D01*
D02*
G37*
G36*
X16916Y18017D02*
X16909Y18024D01*
X16902Y18029D01*
X16894Y18034D01*
X16885Y18038D01*
X16876Y18042D01*
X16867Y18045D01*
X16856Y18047D01*
X16846Y18049D01*
X16834Y18050D01*
X16822Y18050D01*
Y18150D01*
X16834Y18150D01*
X16846Y18151D01*
X16856Y18153D01*
X16867Y18155D01*
X16876Y18158D01*
X16885Y18162D01*
X16894Y18166D01*
X16902Y18171D01*
X16909Y18176D01*
X16916Y18183D01*
Y18017D01*
D02*
G37*
G36*
X14995Y18190D02*
X14999Y18182D01*
X15004Y18175D01*
X15011Y18168D01*
X15020Y18162D01*
X15031Y18158D01*
X15044Y18154D01*
X15059Y18152D01*
X15076Y18151D01*
X15096Y18150D01*
Y18050D01*
X15076Y18049D01*
X15059Y18048D01*
X15044Y18046D01*
X15031Y18042D01*
X15020Y18038D01*
X15011Y18032D01*
X15004Y18025D01*
X14999Y18018D01*
X14995Y18010D01*
X14994Y18000D01*
Y18200D01*
X14995Y18190D01*
D02*
G37*
G36*
X14604Y18000D02*
X14603Y18010D01*
X14600Y18018D01*
X14595Y18025D01*
X14588Y18032D01*
X14579Y18038D01*
X14568Y18042D01*
X14555Y18046D01*
X14540Y18048D01*
X14523Y18049D01*
X14504Y18050D01*
Y18150D01*
X14523Y18151D01*
X14540Y18152D01*
X14555Y18154D01*
X14568Y18158D01*
X14579Y18162D01*
X14588Y18168D01*
X14595Y18175D01*
X14600Y18182D01*
X14603Y18190D01*
X14604Y18200D01*
Y18000D01*
D02*
G37*
G36*
X13498Y18190D02*
X13506Y18182D01*
X13515Y18175D01*
X13525Y18168D01*
X13537Y18162D01*
X13550Y18158D01*
X13564Y18154D01*
X13579Y18152D01*
X13595Y18151D01*
X13613Y18150D01*
Y18050D01*
X13595Y18049D01*
X13579Y18048D01*
X13564Y18046D01*
X13550Y18042D01*
X13537Y18038D01*
X13525Y18032D01*
X13515Y18025D01*
X13506Y18018D01*
X13498Y18010D01*
X13492Y18000D01*
Y18200D01*
X13498Y18190D01*
D02*
G37*
G36*
X19686Y18090D02*
X19689Y18052D01*
X19692Y18037D01*
X19695Y18024D01*
X19699Y18013D01*
X19704Y18005D01*
X19710Y17999D01*
X19717Y17995D01*
X19724Y17994D01*
X19529D01*
X19537Y17995D01*
X19543Y17999D01*
X19549Y18005D01*
X19554Y18013D01*
X19558Y18024D01*
X19561Y18037D01*
X19564Y18052D01*
X19566Y18070D01*
X19568Y18112D01*
X19686D01*
X19686Y18090D01*
D02*
G37*
G36*
X23942Y18244D02*
X23941Y18232D01*
X23944Y18217D01*
X23952Y18200D01*
X23963Y18180D01*
X23980Y18157D01*
X24000Y18131D01*
X24054Y18071D01*
X24088Y18037D01*
X23948Y17898D01*
X23914Y17931D01*
X23828Y18006D01*
X23805Y18022D01*
X23802Y18024D01*
X23797Y18020D01*
X23784Y18006D01*
X23773Y17988D01*
X23764Y17967D01*
X23757Y17941D01*
X23752Y17911D01*
X23749Y17878D01*
X23748Y17840D01*
X23552D01*
X23551Y17878D01*
X23548Y17911D01*
X23543Y17941D01*
X23536Y17967D01*
X23527Y17988D01*
X23516Y18006D01*
X23503Y18020D01*
X23489Y18030D01*
X23472Y18036D01*
X23453Y18038D01*
X23733D01*
X23947Y18253D01*
X23942Y18244D01*
D02*
G37*
G36*
X21476Y17857D02*
X21475Y17859D01*
X21472Y17860D01*
X21467Y17861D01*
X21460Y17863D01*
X21451Y17864D01*
X21412Y17865D01*
X21376Y17866D01*
Y17966D01*
X21395Y17966D01*
X21412Y17968D01*
X21427Y17970D01*
X21441Y17974D01*
X21452Y17978D01*
X21461Y17984D01*
X21468Y17990D01*
X21473Y17998D01*
X21476Y18006D01*
X21477Y18016D01*
X21476Y17857D01*
D02*
G37*
G36*
X21126Y18006D02*
X21129Y17998D01*
X21134Y17990D01*
X21141Y17984D01*
X21150Y17978D01*
X21161Y17974D01*
X21174Y17970D01*
X21190Y17968D01*
X21207Y17966D01*
X21226Y17966D01*
Y17866D01*
X21207Y17865D01*
X21190Y17864D01*
X21174Y17861D01*
X21161Y17858D01*
X21150Y17853D01*
X21141Y17848D01*
X21134Y17841D01*
X21129Y17834D01*
X21126Y17825D01*
X21125Y17816D01*
Y18016D01*
X21126Y18006D01*
D02*
G37*
G36*
X17478Y17876D02*
X17479Y17859D01*
X17482Y17844D01*
X17485Y17831D01*
X17490Y17820D01*
X17495Y17811D01*
X17502Y17804D01*
X17509Y17799D01*
X17518Y17795D01*
X17527Y17794D01*
X17327D01*
X17337Y17795D01*
X17345Y17799D01*
X17353Y17804D01*
X17359Y17811D01*
X17365Y17820D01*
X17369Y17831D01*
X17373Y17844D01*
X17375Y17859D01*
X17377Y17876D01*
X17377Y17896D01*
X17477D01*
X17478Y17876D01*
D02*
G37*
G36*
X24331Y18026D02*
Y17732D01*
X24329Y17751D01*
X24323Y17767D01*
X24313Y17782D01*
X24299Y17795D01*
X24282Y17806D01*
X24260Y17815D01*
X24234Y17821D01*
X24205Y17826D01*
X24171Y17829D01*
X24134Y17830D01*
Y18027D01*
X24331Y18026D01*
D02*
G37*
G36*
X23800Y18704D02*
X23780Y18658D01*
X23091D01*
Y17886D01*
X23396D01*
X23397Y17882D01*
Y17709D01*
X23389Y17690D01*
X23380Y17620D01*
X23389Y17550D01*
X23397Y17531D01*
Y17391D01*
X23389Y17372D01*
X23380Y17302D01*
X23389Y17232D01*
X23416Y17167D01*
X23459Y17111D01*
X23515Y17068D01*
X23580Y17041D01*
X23650Y17032D01*
X23720Y17041D01*
X23785Y17068D01*
X23841Y17111D01*
X23850Y17122D01*
X23900Y17105D01*
Y16073D01*
X23843Y16016D01*
X23108Y16750D01*
X23042Y16795D01*
X22964Y16810D01*
X22500D01*
Y17568D01*
X21600D01*
Y17413D01*
X21277D01*
Y17547D01*
X21277Y17547D01*
Y17569D01*
X21277D01*
X21277Y17597D01*
Y17700D01*
X21325Y17706D01*
X21325Y17706D01*
X21325Y17706D01*
X21466D01*
X21475Y17704D01*
X21484Y17706D01*
X21495D01*
X21498Y17706D01*
X21498Y17706D01*
X21979D01*
Y18399D01*
X21325D01*
Y18268D01*
X21277Y18263D01*
Y18263D01*
X21154D01*
Y18447D01*
X21198Y18462D01*
Y18462D01*
X21891D01*
Y18497D01*
X22696D01*
X22793Y18516D01*
X22875Y18571D01*
X23054Y18750D01*
X23754D01*
X23800Y18704D01*
D02*
G37*
G36*
X24724Y18015D02*
X24730Y18005D01*
X24740Y17997D01*
X24754Y17989D01*
X24771Y17983D01*
X24793Y17978D01*
X24819Y17974D01*
X24848Y17971D01*
X24919Y17968D01*
Y17772D01*
X24881Y17771D01*
X24848Y17768D01*
X24819Y17763D01*
X24793Y17756D01*
X24771Y17747D01*
X24754Y17737D01*
X24740Y17724D01*
X24730Y17709D01*
X24724Y17693D01*
X24722Y17674D01*
Y18026D01*
X24724Y18015D01*
D02*
G37*
G36*
X33976Y17805D02*
X33984Y17717D01*
X33988Y17695D01*
X33994Y17677D01*
X34000Y17663D01*
X34008Y17654D01*
X34016Y17648D01*
X34026Y17646D01*
X33680Y17644D01*
X33699Y17646D01*
X33716Y17652D01*
X33731Y17662D01*
X33743Y17676D01*
X33754Y17694D01*
X33763Y17716D01*
X33770Y17742D01*
X33775Y17771D01*
X33778Y17805D01*
X33779Y17843D01*
X33976D01*
X33976Y17805D01*
D02*
G37*
G36*
X33426Y17646D02*
X33277Y17644D01*
X33287Y17646D01*
X33295Y17649D01*
X33303Y17654D01*
X33309Y17661D01*
X33315Y17670D01*
X33319Y17681D01*
X33323Y17694D01*
X33325Y17709D01*
X33327Y17726D01*
X33327Y17746D01*
X33427D01*
X33426Y17646D01*
D02*
G37*
G36*
X18768Y17790D02*
X18770Y17781D01*
X18772Y17772D01*
X18775Y17763D01*
X18779Y17754D01*
X18783Y17745D01*
X18789Y17736D01*
X18795Y17727D01*
X18803Y17718D01*
X18811Y17710D01*
X18740Y17639D01*
X18732Y17647D01*
X18723Y17655D01*
X18714Y17661D01*
X18705Y17667D01*
X18696Y17671D01*
X18687Y17675D01*
X18678Y17678D01*
X18669Y17680D01*
X18660Y17682D01*
X18651Y17682D01*
X18768Y17799D01*
X18768Y17790D01*
D02*
G37*
G36*
X31697Y17646D02*
X31677Y17625D01*
X31646Y17588D01*
X31634Y17572D01*
X31626Y17557D01*
X31620Y17544D01*
X31617Y17532D01*
Y17521D01*
X31620Y17512D01*
X31626Y17504D01*
X31485Y17646D01*
X31492Y17640D01*
X31502Y17637D01*
X31512D01*
X31524Y17640D01*
X31538Y17646D01*
X31552Y17654D01*
X31569Y17665D01*
X31586Y17680D01*
X31626Y17716D01*
X31697Y17646D01*
D02*
G37*
G36*
X17616Y17691D02*
X17619Y17682D01*
X17624Y17674D01*
X17631Y17668D01*
X17640Y17663D01*
X17651Y17658D01*
X17664Y17655D01*
X17667Y17655D01*
X17676Y17658D01*
X17685Y17662D01*
X17694Y17666D01*
X17702Y17671D01*
X17709Y17676D01*
X17716Y17683D01*
Y17650D01*
X17716Y17650D01*
Y17550D01*
X17716Y17550D01*
Y17517D01*
X17709Y17524D01*
X17702Y17529D01*
X17694Y17534D01*
X17685Y17538D01*
X17676Y17542D01*
X17667Y17545D01*
X17664Y17545D01*
X17651Y17542D01*
X17640Y17537D01*
X17631Y17532D01*
X17624Y17526D01*
X17619Y17518D01*
X17616Y17509D01*
X17615Y17500D01*
Y17700D01*
X17616Y17691D01*
D02*
G37*
G36*
X16665Y17500D02*
X16664Y17509D01*
X16661Y17518D01*
X16656Y17526D01*
X16649Y17532D01*
X16640Y17537D01*
X16629Y17542D01*
X16616Y17545D01*
X16601Y17548D01*
X16583Y17550D01*
X16564Y17550D01*
Y17650D01*
X16583Y17651D01*
X16601Y17652D01*
X16616Y17655D01*
X16629Y17658D01*
X16640Y17663D01*
X16649Y17668D01*
X16656Y17674D01*
X16661Y17682D01*
X16664Y17691D01*
X16665Y17700D01*
Y17500D01*
D02*
G37*
G36*
X16426Y17691D02*
X16429Y17682D01*
X16434Y17674D01*
X16441Y17668D01*
X16450Y17663D01*
X16461Y17658D01*
X16474Y17655D01*
X16490Y17652D01*
X16507Y17651D01*
X16526Y17650D01*
Y17550D01*
X16507Y17550D01*
X16490Y17548D01*
X16474Y17545D01*
X16461Y17542D01*
X16450Y17537D01*
X16441Y17532D01*
X16434Y17526D01*
X16429Y17518D01*
X16426Y17509D01*
X16425Y17500D01*
Y17700D01*
X16426Y17691D01*
D02*
G37*
G36*
X29876Y17696D02*
X29914Y17663D01*
X29931Y17651D01*
X29945Y17643D01*
X29959Y17637D01*
X29971Y17634D01*
X29981Y17635D01*
X29989Y17638D01*
X29996Y17644D01*
X29875Y17485D01*
X29880Y17493D01*
X29880Y17504D01*
X29878Y17517D01*
X29872Y17532D01*
X29863Y17549D01*
X29851Y17567D01*
X29835Y17588D01*
X29794Y17635D01*
X29768Y17661D01*
X29854Y17716D01*
X29876Y17696D01*
D02*
G37*
G36*
X29300Y20650D02*
Y18253D01*
X29197Y18150D01*
X27150D01*
X26926Y17926D01*
Y17575D01*
X26801Y17450D01*
X26100D01*
X25950Y17600D01*
Y17770D01*
X25899Y17771D01*
X25826Y17772D01*
Y17968D01*
X25899Y17969D01*
X25950Y17972D01*
Y18550D01*
X26075Y18675D01*
X27425D01*
X27878Y19128D01*
Y20614D01*
X28064Y20800D01*
X29150D01*
X29300Y20650D01*
D02*
G37*
G36*
X20597Y17396D02*
X20577Y17375D01*
X20546Y17338D01*
X20534Y17322D01*
X20526Y17307D01*
X20520Y17294D01*
X20517Y17282D01*
Y17271D01*
X20520Y17262D01*
X20526Y17254D01*
X20385Y17396D01*
X20392Y17390D01*
X20402Y17387D01*
X20412D01*
X20424Y17390D01*
X20438Y17396D01*
X20452Y17404D01*
X20469Y17415D01*
X20486Y17430D01*
X20526Y17466D01*
X20597Y17396D01*
D02*
G37*
G36*
X31275Y17350D02*
X31274Y17359D01*
X31271Y17368D01*
X31266Y17376D01*
X31259Y17382D01*
X31250Y17387D01*
X31239Y17392D01*
X31226Y17395D01*
X31210Y17398D01*
X31193Y17399D01*
X31174Y17400D01*
Y17500D01*
X31193Y17500D01*
X31210Y17502D01*
X31226Y17505D01*
X31239Y17508D01*
X31250Y17513D01*
X31259Y17518D01*
X31266Y17524D01*
X31271Y17532D01*
X31274Y17541D01*
X31275Y17550D01*
Y17350D01*
D02*
G37*
G36*
X30826Y17541D02*
X30829Y17532D01*
X30834Y17524D01*
X30841Y17518D01*
X30850Y17513D01*
X30861Y17508D01*
X30874Y17505D01*
X30890Y17502D01*
X30907Y17500D01*
X30926Y17500D01*
Y17400D01*
X30907Y17399D01*
X30890Y17398D01*
X30874Y17395D01*
X30861Y17392D01*
X30850Y17387D01*
X30841Y17382D01*
X30834Y17376D01*
X30829Y17368D01*
X30826Y17359D01*
X30825Y17350D01*
Y17550D01*
X30826Y17541D01*
D02*
G37*
G36*
X16841Y17403D02*
X16832Y17400D01*
X16825Y17395D01*
X16818Y17388D01*
X16813Y17379D01*
X16808Y17368D01*
X16805Y17355D01*
X16802Y17340D01*
X16801Y17323D01*
X16800Y17304D01*
X16700D01*
X16700Y17323D01*
X16697Y17355D01*
X16694Y17368D01*
X16691Y17379D01*
X16687Y17388D01*
X16682Y17395D01*
X16677Y17400D01*
X16671Y17403D01*
X16664Y17404D01*
X16850D01*
X16841Y17403D01*
D02*
G37*
G36*
X30740Y17255D02*
X30732Y17251D01*
X30724Y17246D01*
X30718Y17239D01*
X30712Y17230D01*
X30708Y17219D01*
X30705Y17206D01*
X30702Y17191D01*
X30701Y17174D01*
X30700Y17154D01*
X30600D01*
X30600Y17174D01*
X30598Y17191D01*
X30596Y17206D01*
X30592Y17219D01*
X30587Y17230D01*
X30582Y17239D01*
X30575Y17246D01*
X30568Y17251D01*
X30559Y17255D01*
X30550Y17256D01*
X30750D01*
X30740Y17255D01*
D02*
G37*
G36*
X30141D02*
X30132Y17251D01*
X30124Y17246D01*
X30118Y17239D01*
X30113Y17230D01*
X30108Y17219D01*
X30104Y17206D01*
X30102Y17191D01*
X30101Y17174D01*
X30100Y17154D01*
X30000D01*
X29999Y17174D01*
X29998Y17191D01*
X29996Y17206D01*
X29992Y17219D01*
X29987Y17230D01*
X29982Y17239D01*
X29976Y17246D01*
X29968Y17251D01*
X29959Y17255D01*
X29950Y17256D01*
X30150D01*
X30141Y17255D01*
D02*
G37*
G36*
X5519Y17238D02*
X5520Y17229D01*
X5523Y17220D01*
X5526Y17211D01*
X5530Y17202D01*
X5535Y17193D01*
X5541Y17184D01*
X5547Y17175D01*
X5555Y17167D01*
X5563Y17158D01*
X5495Y17084D01*
X5486Y17092D01*
X5478Y17100D01*
X5469Y17106D01*
X5460Y17112D01*
X5451Y17116D01*
X5442Y17120D01*
X5433Y17123D01*
X5424Y17125D01*
X5415Y17126D01*
X5406Y17126D01*
X5518Y17247D01*
X5519Y17238D01*
D02*
G37*
G36*
X4319D02*
X4320Y17229D01*
X4323Y17220D01*
X4326Y17211D01*
X4330Y17202D01*
X4335Y17193D01*
X4341Y17184D01*
X4347Y17175D01*
X4355Y17167D01*
X4363Y17158D01*
X4295Y17084D01*
X4286Y17092D01*
X4278Y17100D01*
X4269Y17106D01*
X4260Y17112D01*
X4251Y17116D01*
X4242Y17120D01*
X4233Y17123D01*
X4224Y17125D01*
X4215Y17126D01*
X4206Y17126D01*
X4318Y17247D01*
X4319Y17238D01*
D02*
G37*
G36*
X21752Y17082D02*
X21751Y17093D01*
X21748Y17103D01*
X21742Y17112D01*
X21733Y17120D01*
X21723Y17126D01*
X21709Y17132D01*
X21694Y17136D01*
X21676Y17139D01*
X21656Y17140D01*
X21633Y17141D01*
Y17259D01*
X21656Y17260D01*
X21676Y17261D01*
X21694Y17264D01*
X21709Y17269D01*
X21723Y17274D01*
X21733Y17280D01*
X21742Y17288D01*
X21748Y17297D01*
X21751Y17307D01*
X21752Y17318D01*
Y17082D01*
D02*
G37*
G36*
X21126Y17307D02*
X21130Y17297D01*
X21135Y17288D01*
X21144Y17280D01*
X21155Y17274D01*
X21168Y17269D01*
X21183Y17264D01*
X21201Y17261D01*
X21221Y17260D01*
X21244Y17259D01*
Y17141D01*
X21221Y17140D01*
X21201Y17139D01*
X21183Y17136D01*
X21168Y17132D01*
X21155Y17126D01*
X21144Y17120D01*
X21135Y17112D01*
X21130Y17103D01*
X21126Y17093D01*
X21125Y17082D01*
Y17318D01*
X21126Y17307D01*
D02*
G37*
G36*
X5066Y17234D02*
X5068Y17225D01*
X5071Y17216D01*
X5074Y17208D01*
X5079Y17199D01*
X5084Y17190D01*
X5090Y17181D01*
X5097Y17173D01*
X5104Y17164D01*
X5112Y17155D01*
X5051Y17075D01*
X5042Y17083D01*
X5033Y17091D01*
X5025Y17097D01*
X5016Y17102D01*
X5007Y17107D01*
X4998Y17110D01*
X4989Y17112D01*
X4980Y17114D01*
X4971Y17114D01*
X4962Y17113D01*
X5064Y17243D01*
X5066Y17234D01*
D02*
G37*
G36*
X33166Y18427D02*
Y18053D01*
X33174D01*
X33198Y18008D01*
X33189Y17995D01*
X33173Y17917D01*
Y17797D01*
X32923D01*
Y17270D01*
X32698Y17045D01*
X31850D01*
X31777Y17118D01*
Y17495D01*
X31779Y17504D01*
X31778Y17508D01*
X31786Y17517D01*
X32317Y18049D01*
X32392D01*
X32411Y18053D01*
X32797D01*
Y18569D01*
X32148D01*
X32127Y18619D01*
X32305Y18797D01*
X32392D01*
X32411Y18801D01*
X32797D01*
Y18827D01*
X33166D01*
Y18427D01*
D02*
G37*
G36*
X3477Y17054D02*
X3467Y17051D01*
X3458Y17045D01*
X3451Y17036D01*
X3444Y17026D01*
X3439Y17012D01*
X3435Y16997D01*
X3432Y16979D01*
X3430Y16959D01*
X3429Y16936D01*
X3421D01*
X3415Y16880D01*
X3330Y16936D01*
X3311D01*
X3311Y16948D01*
X3284Y16967D01*
X3289Y16968D01*
X3293Y16971D01*
X3298Y16975D01*
X3301Y16980D01*
X3304Y16987D01*
X3307Y16995D01*
X3309Y17004D01*
X3310Y17014D01*
X3311Y17026D01*
X3311Y17039D01*
X3312Y17038D01*
X3312Y17054D01*
X3488Y17056D01*
X3477Y17054D01*
D02*
G37*
G36*
X3657Y17212D02*
X3653Y17202D01*
X3654Y17189D01*
X3657Y17175D01*
X3664Y17159D01*
X3674Y17141D01*
X3687Y17122D01*
X3704Y17101D01*
X3748Y17054D01*
X3664Y16971D01*
X3640Y16994D01*
X3596Y17031D01*
X3577Y17045D01*
X3560Y17055D01*
X3544Y17062D01*
X3530Y17065D01*
X3517Y17065D01*
X3506Y17062D01*
X3497Y17056D01*
X3663Y17221D01*
X3657Y17212D01*
D02*
G37*
G36*
X8399Y17050D02*
X8388Y17046D01*
X8378Y17040D01*
X8369Y17033D01*
X8361Y17025D01*
X8354Y17015D01*
X8349Y17004D01*
X8345Y16992D01*
X8342Y16979D01*
X8340Y16964D01*
X8339Y16948D01*
X8221Y17015D01*
X8221Y17030D01*
X8218Y17074D01*
X8217Y17087D01*
X8212Y17112D01*
X8209Y17124D01*
X8202Y17145D01*
X8399Y17050D01*
D02*
G37*
G36*
X2907Y17054D02*
X2897Y17051D01*
X2888Y17045D01*
X2880Y17036D01*
X2874Y17026D01*
X2869Y17012D01*
X2864Y16997D01*
X2861Y16979D01*
X2860Y16959D01*
X2859Y16936D01*
X2741D01*
X2741Y16959D01*
X2736Y17012D01*
X2734Y17025D01*
X2731Y17035D01*
X2727Y17044D01*
X2723Y17050D01*
X2718Y17053D01*
X2712Y17054D01*
X2918Y17056D01*
X2907Y17054D01*
D02*
G37*
G36*
X30701Y16977D02*
X30702Y16960D01*
X30705Y16945D01*
X30708Y16932D01*
X30712Y16921D01*
X30718Y16912D01*
X30724Y16905D01*
X30732Y16900D01*
X30740Y16897D01*
X30750Y16896D01*
X30550D01*
X30559Y16897D01*
X30568Y16900D01*
X30575Y16905D01*
X30582Y16912D01*
X30587Y16921D01*
X30592Y16932D01*
X30596Y16945D01*
X30598Y16960D01*
X30600Y16977D01*
X30600Y16996D01*
X30700D01*
X30701Y16977D01*
D02*
G37*
G36*
X30101D02*
X30102Y16960D01*
X30104Y16945D01*
X30108Y16932D01*
X30113Y16921D01*
X30118Y16912D01*
X30124Y16905D01*
X30132Y16900D01*
X30141Y16897D01*
X30150Y16896D01*
X29950D01*
X29959Y16897D01*
X29968Y16900D01*
X29976Y16905D01*
X29982Y16912D01*
X29987Y16921D01*
X29992Y16932D01*
X29996Y16945D01*
X29998Y16960D01*
X29999Y16977D01*
X30000Y16996D01*
X30100D01*
X30101Y16977D01*
D02*
G37*
G36*
X3778Y17024D02*
X3796Y17009D01*
X3804Y17003D01*
X3812Y16998D01*
X3820Y16994D01*
X3828Y16991D01*
X3835Y16989D01*
X3842Y16987D01*
X3849Y16987D01*
X3732Y16870D01*
X3731Y16877D01*
X3730Y16884D01*
X3728Y16891D01*
X3725Y16898D01*
X3721Y16906D01*
X3715Y16914D01*
X3709Y16923D01*
X3702Y16931D01*
X3686Y16949D01*
X3769Y17033D01*
X3778Y17024D01*
D02*
G37*
G36*
X15476Y16990D02*
X15479Y16982D01*
X15484Y16975D01*
X15491Y16968D01*
X15500Y16962D01*
X15511Y16958D01*
X15524Y16954D01*
X15540Y16952D01*
X15557Y16951D01*
X15574Y16950D01*
X15584Y16950D01*
X15596Y16951D01*
X15606Y16953D01*
X15617Y16955D01*
X15626Y16958D01*
X15635Y16962D01*
X15644Y16966D01*
X15652Y16971D01*
X15659Y16976D01*
X15666Y16983D01*
Y16817D01*
X15659Y16824D01*
X15652Y16829D01*
X15644Y16834D01*
X15635Y16838D01*
X15626Y16842D01*
X15617Y16845D01*
X15606Y16847D01*
X15596Y16849D01*
X15584Y16850D01*
X15574Y16850D01*
X15557Y16849D01*
X15540Y16848D01*
X15524Y16846D01*
X15511Y16842D01*
X15500Y16838D01*
X15491Y16832D01*
X15484Y16825D01*
X15479Y16818D01*
X15476Y16810D01*
X15475Y16800D01*
Y17000D01*
X15476Y16990D01*
D02*
G37*
G36*
X19578Y16944D02*
X19613Y16914D01*
X19629Y16903D01*
X19643Y16895D01*
X19657Y16889D01*
X19669Y16885D01*
X19681Y16885D01*
X19691Y16886D01*
X19700Y16891D01*
X19531Y16779D01*
X19537Y16786D01*
X19541Y16794D01*
X19542Y16804D01*
X19539Y16815D01*
X19534Y16828D01*
X19525Y16843D01*
X19513Y16860D01*
X19498Y16879D01*
X19459Y16921D01*
X19558Y16962D01*
X19578Y16944D01*
D02*
G37*
G36*
X16801Y17064D02*
X16803Y17049D01*
X16806Y17038D01*
X16811Y17030D01*
X16818Y17025D01*
X16825Y17024D01*
X16835Y17026D01*
X16845Y17032D01*
X16857Y17041D01*
X16871Y17053D01*
Y16912D01*
X16857Y16897D01*
X16845Y16882D01*
X16835Y16866D01*
X16825Y16850D01*
X16818Y16834D01*
X16811Y16816D01*
X16806Y16798D01*
X16803Y16780D01*
X16801Y16761D01*
X16800Y16741D01*
X16700Y16862D01*
X16800Y17082D01*
X16801Y17064D01*
D02*
G37*
G36*
X12963Y18087D02*
X12965Y18085D01*
X12969Y18081D01*
X12972Y18076D01*
X12974Y18073D01*
X12975Y18070D01*
X12975Y18069D01*
X12975Y18068D01*
X12978Y18061D01*
X12980Y18045D01*
X12980Y18044D01*
X12980Y18044D01*
X12984Y18009D01*
X13019Y17925D01*
X13075Y17853D01*
X13147Y17797D01*
X13232Y17762D01*
X13322Y17750D01*
X13413Y17762D01*
X13497Y17797D01*
X13570Y17853D01*
X13600Y17892D01*
X13600Y17892D01*
X13602Y17894D01*
X13603Y17896D01*
X14453D01*
Y17773D01*
X15147D01*
Y17896D01*
X15923D01*
Y17253D01*
X16546D01*
Y16767D01*
X16482D01*
Y15731D01*
X17117D01*
X17130Y15665D01*
X17174Y15599D01*
X17306Y15467D01*
X17372Y15423D01*
X17450Y15407D01*
X18103D01*
Y15273D01*
X18061Y15254D01*
X16550D01*
X16472Y15238D01*
X16406Y15194D01*
X16144Y14933D01*
X16100Y14866D01*
X16085Y14788D01*
X15982D01*
Y14304D01*
X15897D01*
Y14427D01*
X15247D01*
Y15027D01*
X15190D01*
X15170Y15050D01*
X15161Y15120D01*
X15134Y15185D01*
X15091Y15241D01*
X15035Y15284D01*
X14994Y15301D01*
X14982Y15310D01*
X14900Y15326D01*
X14818Y15310D01*
X14806Y15301D01*
X14769Y15286D01*
X14732Y15299D01*
X14719Y15305D01*
Y15635D01*
X14703Y15713D01*
X14659Y15779D01*
X14620Y15818D01*
X14639Y15864D01*
X15027D01*
Y16515D01*
X15627D01*
Y16616D01*
X15669Y16643D01*
X15680Y16639D01*
X15750Y16630D01*
X15820Y16639D01*
X15885Y16666D01*
X15941Y16709D01*
X15984Y16765D01*
X16011Y16830D01*
X16020Y16900D01*
X16011Y16970D01*
X15984Y17035D01*
X15941Y17091D01*
X15885Y17134D01*
X15820Y17161D01*
X15750Y17170D01*
X15680Y17161D01*
X15669Y17157D01*
X15627Y17184D01*
Y17208D01*
X14373D01*
Y16568D01*
X14359Y16556D01*
X14323Y16539D01*
X14270Y16561D01*
X14200Y16570D01*
X14130Y16561D01*
X14065Y16534D01*
X14009Y16491D01*
X13966Y16435D01*
X13939Y16370D01*
X13930Y16300D01*
X13939Y16230D01*
X13966Y16165D01*
X13996Y16125D01*
X13966Y16085D01*
X13939Y16020D01*
X13930Y15950D01*
X13939Y15880D01*
X13966Y15815D01*
X14009Y15759D01*
X14065Y15716D01*
X14130Y15689D01*
X14179Y15682D01*
X14311Y15551D01*
Y13555D01*
X14326Y13477D01*
X14371Y13411D01*
X14373Y13408D01*
Y13003D01*
X15964D01*
X15973Y13001D01*
X15977Y13002D01*
X15986Y12995D01*
X16126Y12855D01*
X16126Y12855D01*
X16152Y12837D01*
X16136Y12787D01*
X13451D01*
X12754Y13484D01*
Y14905D01*
X12804Y14923D01*
X12835Y14886D01*
X12924Y14813D01*
X13025Y14759D01*
X13135Y14725D01*
X13249Y14714D01*
X13363Y14725D01*
X13473Y14759D01*
X13575Y14813D01*
X13663Y14886D01*
X13736Y14974D01*
X13790Y15076D01*
X13824Y15186D01*
X13835Y15300D01*
X13824Y15414D01*
X13790Y15524D01*
X13736Y15625D01*
X13663Y15714D01*
X13575Y15787D01*
X13473Y15841D01*
X13363Y15875D01*
X13249Y15886D01*
X13135Y15875D01*
X13025Y15841D01*
X12924Y15787D01*
X12835Y15714D01*
X12804Y15677D01*
X12754Y15695D01*
Y18100D01*
X12951D01*
X12963Y18087D01*
D02*
G37*
G36*
X43880Y17270D02*
X44750Y16400D01*
X44750Y12650D01*
X44650Y12550D01*
X43500Y12550D01*
X43400Y12650D01*
X43400Y15200D01*
X43050Y15550D01*
X38600Y15550D01*
X38300Y15250D01*
X38300Y14050D01*
X40200Y14050D01*
X40500Y13750D01*
Y11550D01*
X40350Y11400D01*
X38400D01*
X38300Y11300D01*
Y9600D01*
X38450Y9450D01*
X40250D01*
X40500Y9200D01*
Y6950D01*
X40300Y6750D01*
X38400D01*
X38300Y6650D01*
Y4500D01*
X38450Y4350D01*
X40350D01*
X40500Y4200D01*
Y1800D01*
X40400Y1700D01*
X36800D01*
X36750Y1750D01*
X36750Y16191D01*
X36737Y16193D01*
X36695Y16197D01*
X36605Y16200D01*
X36568Y16200D01*
Y16300D01*
X36605Y16300D01*
X36753Y16310D01*
X36766Y16313D01*
X36775Y16316D01*
X36780Y16320D01*
Y16280D01*
X36857Y16357D01*
X36752Y16387D01*
X36750Y16426D01*
X36746Y16464D01*
X36739Y16500D01*
X36729Y16536D01*
X36717Y16570D01*
X36701Y16603D01*
X36683Y16635D01*
X36662Y16665D01*
X36639Y16695D01*
X36612Y16723D01*
X36752Y16863D01*
X36780Y16836D01*
X36810Y16813D01*
X36840Y16792D01*
X36872Y16774D01*
X36905Y16758D01*
X36939Y16746D01*
X36975Y16736D01*
X37011Y16729D01*
X37049Y16725D01*
X37088Y16723D01*
X37118Y16618D01*
X37770Y17270D01*
X43880Y17270D01*
D02*
G37*
G36*
X17301Y16696D02*
X17302Y16679D01*
X17305Y16664D01*
X17308Y16651D01*
X17313Y16640D01*
X17318Y16631D01*
X17325Y16624D01*
X17332Y16618D01*
X17341Y16615D01*
X17350Y16614D01*
X17150D01*
X17160Y16615D01*
X17168Y16618D01*
X17176Y16624D01*
X17182Y16631D01*
X17188Y16640D01*
X17192Y16651D01*
X17196Y16664D01*
X17198Y16679D01*
X17200Y16696D01*
X17200Y16716D01*
X17300D01*
X17301Y16696D01*
D02*
G37*
G36*
X16801D02*
X16802Y16679D01*
X16805Y16664D01*
X16808Y16651D01*
X16813Y16640D01*
X16818Y16631D01*
X16825Y16624D01*
X16832Y16618D01*
X16841Y16615D01*
X16850Y16614D01*
X16650D01*
X16660Y16615D01*
X16668Y16618D01*
X16676Y16624D01*
X16682Y16631D01*
X16688Y16640D01*
X16692Y16651D01*
X16696Y16664D01*
X16698Y16679D01*
X16700Y16696D01*
X16700Y16716D01*
X16800D01*
X16801Y16696D01*
D02*
G37*
G36*
X19725Y16853D02*
X19727Y16839D01*
X19730Y16825D01*
X19735Y16811D01*
X19741Y16797D01*
X19749Y16783D01*
X19758Y16769D01*
X19769Y16754D01*
X19781Y16740D01*
X19795Y16726D01*
Y16585D01*
X19781Y16598D01*
X19769Y16607D01*
X19758Y16614D01*
X19749Y16619D01*
X19741Y16620D01*
X19735Y16619D01*
X19730Y16614D01*
X19727Y16607D01*
X19725Y16598D01*
X19724Y16585D01*
Y16868D01*
X19725Y16853D01*
D02*
G37*
G36*
X14791Y16665D02*
X14782Y16662D01*
X14775Y16657D01*
X14768Y16650D01*
X14763Y16641D01*
X14758Y16630D01*
X14755Y16617D01*
X14752Y16602D01*
X14750Y16585D01*
X14750Y16566D01*
X14650D01*
X14649Y16585D01*
X14648Y16602D01*
X14646Y16617D01*
X14642Y16630D01*
X14638Y16641D01*
X14632Y16650D01*
X14626Y16657D01*
X14618Y16662D01*
X14610Y16665D01*
X14600Y16666D01*
X14800D01*
X14791Y16665D01*
D02*
G37*
G36*
X18330Y16741D02*
X18334Y16735D01*
X18338Y16729D01*
X18348Y16715D01*
X18361Y16700D01*
X18385Y16674D01*
X18352Y16566D01*
X18343Y16574D01*
X18335Y16581D01*
X18326Y16587D01*
X18318Y16592D01*
X18309Y16595D01*
X18301Y16597D01*
X18293Y16598D01*
X18285Y16598D01*
X18277Y16596D01*
X18270Y16593D01*
X18328Y16747D01*
X18330Y16741D01*
D02*
G37*
G36*
X2861Y16644D02*
X2865Y16621D01*
X2872Y16597D01*
X2883Y16572D01*
X2896Y16547D01*
X2912Y16521D01*
X2931Y16495D01*
X2954Y16467D01*
X3007Y16411D01*
X2593D01*
X2621Y16439D01*
X2669Y16495D01*
X2688Y16521D01*
X2704Y16547D01*
X2717Y16572D01*
X2728Y16597D01*
X2735Y16621D01*
X2739Y16644D01*
X2741Y16666D01*
X2859D01*
X2861Y16644D01*
D02*
G37*
G36*
X14750Y16488D02*
X14752Y16471D01*
X14755Y16456D01*
X14758Y16443D01*
X14763Y16432D01*
X14768Y16423D01*
X14775Y16416D01*
X14782Y16411D01*
X14791Y16408D01*
X14800Y16407D01*
X14600D01*
X14610Y16408D01*
X14618Y16411D01*
X14626Y16416D01*
X14632Y16423D01*
X14638Y16432D01*
X14642Y16443D01*
X14646Y16456D01*
X14648Y16471D01*
X14649Y16488D01*
X14650Y16507D01*
X14750D01*
X14750Y16488D01*
D02*
G37*
G36*
X18500Y16457D02*
X18502Y16440D01*
X18505Y16424D01*
X18508Y16411D01*
X18513Y16400D01*
X18518Y16391D01*
X18525Y16384D01*
X18532Y16379D01*
X18541Y16376D01*
X18550Y16375D01*
X18350D01*
X18360Y16376D01*
X18368Y16379D01*
X18376Y16384D01*
X18382Y16391D01*
X18388Y16400D01*
X18392Y16411D01*
X18396Y16424D01*
X18398Y16440D01*
X18399Y16457D01*
X18400Y16476D01*
X18500D01*
X18500Y16457D01*
D02*
G37*
G36*
X14291Y16376D02*
X14298Y16371D01*
X14306Y16366D01*
X14315Y16362D01*
X14324Y16358D01*
X14333Y16355D01*
X14344Y16353D01*
X14354Y16351D01*
X14366Y16350D01*
X14378Y16350D01*
Y16250D01*
X14366Y16250D01*
X14354Y16249D01*
X14344Y16247D01*
X14333Y16245D01*
X14324Y16242D01*
X14315Y16238D01*
X14306Y16234D01*
X14298Y16229D01*
X14291Y16224D01*
X14284Y16217D01*
Y16383D01*
X14291Y16376D01*
D02*
G37*
G36*
X35123Y16153D02*
X35106Y16134D01*
X35078Y16101D01*
X35067Y16085D01*
X35059Y16070D01*
X35053Y16057D01*
X35049Y16044D01*
X35047Y16032D01*
X35048Y16021D01*
X35052Y16011D01*
X34963Y16204D01*
X34969Y16196D01*
X34976Y16191D01*
X34985Y16190D01*
X34996Y16192D01*
X35010Y16198D01*
X35025Y16207D01*
X35042Y16219D01*
X35061Y16234D01*
X35105Y16275D01*
X35123Y16153D01*
D02*
G37*
G36*
X21875Y16150D02*
X21874Y16159D01*
X21871Y16168D01*
X21866Y16176D01*
X21859Y16182D01*
X21850Y16187D01*
X21839Y16192D01*
X21826Y16195D01*
X21810Y16198D01*
X21793Y16200D01*
X21774Y16200D01*
Y16300D01*
X21793Y16300D01*
X21810Y16302D01*
X21826Y16305D01*
X21839Y16308D01*
X21850Y16313D01*
X21859Y16318D01*
X21866Y16324D01*
X21871Y16332D01*
X21874Y16341D01*
X21875Y16350D01*
Y16150D01*
D02*
G37*
G36*
X21501Y16341D02*
X21504Y16332D01*
X21509Y16324D01*
X21517Y16318D01*
X21526Y16313D01*
X21537Y16308D01*
X21550Y16305D01*
X21565Y16302D01*
X21582Y16300D01*
X21602Y16300D01*
Y16200D01*
X21582Y16200D01*
X21565Y16198D01*
X21550Y16195D01*
X21537Y16192D01*
X21526Y16187D01*
X21517Y16182D01*
X21509Y16176D01*
X21504Y16168D01*
X21501Y16159D01*
X21500Y16150D01*
Y16350D01*
X21501Y16341D01*
D02*
G37*
G36*
X21110Y16150D02*
X21109Y16159D01*
X21106Y16168D01*
X21101Y16176D01*
X21094Y16182D01*
X21085Y16187D01*
X21074Y16192D01*
X21061Y16195D01*
X21046Y16198D01*
X21029Y16200D01*
X21010Y16200D01*
Y16300D01*
X21029Y16300D01*
X21046Y16302D01*
X21061Y16305D01*
X21074Y16308D01*
X21085Y16313D01*
X21094Y16318D01*
X21101Y16324D01*
X21106Y16332D01*
X21109Y16341D01*
X21110Y16350D01*
Y16150D01*
D02*
G37*
G36*
X20776Y16341D02*
X20779Y16332D01*
X20784Y16324D01*
X20791Y16318D01*
X20800Y16313D01*
X20811Y16308D01*
X20824Y16305D01*
X20840Y16302D01*
X20857Y16300D01*
X20876Y16300D01*
Y16200D01*
X20857Y16200D01*
X20840Y16198D01*
X20824Y16195D01*
X20811Y16192D01*
X20800Y16187D01*
X20791Y16182D01*
X20784Y16176D01*
X20779Y16168D01*
X20776Y16159D01*
X20775Y16150D01*
Y16350D01*
X20776Y16341D01*
D02*
G37*
G36*
X19825Y16150D02*
X19824Y16159D01*
X19821Y16168D01*
X19816Y16176D01*
X19809Y16182D01*
X19800Y16187D01*
X19789Y16192D01*
X19776Y16195D01*
X19760Y16198D01*
X19743Y16200D01*
X19724Y16200D01*
Y16300D01*
X19743Y16300D01*
X19760Y16302D01*
X19776Y16305D01*
X19789Y16308D01*
X19800Y16313D01*
X19809Y16318D01*
X19816Y16324D01*
X19821Y16332D01*
X19824Y16341D01*
X19825Y16350D01*
Y16150D01*
D02*
G37*
G36*
X18254Y16149D02*
X18253Y16158D01*
X18250Y16167D01*
X18245Y16174D01*
X18238Y16181D01*
X18229Y16186D01*
X18218Y16191D01*
X18205Y16194D01*
X18190Y16197D01*
X18173Y16198D01*
X18154Y16199D01*
Y16299D01*
X18173Y16299D01*
X18190Y16301D01*
X18205Y16303D01*
X18218Y16307D01*
X18229Y16311D01*
X18238Y16317D01*
X18245Y16323D01*
X18250Y16331D01*
X18253Y16339D01*
X18254Y16349D01*
Y16149D01*
D02*
G37*
G36*
X17867Y16339D02*
X17870Y16331D01*
X17875Y16323D01*
X17882Y16317D01*
X17891Y16311D01*
X17902Y16307D01*
X17915Y16303D01*
X17930Y16301D01*
X17948Y16299D01*
X17967Y16299D01*
Y16199D01*
X17948Y16198D01*
X17930Y16197D01*
X17915Y16194D01*
X17902Y16191D01*
X17891Y16186D01*
X17882Y16181D01*
X17875Y16174D01*
X17870Y16167D01*
X17867Y16158D01*
X17866Y16149D01*
Y16349D01*
X17867Y16339D01*
D02*
G37*
G36*
X4850Y16207D02*
X4852Y16190D01*
X4854Y16174D01*
X4858Y16161D01*
X4863Y16150D01*
X4868Y16141D01*
X4875Y16134D01*
X4882Y16129D01*
X4891Y16126D01*
X4900Y16125D01*
X4700D01*
X4710Y16126D01*
X4718Y16129D01*
X4726Y16134D01*
X4732Y16141D01*
X4737Y16150D01*
X4742Y16161D01*
X4746Y16174D01*
X4748Y16190D01*
X4749Y16207D01*
X4750Y16226D01*
X4850D01*
X4850Y16207D01*
D02*
G37*
G36*
X6026Y16192D02*
X6028Y16175D01*
X6030Y16160D01*
X6034Y16146D01*
X6038Y16135D01*
X6044Y16126D01*
X6050Y16119D01*
X6058Y16114D01*
X6066Y16111D01*
X6076Y16110D01*
X5876D01*
X5885Y16111D01*
X5894Y16114D01*
X5901Y16119D01*
X5908Y16126D01*
X5913Y16135D01*
X5918Y16146D01*
X5921Y16160D01*
X5924Y16175D01*
X5925Y16192D01*
X5926Y16211D01*
X6026D01*
X6026Y16192D01*
D02*
G37*
G36*
X5476D02*
X5478Y16175D01*
X5480Y16160D01*
X5484Y16146D01*
X5488Y16135D01*
X5494Y16126D01*
X5500Y16119D01*
X5508Y16114D01*
X5516Y16111D01*
X5526Y16110D01*
X5326D01*
X5335Y16111D01*
X5344Y16114D01*
X5351Y16119D01*
X5358Y16126D01*
X5363Y16135D01*
X5368Y16146D01*
X5371Y16160D01*
X5374Y16175D01*
X5375Y16192D01*
X5376Y16211D01*
X5476D01*
X5476Y16192D01*
D02*
G37*
G36*
X22826Y16291D02*
X22829Y16282D01*
X22834Y16274D01*
X22841Y16268D01*
X22850Y16263D01*
X22861Y16258D01*
X22874Y16255D01*
X22890Y16252D01*
X22907Y16250D01*
X22926Y16250D01*
Y16150D01*
X22907Y16149D01*
X22890Y16148D01*
X22874Y16145D01*
X22861Y16142D01*
X22850Y16137D01*
X22841Y16132D01*
X22834Y16126D01*
X22829Y16118D01*
X22826Y16109D01*
X22825Y16100D01*
Y16300D01*
X22826Y16291D01*
D02*
G37*
G36*
X7032Y16082D02*
X7041Y16075D01*
X7050Y16069D01*
X7059Y16064D01*
X7067Y16060D01*
X7076Y16058D01*
X7084Y16057D01*
X7092Y16057D01*
X7100Y16058D01*
X7109Y16061D01*
X7039Y15911D01*
X7036Y15918D01*
X7032Y15925D01*
X7028Y15933D01*
X7024Y15940D01*
X7012Y15956D01*
X7006Y15964D01*
X6982Y15990D01*
X7023Y16090D01*
X7032Y16082D01*
D02*
G37*
G36*
X33875Y15850D02*
X33874Y15860D01*
X33871Y15868D01*
X33866Y15876D01*
X33859Y15882D01*
X33850Y15888D01*
X33839Y15892D01*
X33826Y15896D01*
X33810Y15898D01*
X33793Y15899D01*
X33774Y15900D01*
Y16000D01*
X33793Y16000D01*
X33810Y16002D01*
X33826Y16005D01*
X33839Y16008D01*
X33850Y16013D01*
X33859Y16018D01*
X33866Y16025D01*
X33871Y16032D01*
X33874Y16041D01*
X33875Y16050D01*
Y15850D01*
D02*
G37*
G36*
X33528Y16041D02*
X33531Y16032D01*
X33536Y16025D01*
X33543Y16018D01*
X33552Y16013D01*
X33563Y16008D01*
X33576Y16005D01*
X33591Y16002D01*
X33609Y16000D01*
X33628Y16000D01*
Y15900D01*
X33609Y15899D01*
X33591Y15898D01*
X33576Y15896D01*
X33563Y15892D01*
X33552Y15888D01*
X33543Y15882D01*
X33536Y15876D01*
X33531Y15868D01*
X33528Y15860D01*
X33527Y15850D01*
Y16050D01*
X33528Y16041D01*
D02*
G37*
G36*
X32350Y15835D02*
X32349Y15844D01*
X32346Y15853D01*
X32341Y15860D01*
X32334Y15867D01*
X32325Y15872D01*
X32314Y15877D01*
X32301Y15880D01*
X32285Y15883D01*
X32268Y15884D01*
X32249Y15885D01*
Y15985D01*
X32268Y15985D01*
X32285Y15987D01*
X32301Y15989D01*
X32314Y15993D01*
X32325Y15997D01*
X32334Y16003D01*
X32341Y16009D01*
X32346Y16017D01*
X32349Y16025D01*
X32350Y16035D01*
Y15835D01*
D02*
G37*
G36*
X32026Y16025D02*
X32029Y16017D01*
X32034Y16009D01*
X32041Y16003D01*
X32050Y15997D01*
X32061Y15993D01*
X32074Y15989D01*
X32090Y15987D01*
X32107Y15985D01*
X32126Y15985D01*
Y15885D01*
X32107Y15884D01*
X32090Y15883D01*
X32074Y15880D01*
X32061Y15877D01*
X32050Y15872D01*
X32041Y15867D01*
X32034Y15860D01*
X32029Y15853D01*
X32026Y15844D01*
X32025Y15835D01*
Y16035D01*
X32026Y16025D01*
D02*
G37*
G36*
X2797Y15905D02*
X2757Y15904D01*
X2685Y15899D01*
X2652Y15894D01*
X2622Y15887D01*
X2595Y15878D01*
X2571Y15868D01*
X2548Y15857D01*
X2529Y15843D01*
X2512Y15828D01*
X2428Y15912D01*
X2443Y15929D01*
X2457Y15948D01*
X2468Y15971D01*
X2478Y15995D01*
X2487Y16022D01*
X2494Y16052D01*
X2499Y16085D01*
X2502Y16119D01*
X2505Y16197D01*
X2797Y15905D01*
D02*
G37*
G36*
X14318Y15940D02*
X14320Y15931D01*
X14322Y15922D01*
X14325Y15913D01*
X14329Y15904D01*
X14333Y15895D01*
X14339Y15886D01*
X14345Y15877D01*
X14353Y15868D01*
X14361Y15860D01*
X14290Y15789D01*
X14282Y15797D01*
X14273Y15805D01*
X14264Y15811D01*
X14255Y15817D01*
X14246Y15821D01*
X14237Y15825D01*
X14228Y15828D01*
X14219Y15830D01*
X14210Y15832D01*
X14201Y15832D01*
X14318Y15949D01*
X14318Y15940D01*
D02*
G37*
G36*
X17367Y15882D02*
X17367Y15881D01*
X17367Y15878D01*
X17368Y15833D01*
X17368Y15782D01*
X17268D01*
X17268Y15801D01*
X17266Y15818D01*
X17264Y15833D01*
X17260Y15846D01*
X17256Y15857D01*
X17250Y15867D01*
X17244Y15874D01*
X17236Y15879D01*
X17228Y15882D01*
X17218Y15883D01*
X17367Y15882D01*
D02*
G37*
G36*
X31074Y15739D02*
X31072Y15757D01*
X31066Y15774D01*
X31056Y15789D01*
X31043Y15801D01*
X31025Y15812D01*
X31003Y15821D01*
X30978Y15827D01*
X30948Y15832D01*
X30915Y15835D01*
X30877Y15836D01*
Y16033D01*
X30915Y16034D01*
X30948Y16037D01*
X30978Y16042D01*
X31003Y16049D01*
X31025Y16057D01*
X31043Y16068D01*
X31056Y16081D01*
X31066Y16095D01*
X31072Y16112D01*
X31074Y16130D01*
Y15739D01*
D02*
G37*
G36*
X31916Y15739D02*
X31902Y15737D01*
X31888Y15734D01*
X31874Y15729D01*
X31860Y15722D01*
X31846Y15714D01*
X31832Y15705D01*
X31818Y15694D01*
X31803Y15682D01*
X31789Y15668D01*
X31648D01*
X31653Y15674D01*
X31657Y15680D01*
X31661Y15686D01*
X31665Y15692D01*
X31667Y15699D01*
X31670Y15706D01*
X31672Y15714D01*
X31673Y15722D01*
X31674Y15730D01*
X31674Y15739D01*
X31930Y15740D01*
X31916Y15739D01*
D02*
G37*
G36*
X19825Y15526D02*
X19824Y15533D01*
X19822Y15539D01*
X19817Y15544D01*
X19811Y15548D01*
X19804Y15552D01*
X19794Y15556D01*
X19783Y15558D01*
X19770Y15560D01*
X19755Y15561D01*
X19739Y15561D01*
Y15661D01*
X19755Y15662D01*
X19783Y15664D01*
X19794Y15667D01*
X19804Y15670D01*
X19811Y15674D01*
X19817Y15678D01*
X19822Y15684D01*
X19824Y15690D01*
X19825Y15696D01*
Y15526D01*
D02*
G37*
G36*
X21875Y15511D02*
X21874Y15521D01*
X21871Y15529D01*
X21866Y15537D01*
X21859Y15543D01*
X21850Y15549D01*
X21839Y15553D01*
X21826Y15557D01*
X21810Y15559D01*
X21793Y15561D01*
X21774Y15561D01*
Y15661D01*
X21793Y15661D01*
X21825Y15664D01*
X21838Y15667D01*
X21849Y15670D01*
X21858Y15674D01*
X21865Y15678D01*
X21870Y15683D01*
X21873Y15689D01*
X21874Y15696D01*
X21875Y15511D01*
D02*
G37*
G36*
X21501Y15702D02*
X21504Y15693D01*
X21509Y15686D01*
X21517Y15679D01*
X21526Y15674D01*
X21537Y15669D01*
X21550Y15666D01*
X21565Y15663D01*
X21582Y15662D01*
X21602Y15661D01*
Y15561D01*
X21582Y15561D01*
X21565Y15559D01*
X21550Y15557D01*
X21537Y15553D01*
X21526Y15549D01*
X21517Y15543D01*
X21509Y15537D01*
X21504Y15529D01*
X21501Y15521D01*
X21500Y15511D01*
Y15711D01*
X21501Y15702D01*
D02*
G37*
G36*
X21110Y15511D02*
X21109Y15521D01*
X21106Y15529D01*
X21101Y15537D01*
X21094Y15543D01*
X21085Y15549D01*
X21074Y15553D01*
X21061Y15557D01*
X21046Y15559D01*
X21029Y15561D01*
X21010Y15561D01*
Y15661D01*
X21029Y15662D01*
X21046Y15663D01*
X21061Y15666D01*
X21074Y15669D01*
X21085Y15674D01*
X21094Y15679D01*
X21101Y15686D01*
X21106Y15693D01*
X21109Y15702D01*
X21110Y15711D01*
Y15511D01*
D02*
G37*
G36*
X20776Y15702D02*
X20779Y15693D01*
X20784Y15686D01*
X20791Y15679D01*
X20800Y15674D01*
X20811Y15669D01*
X20824Y15666D01*
X20840Y15663D01*
X20857Y15662D01*
X20876Y15661D01*
Y15561D01*
X20857Y15561D01*
X20840Y15559D01*
X20824Y15557D01*
X20811Y15553D01*
X20800Y15549D01*
X20791Y15543D01*
X20784Y15537D01*
X20779Y15529D01*
X20776Y15521D01*
X20775Y15511D01*
Y15711D01*
X20776Y15702D01*
D02*
G37*
G36*
X18254Y15511D02*
X18253Y15521D01*
X18250Y15529D01*
X18245Y15537D01*
X18238Y15543D01*
X18229Y15549D01*
X18218Y15553D01*
X18205Y15557D01*
X18190Y15559D01*
X18173Y15561D01*
X18154Y15561D01*
Y15661D01*
X18173Y15662D01*
X18190Y15663D01*
X18205Y15666D01*
X18218Y15669D01*
X18229Y15674D01*
X18238Y15679D01*
X18245Y15686D01*
X18250Y15693D01*
X18253Y15702D01*
X18254Y15711D01*
Y15511D01*
D02*
G37*
G36*
X22826Y15590D02*
X22829Y15582D01*
X22834Y15575D01*
X22841Y15568D01*
X22850Y15562D01*
X22861Y15558D01*
X22874Y15554D01*
X22890Y15552D01*
X22907Y15551D01*
X22926Y15550D01*
Y15450D01*
X22907Y15450D01*
X22890Y15448D01*
X22874Y15445D01*
X22861Y15442D01*
X22850Y15438D01*
X22841Y15432D01*
X22834Y15425D01*
X22829Y15418D01*
X22826Y15409D01*
X22825Y15400D01*
Y15600D01*
X22826Y15590D01*
D02*
G37*
G36*
X4988Y15289D02*
X4985Y15281D01*
X4984Y15271D01*
X4987Y15259D01*
X4993Y15245D01*
X5001Y15231D01*
X5013Y15214D01*
X5028Y15196D01*
X5066Y15154D01*
X5011Y15068D01*
X4985Y15094D01*
X4917Y15151D01*
X4899Y15163D01*
X4882Y15172D01*
X4867Y15178D01*
X4854Y15181D01*
X4843Y15180D01*
X4835Y15175D01*
X4994Y15296D01*
X4988Y15289D01*
D02*
G37*
G36*
X6040Y15159D02*
X6032Y15156D01*
X6025Y15151D01*
X6018Y15144D01*
X6012Y15135D01*
X6008Y15124D01*
X6004Y15111D01*
X6002Y15096D01*
X6000Y15078D01*
X6000Y15069D01*
X6000Y15066D01*
X6001Y15054D01*
X6003Y15044D01*
X6005Y15033D01*
X6008Y15024D01*
X6012Y15015D01*
X6016Y15006D01*
X6021Y14998D01*
X6026Y14991D01*
X6033Y14984D01*
X5867D01*
X5874Y14991D01*
X5879Y14998D01*
X5884Y15006D01*
X5888Y15015D01*
X5892Y15024D01*
X5895Y15033D01*
X5897Y15044D01*
X5899Y15054D01*
X5900Y15066D01*
X5900Y15069D01*
X5900Y15078D01*
X5898Y15096D01*
X5896Y15111D01*
X5892Y15124D01*
X5888Y15135D01*
X5882Y15144D01*
X5875Y15151D01*
X5868Y15156D01*
X5860Y15159D01*
X5850Y15160D01*
X6050D01*
X6040Y15159D01*
D02*
G37*
G36*
X5541D02*
X5532Y15156D01*
X5525Y15151D01*
X5518Y15144D01*
X5512Y15135D01*
X5508Y15124D01*
X5505Y15111D01*
X5502Y15096D01*
X5501Y15078D01*
X5500Y15069D01*
X5500Y15066D01*
X5501Y15054D01*
X5503Y15044D01*
X5505Y15033D01*
X5508Y15024D01*
X5512Y15015D01*
X5516Y15006D01*
X5521Y14998D01*
X5526Y14991D01*
X5533Y14984D01*
X5367D01*
X5374Y14991D01*
X5379Y14998D01*
X5384Y15006D01*
X5388Y15015D01*
X5392Y15024D01*
X5395Y15033D01*
X5397Y15044D01*
X5399Y15054D01*
X5400Y15066D01*
X5400Y15069D01*
X5400Y15078D01*
X5398Y15096D01*
X5396Y15111D01*
X5392Y15124D01*
X5387Y15135D01*
X5382Y15144D01*
X5375Y15151D01*
X5368Y15156D01*
X5360Y15159D01*
X5350Y15160D01*
X5550D01*
X5541Y15159D01*
D02*
G37*
G36*
X14960Y14971D02*
X14960Y14966D01*
X14983D01*
X14978Y14961D01*
X14974Y14955D01*
X14971Y14948D01*
X14968Y14940D01*
X14965Y14932D01*
X14965Y14931D01*
X14969Y14918D01*
X14974Y14905D01*
X14980Y14894D01*
X14988Y14885D01*
X14997Y14880D01*
X15007Y14876D01*
X15018Y14875D01*
X14782D01*
X14793Y14876D01*
X14803Y14880D01*
X14812Y14885D01*
X14820Y14894D01*
X14826Y14905D01*
X14832Y14918D01*
X14835Y14931D01*
X14835Y14932D01*
X14832Y14940D01*
X14829Y14948D01*
X14826Y14955D01*
X14822Y14961D01*
X14817Y14966D01*
X14840D01*
X14840Y14971D01*
X14841Y14994D01*
X14959D01*
X14960Y14971D01*
D02*
G37*
G36*
X19826Y14946D02*
X19864Y14913D01*
X19881Y14901D01*
X19895Y14893D01*
X19909Y14887D01*
X19921Y14884D01*
X19931Y14885D01*
X19939Y14888D01*
X19946Y14894D01*
X19825Y14735D01*
X19830Y14743D01*
X19831Y14754D01*
X19828Y14767D01*
X19822Y14782D01*
X19813Y14799D01*
X19801Y14817D01*
X19785Y14838D01*
X19744Y14885D01*
X19718Y14911D01*
X19804Y14966D01*
X19826Y14946D01*
D02*
G37*
G36*
X16339Y14718D02*
X16341Y14686D01*
X16343Y14673D01*
X16346Y14662D01*
X16349Y14653D01*
X16352Y14646D01*
X16357Y14641D01*
X16362Y14638D01*
X16367Y14637D01*
X16188Y14636D01*
X16198Y14637D01*
X16206Y14640D01*
X16214Y14645D01*
X16220Y14652D01*
X16226Y14662D01*
X16230Y14673D01*
X16234Y14686D01*
X16236Y14701D01*
X16238Y14718D01*
X16238Y14737D01*
X16338D01*
X16339Y14718D01*
D02*
G37*
G36*
X21875Y14600D02*
X21874Y14610D01*
X21871Y14618D01*
X21866Y14626D01*
X21859Y14632D01*
X21850Y14638D01*
X21839Y14642D01*
X21826Y14646D01*
X21810Y14648D01*
X21793Y14649D01*
X21774Y14650D01*
Y14750D01*
X21793Y14750D01*
X21810Y14752D01*
X21826Y14755D01*
X21839Y14758D01*
X21850Y14763D01*
X21859Y14768D01*
X21866Y14775D01*
X21871Y14782D01*
X21874Y14791D01*
X21875Y14800D01*
Y14600D01*
D02*
G37*
G36*
X21495Y14791D02*
X21498Y14782D01*
X21504Y14775D01*
X21511Y14768D01*
X21520Y14763D01*
X21531Y14758D01*
X21544Y14755D01*
X21559Y14752D01*
X21576Y14750D01*
X21596Y14750D01*
Y14650D01*
X21576Y14649D01*
X21559Y14648D01*
X21544Y14646D01*
X21531Y14642D01*
X21520Y14638D01*
X21511Y14632D01*
X21504Y14626D01*
X21498Y14618D01*
X21495Y14610D01*
X21494Y14600D01*
Y14800D01*
X21495Y14791D01*
D02*
G37*
G36*
X21104Y14600D02*
X21103Y14610D01*
X21100Y14618D01*
X21095Y14626D01*
X21088Y14632D01*
X21079Y14638D01*
X21068Y14642D01*
X21055Y14646D01*
X21040Y14648D01*
X21023Y14649D01*
X21004Y14650D01*
Y14750D01*
X21023Y14750D01*
X21040Y14752D01*
X21055Y14755D01*
X21068Y14758D01*
X21079Y14763D01*
X21088Y14768D01*
X21095Y14775D01*
X21100Y14782D01*
X21103Y14791D01*
X21104Y14800D01*
Y14600D01*
D02*
G37*
G36*
X20776Y14791D02*
X20779Y14782D01*
X20784Y14775D01*
X20791Y14768D01*
X20800Y14763D01*
X20811Y14758D01*
X20824Y14755D01*
X20840Y14752D01*
X20857Y14750D01*
X20876Y14750D01*
Y14650D01*
X20857Y14649D01*
X20840Y14648D01*
X20824Y14646D01*
X20811Y14642D01*
X20800Y14638D01*
X20791Y14632D01*
X20784Y14626D01*
X20779Y14618D01*
X20776Y14610D01*
X20775Y14600D01*
Y14800D01*
X20776Y14791D01*
D02*
G37*
G36*
X23315Y14567D02*
X23308Y14573D01*
X23301Y14579D01*
X23293Y14584D01*
X23285Y14588D01*
X23276Y14592D01*
X23266Y14595D01*
X23256Y14597D01*
X23245Y14599D01*
X23234Y14600D01*
X23222Y14600D01*
X23223Y14700D01*
X23235Y14700D01*
X23246Y14701D01*
X23257Y14703D01*
X23267Y14705D01*
X23277Y14708D01*
X23286Y14712D01*
X23294Y14716D01*
X23302Y14721D01*
X23310Y14726D01*
X23316Y14732D01*
X23315Y14567D01*
D02*
G37*
G36*
X8340Y14895D02*
X8341Y14873D01*
X8343Y14862D01*
X8345Y14853D01*
X8348Y14845D01*
X8351Y14837D01*
X8354Y14830D01*
X8359Y14824D01*
X8363Y14819D01*
X8280Y14735D01*
X8363Y14651D01*
X8359Y14646D01*
X8354Y14640D01*
X8351Y14633D01*
X8348Y14625D01*
X8345Y14617D01*
X8343Y14608D01*
X8341Y14597D01*
X8340Y14575D01*
X8339Y14562D01*
X8221D01*
X8220Y14586D01*
X8219Y14597D01*
X8217Y14608D01*
X8215Y14617D01*
X8213Y14625D01*
X8210Y14633D01*
X8206Y14640D01*
X8202Y14646D01*
X8198Y14651D01*
X8280Y14735D01*
X8198Y14819D01*
X8202Y14824D01*
X8206Y14830D01*
X8210Y14837D01*
X8213Y14845D01*
X8215Y14853D01*
X8217Y14862D01*
X8219Y14873D01*
X8220Y14884D01*
X8221Y14908D01*
X8339D01*
X8340Y14895D01*
D02*
G37*
G36*
X6604Y14646D02*
X6600Y14640D01*
X6596Y14633D01*
X6593Y14625D01*
X6591Y14617D01*
X6588Y14608D01*
X6587Y14597D01*
X6586Y14586D01*
X6585Y14562D01*
X6467D01*
X6466Y14575D01*
X6464Y14597D01*
X6463Y14608D01*
X6461Y14617D01*
X6458Y14625D01*
X6455Y14633D01*
X6451Y14640D01*
X6447Y14646D01*
X6443Y14651D01*
X6608D01*
X6604Y14646D01*
D02*
G37*
G36*
X22826Y14741D02*
X22829Y14732D01*
X22834Y14725D01*
X22841Y14718D01*
X22850Y14713D01*
X22861Y14708D01*
X22874Y14705D01*
X22890Y14702D01*
X22907Y14700D01*
X22926Y14700D01*
Y14600D01*
X22907Y14599D01*
X22890Y14598D01*
X22874Y14596D01*
X22861Y14592D01*
X22850Y14588D01*
X22841Y14582D01*
X22834Y14576D01*
X22829Y14568D01*
X22826Y14560D01*
X22825Y14550D01*
Y14750D01*
X22826Y14741D01*
D02*
G37*
G36*
X36050Y15200D02*
Y14500D01*
X36000Y14450D01*
X34450D01*
X34350Y14550D01*
Y15225D01*
X34425Y15300D01*
X35950D01*
X36050Y15200D01*
D02*
G37*
G36*
X6585Y14525D02*
X6587Y14505D01*
X6590Y14487D01*
X6594Y14472D01*
X6599Y14458D01*
X6606Y14448D01*
X6614Y14439D01*
X6622Y14433D01*
X6633Y14430D01*
X6644Y14429D01*
X6408D01*
X6419Y14430D01*
X6429Y14433D01*
X6438Y14439D01*
X6445Y14448D01*
X6452Y14458D01*
X6457Y14472D01*
X6461Y14487D01*
X6464Y14505D01*
X6466Y14525D01*
X6467Y14548D01*
X6585D01*
X6585Y14525D01*
D02*
G37*
G36*
X5150Y14511D02*
X5152Y14493D01*
X5155Y14478D01*
X5158Y14465D01*
X5163Y14454D01*
X5168Y14445D01*
X5174Y14438D01*
X5182Y14433D01*
X5191Y14430D01*
X5200Y14429D01*
X5000D01*
X5009Y14430D01*
X5018Y14433D01*
X5026Y14438D01*
X5032Y14445D01*
X5038Y14454D01*
X5042Y14465D01*
X5045Y14478D01*
X5048Y14493D01*
X5049Y14511D01*
X5050Y14530D01*
X5150D01*
X5150Y14511D01*
D02*
G37*
G36*
X18336Y14529D02*
X18337Y14520D01*
X18338Y14511D01*
X18341Y14502D01*
X18344Y14493D01*
X18349Y14484D01*
X18354Y14475D01*
X18360Y14466D01*
X18368Y14458D01*
X18376Y14449D01*
X18298Y14385D01*
X18289Y14394D01*
X18272Y14408D01*
X18263Y14414D01*
X18254Y14419D01*
X18245Y14423D01*
X18237Y14426D01*
X18228Y14429D01*
X18219Y14431D01*
X18210Y14432D01*
X18337Y14538D01*
X18336Y14529D01*
D02*
G37*
G36*
X23288Y14261D02*
X23285Y14268D01*
X23281Y14275D01*
X23276Y14281D01*
X23269Y14286D01*
X23262Y14290D01*
X23254Y14294D01*
X23245Y14296D01*
X23235Y14298D01*
X23223Y14300D01*
X23211Y14300D01*
X23223Y14400D01*
X23244Y14400D01*
X23345Y14406D01*
X23352Y14407D01*
X23358Y14409D01*
X23288Y14261D01*
D02*
G37*
G36*
X18452Y14327D02*
X18453Y14310D01*
X18456Y14295D01*
X18459Y14282D01*
X18464Y14271D01*
X18469Y14262D01*
X18476Y14255D01*
X18483Y14250D01*
X18492Y14247D01*
X18501Y14246D01*
X18301D01*
X18311Y14247D01*
X18319Y14250D01*
X18327Y14255D01*
X18333Y14262D01*
X18339Y14271D01*
X18343Y14282D01*
X18347Y14295D01*
X18349Y14310D01*
X18351Y14327D01*
X18351Y14346D01*
X18451D01*
X18452Y14327D01*
D02*
G37*
G36*
X22897Y14246D02*
X22877Y14225D01*
X22846Y14188D01*
X22834Y14172D01*
X22826Y14157D01*
X22820Y14144D01*
X22817Y14132D01*
Y14121D01*
X22820Y14112D01*
X22826Y14104D01*
X22685Y14246D01*
X22692Y14240D01*
X22702Y14237D01*
X22712D01*
X22724Y14240D01*
X22738Y14246D01*
X22752Y14254D01*
X22769Y14265D01*
X22786Y14280D01*
X22826Y14316D01*
X22897Y14246D01*
D02*
G37*
G36*
X4065Y14343D02*
X4071Y14339D01*
X4078Y14336D01*
X4085Y14333D01*
X4094Y14330D01*
X4103Y14328D01*
X4113Y14326D01*
X4124Y14325D01*
X4149Y14324D01*
Y14206D01*
X4136Y14206D01*
X4113Y14204D01*
X4103Y14202D01*
X4094Y14200D01*
X4085Y14197D01*
X4078Y14194D01*
X4071Y14191D01*
X4065Y14187D01*
X4060Y14182D01*
Y14348D01*
X4065Y14343D01*
D02*
G37*
G36*
X33840Y14274D02*
X33832Y14266D01*
X33825Y14257D01*
X33818Y14247D01*
X33812Y14235D01*
X33808Y14223D01*
X33805Y14209D01*
X33802Y14194D01*
X33800Y14177D01*
X33800Y14160D01*
X33700D01*
X33700Y14177D01*
X33698Y14194D01*
X33695Y14209D01*
X33692Y14223D01*
X33688Y14235D01*
X33682Y14247D01*
X33675Y14257D01*
X33668Y14266D01*
X33660Y14274D01*
X33650Y14280D01*
X33850D01*
X33840Y14274D01*
D02*
G37*
G36*
X4325Y14147D02*
X4324Y14158D01*
X4320Y14168D01*
X4315Y14177D01*
X4306Y14185D01*
X4295Y14191D01*
X4282Y14196D01*
X4267Y14201D01*
X4249Y14204D01*
X4229Y14205D01*
X4206Y14206D01*
Y14324D01*
X4229Y14325D01*
X4249Y14326D01*
X4267Y14329D01*
X4282Y14333D01*
X4295Y14339D01*
X4306Y14345D01*
X4315Y14353D01*
X4320Y14362D01*
X4324Y14372D01*
X4325Y14383D01*
Y14147D01*
D02*
G37*
G36*
X5751Y14134D02*
X5750Y14144D01*
X5747Y14152D01*
X5742Y14160D01*
X5735Y14166D01*
X5726Y14172D01*
X5714Y14176D01*
X5701Y14180D01*
X5686Y14182D01*
X5669Y14184D01*
X5650Y14184D01*
Y14284D01*
X5669Y14285D01*
X5686Y14286D01*
X5701Y14289D01*
X5714Y14292D01*
X5726Y14297D01*
X5735Y14302D01*
X5742Y14309D01*
X5747Y14316D01*
X5750Y14325D01*
X5751Y14334D01*
Y14134D01*
D02*
G37*
G36*
X5276Y14325D02*
X5279Y14316D01*
X5284Y14309D01*
X5291Y14302D01*
X5300Y14297D01*
X5311Y14292D01*
X5324Y14289D01*
X5340Y14286D01*
X5357Y14285D01*
X5376Y14284D01*
Y14184D01*
X5357Y14184D01*
X5340Y14182D01*
X5324Y14180D01*
X5311Y14176D01*
X5300Y14172D01*
X5291Y14166D01*
X5284Y14160D01*
X5279Y14152D01*
X5276Y14144D01*
X5275Y14134D01*
Y14334D01*
X5276Y14325D01*
D02*
G37*
G36*
X18266Y14246D02*
X18267Y14097D01*
X18266Y14106D01*
X18263Y14115D01*
X18258Y14122D01*
X18251Y14129D01*
X18241Y14134D01*
X18230Y14139D01*
X18217Y14142D01*
X18202Y14145D01*
X18185Y14146D01*
X18166Y14147D01*
Y14247D01*
X18266Y14246D01*
D02*
G37*
G36*
X17867Y14287D02*
X17870Y14279D01*
X17875Y14271D01*
X17882Y14265D01*
X17891Y14259D01*
X17902Y14255D01*
X17915Y14251D01*
X17930Y14249D01*
X17948Y14247D01*
X17967Y14247D01*
Y14147D01*
X17948Y14146D01*
X17930Y14145D01*
X17915Y14142D01*
X17902Y14139D01*
X17891Y14134D01*
X17882Y14129D01*
X17875Y14122D01*
X17870Y14115D01*
X17867Y14106D01*
X17866Y14097D01*
Y14297D01*
X17867Y14287D01*
D02*
G37*
G36*
X19826Y14296D02*
X19864Y14263D01*
X19881Y14251D01*
X19895Y14243D01*
X19909Y14237D01*
X19921Y14234D01*
X19931Y14235D01*
X19939Y14238D01*
X19946Y14244D01*
X19825Y14085D01*
X19830Y14093D01*
X19831Y14104D01*
X19828Y14117D01*
X19822Y14132D01*
X19813Y14149D01*
X19801Y14167D01*
X19785Y14188D01*
X19744Y14235D01*
X19718Y14261D01*
X19804Y14316D01*
X19826Y14296D01*
D02*
G37*
G36*
X5065Y14039D02*
X5058Y14044D01*
X5048Y14047D01*
X5038D01*
X5026Y14044D01*
X5012Y14039D01*
X4998Y14030D01*
X4981Y14019D01*
X4964Y14005D01*
X4924Y13968D01*
X4853Y14039D01*
X4873Y14059D01*
X4904Y14096D01*
X4916Y14112D01*
X4924Y14127D01*
X4930Y14140D01*
X4933Y14152D01*
Y14163D01*
X4930Y14172D01*
X4924Y14180D01*
X5065Y14039D01*
D02*
G37*
G36*
X33800Y14107D02*
X33802Y14090D01*
X33805Y14074D01*
X33808Y14061D01*
X33812Y14050D01*
X33818Y14041D01*
X33825Y14034D01*
X33832Y14029D01*
X33840Y14026D01*
X33850Y14025D01*
X33650D01*
X33660Y14026D01*
X33668Y14029D01*
X33675Y14034D01*
X33682Y14041D01*
X33688Y14050D01*
X33692Y14061D01*
X33695Y14074D01*
X33698Y14090D01*
X33700Y14107D01*
X33700Y14126D01*
X33800D01*
X33800Y14107D01*
D02*
G37*
G36*
X16133Y14000D02*
X16132Y14009D01*
X16129Y14018D01*
X16124Y14025D01*
X16117Y14032D01*
X16108Y14037D01*
X16097Y14042D01*
X16084Y14045D01*
X16069Y14048D01*
X16052Y14050D01*
X16033Y14050D01*
Y14150D01*
X16052Y14151D01*
X16069Y14152D01*
X16084Y14154D01*
X16097Y14158D01*
X16108Y14162D01*
X16117Y14168D01*
X16124Y14174D01*
X16129Y14182D01*
X16132Y14190D01*
X16133Y14200D01*
Y14000D01*
D02*
G37*
G36*
X15747Y14190D02*
X15750Y14182D01*
X15755Y14174D01*
X15762Y14168D01*
X15771Y14162D01*
X15782Y14158D01*
X15795Y14154D01*
X15810Y14152D01*
X15827Y14151D01*
X15846Y14150D01*
Y14050D01*
X15827Y14050D01*
X15810Y14048D01*
X15795Y14045D01*
X15782Y14042D01*
X15771Y14037D01*
X15762Y14032D01*
X15755Y14025D01*
X15750Y14018D01*
X15747Y14009D01*
X15746Y14000D01*
Y14200D01*
X15747Y14190D01*
D02*
G37*
G36*
X15356Y14000D02*
X15355Y14009D01*
X15352Y14018D01*
X15346Y14025D01*
X15339Y14032D01*
X15330Y14037D01*
X15319Y14042D01*
X15306Y14045D01*
X15291Y14048D01*
X15274Y14050D01*
X15254Y14050D01*
Y14150D01*
X15274Y14151D01*
X15291Y14152D01*
X15306Y14154D01*
X15319Y14158D01*
X15330Y14162D01*
X15339Y14168D01*
X15346Y14174D01*
X15352Y14182D01*
X15355Y14190D01*
X15356Y14200D01*
Y14000D01*
D02*
G37*
G36*
X15097Y14190D02*
X15100Y14182D01*
X15105Y14174D01*
X15112Y14168D01*
X15121Y14162D01*
X15132Y14158D01*
X15145Y14154D01*
X15160Y14152D01*
X15177Y14151D01*
X15196Y14150D01*
Y14050D01*
X15177Y14050D01*
X15160Y14048D01*
X15145Y14045D01*
X15132Y14042D01*
X15121Y14037D01*
X15112Y14032D01*
X15105Y14025D01*
X15100Y14018D01*
X15097Y14009D01*
X15096Y14000D01*
Y14200D01*
X15097Y14190D01*
D02*
G37*
G36*
X21875Y13950D02*
X21874Y13959D01*
X21871Y13968D01*
X21866Y13975D01*
X21859Y13982D01*
X21850Y13987D01*
X21839Y13992D01*
X21826Y13995D01*
X21810Y13998D01*
X21793Y14000D01*
X21774Y14000D01*
Y14100D01*
X21793Y14101D01*
X21810Y14102D01*
X21826Y14104D01*
X21839Y14108D01*
X21850Y14112D01*
X21859Y14118D01*
X21866Y14124D01*
X21871Y14132D01*
X21874Y14140D01*
X21875Y14150D01*
Y13950D01*
D02*
G37*
G36*
X21495Y14140D02*
X21498Y14132D01*
X21504Y14124D01*
X21511Y14118D01*
X21520Y14112D01*
X21531Y14108D01*
X21544Y14104D01*
X21559Y14102D01*
X21576Y14101D01*
X21596Y14100D01*
Y14000D01*
X21576Y14000D01*
X21559Y13998D01*
X21544Y13995D01*
X21531Y13992D01*
X21520Y13987D01*
X21511Y13982D01*
X21504Y13975D01*
X21498Y13968D01*
X21495Y13959D01*
X21494Y13950D01*
Y14150D01*
X21495Y14140D01*
D02*
G37*
G36*
X21104Y13950D02*
X21103Y13959D01*
X21100Y13968D01*
X21095Y13975D01*
X21088Y13982D01*
X21079Y13987D01*
X21068Y13992D01*
X21055Y13995D01*
X21040Y13998D01*
X21023Y14000D01*
X21004Y14000D01*
Y14100D01*
X21023Y14101D01*
X21040Y14102D01*
X21055Y14104D01*
X21068Y14108D01*
X21079Y14112D01*
X21088Y14118D01*
X21095Y14124D01*
X21100Y14132D01*
X21103Y14140D01*
X21104Y14150D01*
Y13950D01*
D02*
G37*
G36*
X20776Y14140D02*
X20779Y14132D01*
X20784Y14124D01*
X20791Y14118D01*
X20800Y14112D01*
X20811Y14108D01*
X20824Y14104D01*
X20840Y14102D01*
X20857Y14101D01*
X20876Y14100D01*
Y14000D01*
X20857Y14000D01*
X20840Y13998D01*
X20824Y13995D01*
X20811Y13992D01*
X20800Y13987D01*
X20791Y13982D01*
X20784Y13975D01*
X20779Y13968D01*
X20776Y13959D01*
X20775Y13950D01*
Y14150D01*
X20776Y14140D01*
D02*
G37*
G36*
X6633Y14037D02*
X6622Y14034D01*
X6614Y14028D01*
X6606Y14020D01*
X6599Y14009D01*
X6594Y13996D01*
X6590Y13981D01*
X6587Y13963D01*
X6585Y13943D01*
X6585Y13920D01*
X6467D01*
X6466Y13943D01*
X6464Y13963D01*
X6461Y13981D01*
X6457Y13996D01*
X6452Y14009D01*
X6445Y14020D01*
X6438Y14028D01*
X6429Y14034D01*
X6419Y14037D01*
X6408Y14039D01*
X6644D01*
X6633Y14037D01*
D02*
G37*
G36*
X26590Y14021D02*
X26582Y14013D01*
X26574Y14004D01*
X26568Y13994D01*
X26562Y13982D01*
X26558Y13970D01*
X26555Y13956D01*
X26552Y13941D01*
X26551Y13924D01*
X26550Y13906D01*
X26450D01*
X26449Y13924D01*
X26448Y13941D01*
X26446Y13956D01*
X26442Y13970D01*
X26437Y13982D01*
X26432Y13994D01*
X26425Y14004D01*
X26418Y14013D01*
X26409Y14021D01*
X26400Y14027D01*
X26600D01*
X26590Y14021D01*
D02*
G37*
G36*
X33554Y13750D02*
X33553Y13759D01*
X33550Y13768D01*
X33545Y13776D01*
X33538Y13782D01*
X33529Y13787D01*
X33518Y13792D01*
X33505Y13795D01*
X33495Y13797D01*
X33494Y13797D01*
X33483Y13795D01*
X33474Y13792D01*
X33465Y13788D01*
X33456Y13784D01*
X33448Y13779D01*
X33441Y13774D01*
X33434Y13767D01*
Y13933D01*
X33441Y13926D01*
X33448Y13921D01*
X33456Y13916D01*
X33465Y13912D01*
X33474Y13908D01*
X33483Y13905D01*
X33494Y13903D01*
X33495Y13903D01*
X33505Y13905D01*
X33518Y13908D01*
X33529Y13913D01*
X33538Y13918D01*
X33545Y13924D01*
X33550Y13932D01*
X33553Y13941D01*
X33554Y13950D01*
Y13750D01*
D02*
G37*
G36*
X3099Y14187D02*
X3120Y14074D01*
X3129Y14042D01*
X3139Y14014D01*
X3149Y13989D01*
X3160Y13968D01*
X3172Y13950D01*
X3185Y13935D01*
X3123Y13855D01*
X3106Y13870D01*
X3087Y13883D01*
X3064Y13893D01*
X3040Y13901D01*
X3013Y13908D01*
X2983Y13912D01*
X2950Y13914D01*
X2915Y13914D01*
X2878Y13911D01*
X2838Y13907D01*
X3094Y14232D01*
X3099Y14187D01*
D02*
G37*
G36*
X17341Y13904D02*
X17332Y13901D01*
X17325Y13896D01*
X17318Y13888D01*
X17313Y13879D01*
X17308Y13868D01*
X17305Y13855D01*
X17302Y13840D01*
X17301Y13823D01*
X17300Y13803D01*
X17200D01*
X17200Y13823D01*
X17198Y13840D01*
X17196Y13855D01*
X17192Y13868D01*
X17188Y13879D01*
X17182Y13888D01*
X17176Y13896D01*
X17168Y13901D01*
X17160Y13904D01*
X17150Y13905D01*
X17350D01*
X17341Y13904D01*
D02*
G37*
G36*
X16841D02*
X16832Y13901D01*
X16825Y13896D01*
X16818Y13888D01*
X16813Y13879D01*
X16808Y13868D01*
X16805Y13855D01*
X16802Y13840D01*
X16801Y13823D01*
X16800Y13803D01*
X16700D01*
X16700Y13823D01*
X16698Y13840D01*
X16696Y13855D01*
X16692Y13868D01*
X16688Y13879D01*
X16682Y13888D01*
X16676Y13896D01*
X16668Y13901D01*
X16660Y13904D01*
X16650Y13905D01*
X16850D01*
X16841Y13904D01*
D02*
G37*
G36*
X26551Y13856D02*
X26552Y13838D01*
X26555Y13823D01*
X26558Y13810D01*
X26562Y13799D01*
X26568Y13790D01*
X26574Y13783D01*
X26582Y13778D01*
X26590Y13775D01*
X26600Y13774D01*
X26400D01*
X26409Y13775D01*
X26418Y13778D01*
X26425Y13783D01*
X26432Y13790D01*
X26437Y13799D01*
X26442Y13810D01*
X26446Y13823D01*
X26448Y13838D01*
X26449Y13856D01*
X26450Y13875D01*
X26550D01*
X26551Y13856D01*
D02*
G37*
G36*
X19637Y14124D02*
X19667Y14091D01*
X19673Y14083D01*
Y13703D01*
X18769D01*
Y14397D01*
X18596D01*
X18590Y14431D01*
X18546Y14497D01*
X18489Y14553D01*
X18484Y14593D01*
X18521Y14643D01*
X19119D01*
X19637Y14124D01*
D02*
G37*
G36*
X26304Y13499D02*
X26303Y13508D01*
X26300Y13517D01*
X26295Y13524D01*
X26288Y13531D01*
X26279Y13536D01*
X26268Y13541D01*
X26255Y13544D01*
X26245Y13546D01*
X26244Y13546D01*
X26233Y13544D01*
X26224Y13541D01*
X26215Y13537D01*
X26206Y13533D01*
X26198Y13528D01*
X26191Y13522D01*
X26184Y13516D01*
Y13682D01*
X26191Y13675D01*
X26198Y13670D01*
X26206Y13665D01*
X26215Y13661D01*
X26224Y13657D01*
X26233Y13654D01*
X26244Y13652D01*
X26245Y13652D01*
X26255Y13653D01*
X26268Y13657D01*
X26279Y13661D01*
X26288Y13667D01*
X26295Y13673D01*
X26300Y13681D01*
X26303Y13689D01*
X26304Y13699D01*
Y13499D01*
D02*
G37*
G36*
X27561Y13556D02*
X27560Y13565D01*
X27557Y13574D01*
X27552Y13581D01*
X27545Y13588D01*
X27536Y13593D01*
X27525Y13598D01*
X27512Y13601D01*
X27497Y13604D01*
X27480Y13605D01*
X27461Y13606D01*
Y13706D01*
X27480Y13706D01*
X27497Y13708D01*
X27512Y13710D01*
X27525Y13714D01*
X27536Y13718D01*
X27545Y13724D01*
X27552Y13730D01*
X27557Y13738D01*
X27560Y13746D01*
X27561Y13756D01*
Y13556D01*
D02*
G37*
G36*
X17301Y13627D02*
X17302Y13610D01*
X17305Y13595D01*
X17308Y13582D01*
X17313Y13571D01*
X17318Y13562D01*
X17325Y13555D01*
X17332Y13550D01*
X17341Y13547D01*
X17350Y13546D01*
X17150D01*
X17160Y13547D01*
X17168Y13550D01*
X17176Y13555D01*
X17182Y13562D01*
X17188Y13571D01*
X17192Y13582D01*
X17196Y13595D01*
X17198Y13610D01*
X17200Y13627D01*
X17200Y13646D01*
X17300D01*
X17301Y13627D01*
D02*
G37*
G36*
X16800D02*
X16804Y13582D01*
X16806Y13571D01*
X16809Y13562D01*
X16813Y13555D01*
X16817Y13550D01*
X16821Y13547D01*
X16826Y13546D01*
X16650D01*
X16660Y13547D01*
X16668Y13550D01*
X16676Y13555D01*
X16682Y13562D01*
X16688Y13571D01*
X16692Y13582D01*
X16696Y13595D01*
X16698Y13610D01*
X16700Y13627D01*
X16700Y13646D01*
X16800D01*
X16800Y13627D01*
D02*
G37*
G36*
X34878Y13506D02*
X34877Y13515D01*
X34874Y13524D01*
X34869Y13531D01*
X34862Y13538D01*
X34853Y13543D01*
X34842Y13548D01*
X34829Y13551D01*
X34814Y13554D01*
X34797Y13555D01*
X34778Y13556D01*
Y13656D01*
X34797Y13656D01*
X34814Y13658D01*
X34829Y13660D01*
X34842Y13664D01*
X34853Y13668D01*
X34862Y13674D01*
X34869Y13680D01*
X34874Y13688D01*
X34877Y13696D01*
X34878Y13706D01*
Y13506D01*
D02*
G37*
G36*
X5426Y13437D02*
X5417Y13437D01*
X5408Y13436D01*
X5399Y13435D01*
X5390Y13432D01*
X5381Y13428D01*
X5372Y13424D01*
X5363Y13418D01*
X5354Y13412D01*
X5345Y13405D01*
X5340Y13400D01*
X5327Y13386D01*
X5295Y13349D01*
X5284Y13333D01*
X5275Y13318D01*
X5270Y13304D01*
X5267Y13292D01*
X5267Y13282D01*
X5269Y13273D01*
X5275Y13265D01*
X5135Y13405D01*
X5142Y13400D01*
X5151Y13397D01*
X5162Y13397D01*
X5174Y13400D01*
X5187Y13406D01*
X5202Y13414D01*
X5218Y13426D01*
X5236Y13440D01*
X5274Y13475D01*
X5278Y13480D01*
X5286Y13489D01*
X5293Y13498D01*
X5298Y13506D01*
X5303Y13515D01*
X5307Y13524D01*
X5311Y13533D01*
X5313Y13542D01*
X5315Y13551D01*
X5316Y13560D01*
X5426Y13437D01*
D02*
G37*
G36*
X34016Y13426D02*
X33996Y13405D01*
X33965Y13368D01*
X33954Y13352D01*
X33945Y13337D01*
X33939Y13324D01*
X33936Y13312D01*
X33936Y13301D01*
X33939Y13292D01*
X33944Y13285D01*
X33804Y13425D01*
X33812Y13419D01*
X33821Y13417D01*
X33832Y13417D01*
X33844Y13420D01*
X33857Y13425D01*
X33872Y13434D01*
X33888Y13445D01*
X33906Y13460D01*
X33946Y13497D01*
X34016Y13426D01*
D02*
G37*
G36*
X6585Y13502D02*
X6587Y13482D01*
X6590Y13464D01*
X6594Y13448D01*
X6599Y13435D01*
X6606Y13424D01*
X6614Y13416D01*
X6622Y13410D01*
X6633Y13406D01*
X6644Y13405D01*
X6408D01*
X6419Y13406D01*
X6429Y13410D01*
X6438Y13416D01*
X6445Y13424D01*
X6452Y13435D01*
X6457Y13448D01*
X6461Y13464D01*
X6464Y13482D01*
X6466Y13502D01*
X6467Y13525D01*
X6585D01*
X6585Y13502D01*
D02*
G37*
G36*
X15164Y13250D02*
X15163Y13260D01*
X15160Y13268D01*
X15155Y13276D01*
X15147Y13282D01*
X15138Y13288D01*
X15127Y13292D01*
X15114Y13296D01*
X15099Y13298D01*
X15082Y13299D01*
X15062Y13300D01*
Y13400D01*
X15082Y13400D01*
X15099Y13402D01*
X15114Y13405D01*
X15127Y13408D01*
X15138Y13412D01*
X15147Y13418D01*
X15155Y13425D01*
X15160Y13432D01*
X15163Y13441D01*
X15164Y13450D01*
Y13250D01*
D02*
G37*
G36*
X14876Y13441D02*
X14879Y13432D01*
X14884Y13425D01*
X14891Y13418D01*
X14900Y13412D01*
X14911Y13408D01*
X14924Y13405D01*
X14940Y13402D01*
X14957Y13400D01*
X14976Y13400D01*
Y13300D01*
X14957Y13299D01*
X14940Y13298D01*
X14924Y13296D01*
X14911Y13292D01*
X14900Y13288D01*
X14891Y13282D01*
X14884Y13276D01*
X14879Y13268D01*
X14876Y13260D01*
X14875Y13250D01*
Y13450D01*
X14876Y13441D01*
D02*
G37*
G36*
X4099Y13348D02*
X4104Y13344D01*
X4111Y13340D01*
X4119Y13337D01*
X4127Y13335D01*
X4137Y13333D01*
X4147Y13331D01*
X4158Y13330D01*
X4182Y13329D01*
Y13211D01*
X4170Y13210D01*
X4147Y13209D01*
X4137Y13207D01*
X4127Y13205D01*
X4119Y13202D01*
X4111Y13199D01*
X4104Y13196D01*
X4099Y13191D01*
X4094Y13187D01*
Y13352D01*
X4099Y13348D01*
D02*
G37*
G36*
X17215Y13156D02*
X17208Y13161D01*
X17199Y13164D01*
X17188Y13164D01*
X17176Y13161D01*
X17163Y13155D01*
X17148Y13146D01*
X17132Y13135D01*
X17114Y13121D01*
X17074Y13084D01*
X17003Y13154D01*
X17023Y13175D01*
X17055Y13212D01*
X17066Y13228D01*
X17075Y13243D01*
X17080Y13256D01*
X17083Y13268D01*
X17083Y13279D01*
X17081Y13288D01*
X17075Y13296D01*
X17215Y13156D01*
D02*
G37*
G36*
X4325Y13152D02*
X4324Y13163D01*
X4320Y13173D01*
X4315Y13182D01*
X4306Y13189D01*
X4295Y13196D01*
X4282Y13201D01*
X4267Y13205D01*
X4249Y13208D01*
X4229Y13210D01*
X4206Y13211D01*
Y13329D01*
X4229Y13329D01*
X4249Y13331D01*
X4267Y13334D01*
X4282Y13338D01*
X4295Y13343D01*
X4306Y13350D01*
X4315Y13358D01*
X4320Y13367D01*
X4324Y13377D01*
X4325Y13388D01*
Y13152D01*
D02*
G37*
G36*
X5751Y13111D02*
X5750Y13120D01*
X5747Y13129D01*
X5742Y13136D01*
X5735Y13143D01*
X5726Y13148D01*
X5714Y13153D01*
X5701Y13156D01*
X5686Y13159D01*
X5669Y13160D01*
X5650Y13161D01*
Y13261D01*
X5669Y13261D01*
X5686Y13263D01*
X5701Y13265D01*
X5714Y13269D01*
X5726Y13273D01*
X5735Y13279D01*
X5742Y13285D01*
X5747Y13293D01*
X5750Y13301D01*
X5751Y13311D01*
Y13111D01*
D02*
G37*
G36*
X5276Y13301D02*
X5279Y13293D01*
X5284Y13285D01*
X5291Y13279D01*
X5300Y13273D01*
X5311Y13269D01*
X5324Y13265D01*
X5340Y13263D01*
X5357Y13261D01*
X5376Y13261D01*
Y13161D01*
X5357Y13160D01*
X5340Y13159D01*
X5324Y13156D01*
X5311Y13153D01*
X5300Y13148D01*
X5291Y13143D01*
X5284Y13136D01*
X5279Y13129D01*
X5276Y13120D01*
X5275Y13111D01*
Y13311D01*
X5276Y13301D01*
D02*
G37*
G36*
X16109Y13288D02*
X16106Y13279D01*
Y13268D01*
X16109Y13256D01*
X16114Y13243D01*
X16123Y13228D01*
X16134Y13212D01*
X16148Y13194D01*
X16185Y13154D01*
X16114Y13084D01*
X16094Y13103D01*
X16057Y13135D01*
X16041Y13146D01*
X16026Y13154D01*
X16013Y13160D01*
X16001Y13163D01*
X15990D01*
X15981Y13160D01*
X15973Y13154D01*
X16114Y13296D01*
X16109Y13288D01*
D02*
G37*
G36*
X26796Y13076D02*
X26776Y13076D01*
X26759Y13074D01*
X26744Y13072D01*
X26731Y13068D01*
X26720Y13064D01*
X26711Y13058D01*
X26704Y13052D01*
X26699Y13044D01*
X26696Y13036D01*
X26694Y13026D01*
X26696Y13175D01*
X26697Y13175D01*
X26700Y13175D01*
X26745Y13176D01*
X26796Y13176D01*
Y13076D01*
D02*
G37*
G36*
X5065Y13015D02*
X5058Y13021D01*
X5048Y13024D01*
X5038D01*
X5026Y13021D01*
X5012Y13015D01*
X4998Y13007D01*
X4981Y12995D01*
X4964Y12981D01*
X4924Y12944D01*
X4853Y13015D01*
X4873Y13036D01*
X4904Y13072D01*
X4916Y13089D01*
X4924Y13104D01*
X4930Y13117D01*
X4933Y13129D01*
Y13140D01*
X4930Y13149D01*
X4924Y13157D01*
X5065Y13015D01*
D02*
G37*
G36*
X3041Y13377D02*
X3099Y13327D01*
X3126Y13306D01*
X3152Y13289D01*
X3177Y13275D01*
X3201Y13264D01*
X3225Y13256D01*
X3247Y13252D01*
X3268Y13250D01*
Y13150D01*
X3247Y13148D01*
X3225Y13144D01*
X3201Y13136D01*
X3177Y13125D01*
X3152Y13111D01*
X3126Y13094D01*
X3099Y13073D01*
X3041Y13023D01*
X3011Y12993D01*
Y13407D01*
X3041Y13377D01*
D02*
G37*
G36*
X17849Y13142D02*
X17855Y13079D01*
X17861Y13054D01*
X17868Y13032D01*
X17876Y13015D01*
X17886Y13001D01*
X17898Y12991D01*
X17911Y12985D01*
X17926Y12983D01*
X17574D01*
X17589Y12985D01*
X17602Y12991D01*
X17614Y13001D01*
X17624Y13015D01*
X17632Y13032D01*
X17639Y13054D01*
X17645Y13079D01*
X17648Y13109D01*
X17651Y13142D01*
X17652Y13180D01*
X17848D01*
X17849Y13142D01*
D02*
G37*
G36*
X33840Y13074D02*
X33832Y13071D01*
X33825Y13066D01*
X33818Y13059D01*
X33812Y13050D01*
X33808Y13039D01*
X33805Y13026D01*
X33802Y13010D01*
X33800Y12993D01*
X33800Y12974D01*
X33700D01*
X33700Y12993D01*
X33698Y13010D01*
X33695Y13026D01*
X33692Y13039D01*
X33688Y13050D01*
X33682Y13059D01*
X33675Y13066D01*
X33668Y13071D01*
X33660Y13074D01*
X33650Y13075D01*
X33850D01*
X33840Y13074D01*
D02*
G37*
G36*
X6657Y13014D02*
X6647Y13010D01*
X6638Y13005D01*
X6630Y12996D01*
X6624Y12986D01*
X6618Y12973D01*
X6614Y12957D01*
X6611Y12940D01*
X6610Y12919D01*
X6609Y12897D01*
X6491D01*
X6490Y12919D01*
X6489Y12940D01*
X6486Y12957D01*
X6482Y12973D01*
X6476Y12986D01*
X6470Y12996D01*
X6462Y13005D01*
X6453Y13010D01*
X6443Y13014D01*
X6432Y13015D01*
X6668D01*
X6657Y13014D01*
D02*
G37*
G36*
X33800Y12807D02*
X33802Y12790D01*
X33805Y12774D01*
X33808Y12761D01*
X33812Y12750D01*
X33818Y12741D01*
X33825Y12734D01*
X33832Y12729D01*
X33840Y12726D01*
X33850Y12725D01*
X33650D01*
X33660Y12726D01*
X33668Y12729D01*
X33675Y12734D01*
X33682Y12741D01*
X33688Y12750D01*
X33692Y12761D01*
X33695Y12774D01*
X33698Y12790D01*
X33700Y12807D01*
X33700Y12826D01*
X33800D01*
X33800Y12807D01*
D02*
G37*
G36*
X26590Y12823D02*
X26582Y12820D01*
X26574Y12815D01*
X26568Y12808D01*
X26562Y12799D01*
X26558Y12788D01*
X26555Y12774D01*
X26552Y12759D01*
X26551Y12742D01*
X26550Y12723D01*
X26450D01*
X26449Y12742D01*
X26448Y12759D01*
X26446Y12774D01*
X26442Y12788D01*
X26437Y12799D01*
X26432Y12808D01*
X26425Y12815D01*
X26418Y12820D01*
X26409Y12823D01*
X26400Y12824D01*
X26600D01*
X26590Y12823D01*
D02*
G37*
G36*
X18795Y12690D02*
X18793Y12697D01*
X18790Y12704D01*
X18784Y12710D01*
X18776Y12715D01*
X18765Y12719D01*
X18752Y12722D01*
X18737Y12725D01*
X18719Y12727D01*
X18676Y12728D01*
Y12846D01*
X18699Y12847D01*
X18737Y12850D01*
X18752Y12853D01*
X18765Y12856D01*
X18776Y12860D01*
X18784Y12865D01*
X18790Y12871D01*
X18793Y12877D01*
X18795Y12885D01*
Y12690D01*
D02*
G37*
G36*
X18526Y12894D02*
X18530Y12884D01*
X18535Y12875D01*
X18544Y12868D01*
X18555Y12861D01*
X18568Y12856D01*
X18583Y12852D01*
X18601Y12849D01*
X18621Y12847D01*
X18644Y12846D01*
Y12728D01*
X18621Y12728D01*
X18601Y12726D01*
X18583Y12723D01*
X18568Y12719D01*
X18555Y12714D01*
X18544Y12707D01*
X18535Y12699D01*
X18530Y12691D01*
X18526Y12680D01*
X18525Y12669D01*
Y12905D01*
X18526Y12894D01*
D02*
G37*
G36*
X26551Y12557D02*
X26552Y12540D01*
X26555Y12524D01*
X26558Y12511D01*
X26562Y12500D01*
X26568Y12491D01*
X26574Y12484D01*
X26582Y12479D01*
X26590Y12476D01*
X26600Y12475D01*
X26400D01*
X26409Y12476D01*
X26418Y12479D01*
X26425Y12484D01*
X26432Y12491D01*
X26437Y12500D01*
X26442Y12511D01*
X26446Y12524D01*
X26448Y12540D01*
X26449Y12557D01*
X26450Y12576D01*
X26550D01*
X26551Y12557D01*
D02*
G37*
G36*
X6610Y12502D02*
X6611Y12482D01*
X6614Y12464D01*
X6618Y12448D01*
X6624Y12435D01*
X6630Y12424D01*
X6638Y12416D01*
X6647Y12410D01*
X6657Y12406D01*
X6668Y12405D01*
X6432D01*
X6443Y12406D01*
X6453Y12410D01*
X6462Y12416D01*
X6470Y12424D01*
X6476Y12435D01*
X6482Y12448D01*
X6486Y12464D01*
X6489Y12482D01*
X6490Y12502D01*
X6491Y12525D01*
X6609D01*
X6610Y12502D01*
D02*
G37*
G36*
X5331Y12476D02*
X5332Y12477D01*
X5347Y12459D01*
X5425Y12382D01*
X5415Y12382D01*
X5406Y12380D01*
X5397Y12378D01*
X5388Y12375D01*
X5379Y12371D01*
X5370Y12367D01*
X5362Y12361D01*
X5360Y12360D01*
X5346Y12343D01*
X5335Y12327D01*
X5326Y12312D01*
X5325Y12309D01*
X5326Y12301D01*
X5329Y12293D01*
X5334Y12285D01*
X5341Y12279D01*
X5350Y12273D01*
X5361Y12269D01*
X5374Y12265D01*
X5390Y12263D01*
X5407Y12261D01*
X5426Y12261D01*
Y12161D01*
X5407Y12160D01*
X5390Y12159D01*
X5374Y12156D01*
X5361Y12153D01*
X5350Y12148D01*
X5341Y12143D01*
X5334Y12136D01*
X5329Y12129D01*
X5326Y12120D01*
X5325Y12111D01*
Y12309D01*
X5320Y12299D01*
X5317Y12287D01*
X5317Y12276D01*
X5320Y12267D01*
X5325Y12259D01*
X5191Y12405D01*
X5198Y12399D01*
X5207Y12397D01*
X5217Y12396D01*
X5229Y12399D01*
X5243Y12405D01*
X5258Y12414D01*
X5274Y12425D01*
X5286Y12435D01*
X5287Y12436D01*
X5292Y12445D01*
X5297Y12454D01*
X5301Y12463D01*
X5304Y12472D01*
X5306Y12481D01*
X5307Y12490D01*
X5308Y12499D01*
X5331Y12476D01*
D02*
G37*
G36*
X17911Y12590D02*
X17898Y12584D01*
X17886Y12574D01*
X17876Y12560D01*
X17868Y12543D01*
X17861Y12521D01*
X17855Y12495D01*
X17852Y12466D01*
X17849Y12432D01*
X17848Y12395D01*
X17652D01*
X17651Y12432D01*
X17645Y12495D01*
X17639Y12521D01*
X17632Y12543D01*
X17624Y12560D01*
X17614Y12574D01*
X17602Y12584D01*
X17589Y12590D01*
X17574Y12592D01*
X17926D01*
X17911Y12590D01*
D02*
G37*
G36*
X20360Y12272D02*
X20361Y12252D01*
X20364Y12234D01*
X20368Y12218D01*
X20374Y12205D01*
X20380Y12194D01*
X20388Y12186D01*
X20397Y12180D01*
X20407Y12177D01*
X20418Y12175D01*
X20182D01*
X20193Y12177D01*
X20203Y12180D01*
X20212Y12186D01*
X20220Y12194D01*
X20226Y12205D01*
X20231Y12218D01*
X20236Y12234D01*
X20239Y12252D01*
X20240Y12272D01*
X20241Y12295D01*
X20359D01*
X20360Y12272D01*
D02*
G37*
G36*
X3094Y12291D02*
X3097Y12282D01*
X3102Y12275D01*
X3109Y12268D01*
X3118Y12263D01*
X3129Y12258D01*
X3142Y12255D01*
X3158Y12252D01*
X3175Y12250D01*
X3194Y12250D01*
Y12150D01*
X3175Y12149D01*
X3158Y12148D01*
X3142Y12146D01*
X3129Y12142D01*
X3118Y12138D01*
X3109Y12132D01*
X3102Y12126D01*
X3097Y12118D01*
X3094Y12110D01*
X3093Y12100D01*
Y12300D01*
X3094Y12291D01*
D02*
G37*
G36*
X4375Y12093D02*
X4374Y12104D01*
X4370Y12114D01*
X4365Y12123D01*
X4356Y12131D01*
X4345Y12137D01*
X4332Y12142D01*
X4317Y12146D01*
X4299Y12149D01*
X4279Y12151D01*
X4256Y12152D01*
Y12270D01*
X4279Y12270D01*
X4299Y12272D01*
X4317Y12275D01*
X4332Y12279D01*
X4345Y12285D01*
X4356Y12291D01*
X4365Y12299D01*
X4370Y12308D01*
X4374Y12318D01*
X4375Y12329D01*
Y12093D01*
D02*
G37*
G36*
X13925Y12050D02*
X13924Y12060D01*
X13921Y12068D01*
X13916Y12076D01*
X13909Y12082D01*
X13900Y12088D01*
X13889Y12092D01*
X13876Y12096D01*
X13860Y12098D01*
X13843Y12099D01*
X13824Y12100D01*
Y12200D01*
X13843Y12200D01*
X13860Y12202D01*
X13876Y12205D01*
X13889Y12208D01*
X13900Y12213D01*
X13909Y12218D01*
X13916Y12225D01*
X13921Y12232D01*
X13924Y12241D01*
X13925Y12250D01*
Y12050D01*
D02*
G37*
G36*
X6567Y12015D02*
X6556Y12021D01*
X6545Y12023D01*
X6531Y12022D01*
X6517Y12019D01*
X6501Y12012D01*
X6483Y12002D01*
X6465Y11989D01*
X6444Y11973D01*
X6423Y11954D01*
X6400Y11932D01*
X6291Y11990D01*
X6315Y12015D01*
X6353Y12060D01*
X6367Y12079D01*
X6377Y12097D01*
X6384Y12113D01*
X6387Y12127D01*
X6386Y12139D01*
X6382Y12149D01*
X6374Y12157D01*
X6567Y12015D01*
D02*
G37*
G36*
X5775Y12150D02*
X5921Y12015D01*
X5913Y12021D01*
X5904Y12023D01*
X5893Y12023D01*
X5881Y12020D01*
X5868Y12014D01*
X5853Y12006D01*
X5837Y11995D01*
X5819Y11981D01*
X5780Y11944D01*
X5703Y12009D01*
X5723Y12030D01*
X5755Y12067D01*
X5766Y12083D01*
X5775Y12098D01*
X5780Y12112D01*
X5783Y12124D01*
X5783Y12134D01*
X5780Y12143D01*
X5775Y12149D01*
Y12111D01*
X5774Y12120D01*
X5771Y12129D01*
X5766Y12136D01*
X5759Y12143D01*
X5750Y12148D01*
X5739Y12153D01*
X5726Y12156D01*
X5710Y12159D01*
X5693Y12160D01*
X5674Y12161D01*
Y12261D01*
X5693Y12261D01*
X5710Y12263D01*
X5726Y12265D01*
X5739Y12269D01*
X5750Y12273D01*
X5759Y12279D01*
X5766Y12285D01*
X5771Y12293D01*
X5774Y12301D01*
X5775Y12311D01*
Y12150D01*
D02*
G37*
G36*
X15608Y12160D02*
X15611Y12151D01*
X15617Y12144D01*
X15624Y12137D01*
X15633Y12131D01*
X15644Y12126D01*
X15656Y12123D01*
X15670Y12120D01*
X15686Y12119D01*
X15704Y12118D01*
X15656Y12018D01*
X15638Y12018D01*
X15605Y12015D01*
X15591Y12013D01*
X15564Y12007D01*
X15552Y12004D01*
X15541Y11999D01*
X15531Y11994D01*
X15522Y11988D01*
X15410Y12055D01*
X15606Y12170D01*
X15608Y12160D01*
D02*
G37*
G36*
X15410Y12055D02*
X15297Y11988D01*
X15288Y11994D01*
X15278Y11999D01*
X15267Y12004D01*
X15256Y12007D01*
X15229Y12013D01*
X15214Y12015D01*
X15181Y12018D01*
X15164Y12018D01*
X15116Y12118D01*
X15133Y12119D01*
X15149Y12120D01*
X15163Y12123D01*
X15176Y12126D01*
X15187Y12131D01*
X15196Y12137D01*
X15203Y12144D01*
X15208Y12151D01*
X15212Y12160D01*
X15214Y12170D01*
X15410Y12055D01*
D02*
G37*
G36*
X16774Y11968D02*
X16773Y11977D01*
X16770Y11986D01*
X16765Y11993D01*
X16758Y12000D01*
X16749Y12005D01*
X16738Y12010D01*
X16725Y12013D01*
X16710Y12016D01*
X16692Y12017D01*
X16673Y12018D01*
Y12118D01*
X16692Y12118D01*
X16710Y12120D01*
X16725Y12122D01*
X16738Y12126D01*
X16749Y12130D01*
X16758Y12136D01*
X16765Y12142D01*
X16770Y12150D01*
X16773Y12158D01*
X16774Y12168D01*
Y11968D01*
D02*
G37*
G36*
X14876Y12158D02*
X14879Y12150D01*
X14884Y12142D01*
X14891Y12136D01*
X14900Y12130D01*
X14911Y12126D01*
X14924Y12122D01*
X14940Y12120D01*
X14957Y12118D01*
X14976Y12118D01*
Y12018D01*
X14957Y12017D01*
X14940Y12016D01*
X14924Y12013D01*
X14911Y12010D01*
X14900Y12005D01*
X14891Y12000D01*
X14884Y11993D01*
X14879Y11986D01*
X14876Y11977D01*
X14875Y11968D01*
Y12168D01*
X14876Y12158D01*
D02*
G37*
G36*
X19487Y12174D02*
X19490Y12164D01*
X19496Y12155D01*
X19504Y12148D01*
X19515Y12141D01*
X19528Y12136D01*
X19543Y12132D01*
X19561Y12129D01*
X19581Y12128D01*
X19604Y12127D01*
Y12009D01*
X19581Y12008D01*
X19561Y12007D01*
X19543Y12004D01*
X19528Y12000D01*
X19515Y11994D01*
X19504Y11988D01*
X19496Y11981D01*
X19490Y11972D01*
X19487Y11962D01*
X19485Y11951D01*
Y12185D01*
X19487Y12174D01*
D02*
G37*
G36*
X20045Y11950D02*
X20044Y11961D01*
X20041Y11971D01*
X20035Y11980D01*
X20026Y11988D01*
X20016Y11994D01*
X20003Y11999D01*
X19987Y12004D01*
X19970Y12007D01*
X19950Y12008D01*
X19927Y12009D01*
Y12127D01*
X19950Y12128D01*
X19987Y12131D01*
X20003Y12135D01*
X20016Y12139D01*
X20026Y12145D01*
X20035Y12151D01*
X20041Y12159D01*
X20044Y12167D01*
X20045Y12177D01*
Y11950D01*
D02*
G37*
G36*
X16062Y11652D02*
X16071Y11645D01*
X16081Y11638D01*
X16093Y11633D01*
X16105Y11628D01*
X16119Y11625D01*
X16133Y11622D01*
X16149Y11620D01*
X16166Y11618D01*
X16183Y11618D01*
X16206Y11518D01*
X16189Y11517D01*
X16173Y11516D01*
X16158Y11513D01*
X16145Y11509D01*
X16133Y11505D01*
X16123Y11499D01*
X16114Y11492D01*
X16107Y11484D01*
X16101Y11475D01*
X16097Y11464D01*
X15910Y11575D01*
X15722Y11464D01*
X15718Y11475D01*
X15713Y11484D01*
X15705Y11492D01*
X15697Y11499D01*
X15686Y11505D01*
X15675Y11509D01*
X15662Y11513D01*
X15647Y11516D01*
X15631Y11517D01*
X15613Y11518D01*
X15636Y11618D01*
X15654Y11618D01*
X15671Y11620D01*
X15686Y11622D01*
X15701Y11625D01*
X15714Y11628D01*
X15727Y11633D01*
X15738Y11638D01*
X15748Y11645D01*
X15758Y11652D01*
X15766Y11660D01*
X15910Y11575D01*
X16053Y11660D01*
X16062Y11652D01*
D02*
G37*
G36*
X13945Y11746D02*
X13982Y11715D01*
X13998Y11704D01*
X14013Y11695D01*
X14026Y11689D01*
X14038Y11686D01*
X14049Y11686D01*
X14058Y11689D01*
X14065Y11694D01*
X13925Y11554D01*
X13931Y11562D01*
X13933Y11571D01*
X13933Y11582D01*
X13930Y11594D01*
X13925Y11607D01*
X13916Y11622D01*
X13905Y11638D01*
X13890Y11656D01*
X13853Y11696D01*
X13924Y11766D01*
X13945Y11746D01*
D02*
G37*
G36*
X19485Y11658D02*
X19488Y11650D01*
X19493Y11642D01*
X19500Y11636D01*
X19510Y11630D01*
X19521Y11626D01*
X19534Y11622D01*
X19549Y11620D01*
X19566Y11618D01*
X19585Y11618D01*
Y11518D01*
X19566Y11517D01*
X19549Y11516D01*
X19534Y11513D01*
X19521Y11510D01*
X19510Y11505D01*
X19500Y11500D01*
X19493Y11493D01*
X19488Y11486D01*
X19485Y11477D01*
X19484Y11468D01*
Y11668D01*
X19485Y11658D01*
D02*
G37*
G36*
X16774Y11468D02*
X16773Y11477D01*
X16770Y11486D01*
X16765Y11493D01*
X16758Y11500D01*
X16749Y11505D01*
X16738Y11510D01*
X16725Y11513D01*
X16710Y11516D01*
X16692Y11517D01*
X16673Y11518D01*
Y11618D01*
X16692Y11618D01*
X16710Y11620D01*
X16725Y11622D01*
X16738Y11626D01*
X16749Y11630D01*
X16758Y11636D01*
X16765Y11642D01*
X16770Y11650D01*
X16773Y11658D01*
X16774Y11668D01*
Y11468D01*
D02*
G37*
G36*
X14876Y11658D02*
X14879Y11650D01*
X14884Y11642D01*
X14891Y11636D01*
X14900Y11630D01*
X14911Y11626D01*
X14924Y11622D01*
X14940Y11620D01*
X14957Y11618D01*
X14976Y11618D01*
Y11518D01*
X14957Y11517D01*
X14940Y11516D01*
X14924Y11513D01*
X14911Y11510D01*
X14900Y11505D01*
X14891Y11500D01*
X14884Y11493D01*
X14879Y11486D01*
X14876Y11477D01*
X14875Y11468D01*
Y11668D01*
X14876Y11658D01*
D02*
G37*
G36*
X32600Y13850D02*
Y12300D01*
X32750Y12150D01*
X35718D01*
X35800Y12068D01*
Y11250D01*
X35700Y11150D01*
X29150D01*
X29000Y11300D01*
X29000Y14000D01*
X29050Y14050D01*
X32400Y14050D01*
X32600Y13850D01*
D02*
G37*
G36*
X20555Y11264D02*
X20558Y11256D01*
X20563Y11248D01*
X20570Y11242D01*
X20579Y11236D01*
X20590Y11232D01*
X20603Y11228D01*
X20618Y11226D01*
X20635Y11224D01*
X20655Y11224D01*
Y11124D01*
X20635Y11123D01*
X20618Y11122D01*
X20603Y11119D01*
X20590Y11116D01*
X20579Y11111D01*
X20570Y11106D01*
X20563Y11099D01*
X20558Y11092D01*
X20555Y11083D01*
X20554Y11074D01*
Y11274D01*
X20555Y11264D01*
D02*
G37*
G36*
X20045Y11074D02*
X20044Y11083D01*
X20041Y11092D01*
X20036Y11099D01*
X20029Y11106D01*
X20020Y11111D01*
X20009Y11116D01*
X19996Y11119D01*
X19981Y11122D01*
X19964Y11123D01*
X19945Y11124D01*
Y11224D01*
X19964Y11224D01*
X19981Y11226D01*
X19996Y11228D01*
X20009Y11232D01*
X20020Y11236D01*
X20029Y11242D01*
X20036Y11248D01*
X20041Y11256D01*
X20044Y11264D01*
X20045Y11274D01*
Y11074D01*
D02*
G37*
G36*
X19485Y11158D02*
X19488Y11150D01*
X19493Y11142D01*
X19500Y11136D01*
X19510Y11130D01*
X19521Y11126D01*
X19534Y11122D01*
X19549Y11120D01*
X19566Y11118D01*
X19585Y11118D01*
Y11018D01*
X19566Y11017D01*
X19549Y11016D01*
X19534Y11013D01*
X19521Y11010D01*
X19510Y11005D01*
X19500Y11000D01*
X19493Y10993D01*
X19488Y10986D01*
X19485Y10977D01*
X19484Y10968D01*
Y11168D01*
X19485Y11158D01*
D02*
G37*
G36*
X8340Y10991D02*
X8342Y10971D01*
X8345Y10954D01*
X8349Y10938D01*
X8354Y10925D01*
X8361Y10915D01*
X8368Y10906D01*
X8377Y10900D01*
X8387Y10897D01*
X8398Y10896D01*
X8162D01*
X8173Y10897D01*
X8183Y10900D01*
X8192Y10906D01*
X8200Y10915D01*
X8206Y10925D01*
X8212Y10938D01*
X8216Y10954D01*
X8219Y10971D01*
X8221Y10991D01*
X8221Y11014D01*
X8339D01*
X8340Y10991D01*
D02*
G37*
G36*
X7650Y10976D02*
X7652Y10959D01*
X7655Y10944D01*
X7658Y10931D01*
X7663Y10920D01*
X7668Y10911D01*
X7674Y10904D01*
X7682Y10898D01*
X7691Y10895D01*
X7700Y10894D01*
X7500D01*
X7509Y10895D01*
X7518Y10898D01*
X7526Y10904D01*
X7532Y10911D01*
X7538Y10920D01*
X7542Y10931D01*
X7545Y10944D01*
X7548Y10959D01*
X7549Y10976D01*
X7550Y10996D01*
X7650D01*
X7650Y10976D01*
D02*
G37*
G36*
X46600Y20200D02*
Y11100D01*
X46200Y10700D01*
X43500D01*
X43250Y10950D01*
Y11872D01*
X43254D01*
X43470Y12088D01*
X44725D01*
X44988Y12350D01*
Y18312D01*
X44700Y18600D01*
X37965D01*
X37800Y18765D01*
Y20675D01*
X37950Y20800D01*
X37950Y20800D01*
X46000D01*
X46600Y20200D01*
D02*
G37*
G36*
X33406Y10695D02*
X33405Y10693D01*
X33404Y10689D01*
X33403Y10685D01*
X33402Y10679D01*
X33401Y10664D01*
X33400Y10633D01*
X33300D01*
X33300Y10644D01*
X33297Y10685D01*
X33296Y10689D01*
X33295Y10693D01*
X33294Y10695D01*
X33293Y10697D01*
X33407D01*
X33406Y10695D01*
D02*
G37*
G36*
X25750Y12600D02*
Y11950D01*
X25856Y11844D01*
X27344D01*
X27400Y11900D01*
Y12150D01*
X27407D01*
X27482Y12225D01*
X28275D01*
X28350Y12150D01*
Y10900D01*
X28150Y10700D01*
X25059D01*
X25058Y10698D01*
X25060Y10690D01*
X25062Y10680D01*
X25065Y10670D01*
X25069Y10661D01*
X25073Y10653D01*
X25078Y10645D01*
X25083Y10637D01*
X25089Y10631D01*
X24924D01*
X24930Y10637D01*
X24936Y10645D01*
X24941Y10653D01*
X24945Y10661D01*
X24949Y10670D01*
X24952Y10680D01*
X24954Y10690D01*
X24955Y10698D01*
X24955Y10700D01*
X24500D01*
Y12750D01*
X25600D01*
X25750Y12600D01*
D02*
G37*
G36*
X23400Y12595D02*
Y10600D01*
X23300Y10500D01*
X21938D01*
X21650Y10788D01*
Y12550D01*
X21850Y12750D01*
X23245D01*
X23400Y12595D01*
D02*
G37*
G36*
X19485Y10658D02*
X19488Y10650D01*
X19493Y10642D01*
X19500Y10636D01*
X19510Y10630D01*
X19521Y10626D01*
X19534Y10622D01*
X19549Y10620D01*
X19566Y10618D01*
X19585Y10618D01*
Y10518D01*
X19566Y10517D01*
X19549Y10516D01*
X19534Y10513D01*
X19521Y10510D01*
X19510Y10505D01*
X19500Y10500D01*
X19493Y10493D01*
X19488Y10486D01*
X19485Y10477D01*
X19484Y10468D01*
Y10668D01*
X19485Y10658D01*
D02*
G37*
G36*
X7090Y10503D02*
X7082Y10500D01*
X7074Y10495D01*
X7068Y10488D01*
X7063Y10479D01*
X7058Y10468D01*
X7054Y10455D01*
X7052Y10440D01*
X7050Y10423D01*
X7050Y10404D01*
X6950D01*
X6949Y10423D01*
X6948Y10440D01*
X6945Y10455D01*
X6942Y10468D01*
X6938Y10479D01*
X6932Y10488D01*
X6926Y10495D01*
X6918Y10500D01*
X6909Y10503D01*
X6900Y10504D01*
X7100D01*
X7090Y10503D01*
D02*
G37*
G36*
X8387Y10504D02*
X8377Y10501D01*
X8368Y10495D01*
X8361Y10486D01*
X8354Y10476D01*
X8349Y10463D01*
X8345Y10447D01*
X8342Y10429D01*
X8340Y10409D01*
X8339Y10386D01*
X8221D01*
X8221Y10409D01*
X8219Y10429D01*
X8216Y10447D01*
X8212Y10463D01*
X8206Y10476D01*
X8200Y10486D01*
X8192Y10495D01*
X8183Y10501D01*
X8173Y10504D01*
X8162Y10506D01*
X8398D01*
X8387Y10504D01*
D02*
G37*
G36*
X10135Y10865D02*
Y10397D01*
X9523D01*
Y10254D01*
X9210D01*
Y10306D01*
X8615D01*
X8607Y10353D01*
X8607D01*
Y11047D01*
X8649Y11068D01*
X9932D01*
X10135Y10865D01*
D02*
G37*
G36*
X7050Y10231D02*
X7052Y10214D01*
X7054Y10198D01*
X7058Y10185D01*
X7063Y10174D01*
X7068Y10165D01*
X7074Y10158D01*
X7082Y10153D01*
X7090Y10150D01*
X7100Y10149D01*
X6900D01*
X6909Y10150D01*
X6918Y10153D01*
X6926Y10158D01*
X6932Y10165D01*
X6938Y10174D01*
X6942Y10185D01*
X6945Y10198D01*
X6948Y10214D01*
X6949Y10231D01*
X6950Y10250D01*
X7050D01*
X7050Y10231D01*
D02*
G37*
G36*
X17926Y10297D02*
X17932Y10234D01*
X17937Y10214D01*
X17941Y10218D01*
X18003Y10277D01*
X18142Y10138D01*
X18110Y10106D01*
X18023Y10006D01*
X18011Y9988D01*
X18003Y9972D01*
X17998Y9960D01*
X17998Y9950D01*
X18002Y9943D01*
X17808Y10137D01*
X17815Y10133D01*
X17825Y10134D01*
X17837Y10138D01*
X17651D01*
X17666Y10140D01*
X17679Y10146D01*
X17690Y10156D01*
X17700Y10169D01*
X17709Y10187D01*
X17716Y10209D01*
X17721Y10234D01*
X17725Y10264D01*
X17728Y10297D01*
X17728Y10335D01*
X17925D01*
X17926Y10297D01*
D02*
G37*
G36*
X9675Y9950D02*
X9674Y9959D01*
X9671Y9968D01*
X9666Y9976D01*
X9659Y9982D01*
X9650Y9987D01*
X9639Y9992D01*
X9626Y9995D01*
X9610Y9998D01*
X9593Y9999D01*
X9574Y10000D01*
Y10100D01*
X9593Y10101D01*
X9610Y10102D01*
X9626Y10105D01*
X9639Y10108D01*
X9650Y10113D01*
X9659Y10118D01*
X9666Y10124D01*
X9671Y10132D01*
X9674Y10141D01*
X9675Y10150D01*
Y9950D01*
D02*
G37*
G36*
X9060Y10141D02*
X9063Y10132D01*
X9068Y10124D01*
X9075Y10118D01*
X9084Y10113D01*
X9095Y10108D01*
X9108Y10105D01*
X9123Y10102D01*
X9140Y10101D01*
X9159Y10100D01*
Y10000D01*
X9140Y9999D01*
X9123Y9998D01*
X9108Y9995D01*
X9095Y9992D01*
X9084Y9987D01*
X9075Y9982D01*
X9068Y9976D01*
X9063Y9968D01*
X9060Y9959D01*
X9059Y9950D01*
Y10150D01*
X9060Y10141D01*
D02*
G37*
G36*
X7606Y9948D02*
X7605Y9958D01*
X7602Y9966D01*
X7596Y9974D01*
X7589Y9980D01*
X7580Y9986D01*
X7569Y9990D01*
X7556Y9994D01*
X7541Y9996D01*
X7524Y9998D01*
X7504Y9998D01*
Y10098D01*
X7524Y10099D01*
X7541Y10100D01*
X7556Y10103D01*
X7569Y10106D01*
X7580Y10111D01*
X7589Y10116D01*
X7596Y10123D01*
X7602Y10130D01*
X7605Y10139D01*
X7606Y10148D01*
Y9948D01*
D02*
G37*
G36*
X7195Y10139D02*
X7199Y10130D01*
X7204Y10123D01*
X7211Y10116D01*
X7220Y10111D01*
X7231Y10106D01*
X7244Y10103D01*
X7259Y10100D01*
X7276Y10099D01*
X7296Y10098D01*
Y9998D01*
X7276Y9998D01*
X7259Y9996D01*
X7244Y9994D01*
X7231Y9990D01*
X7220Y9986D01*
X7211Y9980D01*
X7204Y9974D01*
X7199Y9966D01*
X7195Y9958D01*
X7194Y9948D01*
Y10148D01*
X7195Y10139D01*
D02*
G37*
G36*
X10540Y9855D02*
X10532Y9851D01*
X10524Y9846D01*
X10518Y9839D01*
X10512Y9830D01*
X10508Y9819D01*
X10504Y9806D01*
X10502Y9791D01*
X10501Y9774D01*
X10500Y9754D01*
X10400D01*
X10400Y9774D01*
X10398Y9791D01*
X10395Y9806D01*
X10392Y9819D01*
X10388Y9830D01*
X10382Y9839D01*
X10375Y9846D01*
X10368Y9851D01*
X10359Y9855D01*
X10350Y9856D01*
X10550D01*
X10540Y9855D01*
D02*
G37*
G36*
X26016Y9617D02*
X26009Y9624D01*
X26002Y9629D01*
X25994Y9634D01*
X25985Y9638D01*
X25976Y9642D01*
X25967Y9645D01*
X25956Y9647D01*
X25946Y9649D01*
X25934Y9650D01*
X25922Y9650D01*
Y9750D01*
X25934Y9750D01*
X25946Y9751D01*
X25956Y9753D01*
X25967Y9755D01*
X25976Y9758D01*
X25985Y9762D01*
X25994Y9766D01*
X26002Y9771D01*
X26009Y9776D01*
X26016Y9783D01*
Y9617D01*
D02*
G37*
G36*
X10501Y9626D02*
X10502Y9609D01*
X10504Y9594D01*
X10508Y9581D01*
X10512Y9570D01*
X10518Y9561D01*
X10524Y9554D01*
X10532Y9549D01*
X10540Y9545D01*
X10550Y9544D01*
X10350D01*
X10359Y9545D01*
X10368Y9549D01*
X10375Y9554D01*
X10382Y9561D01*
X10388Y9570D01*
X10392Y9581D01*
X10395Y9594D01*
X10398Y9609D01*
X10400Y9626D01*
X10400Y9646D01*
X10500D01*
X10501Y9626D01*
D02*
G37*
G36*
X8079Y9407D02*
X8056Y9383D01*
X8019Y9339D01*
X8006Y9320D01*
X7996Y9303D01*
X7989Y9287D01*
X7986Y9273D01*
Y9260D01*
X7989Y9249D01*
X7996Y9240D01*
X7829Y9407D01*
X7838Y9400D01*
X7849Y9397D01*
X7861D01*
X7875Y9400D01*
X7891Y9407D01*
X7909Y9417D01*
X7928Y9430D01*
X7949Y9447D01*
X7996Y9491D01*
X8079Y9407D01*
D02*
G37*
G36*
X17990Y9627D02*
X17979Y9621D01*
X17969Y9611D01*
X17961Y9597D01*
X17953Y9579D01*
X17947Y9558D01*
X17943Y9532D01*
X17939Y9503D01*
X17937Y9432D01*
X17928D01*
X17926Y9396D01*
X17642Y9394D01*
X17660Y9396D01*
X17677Y9402D01*
X17692Y9412D01*
X17705Y9426D01*
X17715Y9444D01*
X17724Y9466D01*
X17731Y9492D01*
X17735Y9514D01*
X17732Y9532D01*
X17726Y9558D01*
X17718Y9579D01*
X17708Y9597D01*
X17696Y9611D01*
X17683Y9621D01*
X17668Y9627D01*
X17651Y9629D01*
X18003D01*
X17990Y9627D01*
D02*
G37*
G36*
X33840Y9424D02*
X33832Y9416D01*
X33825Y9407D01*
X33818Y9397D01*
X33812Y9385D01*
X33808Y9373D01*
X33805Y9359D01*
X33802Y9344D01*
X33800Y9327D01*
X33800Y9310D01*
X33700D01*
X33700Y9327D01*
X33698Y9344D01*
X33695Y9359D01*
X33692Y9373D01*
X33688Y9385D01*
X33682Y9397D01*
X33675Y9407D01*
X33668Y9416D01*
X33660Y9424D01*
X33650Y9430D01*
X33850D01*
X33840Y9424D01*
D02*
G37*
G36*
X17552Y10641D02*
Y10452D01*
X17190Y10090D01*
Y9350D01*
X17140Y9300D01*
X16550D01*
X16450Y9400D01*
Y10600D01*
X16550Y10700D01*
X17493D01*
X17552Y10641D01*
D02*
G37*
G36*
X7606Y9200D02*
X7605Y9209D01*
X7602Y9218D01*
X7596Y9226D01*
X7589Y9232D01*
X7580Y9237D01*
X7569Y9242D01*
X7556Y9245D01*
X7541Y9248D01*
X7524Y9250D01*
X7504Y9250D01*
Y9350D01*
X7524Y9351D01*
X7541Y9352D01*
X7556Y9355D01*
X7569Y9358D01*
X7580Y9362D01*
X7589Y9368D01*
X7596Y9374D01*
X7602Y9382D01*
X7605Y9391D01*
X7606Y9400D01*
Y9200D01*
D02*
G37*
G36*
X7195Y9391D02*
X7199Y9382D01*
X7204Y9374D01*
X7211Y9368D01*
X7220Y9362D01*
X7231Y9358D01*
X7244Y9355D01*
X7259Y9352D01*
X7276Y9351D01*
X7296Y9350D01*
Y9250D01*
X7276Y9250D01*
X7259Y9248D01*
X7244Y9245D01*
X7231Y9242D01*
X7220Y9237D01*
X7211Y9232D01*
X7204Y9226D01*
X7199Y9218D01*
X7195Y9209D01*
X7194Y9200D01*
Y9400D01*
X7195Y9391D01*
D02*
G37*
G36*
X10846Y9187D02*
X10839Y9194D01*
X10832Y9199D01*
X10824Y9204D01*
X10815Y9208D01*
X10806Y9212D01*
X10796Y9215D01*
X10786Y9217D01*
X10775Y9219D01*
X10764Y9220D01*
X10752Y9220D01*
Y9320D01*
X10764Y9320D01*
X10775Y9321D01*
X10786Y9323D01*
X10796Y9325D01*
X10806Y9328D01*
X10815Y9332D01*
X10824Y9336D01*
X10832Y9341D01*
X10839Y9347D01*
X10846Y9353D01*
Y9187D01*
D02*
G37*
G36*
X12649Y9337D02*
X12655Y9331D01*
X12663Y9325D01*
X12671Y9321D01*
X12679Y9317D01*
X12689Y9313D01*
X12699Y9311D01*
X12709Y9309D01*
X12721Y9308D01*
X12733Y9308D01*
X12721Y9208D01*
X12709Y9207D01*
X12687Y9205D01*
X12676Y9203D01*
X12666Y9200D01*
X12657Y9197D01*
X12648Y9194D01*
X12640Y9189D01*
X12632Y9184D01*
X12625Y9179D01*
X12643Y9343D01*
X12649Y9337D01*
D02*
G37*
G36*
X24953Y9175D02*
X24951Y9175D01*
X24842Y9175D01*
X24816Y9175D01*
X24799Y9275D01*
X24812Y9275D01*
X24823Y9277D01*
X24833Y9278D01*
X24842Y9281D01*
X24850Y9285D01*
X24856Y9289D01*
X24862Y9294D01*
X24867Y9299D01*
X24870Y9306D01*
X24872Y9313D01*
X24953Y9175D01*
D02*
G37*
G36*
X33800Y9256D02*
X33802Y9238D01*
X33805Y9223D01*
X33808Y9210D01*
X33812Y9199D01*
X33818Y9190D01*
X33825Y9183D01*
X33832Y9178D01*
X33840Y9175D01*
X33850Y9174D01*
X33650D01*
X33660Y9175D01*
X33668Y9178D01*
X33675Y9183D01*
X33682Y9190D01*
X33688Y9199D01*
X33692Y9210D01*
X33695Y9223D01*
X33698Y9238D01*
X33700Y9256D01*
X33700Y9275D01*
X33800D01*
X33800Y9256D01*
D02*
G37*
G36*
X15657Y9172D02*
X15651Y9179D01*
X15645Y9185D01*
X15637Y9190D01*
X15629Y9195D01*
X15621Y9199D01*
X15611Y9202D01*
X15601Y9204D01*
X15591Y9206D01*
X15579Y9207D01*
X15567Y9208D01*
X15579Y9308D01*
X15591Y9308D01*
X15613Y9310D01*
X15624Y9312D01*
X15634Y9315D01*
X15643Y9318D01*
X15652Y9322D01*
X15660Y9326D01*
X15668Y9331D01*
X15675Y9336D01*
X15657Y9172D01*
D02*
G37*
G36*
X10626Y9361D02*
X10629Y9352D01*
X10634Y9345D01*
X10641Y9338D01*
X10650Y9333D01*
X10661Y9328D01*
X10674Y9325D01*
X10690Y9322D01*
X10707Y9321D01*
X10726Y9320D01*
Y9220D01*
X10707Y9220D01*
X10690Y9218D01*
X10674Y9216D01*
X10661Y9212D01*
X10650Y9208D01*
X10641Y9202D01*
X10634Y9196D01*
X10629Y9188D01*
X10626Y9180D01*
X10625Y9170D01*
Y9370D01*
X10626Y9361D01*
D02*
G37*
G36*
X20958Y9305D02*
X20964Y9299D01*
X20971Y9293D01*
X20978Y9288D01*
X20987Y9284D01*
X20996Y9281D01*
X21006Y9278D01*
X21017Y9276D01*
X21028Y9275D01*
X21040Y9275D01*
X21021Y9175D01*
X21009Y9175D01*
X20986Y9173D01*
X20976Y9171D01*
X20966Y9169D01*
X20957Y9166D01*
X20948Y9162D01*
X20939Y9159D01*
X20931Y9154D01*
X20924Y9149D01*
X20855Y9217D01*
X20952Y9312D01*
X20958Y9305D01*
D02*
G37*
G36*
X20855Y9217D02*
X20786Y9149D01*
X20778Y9154D01*
X20771Y9159D01*
X20762Y9162D01*
X20753Y9166D01*
X20744Y9169D01*
X20734Y9171D01*
X20723Y9173D01*
X20701Y9175D01*
X20689Y9175D01*
X20670Y9275D01*
X20682Y9275D01*
X20693Y9276D01*
X20704Y9278D01*
X20714Y9281D01*
X20723Y9284D01*
X20731Y9288D01*
X20739Y9293D01*
X20746Y9299D01*
X20752Y9305D01*
X20758Y9312D01*
X20855Y9217D01*
D02*
G37*
G36*
X18600Y9304D02*
X18607Y9298D01*
X18614Y9293D01*
X18622Y9288D01*
X18630Y9284D01*
X18640Y9281D01*
X18650Y9278D01*
X18660Y9276D01*
X18672Y9275D01*
X18684Y9275D01*
X18669Y9175D01*
X18657Y9175D01*
X18635Y9173D01*
X18625Y9171D01*
X18615Y9168D01*
X18605Y9165D01*
X18596Y9161D01*
X18588Y9157D01*
X18580Y9153D01*
X18573Y9147D01*
X18594Y9311D01*
X18600Y9304D01*
D02*
G37*
G36*
X22836Y9316D02*
X22839Y9307D01*
X22845Y9299D01*
X22852Y9293D01*
X22861Y9287D01*
X22872Y9283D01*
X22885Y9280D01*
X22900Y9277D01*
X22917Y9276D01*
X22937Y9275D01*
Y9175D01*
X22917Y9175D01*
X22900Y9173D01*
X22885Y9171D01*
X22872Y9167D01*
X22861Y9162D01*
X22852Y9157D01*
X22845Y9151D01*
X22839Y9143D01*
X22836Y9135D01*
X22835Y9125D01*
Y9325D01*
X22836Y9316D01*
D02*
G37*
G36*
X21886Y9125D02*
X21885Y9135D01*
X21882Y9143D01*
X21877Y9151D01*
X21870Y9157D01*
X21861Y9162D01*
X21849Y9167D01*
X21836Y9171D01*
X21821Y9173D01*
X21804Y9175D01*
X21785Y9175D01*
Y9275D01*
X21804Y9276D01*
X21821Y9277D01*
X21836Y9280D01*
X21849Y9283D01*
X21861Y9287D01*
X21870Y9293D01*
X21877Y9299D01*
X21882Y9307D01*
X21885Y9316D01*
X21886Y9325D01*
Y9125D01*
D02*
G37*
G36*
X33554Y8950D02*
X33553Y8960D01*
X33550Y8968D01*
X33545Y8975D01*
X33538Y8982D01*
X33529Y8988D01*
X33518Y8992D01*
X33505Y8996D01*
X33495Y8997D01*
X33494Y8997D01*
X33483Y8995D01*
X33474Y8992D01*
X33465Y8988D01*
X33456Y8984D01*
X33448Y8979D01*
X33441Y8974D01*
X33434Y8967D01*
Y9133D01*
X33441Y9126D01*
X33448Y9121D01*
X33456Y9116D01*
X33465Y9112D01*
X33474Y9108D01*
X33483Y9105D01*
X33494Y9103D01*
X33495Y9103D01*
X33505Y9104D01*
X33518Y9108D01*
X33529Y9112D01*
X33538Y9118D01*
X33545Y9125D01*
X33550Y9132D01*
X33553Y9140D01*
X33554Y9150D01*
Y8950D01*
D02*
G37*
G36*
X8953Y9193D02*
X8945Y9190D01*
X8937Y9185D01*
X8931Y9178D01*
X8925Y9169D01*
X8921Y9158D01*
X8917Y9145D01*
X8915Y9129D01*
X8913Y9112D01*
X8913Y9093D01*
X8813D01*
X8812Y9112D01*
X8811Y9129D01*
X8808Y9145D01*
X8805Y9158D01*
X8800Y9169D01*
X8795Y9178D01*
X8788Y9185D01*
X8781Y9190D01*
X8772Y9193D01*
X8763Y9194D01*
X8963D01*
X8953Y9193D01*
D02*
G37*
G36*
X7940D02*
X7932Y9190D01*
X7925Y9185D01*
X7918Y9178D01*
X7912Y9169D01*
X7908Y9158D01*
X7904Y9145D01*
X7902Y9129D01*
X7901Y9112D01*
X7900Y9093D01*
X7800D01*
X7800Y9112D01*
X7798Y9129D01*
X7796Y9145D01*
X7792Y9158D01*
X7788Y9169D01*
X7782Y9178D01*
X7775Y9185D01*
X7768Y9190D01*
X7760Y9193D01*
X7750Y9194D01*
X7950D01*
X7940Y9193D01*
D02*
G37*
G36*
X26641Y9174D02*
X26632Y9166D01*
X26625Y9157D01*
X26618Y9147D01*
X26613Y9135D01*
X26608Y9123D01*
X26604Y9109D01*
X26602Y9094D01*
X26600Y9077D01*
X26600Y9060D01*
X26500D01*
X26500Y9077D01*
X26498Y9094D01*
X26495Y9109D01*
X26492Y9123D01*
X26488Y9135D01*
X26482Y9147D01*
X26476Y9157D01*
X26468Y9166D01*
X26460Y9174D01*
X26450Y9180D01*
X26650D01*
X26641Y9174D01*
D02*
G37*
G36*
X22151Y9028D02*
X22143Y9025D01*
X22135Y9020D01*
X22129Y9013D01*
X22123Y9004D01*
X22119Y8993D01*
X22115Y8980D01*
X22113Y8965D01*
X22111Y8948D01*
X22111Y8929D01*
X22011D01*
X22010Y8948D01*
X22009Y8965D01*
X22006Y8980D01*
X22003Y8993D01*
X21998Y9004D01*
X21993Y9013D01*
X21986Y9020D01*
X21979Y9025D01*
X21970Y9028D01*
X21961Y9029D01*
X22161D01*
X22151Y9028D01*
D02*
G37*
G36*
X26600Y9007D02*
X26602Y8990D01*
X26604Y8974D01*
X26608Y8961D01*
X26613Y8950D01*
X26618Y8941D01*
X26625Y8934D01*
X26632Y8929D01*
X26641Y8926D01*
X26650Y8925D01*
X26450D01*
X26460Y8926D01*
X26468Y8929D01*
X26476Y8934D01*
X26482Y8941D01*
X26488Y8950D01*
X26492Y8961D01*
X26495Y8974D01*
X26498Y8990D01*
X26500Y9007D01*
X26500Y9026D01*
X26600D01*
X26600Y9007D01*
D02*
G37*
G36*
X34878Y8906D02*
X34877Y8915D01*
X34874Y8924D01*
X34869Y8931D01*
X34862Y8938D01*
X34853Y8943D01*
X34842Y8948D01*
X34829Y8951D01*
X34814Y8954D01*
X34797Y8955D01*
X34778Y8956D01*
Y9056D01*
X34797Y9056D01*
X34814Y9058D01*
X34829Y9060D01*
X34842Y9064D01*
X34853Y9068D01*
X34862Y9074D01*
X34869Y9080D01*
X34874Y9088D01*
X34877Y9096D01*
X34878Y9106D01*
Y8906D01*
D02*
G37*
G36*
X17928Y9002D02*
X17930Y8996D01*
X17931Y8987D01*
X17933Y8973D01*
X17936Y8908D01*
X17937Y8808D01*
X17740D01*
X17739Y8845D01*
X17736Y8878D01*
X17731Y8908D01*
X17724Y8933D01*
X17715Y8955D01*
X17705Y8973D01*
X17692Y8987D01*
X17677Y8996D01*
X17660Y9002D01*
X17642Y9004D01*
X17926D01*
X17928Y9002D01*
D02*
G37*
G36*
X26354Y8650D02*
X26353Y8659D01*
X26350Y8668D01*
X26345Y8676D01*
X26338Y8682D01*
X26329Y8687D01*
X26318Y8692D01*
X26305Y8695D01*
X26290Y8698D01*
X26273Y8699D01*
X26266Y8700D01*
X26266Y8700D01*
X26254Y8699D01*
X26244Y8697D01*
X26233Y8695D01*
X26224Y8692D01*
X26215Y8688D01*
X26206Y8684D01*
X26198Y8679D01*
X26191Y8674D01*
X26184Y8667D01*
Y8833D01*
X26191Y8826D01*
X26198Y8821D01*
X26206Y8816D01*
X26215Y8812D01*
X26224Y8808D01*
X26233Y8805D01*
X26244Y8803D01*
X26254Y8801D01*
X26266Y8800D01*
X26266Y8800D01*
X26273Y8801D01*
X26290Y8802D01*
X26305Y8805D01*
X26318Y8808D01*
X26329Y8813D01*
X26338Y8818D01*
X26345Y8824D01*
X26350Y8832D01*
X26353Y8841D01*
X26354Y8850D01*
Y8650D01*
D02*
G37*
G36*
X22111Y8826D02*
X22113Y8809D01*
X22115Y8794D01*
X22119Y8781D01*
X22123Y8770D01*
X22129Y8761D01*
X22135Y8754D01*
X22143Y8748D01*
X22151Y8745D01*
X22161Y8744D01*
X21961D01*
X21970Y8745D01*
X21979Y8748D01*
X21986Y8754D01*
X21993Y8761D01*
X21998Y8770D01*
X22003Y8781D01*
X22006Y8794D01*
X22009Y8809D01*
X22010Y8826D01*
X22011Y8846D01*
X22111D01*
X22111Y8826D01*
D02*
G37*
G36*
X7901Y8718D02*
X7902Y8701D01*
X7904Y8686D01*
X7908Y8673D01*
X7912Y8662D01*
X7918Y8653D01*
X7925Y8645D01*
X7932Y8640D01*
X7940Y8637D01*
X7950Y8636D01*
X7750D01*
X7760Y8637D01*
X7768Y8640D01*
X7775Y8645D01*
X7782Y8653D01*
X7788Y8662D01*
X7792Y8673D01*
X7796Y8686D01*
X7798Y8701D01*
X7800Y8718D01*
X7800Y8738D01*
X7900D01*
X7901Y8718D01*
D02*
G37*
G36*
X27400Y8607D02*
X27399Y8620D01*
X27397Y8630D01*
X27394Y8637D01*
X27389Y8641D01*
X27382Y8643D01*
X27375Y8641D01*
X27365Y8637D01*
X27355Y8630D01*
X27343Y8620D01*
X27329Y8607D01*
Y8749D01*
X27343Y8763D01*
X27355Y8777D01*
X27365Y8791D01*
X27375Y8805D01*
X27382Y8820D01*
X27389Y8834D01*
X27394Y8848D01*
X27397Y8862D01*
X27399Y8876D01*
X27400Y8890D01*
Y8607D01*
D02*
G37*
G36*
X34046Y8476D02*
X34026Y8476D01*
X34009Y8474D01*
X33994Y8472D01*
X33981Y8468D01*
X33970Y8464D01*
X33961Y8458D01*
X33954Y8452D01*
X33949Y8444D01*
X33946Y8436D01*
X33944Y8426D01*
X33946Y8575D01*
X33947Y8575D01*
X33950Y8575D01*
X33995Y8576D01*
X34046Y8576D01*
Y8476D01*
D02*
G37*
G36*
X8956Y8400D02*
X8955Y8410D01*
X8952Y8418D01*
X8946Y8425D01*
X8939Y8432D01*
X8930Y8438D01*
X8919Y8442D01*
X8906Y8446D01*
X8891Y8448D01*
X8874Y8450D01*
X8854Y8450D01*
Y8550D01*
X8874Y8551D01*
X8891Y8552D01*
X8906Y8554D01*
X8919Y8558D01*
X8930Y8562D01*
X8939Y8568D01*
X8946Y8575D01*
X8952Y8582D01*
X8955Y8590D01*
X8956Y8600D01*
Y8400D01*
D02*
G37*
G36*
X8697Y8590D02*
X8700Y8582D01*
X8705Y8575D01*
X8712Y8568D01*
X8721Y8562D01*
X8732Y8558D01*
X8745Y8554D01*
X8760Y8552D01*
X8777Y8551D01*
X8796Y8550D01*
Y8450D01*
X8777Y8450D01*
X8760Y8448D01*
X8745Y8446D01*
X8732Y8442D01*
X8721Y8438D01*
X8712Y8432D01*
X8705Y8425D01*
X8700Y8418D01*
X8697Y8410D01*
X8696Y8400D01*
Y8600D01*
X8697Y8590D01*
D02*
G37*
G36*
X17938Y8505D02*
X17940Y8472D01*
X17945Y8442D01*
X17951Y8417D01*
X17959Y8395D01*
X17969Y8377D01*
X17981Y8363D01*
X17994Y8354D01*
X18009Y8348D01*
X18026Y8346D01*
X17674D01*
X17687Y8348D01*
X17698Y8354D01*
X17708Y8363D01*
X17716Y8377D01*
X17723Y8395D01*
X17729Y8417D01*
X17734Y8442D01*
X17737Y8472D01*
X17740Y8543D01*
X17937D01*
X17938Y8505D01*
D02*
G37*
G36*
X8407Y8287D02*
X8401Y8294D01*
X8394Y8298D01*
X8384Y8299D01*
X8373Y8297D01*
X8359Y8291D01*
X8344Y8282D01*
X8327Y8270D01*
X8309Y8255D01*
X8266Y8215D01*
X8234Y8324D01*
X8252Y8343D01*
X8281Y8378D01*
X8292Y8393D01*
X8300Y8408D01*
X8306Y8422D01*
X8310Y8434D01*
X8311Y8446D01*
X8309Y8456D01*
X8306Y8465D01*
X8407Y8287D01*
D02*
G37*
G36*
X24126Y8258D02*
X24121Y8250D01*
X24116Y8243D01*
X24112Y8234D01*
X24108Y8225D01*
X24105Y8215D01*
X24103Y8205D01*
X24101Y8194D01*
X24100Y8183D01*
X24100Y8171D01*
X24000D01*
X24000Y8183D01*
X23999Y8194D01*
X23997Y8205D01*
X23995Y8215D01*
X23992Y8225D01*
X23988Y8234D01*
X23984Y8243D01*
X23979Y8250D01*
X23974Y8258D01*
X23967Y8264D01*
X24133D01*
X24126Y8258D01*
D02*
G37*
G36*
X33840Y8223D02*
X33832Y8220D01*
X33825Y8215D01*
X33818Y8208D01*
X33812Y8199D01*
X33808Y8188D01*
X33805Y8174D01*
X33802Y8159D01*
X33800Y8142D01*
X33800Y8123D01*
X33700D01*
X33700Y8142D01*
X33698Y8159D01*
X33695Y8174D01*
X33692Y8188D01*
X33688Y8199D01*
X33682Y8208D01*
X33675Y8215D01*
X33668Y8220D01*
X33660Y8223D01*
X33650Y8224D01*
X33850D01*
X33840Y8223D01*
D02*
G37*
G36*
X9523Y9703D02*
X10075D01*
X10123Y9697D01*
Y9003D01*
X10135D01*
Y7985D01*
X9693Y7543D01*
X8288D01*
X8197Y7633D01*
Y7925D01*
X8197Y7928D01*
X8203Y7935D01*
X8394Y8125D01*
X8404Y8134D01*
X8803D01*
Y8123D01*
X9497D01*
Y8777D01*
X9157D01*
X9147Y8791D01*
X9067Y8871D01*
Y9042D01*
X9210D01*
Y9558D01*
X8516D01*
Y9042D01*
X8659D01*
Y8789D01*
X8054D01*
Y9042D01*
X8147D01*
Y9231D01*
X8149Y9240D01*
X8147Y9249D01*
Y9254D01*
X8164Y9274D01*
X8431Y9541D01*
X8431Y9541D01*
X8477Y9610D01*
X8493Y9692D01*
X8493Y9692D01*
Y9749D01*
X8516Y9790D01*
X9210D01*
Y9846D01*
X9523D01*
Y9703D01*
D02*
G37*
G36*
X26745Y8204D02*
X26747Y8204D01*
X26750Y8203D01*
X26754Y8202D01*
X26759Y8201D01*
X26772Y8201D01*
X26801Y8200D01*
Y8100D01*
X26790Y8100D01*
X26750Y8097D01*
X26747Y8096D01*
X26745Y8096D01*
X26744Y8094D01*
Y8206D01*
X26745Y8204D01*
D02*
G37*
G36*
X18945Y8053D02*
X18943Y8060D01*
X18940Y8067D01*
X18934Y8072D01*
X18926Y8077D01*
X18915Y8081D01*
X18902Y8085D01*
X18887Y8088D01*
X18869Y8089D01*
X18826Y8091D01*
Y8209D01*
X18849Y8209D01*
X18887Y8212D01*
X18902Y8215D01*
X18915Y8219D01*
X18926Y8223D01*
X18934Y8228D01*
X18940Y8233D01*
X18943Y8240D01*
X18945Y8247D01*
Y8053D01*
D02*
G37*
G36*
X18626Y8257D02*
X18630Y8247D01*
X18635Y8238D01*
X18644Y8230D01*
X18655Y8224D01*
X18668Y8219D01*
X18683Y8214D01*
X18701Y8211D01*
X18721Y8210D01*
X18744Y8209D01*
Y8091D01*
X18721Y8090D01*
X18701Y8089D01*
X18683Y8086D01*
X18668Y8081D01*
X18655Y8076D01*
X18644Y8070D01*
X18635Y8062D01*
X18630Y8053D01*
X18626Y8043D01*
X18625Y8032D01*
Y8268D01*
X18626Y8257D01*
D02*
G37*
G36*
X8116Y8065D02*
X8095Y8043D01*
X8062Y8005D01*
X8050Y7988D01*
X8042Y7973D01*
X8036Y7960D01*
X8033Y7948D01*
X8034Y7938D01*
X8038Y7930D01*
X8044Y7924D01*
X7876Y8036D01*
X7885Y8032D01*
X7895Y8030D01*
X7907Y8031D01*
X7919Y8034D01*
X7933Y8040D01*
X7947Y8049D01*
X7963Y8060D01*
X7980Y8073D01*
X8018Y8108D01*
X8116Y8065D01*
D02*
G37*
G36*
X20359Y8052D02*
X20349Y8048D01*
X20340Y8042D01*
X20333Y8034D01*
X20326Y8023D01*
X20321Y8010D01*
X20317Y7995D01*
X20314Y7977D01*
X20312Y7957D01*
X20311Y7935D01*
X20193D01*
X20193Y7957D01*
X20191Y7977D01*
X20188Y7995D01*
X20184Y8010D01*
X20179Y8023D01*
X20172Y8034D01*
X20164Y8042D01*
X20156Y8048D01*
X20145Y8052D01*
X20134Y8053D01*
X20370D01*
X20359Y8052D01*
D02*
G37*
G36*
X23842Y7974D02*
X23837Y7966D01*
X23832Y7959D01*
X23828Y7950D01*
X23824Y7941D01*
X23821Y7931D01*
X23819Y7921D01*
X23817Y7910D01*
X23816Y7899D01*
X23816Y7887D01*
X23716D01*
X23716Y7899D01*
X23715Y7910D01*
X23713Y7921D01*
X23711Y7931D01*
X23708Y7941D01*
X23704Y7950D01*
X23700Y7959D01*
X23695Y7966D01*
X23689Y7974D01*
X23683Y7980D01*
X23849D01*
X23842Y7974D01*
D02*
G37*
G36*
X33800Y7957D02*
X33802Y7940D01*
X33805Y7924D01*
X33808Y7911D01*
X33812Y7900D01*
X33818Y7891D01*
X33825Y7884D01*
X33832Y7879D01*
X33840Y7876D01*
X33850Y7875D01*
X33650D01*
X33660Y7876D01*
X33668Y7879D01*
X33675Y7884D01*
X33682Y7891D01*
X33688Y7900D01*
X33692Y7911D01*
X33695Y7924D01*
X33698Y7940D01*
X33700Y7957D01*
X33700Y7976D01*
X33800D01*
X33800Y7957D01*
D02*
G37*
G36*
X26641Y7974D02*
X26632Y7971D01*
X26625Y7966D01*
X26618Y7959D01*
X26613Y7950D01*
X26608Y7939D01*
X26604Y7926D01*
X26602Y7910D01*
X26600Y7893D01*
X26600Y7874D01*
X26500D01*
X26500Y7893D01*
X26498Y7910D01*
X26495Y7926D01*
X26492Y7939D01*
X26488Y7950D01*
X26482Y7959D01*
X26476Y7966D01*
X26468Y7971D01*
X26460Y7974D01*
X26450Y7975D01*
X26650D01*
X26641Y7974D01*
D02*
G37*
G36*
X18011Y7952D02*
X17998Y7946D01*
X17986Y7937D01*
X17976Y7923D01*
X17968Y7905D01*
X17961Y7883D01*
X17955Y7858D01*
X17952Y7828D01*
X17949Y7795D01*
X17948Y7757D01*
X17752D01*
X17751Y7795D01*
X17745Y7858D01*
X17739Y7883D01*
X17732Y7905D01*
X17724Y7923D01*
X17714Y7937D01*
X17702Y7946D01*
X17689Y7952D01*
X17674Y7954D01*
X18026D01*
X18011Y7952D01*
D02*
G37*
G36*
X26600Y7757D02*
X26602Y7740D01*
X26604Y7724D01*
X26608Y7711D01*
X26613Y7700D01*
X26618Y7691D01*
X26625Y7684D01*
X26632Y7679D01*
X26641Y7676D01*
X26650Y7675D01*
X26450D01*
X26460Y7676D01*
X26468Y7679D01*
X26476Y7684D01*
X26482Y7691D01*
X26488Y7700D01*
X26492Y7711D01*
X26495Y7724D01*
X26498Y7740D01*
X26500Y7757D01*
X26500Y7776D01*
X26600D01*
X26600Y7757D01*
D02*
G37*
G36*
X19537Y7521D02*
X19540Y7512D01*
X19546Y7503D01*
X19554Y7495D01*
X19565Y7489D01*
X19578Y7484D01*
X19593Y7480D01*
X19611Y7477D01*
X19631Y7475D01*
X19654Y7475D01*
Y7357D01*
X19631Y7356D01*
X19611Y7354D01*
X19593Y7351D01*
X19578Y7347D01*
X19565Y7342D01*
X19554Y7336D01*
X19546Y7328D01*
X19540Y7319D01*
X19537Y7310D01*
X19535Y7299D01*
Y7349D01*
X19528Y7347D01*
X19515Y7342D01*
X19504Y7336D01*
X19496Y7328D01*
X19490Y7319D01*
X19487Y7310D01*
X19485Y7299D01*
Y7532D01*
X19487Y7521D01*
X19490Y7512D01*
X19496Y7503D01*
X19504Y7495D01*
X19515Y7489D01*
X19528Y7484D01*
X19535Y7482D01*
Y7532D01*
X19537Y7521D01*
D02*
G37*
G36*
X20312Y7571D02*
X20314Y7551D01*
X20317Y7533D01*
X20321Y7518D01*
X20326Y7505D01*
X20333Y7494D01*
X20340Y7485D01*
X20349Y7480D01*
X20359Y7476D01*
X20370Y7475D01*
X20134D01*
X20145Y7476D01*
X20156Y7480D01*
X20164Y7485D01*
X20172Y7494D01*
X20179Y7505D01*
X20184Y7518D01*
X20188Y7533D01*
X20191Y7551D01*
X20193Y7571D01*
X20193Y7594D01*
X20311D01*
X20312Y7571D01*
D02*
G37*
G36*
X13925Y7443D02*
X13924Y7452D01*
X13921Y7461D01*
X13916Y7468D01*
X13909Y7475D01*
X13900Y7480D01*
X13889Y7485D01*
X13876Y7488D01*
X13860Y7491D01*
X13843Y7492D01*
X13824Y7493D01*
Y7593D01*
X13843Y7593D01*
X13860Y7595D01*
X13876Y7597D01*
X13889Y7601D01*
X13900Y7605D01*
X13909Y7611D01*
X13916Y7617D01*
X13921Y7625D01*
X13924Y7633D01*
X13925Y7643D01*
Y7443D01*
D02*
G37*
G36*
X15578Y7504D02*
X15587Y7496D01*
X15596Y7489D01*
X15607Y7483D01*
X15619Y7477D01*
X15632Y7473D01*
X15646Y7470D01*
X15661Y7467D01*
X15678Y7466D01*
X15695Y7466D01*
X15704Y7366D01*
X15686Y7365D01*
X15670Y7363D01*
X15655Y7361D01*
X15641Y7357D01*
X15629Y7353D01*
X15618Y7347D01*
X15608Y7340D01*
X15599Y7332D01*
X15592Y7324D01*
X15587Y7314D01*
X15410Y7418D01*
X15233Y7314D01*
X15227Y7324D01*
X15220Y7332D01*
X15212Y7340D01*
X15202Y7347D01*
X15191Y7353D01*
X15179Y7357D01*
X15165Y7361D01*
X15150Y7363D01*
X15134Y7365D01*
X15116Y7366D01*
X15124Y7466D01*
X15142Y7466D01*
X15158Y7467D01*
X15174Y7470D01*
X15188Y7473D01*
X15201Y7477D01*
X15213Y7483D01*
X15223Y7489D01*
X15233Y7496D01*
X15241Y7504D01*
X15249Y7513D01*
X15410Y7418D01*
X15571Y7513D01*
X15578Y7504D01*
D02*
G37*
G36*
X14876Y7506D02*
X14879Y7498D01*
X14884Y7490D01*
X14891Y7484D01*
X14900Y7478D01*
X14911Y7474D01*
X14924Y7470D01*
X14940Y7468D01*
X14957Y7466D01*
X14976Y7466D01*
Y7366D01*
X14957Y7365D01*
X14901Y7361D01*
X14892Y7359D01*
X14885Y7357D01*
X14880Y7354D01*
X14877Y7351D01*
X14876Y7347D01*
X14875Y7516D01*
X14876Y7506D01*
D02*
G37*
G36*
X16774Y7316D02*
X16773Y7325D01*
X16770Y7334D01*
X16765Y7341D01*
X16758Y7348D01*
X16749Y7353D01*
X16738Y7358D01*
X16725Y7361D01*
X16710Y7364D01*
X16692Y7365D01*
X16673Y7366D01*
Y7466D01*
X16692Y7466D01*
X16710Y7468D01*
X16725Y7470D01*
X16738Y7474D01*
X16749Y7478D01*
X16758Y7484D01*
X16765Y7490D01*
X16770Y7498D01*
X16773Y7506D01*
X16774Y7516D01*
Y7316D01*
D02*
G37*
G36*
X20045Y7297D02*
X20044Y7309D01*
X20041Y7319D01*
X20035Y7328D01*
X20026Y7335D01*
X20016Y7342D01*
X20003Y7347D01*
X19987Y7351D01*
X19970Y7354D01*
X19950Y7356D01*
X19927Y7357D01*
Y7475D01*
X20045Y7476D01*
Y7297D01*
D02*
G37*
G36*
X19535Y7006D02*
X19538Y6998D01*
X19543Y6990D01*
X19550Y6984D01*
X19560Y6978D01*
X19571Y6974D01*
X19584Y6970D01*
X19599Y6968D01*
X19616Y6966D01*
X19635Y6966D01*
Y6866D01*
X19616Y6865D01*
X19599Y6864D01*
X19584Y6861D01*
X19571Y6858D01*
X19560Y6853D01*
X19550Y6848D01*
X19543Y6841D01*
X19538Y6834D01*
X19535Y6825D01*
X19534Y6816D01*
Y6861D01*
X19534Y6861D01*
X19521Y6858D01*
X19510Y6853D01*
X19500Y6848D01*
X19493Y6841D01*
X19488Y6834D01*
X19485Y6825D01*
X19484Y6816D01*
Y7016D01*
X19485Y7006D01*
X19488Y6998D01*
X19493Y6990D01*
X19500Y6984D01*
X19510Y6978D01*
X19521Y6974D01*
X19534Y6970D01*
X19534Y6970D01*
Y7016D01*
X19535Y7006D01*
D02*
G37*
G36*
X13945Y7149D02*
X13982Y7117D01*
X13998Y7106D01*
X14013Y7097D01*
X14026Y7092D01*
X14038Y7089D01*
X14049Y7089D01*
X14058Y7091D01*
X14065Y7097D01*
X13925Y6957D01*
X13931Y6964D01*
X13933Y6973D01*
X13933Y6984D01*
X13930Y6996D01*
X13925Y7009D01*
X13916Y7024D01*
X13905Y7040D01*
X13890Y7058D01*
X13853Y7098D01*
X13924Y7169D01*
X13945Y7149D01*
D02*
G37*
G36*
X16774Y6816D02*
X16773Y6825D01*
X16770Y6834D01*
X16765Y6841D01*
X16758Y6848D01*
X16749Y6853D01*
X16738Y6858D01*
X16725Y6861D01*
X16710Y6864D01*
X16692Y6865D01*
X16673Y6866D01*
Y6966D01*
X16692Y6966D01*
X16710Y6968D01*
X16725Y6970D01*
X16738Y6974D01*
X16749Y6978D01*
X16758Y6984D01*
X16765Y6990D01*
X16770Y6998D01*
X16773Y7006D01*
X16774Y7016D01*
Y6816D01*
D02*
G37*
G36*
X14876Y7006D02*
X14879Y6998D01*
X14884Y6990D01*
X14891Y6984D01*
X14900Y6978D01*
X14911Y6974D01*
X14924Y6970D01*
X14940Y6968D01*
X14957Y6966D01*
X14976Y6966D01*
Y6866D01*
X14957Y6865D01*
X14940Y6864D01*
X14924Y6861D01*
X14911Y6858D01*
X14900Y6853D01*
X14891Y6848D01*
X14884Y6841D01*
X14879Y6834D01*
X14876Y6825D01*
X14875Y6816D01*
Y7016D01*
X14876Y7006D01*
D02*
G37*
G36*
X16268Y7004D02*
X16276Y6996D01*
X16286Y6989D01*
X16296Y6983D01*
X16308Y6978D01*
X16321Y6973D01*
X16335Y6970D01*
X16350Y6967D01*
X16367Y6966D01*
X16385Y6966D01*
X16392Y6866D01*
X16374Y6865D01*
X16358Y6864D01*
X16343Y6861D01*
X16329Y6857D01*
X16316Y6853D01*
X16305Y6847D01*
X16296Y6840D01*
X16287Y6833D01*
X16280Y6824D01*
X16274Y6814D01*
X16098Y6918D01*
X16261Y7014D01*
X16268Y7004D01*
D02*
G37*
G36*
X16098Y6918D02*
X15922Y6814D01*
X15916Y6824D01*
X15909Y6833D01*
X15901Y6840D01*
X15891Y6847D01*
X15880Y6853D01*
X15868Y6857D01*
X15854Y6861D01*
X15839Y6864D01*
X15822Y6865D01*
X15805Y6866D01*
X15812Y6966D01*
X15829Y6966D01*
X15846Y6967D01*
X15861Y6970D01*
X15875Y6973D01*
X15888Y6978D01*
X15900Y6983D01*
X15911Y6989D01*
X15920Y6996D01*
X15929Y7004D01*
X15936Y7014D01*
X16098Y6918D01*
D02*
G37*
G36*
X19535Y6506D02*
X19538Y6498D01*
X19543Y6490D01*
X19550Y6484D01*
X19560Y6478D01*
X19571Y6474D01*
X19584Y6470D01*
X19599Y6468D01*
X19616Y6466D01*
X19635Y6466D01*
Y6366D01*
X19616Y6365D01*
X19599Y6364D01*
X19584Y6361D01*
X19571Y6358D01*
X19560Y6353D01*
X19550Y6348D01*
X19543Y6341D01*
X19538Y6334D01*
X19535Y6325D01*
X19534Y6316D01*
Y6361D01*
X19534Y6361D01*
X19521Y6358D01*
X19510Y6353D01*
X19500Y6348D01*
X19493Y6341D01*
X19488Y6334D01*
X19485Y6325D01*
X19484Y6316D01*
Y6516D01*
X19485Y6506D01*
X19488Y6498D01*
X19493Y6490D01*
X19500Y6484D01*
X19510Y6478D01*
X19521Y6474D01*
X19534Y6470D01*
X19534Y6470D01*
Y6516D01*
X19535Y6506D01*
D02*
G37*
G36*
X32600Y9100D02*
Y7466D01*
X32766Y7300D01*
X34550D01*
X34750Y7500D01*
X35550D01*
X35650Y7400D01*
Y6600D01*
X35500Y6450D01*
X29050D01*
X28950Y6550D01*
Y9200D01*
X29000Y9250D01*
X32450D01*
X32600Y9100D01*
D02*
G37*
G36*
X20554Y6541D02*
X20556Y6537D01*
X20560Y6534D01*
X20565Y6531D01*
X20572Y6529D01*
X20580Y6527D01*
X20589Y6525D01*
X20600Y6524D01*
X20627Y6523D01*
Y6423D01*
X20613Y6423D01*
X20589Y6421D01*
X20580Y6420D01*
X20572Y6418D01*
X20565Y6415D01*
X20560Y6412D01*
X20556Y6409D01*
X20554Y6405D01*
X20554Y6401D01*
Y6545D01*
X20554Y6541D01*
D02*
G37*
G36*
X20045Y6316D02*
X20044Y6325D01*
X20041Y6334D01*
X20036Y6341D01*
X20029Y6348D01*
X20020Y6353D01*
X20009Y6358D01*
X19996Y6361D01*
X19981Y6364D01*
X19964Y6365D01*
X19945Y6366D01*
Y6466D01*
X19964Y6466D01*
X19981Y6468D01*
X19996Y6470D01*
X20009Y6474D01*
X20020Y6478D01*
X20029Y6484D01*
X20036Y6490D01*
X20041Y6498D01*
X20044Y6506D01*
X20045Y6516D01*
Y6316D01*
D02*
G37*
G36*
X33349Y6032D02*
X33340Y6032D01*
X33331Y6030D01*
X33322Y6028D01*
X33313Y6025D01*
X33304Y6021D01*
X33295Y6017D01*
X33286Y6011D01*
X33277Y6005D01*
X33268Y5997D01*
X33260Y5989D01*
X33189Y6060D01*
X33197Y6068D01*
X33205Y6077D01*
X33211Y6086D01*
X33217Y6095D01*
X33221Y6104D01*
X33225Y6113D01*
X33228Y6122D01*
X33230Y6131D01*
X33232Y6140D01*
X33232Y6149D01*
X33349Y6032D01*
D02*
G37*
G36*
X19535Y6006D02*
X19538Y5998D01*
X19543Y5990D01*
X19550Y5984D01*
X19560Y5978D01*
X19571Y5974D01*
X19584Y5970D01*
X19599Y5968D01*
X19616Y5966D01*
X19635Y5966D01*
Y5866D01*
X19616Y5865D01*
X19599Y5864D01*
X19584Y5861D01*
X19571Y5858D01*
X19560Y5853D01*
X19550Y5848D01*
X19543Y5841D01*
X19538Y5834D01*
X19535Y5825D01*
X19534Y5816D01*
Y5861D01*
X19534Y5861D01*
X19521Y5858D01*
X19510Y5853D01*
X19500Y5848D01*
X19493Y5841D01*
X19488Y5834D01*
X19485Y5825D01*
X19484Y5816D01*
Y6016D01*
X19485Y6006D01*
X19488Y5998D01*
X19493Y5990D01*
X19500Y5984D01*
X19510Y5978D01*
X19521Y5974D01*
X19534Y5970D01*
X19534Y5970D01*
Y6016D01*
X19535Y6006D01*
D02*
G37*
G36*
X25619Y8050D02*
X25750Y7919D01*
Y7150D01*
X25822Y7078D01*
X27178D01*
X27250Y7150D01*
X27250Y7421D01*
X27294Y7465D01*
X27985Y7465D01*
X28250Y7200D01*
Y6200D01*
X27966Y5916D01*
X24684D01*
X24526Y6074D01*
Y7876D01*
X24700Y8050D01*
X25619Y8050D01*
D02*
G37*
G36*
X23506Y8000D02*
Y5906D01*
X23372Y5772D01*
X21935D01*
X21650Y6057D01*
Y8009D01*
X21791Y8150D01*
X23356D01*
X23506Y8000D01*
D02*
G37*
G36*
X18103Y5486D02*
X18038Y5485D01*
X18045Y5484D01*
X17960Y5485D01*
X17903Y5484D01*
X17908Y5485D01*
X17751Y5486D01*
X17751Y5487D01*
X17750Y5493D01*
X17750Y5682D01*
X17946D01*
X17947Y5645D01*
X17950Y5611D01*
X17955Y5582D01*
X17962Y5556D01*
X17971Y5534D01*
X17974Y5529D01*
X17977Y5534D01*
X17986Y5556D01*
X17993Y5582D01*
X17998Y5611D01*
X18001Y5645D01*
X18002Y5682D01*
X18198D01*
X18103Y5486D01*
D02*
G37*
G36*
X20978Y5299D02*
X20979Y5290D01*
X20982Y5281D01*
X20985Y5272D01*
X20988Y5263D01*
X20993Y5254D01*
X20999Y5245D01*
X21005Y5237D01*
X21013Y5228D01*
X21021Y5219D01*
X20950Y5148D01*
X20941Y5157D01*
X20933Y5164D01*
X20924Y5171D01*
X20915Y5176D01*
X20906Y5181D01*
X20897Y5185D01*
X20888Y5188D01*
X20879Y5190D01*
X20870Y5191D01*
X20861Y5191D01*
X20978Y5308D01*
X20978Y5299D01*
D02*
G37*
G36*
X26016Y5017D02*
X26009Y5024D01*
X26002Y5029D01*
X25994Y5034D01*
X25985Y5038D01*
X25976Y5042D01*
X25967Y5045D01*
X25956Y5047D01*
X25946Y5049D01*
X25934Y5050D01*
X25922Y5050D01*
Y5150D01*
X25934Y5150D01*
X25946Y5151D01*
X25956Y5153D01*
X25967Y5155D01*
X25976Y5158D01*
X25985Y5162D01*
X25994Y5166D01*
X26002Y5171D01*
X26009Y5176D01*
X26016Y5183D01*
Y5017D01*
D02*
G37*
G36*
X18078Y4974D02*
X18061Y4968D01*
X18047Y4958D01*
X18034Y4945D01*
X18023Y4927D01*
X18014Y4905D01*
X18007Y4880D01*
X18002Y4850D01*
X17999Y4817D01*
X17998Y4779D01*
X17802D01*
X17801Y4817D01*
X17793Y4905D01*
X17789Y4927D01*
X17783Y4945D01*
X17777Y4958D01*
X17769Y4968D01*
X17760Y4974D01*
X17751Y4976D01*
X18097D01*
X18078Y4974D01*
D02*
G37*
G36*
X17595Y6062D02*
Y5745D01*
X17250Y5400D01*
Y4740D01*
X17110Y4600D01*
X16550D01*
X16400Y4750D01*
Y5977D01*
X16500Y6077D01*
X17579D01*
X17595Y6062D01*
D02*
G37*
G36*
X33840Y4374D02*
X33832Y4366D01*
X33825Y4357D01*
X33818Y4347D01*
X33812Y4335D01*
X33808Y4323D01*
X33805Y4309D01*
X33802Y4294D01*
X33800Y4277D01*
X33800Y4260D01*
X33700D01*
X33700Y4277D01*
X33698Y4294D01*
X33695Y4309D01*
X33692Y4323D01*
X33688Y4335D01*
X33682Y4347D01*
X33675Y4357D01*
X33668Y4366D01*
X33660Y4374D01*
X33650Y4380D01*
X33850D01*
X33840Y4374D01*
D02*
G37*
G36*
X21975Y4195D02*
X21974Y4200D01*
X21972Y4204D01*
X21968Y4208D01*
X21963Y4211D01*
X21956Y4214D01*
X21948Y4216D01*
X21938Y4217D01*
X21927Y4219D01*
X21900Y4220D01*
Y4320D01*
X21914Y4320D01*
X21938Y4322D01*
X21948Y4324D01*
X21956Y4326D01*
X21963Y4328D01*
X21968Y4332D01*
X21972Y4335D01*
X21974Y4339D01*
X21975Y4344D01*
Y4195D01*
D02*
G37*
G36*
X22926Y4340D02*
X22929Y4332D01*
X22934Y4324D01*
X22941Y4318D01*
X22950Y4313D01*
X22961Y4308D01*
X22974Y4304D01*
X22990Y4302D01*
X23007Y4300D01*
X23026Y4300D01*
Y4200D01*
X23007Y4200D01*
X22990Y4198D01*
X22974Y4196D01*
X22961Y4192D01*
X22950Y4187D01*
X22941Y4182D01*
X22934Y4175D01*
X22929Y4168D01*
X22926Y4160D01*
X22925Y4150D01*
Y4350D01*
X22926Y4340D01*
D02*
G37*
G36*
X17999Y4305D02*
X18005Y4242D01*
X18011Y4217D01*
X18018Y4195D01*
X18026Y4177D01*
X18036Y4163D01*
X18048Y4154D01*
X18061Y4148D01*
X18076Y4146D01*
X17724D01*
X17739Y4148D01*
X17752Y4154D01*
X17764Y4163D01*
X17774Y4177D01*
X17782Y4195D01*
X17789Y4217D01*
X17795Y4242D01*
X17798Y4272D01*
X17801Y4305D01*
X17802Y4342D01*
X17998D01*
X17999Y4305D01*
D02*
G37*
G36*
X33800Y4207D02*
X33802Y4190D01*
X33805Y4174D01*
X33808Y4161D01*
X33812Y4150D01*
X33818Y4141D01*
X33825Y4134D01*
X33832Y4129D01*
X33840Y4126D01*
X33850Y4125D01*
X33650D01*
X33660Y4126D01*
X33668Y4129D01*
X33675Y4134D01*
X33682Y4141D01*
X33688Y4150D01*
X33692Y4161D01*
X33695Y4174D01*
X33698Y4190D01*
X33700Y4207D01*
X33700Y4226D01*
X33800D01*
X33800Y4207D01*
D02*
G37*
G36*
X26638Y4074D02*
X26629Y4066D01*
X26622Y4057D01*
X26615Y4047D01*
X26610Y4035D01*
X26605Y4023D01*
X26602Y4009D01*
X26599Y3994D01*
X26598Y3977D01*
X26597Y3967D01*
X26598Y3957D01*
X26599Y3940D01*
X26602Y3924D01*
X26605Y3911D01*
X26610Y3900D01*
X26615Y3891D01*
X26622Y3884D01*
X26629Y3879D01*
X26638Y3876D01*
X26647Y3875D01*
X26447D01*
X26457Y3876D01*
X26465Y3879D01*
X26473Y3884D01*
X26479Y3891D01*
X26485Y3900D01*
X26489Y3911D01*
X26493Y3924D01*
X26495Y3940D01*
X26497Y3957D01*
X26497Y3967D01*
X26497Y3977D01*
X26495Y3994D01*
X26493Y4009D01*
X26489Y4023D01*
X26485Y4035D01*
X26479Y4047D01*
X26473Y4057D01*
X26465Y4066D01*
X26457Y4074D01*
X26447Y4080D01*
X26647D01*
X26638Y4074D01*
D02*
G37*
G36*
X33291Y4026D02*
X33298Y4021D01*
X33306Y4016D01*
X33315Y4012D01*
X33324Y4008D01*
X33333Y4005D01*
X33344Y4003D01*
X33354Y4001D01*
X33366Y4000D01*
X33378Y4000D01*
Y3900D01*
X33366Y3900D01*
X33354Y3899D01*
X33344Y3897D01*
X33333Y3895D01*
X33324Y3892D01*
X33315Y3888D01*
X33306Y3884D01*
X33298Y3879D01*
X33291Y3874D01*
X33284Y3867D01*
Y4033D01*
X33291Y4026D01*
D02*
G37*
G36*
X18676Y4057D02*
X18680Y4047D01*
X18685Y4038D01*
X18694Y4030D01*
X18705Y4024D01*
X18718Y4018D01*
X18733Y4014D01*
X18751Y4011D01*
X18771Y4010D01*
X18786Y4009D01*
X18795Y4009D01*
X18833Y4012D01*
X18848Y4015D01*
X18861Y4019D01*
X18872Y4023D01*
X18880Y4028D01*
X18886Y4033D01*
X18889Y4040D01*
X18891Y4047D01*
Y3853D01*
X18889Y3860D01*
X18886Y3867D01*
X18880Y3872D01*
X18872Y3877D01*
X18861Y3881D01*
X18848Y3885D01*
X18833Y3888D01*
X18815Y3889D01*
X18782Y3891D01*
X18771Y3890D01*
X18751Y3889D01*
X18733Y3886D01*
X18718Y3882D01*
X18705Y3876D01*
X18694Y3870D01*
X18685Y3862D01*
X18680Y3853D01*
X18676Y3843D01*
X18675Y3832D01*
Y4068D01*
X18676Y4057D01*
D02*
G37*
G36*
X33554Y3850D02*
X33553Y3859D01*
X33550Y3868D01*
X33545Y3875D01*
X33538Y3882D01*
X33529Y3887D01*
X33518Y3892D01*
X33505Y3896D01*
X33490Y3898D01*
X33473Y3900D01*
X33454Y3900D01*
Y4000D01*
X33473Y4001D01*
X33490Y4002D01*
X33505Y4004D01*
X33518Y4008D01*
X33529Y4013D01*
X33538Y4018D01*
X33545Y4024D01*
X33550Y4032D01*
X33553Y4040D01*
X33554Y4050D01*
Y3850D01*
D02*
G37*
G36*
X34828Y3829D02*
X34827Y3838D01*
X34824Y3847D01*
X34819Y3854D01*
X34812Y3861D01*
X34803Y3866D01*
X34792Y3871D01*
X34779Y3874D01*
X34764Y3877D01*
X34747Y3878D01*
X34728Y3879D01*
Y3979D01*
X34747Y3979D01*
X34764Y3981D01*
X34779Y3983D01*
X34792Y3987D01*
X34803Y3991D01*
X34812Y3997D01*
X34819Y4003D01*
X34824Y4011D01*
X34827Y4019D01*
X34828Y4029D01*
Y3829D01*
D02*
G37*
G36*
X20257Y3852D02*
X20247Y3848D01*
X20238Y3842D01*
X20230Y3834D01*
X20224Y3823D01*
X20219Y3810D01*
X20214Y3795D01*
X20211Y3777D01*
X20210Y3757D01*
X20209Y3735D01*
X20091D01*
X20090Y3757D01*
X20089Y3777D01*
X20086Y3795D01*
X20082Y3810D01*
X20076Y3823D01*
X20070Y3834D01*
X20062Y3842D01*
X20053Y3848D01*
X20043Y3852D01*
X20032Y3853D01*
X20268D01*
X20257Y3852D01*
D02*
G37*
G36*
X27500Y3729D02*
X27499Y3738D01*
X27496Y3747D01*
X27491Y3754D01*
X27484Y3761D01*
X27475Y3766D01*
X27464Y3771D01*
X27451Y3774D01*
X27436Y3777D01*
X27419Y3778D01*
X27400Y3779D01*
Y3879D01*
X27419Y3879D01*
X27436Y3881D01*
X27451Y3883D01*
X27464Y3887D01*
X27475Y3891D01*
X27484Y3897D01*
X27491Y3903D01*
X27496Y3911D01*
X27499Y3919D01*
X27500Y3929D01*
Y3729D01*
D02*
G37*
G36*
X26141Y3776D02*
X26148Y3771D01*
X26156Y3766D01*
X26165Y3762D01*
X26174Y3758D01*
X26183Y3755D01*
X26194Y3753D01*
X26204Y3751D01*
X26216Y3750D01*
X26228Y3750D01*
Y3650D01*
X26216Y3650D01*
X26204Y3649D01*
X26194Y3647D01*
X26183Y3645D01*
X26174Y3642D01*
X26165Y3638D01*
X26156Y3634D01*
X26148Y3629D01*
X26141Y3624D01*
X26134Y3617D01*
Y3783D01*
X26141Y3776D01*
D02*
G37*
G36*
X26354Y3600D02*
X26353Y3609D01*
X26350Y3618D01*
X26345Y3625D01*
X26338Y3632D01*
X26329Y3638D01*
X26318Y3642D01*
X26305Y3645D01*
X26290Y3648D01*
X26273Y3650D01*
X26254Y3650D01*
Y3750D01*
X26273Y3751D01*
X26290Y3752D01*
X26305Y3754D01*
X26318Y3758D01*
X26329Y3762D01*
X26338Y3768D01*
X26345Y3774D01*
X26350Y3782D01*
X26353Y3790D01*
X26354Y3800D01*
Y3600D01*
D02*
G37*
G36*
X26816Y3296D02*
X26796Y3274D01*
X26763Y3236D01*
X26751Y3219D01*
X26743Y3205D01*
X26737Y3191D01*
X26734Y3180D01*
X26735Y3169D01*
X26738Y3161D01*
X26744Y3154D01*
X26585Y3275D01*
X26593Y3270D01*
X26603Y3268D01*
X26614Y3269D01*
X26626Y3272D01*
X26640Y3278D01*
X26654Y3286D01*
X26670Y3297D01*
X26688Y3311D01*
X26726Y3347D01*
X26816Y3296D01*
D02*
G37*
G36*
X33945Y3440D02*
X33949Y3432D01*
X33954Y3424D01*
X33961Y3418D01*
X33970Y3413D01*
X33981Y3408D01*
X33994Y3404D01*
X34009Y3402D01*
X34026Y3401D01*
X34046Y3400D01*
Y3300D01*
X34026Y3300D01*
X34009Y3298D01*
X33994Y3295D01*
X33981Y3292D01*
X33970Y3288D01*
X33961Y3282D01*
X33954Y3275D01*
X33949Y3268D01*
X33945Y3259D01*
X33944Y3250D01*
Y3450D01*
X33945Y3440D01*
D02*
G37*
G36*
X20210Y3321D02*
X20211Y3301D01*
X20214Y3283D01*
X20219Y3268D01*
X20224Y3255D01*
X20230Y3244D01*
X20238Y3235D01*
X20247Y3230D01*
X20257Y3226D01*
X20268Y3225D01*
X20032D01*
X20043Y3226D01*
X20053Y3230D01*
X20062Y3235D01*
X20070Y3244D01*
X20076Y3255D01*
X20082Y3268D01*
X20086Y3283D01*
X20089Y3301D01*
X20090Y3321D01*
X20091Y3344D01*
X20209D01*
X20210Y3321D01*
D02*
G37*
G36*
X16774Y3050D02*
X16773Y3060D01*
X16770Y3068D01*
X16765Y3076D01*
X16758Y3082D01*
X16749Y3088D01*
X16738Y3092D01*
X16725Y3096D01*
X16710Y3098D01*
X16692Y3100D01*
X16674Y3100D01*
Y3050D01*
X16673Y3060D01*
X16670Y3068D01*
X16665Y3076D01*
X16658Y3082D01*
X16649Y3088D01*
X16638Y3092D01*
X16625Y3096D01*
X16610Y3098D01*
X16592Y3100D01*
X16573Y3100D01*
Y3200D01*
X16592Y3201D01*
X16610Y3202D01*
X16625Y3205D01*
X16638Y3208D01*
X16649Y3213D01*
X16658Y3218D01*
X16665Y3225D01*
X16670Y3232D01*
X16673Y3241D01*
X16674Y3250D01*
Y3200D01*
X16692Y3201D01*
X16710Y3202D01*
X16725Y3205D01*
X16738Y3208D01*
X16749Y3213D01*
X16758Y3218D01*
X16765Y3225D01*
X16770Y3232D01*
X16773Y3241D01*
X16774Y3250D01*
Y3050D01*
D02*
G37*
G36*
X13925Y3148D02*
X13924Y3158D01*
X13921Y3166D01*
X13916Y3174D01*
X13909Y3180D01*
X13900Y3186D01*
X13889Y3190D01*
X13876Y3194D01*
X13860Y3196D01*
X13843Y3198D01*
X13824Y3198D01*
Y3298D01*
X13843Y3299D01*
X13860Y3300D01*
X13876Y3303D01*
X13889Y3306D01*
X13900Y3311D01*
X13909Y3316D01*
X13916Y3323D01*
X13921Y3330D01*
X13924Y3339D01*
X13925Y3348D01*
Y3148D01*
D02*
G37*
G36*
X33840Y3174D02*
X33832Y3171D01*
X33825Y3166D01*
X33818Y3159D01*
X33812Y3150D01*
X33808Y3139D01*
X33805Y3126D01*
X33802Y3110D01*
X33800Y3093D01*
X33800Y3074D01*
X33700D01*
X33700Y3093D01*
X33698Y3110D01*
X33695Y3126D01*
X33692Y3139D01*
X33688Y3150D01*
X33682Y3159D01*
X33675Y3166D01*
X33668Y3171D01*
X33660Y3174D01*
X33650Y3175D01*
X33850D01*
X33840Y3174D01*
D02*
G37*
G36*
X14876Y3241D02*
X14879Y3232D01*
X14884Y3225D01*
X14891Y3218D01*
X14900Y3213D01*
X14911Y3208D01*
X14924Y3205D01*
X14940Y3202D01*
X14957Y3201D01*
X14976Y3200D01*
Y3100D01*
X14957Y3100D01*
X14940Y3098D01*
X14925Y3096D01*
X14912Y3092D01*
X14901Y3088D01*
X14892Y3083D01*
X14885Y3077D01*
X14880Y3070D01*
X14877Y3062D01*
X14876Y3053D01*
X14875Y3250D01*
X14876Y3241D01*
D02*
G37*
G36*
X15476Y3241D02*
X15484Y3232D01*
X15493Y3225D01*
X15503Y3218D01*
X15515Y3213D01*
X15527Y3208D01*
X15541Y3205D01*
X15556Y3202D01*
X15573Y3201D01*
X15590Y3200D01*
X15590Y3100D01*
X15573Y3100D01*
X15556Y3098D01*
X15541Y3096D01*
X15527Y3092D01*
X15515Y3088D01*
X15503Y3082D01*
X15493Y3076D01*
X15484Y3068D01*
X15476Y3059D01*
X15470Y3050D01*
X15300Y3150D01*
X15470Y3250D01*
X15476Y3241D01*
D02*
G37*
G36*
X15300Y3150D02*
X15130Y3050D01*
X15124Y3059D01*
X15116Y3068D01*
X15107Y3076D01*
X15097Y3082D01*
X15085Y3088D01*
X15073Y3092D01*
X15059Y3096D01*
X15044Y3098D01*
X15027Y3100D01*
X15010Y3100D01*
X15010Y3200D01*
X15027Y3201D01*
X15044Y3202D01*
X15059Y3205D01*
X15073Y3208D01*
X15085Y3213D01*
X15097Y3218D01*
X15107Y3225D01*
X15116Y3232D01*
X15124Y3241D01*
X15130Y3250D01*
X15300Y3150D01*
D02*
G37*
G36*
X19487Y3256D02*
X19490Y3246D01*
X19496Y3237D01*
X19504Y3230D01*
X19515Y3224D01*
X19528Y3218D01*
X19543Y3214D01*
X19561Y3211D01*
X19581Y3210D01*
X19604Y3209D01*
Y3091D01*
X19581Y3090D01*
X19561Y3089D01*
X19543Y3086D01*
X19528Y3082D01*
X19515Y3076D01*
X19504Y3070D01*
X19496Y3063D01*
X19490Y3054D01*
X19487Y3044D01*
X19485Y3033D01*
Y3267D01*
X19487Y3256D01*
D02*
G37*
G36*
X19895Y3032D02*
X19894Y3043D01*
X19891Y3053D01*
X19885Y3062D01*
X19876Y3070D01*
X19866Y3076D01*
X19853Y3081D01*
X19837Y3086D01*
X19820Y3089D01*
X19800Y3090D01*
X19777Y3091D01*
Y3209D01*
X19800Y3209D01*
X19866Y3213D01*
X19876Y3215D01*
X19885Y3217D01*
X19891Y3220D01*
X19894Y3223D01*
X19895Y3226D01*
Y3032D01*
D02*
G37*
G36*
X33800Y2907D02*
X33802Y2890D01*
X33805Y2874D01*
X33808Y2861D01*
X33812Y2850D01*
X33818Y2841D01*
X33825Y2834D01*
X33832Y2829D01*
X33840Y2826D01*
X33850Y2825D01*
X33650D01*
X33660Y2826D01*
X33668Y2829D01*
X33675Y2834D01*
X33682Y2841D01*
X33688Y2850D01*
X33692Y2861D01*
X33695Y2874D01*
X33698Y2890D01*
X33700Y2907D01*
X33700Y2926D01*
X33800D01*
X33800Y2907D01*
D02*
G37*
G36*
X26641Y2924D02*
X26632Y2921D01*
X26625Y2916D01*
X26618Y2909D01*
X26613Y2900D01*
X26608Y2889D01*
X26604Y2876D01*
X26602Y2860D01*
X26600Y2843D01*
X26600Y2824D01*
X26500D01*
X26500Y2843D01*
X26498Y2860D01*
X26495Y2876D01*
X26492Y2889D01*
X26488Y2900D01*
X26482Y2909D01*
X26476Y2916D01*
X26468Y2921D01*
X26460Y2924D01*
X26450Y2925D01*
X26650D01*
X26641Y2924D01*
D02*
G37*
G36*
X16774Y2550D02*
X16773Y2560D01*
X16770Y2568D01*
X16765Y2576D01*
X16758Y2582D01*
X16749Y2588D01*
X16738Y2592D01*
X16725Y2596D01*
X16710Y2598D01*
X16692Y2600D01*
X16674Y2600D01*
Y2550D01*
X16673Y2560D01*
X16670Y2568D01*
X16665Y2576D01*
X16658Y2582D01*
X16649Y2588D01*
X16638Y2592D01*
X16625Y2596D01*
X16610Y2598D01*
X16592Y2600D01*
X16573Y2600D01*
Y2700D01*
X16592Y2701D01*
X16610Y2702D01*
X16625Y2705D01*
X16638Y2708D01*
X16649Y2713D01*
X16658Y2718D01*
X16665Y2725D01*
X16670Y2732D01*
X16673Y2741D01*
X16674Y2750D01*
Y2700D01*
X16692Y2701D01*
X16710Y2702D01*
X16725Y2705D01*
X16738Y2708D01*
X16749Y2713D01*
X16758Y2718D01*
X16765Y2725D01*
X16770Y2732D01*
X16773Y2741D01*
X16774Y2750D01*
Y2550D01*
D02*
G37*
G36*
X13945Y2846D02*
X13982Y2815D01*
X13998Y2804D01*
X14013Y2795D01*
X14026Y2789D01*
X14038Y2786D01*
X14049Y2786D01*
X14058Y2789D01*
X14065Y2794D01*
X13925Y2654D01*
X13931Y2662D01*
X13933Y2671D01*
X13933Y2682D01*
X13930Y2694D01*
X13925Y2707D01*
X13916Y2722D01*
X13905Y2738D01*
X13890Y2756D01*
X13853Y2796D01*
X13924Y2866D01*
X13945Y2846D01*
D02*
G37*
G36*
X26600Y2707D02*
X26602Y2690D01*
X26604Y2674D01*
X26608Y2661D01*
X26613Y2650D01*
X26618Y2641D01*
X26625Y2634D01*
X26632Y2629D01*
X26641Y2626D01*
X26650Y2625D01*
X26450D01*
X26460Y2626D01*
X26468Y2629D01*
X26476Y2634D01*
X26482Y2641D01*
X26488Y2650D01*
X26492Y2661D01*
X26495Y2674D01*
X26498Y2690D01*
X26500Y2707D01*
X26500Y2726D01*
X26600D01*
X26600Y2707D01*
D02*
G37*
G36*
X19485Y2741D02*
X19488Y2732D01*
X19493Y2725D01*
X19500Y2718D01*
X19510Y2713D01*
X19521Y2708D01*
X19534Y2705D01*
X19549Y2702D01*
X19566Y2701D01*
X19585Y2700D01*
Y2600D01*
X19566Y2600D01*
X19549Y2598D01*
X19534Y2596D01*
X19521Y2592D01*
X19510Y2588D01*
X19500Y2582D01*
X19493Y2576D01*
X19488Y2568D01*
X19485Y2560D01*
X19484Y2550D01*
Y2750D01*
X19485Y2741D01*
D02*
G37*
G36*
X14876D02*
X14879Y2732D01*
X14884Y2725D01*
X14891Y2718D01*
X14900Y2713D01*
X14911Y2708D01*
X14924Y2705D01*
X14940Y2702D01*
X14957Y2701D01*
X14976Y2700D01*
Y2600D01*
X14957Y2600D01*
X14940Y2598D01*
X14924Y2596D01*
X14911Y2592D01*
X14900Y2588D01*
X14891Y2582D01*
X14884Y2576D01*
X14879Y2568D01*
X14876Y2560D01*
X14875Y2550D01*
Y2750D01*
X14876Y2741D01*
D02*
G37*
G36*
X16086Y2740D02*
X16094Y2732D01*
X16103Y2725D01*
X16113Y2718D01*
X16124Y2713D01*
X16137Y2708D01*
X16151Y2705D01*
X16166Y2702D01*
X16182Y2701D01*
X16200Y2700D01*
X16200Y2600D01*
X16182Y2600D01*
X16166Y2598D01*
X16151Y2596D01*
X16137Y2592D01*
X16124Y2588D01*
X16113Y2582D01*
X16103Y2576D01*
X16094Y2568D01*
X16086Y2560D01*
X16079Y2550D01*
X15910Y2650D01*
X16079Y2750D01*
X16086Y2740D01*
D02*
G37*
G36*
X15910Y2650D02*
X15740Y2550D01*
X15734Y2560D01*
X15726Y2568D01*
X15717Y2576D01*
X15707Y2582D01*
X15695Y2588D01*
X15683Y2592D01*
X15669Y2596D01*
X15653Y2598D01*
X15637Y2600D01*
X15619Y2600D01*
X15619Y2700D01*
X15637Y2701D01*
X15653Y2702D01*
X15669Y2705D01*
X15683Y2708D01*
X15695Y2713D01*
X15707Y2718D01*
X15717Y2725D01*
X15726Y2732D01*
X15734Y2740D01*
X15740Y2750D01*
X15910Y2650D01*
D02*
G37*
G36*
X19895Y2050D02*
X19894Y2060D01*
X19891Y2068D01*
X19886Y2076D01*
X19879Y2082D01*
X19870Y2088D01*
X19859Y2092D01*
X19846Y2096D01*
X19831Y2098D01*
X19814Y2100D01*
X19795Y2100D01*
Y2200D01*
X19814Y2201D01*
X19831Y2202D01*
X19846Y2205D01*
X19859Y2208D01*
X19870Y2213D01*
X19879Y2218D01*
X19886Y2225D01*
X19891Y2232D01*
X19894Y2241D01*
X19895Y2250D01*
Y2050D01*
D02*
G37*
G36*
X19485Y2241D02*
X19488Y2232D01*
X19493Y2225D01*
X19500Y2218D01*
X19510Y2213D01*
X19521Y2208D01*
X19534Y2205D01*
X19549Y2202D01*
X19566Y2201D01*
X19585Y2200D01*
Y2100D01*
X19566Y2100D01*
X19549Y2098D01*
X19534Y2096D01*
X19521Y2092D01*
X19510Y2088D01*
X19500Y2082D01*
X19493Y2076D01*
X19488Y2068D01*
X19485Y2060D01*
X19484Y2050D01*
Y2250D01*
X19485Y2241D01*
D02*
G37*
G36*
X20398Y2181D02*
X20395Y2172D01*
X20395Y2161D01*
X20398Y2149D01*
X20404Y2136D01*
X20413Y2121D01*
X20424Y2105D01*
X20438Y2087D01*
X20475Y2047D01*
X20405Y1977D01*
X20384Y1996D01*
X20347Y2028D01*
X20331Y2039D01*
X20316Y2048D01*
X20303Y2054D01*
X20291Y2057D01*
X20280Y2057D01*
X20271Y2054D01*
X20263Y2048D01*
X20404Y2189D01*
X20398Y2181D01*
D02*
G37*
G36*
X17509Y2259D02*
X17515Y2247D01*
X17526Y2231D01*
X17540Y2212D01*
X17582Y2164D01*
X17716Y2025D01*
X17569Y1894D01*
X17528Y1933D01*
X17455Y1996D01*
X17422Y2018D01*
X17393Y2035D01*
X17367Y2046D01*
X17343Y2052D01*
X17323Y2052D01*
X17305Y2046D01*
X17290Y2034D01*
X17507Y2267D01*
X17509Y2259D01*
D02*
G37*
G36*
X19485Y1741D02*
X19488Y1732D01*
X19493Y1725D01*
X19500Y1718D01*
X19510Y1713D01*
X19521Y1708D01*
X19534Y1705D01*
X19549Y1702D01*
X19566Y1701D01*
X19585Y1700D01*
Y1600D01*
X19566Y1600D01*
X19549Y1598D01*
X19534Y1596D01*
X19521Y1592D01*
X19510Y1588D01*
X19500Y1582D01*
X19493Y1576D01*
X19488Y1568D01*
X19485Y1560D01*
X19484Y1550D01*
Y1750D01*
X19485Y1741D01*
D02*
G37*
G36*
X32600Y4150D02*
Y2394D01*
X32771Y2223D01*
X34623Y2223D01*
X34850Y2450D01*
X35500D01*
X35600Y2350D01*
Y1650D01*
X35500Y1550D01*
X29175D01*
X29075Y1650D01*
X29075Y4210D01*
X29188Y4300D01*
X32450D01*
X32600Y4150D01*
D02*
G37*
G36*
X24513Y3207D02*
X24528Y3195D01*
X24544Y3185D01*
X24560Y3175D01*
X24577Y3168D01*
X24594Y3161D01*
X24612Y3156D01*
X24631Y3153D01*
X24650Y3151D01*
X24669Y3150D01*
X25575D01*
X25687Y3038D01*
Y2163D01*
X25800Y2050D01*
X27294D01*
X27372Y2128D01*
Y2350D01*
X27444Y2400D01*
X27494D01*
X28159Y2400D01*
X28300Y2259D01*
X28300Y1342D01*
X28058Y1100D01*
X24650D01*
X24550Y1200D01*
Y3075D01*
X24565Y3090D01*
X24549Y3100D01*
X24499Y3221D01*
X24513Y3207D01*
D02*
G37*
G36*
X17834Y1236D02*
X17965Y1105D01*
X17926Y1064D01*
X17865Y992D01*
X17842Y960D01*
X17825Y930D01*
X17814Y904D01*
X17808Y880D01*
X17808Y860D01*
X17814Y842D01*
X17825Y826D01*
X17548Y1103D01*
X17563Y1092D01*
X17581Y1087D01*
X17602Y1087D01*
X17625Y1093D01*
X17651Y1104D01*
X17543Y1103D01*
X17562Y1106D01*
X17578Y1112D01*
X17593Y1121D01*
X17606Y1135D01*
X17617Y1153D01*
X17626Y1175D01*
X17632Y1201D01*
X17637Y1230D01*
X17640Y1264D01*
X17641Y1302D01*
X17838D01*
X17834Y1236D01*
D02*
G37*
G36*
X33199Y1082D02*
X33190Y1082D01*
X33181Y1080D01*
X33172Y1078D01*
X33163Y1075D01*
X33154Y1071D01*
X33145Y1067D01*
X33136Y1061D01*
X33127Y1055D01*
X33118Y1047D01*
X33110Y1039D01*
X33039Y1110D01*
X33047Y1118D01*
X33055Y1127D01*
X33061Y1136D01*
X33067Y1145D01*
X33071Y1154D01*
X33075Y1163D01*
X33078Y1172D01*
X33080Y1181D01*
X33082Y1190D01*
X33082Y1199D01*
X33199Y1082D01*
D02*
G37*
G36*
X23506Y3150D02*
Y1056D01*
X23422Y972D01*
X22565D01*
X21650Y1888D01*
Y3147D01*
X21853Y3350D01*
X23306D01*
X23506Y3150D01*
D02*
G37*
G36*
X17397Y1803D02*
Y1457D01*
X17100Y1160D01*
Y450D01*
X17050Y400D01*
X16350D01*
X16250Y500D01*
Y1758D01*
X16300Y1808D01*
X17392D01*
X17397Y1803D01*
D02*
G37*
G36*
X26007Y190D02*
X26002Y192D01*
X25995Y194D01*
X25988Y195D01*
X25972Y197D01*
X25952Y199D01*
X25916Y200D01*
X25861Y300D01*
X25873Y300D01*
X25885Y302D01*
X25895Y304D01*
X25904Y306D01*
X25912Y310D01*
X25920Y314D01*
X25926Y319D01*
X25931Y325D01*
X25935Y332D01*
X25939Y339D01*
X26007Y190D01*
D02*
G37*
%LPC*%
G36*
X23753Y18044D02*
X23741Y18043D01*
X23733Y18038D01*
X23775D01*
X23768Y18041D01*
X23753Y18044D01*
D02*
G37*
%LPD*%
D11*
X18626Y17800D02*
X18650D01*
X19844Y16606D01*
X22964D01*
X17440Y17600D02*
X17800D01*
X18450Y17200D02*
X19400Y16250D01*
X17088Y17200D02*
X18450D01*
X18350Y17000D02*
X19739Y15611D01*
X17450Y17000D02*
X18350D01*
X17250Y16800D02*
X17450Y17000D01*
X16750Y16862D02*
X17088Y17200D01*
X19018Y2650D02*
X20599D01*
X22398Y568D02*
X33018D01*
X21116Y1850D02*
X22398Y568D01*
X20602Y1850D02*
X21116D01*
X20229Y2223D02*
X20602Y1850D01*
X20150Y2223D02*
X20229D01*
X22481Y768D02*
X32768D01*
X20599Y2650D02*
X22481Y768D01*
X33018Y568D02*
X33750Y1300D01*
X32768Y768D02*
X33200Y1200D01*
X4172Y11750D02*
X5515D01*
X3722Y12200D02*
X4172Y11750D01*
X2800Y12200D02*
X3722D01*
X22000Y16250D02*
X22050Y16200D01*
X20600Y16250D02*
X22000D01*
X24549Y3100D02*
X25057Y2592D01*
X23399Y4250D02*
X24549Y3100D01*
X24744D02*
X24750Y3094D01*
X24549Y3100D02*
X24744D01*
X22964Y16606D02*
X24070Y15500D01*
X31550D01*
X4947Y15203D02*
X5100Y15050D01*
Y14234D02*
Y15050D01*
X5400Y17250D02*
X5976Y16674D01*
Y15935D02*
Y16674D01*
X4947Y17250D02*
X5426Y16771D01*
X4800Y15950D02*
Y16650D01*
X4200Y17250D02*
X4800Y16650D01*
X5426Y15935D02*
Y16771D01*
X3188Y13861D02*
X4746D01*
X5100Y14215D01*
Y14234D01*
X2849Y14200D02*
X3188Y13861D01*
X2800Y14200D02*
X2849D01*
X4947Y15203D02*
Y15223D01*
X4820Y15350D02*
X4947Y15223D01*
X4800Y15350D02*
X4820D01*
X5426Y15335D02*
X5450Y15311D01*
Y14900D02*
Y15311D01*
X5434Y13555D02*
X5443D01*
X5424D02*
X5434D01*
X5100Y13231D02*
X5424Y13555D01*
X5100Y13211D02*
Y13231D01*
X3644Y13200D02*
X4094Y12750D01*
X2800Y13200D02*
X3644D01*
X4094Y12750D02*
X4659D01*
X5100Y13191D01*
Y13211D01*
X5950Y15310D02*
X5976Y15335D01*
X5950Y14900D02*
Y15310D01*
X5150Y12224D02*
X5426Y12500D01*
X5150Y12211D02*
Y12224D01*
Y12211D02*
X5976D01*
X5515Y11750D02*
X5829Y12064D01*
X5848D01*
X5976Y12191D01*
Y12211D01*
X5150Y12191D02*
Y12211D01*
X5100Y13211D02*
X5926D01*
X5100Y14234D02*
X5926D01*
X26500Y13599D02*
Y14197D01*
X33750Y13850D02*
Y14450D01*
X33699Y9050D02*
X33750Y9101D01*
Y9600D01*
X33200Y3950D02*
X33750D01*
X33150D02*
X33200D01*
X33750D02*
Y4550D01*
X26547Y3703D02*
X26550Y3700D01*
X26547Y3703D02*
Y4250D01*
X26550Y8750D02*
Y9350D01*
X13249Y15300D02*
X13298Y15251D01*
X17173Y18677D02*
X17300Y18550D01*
X26915Y17997D02*
X26926Y18008D01*
X31550Y15500D02*
X31925Y15875D01*
X32004Y15935D02*
X32525D01*
X34900Y15779D02*
Y16000D01*
X35150Y16250D01*
X32525Y15935D02*
Y15950D01*
X33352D02*
X34075D01*
X27279Y3829D02*
X27794D01*
X26550Y3100D02*
X27279Y3829D01*
X24050Y11800D02*
Y15200D01*
Y11800D02*
X24150Y11700D01*
X23050Y16200D02*
X24050Y15200D01*
X24150Y11700D02*
X24957D01*
X23850Y11894D02*
Y14900D01*
X23606Y11650D02*
X23850Y11894D01*
X23250Y15500D02*
X23850Y14900D01*
X23320Y14350D02*
X23400Y14270D01*
X22650Y15500D02*
X23250D01*
X31950Y17200D02*
Y17350D01*
X32050Y17450D01*
X18450Y9225D02*
X22061D01*
X21900Y4270D02*
X22150D01*
X9130Y8500D02*
X9150D01*
X8480D02*
X9130D01*
X7846Y7866D02*
X8480Y8500D01*
X15738Y9258D02*
X15750Y9245D01*
X12563Y9258D02*
X15738D01*
X12550Y9270D02*
X12563Y9258D01*
X20672Y19351D02*
X20950Y19073D01*
Y17916D02*
Y19073D01*
X7889Y9300D02*
X7947Y9358D01*
X7800Y9300D02*
X7889D01*
X14800Y18100D02*
X17000D01*
X35150Y16250D02*
X36850D01*
X14200Y15950D02*
X14515Y15635D01*
Y13555D02*
Y15635D01*
Y13555D02*
X14700Y13370D01*
X7093Y15950D02*
X7150D01*
X5443Y17600D02*
X7093Y15950D01*
X7150Y15907D02*
Y15950D01*
X7146Y15904D02*
X7150Y15907D01*
X7146Y15904D02*
X7150Y15900D01*
X14200Y16300D02*
X14515D01*
X7026D02*
X7150D01*
X5426Y17900D02*
X7026Y16300D01*
X3330Y17900D02*
X5426D01*
X14700Y13350D02*
Y13370D01*
X2800Y17600D02*
X5443D01*
X2100Y18300D02*
X2800Y17600D01*
X2100Y18300D02*
Y19170D01*
X2580Y19650D01*
X14700Y16231D02*
Y16862D01*
Y16211D02*
Y16231D01*
X14573Y16358D02*
X14700Y16231D01*
X2580Y18650D02*
X3330Y17900D01*
X5100Y19130D02*
Y20100D01*
Y19130D02*
X5580Y18650D01*
X5100Y20100D02*
X5400Y20400D01*
X12400D01*
X12800Y20000D01*
Y18539D02*
Y20000D01*
Y18539D02*
X13239Y18100D01*
X14800D01*
X18401Y14110D02*
X18442Y14070D01*
X18315Y14197D02*
X18401Y14110D01*
Y14353D01*
Y14090D02*
Y14110D01*
X17750Y14265D02*
Y14270D01*
Y14265D02*
X17818Y14197D01*
X18315D01*
X18442Y14050D02*
Y14070D01*
X18401Y14090D02*
X18442Y14050D01*
X18219Y14535D02*
X18401Y14353D01*
X18219Y14535D02*
Y14550D01*
X19203Y14847D02*
X19853Y14197D01*
X16947Y14847D02*
X19203D01*
X16750Y14650D02*
X16947Y14847D01*
X19650Y15050D02*
X19853Y14847D01*
X16550Y15050D02*
X19650D01*
X16288Y14788D02*
X16550Y15050D01*
X17300Y18550D02*
X17427Y18423D01*
Y17613D02*
Y18423D01*
Y17613D02*
X17440Y17600D01*
X20823Y17789D02*
X20950Y17916D01*
X20823Y17693D02*
Y17789D01*
X20350Y17220D02*
X20823Y17693D01*
X22650Y16200D02*
X23050D01*
X25007Y10500D02*
Y10546D01*
X5580Y19650D02*
X6100Y19130D01*
Y18050D02*
Y19130D01*
Y18050D02*
X7600Y16550D01*
Y10700D02*
Y16550D01*
X7000Y10048D02*
X7037Y10011D01*
X7074Y10048D01*
X7000Y9974D02*
X7037Y10011D01*
X7000Y10048D02*
Y10700D01*
X7074Y10048D02*
X7800D01*
X7000Y9374D02*
X7074Y9300D01*
X7800D01*
X8863Y8787D02*
X9003Y8647D01*
Y8627D02*
Y8647D01*
Y8627D02*
X9130Y8500D01*
X8863Y8787D02*
Y9300D01*
X7800D02*
X7850Y9250D01*
Y8500D02*
Y9250D01*
X8863Y10048D02*
X8865Y10050D01*
X9850D01*
X10530Y9270D02*
X10930D01*
X10450Y9350D02*
X10530Y9270D01*
X10450Y9350D02*
Y10050D01*
X20860Y5310D02*
X21900Y4270D01*
X22150Y4250D02*
Y4270D01*
X22061Y8550D02*
Y9225D01*
X25007Y10546D02*
Y11650D01*
X24925Y9225D02*
X24987Y9287D01*
X22661Y9225D02*
X24925D01*
X22808Y8697D02*
X22861Y8750D01*
X22788Y8697D02*
X22808D01*
X22661Y8570D02*
X22788Y8697D01*
X22661Y8550D02*
Y8570D01*
X22861Y8750D02*
X24506D01*
X25057Y8199D01*
Y6950D02*
Y8199D01*
X22750Y4250D02*
X23399D01*
X25057Y2100D02*
Y2592D01*
X11300Y17250D02*
X11300Y5420D01*
X10950Y17600D02*
X11300Y17250D01*
X7700Y17600D02*
X10950D01*
X11300Y5420D02*
X14100Y2620D01*
X13802Y3248D02*
X14100D01*
X11500Y5550D02*
X13802Y3248D01*
X11500Y5550D02*
Y17391D01*
X14100Y2600D02*
Y2620D01*
X7100Y18200D02*
X7700Y17600D01*
X7100Y18200D02*
Y19170D01*
X7580Y19650D01*
X8100Y18350D02*
Y19965D01*
X7865Y20200D02*
X8100Y19965D01*
X6998Y20200D02*
X7865D01*
X6580Y19783D02*
X6998Y20200D01*
X12150D02*
X12550Y19800D01*
X10800Y20200D02*
X12150D01*
X10600Y20000D02*
X10800Y20200D01*
X9900D02*
X10135Y19965D01*
X8680Y20200D02*
X9900D01*
X8580Y20100D02*
X8680Y20200D01*
X11091Y17800D02*
X11500Y17391D01*
X6580Y19650D02*
Y19783D01*
X8100Y18350D02*
X8650Y17800D01*
X11091D01*
X14700Y2600D02*
X14750Y2650D01*
X17040D01*
X14700Y3248D02*
X14798Y3150D01*
X17040D01*
X13807Y7543D02*
X14100D01*
X12050Y9300D02*
X13807Y7543D01*
X12050Y9300D02*
Y18950D01*
X11500Y18150D02*
X11850Y17800D01*
Y9172D02*
Y17800D01*
Y9172D02*
X14100Y6922D01*
X10135Y19365D02*
Y19965D01*
Y19365D02*
X10350Y19150D01*
X11850D01*
X10250Y18150D02*
X11500D01*
X10135Y18265D02*
X10250Y18150D01*
X10135Y18265D02*
Y18982D01*
X9580Y19537D02*
X10135Y18982D01*
X9580Y19537D02*
Y19650D01*
X14100Y6902D02*
Y6922D01*
X11850Y19150D02*
X12050Y18950D01*
X8580Y19650D02*
Y20100D01*
X14700Y6902D02*
X14713Y6916D01*
X17190D01*
X14700Y7543D02*
Y7550D01*
Y7543D02*
X14827Y7416D01*
X17190D01*
X13800Y12150D02*
X14100D01*
X12550Y13400D02*
X13800Y12150D01*
X12550Y13400D02*
Y19800D01*
X11594Y19636D02*
X12050D01*
X11580Y19650D02*
X11594Y19636D01*
X12050D02*
X12350Y19336D01*
Y13270D02*
Y19336D01*
Y13270D02*
X14100Y11520D01*
Y11500D02*
Y11520D01*
X10600Y19670D02*
Y20000D01*
X10580Y19650D02*
X10600Y19670D01*
X14700Y11500D02*
X14768Y11568D01*
X17140D01*
X14700Y12150D02*
X14782Y12068D01*
X17140D01*
X20525Y18450D02*
Y18750D01*
X20350Y18275D02*
X20525Y18450D01*
X20350Y17916D02*
Y18275D01*
Y17200D02*
Y17220D01*
X20950Y17916D02*
X21650D01*
X20672Y19351D02*
Y19410D01*
X20584Y19498D02*
X20672Y19410D01*
X20525Y19498D02*
X20584D01*
X29050Y18203D02*
X29297D01*
X29903Y17597D01*
X29923D01*
X30050Y17470D01*
Y17450D02*
Y17470D01*
X32392Y18253D02*
X32450Y18311D01*
X32233Y18253D02*
X32392D01*
X31450Y17470D02*
X32233Y18253D01*
X31450Y17450D02*
Y17470D01*
X30650Y17450D02*
X31450D01*
X30050Y16700D02*
Y17450D01*
X30650Y16700D02*
Y17450D01*
X32220Y19001D02*
X32392D01*
X31720Y18500D02*
X32220Y19001D01*
X31700Y18500D02*
X31720D01*
X32392Y19001D02*
X32450Y19059D01*
X33377Y17917D02*
X33513Y18053D01*
X33377Y17577D02*
Y17917D01*
X33250Y17450D02*
X33377Y17577D01*
X33513Y18053D02*
Y18311D01*
X14700Y13350D02*
X15338D01*
X16270Y12999D02*
X16919D01*
X15938Y13330D02*
X16270Y12999D01*
X15938Y13330D02*
Y13350D01*
X16919Y12999D02*
X17250Y13330D01*
Y13350D01*
X16182Y14100D02*
X16250Y14168D01*
Y14270D01*
X15550Y14100D02*
X16182D01*
X14900D02*
X15550D01*
X17250Y13350D02*
X17250Y13350D01*
Y14270D01*
X16650Y13350D02*
X16750Y13450D01*
Y14270D01*
X15300Y16862D02*
X15338Y16900D01*
X15750D01*
X18219Y16700D02*
X18289D01*
X18150D02*
X18219D01*
X18289D02*
X18450Y16539D01*
Y16200D02*
Y16539D01*
X17450Y15611D02*
X18439D01*
X18450Y15600D01*
X17318Y15743D02*
X17450Y15611D01*
X17318Y15743D02*
Y16181D01*
X17250Y16249D02*
X17318Y16181D01*
X17750Y16249D02*
X18401D01*
X18450Y16200D01*
X19739Y15611D02*
X20000D01*
X19400Y16250D02*
X20000D01*
X16250Y17600D02*
X16840D01*
X16750Y16249D02*
Y16862D01*
Y17510D01*
X16840Y17600D01*
X17250Y16249D02*
Y16800D01*
X16750Y14270D02*
Y14650D01*
X19853Y14197D02*
X19873D01*
X20000Y14070D01*
Y14050D02*
Y14070D01*
X16288Y14309D02*
Y14788D01*
X16250Y14270D02*
X16288Y14309D01*
X19853Y14847D02*
X19873D01*
X20000Y14720D01*
Y14700D02*
Y14720D01*
X21300Y14050D02*
X22050D01*
X20600D02*
X21300D01*
X20600Y14700D02*
X22050D01*
X21306Y15611D02*
X21939D01*
X20600D02*
X21306D01*
X21939D02*
X22050Y15500D01*
X23506Y6950D02*
X23766Y7210D01*
X22891Y6950D02*
X23506D01*
X23766Y7210D02*
Y8065D01*
X22930Y14350D02*
X23320D01*
X22650Y14070D02*
X22930Y14350D01*
X22650Y14050D02*
Y14070D01*
X24050Y7200D02*
X24300Y6950D01*
X25057D01*
X24050Y7200D02*
Y8349D01*
X22700Y14650D02*
X23400D01*
X26100Y13599D02*
X26500D01*
X22650Y14700D02*
X22700Y14650D01*
X24957Y11700D02*
X25007Y11650D01*
X22841D02*
X23606D01*
X33850Y6271D02*
Y6700D01*
X21728Y9700D02*
X26100D01*
X20860Y10568D02*
X21728Y9700D01*
X19118Y10568D02*
X20860D01*
X21550Y5100D02*
X26100D01*
X20734Y5916D02*
X21550Y5100D01*
X21732Y5368D02*
X32947D01*
X33850Y6271D01*
X20627Y6473D02*
X21732Y5368D01*
X21850Y5568D02*
X32768D01*
X33350Y6150D01*
X20503Y6916D02*
X21850Y5568D01*
X19168Y5916D02*
X20734D01*
X21950Y250D02*
X26050D01*
X20550Y1650D02*
X21950Y250D01*
X19018Y1650D02*
X20550D01*
X21850Y10000D02*
X33000D01*
X21950Y10200D02*
X32917D01*
X20582Y11568D02*
X21950Y10200D01*
X32917D02*
X33350Y10633D01*
Y10750D01*
X33400Y10800D01*
X20676Y11174D02*
X21850Y10000D01*
X33000D02*
X33650Y10650D01*
X26050Y3700D02*
X26550D01*
Y2450D02*
Y3100D01*
X20300Y6473D02*
X20627D01*
X33750Y1300D02*
Y2050D01*
X20077Y2150D02*
X20150Y2223D01*
X19018Y2150D02*
X20077D01*
X26100Y8750D02*
X26550D01*
X27457Y8806D02*
X27694D01*
X26801Y8150D02*
X27457Y8806D01*
X26550Y8150D02*
X26801D01*
X26550Y7500D02*
Y8150D01*
X33350Y9050D02*
X33699D01*
X33750Y8999D01*
X19168Y6916D02*
X20503D01*
X33850Y6700D02*
X33900Y6750D01*
X20242Y6416D02*
X20300Y6473D01*
X19168Y6416D02*
X20242D01*
X20300Y11174D02*
X20676D01*
X19118Y11568D02*
X20582D01*
X33650Y10650D02*
Y11350D01*
X27741Y13656D02*
X27939Y13457D01*
X27456Y13656D02*
X27741D01*
X26926Y13126D02*
X27456Y13656D01*
X26627Y13126D02*
X26926D01*
X26500Y12999D02*
X26627Y13126D01*
X26500Y12300D02*
Y12999D01*
X19874Y11174D02*
X20300D01*
X19768Y11068D02*
X19874Y11174D01*
X19118Y11068D02*
X19768D01*
X34700Y3929D02*
X35122D01*
X34121Y3350D02*
X34700Y3929D01*
X33750Y3350D02*
X34121D01*
X33750Y2650D02*
Y3350D01*
X33350Y13850D02*
X33750D01*
X34606Y9006D02*
X35172D01*
X34126Y8526D02*
X34606Y9006D01*
X33877Y8526D02*
X34126D01*
X33750Y8399D02*
X33877Y8526D01*
X33750Y7700D02*
Y8399D01*
Y12550D02*
Y13250D01*
X34125Y13606D02*
X35172D01*
X33770Y13250D02*
X34125Y13606D01*
X33750Y13250D02*
X33770D01*
D13*
X23810Y16181D02*
X24056Y15935D01*
X31250D01*
X17471Y2130D02*
X17740Y1862D01*
Y1018D02*
Y1862D01*
X17650Y929D02*
X17740Y1018D01*
X17900Y3950D02*
X18100Y3750D01*
Y1379D02*
Y3750D01*
X17650Y929D02*
X18100Y1379D01*
X22750Y16950D02*
X23015D01*
X27971Y20500D02*
Y20767D01*
X27741Y20997D02*
X27971Y20767D01*
X27652Y21150D02*
X27741Y20997D01*
X23650Y17620D02*
Y18217D01*
Y17302D02*
Y17620D01*
X23595Y18272D02*
X23650Y18217D01*
X24526Y17870D02*
X26390D01*
X23595Y18272D02*
X23713D01*
X24056Y17929D01*
X24448D01*
X24526Y17850D01*
X22117Y18750D02*
X22696D01*
X22877Y18932D01*
X23477Y19532D01*
X23595D01*
X16182Y18727D02*
X16358Y18550D01*
X17300D01*
X37375Y16625D02*
X37400Y16600D01*
X36850Y16625D02*
X37375D01*
X36975Y16500D02*
X37300D01*
X36850Y16625D02*
X36975Y16500D01*
X36850Y16250D02*
Y16625D01*
Y16100D02*
Y16250D01*
X35100Y18375D02*
X36850Y16625D01*
X18850Y18539D02*
X19061Y18750D01*
X18742Y18550D02*
X18850Y18442D01*
X17300Y18550D02*
X18742D01*
X18850Y18313D02*
Y18442D01*
Y18539D01*
X38750Y17000D02*
X39000D01*
X20950Y13450D02*
X21240D01*
X17838Y8162D02*
Y9872D01*
X33905Y18675D02*
X34280Y18300D01*
X34300D01*
X19650Y18750D02*
X20525D01*
X19061D02*
X19650D01*
X17900Y13450D02*
X20950D01*
X34300Y18375D02*
X35100D01*
X23585Y18262D02*
X23595Y18272D01*
X17750Y13300D02*
X17900Y13450D01*
X17750Y12787D02*
Y13300D01*
X17600Y6416D02*
X17848Y6168D01*
X17060Y2130D02*
X17471D01*
X17040Y2150D02*
X17060Y2130D01*
X17650Y850D02*
Y929D01*
X17900Y3950D02*
Y5204D01*
X17927Y5231D01*
X17850Y7277D02*
Y8150D01*
Y7277D02*
X18100Y7027D01*
Y5483D02*
Y7027D01*
X17848Y5310D02*
Y6168D01*
Y5310D02*
X17927Y5231D01*
X17190Y6416D02*
X17600D01*
X17927Y5310D02*
X18100Y5483D01*
X17927Y5231D02*
Y5310D01*
X17838Y8162D02*
X17850Y8150D01*
X17827Y9883D02*
X17838Y9872D01*
X17750Y11925D02*
X18100Y11575D01*
Y10235D02*
Y11575D01*
X17552Y11048D02*
X17827Y10773D01*
X17160Y11048D02*
X17552D01*
X17140Y11068D02*
X17160Y11048D01*
X17827Y9962D02*
Y10773D01*
Y9962D02*
X18100Y10235D01*
X17827Y9883D02*
Y9962D01*
X17750Y11925D02*
Y12787D01*
X21544Y18750D02*
X22117D01*
X33523Y18675D02*
X33905D01*
X33513Y18685D02*
X33523Y18675D01*
X33877Y17477D02*
Y17897D01*
X33850Y17450D02*
X33877Y17477D01*
Y17897D02*
X34280Y18300D01*
D14*
X6526Y13211D02*
X6550Y13186D01*
X20950Y17200D02*
X22117D01*
X3300Y16850D02*
X3301D01*
X3370Y16919D01*
Y17132D01*
X3488Y17250D01*
X3850Y16862D02*
Y16869D01*
X3488Y17230D02*
X3850Y16869D01*
X3488Y17230D02*
Y17250D01*
X2800Y17162D02*
X2888Y17250D01*
X2800Y16200D02*
Y17162D01*
X4009Y12300D02*
X4098Y12211D01*
X4550D01*
X3976Y13270D02*
X4441D01*
X4500Y13211D01*
X3976Y14265D02*
X4469D01*
X4500Y14234D01*
X2800Y15200D02*
X2817Y15217D01*
X3488Y17250D02*
X3607Y17132D01*
X2888Y17230D02*
Y17250D01*
X2100Y15500D02*
X2800Y16200D01*
X2100Y11950D02*
Y15500D01*
Y11950D02*
X2700Y11350D01*
X5735D01*
X6576Y12191D01*
Y12211D01*
X6526Y14234D02*
Y14700D01*
Y13211D02*
Y14234D01*
X6550Y12211D02*
Y13186D01*
X14900Y15050D02*
Y15113D01*
Y14700D02*
Y15050D01*
X8580Y18650D02*
X9580D01*
X19627Y18727D02*
X19650Y18750D01*
X19627Y17789D02*
Y18727D01*
X8350Y17200D02*
X8400Y17250D01*
X8280Y17130D02*
X8350Y17200D01*
X8280Y10700D02*
Y17130D01*
Y9692D02*
Y10700D01*
X7947Y9358D02*
X8280Y9692D01*
X20252Y7348D02*
X20300Y7300D01*
X20184Y7416D02*
X20252Y7348D01*
X19168Y7416D02*
X20184D01*
X20252Y7348D02*
Y8150D01*
X18450D02*
X19150D01*
X19018Y3150D02*
X20050D01*
X20150Y3050D01*
Y3911D01*
X20189Y3950D01*
X20199D01*
X18500D02*
X19096D01*
X19118Y12068D02*
X20233D01*
X20300Y12001D01*
Y12590D01*
X20250Y12640D02*
X20300Y12590D01*
X20250Y12640D02*
Y12748D01*
X20211Y12787D02*
X20250Y12748D01*
X20102Y12787D02*
X20211D01*
X18350D02*
X19000D01*
X21300Y19743D02*
X21407Y19636D01*
Y19577D02*
Y19636D01*
Y19577D02*
X21485Y19498D01*
X21544D01*
X21300Y19743D02*
Y20300D01*
X22117Y18750D02*
Y19333D01*
X21952Y19498D02*
X22117Y19333D01*
X21544Y19498D02*
X21952D01*
D17*
X18850Y18545D02*
D03*
Y20120D02*
D03*
D18*
X27652Y21150D02*
D03*
X26500Y14197D02*
D03*
X33750Y14450D02*
D03*
Y9600D02*
D03*
Y4550D02*
D03*
X26547Y4250D02*
D03*
X26550Y9350D02*
D03*
X15910Y2650D02*
D03*
X15300Y3150D02*
D03*
X16098Y6902D02*
D03*
X15410Y7400D02*
D03*
X15910Y11525D02*
D03*
X15410Y12150D02*
D03*
X13322Y18100D02*
D03*
X16100Y18791D02*
D03*
D19*
X2888Y17250D02*
D03*
X3488D02*
D03*
X5100Y14234D02*
D03*
X4500D02*
D03*
X5100Y13211D02*
D03*
X4500D02*
D03*
X5150Y12211D02*
D03*
X4550D02*
D03*
X6526Y14234D02*
D03*
X5926D02*
D03*
X6526Y13211D02*
D03*
X5926D02*
D03*
X6550Y12211D02*
D03*
X5950D02*
D03*
X31850Y15935D02*
D03*
X31250D02*
D03*
X7000Y10700D02*
D03*
X7600D02*
D03*
X8880D02*
D03*
X8280D02*
D03*
X10450Y10050D02*
D03*
X9850D02*
D03*
Y9350D02*
D03*
X10450D02*
D03*
X14700Y2600D02*
D03*
X14100D02*
D03*
X14700Y3248D02*
D03*
X14100D02*
D03*
X14700Y6902D02*
D03*
X14100D02*
D03*
X14700Y7543D02*
D03*
X14100D02*
D03*
X17900Y3950D02*
D03*
X18500D02*
D03*
X22150Y4250D02*
D03*
X22750D02*
D03*
X32050Y17450D02*
D03*
X31450D02*
D03*
X30650D02*
D03*
X30050D02*
D03*
X30650Y16700D02*
D03*
X30050D02*
D03*
X20700Y20300D02*
D03*
X21300D02*
D03*
X20950Y17916D02*
D03*
X20350D02*
D03*
X22252Y18053D02*
D03*
X21652D02*
D03*
X20950Y17200D02*
D03*
X20350D02*
D03*
X19042Y14050D02*
D03*
X18442D02*
D03*
X16250Y17600D02*
D03*
X15650D02*
D03*
X14700Y16862D02*
D03*
X15300D02*
D03*
Y16211D02*
D03*
X14700D02*
D03*
X14100Y13350D02*
D03*
X14700D02*
D03*
Y11500D02*
D03*
X14100D02*
D03*
X14700Y12150D02*
D03*
X14100D02*
D03*
X15338Y13350D02*
D03*
X15938D02*
D03*
X17250D02*
D03*
X16650D02*
D03*
X17850Y8150D02*
D03*
X18450D02*
D03*
X17150Y9200D02*
D03*
X17750D02*
D03*
X22061Y9225D02*
D03*
X22661D02*
D03*
X22061Y8550D02*
D03*
X22661D02*
D03*
X20000Y14050D02*
D03*
X20600D02*
D03*
X20000Y14700D02*
D03*
X20600D02*
D03*
X22050D02*
D03*
X22650D02*
D03*
X22050Y14050D02*
D03*
X22650D02*
D03*
X17440Y17600D02*
D03*
X16840D02*
D03*
X20000Y15611D02*
D03*
X20600D02*
D03*
X20000Y16250D02*
D03*
X20600D02*
D03*
X22050Y15500D02*
D03*
X22650D02*
D03*
X22050Y16200D02*
D03*
X22650D02*
D03*
X18350Y12787D02*
D03*
X17750D02*
D03*
X33850Y17450D02*
D03*
X33250D02*
D03*
D20*
X4800Y15350D02*
D03*
Y15950D02*
D03*
X5426Y15335D02*
D03*
Y15935D02*
D03*
X5976Y15335D02*
D03*
Y15935D02*
D03*
X26550Y3700D02*
D03*
Y3100D02*
D03*
X7000Y9974D02*
D03*
Y9374D02*
D03*
X9150Y7850D02*
D03*
Y8450D02*
D03*
X8500Y7862D02*
D03*
Y8462D02*
D03*
X7850Y7862D02*
D03*
Y8462D02*
D03*
X26550Y8750D02*
D03*
Y8150D02*
D03*
X31700Y18500D02*
D03*
Y19100D02*
D03*
X34300Y18975D02*
D03*
Y18375D02*
D03*
X24526Y18450D02*
D03*
Y17850D02*
D03*
X21306Y16211D02*
D03*
Y15611D02*
D03*
X21300Y14650D02*
D03*
Y14050D02*
D03*
X18450Y16200D02*
D03*
Y15600D02*
D03*
X17300Y19150D02*
D03*
Y18550D02*
D03*
X14800Y18100D02*
D03*
Y17500D02*
D03*
X15550Y14100D02*
D03*
Y14700D02*
D03*
X14900Y14100D02*
D03*
Y14700D02*
D03*
X26550Y2450D02*
D03*
Y1850D02*
D03*
Y7500D02*
D03*
Y6900D02*
D03*
X33750Y13250D02*
D03*
Y13850D02*
D03*
Y12550D02*
D03*
Y11950D02*
D03*
Y8399D02*
D03*
Y8999D02*
D03*
Y7700D02*
D03*
Y7100D02*
D03*
Y3350D02*
D03*
Y3950D02*
D03*
Y2650D02*
D03*
Y2050D02*
D03*
X26500Y12300D02*
D03*
Y11700D02*
D03*
Y12999D02*
D03*
Y13599D02*
D03*
D21*
X37928Y12700D02*
D03*
Y8100D02*
D03*
X37878Y3023D02*
D03*
X30450Y7900D02*
D03*
X30611Y12750D02*
D03*
X30550Y2923D02*
D03*
D22*
X35172Y13606D02*
D03*
Y11794D02*
D03*
Y9006D02*
D03*
Y7194D02*
D03*
X35122Y3929D02*
D03*
Y2118D02*
D03*
X27694Y8806D02*
D03*
Y6994D02*
D03*
X27855Y13656D02*
D03*
Y11844D02*
D03*
X27794Y2018D02*
D03*
Y3829D02*
D03*
D23*
X8863Y9300D02*
D03*
Y9674D02*
D03*
Y10048D02*
D03*
X7800D02*
D03*
Y9300D02*
D03*
X32450Y19059D02*
D03*
Y18685D02*
D03*
Y18311D02*
D03*
X33513D02*
D03*
Y18685D02*
D03*
Y19059D02*
D03*
D24*
X17100Y5231D02*
D03*
X17927D02*
D03*
X16823Y850D02*
D03*
X17650D02*
D03*
X34877Y15950D02*
D03*
X34050D02*
D03*
X33352D02*
D03*
X32525D02*
D03*
X17000Y9883D02*
D03*
X17827D02*
D03*
D25*
X19118Y3150D02*
D03*
Y2650D02*
D03*
X17140Y1650D02*
D03*
Y2150D02*
D03*
Y2650D02*
D03*
Y3150D02*
D03*
X19118Y2150D02*
D03*
Y1650D02*
D03*
Y12068D02*
D03*
Y11568D02*
D03*
X17140Y10568D02*
D03*
Y11068D02*
D03*
Y11568D02*
D03*
Y12068D02*
D03*
X19118Y11068D02*
D03*
Y10568D02*
D03*
Y5916D02*
D03*
Y6416D02*
D03*
X17140Y7416D02*
D03*
Y6916D02*
D03*
Y6416D02*
D03*
Y5916D02*
D03*
X19118Y6916D02*
D03*
Y7416D02*
D03*
D26*
X19096Y3950D02*
D03*
X20199D02*
D03*
X19150Y8150D02*
D03*
X20252D02*
D03*
X20102Y12787D02*
D03*
X19000D02*
D03*
D27*
X20150Y3050D02*
D03*
Y2223D02*
D03*
X20300Y12001D02*
D03*
Y11174D02*
D03*
Y6473D02*
D03*
Y7300D02*
D03*
D28*
X25057Y2100D02*
D03*
X22891D02*
D03*
X25007Y11650D02*
D03*
X22841D02*
D03*
X25057Y6950D02*
D03*
X22891D02*
D03*
D29*
X33877Y20250D02*
D03*
X32223Y20250D02*
D03*
D30*
X35740Y14900D02*
D03*
X37000D02*
D03*
D31*
X28728Y19400D02*
D03*
X30500D02*
D03*
D32*
X23595Y18272D02*
D03*
Y19532D02*
D03*
D33*
X26400Y19984D02*
D03*
Y18016D02*
D03*
D34*
X20525Y18750D02*
D03*
X21544Y19124D02*
D03*
Y18750D02*
D03*
Y19498D02*
D03*
X20525D02*
D03*
D35*
X19627Y16686D02*
D03*
Y17789D02*
D03*
D36*
X38750Y16736D02*
D03*
Y19964D02*
D03*
X43650Y16686D02*
D03*
Y19914D02*
D03*
D37*
X16250Y14270D02*
D03*
X16750D02*
D03*
X17750Y16249D02*
D03*
X17250D02*
D03*
X16750D02*
D03*
X16250D02*
D03*
X17250Y14270D02*
D03*
X17750D02*
D03*
D66*
X26390Y17870D02*
X26400Y17880D01*
Y18016D01*
D67*
X24857Y11500D02*
X25007Y11650D01*
D68*
X37800Y12950D02*
X38100Y13250D01*
X38178Y8200D02*
X38350Y8372D01*
D69*
X3580Y2972D02*
D03*
X2580D02*
D03*
X4580D02*
D03*
X5580D02*
D03*
X2580Y1972D02*
D03*
X6593Y1976D02*
D03*
X5580Y1972D02*
D03*
X4580D02*
D03*
X3580D02*
D03*
X6580Y2972D02*
D03*
X8580Y1972D02*
D03*
X9580D02*
D03*
X10580D02*
D03*
X11593Y1976D02*
D03*
X7580Y1972D02*
D03*
X10580Y2972D02*
D03*
X9580D02*
D03*
X7580D02*
D03*
X8580D02*
D03*
Y19650D02*
D03*
X7580D02*
D03*
X9580D02*
D03*
X10580D02*
D03*
X7580Y18650D02*
D03*
X11593Y18654D02*
D03*
X10580Y18650D02*
D03*
X9580D02*
D03*
X8580D02*
D03*
X6580Y19650D02*
D03*
X3580Y18650D02*
D03*
X4580D02*
D03*
X5580D02*
D03*
X6593Y18654D02*
D03*
X2580Y18650D02*
D03*
X5580Y19650D02*
D03*
X4580D02*
D03*
X2580D02*
D03*
X3580D02*
D03*
X2800Y16200D02*
D03*
Y13200D02*
D03*
Y14200D02*
D03*
Y15200D02*
D03*
D70*
X11580Y2972D02*
D03*
Y19650D02*
D03*
D71*
X22050Y17118D02*
D03*
D72*
X23050D02*
D03*
D73*
X2800Y12200D02*
D03*
D74*
X13249Y15300D02*
D03*
X14990Y19743D02*
D03*
X14690Y4850D02*
D03*
X43950Y11475D02*
D03*
X44130Y2950D02*
D03*
X44150Y4450D02*
D03*
D75*
X43950Y12975D02*
D03*
X44150Y5950D02*
D03*
D76*
X18284Y19636D02*
D03*
X18300Y20056D02*
D03*
X18284Y20450D02*
D03*
X18650Y17800D02*
D03*
X17800Y17600D02*
D03*
X26050Y300D02*
D03*
X16700Y18550D02*
D03*
X16400D02*
D03*
X15482Y20489D02*
D03*
X15072D02*
D03*
X14670D02*
D03*
X15976Y19673D02*
D03*
Y20083D02*
D03*
Y20485D02*
D03*
X13388Y19174D02*
D03*
X13798D02*
D03*
X14200D02*
D03*
X13403Y19861D02*
D03*
X13813D02*
D03*
X14215D02*
D03*
X13403Y20500D02*
D03*
X13813D02*
D03*
X14215D02*
D03*
X3301Y16850D02*
D03*
X3850Y16869D02*
D03*
X8350Y9287D02*
D03*
X9350Y9325D02*
D03*
X33000Y18500D02*
D03*
X21240Y13446D02*
D03*
X34500Y14800D02*
D03*
Y15150D02*
D03*
X34850D02*
D03*
X15332Y17547D02*
D03*
X22877Y17789D02*
D03*
X22875Y18275D02*
D03*
X21050Y19450D02*
D03*
X23650Y17302D02*
D03*
Y17620D02*
D03*
X4009Y12300D02*
D03*
Y13270D02*
D03*
X3976Y14265D02*
D03*
X8280Y14735D02*
D03*
X6526D02*
D03*
X5400Y17244D02*
D03*
X4947Y17230D02*
D03*
X4200Y17244D02*
D03*
X5450Y14900D02*
D03*
X5434Y13555D02*
D03*
X5950Y14900D02*
D03*
X5426Y12500D02*
D03*
X24526Y18984D02*
D03*
X17338Y19636D02*
D03*
X32600Y17335D02*
D03*
Y17781D02*
D03*
X33000Y18050D02*
D03*
X14900Y15050D02*
D03*
X9607Y10700D02*
D03*
X9977D02*
D03*
X8280Y9003D02*
D03*
X9850Y8761D02*
D03*
Y8391D02*
D03*
Y7981D02*
D03*
X25500Y20264D02*
D03*
Y19894D02*
D03*
Y19484D02*
D03*
X27088Y20315D02*
D03*
Y19945D02*
D03*
Y19535D02*
D03*
X24896Y18984D02*
D03*
Y19636D02*
D03*
X24526D02*
D03*
X24590Y20500D02*
D03*
X24220D02*
D03*
X23810D02*
D03*
X22616Y19393D02*
D03*
X22842Y19965D02*
D03*
X22432D02*
D03*
X23072Y20500D02*
D03*
X22702D02*
D03*
X22292D02*
D03*
X20474Y20019D02*
D03*
X20103D02*
D03*
X19694D02*
D03*
X20240Y20500D02*
D03*
X19870D02*
D03*
X19460D02*
D03*
X16919Y19636D02*
D03*
X17708Y20019D02*
D03*
X17338D02*
D03*
X16928D02*
D03*
X17740Y20500D02*
D03*
X17338D02*
D03*
X16928D02*
D03*
X18847Y14497D02*
D03*
X19397Y13950D02*
D03*
X15159Y15407D02*
D03*
X15568D02*
D03*
X15938D02*
D03*
X13163Y14483D02*
D03*
Y14073D02*
D03*
Y13703D02*
D03*
X13930Y17553D02*
D03*
Y17144D02*
D03*
Y16773D02*
D03*
X13163Y17446D02*
D03*
Y17036D02*
D03*
Y16666D02*
D03*
X13700Y14635D02*
D03*
Y14265D02*
D03*
Y13779D02*
D03*
Y13369D02*
D03*
Y12999D02*
D03*
X15750Y9245D02*
D03*
X12550Y9270D02*
D03*
X14200Y15950D02*
D03*
X7150D02*
D03*
X14200Y16300D02*
D03*
X7150D02*
D03*
X17000Y18100D02*
D03*
X18219Y14550D02*
D03*
X10930Y9270D02*
D03*
X18500Y9240D02*
D03*
X20855Y9245D02*
D03*
X20860Y5310D02*
D03*
X24987Y9287D02*
D03*
X25007Y10546D02*
D03*
X20950Y13450D02*
D03*
X16700Y9400D02*
D03*
X16550Y9720D02*
D03*
Y10090D02*
D03*
Y10500D02*
D03*
X16919Y4750D02*
D03*
X16550Y4850D02*
D03*
Y5204D02*
D03*
Y5550D02*
D03*
Y5903D02*
D03*
X16400Y500D02*
D03*
Y850D02*
D03*
X16800Y1310D02*
D03*
X16400Y1261D02*
D03*
Y1630D02*
D03*
X21853Y12543D02*
D03*
Y12230D02*
D03*
X22250Y12400D02*
D03*
X34250Y19600D02*
D03*
X33878Y19613D02*
D03*
X33310Y20426D02*
D03*
Y20073D02*
D03*
X34562Y19864D02*
D03*
Y20250D02*
D03*
Y20614D02*
D03*
X22276Y3052D02*
D03*
Y2740D02*
D03*
X22273Y2034D02*
D03*
X22276Y2390D02*
D03*
Y1352D02*
D03*
X21879Y1808D02*
D03*
Y2533D02*
D03*
X21876Y2177D02*
D03*
X21879Y2883D02*
D03*
Y3195D02*
D03*
X22276Y1665D02*
D03*
X22247Y6390D02*
D03*
X21850Y7920D02*
D03*
Y7608D02*
D03*
X21847Y6902D02*
D03*
X21850Y7258D02*
D03*
Y6220D02*
D03*
Y6533D02*
D03*
X22247Y6077D02*
D03*
Y7115D02*
D03*
X22243Y6759D02*
D03*
X22247Y7465D02*
D03*
Y7777D02*
D03*
X22250Y12088D02*
D03*
X22247Y11382D02*
D03*
X22250Y11738D02*
D03*
Y10700D02*
D03*
Y11013D02*
D03*
X21853Y11155D02*
D03*
Y10843D02*
D03*
Y11880D02*
D03*
X21850Y11525D02*
D03*
X15750Y16900D02*
D03*
X18219Y16700D02*
D03*
X23766Y8065D02*
D03*
X23400Y14299D02*
D03*
X24050Y8349D02*
D03*
X26100Y13599D02*
D03*
X23400Y14649D02*
D03*
X26100Y5100D02*
D03*
Y9700D02*
D03*
X26050Y3700D02*
D03*
X33200Y1200D02*
D03*
Y3950D02*
D03*
X26100Y8750D02*
D03*
X33350Y9050D02*
D03*
Y6150D02*
D03*
Y10800D02*
D03*
Y13850D02*
D03*
D77*
X34800Y11800D02*
D03*
X34443Y2100D02*
D03*
X35168Y1725D02*
D03*
X34650D02*
D03*
X34200D02*
D03*
X42506Y16773D02*
D03*
X37950Y16550D02*
D03*
X43850Y14200D02*
D03*
X44325Y15550D02*
D03*
X42300Y15750D02*
D03*
X44350Y16350D02*
D03*
X41250Y15750D02*
D03*
X37150Y15611D02*
D03*
Y16300D02*
D03*
X37850Y14572D02*
D03*
Y15056D02*
D03*
Y15600D02*
D03*
X44325Y13972D02*
D03*
Y14456D02*
D03*
Y15000D02*
D03*
X43800Y14672D02*
D03*
Y15156D02*
D03*
Y15700D02*
D03*
X42022Y16228D02*
D03*
X42506D02*
D03*
X43050D02*
D03*
X39800Y16773D02*
D03*
X40700Y15750D02*
D03*
X40422Y16250D02*
D03*
X40906D02*
D03*
X41450D02*
D03*
X40422Y16773D02*
D03*
X40906D02*
D03*
X41450D02*
D03*
X38622Y15850D02*
D03*
X39106D02*
D03*
X39650D02*
D03*
X46050Y11525D02*
D03*
X45566D02*
D03*
X45022D02*
D03*
X46250Y12350D02*
D03*
Y12834D02*
D03*
Y13378D02*
D03*
X45600Y12850D02*
D03*
Y13334D02*
D03*
Y13878D02*
D03*
X46250Y14350D02*
D03*
Y14834D02*
D03*
Y15378D02*
D03*
X45550Y15200D02*
D03*
Y15684D02*
D03*
Y16228D02*
D03*
X46250Y16600D02*
D03*
Y17084D02*
D03*
Y17628D02*
D03*
X45500Y17118D02*
D03*
Y17601D02*
D03*
Y18145D02*
D03*
X45850Y19022D02*
D03*
Y19506D02*
D03*
Y20050D02*
D03*
X42850D02*
D03*
Y19506D02*
D03*
Y19022D02*
D03*
X38100Y20056D02*
D03*
Y19512D02*
D03*
Y19028D02*
D03*
X44700Y20120D02*
D03*
Y19576D02*
D03*
Y19093D02*
D03*
X42150Y20564D02*
D03*
Y20056D02*
D03*
Y19572D02*
D03*
X41450Y20050D02*
D03*
Y19506D02*
D03*
Y19022D02*
D03*
X40900Y20564D02*
D03*
Y20056D02*
D03*
Y19572D02*
D03*
X40250Y20050D02*
D03*
Y19506D02*
D03*
Y19022D02*
D03*
X39700Y20564D02*
D03*
Y20069D02*
D03*
Y19585D02*
D03*
X40050Y4096D02*
D03*
Y3612D02*
D03*
Y3068D02*
D03*
Y2584D02*
D03*
X39500Y3846D02*
D03*
Y3362D02*
D03*
Y2821D02*
D03*
Y2338D02*
D03*
X40050Y2050D02*
D03*
Y9096D02*
D03*
Y8612D02*
D03*
Y8068D02*
D03*
Y7584D02*
D03*
X39500Y8846D02*
D03*
Y8362D02*
D03*
Y7821D02*
D03*
Y7338D02*
D03*
X40050Y7050D02*
D03*
Y11750D02*
D03*
X39500Y12038D02*
D03*
Y12521D02*
D03*
Y13062D02*
D03*
Y13546D02*
D03*
X40050Y12284D02*
D03*
Y12768D02*
D03*
Y13312D02*
D03*
Y13796D02*
D03*
X25716Y1362D02*
D03*
Y1846D02*
D03*
X25530Y2468D02*
D03*
Y2951D02*
D03*
X27000Y1320D02*
D03*
X26516D02*
D03*
X27962D02*
D03*
X27443D02*
D03*
X25716Y6721D02*
D03*
Y6202D02*
D03*
X25530Y7796D02*
D03*
Y7277D02*
D03*
X27343Y6220D02*
D03*
X27862D02*
D03*
X26416D02*
D03*
X26900D02*
D03*
X25786Y11428D02*
D03*
Y10928D02*
D03*
X25600Y12449D02*
D03*
Y11949D02*
D03*
X27088Y11013D02*
D03*
X26604D02*
D03*
X28050D02*
D03*
X27530D02*
D03*
X35193Y6628D02*
D03*
X35518Y6878D02*
D03*
Y7286D02*
D03*
X34300Y11800D02*
D03*
X35668Y11900D02*
D03*
X33668Y6678D02*
D03*
X34161D02*
D03*
X34668D02*
D03*
X34318Y7078D02*
D03*
X34674Y11428D02*
D03*
X34144D02*
D03*
X33668D02*
D03*
X32450Y2056D02*
D03*
X32432Y2556D02*
D03*
Y3006D02*
D03*
Y3456D02*
D03*
Y3956D02*
D03*
X32050Y1809D02*
D03*
X32032Y2309D02*
D03*
Y2759D02*
D03*
Y3209D02*
D03*
Y3709D02*
D03*
X32450Y7112D02*
D03*
X32432Y7612D02*
D03*
Y8062D02*
D03*
Y8512D02*
D03*
Y9012D02*
D03*
X32050Y6866D02*
D03*
X32032Y7366D02*
D03*
Y7816D02*
D03*
Y8266D02*
D03*
Y8766D02*
D03*
Y13525D02*
D03*
Y13025D02*
D03*
Y12575D02*
D03*
Y12125D02*
D03*
X32050Y11625D02*
D03*
X32432Y13772D02*
D03*
Y13272D02*
D03*
Y12822D02*
D03*
Y12372D02*
D03*
X32450Y11872D02*
D03*
X8350Y17200D02*
D03*
X32800Y1800D02*
D03*
M02*
