G04*
G04 #@! TF.GenerationSoftware,Altium Limited,Altium Designer,19.0.15 (446)*
G04*
G04 Layer_Color=255*
%FSLAX24Y24*%
%MOIN*%
G70*
G01*
G75*
%ADD17R,0.0413X0.0866*%
%ADD18C,0.0394*%
%ADD19R,0.0354X0.0394*%
%ADD20R,0.0394X0.0354*%
%ADD21R,0.2756X0.2559*%
%ADD22R,0.0591X0.0496*%
%ADD23R,0.0394X0.0217*%
%ADD24R,0.0354X0.0512*%
%ADD25R,0.0736X0.0236*%
%ADD26R,0.0413X0.0197*%
%ADD27R,0.0512X0.0354*%
%ADD28R,0.0787X0.1772*%
%ADD29R,0.0697X0.0827*%
%ADD30R,0.0472X0.0709*%
%ADD31R,0.0787X0.2244*%
%ADD32R,0.0709X0.0472*%
%ADD33R,0.0413X0.1024*%
%ADD34R,0.0394X0.0276*%
%ADD35R,0.0197X0.0413*%
%ADD36R,0.0630X0.1378*%
%ADD37R,0.0236X0.0736*%
%ADD69C,0.0591*%
%ADD70R,0.0591X0.0591*%
%ADD71R,0.0600X0.0600*%
%ADD72C,0.0600*%
%ADD73R,0.0591X0.0591*%
%ADD74C,0.0866*%
%ADD75R,0.0866X0.0866*%
D17*
X18850Y18545D02*
D03*
Y20120D02*
D03*
D18*
X27652Y21150D02*
D03*
X26500Y14197D02*
D03*
X33750Y14450D02*
D03*
Y9600D02*
D03*
Y4550D02*
D03*
X26547Y4250D02*
D03*
X26550Y9350D02*
D03*
X15910Y2650D02*
D03*
X15300Y3150D02*
D03*
X16098Y6902D02*
D03*
X15410Y7400D02*
D03*
X15910Y11525D02*
D03*
X15410Y12150D02*
D03*
X13322Y18100D02*
D03*
X16100Y18791D02*
D03*
D19*
X2888Y17250D02*
D03*
X3488D02*
D03*
X5100Y14234D02*
D03*
X4500D02*
D03*
X5100Y13211D02*
D03*
X4500D02*
D03*
X5150Y12211D02*
D03*
X4550D02*
D03*
X6526Y14234D02*
D03*
X5926D02*
D03*
X6526Y13211D02*
D03*
X5926D02*
D03*
X6550Y12211D02*
D03*
X5950D02*
D03*
X31850Y15935D02*
D03*
X31250D02*
D03*
X7000Y10700D02*
D03*
X7600D02*
D03*
X8880D02*
D03*
X8280D02*
D03*
X10450Y10050D02*
D03*
X9850D02*
D03*
Y9350D02*
D03*
X10450D02*
D03*
X14700Y2600D02*
D03*
X14100D02*
D03*
X14700Y3248D02*
D03*
X14100D02*
D03*
X14700Y6902D02*
D03*
X14100D02*
D03*
X14700Y7543D02*
D03*
X14100D02*
D03*
X17900Y3950D02*
D03*
X18500D02*
D03*
X22150Y4250D02*
D03*
X22750D02*
D03*
X32050Y17450D02*
D03*
X31450D02*
D03*
X30650D02*
D03*
X30050D02*
D03*
X30650Y16700D02*
D03*
X30050D02*
D03*
X20700Y20300D02*
D03*
X21300D02*
D03*
X20950Y17916D02*
D03*
X20350D02*
D03*
X22252Y18053D02*
D03*
X21652D02*
D03*
X20950Y17200D02*
D03*
X20350D02*
D03*
X19042Y14050D02*
D03*
X18442D02*
D03*
X16250Y17600D02*
D03*
X15650D02*
D03*
X14700Y16862D02*
D03*
X15300D02*
D03*
Y16211D02*
D03*
X14700D02*
D03*
X14100Y13350D02*
D03*
X14700D02*
D03*
Y11500D02*
D03*
X14100D02*
D03*
X14700Y12150D02*
D03*
X14100D02*
D03*
X15338Y13350D02*
D03*
X15938D02*
D03*
X17250D02*
D03*
X16650D02*
D03*
X17850Y8150D02*
D03*
X18450D02*
D03*
X17150Y9200D02*
D03*
X17750D02*
D03*
X22061Y9225D02*
D03*
X22661D02*
D03*
X22061Y8550D02*
D03*
X22661D02*
D03*
X20000Y14050D02*
D03*
X20600D02*
D03*
X20000Y14700D02*
D03*
X20600D02*
D03*
X22050D02*
D03*
X22650D02*
D03*
X22050Y14050D02*
D03*
X22650D02*
D03*
X17440Y17600D02*
D03*
X16840D02*
D03*
X20000Y15611D02*
D03*
X20600D02*
D03*
X20000Y16250D02*
D03*
X20600D02*
D03*
X22050Y15500D02*
D03*
X22650D02*
D03*
X22050Y16200D02*
D03*
X22650D02*
D03*
X18350Y12787D02*
D03*
X17750D02*
D03*
X33850Y17450D02*
D03*
X33250D02*
D03*
D20*
X4800Y15350D02*
D03*
Y15950D02*
D03*
X5426Y15335D02*
D03*
Y15935D02*
D03*
X5976Y15335D02*
D03*
Y15935D02*
D03*
X26550Y3700D02*
D03*
Y3100D02*
D03*
X7000Y9974D02*
D03*
Y9374D02*
D03*
X9150Y7850D02*
D03*
Y8450D02*
D03*
X8500Y7862D02*
D03*
Y8462D02*
D03*
X7850Y7862D02*
D03*
Y8462D02*
D03*
X26550Y8750D02*
D03*
Y8150D02*
D03*
X31700Y18500D02*
D03*
Y19100D02*
D03*
X34300Y18975D02*
D03*
Y18375D02*
D03*
X24526Y18450D02*
D03*
Y17850D02*
D03*
X21306Y16211D02*
D03*
Y15611D02*
D03*
X21300Y14650D02*
D03*
Y14050D02*
D03*
X18450Y16200D02*
D03*
Y15600D02*
D03*
X17300Y19150D02*
D03*
Y18550D02*
D03*
X14800Y18100D02*
D03*
Y17500D02*
D03*
X15550Y14100D02*
D03*
Y14700D02*
D03*
X14900Y14100D02*
D03*
Y14700D02*
D03*
X26550Y2450D02*
D03*
Y1850D02*
D03*
Y7500D02*
D03*
Y6900D02*
D03*
X33750Y13250D02*
D03*
Y13850D02*
D03*
Y12550D02*
D03*
Y11950D02*
D03*
Y8399D02*
D03*
Y8999D02*
D03*
Y7700D02*
D03*
Y7100D02*
D03*
Y3350D02*
D03*
Y3950D02*
D03*
Y2650D02*
D03*
Y2050D02*
D03*
X26500Y12300D02*
D03*
Y11700D02*
D03*
Y12999D02*
D03*
Y13599D02*
D03*
D21*
X37928Y12700D02*
D03*
Y8100D02*
D03*
X37878Y3023D02*
D03*
X30450Y7900D02*
D03*
X30611Y12750D02*
D03*
X30550Y2923D02*
D03*
D22*
X35172Y13606D02*
D03*
Y11794D02*
D03*
Y9006D02*
D03*
Y7194D02*
D03*
X35122Y3929D02*
D03*
Y2118D02*
D03*
X27694Y8806D02*
D03*
Y6994D02*
D03*
X27855Y13656D02*
D03*
Y11844D02*
D03*
X27794Y2018D02*
D03*
Y3829D02*
D03*
D23*
X8863Y9300D02*
D03*
Y9674D02*
D03*
Y10048D02*
D03*
X7800D02*
D03*
Y9300D02*
D03*
X32450Y19059D02*
D03*
Y18685D02*
D03*
Y18311D02*
D03*
X33513D02*
D03*
Y18685D02*
D03*
Y19059D02*
D03*
D24*
X17100Y5231D02*
D03*
X17927D02*
D03*
X16823Y850D02*
D03*
X17650D02*
D03*
X34877Y15950D02*
D03*
X34050D02*
D03*
X33352D02*
D03*
X32525D02*
D03*
X17000Y9883D02*
D03*
X17827D02*
D03*
D25*
X19118Y3150D02*
D03*
Y2650D02*
D03*
X17140Y1650D02*
D03*
Y2150D02*
D03*
Y2650D02*
D03*
Y3150D02*
D03*
X19118Y2150D02*
D03*
Y1650D02*
D03*
Y12068D02*
D03*
Y11568D02*
D03*
X17140Y10568D02*
D03*
Y11068D02*
D03*
Y11568D02*
D03*
Y12068D02*
D03*
X19118Y11068D02*
D03*
Y10568D02*
D03*
Y5916D02*
D03*
Y6416D02*
D03*
X17140Y7416D02*
D03*
Y6916D02*
D03*
Y6416D02*
D03*
Y5916D02*
D03*
X19118Y6916D02*
D03*
Y7416D02*
D03*
D26*
X19096Y3950D02*
D03*
X20199D02*
D03*
X19150Y8150D02*
D03*
X20252D02*
D03*
X20102Y12787D02*
D03*
X19000D02*
D03*
D27*
X20150Y3050D02*
D03*
Y2223D02*
D03*
X20300Y12001D02*
D03*
Y11174D02*
D03*
Y6473D02*
D03*
Y7300D02*
D03*
D28*
X25057Y2100D02*
D03*
X22891D02*
D03*
X25007Y11650D02*
D03*
X22841D02*
D03*
X25057Y6950D02*
D03*
X22891D02*
D03*
D29*
X33877Y20250D02*
D03*
X32223Y20250D02*
D03*
D30*
X35740Y14900D02*
D03*
X37000D02*
D03*
D31*
X28728Y19400D02*
D03*
X30500D02*
D03*
D32*
X23595Y18272D02*
D03*
Y19532D02*
D03*
D33*
X26400Y19984D02*
D03*
Y18016D02*
D03*
D34*
X20525Y18750D02*
D03*
X21544Y19124D02*
D03*
Y18750D02*
D03*
Y19498D02*
D03*
X20525D02*
D03*
D35*
X19627Y16686D02*
D03*
Y17789D02*
D03*
D36*
X38750Y16736D02*
D03*
Y19964D02*
D03*
X43650Y16686D02*
D03*
Y19914D02*
D03*
D37*
X16250Y14270D02*
D03*
X16750D02*
D03*
X17750Y16249D02*
D03*
X17250D02*
D03*
X16750D02*
D03*
X16250D02*
D03*
X17250Y14270D02*
D03*
X17750D02*
D03*
D69*
X3580Y2972D02*
D03*
X2580D02*
D03*
X4580D02*
D03*
X5580D02*
D03*
X2580Y1972D02*
D03*
X6593Y1976D02*
D03*
X5580Y1972D02*
D03*
X4580D02*
D03*
X3580D02*
D03*
X6580Y2972D02*
D03*
X8580Y1972D02*
D03*
X9580D02*
D03*
X10580D02*
D03*
X11593Y1976D02*
D03*
X7580Y1972D02*
D03*
X10580Y2972D02*
D03*
X9580D02*
D03*
X7580D02*
D03*
X8580D02*
D03*
Y19650D02*
D03*
X7580D02*
D03*
X9580D02*
D03*
X10580D02*
D03*
X7580Y18650D02*
D03*
X11593Y18654D02*
D03*
X10580Y18650D02*
D03*
X9580D02*
D03*
X8580D02*
D03*
X6580Y19650D02*
D03*
X3580Y18650D02*
D03*
X4580D02*
D03*
X5580D02*
D03*
X6593Y18654D02*
D03*
X2580Y18650D02*
D03*
X5580Y19650D02*
D03*
X4580D02*
D03*
X2580D02*
D03*
X3580D02*
D03*
X2800Y16200D02*
D03*
Y13200D02*
D03*
Y14200D02*
D03*
Y15200D02*
D03*
D70*
X11580Y2972D02*
D03*
Y19650D02*
D03*
D71*
X22050Y17118D02*
D03*
D72*
X23050D02*
D03*
D73*
X2800Y12200D02*
D03*
D74*
X13249Y15300D02*
D03*
X14990Y19743D02*
D03*
X14690Y4850D02*
D03*
X43950Y11475D02*
D03*
X44130Y2950D02*
D03*
X44150Y4450D02*
D03*
D75*
X43950Y12975D02*
D03*
X44150Y5950D02*
D03*
M02*
