G04*
G04 #@! TF.GenerationSoftware,Altium Limited,Altium Designer,19.0.15 (446)*
G04*
G04 Layer_Physical_Order=3*
G04 Layer_Color=16440176*
%FSLAX24Y24*%
%MOIN*%
G70*
G01*
G75*
%ADD69C,0.0591*%
%ADD72C,0.0600*%
%ADD74C,0.0866*%
%ADD75R,0.0866X0.0866*%
%ADD76C,0.0236*%
%ADD77C,0.0315*%
G36*
X34750Y20700D02*
Y18600D01*
X33294Y17144D01*
X32006D01*
X31050Y18100D01*
X24100D01*
X23824Y17824D01*
X23785Y17854D01*
X23720Y17881D01*
X23650Y17890D01*
X23580Y17881D01*
X23515Y17854D01*
X23459Y17811D01*
X23416Y17755D01*
X23389Y17690D01*
X23380Y17620D01*
X23389Y17550D01*
X23416Y17485D01*
X23434Y17461D01*
X23416Y17437D01*
X23389Y17372D01*
X23380Y17302D01*
X23389Y17232D01*
X23416Y17167D01*
X23459Y17111D01*
X23515Y17068D01*
X23580Y17041D01*
X23650Y17032D01*
X23650Y15700D01*
X21522Y13572D01*
X21468Y13589D01*
X21431Y13637D01*
X21375Y13680D01*
X21310Y13707D01*
X21240Y13717D01*
X21170Y13707D01*
X21105Y13680D01*
X21097Y13675D01*
X21085Y13684D01*
X21020Y13711D01*
X20950Y13720D01*
X20880Y13711D01*
X20815Y13684D01*
X20759Y13641D01*
X20716Y13585D01*
X20689Y13520D01*
X20680Y13450D01*
X20689Y13380D01*
X20716Y13315D01*
X20759Y13259D01*
X20815Y13216D01*
X20880Y13189D01*
X20950Y13180D01*
X21020Y13189D01*
X21050Y13201D01*
X21071Y13192D01*
X21083Y13133D01*
X18050Y10100D01*
X18050Y542D01*
X17708Y200D01*
X13100D01*
X12850Y450D01*
Y7150D01*
X12500Y7500D01*
X2350D01*
X1950Y7900D01*
Y20450D01*
X2250Y20750D01*
X12350Y20800D01*
X34650D01*
X34750Y20700D01*
D02*
G37*
G36*
X46600Y20200D02*
Y11100D01*
X46200Y10700D01*
X43500D01*
X43250Y10950D01*
Y11888D01*
X43450Y12088D01*
X44715D01*
X45000Y12372D01*
Y18300D01*
X44700Y18600D01*
X38600D01*
X34550Y14550D01*
X26350D01*
X23515Y11715D01*
Y1065D01*
X23400Y950D01*
X21911D01*
X21600Y1261D01*
Y12553D01*
X22593Y13546D01*
X23046D01*
X25800Y16300D01*
X33500D01*
X38000Y20800D01*
X46000D01*
X46600Y20200D01*
D02*
G37*
G36*
X32400Y14050D02*
X32600Y13850D01*
X32600Y12434D01*
X32750Y12284D01*
X35893D01*
X37178Y11000D01*
X42000D01*
X44850Y8150D01*
X44850Y5600D01*
X44650Y5400D01*
X43700Y5400D01*
X43550Y5550D01*
X43550Y8000D01*
X41600Y9950D01*
X36718Y9950D01*
X35512Y11155D01*
X29145D01*
X29000Y11300D01*
Y14000D01*
X29050Y14050D01*
X32400Y14050D01*
D02*
G37*
G36*
X32600Y9150D02*
Y7525D01*
X32775Y7350D01*
X34585D01*
X34735Y7500D01*
X35616D01*
X37038Y6077D01*
X41923D01*
X43000Y5000D01*
X44550D01*
X44800Y4750D01*
Y4150D01*
X44550Y3900D01*
X42625D01*
X41525Y5000D01*
X36600Y5000D01*
X35150Y6450D01*
X29033Y6450D01*
X28950Y6533D01*
Y9200D01*
X29000Y9250D01*
X32500D01*
X32600Y9150D01*
D02*
G37*
G36*
Y4150D02*
Y2400D01*
X32750Y2250D01*
X34600D01*
X34800Y2450D01*
X35538D01*
X36538Y1450D01*
X42050D01*
X43300Y2700D01*
X43300Y3325D01*
X43525Y3550D01*
X44700D01*
X44850Y3400D01*
Y2633D01*
X42717Y500D01*
X36100D01*
X35050Y1550D01*
X29172D01*
X29072Y1650D01*
Y4228D01*
X29145Y4300D01*
X32450D01*
X32600Y4150D01*
D02*
G37*
%LPC*%
G36*
X12026Y20095D02*
X11135D01*
Y19205D01*
X12026D01*
Y20095D01*
D02*
G37*
G36*
X10580Y20099D02*
X10464Y20084D01*
X10356Y20039D01*
X10263Y19968D01*
X10191Y19875D01*
X10146Y19766D01*
X10131Y19650D01*
X10146Y19534D01*
X10191Y19425D01*
X10263Y19332D01*
X10356Y19261D01*
X10464Y19216D01*
X10580Y19201D01*
X10697Y19216D01*
X10805Y19261D01*
X10898Y19332D01*
X10969Y19425D01*
X11014Y19534D01*
X11029Y19650D01*
X11014Y19766D01*
X10969Y19875D01*
X10898Y19968D01*
X10805Y20039D01*
X10697Y20084D01*
X10580Y20099D01*
D02*
G37*
G36*
X9580D02*
X9464Y20084D01*
X9356Y20039D01*
X9263Y19968D01*
X9191Y19875D01*
X9147Y19766D01*
X9131Y19650D01*
X9147Y19534D01*
X9191Y19425D01*
X9263Y19332D01*
X9356Y19261D01*
X9464Y19216D01*
X9580Y19201D01*
X9697Y19216D01*
X9805Y19261D01*
X9898Y19332D01*
X9969Y19425D01*
X10014Y19534D01*
X10029Y19650D01*
X10014Y19766D01*
X9969Y19875D01*
X9898Y19968D01*
X9805Y20039D01*
X9697Y20084D01*
X9580Y20099D01*
D02*
G37*
G36*
X8580D02*
X8464Y20084D01*
X8356Y20039D01*
X8263Y19968D01*
X8191Y19875D01*
X8146Y19766D01*
X8131Y19650D01*
X8146Y19534D01*
X8191Y19425D01*
X8263Y19332D01*
X8356Y19261D01*
X8464Y19216D01*
X8580Y19201D01*
X8697Y19216D01*
X8805Y19261D01*
X8898Y19332D01*
X8969Y19425D01*
X9014Y19534D01*
X9029Y19650D01*
X9014Y19766D01*
X8969Y19875D01*
X8898Y19968D01*
X8805Y20039D01*
X8697Y20084D01*
X8580Y20099D01*
D02*
G37*
G36*
X7580D02*
X7464Y20084D01*
X7356Y20039D01*
X7263Y19968D01*
X7191Y19875D01*
X7146Y19766D01*
X7131Y19650D01*
X7146Y19534D01*
X7191Y19425D01*
X7263Y19332D01*
X7356Y19261D01*
X7464Y19216D01*
X7580Y19201D01*
X7697Y19216D01*
X7805Y19261D01*
X7898Y19332D01*
X7969Y19425D01*
X8014Y19534D01*
X8029Y19650D01*
X8014Y19766D01*
X7969Y19875D01*
X7898Y19968D01*
X7805Y20039D01*
X7697Y20084D01*
X7580Y20099D01*
D02*
G37*
G36*
X6580D02*
X6464Y20084D01*
X6356Y20039D01*
X6263Y19968D01*
X6191Y19875D01*
X6147Y19766D01*
X6131Y19650D01*
X6147Y19534D01*
X6191Y19425D01*
X6263Y19332D01*
X6356Y19261D01*
X6464Y19216D01*
X6580Y19201D01*
X6697Y19216D01*
X6805Y19261D01*
X6898Y19332D01*
X6969Y19425D01*
X7014Y19534D01*
X7029Y19650D01*
X7014Y19766D01*
X6969Y19875D01*
X6898Y19968D01*
X6805Y20039D01*
X6697Y20084D01*
X6580Y20099D01*
D02*
G37*
G36*
X5580D02*
X5464Y20084D01*
X5356Y20039D01*
X5263Y19968D01*
X5191Y19875D01*
X5146Y19766D01*
X5131Y19650D01*
X5146Y19534D01*
X5191Y19425D01*
X5263Y19332D01*
X5356Y19261D01*
X5464Y19216D01*
X5580Y19201D01*
X5697Y19216D01*
X5805Y19261D01*
X5898Y19332D01*
X5969Y19425D01*
X6014Y19534D01*
X6029Y19650D01*
X6014Y19766D01*
X5969Y19875D01*
X5898Y19968D01*
X5805Y20039D01*
X5697Y20084D01*
X5580Y20099D01*
D02*
G37*
G36*
X4580D02*
X4464Y20084D01*
X4356Y20039D01*
X4263Y19968D01*
X4191Y19875D01*
X4146Y19766D01*
X4131Y19650D01*
X4146Y19534D01*
X4191Y19425D01*
X4263Y19332D01*
X4356Y19261D01*
X4464Y19216D01*
X4580Y19201D01*
X4697Y19216D01*
X4805Y19261D01*
X4898Y19332D01*
X4969Y19425D01*
X5014Y19534D01*
X5029Y19650D01*
X5014Y19766D01*
X4969Y19875D01*
X4898Y19968D01*
X4805Y20039D01*
X4697Y20084D01*
X4580Y20099D01*
D02*
G37*
G36*
X3580D02*
X3464Y20084D01*
X3356Y20039D01*
X3263Y19968D01*
X3191Y19875D01*
X3146Y19766D01*
X3131Y19650D01*
X3146Y19534D01*
X3191Y19425D01*
X3263Y19332D01*
X3356Y19261D01*
X3464Y19216D01*
X3580Y19201D01*
X3697Y19216D01*
X3805Y19261D01*
X3898Y19332D01*
X3969Y19425D01*
X4014Y19534D01*
X4029Y19650D01*
X4014Y19766D01*
X3969Y19875D01*
X3898Y19968D01*
X3805Y20039D01*
X3697Y20084D01*
X3580Y20099D01*
D02*
G37*
G36*
X2580D02*
X2464Y20084D01*
X2356Y20039D01*
X2263Y19968D01*
X2191Y19875D01*
X2147Y19766D01*
X2131Y19650D01*
X2147Y19534D01*
X2191Y19425D01*
X2263Y19332D01*
X2356Y19261D01*
X2464Y19216D01*
X2580Y19201D01*
X2697Y19216D01*
X2805Y19261D01*
X2898Y19332D01*
X2969Y19425D01*
X3014Y19534D01*
X3029Y19650D01*
X3014Y19766D01*
X2969Y19875D01*
X2898Y19968D01*
X2805Y20039D01*
X2697Y20084D01*
X2580Y20099D01*
D02*
G37*
G36*
X16700Y18820D02*
X16630Y18811D01*
X16565Y18784D01*
X16550Y18773D01*
X16535Y18784D01*
X16470Y18811D01*
X16400Y18820D01*
X16330Y18811D01*
X16265Y18784D01*
X16209Y18741D01*
X16166Y18685D01*
X16139Y18620D01*
X16130Y18550D01*
X16139Y18480D01*
X16166Y18415D01*
X16209Y18359D01*
X16265Y18316D01*
X16330Y18289D01*
X16400Y18280D01*
X16470Y18289D01*
X16535Y18316D01*
X16550Y18327D01*
X16565Y18316D01*
X16630Y18289D01*
X16700Y18280D01*
X16741Y18285D01*
X16768Y18238D01*
X16766Y18235D01*
X16739Y18170D01*
X16730Y18100D01*
X16739Y18030D01*
X16766Y17965D01*
X16809Y17909D01*
X16865Y17866D01*
X16930Y17839D01*
X17000Y17830D01*
X17070Y17839D01*
X17135Y17866D01*
X17191Y17909D01*
X17234Y17965D01*
X17261Y18030D01*
X17270Y18100D01*
X17261Y18170D01*
X17234Y18235D01*
X17191Y18291D01*
X17135Y18334D01*
X17070Y18361D01*
X17000Y18370D01*
X16959Y18365D01*
X16932Y18412D01*
X16934Y18415D01*
X16961Y18480D01*
X16970Y18550D01*
X16961Y18620D01*
X16934Y18685D01*
X16891Y18741D01*
X16835Y18784D01*
X16770Y18811D01*
X16700Y18820D01*
D02*
G37*
G36*
X6593Y19103D02*
X6477Y19088D01*
X6368Y19043D01*
X6275Y18972D01*
X6204Y18878D01*
X6159Y18770D01*
X6144Y18654D01*
X6159Y18538D01*
X6204Y18429D01*
X6275Y18336D01*
X6368Y18265D01*
X6477Y18220D01*
X6593Y18205D01*
X6709Y18220D01*
X6817Y18265D01*
X6910Y18336D01*
X6982Y18429D01*
X7027Y18538D01*
X7042Y18654D01*
X7027Y18770D01*
X6982Y18878D01*
X6910Y18972D01*
X6817Y19043D01*
X6709Y19088D01*
X6593Y19103D01*
D02*
G37*
G36*
X9580Y19099D02*
X9464Y19084D01*
X9356Y19039D01*
X9263Y18968D01*
X9191Y18875D01*
X9147Y18766D01*
X9131Y18650D01*
X9147Y18534D01*
X9191Y18425D01*
X9263Y18332D01*
X9356Y18261D01*
X9464Y18216D01*
X9580Y18201D01*
X9697Y18216D01*
X9805Y18261D01*
X9898Y18332D01*
X9969Y18425D01*
X10014Y18534D01*
X10029Y18650D01*
X10014Y18766D01*
X9969Y18875D01*
X9898Y18968D01*
X9805Y19039D01*
X9697Y19084D01*
X9580Y19099D01*
D02*
G37*
G36*
X8580D02*
X8464Y19084D01*
X8356Y19039D01*
X8263Y18968D01*
X8191Y18875D01*
X8146Y18766D01*
X8131Y18650D01*
X8146Y18534D01*
X8191Y18425D01*
X8263Y18332D01*
X8356Y18261D01*
X8464Y18216D01*
X8580Y18201D01*
X8697Y18216D01*
X8805Y18261D01*
X8898Y18332D01*
X8969Y18425D01*
X9014Y18534D01*
X9029Y18650D01*
X9014Y18766D01*
X8969Y18875D01*
X8898Y18968D01*
X8805Y19039D01*
X8697Y19084D01*
X8580Y19099D01*
D02*
G37*
G36*
X7580D02*
X7464Y19084D01*
X7356Y19039D01*
X7263Y18968D01*
X7191Y18875D01*
X7146Y18766D01*
X7131Y18650D01*
X7146Y18534D01*
X7191Y18425D01*
X7263Y18332D01*
X7356Y18261D01*
X7464Y18216D01*
X7580Y18201D01*
X7697Y18216D01*
X7805Y18261D01*
X7898Y18332D01*
X7969Y18425D01*
X8014Y18534D01*
X8029Y18650D01*
X8014Y18766D01*
X7969Y18875D01*
X7898Y18968D01*
X7805Y19039D01*
X7697Y19084D01*
X7580Y19099D01*
D02*
G37*
G36*
X5580D02*
X5464Y19084D01*
X5356Y19039D01*
X5263Y18968D01*
X5191Y18875D01*
X5146Y18766D01*
X5131Y18650D01*
X5146Y18534D01*
X5191Y18425D01*
X5263Y18332D01*
X5356Y18261D01*
X5464Y18216D01*
X5580Y18201D01*
X5697Y18216D01*
X5805Y18261D01*
X5898Y18332D01*
X5969Y18425D01*
X6014Y18534D01*
X6029Y18650D01*
X6014Y18766D01*
X5969Y18875D01*
X5898Y18968D01*
X5805Y19039D01*
X5697Y19084D01*
X5580Y19099D01*
D02*
G37*
G36*
X4580D02*
X4464Y19084D01*
X4356Y19039D01*
X4263Y18968D01*
X4191Y18875D01*
X4146Y18766D01*
X4131Y18650D01*
X4146Y18534D01*
X4191Y18425D01*
X4263Y18332D01*
X4356Y18261D01*
X4464Y18216D01*
X4580Y18201D01*
X4697Y18216D01*
X4805Y18261D01*
X4898Y18332D01*
X4969Y18425D01*
X5014Y18534D01*
X5029Y18650D01*
X5014Y18766D01*
X4969Y18875D01*
X4898Y18968D01*
X4805Y19039D01*
X4697Y19084D01*
X4580Y19099D01*
D02*
G37*
G36*
X3580D02*
X3464Y19084D01*
X3356Y19039D01*
X3263Y18968D01*
X3191Y18875D01*
X3146Y18766D01*
X3131Y18650D01*
X3146Y18534D01*
X3191Y18425D01*
X3263Y18332D01*
X3356Y18261D01*
X3464Y18216D01*
X3580Y18201D01*
X3697Y18216D01*
X3805Y18261D01*
X3898Y18332D01*
X3969Y18425D01*
X4014Y18534D01*
X4029Y18650D01*
X4014Y18766D01*
X3969Y18875D01*
X3898Y18968D01*
X3805Y19039D01*
X3697Y19084D01*
X3580Y19099D01*
D02*
G37*
G36*
X2580D02*
X2464Y19084D01*
X2356Y19039D01*
X2263Y18968D01*
X2191Y18875D01*
X2147Y18766D01*
X2131Y18650D01*
X2147Y18534D01*
X2191Y18425D01*
X2263Y18332D01*
X2356Y18261D01*
X2464Y18216D01*
X2580Y18201D01*
X2697Y18216D01*
X2805Y18261D01*
X2898Y18332D01*
X2969Y18425D01*
X3014Y18534D01*
X3029Y18650D01*
X3014Y18766D01*
X2969Y18875D01*
X2898Y18968D01*
X2805Y19039D01*
X2697Y19084D01*
X2580Y19099D01*
D02*
G37*
G36*
X18650Y18070D02*
X18580Y18061D01*
X18515Y18034D01*
X18459Y17991D01*
X18416Y17935D01*
X18389Y17870D01*
X18380Y17800D01*
X18389Y17730D01*
X18416Y17665D01*
X18459Y17609D01*
X18515Y17566D01*
X18580Y17539D01*
X18650Y17530D01*
X18720Y17539D01*
X18785Y17566D01*
X18841Y17609D01*
X18884Y17665D01*
X18911Y17730D01*
X18920Y17800D01*
X18911Y17870D01*
X18884Y17935D01*
X18841Y17991D01*
X18785Y18034D01*
X18720Y18061D01*
X18650Y18070D01*
D02*
G37*
G36*
X5400Y17514D02*
X5330Y17505D01*
X5265Y17478D01*
X5209Y17435D01*
X5193Y17415D01*
X5143D01*
X5138Y17422D01*
X5082Y17465D01*
X5017Y17492D01*
X4947Y17501D01*
X4877Y17492D01*
X4812Y17465D01*
X4756Y17422D01*
X4713Y17366D01*
X4686Y17300D01*
X4676Y17230D01*
X4686Y17160D01*
X4713Y17095D01*
X4756Y17039D01*
X4812Y16996D01*
X4877Y16969D01*
X4947Y16960D01*
X5017Y16969D01*
X5082Y16996D01*
X5138Y17039D01*
X5153Y17059D01*
X5203D01*
X5209Y17052D01*
X5265Y17009D01*
X5330Y16982D01*
X5400Y16973D01*
X5470Y16982D01*
X5535Y17009D01*
X5591Y17052D01*
X5634Y17108D01*
X5661Y17174D01*
X5670Y17244D01*
X5661Y17313D01*
X5634Y17379D01*
X5591Y17435D01*
X5535Y17478D01*
X5470Y17505D01*
X5400Y17514D01*
D02*
G37*
G36*
X17800Y17870D02*
X17730Y17861D01*
X17665Y17834D01*
X17609Y17791D01*
X17566Y17735D01*
X17539Y17670D01*
X17530Y17600D01*
X17539Y17530D01*
X17566Y17465D01*
X17609Y17409D01*
X17665Y17366D01*
X17730Y17339D01*
X17800Y17330D01*
X17870Y17339D01*
X17935Y17366D01*
X17991Y17409D01*
X18034Y17465D01*
X18061Y17530D01*
X18070Y17600D01*
X18061Y17670D01*
X18034Y17735D01*
X17991Y17791D01*
X17935Y17834D01*
X17870Y17861D01*
X17800Y17870D01*
D02*
G37*
G36*
X4200Y17514D02*
X4130Y17505D01*
X4065Y17478D01*
X4009Y17435D01*
X3966Y17379D01*
X3939Y17313D01*
X3930Y17244D01*
X3939Y17174D01*
X3966Y17108D01*
X4009Y17052D01*
X4065Y17009D01*
X4130Y16982D01*
X4200Y16973D01*
X4270Y16982D01*
X4335Y17009D01*
X4391Y17052D01*
X4434Y17108D01*
X4461Y17174D01*
X4470Y17244D01*
X4461Y17313D01*
X4434Y17379D01*
X4391Y17435D01*
X4335Y17478D01*
X4270Y17505D01*
X4200Y17514D01*
D02*
G37*
G36*
X8350Y17510D02*
X8270Y17500D01*
X8195Y17469D01*
X8131Y17419D01*
X8081Y17355D01*
X8050Y17280D01*
X8040Y17200D01*
X8050Y17120D01*
X8081Y17045D01*
X8131Y16981D01*
X8195Y16931D01*
X8270Y16900D01*
X8350Y16890D01*
X8430Y16900D01*
X8505Y16931D01*
X8569Y16981D01*
X8619Y17045D01*
X8650Y17120D01*
X8660Y17200D01*
X8650Y17280D01*
X8619Y17355D01*
X8569Y17419D01*
X8505Y17469D01*
X8430Y17500D01*
X8350Y17510D01*
D02*
G37*
G36*
X22500Y17568D02*
X21600D01*
Y16668D01*
X22500D01*
Y17568D01*
D02*
G37*
G36*
X15750Y17170D02*
X15680Y17161D01*
X15615Y17134D01*
X15559Y17091D01*
X15516Y17035D01*
X15489Y16970D01*
X15480Y16900D01*
X15489Y16830D01*
X15516Y16765D01*
X15559Y16709D01*
X15615Y16666D01*
X15680Y16639D01*
X15750Y16630D01*
X15820Y16639D01*
X15885Y16666D01*
X15941Y16709D01*
X15984Y16765D01*
X16011Y16830D01*
X16020Y16900D01*
X16011Y16970D01*
X15984Y17035D01*
X15941Y17091D01*
X15885Y17134D01*
X15820Y17161D01*
X15750Y17170D01*
D02*
G37*
G36*
X18219Y16970D02*
X18149Y16961D01*
X18084Y16934D01*
X18028Y16891D01*
X17985Y16835D01*
X17958Y16770D01*
X17949Y16700D01*
X17958Y16630D01*
X17985Y16565D01*
X18028Y16509D01*
X18084Y16466D01*
X18149Y16439D01*
X18219Y16430D01*
X18289Y16439D01*
X18355Y16466D01*
X18411Y16509D01*
X18454Y16565D01*
X18481Y16630D01*
X18490Y16700D01*
X18481Y16770D01*
X18454Y16835D01*
X18411Y16891D01*
X18355Y16934D01*
X18289Y16961D01*
X18219Y16970D01*
D02*
G37*
G36*
X2800Y16649D02*
X2684Y16634D01*
X2575Y16589D01*
X2482Y16518D01*
X2411Y16425D01*
X2366Y16316D01*
X2351Y16200D01*
X2366Y16084D01*
X2411Y15975D01*
X2482Y15882D01*
X2575Y15811D01*
X2684Y15766D01*
X2800Y15751D01*
X2916Y15766D01*
X3025Y15811D01*
X3118Y15882D01*
X3189Y15975D01*
X3234Y16084D01*
X3249Y16200D01*
X3234Y16316D01*
X3189Y16425D01*
X3118Y16518D01*
X3025Y16589D01*
X2916Y16634D01*
X2800Y16649D01*
D02*
G37*
G36*
X14200Y16570D02*
X14130Y16561D01*
X14065Y16534D01*
X14009Y16491D01*
X13966Y16435D01*
X13939Y16370D01*
X13930Y16300D01*
X13939Y16230D01*
X13966Y16165D01*
X13996Y16125D01*
X13966Y16085D01*
X13939Y16020D01*
X13930Y15950D01*
X13939Y15880D01*
X13966Y15815D01*
X14009Y15759D01*
X14065Y15716D01*
X14130Y15689D01*
X14200Y15680D01*
X14270Y15689D01*
X14335Y15716D01*
X14391Y15759D01*
X14434Y15815D01*
X14461Y15880D01*
X14470Y15950D01*
X14461Y16020D01*
X14434Y16085D01*
X14404Y16125D01*
X14434Y16165D01*
X14461Y16230D01*
X14470Y16300D01*
X14461Y16370D01*
X14434Y16435D01*
X14391Y16491D01*
X14335Y16534D01*
X14270Y16561D01*
X14200Y16570D01*
D02*
G37*
G36*
X7150D02*
X7080Y16561D01*
X7015Y16534D01*
X6959Y16491D01*
X6916Y16435D01*
X6889Y16370D01*
X6880Y16300D01*
X6889Y16230D01*
X6916Y16165D01*
X6946Y16125D01*
X6916Y16085D01*
X6889Y16020D01*
X6880Y15950D01*
X6889Y15880D01*
X6916Y15815D01*
X6959Y15759D01*
X7015Y15716D01*
X7080Y15689D01*
X7150Y15680D01*
X7220Y15689D01*
X7285Y15716D01*
X7341Y15759D01*
X7384Y15815D01*
X7411Y15880D01*
X7420Y15950D01*
X7411Y16020D01*
X7384Y16085D01*
X7354Y16125D01*
X7384Y16165D01*
X7411Y16230D01*
X7420Y16300D01*
X7411Y16370D01*
X7384Y16435D01*
X7341Y16491D01*
X7285Y16534D01*
X7220Y16561D01*
X7150Y16570D01*
D02*
G37*
G36*
X5950Y15170D02*
X5880Y15161D01*
X5815Y15134D01*
X5759Y15091D01*
X5730Y15054D01*
X5722Y15051D01*
X5678D01*
X5670Y15054D01*
X5641Y15091D01*
X5585Y15134D01*
X5520Y15161D01*
X5450Y15170D01*
X5380Y15161D01*
X5315Y15134D01*
X5259Y15091D01*
X5216Y15035D01*
X5189Y14970D01*
X5180Y14900D01*
X5189Y14830D01*
X5216Y14765D01*
X5259Y14709D01*
X5315Y14666D01*
X5380Y14639D01*
X5450Y14630D01*
X5520Y14639D01*
X5585Y14666D01*
X5641Y14709D01*
X5670Y14746D01*
X5678Y14749D01*
X5722D01*
X5730Y14746D01*
X5759Y14709D01*
X5815Y14666D01*
X5880Y14639D01*
X5950Y14630D01*
X6020Y14639D01*
X6085Y14666D01*
X6141Y14709D01*
X6184Y14765D01*
X6211Y14830D01*
X6220Y14900D01*
X6211Y14970D01*
X6184Y15035D01*
X6141Y15091D01*
X6085Y15134D01*
X6020Y15161D01*
X5950Y15170D01*
D02*
G37*
G36*
X14900Y15320D02*
X14830Y15311D01*
X14765Y15284D01*
X14709Y15241D01*
X14666Y15185D01*
X14639Y15120D01*
X14630Y15050D01*
X14639Y14980D01*
X14666Y14915D01*
X14709Y14859D01*
X14765Y14816D01*
X14830Y14789D01*
X14900Y14780D01*
X14970Y14789D01*
X15035Y14816D01*
X15091Y14859D01*
X15134Y14915D01*
X15161Y14980D01*
X15170Y15050D01*
X15161Y15120D01*
X15134Y15185D01*
X15091Y15241D01*
X15035Y15284D01*
X14970Y15311D01*
X14900Y15320D01*
D02*
G37*
G36*
X13249Y15886D02*
X13135Y15875D01*
X13025Y15841D01*
X12924Y15787D01*
X12835Y15714D01*
X12762Y15625D01*
X12708Y15524D01*
X12674Y15414D01*
X12663Y15300D01*
X12674Y15186D01*
X12708Y15076D01*
X12762Y14974D01*
X12835Y14886D01*
X12924Y14813D01*
X13025Y14759D01*
X13135Y14725D01*
X13249Y14714D01*
X13363Y14725D01*
X13473Y14759D01*
X13575Y14813D01*
X13663Y14886D01*
X13736Y14974D01*
X13790Y15076D01*
X13824Y15186D01*
X13835Y15300D01*
X13824Y15414D01*
X13790Y15524D01*
X13736Y15625D01*
X13663Y15714D01*
X13575Y15787D01*
X13473Y15841D01*
X13363Y15875D01*
X13249Y15886D01*
D02*
G37*
G36*
X8280Y15005D02*
X8210Y14996D01*
X8145Y14969D01*
X8089Y14926D01*
X8046Y14870D01*
X8019Y14805D01*
X8010Y14735D01*
X8019Y14665D01*
X8046Y14600D01*
X8089Y14544D01*
X8145Y14501D01*
X8210Y14474D01*
X8280Y14465D01*
X8350Y14474D01*
X8416Y14501D01*
X8472Y14544D01*
X8515Y14600D01*
X8542Y14665D01*
X8551Y14735D01*
X8542Y14805D01*
X8515Y14870D01*
X8472Y14926D01*
X8416Y14969D01*
X8350Y14996D01*
X8280Y15005D01*
D02*
G37*
G36*
X6526D02*
X6456Y14996D01*
X6390Y14969D01*
X6334Y14926D01*
X6291Y14870D01*
X6264Y14805D01*
X6255Y14735D01*
X6264Y14665D01*
X6291Y14600D01*
X6334Y14544D01*
X6390Y14501D01*
X6456Y14474D01*
X6526Y14465D01*
X6596Y14474D01*
X6661Y14501D01*
X6717Y14544D01*
X6760Y14600D01*
X6787Y14665D01*
X6796Y14735D01*
X6787Y14805D01*
X6760Y14870D01*
X6717Y14926D01*
X6661Y14969D01*
X6596Y14996D01*
X6526Y15005D01*
D02*
G37*
G36*
X18219Y14820D02*
X18149Y14811D01*
X18084Y14784D01*
X18028Y14741D01*
X17985Y14685D01*
X17958Y14620D01*
X17949Y14550D01*
X17958Y14480D01*
X17985Y14415D01*
X18028Y14359D01*
X18084Y14316D01*
X18149Y14289D01*
X18219Y14280D01*
X18289Y14289D01*
X18355Y14316D01*
X18411Y14359D01*
X18454Y14415D01*
X18481Y14480D01*
X18490Y14550D01*
X18481Y14620D01*
X18454Y14685D01*
X18411Y14741D01*
X18355Y14784D01*
X18289Y14811D01*
X18219Y14820D01*
D02*
G37*
G36*
X2800Y14649D02*
X2684Y14634D01*
X2575Y14589D01*
X2482Y14518D01*
X2411Y14425D01*
X2366Y14316D01*
X2351Y14200D01*
X2366Y14084D01*
X2411Y13975D01*
X2482Y13882D01*
X2575Y13811D01*
X2684Y13766D01*
X2800Y13751D01*
X2916Y13766D01*
X3025Y13811D01*
X3118Y13882D01*
X3189Y13975D01*
X3234Y14084D01*
X3249Y14200D01*
X3234Y14316D01*
X3189Y14425D01*
X3118Y14518D01*
X3025Y14589D01*
X2916Y14634D01*
X2800Y14649D01*
D02*
G37*
G36*
X5434Y13825D02*
X5364Y13816D01*
X5298Y13789D01*
X5242Y13746D01*
X5199Y13690D01*
X5172Y13625D01*
X5163Y13555D01*
X5172Y13485D01*
X5199Y13420D01*
X5242Y13364D01*
X5298Y13321D01*
X5364Y13294D01*
X5434Y13284D01*
X5504Y13294D01*
X5569Y13321D01*
X5625Y13364D01*
X5668Y13420D01*
X5695Y13485D01*
X5704Y13555D01*
X5695Y13625D01*
X5668Y13690D01*
X5625Y13746D01*
X5569Y13789D01*
X5504Y13816D01*
X5434Y13825D01*
D02*
G37*
G36*
X2800Y13649D02*
X2684Y13634D01*
X2575Y13589D01*
X2482Y13518D01*
X2411Y13425D01*
X2366Y13316D01*
X2351Y13200D01*
X2366Y13084D01*
X2411Y12975D01*
X2482Y12882D01*
X2575Y12811D01*
X2684Y12766D01*
X2800Y12751D01*
X2916Y12766D01*
X3025Y12811D01*
X3118Y12882D01*
X3189Y12975D01*
X3234Y13084D01*
X3249Y13200D01*
X3234Y13316D01*
X3189Y13425D01*
X3118Y13518D01*
X3025Y13589D01*
X2916Y13634D01*
X2800Y13649D01*
D02*
G37*
G36*
X5426Y12770D02*
X5356Y12761D01*
X5291Y12734D01*
X5235Y12691D01*
X5192Y12635D01*
X5165Y12570D01*
X5155Y12500D01*
X5165Y12430D01*
X5192Y12365D01*
X5235Y12309D01*
X5291Y12266D01*
X5356Y12239D01*
X5426Y12230D01*
X5496Y12239D01*
X5561Y12266D01*
X5617Y12309D01*
X5660Y12365D01*
X5687Y12430D01*
X5696Y12500D01*
X5687Y12570D01*
X5660Y12635D01*
X5617Y12691D01*
X5561Y12734D01*
X5496Y12761D01*
X5426Y12770D01*
D02*
G37*
G36*
X3245Y12645D02*
X2355D01*
Y11755D01*
X3245D01*
Y12645D01*
D02*
G37*
G36*
X12550Y9541D02*
X12480Y9531D01*
X12415Y9504D01*
X12359Y9461D01*
X12316Y9405D01*
X12289Y9340D01*
X12280Y9270D01*
X12289Y9200D01*
X12316Y9135D01*
X12359Y9079D01*
X12415Y9036D01*
X12480Y9009D01*
X12550Y9000D01*
X12620Y9009D01*
X12685Y9036D01*
X12741Y9079D01*
X12784Y9135D01*
X12811Y9200D01*
X12820Y9270D01*
X12811Y9340D01*
X12784Y9405D01*
X12741Y9461D01*
X12685Y9504D01*
X12620Y9531D01*
X12550Y9541D01*
D02*
G37*
G36*
X10930D02*
X10860Y9531D01*
X10795Y9504D01*
X10739Y9461D01*
X10696Y9405D01*
X10669Y9340D01*
X10659Y9270D01*
X10669Y9200D01*
X10696Y9135D01*
X10739Y9079D01*
X10795Y9036D01*
X10860Y9009D01*
X10930Y9000D01*
X11000Y9009D01*
X11065Y9036D01*
X11121Y9079D01*
X11164Y9135D01*
X11191Y9200D01*
X11200Y9270D01*
X11191Y9340D01*
X11164Y9405D01*
X11121Y9461D01*
X11065Y9504D01*
X11000Y9531D01*
X10930Y9541D01*
D02*
G37*
G36*
X15750Y9516D02*
X15680Y9506D01*
X15615Y9479D01*
X15559Y9436D01*
X15516Y9380D01*
X15489Y9315D01*
X15480Y9245D01*
X15489Y9175D01*
X15516Y9110D01*
X15559Y9054D01*
X15615Y9011D01*
X15680Y8984D01*
X15750Y8975D01*
X15820Y8984D01*
X15885Y9011D01*
X15941Y9054D01*
X15984Y9110D01*
X16011Y9175D01*
X16020Y9245D01*
X16011Y9315D01*
X15984Y9380D01*
X15941Y9436D01*
X15885Y9479D01*
X15820Y9506D01*
X15750Y9516D01*
D02*
G37*
%LPD*%
D69*
X11593Y18654D02*
D03*
X10580Y18650D02*
D03*
X2800Y15200D02*
D03*
D72*
X23050Y17118D02*
D03*
D74*
X14990Y19743D02*
D03*
X14690Y4850D02*
D03*
X43950Y11475D02*
D03*
X44130Y2950D02*
D03*
X44150Y4450D02*
D03*
D75*
Y5950D02*
D03*
D76*
X18284Y19636D02*
D03*
X18300Y20056D02*
D03*
X18284Y20450D02*
D03*
X15482Y20489D02*
D03*
X15072D02*
D03*
X14670D02*
D03*
X15976Y19673D02*
D03*
Y20083D02*
D03*
Y20485D02*
D03*
X13388Y19174D02*
D03*
X13798D02*
D03*
X14200D02*
D03*
X13403Y19861D02*
D03*
X13813D02*
D03*
X14215D02*
D03*
X13403Y20500D02*
D03*
X13813D02*
D03*
X14215D02*
D03*
X3301Y16850D02*
D03*
X3850Y16869D02*
D03*
X8350Y9287D02*
D03*
X9350Y9325D02*
D03*
X33000Y18500D02*
D03*
X34500Y14800D02*
D03*
Y15150D02*
D03*
X34850D02*
D03*
X15332Y17547D02*
D03*
X22877Y17789D02*
D03*
X22875Y18275D02*
D03*
X21050Y19450D02*
D03*
X4009Y12300D02*
D03*
Y13270D02*
D03*
X3976Y14265D02*
D03*
X24526Y18984D02*
D03*
X17338Y19636D02*
D03*
X32600Y17335D02*
D03*
Y17781D02*
D03*
X33000Y18050D02*
D03*
X9607Y10700D02*
D03*
X9977D02*
D03*
X8280Y9003D02*
D03*
X9850Y8761D02*
D03*
Y8391D02*
D03*
Y7981D02*
D03*
X25500Y20264D02*
D03*
Y19894D02*
D03*
Y19484D02*
D03*
X27088Y20315D02*
D03*
Y19945D02*
D03*
Y19535D02*
D03*
X24896Y18984D02*
D03*
Y19636D02*
D03*
X24526D02*
D03*
X24590Y20500D02*
D03*
X24220D02*
D03*
X23810D02*
D03*
X22616Y19393D02*
D03*
X22842Y19965D02*
D03*
X22432D02*
D03*
X23072Y20500D02*
D03*
X22702D02*
D03*
X22292D02*
D03*
X20474Y20019D02*
D03*
X20103D02*
D03*
X19694D02*
D03*
X20240Y20500D02*
D03*
X19870D02*
D03*
X19460D02*
D03*
X16919Y19636D02*
D03*
X17708Y20019D02*
D03*
X17338D02*
D03*
X16928D02*
D03*
X17740Y20500D02*
D03*
X17338D02*
D03*
X16928D02*
D03*
X18847Y14497D02*
D03*
X19397Y13950D02*
D03*
X15159Y15407D02*
D03*
X15568D02*
D03*
X15938D02*
D03*
X13163Y14483D02*
D03*
Y14073D02*
D03*
Y13703D02*
D03*
X13930Y17553D02*
D03*
Y17144D02*
D03*
Y16773D02*
D03*
X13163Y17446D02*
D03*
Y17036D02*
D03*
Y16666D02*
D03*
X13700Y14635D02*
D03*
Y14265D02*
D03*
Y13779D02*
D03*
Y13369D02*
D03*
Y12999D02*
D03*
X16700Y9400D02*
D03*
X16550Y9720D02*
D03*
Y10090D02*
D03*
Y10500D02*
D03*
X16919Y4750D02*
D03*
X16550Y4850D02*
D03*
Y5204D02*
D03*
Y5550D02*
D03*
Y5903D02*
D03*
X16400Y500D02*
D03*
Y850D02*
D03*
X16800Y1310D02*
D03*
X16400Y1261D02*
D03*
Y1630D02*
D03*
X21853Y12543D02*
D03*
Y12230D02*
D03*
X22250Y12400D02*
D03*
X34250Y19600D02*
D03*
X33878Y19613D02*
D03*
X33310Y20426D02*
D03*
Y20073D02*
D03*
X34562Y19864D02*
D03*
Y20250D02*
D03*
Y20614D02*
D03*
X22276Y3052D02*
D03*
Y2740D02*
D03*
X22273Y2034D02*
D03*
X22276Y2390D02*
D03*
Y1352D02*
D03*
X21879Y1808D02*
D03*
Y2533D02*
D03*
X21876Y2177D02*
D03*
X21879Y2883D02*
D03*
Y3195D02*
D03*
X22276Y1665D02*
D03*
X22247Y6390D02*
D03*
X21850Y7920D02*
D03*
Y7608D02*
D03*
X21847Y6902D02*
D03*
X21850Y7258D02*
D03*
Y6220D02*
D03*
Y6533D02*
D03*
X22247Y6077D02*
D03*
Y7115D02*
D03*
X22243Y6759D02*
D03*
X22247Y7465D02*
D03*
Y7777D02*
D03*
X22250Y12088D02*
D03*
X22247Y11382D02*
D03*
X22250Y11738D02*
D03*
Y10700D02*
D03*
Y11013D02*
D03*
X21853Y11155D02*
D03*
Y10843D02*
D03*
Y11880D02*
D03*
X21850Y11525D02*
D03*
D77*
X34800Y11800D02*
D03*
X34443Y2100D02*
D03*
X35168Y1725D02*
D03*
X34650D02*
D03*
X34200D02*
D03*
X46050Y11525D02*
D03*
X45566D02*
D03*
X45022D02*
D03*
X46250Y12350D02*
D03*
Y12834D02*
D03*
Y13378D02*
D03*
X45600Y12850D02*
D03*
Y13334D02*
D03*
Y13878D02*
D03*
X46250Y14350D02*
D03*
Y14834D02*
D03*
Y15378D02*
D03*
X45550Y15200D02*
D03*
Y15684D02*
D03*
Y16228D02*
D03*
X46250Y16600D02*
D03*
Y17084D02*
D03*
Y17628D02*
D03*
X45500Y17118D02*
D03*
Y17601D02*
D03*
Y18145D02*
D03*
X45850Y19022D02*
D03*
Y19506D02*
D03*
Y20050D02*
D03*
X42850D02*
D03*
Y19506D02*
D03*
Y19022D02*
D03*
X38100Y20056D02*
D03*
Y19512D02*
D03*
Y19028D02*
D03*
X44700Y20120D02*
D03*
Y19576D02*
D03*
Y19093D02*
D03*
X42150Y20564D02*
D03*
Y20056D02*
D03*
Y19572D02*
D03*
X41450Y20050D02*
D03*
Y19506D02*
D03*
Y19022D02*
D03*
X40900Y20564D02*
D03*
Y20056D02*
D03*
Y19572D02*
D03*
X40250Y20050D02*
D03*
Y19506D02*
D03*
Y19022D02*
D03*
X39700Y20564D02*
D03*
Y20069D02*
D03*
Y19585D02*
D03*
X35193Y6628D02*
D03*
X35518Y6878D02*
D03*
Y7286D02*
D03*
X34300Y11800D02*
D03*
X35668Y11900D02*
D03*
X33668Y6678D02*
D03*
X34161D02*
D03*
X34668D02*
D03*
X34318Y7078D02*
D03*
X34674Y11428D02*
D03*
X34144D02*
D03*
X33668D02*
D03*
X32450Y2056D02*
D03*
X32432Y2556D02*
D03*
Y3006D02*
D03*
Y3456D02*
D03*
Y3956D02*
D03*
X32050Y1809D02*
D03*
X32032Y2309D02*
D03*
Y2759D02*
D03*
Y3209D02*
D03*
Y3709D02*
D03*
X32450Y7112D02*
D03*
X32432Y7612D02*
D03*
Y8062D02*
D03*
Y8512D02*
D03*
Y9012D02*
D03*
X32050Y6866D02*
D03*
X32032Y7366D02*
D03*
Y7816D02*
D03*
Y8266D02*
D03*
Y8766D02*
D03*
Y13525D02*
D03*
Y13025D02*
D03*
Y12575D02*
D03*
Y12125D02*
D03*
X32050Y11625D02*
D03*
X32432Y13772D02*
D03*
Y13272D02*
D03*
Y12822D02*
D03*
Y12372D02*
D03*
X32450Y11872D02*
D03*
X32800Y1800D02*
D03*
M02*
